<?xml version="1.0" standalone="no"?>
<!DOCTYPE svg PUBLIC "-//W3C//DTD SVG 1.1//EN" "http://www.w3.org/Graphics/SVG/1.1/DTD/svg11.dtd" >
<svg xmlns="http://www.w3.org/2000/svg" xmlns:xlink="http://www.w3.org/1999/xlink" version="1.1">
<metadata></metadata>
<defs>
<font id="amatic_scbold" horiz-adv-x="0" >
<font-face units-per-em="2048" ascent="1638" descent="-410" />
<missing-glyph horiz-adv-x="374" />
<glyph unicode="fi" horiz-adv-x="968" d="M94 12q16 170 27 523q10 367 14 440v49q8 201 8 279q0 29 23.5 45t54.5 16q72 0 154 -12q53 -8 85 -26.5t32 -45.5q0 -57 -105 -57q-39 20 -106 20h-25v-24q0 -80 -8 -203q-10 -115 -10 -207v-55h16h20q100 0 101 -54q0 -27 -21.5 -43t-52.5 -16q-49 0 -80 10v-579 q0 -90 -53 -90q-31 -1 -74 30zM555 63q0 49 64 50h22l21 -2q16 0 22 10t6 37q0 35 -4 108q-6 49 -14 176q-18 313 -19 473q0 57 3 105l2 104q0 68 -7 113q-33 -8 -47 -8q-49 0 -49 49q0 25 31 43t78 27q82 16 145 16q25 0 42 -17.5t17 -39.5q0 -23 -13 -39.5t-34 -16.5 q-12 0 -20 2h-16q-20 0 -29.5 -9t-9.5 -34q0 -199 24 -598q4 -74 17 -217q10 -94 10 -192v-78q12 2 41 2q86 0 86 -72v-12l-51 -35q-2 0 -13.5 -1t-42.5 -1q-66 -4 -84 -4q-178 0 -178 61z" />
<glyph unicode="fl" horiz-adv-x="1054" d="M94 12q16 170 27 523q10 367 14 440v49q8 201 8 279q0 29 23.5 45t54.5 16q72 0 154 -12q53 -8 85 -26.5t32 -45.5q0 -57 -105 -57q-39 20 -106 20h-25v-24q0 -80 -8 -203q-10 -115 -10 -207v-55h16h20q100 0 101 -54q0 -27 -21.5 -43t-52.5 -16q-49 0 -80 10v-579 q0 -90 -53 -90q-31 -1 -74 30zM635 39q0 172 14 459q12 305 13 456v15q-12 129 -13 192q0 195 72 195q20 0 35.5 -15.5t15.5 -35.5q0 -25 -6 -78q-6 -51 -6 -78q0 -137 2 -248q2 -109 2 -246q-10 -31 -10 -86v-24l-4 -162q-4 -72 -4 -164q0 -141 67 -141q4 0 13.5 1t25.5 1 q18 2 47 2q111 0 111 -62q0 -20 -18.5 -34.5t-45.5 -18.5q-73 25 -182 25q-33 -20 -70 -21q-25 0 -42 21.5t-17 46.5z" />
<glyph />
<glyph />
<glyph unicode=" "  horiz-adv-x="374" />
<glyph unicode="&#x09;" horiz-adv-x="374" />
<glyph unicode="&#xa0;" horiz-adv-x="374" />
<glyph unicode="!" horiz-adv-x="423" d="M121 33q0 37 24.5 64.5t59.5 27.5q37 0 60.5 -27.5t23.5 -70.5q0 -72 -101 -72q-24 0 -45.5 22.5t-21.5 55.5zM168 514q0 37 4 139q4 76 4 168l-4 336l-4 336q0 33 26.5 56.5t59.5 23.5q20 0 34.5 -14.5t14.5 -36.5q0 -180 -20 -490q-23 -342 -23 -489q0 -109 -3 -157 t-10 -64.5t-22 -16.5q-21 0 -39 51q-18 53 -18 158z" />
<glyph unicode="&#x22;" horiz-adv-x="681" d="M213 1532q0 20 12.5 33.5t28.5 13.5q41 0 47 -53l2 -8v-7q0 -94 -24.5 -205.5t-51.5 -111.5h-6q-2 0 -5 120t-3 218zM397 1532q0 18 19.5 32.5t42.5 14.5q25 0 35 -47q-2 -78 -21 -219q-14 -119 -39 -119h-8q-8 0 -18.5 127t-10.5 211z" />
<glyph unicode="#" horiz-adv-x="862" d="M92 637q0 45 96 45h35h27q18 106 31 266l-52 -4q-96 0 -96 60v10l31 33h31h30q43 0 64 2l18 127q27 172 27 280v19v18q0 37 10 55.5t41 18.5h16l23 -47q0 -80 -18 -234t-19 -227q12 -4 55 -4h35q61 0 88 8q20 88 53 323q8 63 23 150q23 31 51 31q16 0 32.5 -13.5 t16.5 -27.5q0 -76 -34 -232q-35 -145 -39 -227h65l43 -47q-4 -20 -8 -31.5t-16 -19.5q-14 -10 -29 -11l-68 5q-20 -106 -24 -265h10h10q86 0 86 -61q0 -51 -78 -51h-6l-28 2q-4 -43 -23 -199q-35 -285 -35 -428l-35 -43q-69 0 -69 45q0 129 31 316q29 197 32 303 q-61 4 -141 4l-49 -4q-6 -35 -8 -103q-16 -236 -31 -350q-10 -94 -31 -152q-18 -57 -43 -57q-23 0 -40 12.5t-17 30.5q0 242 72 612l-62 -4q-84 0 -84 66zM342 686q6 -2 27 -2q104 0 155 6q29 176 33 262q-45 8 -96 9q-53 0 -86 -7q-27 -104 -33 -268z" />
<glyph unicode="$" horiz-adv-x="845" d="M166 1245q0 86 54 167t149 124l-2 72q0 55 26 55q18 0 31.5 -22.5t13.5 -55.5v-26q70 16 125 16q37 0 72 -21.5t49 -54.5l-35 -43q-29 0 -71 8q-53 6 -78 6q-29 0 -58 -6l29 -643q49 -63 79 -107t64 -106q66 -125 66 -266q0 -111 -43 -209t-121 -143v-156q0 -92 -59 -92 q-35 0 -35 63v17q-2 18 -2 67l-2 68l-37 -2q-74 0 -127 27q-33 18 -33 43t11.5 40t33.5 15q23 0 62 -17q39 -16 53 -16q12 0 33 4l-19 596l-4 127q-129 176 -177 269.5t-48 201.5zM264 1257q0 -80 31 -155.5t92 -163.5l-2 74q-6 137 -12 422q-51 -33 -80 -82t-29 -95z M479 647l25 -534q37 45 59.5 112.5t22.5 118.5q0 139 -107 303z" />
<glyph unicode="%" horiz-adv-x="1179" d="M76 1163q0 96 33 230q18 72 54 115.5t81 43.5q229 0 229 -405v-6h-2q-16 -47 -16 -217q-2 -66 -16.5 -115t-51.5 -78q-43 -31 -117 -31q-71 1 -112 54q-45 59 -58 127q-18 84 -22 151q-2 61 -2 131zM174 1165q0 -61 4 -123q6 -76 27 -161q10 -37 25.5 -58.5t35.5 -21.5 q113 0 113 291q0 358 -127 358q-25 0 -51.5 -112.5t-26.5 -172.5zM356 51q0 125 99 514q90 354 172 656l41 151l18 66q2 37 17.5 67.5t39.5 30.5q23 0 39.5 -14.5t16.5 -34.5q0 -143 -183 -823q-80 -303 -90 -357q-4 -14 -10 -55q-18 -102 -41 -166q-14 -43 -34.5 -67.5 t-45.5 -26.5q-39 22 -39 59zM672 371q0 68 4 129q2 74 20 153q14 72 60 129q37 55 110 56q43 0 77 -16.5t56 -47.5q47 -72 58 -143q12 -70 12 -154v-98q0 -139 -43 -244q-25 -61 -72 -97t-114 -36q-37 0 -68 27.5t-49 72.5q-35 84 -47 191q-4 57 -4 78zM770 367 q0 -53 25.5 -151.5t50.5 -98.5q123 0 123 268v82q0 74 -19 158q-10 49 -33.5 78.5t-56.5 29.5q-29 0 -49 -47q-29 -61 -39 -233q-2 -33 -2 -86z" />
<glyph unicode="&#x26;" horiz-adv-x="989" d="M102 324q0 92 17 186q2 31 22 86q6 23 13.5 41t11.5 33q14 33 35.5 80t38.5 75q6 18 45 90q0 55 -9 140q-6 92 -6 141v170q0 72 35 109.5t92 37.5q80 0 145.5 -55t65.5 -129q0 -121 -40 -218t-126 -198q-4 -4 -18 -28q-35 -49 -35 -70q0 -57 37 -190t86 -256t84 -160 q63 141 63 360v11q-16 0 -18 6l-6 8l-4 10l-3 6t-3 4v52q55 0 127.5 7t103.5 19q59 -12 59 -53q0 -29 -31.5 -43t-74.5 -14l-4 2h-2h-51q0 -326 -84 -439q61 -63 129 -63l43 4l41 2l37 -31q0 -39 -26 -53t-79 -14q-94 0 -197 76q-119 -78 -231 -78q-76 0 -143.5 51 t-104.5 131q-35 80 -35 154zM197 358q0 -104 47 -188q25 -45 65.5 -70.5t93.5 -25.5q33 0 81 17.5t69 37.5q-188 268 -248 631q-109 -174 -108 -402zM362 1262l3 -138q2 -61 2 -139v-22q57 75 103 162t46 137q0 43 -33.5 100t-66.5 57q-29 0 -54 -49v-108z" />
<glyph unicode="'" horiz-adv-x="538" d="M213 1532q0 18 18.5 32.5t40.5 14.5q37 0 56 -47l-6 -6l2 -8v-7q0 -94 -25 -205.5t-51 -111.5h-6q-9 0 -19 125t-10 213z" />
<glyph unicode="(" horiz-adv-x="595" d="M172 881q0 57 15.5 178t41.5 252q23 129 70 237q45 102 94 103h8l37 -29q0 -59 -45 -143l-28 -64q-43 -109 -67 -252t-24 -284q0 -295 38 -566.5t116 -441.5q10 -25 31 -59q45 -84 57 -131l-2 2q-18 -43 -55 -43q-56 -1 -105 110q-78 184 -137 617q-23 170 -34 308 t-11 206z" />
<glyph unicode=")" horiz-adv-x="626" d="M80 -256q0 31 57 131q27 47 29 53q74 162 124 424t50 463q0 162 -23.5 327t-66.5 273q-10 25 -31 60q-25 47 -35 76.5t-10 58.5v12l39 29q57 0 104 -109q74 -170 111 -534q14 -117 14 -191v-2q0 -72 -25.5 -248t-64.5 -370q-39 -195 -98 -349q-61 -152 -121 -151 q-20 0 -36.5 13.5t-16.5 33.5z" />
<glyph unicode="*" horiz-adv-x="933" d="M59 1151q0 18 13.5 31.5t31.5 13.5h244l-22 47q-53 104 -72 146q-20 37 -31 69q-10 27 -10 43q0 20 16.5 32.5t38.5 12.5q25 0 56 -57q29 -55 61 -139q23 -68 35 -93l16 56q27 88 56 162q39 92 79 92q23 0 40.5 -17.5t17.5 -38.5q0 -49 -80 -223q-18 -37 -27.5 -60.5 t-15.5 -33.5q53 -4 92 -4l59 4l76 4q104 0 105 -61q0 -51 -72 -52l-133 5q-59 4 -133 4q14 -37 78 -158q74 -143 73 -184q0 -23 -15 -37.5t-38 -14.5q-35 0 -54.5 36t-23.5 85l-86 191q-12 -29 -16 -45l-21 -56q-53 -154 -98 -221h-47l-45 45v10q4 41 74 183q66 131 81 168 h-241q-35 0 -48.5 11t-13.5 44z" />
<glyph unicode="+" horiz-adv-x="899" d="M158 655q0 20 13 37t34 17l59 -4l62 -5q18 0 47 5l-6 71q-6 53 -7 78q0 115 66 115q23 0 37 -17.5t14 -42.5v-24l2 -51q0 -20 2 -33q0 -39 6 -70q4 -16 9 -22q4 -8 10 -9l51 5q27 4 68 4q104 0 104 -62q0 -25 -16.5 -40t-40.5 -15q-18 0 -60 6l-61 4q-66 0 -66 -49 q0 -20 11 -82q10 -61 10 -82q0 -25 -20.5 -40t-47.5 -15q-26 0 -45.5 14t-19.5 37q0 33 -6 100q-8 57 -9 99v14l-53 -2q-41 -6 -59 -6q-88 0 -88 65z" />
<glyph unicode="," horiz-adv-x="407" d="M131 -162l49 62q27 37 35 67q2 6 2 19q0 12 -2 18q-33 0 -50.5 19.5t-23.5 60.5q-6 37 21.5 56.5t70.5 19.5q63 0 76 -68q8 -51 -28.5 -135t-94.5 -137q-12 -10 -24 -13h-6q-20 0 -25 19v12z" />
<glyph unicode="-" horiz-adv-x="772" d="M164 715q0 25 49 43q70 27 242 37q66 4 84 4q27 0 47 -17.5t20 -42.5t-49 -43q-70 -27 -242 -37q-66 -4 -84 -4q-26 0 -46.5 17.5t-20.5 42.5z" />
<glyph unicode="." horiz-adv-x="591" d="M213 41q0 31 22.5 55.5t53.5 24.5q29 0 51 -24.5t22 -53.5q0 -33 -23.5 -54.5t-57.5 -21.5q-27 0 -47.5 22.5t-20.5 51.5z" />
<glyph unicode="/" horiz-adv-x="753" d="M156 -8q0 14 6 39l178 712q176 711 209 809q2 14 18 15q16 0 26.5 -13.5t10.5 -33.5l-2 -17q-27 -145 -110.5 -488t-167.5 -651.5t-123 -394.5q-6 -23 -21 -22q-10 0 -17 12t-7 33z" />
<glyph unicode="0" horiz-adv-x="657" d="M90 1157v66q0 154 35 239q16 49 52 75t87 26q293 0 293 -1043q0 -514 -219 -514q-248 0 -248 1151zM188 1395q0 -113 5 -201l4 -205q0 -27 10 -98q10 -76 10 -100q0 -49 6 -226q8 -168 39 -309q14 -72 39 -114t55 -42q34 1 54 62q35 90 49 301q4 45 4 104q0 137 -12 365 q-14 215 -64 389q-23 88 -60.5 139t-84.5 58q-31 -25 -42.5 -51.5t-11.5 -71.5z" />
<glyph unicode="1" horiz-adv-x="550" d="M14 1522q0 53 166 53q88 0 105 -35q-12 -55 -13 -86q0 -55 17 -186q14 -117 14 -189q0 -145 23 -483q23 -299 22 -487v-13q8 0 22.5 2t28.5 2q8 2 25 2q86 0 86 -51q0 -59 -234 -59h-32h-29q-35 0 -49 10t-14 45q0 23 10 31t43 8q45 0 45 35q0 203 -31 598 q-31 397 -31 590q0 18 2 34v39q0 96 -69 97h-23l-24 -2q-59 0 -60 45z" />
<glyph unicode="2" horiz-adv-x="702" d="M100 47v8q41 49 82 164q18 55 31 80q121 268 176 483t55 455q0 256 -98 262q-33 -16 -45 -96q-4 -33 -20.5 -54.5t-40.5 -21.5q-49 0 -50 64q0 96 58 161q31 33 74 33v2q70 0 116 -31q35 -20 66 -77q16 -33 31 -109q4 -37 5 -68.5t3 -46.5v-55q0 -139 -34 -302t-81 -290 q-53 -145 -106 -276q-63 -160 -93 -246q117 20 242 20q43 -31 43 -57q0 -25 -27 -45q-39 0 -110 -6l-45 -2q-86 -10 -158 -10q-31 0 -52.5 17t-21.5 44z" />
<glyph unicode="3" horiz-adv-x="684" d="M59 1415q29 72 81.5 115t119.5 43q47 0 86 -30t62 -79q20 -47 34.5 -109.5t18.5 -117.5q4 -39 4 -113q0 -29 -9.5 -57.5t-19.5 -44.5q-10 -23 -33 -49l-30 -45q47 -29 84 -98.5t55 -161.5q33 -172 33 -308q0 -84 -10 -163q-14 -86 -60 -150q-43 -68 -143 -67 q-76 -1 -123 40q-29 23 -29 56q0 20 6.5 27.5t28.5 7.5q16 0 29 -13q16 -16 31.5 -25.5t39.5 -9.5q125 0 125 232q0 106 -2 157.5t-12 127.5q-25 164 -111 270q-4 -2 -20 -2q-27 0 -45.5 10t-18.5 31q0 35 68 102q27 29 45 73t18 87q0 84 -18 186q-10 61 -33.5 100.5 t-54.5 39.5q-23 0 -40 -16.5t-26 -41.5q-6 -25 -24.5 -42t-44.5 -17q-23 0 -40.5 15.5t-21.5 39.5z" />
<glyph unicode="4" horiz-adv-x="620" d="M150 512q0 43 10 80q-10 51 -10 115q0 59 16 211q14 131 14 206v379q0 27 15 33q10 6 24 6q27 0 44.5 -13t17.5 -36q0 -45 -5 -80l-4 -80v-18q-2 -8 -2 -19q0 -16 4 -36v-9q6 -51 7 -108q0 -100 -15 -260q-14 -160 -14 -260q0 -14 4 -48q47 4 74 13q0 74 10 289 q8 172 8 282q0 20 17.5 33.5t35.5 13.5l33 -37v-98q0 -266 -4 -475q2 0 7 1t18 1q14 2 34 2q61 0 62 -43q0 -49 -82 -49q-35 0 -35 -19q0 -86 6 -199.5t17 -133.5q-4 -16 -4 -39q0 -27 8 -41v-37q0 -33 -11.5 -55.5t-35.5 -22.5q-29 0 -47.5 31t-18.5 67v7q10 41 10 73 q0 37 -6 101q-8 59 -8 100v45q2 18 2 43q0 23 -4 64l-53 -7q-41 -6 -60 -6q-39 0 -79 33z" />
<glyph unicode="5" horiz-adv-x="675" d="M121 1540l35 37h166q86 0 86 -53v-11l-39 -30h-52v6h-86q2 -102 39 -488l41 -4q45 -4 86 -14q23 -6 39 -18q43 -31 76 -136.5t43 -218.5q10 -109 10 -176q0 -94 -4 -155q-2 -43 -8 -69t-21 -69q-12 -35 -29.5 -61.5t-45.5 -56.5q-29 -29 -66 -60h-14h-21q-110 0 -110 57 q0 23 18.5 35.5t42.5 12.5q33 0 53 -19q45 16 76 107.5t31 171.5q0 102 -2 174q-6 92 -21 166q-8 43 -18 71.5t-31 63.5q-29 51 -94 78q-35 10 -68 10q-47 0 -63 39q-10 31 -10 78q0 16 6 53l4 51q0 94 -10 174l-27 170z" />
<glyph unicode="6" horiz-adv-x="579" d="M100 707v96v78q0 705 222 704q16 0 31.5 -12t15.5 -29q0 -25 -22.5 -44t-55.5 -25q-25 -23 -46.5 -132.5t-31.5 -226.5l-10 -168q20 4 30 4q47 0 86 -30.5t66 -81.5q45 -84 74 -254q16 -131 20 -258v-92q0 -39 -2 -73t-10 -67q-10 -37 -26.5 -59.5t-49.5 -36.5 q-35 -14 -76 -14q-96 0 -143 125q-49 123 -59 280q-12 143 -13 316zM201 770q0 -55 2 -90l2 -76q2 -115 14 -231q10 -109 39 -209q27 -90 74 -90q53 0 53 139q0 121 -25 362q-16 135 -43 211q-31 86 -71 97q-27 -20 -36 -45t-9 -68z" />
<glyph unicode="7" horiz-adv-x="614" d="M76 1538q0 43 258 43h37q33 0 48 -3t32 -15q12 -8 24 -39q-33 -160 -88 -713q-18 -199 -50 -392.5t-69 -299.5v-19q0 -41 -23.5 -75.5t-56.5 -34.5l-38 35q0 37 22 108l14 49q82 303 130.5 648.5t54.5 662.5q-20 4 -47 4q-20 0 -131 -12l-70 -6q-20 10 -33.5 25.5 t-13.5 33.5z" />
<glyph unicode="8" horiz-adv-x="643" d="M121 1421q0 80 37 133.5t104 53.5h43q66 -43 88 -78q16 -25 24.5 -42.5t10.5 -47.5q4 -41 4 -127q0 -66 -4 -103l-6 -47q-2 -29 -16 -100q-8 -37 -9 -43q-2 -10 -12 -57l-12 -54l-13 -47q72 -164 117 -370.5t45 -372.5q0 -8 2 -15v-14l-2 -20l-2 -9v-2 q-61 -141 -192 -141q-45 0 -79 28.5t-52 76.5q-31 82 -31 176q0 123 47 344q47 217 47 319q0 55 -20.5 129t-49.5 144q-29 72 -49 148.5t-20 137.5zM219 1413q0 -63 25.5 -193t52.5 -212q45 153 45 305q0 53 -15.5 128t-35.5 75h-43q-29 -33 -29 -103zM260 188 q0 -53 27 -106v-10q2 -25 14 -45.5t29 -20.5q51 0 74.5 36t23.5 97q0 133 -26.5 271.5t-84.5 339.5q-29 -94 -43 -249t-14 -311v-2z" />
<glyph unicode="9" horiz-adv-x="575" d="M45 1243q0 98 21 184q14 57 35.5 95.5t56.5 64.5q35 27 86 27q98 0 135 -44t37 -151q0 -197 -13 -590q-12 -395 -12 -591q0 -23 -6 -72q-8 -47 -8 -76q0 -10 2 -18v-23q0 -37 -18.5 -60.5t-51.5 -23.5l-30 39q31 96 30 682q0 78 -2 133l-2 113q-115 27 -187.5 111.5 t-72.5 199.5zM145 1247q0 -47 7 -82q4 -20 10 -30l10 -25q4 -10 16 -20l19 -19q10 -8 24.5 -17.5t20.5 -13.5q2 -2 8 -5t19 -9l28 -16q10 169 10 417q0 51 -15 76t-58 25q-27 0 -48.5 -34t-31.5 -85q-18 -100 -19 -162z" />
<glyph unicode=":" horiz-adv-x="591" d="M205 250q0 31 22.5 55.5t53.5 24.5q29 0 50 -23.5t21 -54.5q0 -33 -22.5 -54.5t-57.5 -21.5q-26 0 -46.5 22.5t-20.5 51.5zM225 1024q0 31 22.5 55.5t53.5 24.5q29 0 51.5 -24.5t22.5 -53.5q0 -33 -23.5 -54.5t-58.5 -21.5q-27 0 -47.5 22.5t-20.5 51.5z" />
<glyph unicode=";" horiz-adv-x="610" d="M250 51v12l49 62q31 43 35 68q2 6 2 18t-2 18q-33 0 -50.5 19.5t-23.5 60.5q-6 37 20.5 56.5t69.5 19.5q80 0 80 -86q0 -53 -36 -129t-89 -125q-12 -8 -24 -12l-9 -2q-10 0 -16 6t-6 14zM264 1024q0 31 22.5 55.5t53.5 24.5q29 0 51.5 -23.5t22.5 -54.5 q0 -33 -22.5 -53.5t-59.5 -20.5q-27 0 -47.5 21.5t-20.5 50.5z" />
<glyph unicode="&#x3c;" horiz-adv-x="774" d="M158 698q2 35 70.5 223.5t144.5 350.5q80 176 108 176h2l4 -2l45 -35q-8 -68 -48 -173t-91 -202q-119 -238 -119 -334q0 -14 136.5 -297.5t175.5 -355.5h26q-4 -31 -17 -51.5t-38 -20.5q-41 0 -91 60.5t-99 161.5q-74 150 -160 381q-41 102 -49 118z" />
<glyph unicode="=" horiz-adv-x="882" d="M158 635q0 20 13 32.5t34 12.5h307q209 0 209 -53q0 -20 -13.5 -33.5t-35.5 -13.5l-215 4q-143 6 -217 6q-82 0 -82 45zM158 825q0 23 13 35t34 12h366q158 0 158 -55q0 -53 -215 -53l-88 2q-14 2 -29.5 2t-27.5 2h-11l-34 -2h-43q-123 0 -123 57z" />
<glyph unicode="&#x3e;" horiz-adv-x="774" d="M158 25q0 35 67.5 171t175.5 336q80 152 80 170q0 55 -24.5 129t-65.5 150l-24 49q-6 14 -47 94t-66 156q-29 76 -29 131l56 35v-2q39 -18 115.5 -179t142.5 -347q57 -172 61 -220l-360 -716l-21 -2q-6 -2 -18 -3q-19 0 -31 13.5t-12 34.5z" />
<glyph unicode="?" horiz-adv-x="544" d="M121 1339v21q0 53 11 91t42 67q35 29 86 28q45 0 78 -16.5t53 -44.5q33 -49 41 -146q2 -23 2 -79q0 -180 -61 -394q-27 -88 -45.5 -222t-18.5 -277q0 -113 2 -138q-37 0 -41 -4q-4 -2 -10 -2q-41 0 -49 45q0 125 19.5 272.5t56.5 358.5l10 59q29 178 29 299 q0 190 -62 191q-39 0 -39 -92q0 -23 15 -111q0 -2 -11 -12q-35 -31 -51 -31q-57 0 -57 137zM188 68q0 29 25 54t55 25q25 0 49.5 -26.5t24.5 -50.5q0 -78 -82 -78q-31 -1 -49 24q-23 20 -23 52z" />
<glyph unicode="@" horiz-adv-x="1169" d="M90 956q0 76 2 139.5t10 143.5q8 86 25.5 144.5t52.5 129.5q33 68 81 109t124 70q72 27 168 26q86 0 160.5 -31.5t128.5 -89.5q49 -53 89 -130.5t64 -163.5q45 -162 60 -363q6 -82 6 -172q0 -72 -6 -125q-6 -72 -31 -131q-23 -63 -76 -90q-29 -16 -63 -16q-51 0 -105 112 q-35 -94 -94 -153.5t-125 -59.5q-68 0 -119 47q-41 35 -69 117q-23 68 -31 156q-8 90 -8 157v70q0 82 2 141q6 76 18 148q14 61 49 125q18 29 40 45t55 28q31 12 67 13q90 0 156 -86q27 -37 49.5 -94.5t34.5 -116.5q25 -113 37 -258l12 -125q2 -31 8 -107v-10l31 -45 q18 10 31.5 64.5t17.5 111.5q2 33 2 90q0 158 -18 303q-25 178 -80 303q-33 72 -74 121t-98 78q-59 31 -131 31q-125 0 -203 -68q-33 -29 -59.5 -75t-38.5 -93q-12 -41 -19.5 -102.5t-9.5 -112.5l-2 -110v-121q0 -117 4 -217q6 -143 25 -283q25 -164 63 -264 q45 -123 121 -170q35 -27 86 -27q78 0 147.5 17.5t112.5 46.5q35 20 76 53q37 33 61.5 48.5t42.5 15.5t19 -21q0 -25 -31 -64.5t-82 -80.5q-57 -45 -151.5 -75t-198.5 -30q-416 0 -416 1077zM440 825q0 -166 35 -293q37 -123 103 -122q26 0 58 34.5t54.5 81.5t22.5 78v156 q0 119 -27 284q-16 90 -48 145.5t-73 55.5q-55 0 -92 -125q-33 -123 -33 -295z" />
<glyph unicode="A" horiz-adv-x="716" d="M35 63q23 33 51 193l68 375q45 266 82.5 454.5t80.5 315.5q47 141 91 141q43 0 65 -16q0 -82 39 -396q41 -307 41 -419q0 -109 22 -312q20 -207 21 -329q0 -70 -68 -70q-32 0 -47.5 12.5t-15.5 40.5v269q-27 18 -100.5 32.5t-139.5 18.5q-23 -43 -32 -105l-9 -41 q-2 -14 -12 -63t-23 -85t-24 -56q-78 0 -90 40zM240 465q86 -25 182 -25q16 0 41 6q-6 90 -21 224q-47 463 -47 567v16q-20 -20 -56 -185t-66.5 -353.5t-32.5 -249.5z" />
<glyph unicode="B" horiz-adv-x="643" d="M121 1370v12q0 53 10 99q12 55 66 55q143 0 227 -92t84 -244q0 -92 -49 -192.5t-117 -149.5q119 -80 175 -206t56 -277q0 -72 -49 -178q-59 -127 -162 -183q-59 -30 -130 -30h-5h-8q-94 0 -94 51l4 252l4 252q0 137 -6 415q-6 276 -6 416zM231 1358q0 -135 5 -242l4 -227 q53 12 90 88q31 57 57 139q6 23 21 58v71q0 61 -45.5 118.5t-102.5 57.5q-29 0 -29 -63zM238 768q10 -236 10 -678q100 14 159.5 92t59.5 187q0 94 -15.5 173t-39.5 120q-23 39 -45.5 65.5t-38.5 34.5l-17 6h-73z" />
<glyph unicode="C" horiz-adv-x="690" d="M90 793v129q2 55 2 114q0 121 14 191q-6 31 -6 63q0 123 92.5 199t233.5 76q53 0 98 -29t45 -72q0 -20 -16 -32.5t-41 -12.5q-20 0 -44 6.5t-30 18.5h-26v4q-76 0 -127 -33q-37 -27 -58 -88q-8 -23 -12 -57.5t-4 -63.5q-2 -16 -2 -65l4 -72l2 -70q0 -31 -8 -71 q-10 -51 -10 -72v-49q0 -80 6 -219q2 -117 26 -234q18 -109 70 -184q49 -78 133 -78q35 0 86 37q55 37 78 37q29 0 59 -31q0 -76 -57 -117q-53 -37 -127 -47q-41 -4 -65 -4q-58 0 -106 26.5t-83 72.5q-31 43 -55.5 109.5t-36.5 137.5q-25 121 -33 318q-2 47 -2 162z" />
<glyph unicode="D" horiz-adv-x="776" d="M94 1481q0 71 154 71h4h31q111 0 192 -67q66 -57 111 -166q31 -74 53 -205q12 -115 12 -180v-66v-96q-4 -8 -4 -16q0 -16 2 -25q2 -8 2 -20q0 -66 -19.5 -157t-56.5 -185q-92 -225 -206 -320q-68 -53 -142 -53q-41 0 -70.5 18.5t-29.5 51.5q45 45 45 239q0 117 -18 340 q-20 213 -21 336l4 113q2 49 2 112q0 57 -20 146q-25 92 -25 129zM221 1427q0 -184 25 -557q24 -357 24 -546v-15v-194q76 47 133.5 136t88.5 198q55 201 55 405q0 111 -21 242q-23 127 -96 229q-35 49 -88 77t-121 28v-3z" />
<glyph unicode="E" horiz-adv-x="569" d="M111 1454v6q35 57 51 74q29 0 76 8q43 8 75 8q33 0 64 -19.5t31 -45.5q0 -61 -95 -62h-28q-12 2 -29 2q-18 0 -23 -2q0 -70 9 -168l4 -57l4 -113q0 -39 -6 -118l-4 -115l28 6q41 12 68 12q23 0 41 -17t18 -40q0 -25 -15 -44t-38 -19l-25 2h-26q-31 0 -43 -15v-633l114 7 q117 0 117 -54v-8q-12 -25 -45 -40t-63 -19l-68 -2h-63q-39 0 -68 10q-35 10 -35 57v1190q0 35 -12 105q-14 63 -14 104z" />
<glyph unicode="F" horiz-adv-x="542" d="M111 1440q0 57 45 88q16 10 45.5 17t54.5 7q12 2 51 2q47 0 67.5 -15t20.5 -54q0 -23 -16.5 -34t-40.5 -11l-21 2h-28q-57 0 -58 -23q0 -106 15 -278q12 -143 16 -273q14 4 54 13.5t61 9.5q23 0 39 -19.5t16 -44.5q0 -29 -26 -41q-4 -2 -19.5 -9t-40.5 -9q-18 -2 -61 -6 h-23q0 -123 21 -334q18 -221 18 -334l-2 -8l-2 -4q2 -8 2 -27q0 -27 -18.5 -42t-49.5 -15q-59 0 -59 131q0 238 -21.5 760t-39.5 551z" />
<glyph unicode="G" horiz-adv-x="759" d="M90 711v69v82q0 88 6 211q8 104 33 213q27 106 78 180q51 78 137 111q51 14 96 14q86 0 86 -57q0 -23 -15 -36t-40 -13q-8 0 -29 6l-28 4q-39 0 -70 -23.5t-51 -68.5q-47 -98 -64 -215q-23 -143 -24 -250q-4 -92 -4 -195v-55q-2 -29 -2 -72q0 -104 10 -204 q8 -119 45 -205q33 -96 106 -135q35 -20 86 -21q90 0 152 86q-2 72 -10 140.5t-25 93.5q-2 0 -9 -1t-22 -3l-49 -5q-69 0 -69 58q0 20 20.5 34.5t54.5 20.5q57 14 103 14q41 0 63.5 -30.5t22.5 -77.5q0 -68 20 -184q20 -115 21 -183q0 -23 -14.5 -39t-34.5 -16q-51 0 -70 43 v2l-45 -22q-61 -35 -104 -35h-3q-111 0 -184 67q-59 49 -108 168q-31 78 -50 219q-14 115 -14 217q-2 27 -2 93z" />
<glyph unicode="H" horiz-adv-x="675" d="M94 1509q0 37 35 37q20 0 42 -10t32 -23q-8 -66 -8 -153q0 -86 8 -209q6 -141 6 -213v-37q-2 -16 -2 -39q0 -20 4 -53q12 0 41 2t57 6q68 6 101 6q0 178 -4 330l-5 342v55q27 0 47.5 -9t30.5 -23q18 -23 23 -78v-47q0 -176 20 -674q18 -451 19 -676q0 -29 -17.5 -51.5 t-42.5 -22.5q-26 0 -39.5 19.5t-13.5 48.5q0 428 -16 723q-49 8 -70 8q-84 0 -121 -14q0 -115 19 -346q16 -246 16 -349q0 -20 -12.5 -37.5t-30.5 -17.5q-27 0 -49 94q-33 139 -53 584q-14 301 -15 647q-2 63 -2 180z" />
<glyph unicode="I" horiz-adv-x="526" d="M76 63q0 49 61 50h25q8 -2 18 -2q16 0 23.5 10t7.5 37q0 174 -21 475q-18 313 -18 473q0 57 2 104l2 105q0 68 -6 112q-23 -8 -47 -8q-47 0 -47 49q0 25 29.5 43.5t76.5 26.5q86 14 146 14q25 0 42 -16t17 -39t-13.5 -39t-33.5 -16q-12 0 -21 2h-16q-20 0 -29.5 -9.5 t-9.5 -33.5q0 -217 27 -598q24 -384 24 -584v-16v-78q14 2 41 2q86 0 86 -72v-12l-51 -35q-2 0 -12 -1t-41 -1q-70 -4 -86 -4q-176 0 -176 61z" />
<glyph unicode="J" horiz-adv-x="548" d="M41 1481q0 71 237 71h7h26q29 0 45.5 -3t30.5 -15q16 -12 16 -37q0 -53 -86 -53h-1t-1 2h-4h-26v-16q0 -53 12 -158q10 -119 10 -160q0 -145 21 -397q16 -238 16 -400v-82v-81q0 -123 -52 -218.5t-147 -128.5q-32 0 -52.5 16.5t-20.5 47.5q0 23 24.5 47.5t55.5 36.5 q31 39 56 121t25 168l3 100q2 43 2 98l-2 84l-11 207q-14 406 -45 715q-6 -4 -26 -6q-33 -10 -62 -10q-20 0 -35.5 15t-15.5 36z" />
<glyph unicode="K" horiz-adv-x="729" d="M121 109q0 90 12 276q14 172 14 274l3 177v213q0 113 -15 235q-14 127 -14 193q0 27 16.5 45t40.5 18q76 0 76 -166l-8 -420l39 101q68 172 139 340q41 92 74 145q35 55 55 55q23 0 40 -15t17 -38q0 -20 -110 -254q-109 -223 -127 -297v-37q31 -78 164 -498.5t133 -445.5 t-19.5 -41t-46.5 -16q-12 0 -24 4q-10 2 -23 2q-55 313 -110.5 524t-139.5 398l-43 -80q-18 -35 -20 -62q-6 -61 -6 -90q0 -61 6 -188q6 -125 6 -191v-168q0 -108 -69 -108h-1q-59 0 -59 115z" />
<glyph unicode="L" horiz-adv-x="512" d="M121 1530q0 18 14.5 29.5t34.5 11.5q25 0 43 -17.5t18 -42.5q0 -123 13 -368q10 -272 10 -369l2 -24v-25v-14v-11q6 -178 6 -532v-53h158q43 -31 43 -62q0 -23 -15.5 -40t-35.5 -17q-6 0 -23 4l-8 2q-12 -2 -39 -2h-35q-14 2 -33 2q-20 -25 -57 -25q-27 0 -48.5 19.5 t-21.5 46.5q0 18 9 45q6 29 6 43q0 182 -21 700q-20 442 -20 699z" />
<glyph unicode="M" horiz-adv-x="927" d="M111 131l4 168q6 111 6 166l-4 395l-4 397q0 88 4 265l55 32q16 -2 32.5 -23.5t37.5 -68.5q51 -127 133 -508q12 -53 16 -88q25 -119 35 -180l31 -158l14 68l39 168q33 147 54.5 258t41.5 240q23 154 29 256v12q4 27 24.5 42t49.5 15q18 0 32.5 -16.5t14.5 -34.5 q0 -246 18 -735q10 -240 14 -469q4 -104 5 -264q0 -47 -25 -84t-55 -37q-21 0 -33 20.5t-12 59.5l-2 303q-2 39 -2 129q-4 190 -5 430v104q-18 -98 -63 -276q-45 -184 -64 -303v-13l-6 -39q-4 -45 -20 -92q-20 -49 -64 -49q-73 0 -73 188v5q0 106 -21.5 228t-68.5 300 l-62 229l-4 -245q0 -111 10 -422l4 -139l4 -281q0 -43 -30 -78q-51 0 -70.5 32t-19.5 93z" />
<glyph unicode="N" horiz-adv-x="843" d="M111 811v262q0 63 6 189q8 109 8 188v12q0 102 45 103q27 0 68 -90q68 -147 172 -529q59 -221 139 -569q-2 8 33 -141l2 -11q0 199 4 357l4 356v606q8 51 65 51q55 0 56 -79v-13q-12 -25 -13 -59q0 -125 -6 -377q-6 -254 -6 -381v-625q0 -33 -17.5 -62.5t-41.5 -29.5 q-41 0 -168 422q-143 494 -248 907v-671q0 -86 16 -293q14 -225 15 -291q0 -18 -22.5 -31.5t-51.5 -13.5q-43 0 -43 33l4 59q4 66 4 86q0 109 -12 344q-12 240 -12 291z" />
<glyph unicode="O" horiz-adv-x="727" d="M90 1038q0 123 10 217q8 98 41 195q33 84 95 119q37 16 73 16q109 0 172 -86q70 -96 92 -215q33 -143 37 -274q8 -145 8 -275v-117q0 -35 -10 -131q-8 -76 -8 -129v-8q-12 -57 -12 -135q0 -57 -24.5 -118.5t-69.5 -104.5q-45 -49 -103 -49q-55 0 -100 36.5t-78 100.5 q-59 111 -88 303q-20 133 -31 307l-2 109v110q-2 53 -2 129zM184 852q0 -137 29 -338q33 -272 96 -387q41 -72 86 -72q41 0 70 76q25 68 36 165t19 220q4 53 4 137l-2 189q-4 111 -24 276q-16 141 -62 250q-20 51 -51 80t-66 29q-51 0 -75 -80q-31 -84 -41 -185 q-12 -109 -15 -206l-2 -68q-2 -29 -2 -78v-8z" />
<glyph unicode="P" horiz-adv-x="589" d="M100 1520q31 47 78 47q76 0 138.5 -34t103.5 -91q80 -119 80 -266q0 -154 -65.5 -275t-190.5 -188l4 -207l4 -109q2 -35 2 -100q6 -137 6 -223q0 -39 -16.5 -61.5t-50.5 -22.5q-23 0 -36.5 19.5t-13.5 47.5l4 344q6 250 7 387q0 477 -54 732zM215 1458q0 -104 12 -323 l13 -324q79 76 117 159t38 187v2q0 47 -10 119q-6 25 -22.5 49.5t-18.5 28.5q-14 20 -76 63z" />
<glyph unicode="Q" horiz-adv-x="815" d="M90 573l4 168q6 111 6 166l-2 66v80q0 123 8 196q12 102 44 187q33 88 98 123q35 18 76 18q55 0 102 -22.5t82 -61.5q55 -66 90 -213q25 -133 29 -270q2 -43 2 -142v-110q-2 -47 -2 -99v-92q0 -184 -23.5 -286.5t-101.5 -210.5l8 -41q12 -80 27 -125q20 -74 51 -74h8 q37 0 57 -4q31 -10 31 -45q0 -63 -90 -64q-35 0 -86 29v2q-55 25 -78 90q-14 53 -27 125q-8 49 -10 57h-84q-109 72 -159 189q-23 49 -37.5 112.5t-18.5 124.5q-4 37 -4 127zM190 653q0 -88 11 -202q10 -125 53 -242q20 -57 53 -91t76 -38v2q14 27 55 27v-3q76 70 76 222 v551q0 131 -6 219q-8 115 -37 215q-14 51 -35.5 84t-54.5 55q-35 23 -74 23q-37 0 -61 -107q-41 -162 -51 -528q-4 -143 -5 -187z" />
<glyph unicode="R" horiz-adv-x="591" d="M115 43v16l4 603q4 266 4 600v251q0 25 10 34t43 9q51 0 94 -19t74 -54q63 -72 82 -172q8 -41 8 -94q0 -31 -5 -68t-7 -47q-4 -20 -18.5 -61.5t-18.5 -53.5l-25 -57l-20 -53q2 -74 25.5 -186.5t52.5 -209.5q20 -68 74 -225l59 -180v-4q0 -35 -6 -60q-6 -33 -43 -32 q-39 0 -76 55v6q-6 109 -37 242t-90 321q-45 141 -76 254v-807q0 -33 -11 -48t-44 -15q-25 0 -39 15t-14 40zM217 1044q0 -72 2 -94q29 29 70 80l30 176q2 10 3 29q0 59 -23 137q-12 37 -31.5 62.5t-40.5 27.5l-4 -205q-6 -137 -6 -213z" />
<glyph unicode="S" horiz-adv-x="628" d="M80 25q0 25 12 40t35 15q20 0 59 -17q43 -16 54 -16q39 0 70.5 34t49.5 89q37 102 37 184q0 88 -27.5 185.5t-74.5 189.5l-33 66q-51 102 -78.5 161.5t-48.5 128.5q-31 98 -31 191q0 74 26 139.5t77 110.5q51 49 127 49q37 0 71.5 -21.5t49.5 -54.5l-35 -43q-53 0 -80 21 q-37 -4 -64.5 -36t-42.5 -73q-12 -39 -12 -78q0 -78 21.5 -158.5t56.5 -152.5l143 -287q35 -74 55.5 -166t20.5 -184q0 -135 -65 -254q-35 -61 -90.5 -97t-122.5 -36q-74 0 -127 27q-33 18 -33 43z" />
<glyph unicode="T" horiz-adv-x="536" d="M4 1468q0 25 49 43q72 25 244 35q70 4 84 4q25 0 45 -16t20 -41t-17 -40t-44 -15l-37 2q-16 2 -37 2h-20q14 -139 14 -252l-2 -131q-2 -59 -2 -133q0 -98 8 -236q10 -170 10 -235q0 -78 9 -185q8 -109 8 -184q0 -100 -60 -100q-30 0 -47.5 29.5t-17.5 72.5q0 68 8 166 l4 53l4 109q0 72 -14 319q-14 248 -14 320q0 6 1 23.5t1 54.5q2 41 2 100q0 150 -21 190q-12 0 -53 -6l-57 -4q-27 0 -47.5 15.5t-20.5 39.5z" />
<glyph unicode="U" horiz-adv-x="821" d="M94 1477q0 25 18.5 44t41.5 19q73 0 73 -141q0 -98 11 -361q10 -262 10 -356q10 -27 19 -106.5t9 -131.5q0 -45 14.5 -111.5t41.5 -133.5q27 -72 69.5 -118t90.5 -46q29 0 48 18.5t25 52.5q12 57 13 113v399q0 76 -15 193q-12 129 -12 195v14q0 33 -2 59l-2 60 q0 57 -6 174q-8 104 -9 176q0 23 24 39t52 16l51 -47v-35q0 -25 -8 -59q-8 -57 -8 -66q0 -186 21 -514q18 -344 18 -534q0 -102 -20 -180q-12 -47 -34 -76t-59 -49q-35 -20 -90 -21q-126 0 -200 111q-80 113 -113 276q-37 174 -47 373q-10 180 -10 391v170q2 72 2 152 q-16 16 -17 41z" />
<glyph unicode="V" horiz-adv-x="716" d="M41 1524q8 39 55 39q35 0 86 -263q53 -264 105 -598l55 -362q33 246 51 369q39 283 57.5 468t18.5 351q31 41 74 41l43 -23l-31 -276q-10 -127 -51 -461l-19 -135q-23 -180 -45 -340q-31 -231 -57 -322q-12 -47 -25 -47q-29 0 -47 23q-53 221 -145 800q-102 618 -125 736 z" />
<glyph unicode="W" horiz-adv-x="1011" d="M59 1491q27 49 72 49q47 0 88 -213q39 -225 66 -516l14 -166q12 -139 14 -141l21 172l12 106q27 233 35 330q10 127 10 174v39q0 23 16.5 43.5t36.5 20.5q74 0 74 -62v-31q0 -117 23.5 -251t68.5 -320q29 -109 58 -264q6 68 39 327q33 238 48 405t15 312q0 47 15.5 66.5 t58.5 19.5q25 0 44 -15t19 -40q0 -23 -20 -47q0 -147 -22.5 -345t-55.5 -376q-33 -174 -55.5 -373.5t-22.5 -351.5q0 -33 -15.5 -52.5t-45.5 -19.5q-23 0 -54 84q-39 117 -96 465l-37 240l-18 133q-27 -186 -40 -300t-26 -269q-14 -150 -14 -295q0 -20 -17.5 -39t-39.5 -19 q-76 0 -76 156q0 98 -85 703.5t-108 660.5z" />
<glyph unicode="X" horiz-adv-x="622" d="M70 27q0 6 2 6q80 322 131 545q41 182 41 241q0 47 -13.5 114.5t-58.5 272.5l-49 221q-6 25 -6 37q0 29 13 42.5t34 13.5q31 0 45 -50q16 -55 47 -219l8 -37l17 -79l28 -148l49 240l39 188q20 82 31 107q16 29 35 28q20 0 34.5 -12t14.5 -33q0 -53 -70 -319 q-43 -162 -63.5 -255t-20.5 -134q0 -20 39 -217t68 -332l14 -58q20 -78 21 -110q0 -53 -37 -53q-51 0 -60 49q-8 41 -30 166l-17 94q-39 215 -57 293q-102 -459 -123 -533q-29 -108 -49 -108q-23 0 -40 11t-17 28z" />
<glyph unicode="Y" horiz-adv-x="542" d="M31 1513q0 14 16 24.5t35 10.5q23 0 43 -47q25 -53 47.5 -149.5t26.5 -114.5l26 -141l21 -90q6 33 10 86q12 170 31 282q14 78 32 119q20 45 50 45q55 0 55 -20q0 -117 -49 -344t-49 -347l-4 -32q-4 -31 -3 -37v-33q0 -88 7 -270l4 -273l4 -47l4 -49v-51 q0 -25 -20.5 -42.5t-49.5 -17.5q-20 0 -35.5 14.5t-15.5 35.5l4 198q6 133 6 199q0 59 -18 176q-20 115 -21 178q0 78 -22.5 178.5t-56.5 192.5q-33 88 -55.5 189.5t-22.5 176.5z" />
<glyph unicode="Z" horiz-adv-x="534" d="M49 31q45 70 103.5 372t99.5 625q41 317 45 422l-74 -6q-14 -2 -43 -2q-111 0 -110 63v11l26 32v2q25 -8 60 -8q33 0 96 12q72 10 96 11q25 0 40 -17.5t15 -42.5q0 -539 -227 -1419l45 2q27 4 64 4q109 0 108 -61v-11l-33 -30l-124 -4q-57 -4 -127 -4q-37 0 -60 49z" />
<glyph unicode="[" horiz-adv-x="645" d="M156 -35q0 76 22 252q20 162 21 252q0 143 26 506q27 322 27 506v20q-2 8 -2 19q0 25 8 37t33 20h78q49 0 108 -10q35 -6 56.5 -20.5t21.5 -35.5q0 -20 -17.5 -33.5t-37.5 -13.5q-25 0 -58 9q-37 6 -57 6q-39 0 -39 -21q0 -260 -41 -710q-39 -465 -39 -701v-41h21 q182 0 182 -74q0 -23 -18.5 -34t-47.5 -11q-65 1 -141 13q-49 6 -77.5 23.5t-28.5 41.5z" />
<glyph unicode="\" horiz-adv-x="735" d="M131 1505q0 20 16.5 34.5t38.5 14.5q20 0 49 -56t62 -167q104 -342 231 -1020q45 -252 45 -280q0 -31 -47 -62q-34 0 -77 119q-72 186 -168 676q-39 190 -68 348l-39 201l-16 59q-27 84 -27 133z" />
<glyph unicode="]" horiz-adv-x="653" d="M90 1511q0 31 55 52q29 8 101 14h37q14 0 22 2h21q41 0 54 -18.5t13 -79.5q0 -152 29 -486t29 -485q0 -100 20 -272q20 -201 21 -273q0 -25 -29 -42t-78 -23q-76 -12 -141 -13q-68 0 -68 45q0 27 21 41q2 2 14 10.5t33 12.5q25 4 28 4l31 4q23 0 29 2h26h21v41 q-6 203 -43 680q-37 473 -37 731v19q-23 0 -66 -7q-45 -6 -69 -6q-74 0 -74 47z" />
<glyph unicode="^" horiz-adv-x="743" d="M170 389q0 41 33 178q4 16 26 174q18 125 26.5 166t31.5 131l24 115l4 45q2 66 19 129q10 41 31.5 62.5t52.5 19.5l33 -27q0 -68 8 -157q4 -70 18 -156l23 -154q12 -86 67 -315l19 -61l24 -97q12 -41 13 -57q0 -12 -13.5 -25.5t-27.5 -13.5q-42 0 -60 76q-10 29 -17 62.5 t-9 47.5l-7 35q-45 180 -104 582q-8 -33 -16.5 -85t-12.5 -77l-6 -45l-16 -129q-20 -127 -84 -444l-39 -17q-16 4 -28.5 14.5t-12.5 22.5zM375 1233l31 -59v118z" />
<glyph unicode="_" horiz-adv-x="1077" d="M244 -49q0 20 15 34.5t36 14.5h657h49q23 2 50 2q25 0 37 -10t12 -29q0 -16 -16.5 -30.5t-39.5 -14.5l-90 -2l-315 -4q-213 -6 -315 -6q-31 0 -55.5 14t-24.5 31z" />
<glyph unicode="`" horiz-adv-x="774" d="M256 1509q0 25 22.5 52.5t45.5 27.5q12 0 96 -43t155.5 -89t71.5 -62q0 -14 -14 -15q-23 0 -118 28t-177 58.5t-82 42.5z" />
<glyph unicode="a" horiz-adv-x="612" d="M25 43l4 10l2 8q135 526 205 1039q0 8 2 27.5t4 56.5q6 76 13 121t24 67h69q29 0 49.5 -13t20.5 -38q0 -156 43 -463q41 -315 41 -442q0 -12 10 -64q10 -47 10 -61t21 -123q18 -98 18 -127v-2q0 -45 -33 -57q-47 0 -69.5 14t-22.5 53q0 61 -20 209l-8 43l-203 31 q-12 -47 -35 -191q-12 -100 -39 -133q-14 -18 -41 -18q-25 0 -45 15t-20 38zM213 408q31 -20 180 -33q-6 31 -6 76q0 184 -33 471l-20 213q-88 -481 -121 -727z" />
<glyph unicode="b" horiz-adv-x="583" d="M121 88q0 88 8 217q10 123 10 219q0 109 6 326l5 324q0 18 -7 55l-6 51v10q0 47 14.5 69.5t53.5 22.5q53 0 116.5 -30.5t92.5 -77.5q59 -98 59 -246q0 -111 -18.5 -185.5t-63.5 -137.5q55 -53 74.5 -136.5t19.5 -208.5t-43 -217q-49 -104 -143 -143q-57 -20 -115 -20h-2 q-43 0 -53 38q-8 25 -8 70zM236 186q0 -4 2 -6v-4v-92q65 14 102 77.5t37 145.5q0 86 -10 152q-8 51 -21.5 85t-36.5 62q-25 31 -57 37q-8 -117 -8 -309q0 -12 -4 -78zM250 764q106 2 106 248q0 264 -84 276q-22 -45 -22 -207v-14v-303z" />
<glyph unicode="c" horiz-adv-x="571" d="M90 496v55v63v50q0 82 2 146t8 140q6 80 18.5 130t41.5 114q25 59 60.5 92t92.5 55q51 23 127 23q31 0 47.5 -14.5t16.5 -36.5q0 -20 -13.5 -36.5t-31.5 -19.5h-97q-41 0 -71.5 -51t-42.5 -133q-27 -152 -27 -246v-10l-4 -196q-4 -88 -4 -199q0 -78 6 -127 q10 -74 35 -123q25 -55 84 -80q31 -12 68 -12q23 0 45 16q27 0 44 -11t17 -34q0 -80 -113 -80q-45 0 -95 13.5t-77 29.5q-137 88 -137 482z" />
<glyph unicode="d" horiz-adv-x="708" d="M121 1286q0 27 22.5 47.5t49.5 20.5q72 0 138 -32t118 -89q109 -125 143 -275q18 -76 18 -149q0 -27 -2 -49l-2 -55v-113q0 -131 -8 -207q-12 -102 -47 -182q-41 -86 -119 -154q-37 -31 -94 -61h-148q-53 0 -53 268l4 324q2 143 2 321q0 66 -12 203q-10 150 -10 182z M250 1044q0 -129 16 -450q14 -285 15 -453v-49q41 0 75.5 21.5t59.5 58.5q20 33 37.5 83t25.5 97q18 92 23 189q2 25 2 71q0 618 -240 645q-14 -92 -14 -213z" />
<glyph unicode="e" horiz-adv-x="581" d="M135 436q0 100 6 299q8 178 9 299q0 29 -7 86q-6 59 -6 86q0 145 86 146q68 0 157 -27t89 -63q0 -20 -17.5 -38t-41.5 -28q-86 31 -156 41q2 -31 2 -88q0 -82 -2 -148q-6 -98 -6 -147l6 -33l33 2q16 2 41 2q98 0 98 -57q0 -23 -18.5 -38t-47.5 -15q-37 0 -57 4h-51 q4 -53 4 -156q0 -102 -2 -184q-6 -125 -6 -186q0 -115 4 -115l67 2q35 2 84 2q78 0 78 -49q0 -29 -25.5 -44.5t-62.5 -15.5h-174q-26 0 -47.5 18.5t-24.5 45.5v53v41q-2 18 -2 43q0 43 -6 131z" />
<glyph unicode="f" horiz-adv-x="505" d="M94 12q16 170 27 523q10 367 14 440v49q8 201 8 279q0 29 23.5 45t54.5 16q72 0 154 -12q53 -8 85 -26.5t32 -45.5q0 -57 -105 -57q-39 20 -106 20h-25v-24q0 -80 -8 -203q-10 -115 -10 -207v-55h16h20q100 0 101 -54q0 -27 -21.5 -43t-52.5 -16q-49 0 -80 10v-579 q0 -90 -53 -90h-2q-30 0 -72 30z" />
<glyph unicode="g" horiz-adv-x="708" d="M100 492v118v82q0 119 4 195q4 92 27 194q18 92 64 162q43 70 120 96q37 14 86 15q88 0 88 -51q0 -25 -19 -40.5t-46 -15.5q-12 0 -23 2q-8 2 -20 2q-35 0 -61.5 -36.5t-45.5 -102.5q-33 -127 -45 -276q-8 -139 -8 -207q0 -70 6 -191q8 -113 35 -196q14 -49 33.5 -79 t50.5 -50q35 -23 72 -23q98 0 98 328v94q-14 6 -47 6h-18h-23q-72 0 -72 47q0 29 19.5 44.5t50.5 15.5v-2h29q184 0 184 -64q0 -18 -10 -74q-12 -49 -13 -73q0 -35 7 -109l4 -108q0 -98 -69 -154.5t-167 -56.5q-57 0 -104 21.5t-80 55.5q-27 29 -49.5 84.5t-32.5 106.5 q-10 39 -16.5 112.5t-8.5 127.5z" />
<glyph unicode="h" horiz-adv-x="677" d="M121 1294q0 25 16.5 43.5t40.5 18.5q66 0 66 -123l-4 -254q-4 -115 -4 -256q31 -10 110 -10h76q4 12 4 24q0 98 -12 291q-14 180 -15 293q0 23 17.5 38t42.5 15q14 0 41 -10l18 -8q0 -291 21 -776l18 -519q0 -29 -21.5 -45t-50.5 -16q-69 0 -69 338l2 117l2 94v6v20 q2 16 2 39q0 4 -6 11q-6 6 -6 10v2q-10 -4 -37 -4t-66 8q-12 2 -65 10v-235q0 -53 6 -168q6 -113 6 -168q0 -31 -16.5 -53.5t-42.5 -22.5q-39 0 -56 76q-16 78 -16 203l4 166q2 70 2 147v35v28q0 33 -2 43v11l6 118q0 78 -6 232t-6 231z" />
<glyph unicode="i" horiz-adv-x="462" d="M49 63q0 49 64 50h22l21 -2q16 0 22 10t6 37q0 35 -4 108q-6 49 -14 176q-18 313 -19 473q0 57 3 105l2 104q0 68 -7 113q-33 -8 -47 -8q-49 0 -49 49q0 25 31 43t78 27q82 16 145 16q25 0 42 -17.5t17 -39.5q0 -23 -13 -39.5t-34 -16.5q-12 0 -20 2h-16q-20 0 -29.5 -9 t-9.5 -34q0 -199 24 -598q4 -74 17 -217q10 -94 10 -192v-78q12 2 41 2q86 0 86 -72v-12l-51 -35q-2 0 -13.5 -1t-42.5 -1q-66 -4 -84 -4q-178 0 -178 61z" />
<glyph unicode="j" horiz-adv-x="520" d="M-4 -152q2 8 2 19q0 8 29 20q98 31 133 68q57 63 57 231q0 135 -10 525q-12 342 -12 522v8q-6 0 -19.5 2t-30.5 2q-37 4 -59 10q-31 8 -43 21q-4 8 -4 16q0 18 21.5 32.5t43.5 14.5q102 0 233.5 -14t131.5 -33q0 -20 -15.5 -33.5t-39.5 -13.5h-105q0 -109 10 -432 q10 -240 11 -430v-219q0 -72 -11 -121q-14 -76 -57 -131q-45 -63 -135 -90q-45 -14 -109 -15q-22 0 -22 25v16z" />
<glyph unicode="k" horiz-adv-x="716" d="M129 35v620q0 90 21 332q20 211 20 332q16 39 59 39q27 0 45.5 -18.5t18.5 -45.5v-6q-27 -45 -27 -373v-73l76 149q70 145 131 250q57 102 84 102q33 0 56.5 -14t23.5 -41l-49 -82q-154 -248 -172 -286q0 -35 -2 -62l-2 -61q0 -88 70.5 -329t117.5 -318l27 -37 q39 -53 39 -95q0 -23 -17.5 -38t-40.5 -15q-47 1 -100 103q-80 154 -158 505q-23 96 -37 179q-73 -145 -73 -351v-6v-379q0 -47 -41 -47q-31 0 -50.5 17.5t-19.5 48.5z" />
<glyph unicode="l" horiz-adv-x="548" d="M129 39q0 172 14 459q12 305 13 456v15q-12 129 -13 192q0 195 72 195q20 0 35.5 -15.5t15.5 -35.5q0 -25 -6 -78q-6 -51 -6 -78q0 -137 2 -248q2 -109 2 -246q-10 -31 -10 -86v-24l-4 -162q-4 -72 -4 -164q0 -141 67 -141q4 0 13.5 1t25.5 1q18 2 47 2q111 0 111 -62 q0 -20 -18.5 -34.5t-45.5 -18.5q-73 25 -182 25q-33 -20 -70 -21q-25 0 -42 21.5t-17 46.5z" />
<glyph unicode="m" horiz-adv-x="1148" d="M121 8q0 209 31 627q30 405 30 614v13q-12 18 -12 38q0 25 23.5 38.5t56.5 13.5q27 0 98.5 -192.5t143 -436.5t92.5 -352q16 55 26 102l13 49q66 287 131 518q39 141 75 222q37 86 68 86q29 0 52.5 -15.5t23.5 -40.5q0 -147 12 -442q14 -274 14 -426l-2 -109l-4 -108 q0 -25 6 -74l7 -72q2 -18 3 -28t1 -13q10 -27 10 -38q0 -35 -20.5 -61.5t-49.5 -26.5h-1q-62 0 -62 126v132v131q0 102 -15 268q-16 186 -16 256l4 127q4 55 4 125q-8 -27 -67 -283q-59 -248 -123 -459q-61 -202 -101 -202q-39 0 -62.5 23.5t-23.5 64.5q0 90 -72.5 383 t-131.5 479l-13 -231q-16 -293 -22 -488q-4 -188 -4 -258q0 -16 2 -31v-28q0 -35 -14.5 -52.5t-53.5 -17.5q-20 0 -38.5 15.5t-18.5 33.5z" />
<glyph unicode="n" horiz-adv-x="980" d="M145 829q0 66 7 191q6 129 6 190q0 96 73 152v-12q12 4 17 4q47 0 119 -164q57 -131 103 -276.5t122 -413.5l20 -74q47 -166 72 -238q41 440 41 1041v26q-2 12 -2 27q0 61 49 61q29 0 44 -22.5t15 -56.5v-154q-4 -315 -24.5 -684t-48.5 -416q-59 -16 -74 -16 q-25 0 -37 13t-18 46l-13 39v4v6q0 68 -140 461t-220 582v-1030l8 -15q2 -4 8.5 -14t6.5 -20q0 -27 -18.5 -45.5t-45.5 -18.5q-66 0 -65 125l-3 350q-2 158 -2 352z" />
<glyph unicode="o" horiz-adv-x="737" d="M100 627q0 25 2 41v37q0 10 -2 10v37l2 143q2 66 17 209q10 98 47 190q14 41 36.5 62.5t51.5 21.5q82 0 147.5 -29.5t110.5 -82.5q41 -51 69.5 -126t41.5 -159q12 -86 12 -182v-17q0 -63 2 -114l2 -117q0 -590 -274 -590q-54 0 -99 34t-73 91q-59 125 -74 272 q-18 139 -19 269zM213 717q0 -111 6 -219q8 -154 41 -299q33 -152 96 -152q37 0 68 29.5t47 81.5q39 104 47 225q10 104 10 180q0 92 -14 242q-12 158 -12 235v37q-4 78 -52.5 135.5t-117.5 57.5q-70 0 -92 -80q-20 -63 -21 -164q0 -39 2 -65v-56l-4 -94q-4 -43 -4 -94z" />
<glyph unicode="p" horiz-adv-x="575" d="M139 702v7q20 39 21 176l2 94q2 45 2 100q0 121 -17 191q6 29 20.5 50t35.5 21h90q57 0 100 -25.5t66 -72.5q41 -84 41 -199q0 -82 -2 -129q-4 -59 -21 -108q-6 -27 -17 -44.5t-32 -41.5q-29 -35 -94 -66q-27 -14 -70 -26v-219l4 -131l4 -64q8 -115 9 -195 q0 -25 -20.5 -42t-47.5 -17l-43 25q-27 109 -27 301l4 182q4 82 5 182q-12 29 -13 51zM262 1114q0 -121 2 -215q0 -106 2 -139v-43v-4q121 18 121 346q0 59 -6 92q-6 25 -16.5 40t-30.5 26q-23 12 -49 12q0 2 -23 2v-117z" />
<glyph unicode="q" horiz-adv-x="733" d="M100 510q0 70 2 125v119q0 72 13 225q14 141 63 262q25 61 65 94t91 33q16 -6 49 -12q35 -10 43 -15q96 -37 141 -133q45 -94 56 -198q10 -96 10 -199l-2 -197q-6 -129 -23 -268q-12 -127 -53 -252q-39 -115 -104 -143q0 -66 32 -191q12 -37 23 -86q94 0 94 -59 q0 -20 -13.5 -34.5t-33.5 -14.5v2q-115 0 -158 47q0 41 -6 94l-4 43q-14 84 -16 92l-11 50l-8 45q-113 27 -164 110q-55 88 -71 207q-14 100 -15 254zM203 698l2 -151q2 -53 10 -168q0 -20 4 -66q8 -100 43 -213q29 -94 82 -94q28 12 59 12q23 0 51.5 96.5t49 219.5 t20.5 178v356q0 420 -202 420q-35 0 -60 -78q-39 -115 -53 -381q-6 -82 -6 -131z" />
<glyph unicode="r" horiz-adv-x="604" d="M121 1268q0 98 67 98q111 0 181.5 -57.5t70.5 -159.5v-143q0 -31 -10 -71t-22 -65l-39 -73l-33 -62l10 -49l29 -145q29 -158 55.5 -256.5t65.5 -178.5l12 -24q20 -41 20 -66q0 -20 -12 -35.5t-33 -15.5q-45 0 -82 98q-43 106 -63 220l-14 69q-59 293 -76 334h-25 q0 -59 -2 -108v-113q0 -274 39 -428l-22 -55h-58l-26 30l2 138q0 184 -19 559q-16 399 -16 559zM223 1260l4 -242q4 -106 4 -232q45 23 77 124.5t32 187.5q0 66 -16 123q-10 33 -34 50t-59 17l-4 -10z" />
<glyph unicode="s" horiz-adv-x="505" d="M70 51l22 35q12 0 39 -8q31 -6 47 -6q37 0 66.5 32.5t44.5 85.5q26 94 26 171v6q0 135 -86 284l-22 39q-39 68 -65.5 121t-45.5 115q-24 77 -24 153v6q0 90 41 189q20 47 58 76.5t85 29.5q37 0 68.5 -23.5t31.5 -56.5q0 -18 -14 -28t-35 -10q-23 0 -43 12q-45 -2 -71 -80 q-23 -72 -23 -119q0 -59 18.5 -119.5t47.5 -109.5l45 -82l71 -135q29 -57 46.5 -133t17.5 -154q0 -125 -58 -238q-29 -57 -81 -92t-115 -35v-6q-37 6 -62.5 26.5t-29.5 53.5z" />
<glyph unicode="t" horiz-adv-x="524" d="M4 1317q0 16 21.5 29.5t44.5 13.5q57 0 139 -8q78 -10 139 -11h17h16q63 0 63 -49q0 -25 -20.5 -40t-46.5 -15q-18 0 -53 6l-41 8l-2 -10l-2 -10q0 -182 34 -582q33 -375 33 -581q0 -25 -21.5 -43.5t-48.5 -18.5l-36 27l-2 80q-2 35 -2 77l2 70q-6 23 -31 449t-29 546 q-119 4 -151 25q-23 16 -23 37z" />
<glyph unicode="u" horiz-adv-x="739" d="M100 1307q18 43 43 43t45 -37t19 -80v-557q0 -82 14 -217q14 -168 15 -217q0 -152 129 -152q147 0 147 1102v115v18q-2 6 -2 16q0 25 11 36.5t44 11.5q27 0 42.5 -15.5t19.5 -36.5q2 -12 2 -47q0 -33 -6 -104q-8 -59 -9 -103q0 -47 -4 -84l-4 -86v-16q2 -8 2 -18 q0 -909 -264 -910q-49 0 -88 21.5t-63 62.5q-49 86 -64 195q-14 94 -14 225q-6 221 -6 541l-3 157q-2 12 -2 41q-4 78 -4 95z" />
<glyph unicode="v" horiz-adv-x="720" d="M45 1319q0 18 15.5 32.5t33.5 14.5q31 0 58 -51q27 -49 49 -132t49 -206q25 -117 59 -359l13 -79l24 -183q8 -76 14 -108q43 225 111 651q55 365 78 498h45q18 0 32.5 -13.5t14.5 -31.5q0 -74 -17.5 -159t-52.5 -204q-29 -102 -38 -153.5t-17 -161.5q-16 -248 -51 -445 q-23 -119 -59.5 -186.5t-83.5 -67.5l-39 31q0 236 -44 487.5t-139 616.5q-4 20 -18 64q-37 115 -37 145z" />
<glyph unicode="w" horiz-adv-x="878" d="M59 1292q18 37 60 37q65 0 65 -131q0 -164 43 -471q43 -305 49 -444l11 69q20 137 35.5 259t25.5 263q14 158 14 312l56 24q27 0 44 -13t17 -38v-16q33 -115 54.5 -251t37.5 -321q12 -141 29 -264q39 274 39 676q0 63 16 156q14 94 15 153q-6 18 -6 35q0 49 61 49 q25 0 39 -12t14 -35v-31q0 -31 -6 -53v-10q-27 -82 -27 -188v-150q0 -129 -30 -385q-33 -250 -33 -373v-37q0 -47 -10 -79q-12 -41 -60 -41q-33 0 -50 21.5t-17 53.5q0 166 -35 430q-18 119 -39 240l-33 215q-8 -59 -8 -117q0 -115 -16.5 -303t-51.5 -366q-39 -199 -88 -199 q-40 0 -71 123q-27 109 -44.5 269.5t-35.5 406.5q-10 160 -29 342q-14 152 -35 194z" />
<glyph unicode="x" horiz-adv-x="497" d="M49 1292q0 18 18.5 29.5t43.5 11.5t41 -35q31 -57 61 -211q16 -70 23 -116l14 -76l8 49l6 41q8 49 10 66q8 55 9 106v37v31q0 57 19.5 87.5t72.5 45.5l37 -49q-14 -23 -23.5 -55.5t-9.5 -57.5q-2 -14 -2 -63v-23q-25 -66 -51.5 -228.5t-26.5 -236.5q0 -63 27.5 -160.5 t83.5 -269.5q36 -108 36 -159q0 -23 -16 -38.5t-39 -15.5q-35 0 -61 74q-27 61 -45 155q-25 115 -29 154l-10 47l-19 -151q-12 -113 -32 -189v-22q0 -76 -54 -76q-24 0 -42.5 12t-18.5 35q0 66 17.5 146.5t49.5 193.5l21 80q29 115 29 198q0 59 -52.5 293t-74.5 267v22 q-20 18 -21 51z" />
<glyph unicode="y" horiz-adv-x="579" d="M35 1288v10l47 35q35 -4 74 -90q33 -76 72.5 -217t39.5 -149q8 23 33 153q25 131 55 232q35 100 72 100q20 0 35.5 -12.5t15.5 -30.5q0 -104 -57 -295q-61 -207 -62 -299v-616q0 -137 -67 -138q-34 0 -57 45q22 41 22 324v25q0 72 -10 155l-6 60q-6 55 -6 84v53 q-20 51 -75 190.5t-87 233.5q-39 109 -39 147z" />
<glyph unicode="z" horiz-adv-x="598" d="M100 43q0 123 48.5 323.5t140.5 495.5q92 305 114 393q-25 0 -79 -6q-55 -6 -88 -6q-20 0 -37 17.5t-17 39.5q0 59 226 60q102 0 102 -57q0 -66 -45 -195q-43 -115 -53 -174q-20 -145 -107 -475l-90 -355h37l43 5q18 2 43 2v2q82 0 82 -52q0 -23 -20.5 -36t-51.5 -13 q-33 0 -59 2l-62 4q-12 0 -34 -12q-27 -10 -37 -10q-23 0 -39.5 13.5t-16.5 33.5z" />
<glyph unicode="{" horiz-adv-x="655" d="M100 766q0 49 50 49q27 2 44 8t31 27q14 25 15 65l-7 97l-4 118q0 72 13 97q-4 37 -4 53q0 96 53 155.5t151 59.5q63 0 113 -25q31 -14 31 -34t-17.5 -33.5t-40.5 -13.5q-14 0 -51 10t-51 10q-96 0 -96 -252q0 -47 4 -94l4 -117q0 -131 -37 -178q35 -45 35 -145v-441 q0 -143 90 -143q23 0 61 12q45 10 62 10q6 0 11 -16t5 -29q0 -23 -22.5 -38t-50.5 -21q-33 -4 -50 -4q-112 0 -157 59.5t-45 186.5v422q0 43 -14.5 67.5t-35.5 28.5q-2 0 -40 6q-49 0 -50 43z" />
<glyph unicode="|" horiz-adv-x="356" d="M121 1509q0 74 69 74q18 0 30.5 -15.5t12.5 -33.5q0 -322 3 -578l2 -577v-408q0 -20 -15.5 -35.5t-38.5 -15.5q-51 0 -51 195q0 231 -6 698q-6 465 -6 696z" />
<glyph unicode="}" horiz-adv-x="645" d="M70 12q0 20 17 32.5t40 12.5t49 -8q37 -10 51 -10q98 0 99 250l-4 110q-6 86 -7 136q0 143 39 194q-37 47 -37 145l5 103q6 90 6 149q0 283 -101 283q-18 0 -59 -12q-39 -12 -62 -13q-6 0 -11 16.5t-5 31.5q0 23 22.5 39t51.5 20q33 4 49 4q111 0 156 -60.5t47 -185.5 v-372q0 -37 9 -60.5t26 -30.5q27 -14 61 -14q33 0 33 -41q0 -49 -45 -49q-27 -2 -42.5 -7t-27.5 -26q-14 -25 -14 -67l4 -109q4 -59 4 -143q0 -88 -10 -109q4 -33 4 -55q0 -96 -54.5 -154.5t-150.5 -58.5q-66 -1 -113 22q-31 14 -30 37z" />
<glyph unicode="~" horiz-adv-x="972" d="M158 1106q0 49 41 84t106 35q49 0 178 -41q127 -43 166 -43q35 0 43 41q4 16 15.5 28.5t29.5 12.5q33 0 50.5 -15.5t17.5 -38.5q0 -51 -39 -91t-92 -40q-92 0 -166 12.5t-107 28.5q-82 45 -116 45q-29 -12 -25 -39v-6q0 -25 -29 -32q-33 0 -53 15t-20 44z" />
<glyph unicode="&#xa1;" horiz-adv-x="444" d="M139 -186q0 147 23 489q20 309 20 490v49q-2 20 -2 49q0 94 21 125q10 14 18 14q20 0 39 -49q16 -55 16 -127q0 -96 -4 -172l-4 -168q0 -111 6 -336l4 -336q0 -31 -26.5 -54.5t-59.5 -23.5q-20 0 -35.5 14.5t-15.5 35.5zM156 1311q0 72 100 71q25 0 46.5 -22.5 t21.5 -56.5q0 -37 -25 -65t-59 -28q-39 0 -61.5 29t-22.5 72z" />
<glyph unicode="&#xa2;" horiz-adv-x="845" d="M174 776q0 106 6 176q10 94 45 170q35 84 113 131l-12 115q0 88 53 88h6l31 -20q-6 -37 -6 -66t10 -117l35 -8q49 -12 75 -24q41 -18 62 -45q10 -18 12 -35h-2v-6q0 -18 -12 -35t-31 -17q-20 0 -38.5 16.5t-28.5 41.5l-58 28h-6q4 -129 33 -364q29 -258 28 -377v-12 l-2 -13l2 -12q53 0 93 41q16 18 29.5 35.5t29.5 44.5q59 0 59 -61q0 -33 -33.5 -67t-81.5 -56.5t-87 -26.5q-8 -47 -9 -80q0 -31 7 -96q8 -57 8 -96q0 -20 -15.5 -34.5t-33.5 -14.5h-9l-38 34q4 16 4 52q0 37 -4 67l-5 70h-2q0 29 5 53l4 57q-86 31 -136 80q-29 29 -44 51.5 t-25 53.5t-17.5 60.5t-9.5 68.5q-4 55 -4 149zM272 791q0 -344 123 -367q0 407 -57 700q-33 -47 -49.5 -140t-16.5 -193z" />
<glyph unicode="&#xa3;" horiz-adv-x="811" d="M121 918v6q0 14 4 21t20 13q16 8 52 9q0 41 -13 133q-12 90 -12 137q0 88 18 178q12 63 31 107.5t53 76.5q35 33 82 33h27q35 0 75 -42t66 -97q25 -55 25 -90q0 -23 -6 -33t-27 -10q-29 0 -47 16.5t-27 44.5l-16 52q-6 29 -22.5 46t-41.5 17q-23 0 -41 -30.5t-28 -78.5 q-23 -94 -23 -157v-27q0 -182 21 -266q57 0 102 2h103q20 0 35.5 -15.5t15.5 -35.5q0 -6 -8 -8q-12 -6 -82 -11q-29 -4 -68 -4l-78 -6q6 -39 39 -164q33 -115 50.5 -199.5t17.5 -156.5q0 -47 -10 -88l-23 -82q-6 -12 -14 -39q41 -4 129 -25q82 -20 137 -20q14 0 55 10 q31 10 53 10q23 0 39.5 -14t16.5 -35q0 -31 -37 -49q-45 -20 -111 -20q-61 0 -153 18q-102 20 -127 23v4q-23 -2 -85.5 -25.5t-99.5 -44.5v4q-25 2 -42 14.5t-17 32.5q0 51 80 80q37 16 49 25q29 23 46.5 91t17.5 134q0 78 -15.5 156.5t-50.5 199.5l-43 156q-92 0 -92 23z " />
<glyph unicode="&#xa4;" horiz-adv-x="1007" d="M127 276q0 31 55 82l31 33q-33 59 -33 176q0 403 72 510q-8 16 -51 60q-45 43 -45 71q0 20 14 33.5t33 13.5q16 0 28 -6q6 0 13 -6l12 -6l10 -10l10 -10l19 -23l8 -10l8 -13q8 12 21.5 27.5t23.5 28.5q8 6 26.5 24.5t33.5 26.5q12 6 24 6q117 0 224 -67q20 31 30 51 q25 43 47.5 63.5t51.5 20.5h10l43 -47q-2 -25 -23.5 -61t-50.5 -66q-23 -29 -22 -37q0 -55 45 -180q45 -121 45 -189t-33 -186q-35 -129 -35 -191q0 -29 39 -73q39 -41 39 -74q0 -23 -14.5 -38t-34.5 -15q-31 0 -53.5 15t-24.5 42v-4l-27 45q-96 -88 -237 -88q-96 0 -183 86 q-27 -55 -43 -74q-23 -16 -43 -16q-31 0 -47 21.5t-16 53.5zM291 586q0 -119 53 -164q0 -59 40 -88t110 -29q51 0 94 35t67 90q45 98 62 246q4 74 4 102q0 66 -19.5 165t-42.5 128q-20 2 -34.5 20.5t-16.5 41.5q-47 49 -123 49q-16 0 -54 -30t-52 -52l14 -15q0 -76 -47 -75 q-16 0 -35.5 -120t-19.5 -194h2q2 -12 2 -26q0 -25 -2 -41q-2 -20 -2 -43z" />
<glyph unicode="&#xa5;" horiz-adv-x="989" d="M53 1706v57l2 -4q35 14 51 15q33 0 94.5 -75t121.5 -173l114 -197l72 -123l41 137l12 43q41 139 65.5 215t57.5 146q45 86 76 86q23 0 40 -16.5t17 -38.5l-2 -11l-90 -266q-49 -133 -82 -264q-6 -27 -31 -86q-20 -51 -32 -92l24 -2l66 4q55 6 90 6q127 0 127 -61 q0 -57 -113 -58h-8l-193 2v-63l62 4q35 4 88 4q160 0 160 -76q0 -20 -18.5 -36.5t-43.5 -16.5h-106l20 10h-166q0 -68 -14 -315q-16 -188 -16 -320v-22v-25q0 -51 -15.5 -76.5t-54.5 -25.5q-25 0 -44 13t-19 36v4q16 41 29.5 305t13.5 422h-9l-94 -4q-66 -6 -94 -6h-14 l-31 2q-37 18 -55 59l16 51q84 0 289 9q2 16 2 71v4l-62 -6q-74 -4 -92 -4q-133 0 -133 62v8l27 39l80 -2q35 -2 77 -2q53 0 103 6v12q-86 86 -166 254q-41 90 -72 149.5t-69 118.5q-43 61 -99 113z" />
<glyph unicode="&#xa6;" horiz-adv-x="356" d="M121 1509q0 74 69 74q45 0 46 -190v-64l-3 -45l-2 -407q0 -20 -16 -36t-37 -16q-49 0 -49 195l-4 246q-4 109 -4 243zM129 340l2 303q0 20 12.5 35.5t28.5 15.5q61 0 61 -73l3 -637q0 -63 -52 -64q-20 0 -35.5 15.5t-15.5 35.5z" />
<glyph unicode="&#xa7;" horiz-adv-x="540" d="M80 819q0 59 23.5 113.5t66.5 85.5q-57 117 -57 258q0 168 168 168q35 0 67.5 -14.5t32.5 -36.5q0 -25 -21.5 -33t-60.5 -8q-61 0 -86 -23q-18 -14 -18 -51q0 -104 63 -201q63 -96 119 -190q29 -49 46 -115.5t17 -136.5q0 -53 -23.5 -98t-66.5 -72q76 -121 76 -219 q0 -59 -21.5 -113.5t-62.5 -91.5q-45 -41 -102 -41q-37 0 -69 23.5t-32 58.5q0 18 14.5 28.5t34.5 10.5q23 0 43 -12q41 2 68 49t27 98q0 45 -17.5 91t-46.5 85q-55 70 -119 166q-29 43 -46 101.5t-17 119.5zM180 795q0 -41 17.5 -88.5t40.5 -79.5q2 -2 53 -78q49 43 49 100 q0 20 -10 76l-13 37q-10 18 -14 33q-6 14 -17.5 33.5t-19.5 31.5q-4 4 -9 13.5t-13 21.5l-21 31q-43 -55 -43 -131z" />
<glyph unicode="&#xa8;" horiz-adv-x="720" d="M106 1446q0 31 24 54.5t54 23.5q29 0 50.5 -23.5t21.5 -52.5q0 -33 -22.5 -54.5t-57.5 -21.5q-26 0 -48 22.5t-22 51.5zM436 1436q0 31 23.5 54t54.5 23q29 0 51.5 -23.5t22.5 -51.5q0 -33 -23.5 -54.5t-58.5 -21.5q-27 0 -48.5 22.5t-21.5 51.5z" />
<glyph unicode="&#xa9;" horiz-adv-x="1296" d="M133 924q0 150 21 301q27 193 84 325q37 84 82 138.5t108 89.5q66 35 147 34q92 0 173 -39.5t143 -107.5q55 -68 101 -158t75 -188q55 -180 74 -393q6 -88 6 -168q0 -170 -27 -309q-31 -162 -104 -275q-43 -61 -96.5 -103t-126.5 -67q-76 -25 -168 -24q-176 0 -274.5 63 t-139.5 174t-55 285q-6 104 -9 143q-2 6 -2 14q-12 213 -12 265zM252 940q0 -86 12 -238q2 -37 4 -62.5t2 -43.5q10 -162 26.5 -254t66 -159.5t147.5 -92.5q35 -8 88 -8q187 0 285 104q47 53 77.5 120t51.5 159q-2 4 -2 18q0 16 12 54q10 41 10 53v305q0 55 -22 156l-17 69 q-27 135 -53.5 217t-79.5 168q-59 94 -143 154q-10 6 -28.5 19.5t-45.5 25.5q-18 8 -45 8q-72 0 -130 -40t-95 -111q-78 -147 -101 -324q-20 -156 -20 -297zM346 813v12q0 90 4 166q4 90 23 199q16 94 59 178q20 43 48 69.5t67 45.5q39 16 84 16q49 0 106.5 -34.5t95 -87 t37.5 -101.5q0 -23 -14 -38t-35 -15q-27 0 -47 16t-35 41q-10 16 -15 28.5t-9 20.5q-33 57 -76 57q-35 0 -63.5 -27.5t-45.5 -68.5q-14 -39 -26 -97t-17 -103q-4 -31 -8 -99l-6 -69l4 -11h-2q-8 -33 -8 -102v-51q0 -104 16 -203q12 -70 30.5 -114t53.5 -76q39 -33 86 -33 q31 0 59.5 15t45.5 38q14 23 35.5 39t42.5 16q25 0 40 -20.5t15 -46.5q0 -39 -40 -75t-95 -54q-51 -18 -92 -19q-31 0 -61 9.5t-73 29.5q-29 14 -59 27q-57 111 -83 178.5t-34 140t-8 203.5z" />
<glyph unicode="&#xaa;" horiz-adv-x="612" d="M104 795l2 6v4l35 129q47 178 74 288.5t27 157.5l2 47q6 84 20 107h60q37 0 52 -7t15 -24q0 -23 12 -153l13 -103q4 -41 20 -149q12 -82 13 -97q0 -12 6 -34q6 -25 6 -35q0 -8 10 -70q10 -43 10 -69q0 -27 -18 -33q-31 0 -60.5 9t-29.5 28q0 39 -13 104l-4 25l-112 16 q-4 -18 -10.5 -49t-8.5 -43q-4 -14 -9 -40t-13 -36q-10 -10 -23 -10q-76 0 -76 31zM248 1016q18 -12 100 -19q-2 10 -2 43q0 80 -18 242l-13 119q-16 -80 -24 -137q-39 -213 -43 -248z" />
<glyph unicode="&#xab;" horiz-adv-x="915" d="M109 696q0 27 55 164l20 51q66 164 105 256q74 170 80 195q2 25 21.5 61.5t39.5 59.5v2l8 2l11 2q27 0 45 -13.5t18 -35.5q-53 -125 -137 -365q-98 -264 -156 -389q10 -49 64.5 -155.5t126.5 -225.5q51 -84 114 -199q51 -94 51 -118q0 -23 -19 -35t-44 -12 q-19 0 -121 170q-102 176 -192 360t-90 225zM373 698q4 57 106 283q100 215 119 274l6 33q16 59 35 103q25 57 57 57h2l4 -2l46 -35q-8 -68 -48.5 -173t-91.5 -202q-119 -238 -119 -334q0 -14 135.5 -287.5t176.5 -344.5l26 -21q-4 -31 -17 -51.5t-38 -20.5q-23 1 -39 5 q-33 12 -360 716z" />
<glyph unicode="&#xac;" horiz-adv-x="1097" d="M119 764q0 72 217 72q25 0 110 -5l72 -4q45 0 168 11q94 10 168 10q25 0 46.5 -17.5t21.5 -39.5q0 -41 -21 -70q0 -106 25 -184q-4 -25 -18.5 -43.5t-35.5 -18.5q-63 0 -63 117q0 23 2 37v30q0 31 -4 68q-20 0 -37 2l-41 4q-72 0 -280 -10q-188 -12 -279 -12 q-20 0 -35.5 15t-15.5 38z" />
<glyph unicode="&#xad;" horiz-adv-x="579" d="M137 725q0 16 33 29q51 20 162 24q23 2 55 2q18 0 31.5 -10t13.5 -29q0 -16 -33 -28q-51 -20 -159 -25q-25 -2 -58 -2q-18 0 -31.5 11.5t-13.5 27.5z" />
<glyph unicode="&#xae;" horiz-adv-x="1212" d="M90 758v160q0 168 10 278q12 162 47 301q39 150 115 258q41 59 91 97t118 63q72 23 150 22q84 0 166.5 -50t142.5 -132q41 -25 77.5 -150.5t55.5 -293.5q39 -338 39 -504v-102q0 -86 -4 -158q-4 -84 -11.5 -140.5t-25.5 -152.5q-16 -80 -39 -136.5t-61 -121.5 q-37 -61 -82 -99t-113 -63q-63 -25 -141 -24q-160 -1 -271 73q-94 59 -159 191q-25 51 -45.5 121.5t-32.5 138.5q-20 119 -25 284q-2 41 -2 140zM211 954q0 -776 139 -927q31 -29 66 -52l57 -38l59 -13l21 -8q125 0 223 66q76 53 129 163q39 82 64 220q14 92 18 233v109 q0 43 2 79v80q0 272 -26.5 454.5t-100.5 334.5q-27 53 -103.5 115.5t-123.5 62.5q-424 0 -424 -879zM352 1454q0 100 51.5 140t165.5 40q57 0 102.5 -21.5t69.5 -58.5q23 -33 39.5 -83t20.5 -99q4 -31 4 -102q0 -66 -13.5 -119t-33.5 -84q-31 -43 -76 -76q-16 -16 -18 -22 q2 -66 182 -656h8q0 -23 14 -57q14 -35 15 -57q0 -18 -19.5 -37t-38.5 -19q-43 0 -86 107q-35 78 -59.5 168t-58.5 241l-21 89q-31 139 -45 165l-53 -22l-6 -94q0 -90 22 -293q23 -180 23 -293q0 -31 -14.5 -49.5t-41.5 -18.5q-28 0 -50.5 18.5t-22.5 47.5q0 12 2 22v25 q0 115 -11 213q0 8 -14 94q-10 82 -10 113v399q0 63 -12 189q-14 117 -15 190zM467 1407l4 -70l4 -73q0 -168 23 -265q184 78 184 273v8q0 53 -2 98q-4 51 -31 101q-23 47 -74 47q-59 0 -83.5 -30t-24.5 -89z" />
<glyph unicode="&#xaf;" horiz-adv-x="899" d="M156 1487q0 20 13 32.5t34 12.5h301l61 4q29 2 64 2q98 0 98 -59q0 -23 -15.5 -35t-41.5 -12q-70 0 -215 -7l-217 -4q-82 0 -82 66z" />
<glyph unicode="&#xb0;" horiz-adv-x="882" d="M174 1290q0 104 63.5 172t168.5 68q66 0 120 -15.5t86 -41.5q31 -23 51.5 -56t28.5 -65q8 -27 8 -60q0 -70 -32 -139q-23 -45 -53.5 -77t-82.5 -54q-55 -25 -124 -25q-68 0 -117 29t-74 78q-43 86 -43 186zM252 1225q0 -31 23.5 -67t61.5 -59.5t79 -23.5q49 0 90 16.5 t65 41.5q20 25 36 54.5t20 55.5q6 25 6 45q0 55 -43 111q-20 27 -68 45q-49 16 -106 16t-98.5 -35.5t-53.5 -89.5q-12 -49 -12 -110z" />
<glyph unicode="&#xb1;" horiz-adv-x="899" d="M158 201q0 20 13 32.5t34 12.5h301l63 4l64 4q96 0 96 -61q0 -23 -15.5 -35.5t-41.5 -12.5q-70 0 -215 -6l-217 -4q-82 0 -82 66zM158 655q0 20 13 37t34 17l59 -4l62 -5q18 0 47 5l-6 71q-6 53 -7 78q0 115 66 115q25 0 42 -18.5t17 -41.5v-6l-8 -18l2 -51q0 -33 4 -70 q8 -41 13 -55q8 -8 10 -9l51 5q27 4 68 4q104 0 104 -62q0 -25 -16.5 -40t-40.5 -15q-18 0 -60 6l-59 4q-68 0 -68 -49q0 -20 11 -82q10 -45 10 -82q0 -25 -20.5 -40t-47.5 -15q-26 0 -45.5 14t-19.5 37q0 55 2 100l4 99l-19 14l-53 -2q-39 -6 -61 -6q-88 0 -88 65z" />
<glyph unicode="&#xb2;" horiz-adv-x="540" d="M76 711v6q20 23 45 90l16 45q68 150 97.5 268.5t29.5 251.5q0 70 -16.5 107t-44.5 39q-16 -8 -25 -54q-4 -16 -16 -29.5t-27 -13.5q-14 0 -28.5 13.5t-14.5 29.5q0 27 12.5 51.5t36.5 30.5q20 6 47 13.5t37 7.5q33 0 66 -17q29 -20 41 -45q6 -10 10 -30.5t6 -26.5l4 -66 v-30q0 -80 -15 -171t-40 -157l-59 -156q-6 -14 -31 -63q-4 -6 -11.5 -19.5t-9.5 -23.5q76 10 156 10q25 -18 23 -51q-6 -27 -15 -35q-70 0 -106 -4q-39 -4 -88 -4q-43 0 -61.5 8t-18.5 25z" />
<glyph unicode="&#xb3;" horiz-adv-x="552" d="M49 1460q18 41 56 77t73 36q94 0 125 -81t31 -169q0 -23 -7.5 -38t-15.5 -28.5t-12 -17.5l-16 -25q51 -31 72.5 -127t21.5 -188q0 -53 -23.5 -102t-60.5 -79t-74 -30t-76 22.5t-39 59.5q0 12 20.5 25.5t29.5 5.5q8 -8 16 -21.5t15.5 -19.5t25.5 -6q33 0 51.5 41t18.5 106 q0 94 -11.5 137t-58.5 103h-12q-35 0 -35 22q0 16 29 51q20 31 32.5 52.5t12.5 42.5q0 59 -16.5 136t-49.5 77q-14 0 -20.5 -12.5t-14.5 -41.5q-6 -27 -13 -40t-22 -13q-29 0 -39 12.5t-14 32.5z" />
<glyph unicode="&#xb4;" horiz-adv-x="702" d="M209 1339q0 10 10 21l33 29q10 10 115 100l120 104q8 4 19 4q25 0 45 -24.5t20 -50.5q0 -25 -14 -33q-74 -57 -299 -172q-4 -4 -16 -4q-13 0 -23 7t-10 19z" />
<glyph unicode="&#xb5;" horiz-adv-x="739" d="M92 1288q0 74 72 74q18 0 30.5 -16.5t12.5 -34.5q0 -322 2 -578v-129q2 -57 12 -145q14 -168 15 -217q0 -152 129 -152q147 0 147 1102v115v18q-2 6 -2 16q0 25 11 36.5t44 11.5q27 0 42.5 -15.5t19.5 -36.5q2 -12 2 -47q0 -33 -6 -104q-8 -59 -9 -103q0 -47 -4 -84 l-4 -86v-16q2 -8 2 -18q0 -909 -264 -910q-84 0 -133 60v-281q0 -20 -15.5 -34.5t-37.5 -14.5q-51 0 -52 192q0 233 -6 701q-8 412 -8 696z" />
<glyph unicode="&#xb6;" horiz-adv-x="978" d="M25 1384q0 184 57 277q31 51 68.5 84t95.5 53q59 23 121.5 35t152.5 20q20 23 62 23q20 0 47 -8l33 -8v-2l55 8l8 -13q25 0 76 -14q20 -6 34.5 -19.5t14.5 -29.5q0 -20 -17.5 -35.5t-39.5 -15.5h-13h-12q0 -115 8 -293q6 -199 6 -303q0 -145 -6 -438q-6 -291 -6 -441 q0 -35 6 -112q6 -76 6 -115q0 -25 -16 -41t-41 -16q-76 -1 -76 122q0 139 10 539q10 395 11 537q0 90 -8 223l-5 74l-4 147l2 33q2 14 2 35q0 80 -61 79q-10 0 -10 -79q0 -80 14 -357q12 -233 12 -352q0 -154 -18 -459q-18 -303 -19 -459q0 -37 -13 -54t-46 -17 q-27 0 -44 18.5t-17 44.5q0 168 20 455q23 315 23 455l-2 71l-2 62q-117 0 -220 20q-63 14 -107 38t-79 65q-37 43 -49 100l-4 29q-10 33 -10 34zM137 1454q0 -63 17.5 -112.5t46.5 -77.5q27 -27 72.5 -43.5t95.5 -20.5q61 -4 110 -4l13 2l4 2q0 61 -11 250q-10 135 -10 248 l2 43q-37 8 -82 8q-68 0 -127 -43t-95 -111.5t-36 -140.5z" />
<glyph unicode="&#xb7;" horiz-adv-x="591" d="M213 707q0 31 22.5 54t53.5 23q29 0 51 -23.5t22 -51.5q0 -33 -23.5 -54.5t-57.5 -21.5q-27 0 -47.5 22.5t-20.5 51.5z" />
<glyph unicode="&#xb8;" horiz-adv-x="774" d="M229 -393q0 20 23 20q8 0 33 -10t32 -10q35 0 57.5 42t22.5 99q0 68 -30 92l-27 -4l-29 -4q-31 0 -55 41q16 43 16 119v22l60 9q-8 -61 -8 -105q150 -8 149 -205q0 -33 -21.5 -70.5t-58.5 -64.5t-76 -27q-32 0 -60 15.5t-28 40.5z" />
<glyph unicode="&#xb9;" horiz-adv-x="487" d="M53 1524q0 16 25.5 31.5t66.5 15.5q29 0 61 -5t36 -14q-6 -31 -6 -49q0 -45 10 -102q8 -94 8 -107q0 -117 10 -268q12 -178 12 -229v-9q12 4 29 5h14q29 0 38.5 -8.5t9.5 -49.5q0 -16 -34 -29.5t-95 -13.5h-60l-16 -2q-35 0 -35 43q0 16 8 33.5t25 17.5q25 0 24 19 q0 70 -12 225q0 18 -4 68q-10 129 -10 125q-8 139 -8 161l2 21v8q0 35 -9.5 51.5t-29.5 16.5l-13 -2h-14q-33 0 -33 47z" />
<glyph unicode="&#xba;" horiz-adv-x="598" d="M100 1141v22v21v6v18v80q2 61 11 117q4 45 24 106q8 20 39 34t51 14q49 0 104.5 -17.5t78.5 -46.5q51 -61 61 -160q6 -45 6 -100v-8q0 -35 2 -64v-65q0 -168 -44 -248t-146 -80q-35 0 -79 20.5t-56 49.5q-29 59 -41 151q-10 74 -11 150zM203 1190q0 -61 4 -121 q2 -39 7 -66.5t13 -60.5q20 -84 56 -84q20 0 36.5 16.5t26.5 45.5l27 84q4 39 4 102q0 45 -6 133q-4 45 -5 70.5t-4 36.5v14q-2 43 -28.5 74.5t-65.5 31.5t-51 -43q-14 -51 -10 -59q2 -10 1 -20.5t-1 -18.5v-31q0 -29 -2 -51q-2 -25 -2 -53z" />
<glyph unicode="&#xbb;" horiz-adv-x="933" d="M92 49l25 21q51 96 180 357t129 275q0 106 -88 279q-39 74 -78 152.5t-61 146.5q-29 76 -29 131l45 35l10 -2q39 -16 60 -62q16 -37 26 -86q8 -37 11 -41q8 -37 116 -274q106 -229 107 -283l-357 -716h-4l-18 -2l-21 -3q-24 0 -38.5 21.5t-14.5 50.5zM344 -10 q0 27 51 121q63 113 115 196q70 117 125 224.5t67 156.5q-68 145 -135 379q-29 94 -71.5 194.5t-89.5 172.5q4 25 21 41t44 16q6 0 10 -2l4 -2h4v-2q23 -23 41.5 -57.5t22.5 -63.5q10 -33 80 -195q47 -113 125 -307q53 -135 53 -162q0 -41 -89 -225t-192 -360 q-100 -170 -120 -170q-27 0 -46.5 12t-19.5 33z" />
<glyph unicode="&#xbc;" horiz-adv-x="1337" d="M53 1524q0 16 25.5 31.5t66.5 15.5q29 0 61 -5t36 -14q-6 -31 -6 -49q0 -45 10 -102q8 -94 8 -107q0 -117 10 -268q12 -178 12 -229v-9q12 4 29 5h14q29 0 38.5 -8.5t9.5 -49.5q0 -16 -34 -29.5t-95 -13.5h-60l-16 -2q-35 0 -35 43q0 16 8 33.5t25 17.5q25 0 24 19 q0 70 -12 225q0 18 -4 68q-10 129 -10 125q-8 139 -8 161l2 21v8q0 35 -9.5 51.5t-29.5 16.5l-13 -2h-14q-33 0 -33 47zM403 31q0 123 58.5 372.5t161.5 614.5q94 346 110 434l8 41q8 33 17 41q14 18 33 18q23 0 39 -14t16 -35q0 -29 -7.5 -61.5t-19.5 -71.5 q-14 -45 -16 -59q-156 -678 -232 -1018q0 -4 -10 -55q-23 -113 -39 -170q-14 -47 -32.5 -73t-38.5 -26h-9q-39 27 -39 62zM874 268q0 55 7 74q-6 25 -7 64q0 14 3.5 36.5t7.5 51.5q8 102 8 114v209q0 18 6 21l39 2q14 0 31.5 -8.5t17.5 -20.5l-2 -43q-2 -18 -2 -43v-10 l-2 -13l2 -20v-2q4 -20 4 -62q0 -47 -6 -145q-8 -84 -8 -115v-24q18 0 55 2t47 4q0 59 4 129q6 111 6 160q0 10 28 17t42 7l19 -20v-53q0 -117 -5 -236l15 2h18h15q12 0 16 -7t4 -34q0 -16 -12.5 -28.5t-32.5 -12.5q-18 0 -18 -8q0 -49 3 -112.5t9 -73.5q-2 -10 -2 -23 q0 -16 4 -22v-21q0 -16 -7 -29.5t-20 -13.5q-18 0 -47 19.5t-29 35.5v4q6 23 7 41l-5 56q-4 25 -4 53q0 2 -1 10t1 17v24q0 25 -2 35q-76 0 -90 -2l-33 -4q-37 0 -53 4t-31 14z" />
<glyph unicode="&#xbd;" horiz-adv-x="1353" d="M53 1524q0 16 25.5 31.5t66.5 15.5q29 0 61 -5t36 -14q-6 -31 -6 -49q0 -45 10 -102q8 -94 8 -107q0 -117 10 -268q12 -178 12 -229v-9q12 4 29 5h14q29 0 38.5 -8.5t9.5 -49.5q0 -16 -34 -29.5t-95 -13.5h-60l-16 -2q-35 0 -35 43q0 16 8 33.5t25 17.5q25 0 24 19 q0 70 -12 225q0 18 -4 68q-10 129 -10 125q-8 139 -8 161l2 21v8q0 35 -9.5 51.5t-29.5 16.5l-13 -2h-14q-33 0 -33 47zM418 31q0 123 58 372.5t161 614.5q94 346 110 434l9 41q8 33 16 41q14 18 33 18q23 0 39 -14t16 -35q0 -29 -7 -61.5t-20 -71.5q-14 -45 -16 -59 q-156 -678 -231 -1018q0 -4 -11 -55q-23 -113 -39 -170q-14 -47 -32.5 -73t-38.5 -26h-8q-39 27 -39 62zM916 29v6q20 23 45 90l16 45q68 150 97.5 268.5t29.5 251.5q0 70 -16.5 107t-44.5 39q-16 -8 -25 -54q-4 -16 -16 -29.5t-27 -13.5q-14 0 -28.5 13.5t-14.5 29.5 q0 27 12.5 51.5t36.5 30.5q20 6 47 13.5t37 7.5q33 0 66 -17q29 -20 41 -45q6 -10 10 -30.5t6 -26.5l4 -66v-30q0 -80 -15 -171t-40 -157l-59 -156q-6 -14 -31 -63q-4 -6 -11.5 -19.5t-9.5 -23.5q76 10 156 10q25 -18 23 -51q-6 -27 -15 -35q-70 0 -106 -4q-39 -4 -88 -4 q-43 0 -61.5 8t-18.5 25z" />
<glyph unicode="&#xbe;" horiz-adv-x="1337" d="M49 1460q18 41 56 77t73 36q94 0 125 -81t31 -169q0 -23 -7.5 -38t-15.5 -28.5t-12 -17.5l-16 -25q51 -31 72.5 -127t21.5 -188q0 -53 -23.5 -102t-60.5 -79t-74 -30t-76 22.5t-39 59.5q0 12 20.5 25.5t29.5 5.5q8 -8 16 -21.5t15.5 -19.5t25.5 -6q33 0 51.5 41t18.5 106 q0 94 -11.5 137t-58.5 103h-12q-35 0 -35 22q0 16 29 51q20 31 32.5 52.5t12.5 42.5q0 59 -16.5 136t-49.5 77q-14 0 -20.5 -12.5t-14.5 -41.5q-6 -27 -13 -40t-22 -13q-29 0 -39 12.5t-14 32.5zM373 31q0 123 58 372.5t161 614.5q94 346 110 434l9 41q8 33 16 41 q14 18 33 18q23 0 39 -14t16 -35q0 -29 -7 -61.5t-20 -71.5q-14 -45 -16 -59q-156 -678 -231 -1018q0 -4 -11 -55q-23 -113 -38 -170q-14 -47 -33 -73t-39 -26h-8q-39 27 -39 62zM874 268q0 55 7 74q-6 25 -7 64q0 14 3.5 36.5t7.5 51.5q8 102 8 114v209q0 18 6 21l39 2 q14 0 31.5 -8.5t17.5 -20.5l-2 -43q-2 -18 -2 -43v-10l-2 -13l2 -20v-2q4 -20 4 -62q0 -47 -6 -145q-8 -84 -8 -115v-24q18 0 55 2t47 4q0 59 4 129q6 111 6 160q0 10 28 17t42 7l19 -20v-53q0 -117 -5 -236l15 2h18h15q12 0 16 -7t4 -34q0 -16 -12.5 -28.5t-32.5 -12.5 q-18 0 -18 -8q0 -49 3 -112.5t9 -73.5q-2 -10 -2 -23q0 -16 4 -22v-21q0 -16 -7 -29.5t-20 -13.5q-18 0 -47 19.5t-29 35.5v4q6 23 7 41l-5 56q-4 25 -4 53q0 2 -1 10t1 17v24q0 25 -2 35q-76 0 -90 -2l-33 -4q-37 0 -53 4t-31 14z" />
<glyph unicode="&#xbf;" horiz-adv-x="544" d="M121 117q0 184 61 393q27 88 45.5 223t18.5 279q0 111 -2 137q39 0 43 2q2 2 8 2q41 0 49 -45q0 -125 -19.5 -272.5t-56.5 -358.5l-10 -59q-29 -178 -29 -299q0 -188 62 -189q39 0 39 90q0 25 -15 111q0 2 11 12q31 31 51 31q57 0 57 -137v-19q0 -53 -11 -92t-42 -65 q-33 -31 -86 -31q-43 0 -77 17.5t-54 46.5q-33 45 -41 145q-2 23 -2 78zM213 1307q0 78 82 77q29 0 51 -22q20 -23 21 -53q0 -29 -25 -54.5t-55 -25.5q-25 0 -49.5 26.5t-24.5 51.5z" />
<glyph unicode="&#xc0;" horiz-adv-x="716" d="M35 63q23 33 51 193l68 375q45 266 82.5 454.5t80.5 315.5q47 141 91 141q43 0 65 -16q0 -82 39 -396q41 -307 41 -419q0 -109 22 -312q20 -207 21 -329q0 -70 -68 -70q-32 0 -47.5 12.5t-15.5 40.5v269q-27 18 -100.5 32.5t-139.5 18.5q-23 -43 -32 -105l-9 -41 q-2 -14 -12 -63t-22.5 -85t-24.5 -56q-78 0 -90 40zM111 1724q0 25 22.5 52.5t45.5 27.5q12 0 96 -43t155.5 -89t71.5 -62q0 -14 -14 -15q-23 0 -118 28t-177 58.5t-82 42.5zM240 465q86 -25 182 -25q16 0 41 6q-6 90 -21 224q-47 463 -47 567v16q-20 -20 -56 -185 t-66.5 -353.5t-32.5 -249.5z" />
<glyph unicode="&#xc1;" horiz-adv-x="716" d="M35 63q23 33 51 193l68 375q45 266 82.5 454.5t80.5 315.5q47 141 91 141q43 0 65 -16q0 -82 39 -396q41 -307 41 -419q0 -109 22 -312q20 -207 21 -329q0 -70 -68 -70q-32 0 -47.5 12.5t-15.5 40.5v269q-27 18 -100.5 32.5t-139.5 18.5q-23 -43 -32 -105l-9 -41 q-2 -14 -12 -63t-22.5 -85t-24.5 -56q-78 0 -90 40zM240 465q86 -25 182 -25q16 0 41 6q-6 90 -21 224q-47 463 -47 567v16q-20 -20 -56 -185t-66.5 -353.5t-32.5 -249.5zM338 1613q0 10 10 21l33 29q10 10 115 100l120 104q8 4 19 4q25 0 45 -24.5t20 -50.5q0 -25 -14 -33 q-74 -57 -299 -172q-4 -4 -16 -4q-13 0 -23 7t-10 19z" />
<glyph unicode="&#xc2;" horiz-adv-x="716" d="M35 63q23 33 51 193l68 375q45 266 82.5 454.5t80.5 315.5q47 141 91 141q43 0 65 -16q0 -82 39 -396q41 -307 41 -419q0 -109 22 -312q20 -207 21 -329q0 -70 -68 -70q-32 0 -47.5 12.5t-15.5 40.5v269q-27 18 -100.5 32.5t-139.5 18.5q-23 -43 -32 -105l-9 -41 q-2 -14 -12 -63t-22.5 -85t-24.5 -56q-78 0 -90 40zM240 465q86 -25 182 -25q16 0 41 6q-6 90 -21 224q-47 463 -47 567v16q-20 -20 -56 -185t-66.5 -353.5t-32.5 -249.5zM279 1641q0 12 4 18l71 181q8 16 24.5 55t24.5 53q23 37 48 49q16 4 28 4q16 0 29 -18 q29 -45 51 -139l27 -99q18 -74 26 -98q2 -6 2 -18q0 -18 -14 -30.5t-33 -12.5q-20 0 -24 14l-80 276l-105 -262q-6 -14 -28 -14q-20 0 -35.5 11t-15.5 30z" />
<glyph unicode="&#xc3;" horiz-adv-x="716" d="M35 63q23 33 51 193l68 375q45 266 82.5 454.5t80.5 315.5q47 141 91 141q43 0 65 -16q0 -82 39 -396q41 -307 41 -419q0 -109 22 -312q20 -207 21 -329q0 -70 -68 -70q-32 0 -47.5 12.5t-15.5 40.5v269q-27 18 -100.5 32.5t-139.5 18.5q-23 -43 -32 -105l-9 -41 q-2 -14 -12 -63t-22.5 -85t-24.5 -56q-78 0 -90 40zM158 1661q0 51 40.5 84.5t108.5 33.5q23 0 88 -41q66 -41 84 -40q18 0 29.5 12t13.5 28q4 16 15.5 28.5t29.5 12.5q33 0 50.5 -15t17.5 -38q0 -53 -39 -93t-92 -40q-52 0 -88.5 13.5t-51.5 31.5q-14 18 -34.5 30.5 t-45.5 12.5q-14 -6 -20 -16t-2 -23v-4q0 -27 -31 -37q-33 0 -53 15.5t-20 44.5zM240 465q86 -25 182 -25q16 0 41 6q-6 90 -21 224q-47 463 -47 567v16q-20 -20 -56 -185t-66.5 -353.5t-32.5 -249.5z" />
<glyph unicode="&#xc4;" horiz-adv-x="716" d="M35 63q23 33 51 193l68 375q45 266 82.5 454.5t80.5 315.5q47 141 91 141q43 0 65 -16q0 -82 39 -396q41 -307 41 -419q0 -109 22 -312q20 -207 21 -329q0 -70 -68 -70q-32 0 -47.5 12.5t-15.5 40.5v269q-27 18 -100.5 32.5t-139.5 18.5q-23 -43 -32 -105l-9 -41 q-2 -14 -12 -63t-22.5 -85t-24.5 -56q-78 0 -90 40zM206 1679q0 31 24 54.5t54 23.5q29 0 50.5 -23.5t21.5 -52.5q0 -33 -22.5 -54.5t-57.5 -21.5q-26 0 -48 22.5t-22 51.5zM240 465q86 -25 182 -25q16 0 41 6q-6 90 -21 224q-47 463 -47 567v16q-20 -20 -56 -185 t-66.5 -353.5t-32.5 -249.5zM536 1669q0 31 23.5 54t54.5 23q29 0 51.5 -23.5t22.5 -51.5q0 -33 -23.5 -54.5t-58.5 -21.5q-27 0 -48.5 22.5t-21.5 51.5z" />
<glyph unicode="&#xc5;" horiz-adv-x="716" d="M35 63q23 33 51 193l68 375q45 266 82.5 454.5t80.5 315.5q47 141 91 141q43 0 65 -16q0 -82 39 -396q41 -307 41 -419q0 -109 22 -312q20 -207 21 -329q0 -70 -68 -70q-32 0 -47.5 12.5t-15.5 40.5v269q-27 18 -100.5 32.5t-139.5 18.5q-23 -43 -32 -105l-9 -41 q-2 -14 -12 -63t-22.5 -85t-24.5 -56q-78 0 -90 40zM233 1757q0 72 46 119t118 47q94 0 143 -39q43 -35 58 -86q4 -29 4 -41q0 -49 -23 -96q-29 -66 -96 -95q-35 -14 -86 -14q-47 0 -81 19.5t-50 52.5q-33 66 -33 133zM240 465q86 -25 182 -25q16 0 41 6q-6 90 -21 224 q-47 463 -47 567v16q-20 -20 -56 -185t-66.5 -353.5t-32.5 -249.5zM313 1716q0 -29 28.5 -57.5t63.5 -28.5t61.5 13t41.5 36q20 33 20 74q0 39 -30.5 67.5t-90.5 28.5q-47 0 -70.5 -37t-23.5 -96z" />
<glyph unicode="&#xc6;" horiz-adv-x="1005" d="M109 47q0 104 55 326q55 215 123 446l59 197q51 166 68 219q35 111 47 145q2 8 7 26.5t9 33.5q6 12 10 28q10 23 17 29q4 6 9 12.5t9 12.5q20 23 53 22l80 4q51 6 78 6q88 0 88 -57v-4l-20 -43q-117 0 -195 -10q0 -51 8 -131q6 -92 7 -144l-5 -225q-2 -98 -2 -223 q14 0 70 10q66 8 78 8h10l41 -49q0 -66 -113 -65h-8l-80 2l4 -261q2 -121 2 -280q31 0 113 10q63 10 115 10q27 0 47 -13t20 -36q0 -66 -243 -65h-31q-20 0 -43 -15q-27 -16 -39 -16l-45 45h2q16 190 16 252l-4 188q-6 129 -6 191q-23 0 -43 -2q-41 -2 -88 -8 q-6 -2 -21.5 -5.5t-23.5 -7.5l-100 -385q-6 -16 -11 -53q-8 -41 -18 -78t-25 -63q-20 -31 -43 -31q-14 0 -26 15.5t-12 31.5zM365 688q96 7 151 19l2 67q0 27 4 137q2 104 2 242q0 100 -2 129q-113 -385 -157 -594z" />
<glyph unicode="&#xc7;" horiz-adv-x="690" d="M90 793v129q2 55 2 114q0 121 14 191q-6 31 -6 63q0 123 92.5 199t233.5 76q53 0 98 -29t45 -72q0 -20 -16 -32.5t-41 -12.5q-20 0 -44 6.5t-30 18.5h-26v4q-76 0 -127 -33q-37 -27 -58 -88q-8 -23 -12 -57.5t-4 -63.5q-2 -16 -2 -65l4 -72l2 -70q0 -31 -8 -71 q-10 -51 -10 -72v-49q0 -80 6 -219q2 -117 26 -234q18 -109 70 -184q49 -78 133 -78q35 0 86 37q55 37 78 37q29 0 59 -31q0 -76 -57 -117q-53 -37 -127 -47q-41 -4 -65 -4q-58 0 -106 26.5t-83 72.5q-31 43 -55.5 109.5t-36.5 137.5q-25 121 -33 318q-2 47 -2 162z M274 -393q0 20 23 20q8 0 33 -10t32 -10q35 0 57.5 42t22.5 99q0 68 -30 92l-27 -4l-29 -4q-31 0 -55 41q16 43 16 119v22l60 9q-8 -61 -8 -105q150 -8 149 -205q0 -33 -21.5 -70.5t-58.5 -64.5t-76 -27q-32 0 -60 15.5t-28 40.5z" />
<glyph unicode="&#xc8;" horiz-adv-x="569" d="M-41 1753q0 25 22.5 52.5t45.5 27.5q12 0 96 -43t155.5 -89t71.5 -62q0 -14 -14 -15q-23 0 -118 28t-177 58.5t-82 42.5zM111 1454v6q35 57 51 74q29 0 76 8q43 8 75 8q33 0 64 -19.5t31 -45.5q0 -61 -95 -62h-28q-12 2 -29 2q-18 0 -23 -2q0 -70 9 -168l4 -57l4 -113 q0 -39 -6 -118l-4 -115l28 6q41 12 68 12q23 0 41 -17t18 -40q0 -25 -15 -44t-38 -19l-25 2h-26q-31 0 -43 -15v-633l114 7q117 0 117 -54v-8q-12 -25 -45 -40t-63 -19l-68 -2h-63q-39 0 -68 10q-35 10 -35 57v1190q0 35 -12 105q-14 63 -14 104z" />
<glyph unicode="&#xc9;" horiz-adv-x="569" d="M111 1454v6q35 57 51 74q29 0 76 8q43 8 75 8q33 0 64 -19.5t31 -45.5q0 -61 -95 -62h-28q-12 2 -29 2q-18 0 -23 -2q0 -70 9 -168l4 -57l4 -113q0 -39 -6 -118l-4 -115l28 6q41 12 68 12q23 0 41 -17t18 -40q0 -25 -15 -44t-38 -19l-25 2h-26q-31 0 -43 -15v-633l114 7 q117 0 117 -54v-8q-12 -25 -45 -40t-63 -19l-68 -2h-63q-39 0 -68 10q-35 10 -35 57v1190q0 35 -12 105q-14 63 -14 104zM186 1642q0 10 10 21l33 29q10 10 115 100l120 104q8 4 19 4q25 0 45 -24.5t20 -50.5q0 -25 -14 -33q-74 -57 -299 -172q-4 -4 -16 -4q-13 0 -23 7 t-10 19z" />
<glyph unicode="&#xca;" horiz-adv-x="569" d="M111 1454v6q35 57 51 74q29 0 76 8q43 8 75 8q33 0 64 -19.5t31 -45.5q0 -61 -95 -62h-28q-12 2 -29 2q-18 0 -23 -2q0 -70 9 -168l4 -57l4 -113q0 -39 -6 -118l-4 -115l28 6q41 12 68 12q23 0 41 -17t18 -40q0 -25 -15 -44t-38 -19l-25 2h-26q-31 0 -43 -15v-633l114 7 q117 0 117 -54v-8q-12 -25 -45 -40t-63 -19l-68 -2h-63q-39 0 -68 10q-35 10 -35 57v1190q0 35 -12 105q-14 63 -14 104zM127 1669q0 12 4 18l71 181q8 16 24.5 55t24.5 53q23 37 48 49q16 4 28 4q16 0 29 -18q29 -45 51 -139l27 -99q18 -74 26 -98q2 -6 2 -18 q0 -18 -14 -30.5t-33 -12.5q-20 0 -24 14l-80 276l-105 -262q-6 -14 -28 -14q-20 0 -35.5 11t-15.5 30z" />
<glyph unicode="&#xcb;" horiz-adv-x="569" d="M55 1708q0 31 24 54.5t54 23.5q29 0 50.5 -23.5t21.5 -52.5q0 -33 -22.5 -54.5t-57.5 -21.5q-26 0 -48 22.5t-22 51.5zM111 1454v6q35 57 51 74q29 0 76 8q43 8 75 8q33 0 64 -19.5t31 -45.5q0 -61 -95 -62h-28q-12 2 -29 2q-18 0 -23 -2q0 -70 9 -168l4 -57l4 -113 q0 -39 -6 -118l-4 -115l28 6q41 12 68 12q23 0 41 -17t18 -40q0 -25 -15 -44t-38 -19l-25 2h-26q-31 0 -43 -15v-633l114 7q117 0 117 -54v-8q-12 -25 -45 -40t-63 -19l-68 -2h-63q-39 0 -68 10q-35 10 -35 57v1190q0 35 -12 105q-14 63 -14 104zM385 1698q0 31 23.5 54 t54.5 23q29 0 51.5 -23.5t22.5 -51.5q0 -33 -23.5 -54.5t-58.5 -21.5q-27 0 -48.5 22.5t-21.5 51.5z" />
<glyph unicode="&#xcc;" horiz-adv-x="526" d="M-92 1745q0 25 22.5 52.5t45.5 27.5q12 0 96 -43t155.5 -89t71.5 -62q0 -14 -14 -15q-23 0 -118 28t-177 58.5t-82 42.5zM76 63q0 49 61 50h25q8 -2 18 -2q16 0 23.5 10t7.5 37q0 174 -21 475q-18 313 -18 473q0 57 2 104l2 105q0 68 -6 112q-23 -8 -47 -8q-47 0 -47 49 q0 25 29.5 43.5t76.5 26.5q86 14 146 14q25 0 42 -16t17 -39t-13.5 -39t-33.5 -16q-12 0 -21 2h-16q-20 0 -29.5 -9.5t-9.5 -33.5q0 -217 27 -598q25 -399 24 -600v-78q14 2 41 2q86 0 86 -72v-12l-51 -35q-2 0 -12 -1t-41 -1q-70 -4 -86 -4q-176 0 -176 61z" />
<glyph unicode="&#xcd;" horiz-adv-x="526" d="M76 63q0 49 61 50h25q8 -2 18 -2q16 0 23.5 10t7.5 37q0 174 -21 475q-18 313 -18 473q0 57 2 104l2 105q0 68 -6 112q-23 -8 -47 -8q-47 0 -47 49q0 25 29.5 43.5t76.5 26.5q86 14 146 14q25 0 42 -16t17 -39t-13.5 -39t-33.5 -16q-12 0 -21 2h-16q-20 0 -29.5 -9.5 t-9.5 -33.5q0 -217 27 -598q25 -399 24 -600v-78q14 2 41 2q86 0 86 -72v-12l-51 -35q-2 0 -12 -1t-41 -1q-70 -4 -86 -4q-176 0 -176 61zM135 1634q0 10 10 21l33 29q10 10 115 100l120 104q8 4 19 4q25 0 45 -24.5t20 -50.5q0 -25 -14 -33q-74 -57 -299 -172q-4 -4 -16 -4 q-13 0 -23 7t-10 19z" />
<glyph unicode="&#xce;" horiz-adv-x="526" d="M76 63q0 49 61 50h25q8 -2 18 -2q16 0 23.5 10t7.5 37q0 174 -21 475q-18 313 -18 473q0 57 2 104l2 105q0 68 -6 112q-23 -8 -47 -8q-47 0 -47 49q0 25 29.5 43.5t76.5 26.5q86 14 146 14q25 0 42 -16t17 -39t-13.5 -39t-33.5 -16q-12 0 -21 2h-16q-20 0 -29.5 -9.5 t-9.5 -33.5q0 -217 27 -598q25 -399 24 -600v-78q14 2 41 2q86 0 86 -72v-12l-51 -35q-2 0 -12 -1t-41 -1q-70 -4 -86 -4q-176 0 -176 61zM76 1661q0 12 4 18l71 181q8 16 24.5 55t24.5 53q23 37 48 49q16 4 28 4q16 0 29 -18q29 -45 51 -139l27 -99q18 -74 26 -98 q2 -6 2 -18q0 -18 -14 -30.5t-33 -12.5q-20 0 -24 14l-80 276l-105 -262q-6 -14 -28 -14q-20 0 -35.5 11t-15.5 30z" />
<glyph unicode="&#xcf;" horiz-adv-x="526" d="M4 1700q0 31 24 54.5t54 23.5q29 0 50.5 -23.5t21.5 -52.5q0 -33 -22.5 -54.5t-57.5 -21.5q-26 0 -48 22.5t-22 51.5zM76 63q0 49 61 50h25q8 -2 18 -2q16 0 23.5 10t7.5 37q0 174 -21 475q-18 313 -18 473q0 57 2 104l2 105q0 68 -6 112q-23 -8 -47 -8q-47 0 -47 49 q0 25 29.5 43.5t76.5 26.5q86 14 146 14q25 0 42 -16t17 -39t-13.5 -39t-33.5 -16q-12 0 -21 2h-16q-20 0 -29.5 -9.5t-9.5 -33.5q0 -217 27 -598q25 -399 24 -600v-78q14 2 41 2q86 0 86 -72v-12l-51 -35q-2 0 -12 -1t-41 -1q-70 -4 -86 -4q-176 0 -176 61zM334 1690 q0 31 23.5 54t54.5 23q29 0 51.5 -23.5t22.5 -51.5q0 -33 -23.5 -54.5t-58.5 -21.5q-27 0 -48.5 22.5t-21.5 51.5z" />
<glyph unicode="&#xd0;" horiz-adv-x="862" d="M2 797q0 25 49 43q41 16 123 26q-4 90 -4 115l4 113q2 49 2 112q0 57 -20 146q-25 92 -25 129q0 72 158 71h30q57 0 107.5 -18t85.5 -49q66 -57 111 -166q31 -74 53 -205q12 -114 12 -180v-66v-96q-4 -8 -4 -16q0 -16 2 -25q2 -8 2 -20q0 -66 -19.5 -157t-56.5 -185 q-92 -225 -206 -320q-68 -53 -142 -53q-41 0 -70.5 18.5t-29.5 51.5q45 45 45 239q0 117 -19 340q-4 33 -8 98l-26 -2q-70 -4 -86 -4q-27 0 -47.5 17.5t-20.5 42.5zM258 1427q0 -184 25 -550h10q70 4 84 4q27 0 47 -17.5t20 -42.5t-47 -43q-39 -14 -106 -24q16 -305 16 -445 v-194q76 47 133.5 136t87.5 198q56 200 56 405q0 111 -21 242q-23 123 -94 229q-35 49 -89 77t-122 28v-3z" />
<glyph unicode="&#xd1;" horiz-adv-x="843" d="M111 811v262q0 63 6 189q8 109 8 188v12q0 102 45 103q27 0 68 -90q68 -147 172 -529q59 -221 139 -569q-2 8 33 -141l2 -11q0 199 4 357l4 356v606q8 51 65 51q55 0 56 -79v-13q-12 -25 -13 -59q0 -125 -6 -377q-6 -254 -6 -381v-625q0 -33 -17.5 -62.5t-41.5 -29.5 q-41 0 -168 422q-143 494 -248 907v-671q0 -86 16 -293q14 -225 15 -291q0 -18 -22.5 -31.5t-51.5 -13.5q-43 0 -43 33l4 59q4 66 4 86q0 109 -12 344q-12 240 -12 291zM183 1661q0 51 40.5 84.5t108.5 33.5q23 0 88 -41q66 -41 84 -40q18 0 29.5 12t13.5 28q4 16 15.5 28.5 t29.5 12.5q33 0 50.5 -15t17.5 -38q0 -53 -39 -93t-92 -40q-52 0 -88.5 13.5t-51.5 31.5q-14 18 -34.5 30.5t-45.5 12.5q-14 -6 -20 -16t-2 -23v-4q0 -27 -31 -37q-33 0 -53 15.5t-20 44.5z" />
<glyph unicode="&#xd2;" horiz-adv-x="727" d="M27 1753q0 25 22.5 52.5t45.5 27.5q12 0 96 -43t155.5 -89t71.5 -62q0 -14 -14 -15q-23 0 -118 28t-177 58.5t-82 42.5zM90 1038q0 123 10 217q8 98 41 195q33 84 95 119q37 16 73 16q109 0 172 -86q70 -96 92 -215q33 -143 37 -274q8 -145 8 -275v-117q0 -35 -10 -131 q-8 -76 -8 -129v-8q-12 -57 -12 -135q0 -57 -24.5 -118.5t-69.5 -104.5q-45 -49 -103 -49q-55 0 -100 36.5t-78 100.5q-59 111 -88 303q-20 133 -31 307l-2 109v110q-2 53 -2 129zM184 852q0 -137 29 -338q33 -272 96 -387q41 -72 86 -72q41 0 70 76q25 68 36 165t19 220 q4 53 4 137l-2 189q-4 111 -24 276q-16 141 -62 250q-20 51 -51 80t-66 29q-51 0 -75 -80q-31 -84 -41 -185q-12 -109 -15 -206l-2 -68q-2 -29 -2 -78v-8z" />
<glyph unicode="&#xd3;" horiz-adv-x="727" d="M90 1038q0 123 10 217q8 98 41 195q33 84 95 119q37 16 73 16q109 0 172 -86q70 -96 92 -215q33 -143 37 -274q8 -145 8 -275v-117q0 -35 -10 -131q-8 -76 -8 -129v-8q-12 -57 -12 -135q0 -57 -24.5 -118.5t-69.5 -104.5q-45 -49 -103 -49q-55 0 -100 36.5t-78 100.5 q-59 111 -88 303q-20 133 -31 307l-2 109v110q-2 53 -2 129zM184 852q0 -137 29 -338q33 -272 96 -387q41 -72 86 -72q41 0 70 76q25 68 36 165t19 220q4 53 4 137l-2 189q-4 111 -24 276q-16 141 -62 250q-20 51 -51 80t-66 29q-51 0 -75 -80q-31 -84 -41 -185 q-12 -109 -15 -206l-2 -68q-2 -29 -2 -78v-8zM254 1642q0 10 10 21l33 29q10 10 115 100l120 104q8 4 19 4q25 0 45 -24.5t20 -50.5q0 -25 -14 -33q-74 -57 -299 -172q-4 -4 -16 -4q-13 0 -23 7t-10 19z" />
<glyph unicode="&#xd4;" horiz-adv-x="727" d="M90 1038q0 123 10 217q8 98 41 195q33 84 95 119q37 16 73 16q109 0 172 -86q70 -96 92 -215q33 -143 37 -274q8 -145 8 -275v-117q0 -35 -10 -131q-8 -76 -8 -129v-8q-12 -57 -12 -135q0 -57 -24.5 -118.5t-69.5 -104.5q-45 -49 -103 -49q-55 0 -100 36.5t-78 100.5 q-59 111 -88 303q-20 133 -31 307l-2 109v110q-2 53 -2 129zM184 852q0 -137 29 -338q33 -272 96 -387q41 -72 86 -72q41 0 70 76q25 68 36 165t19 220q4 53 4 137l-2 189q-4 111 -24 276q-16 141 -62 250q-20 51 -51 80t-66 29q-51 0 -75 -80q-31 -84 -41 -185 q-12 -109 -15 -206l-2 -68q-2 -29 -2 -78v-8zM195 1669q0 12 4 18l71 181q8 16 24.5 55t24.5 53q23 37 48 49q16 4 28 4q16 0 29 -18q29 -45 51 -139l27 -99q18 -74 26 -98q2 -6 2 -18q0 -18 -14 -30.5t-33 -12.5q-20 0 -24 14l-80 276l-105 -262q-6 -14 -28 -14 q-20 0 -35.5 11t-15.5 30z" />
<glyph unicode="&#xd5;" horiz-adv-x="727" d="M74 1690q0 51 40.5 84.5t108.5 33.5q23 0 88 -41q66 -41 84 -40q18 0 29.5 12t13.5 28q4 16 15.5 28.5t29.5 12.5q33 0 50.5 -15t17.5 -38q0 -53 -39 -93t-92 -40q-52 0 -88.5 13.5t-51.5 31.5q-14 18 -34.5 30.5t-45.5 12.5q-14 -6 -20 -16t-2 -23v-4q0 -27 -31 -37 q-33 0 -53 15.5t-20 44.5zM90 1038q0 123 10 217q8 98 41 195q33 84 95 119q37 16 73 16q109 0 172 -86q70 -96 92 -215q33 -143 37 -274q8 -145 8 -275v-117q0 -35 -10 -131q-8 -76 -8 -129v-8q-12 -57 -12 -135q0 -57 -24.5 -118.5t-69.5 -104.5q-45 -49 -103 -49 q-55 0 -100 36.5t-78 100.5q-59 111 -88 303q-20 133 -31 307l-2 109v110q-2 53 -2 129zM184 852q0 -137 29 -338q33 -272 96 -387q41 -72 86 -72q41 0 70 76q25 68 36 165t19 220q4 53 4 137l-2 189q-4 111 -24 276q-16 141 -62 250q-20 51 -51 80t-66 29q-51 0 -75 -80 q-31 -84 -41 -185q-12 -109 -15 -206l-2 -68q-2 -29 -2 -78v-8z" />
<glyph unicode="&#xd6;" horiz-adv-x="727" d="M90 1038q0 123 10 217q8 98 41 195q33 84 95 119q37 16 73 16q109 0 172 -86q70 -96 92 -215q33 -143 37 -274q8 -145 8 -275v-117q0 -35 -10 -131q-8 -76 -8 -129v-8q-12 -57 -12 -135q0 -57 -24.5 -118.5t-69.5 -104.5q-45 -49 -103 -49q-55 0 -100 36.5t-78 100.5 q-59 111 -88 303q-20 133 -31 307l-2 109v110q-2 53 -2 129zM122 1708q0 31 24 54.5t54 23.5q29 0 50.5 -23.5t21.5 -52.5q0 -33 -22.5 -54.5t-57.5 -21.5q-26 0 -48 22.5t-22 51.5zM184 852q0 -137 29 -338q33 -272 96 -387q41 -72 86 -72q41 0 70 76q25 68 36 165t19 220 q4 53 4 137l-2 189q-4 111 -24 276q-16 141 -62 250q-20 51 -51 80t-66 29q-51 0 -75 -80q-31 -84 -41 -185q-12 -109 -15 -206l-2 -68q-2 -29 -2 -78v-8zM452 1698q0 31 23.5 54t54.5 23q29 0 51.5 -23.5t22.5 -51.5q0 -33 -23.5 -54.5t-58.5 -21.5q-27 0 -48.5 22.5 t-21.5 51.5z" />
<glyph unicode="&#xd7;" horiz-adv-x="827" d="M158 823q0 23 18.5 40.5t40.5 17.5q12 0 51 -33q27 -23 84 -76q53 -49 56 -51q29 16 79 84q18 27 43 44t50 17q23 0 39 -16t16 -39q0 -20 -20.5 -43t-49.5 -41t-49 -40.5t-20 -43.5q0 -18 23.5 -40.5t55.5 -41.5q80 -51 80 -88q0 -29 -22.5 -51.5t-50.5 -22.5l-33 13 q-4 6 -15.5 16t-27.5 31l-66 69q-33 33 -37 33q-10 0 -34 -33q-72 -98 -117 -98q-25 0 -44.5 18.5t-19.5 40.5q0 27 91 105q33 31 45 45l-60 45q-55 45 -80.5 78t-25.5 61z" />
<glyph unicode="&#xd8;" horiz-adv-x="729" d="M90 1038q0 123 10 219q8 100 41 193q35 84 95 119q37 16 73 16q76 0 125 -41l45 254h80l-63 -317q82 -119 104 -351q12 -102 15 -187t3 -210v-59v-56q0 -35 -10 -131q-8 -76 -8 -129v-8q-12 -57 -12 -135q0 -57 -24.5 -118.5t-69.5 -104.5q-45 -49 -103 -49 q-47 0 -82 25.5t-69 78.5l-72 -328l-45 58l61 366q-47 127 -69.5 306.5t-22.5 349.5v110q-2 53 -2 129zM184 852q0 -74 12.5 -208t32.5 -249l183 1020q-39 61 -93 62q-51 0 -75 -80q-31 -84 -41 -185q-12 -109 -15 -206l-2 -68q-2 -29 -2 -78v-8zM266 240q51 -184 129 -185 q41 0 70 76q25 68 36 165t19 220q4 53 4 137q0 430 -63 645z" />
<glyph unicode="&#xd9;" horiz-adv-x="821" d="M84 1724q0 25 22.5 52.5t45.5 27.5q12 0 96 -43t155.5 -89t71.5 -62q0 -14 -14 -15q-23 0 -118 28t-177 58.5t-82 42.5zM94 1477q0 25 18.5 44t41.5 19q74 0 73 -145q0 -94 11 -357q10 -262 10 -356q10 -27 19 -106.5t9 -131.5q0 -45 14.5 -111.5t41.5 -133.5 q27 -72 69.5 -118t90.5 -46q29 0 48 18.5t25 52.5q12 57 13 113v399q0 76 -15 193q-12 129 -12 195v14q0 33 -2 59l-2 60q0 57 -6 174q-8 104 -9 176q0 23 24 39t52 16l51 -47v-35q0 -25 -8 -59q-8 -57 -8 -66q0 -186 21 -514q18 -344 18 -534q0 -102 -20 -180 q-12 -47 -34 -76t-59 -49q-35 -20 -90 -21q-126 0 -200 111q-80 113 -113 276q-37 174 -47 373q-10 180 -10 391v170q2 72 2 152q-16 16 -17 41z" />
<glyph unicode="&#xda;" horiz-adv-x="821" d="M94 1477q0 25 18.5 44t41.5 19q74 0 73 -145q0 -94 11 -357q10 -262 10 -356q10 -27 19 -106.5t9 -131.5q0 -45 14.5 -111.5t41.5 -133.5q27 -72 69.5 -118t90.5 -46q29 0 48 18.5t25 52.5q12 57 13 113v399q0 76 -15 193q-12 129 -12 195v14q0 33 -2 59l-2 60 q0 57 -6 174q-8 104 -9 176q0 23 24 39t52 16l51 -47v-35q0 -25 -8 -59q-8 -57 -8 -66q0 -186 21 -514q18 -344 18 -534q0 -102 -20 -180q-12 -47 -34 -76t-59 -49q-35 -20 -90 -21q-126 0 -200 111q-80 113 -113 276q-37 174 -47 373q-10 180 -10 391v170q2 72 2 152 q-16 16 -17 41zM311 1613q0 10 10 21l33 29q10 10 115 100l120 104q8 4 19 4q25 0 45 -24.5t20 -50.5q0 -25 -14 -33q-74 -57 -299 -172q-4 -4 -16 -4q-13 0 -23 7t-10 19z" />
<glyph unicode="&#xdb;" horiz-adv-x="821" d="M94 1477q0 25 18.5 44t41.5 19q74 0 73 -145q0 -94 11 -357q10 -262 10 -356q10 -27 19 -106.5t9 -131.5q0 -45 14.5 -111.5t41.5 -133.5q27 -72 69.5 -118t90.5 -46q29 0 48 18.5t25 52.5q12 57 13 113v399q0 76 -15 193q-12 129 -12 195v14q0 33 -2 59l-2 60 q0 57 -6 174q-8 104 -9 176q0 23 24 39t52 16l51 -47v-35q0 -25 -8 -59q-8 -57 -8 -66q0 -186 21 -514q18 -344 18 -534q0 -102 -20 -180q-12 -47 -34 -76t-59 -49q-35 -20 -90 -21q-126 0 -200 111q-80 113 -113 276q-37 174 -47 373q-10 180 -10 391v170q2 72 2 152 q-16 16 -17 41zM252 1641q0 12 4 18l71 181q8 16 24.5 55t24.5 53q23 37 48 49q16 4 28 4q16 0 29 -18q29 -45 51 -139l27 -99q18 -74 26 -98q2 -6 2 -18q0 -18 -14 -30.5t-33 -12.5q-20 0 -24 14l-80 276l-105 -262q-6 -14 -28 -14q-20 0 -35.5 11t-15.5 30z" />
<glyph unicode="&#xdc;" horiz-adv-x="821" d="M94 1477q0 25 18.5 44t41.5 19q74 0 73 -145q0 -94 11 -357q10 -262 10 -356q10 -27 19 -106.5t9 -131.5q0 -45 14.5 -111.5t41.5 -133.5q27 -72 69.5 -118t90.5 -46q29 0 48 18.5t25 52.5q12 57 13 113v399q0 76 -15 193q-12 129 -12 195v14q0 33 -2 59l-2 60 q0 57 -6 174q-8 104 -9 176q0 23 24 39t52 16l51 -47v-35q0 -25 -8 -59q-8 -57 -8 -66q0 -186 21 -514q18 -344 18 -534q0 -102 -20 -180q-12 -47 -34 -76t-59 -49q-35 -20 -90 -21q-126 0 -200 111q-80 113 -113 276q-37 174 -47 373q-10 180 -10 391v170q2 72 2 152 q-16 16 -17 41zM180 1679q0 31 24 54.5t54 23.5q29 0 50.5 -23.5t21.5 -52.5q0 -33 -22.5 -54.5t-57.5 -21.5q-26 0 -48 22.5t-22 51.5zM510 1669q0 31 23.5 54t54.5 23q29 0 51.5 -23.5t22.5 -51.5q0 -33 -23.5 -54.5t-58.5 -21.5q-27 0 -48.5 22.5t-21.5 51.5z" />
<glyph unicode="&#xdd;" horiz-adv-x="542" d="M31 1513q0 14 16 24.5t35 10.5q23 0 43 -47q25 -53 47.5 -149.5t26.5 -114.5l26 -141l21 -90q6 33 10 86q12 170 31 282q14 78 32 119q20 45 50 45q55 0 55 -20q0 -117 -49 -344t-49 -347l-4 -32q-4 -31 -3 -37v-33q0 -88 7 -270l4 -273l4 -47l4 -49v-51 q0 -25 -20.5 -42.5t-49.5 -17.5q-20 0 -35.5 14.5t-15.5 35.5l4 198q6 133 6 199q0 59 -18 176q-20 115 -21 178q0 78 -22.5 178.5t-56.5 192.5q-33 88 -55.5 189.5t-22.5 176.5zM213 1613q0 10 10 21l33 29q10 10 115 100l120 104q8 4 19 4q25 0 45 -24.5t20 -50.5 q0 -25 -14 -33q-74 -57 -299 -172q-4 -4 -16 -4q-13 0 -23 7t-10 19z" />
<glyph unicode="&#xde;" horiz-adv-x="536" d="M94 1487q0 61 51 61q70 0 70 -125v-39l-2 -30q84 -12 146.5 -73.5t91.5 -147.5q25 -82 24 -168q0 -152 -65.5 -274t-190.5 -189l4 -140l4 -71q8 -125 9 -217q0 -84 -68 -84q-23 0 -36 19.5t-13 47.5q0 160 -10 621q-12 412 -13 618zM211 1249l2 -323l2 -326 q80 76 118 160t38 188q0 84 -13.5 131t-42.5 82q-35 37 -98 88h-6z" />
<glyph unicode="&#xdf;" horiz-adv-x="661" d="M94 1249q0 84 23 172q25 96 92 142q39 23 84 22q53 0 94 -33.5t62 -91.5q35 -106 34 -211q0 -180 -127 -391q109 -82 148 -171t39 -243q0 -117 -48.5 -221t-134.5 -174l-4 -2l-12 -2q-18 0 -32.5 10.5t-14.5 26.5q0 25 74 119q29 41 50 98t21 111q0 102 -17 180t-44 119 q-31 41 -53 63q-6 6 -25.5 24.5t-29 32t-9.5 25.5q0 16 31 86q35 86 61.5 177t26.5 157q0 49 -18 117q-10 37 -29 59.5t-43 22.5q-27 0 -46.5 -18.5t-31.5 -49.5q-20 -59 -20 -111q0 -180 16 -622q14 -389 14 -627q0 -45 -14 -68.5t-51 -23.5q-60 0 -60 51l4 266 q6 178 7 269q0 143 -9 354l-4 117z" />
<glyph unicode="&#xe0;" horiz-adv-x="612" d="M25 43l4 10l2 8q135 526 205 1039q0 8 2 27.5t4 56.5q6 76 13 121t24 67h69q29 0 49.5 -13t20.5 -38q0 -156 43 -463q41 -315 41 -442q0 -12 10 -64q10 -47 10 -61t21 -123q18 -98 18 -127v-2q0 -45 -33 -57q-47 0 -69.5 14t-22.5 53q0 61 -20 209l-8 43l-203 31 q-12 -47 -35 -191q-12 -100 -39 -133q-14 -18 -41 -18q-25 0 -45 15t-20 38zM49 1599q0 25 22.5 52.5t45.5 27.5q12 0 96 -43t155.5 -89t71.5 -62q0 -14 -14 -15q-23 0 -118 28t-177 58.5t-82 42.5zM213 408q31 -20 180 -33q-6 31 -6 76q0 184 -33 471l-20 213 q-88 -481 -121 -727z" />
<glyph unicode="&#xe1;" horiz-adv-x="612" d="M25 43l4 10l2 8q135 526 205 1039q0 8 2 27.5t4 56.5q6 76 13 121t24 67h69q29 0 49.5 -13t20.5 -38q0 -156 43 -463q41 -315 41 -442q0 -12 10 -64q10 -47 10 -61t21 -123q18 -98 18 -127v-2q0 -45 -33 -57q-47 0 -69.5 14t-22.5 53q0 61 -20 209l-8 43l-203 31 q-12 -47 -35 -191q-12 -100 -39 -133q-14 -18 -41 -18q-25 0 -45 15t-20 38zM213 408q31 -20 180 -33q-6 31 -6 76q0 184 -33 471l-20 213q-88 -481 -121 -727zM305 1489q0 10 10 21l33 29q10 10 115 100l120 104q8 4 19 4q25 0 45 -24.5t20 -50.5q0 -25 -14 -33 q-74 -57 -299 -172q-4 -4 -16 -4q-13 0 -23 7t-10 19z" />
<glyph unicode="&#xe2;" horiz-adv-x="612" d="M25 43l4 10l2 8q135 526 205 1039q0 8 2 27.5t4 56.5q6 76 13 121t24 67h69q29 0 49.5 -13t20.5 -38q0 -156 43 -463q41 -315 41 -442q0 -12 10 -64q10 -47 10 -61t21 -123q18 -98 18 -127v-2q0 -45 -33 -57q-47 0 -69.5 14t-22.5 53q0 61 -20 209l-8 43l-203 31 q-12 -47 -35 -191q-12 -100 -39 -133q-14 -18 -41 -18q-25 0 -45 15t-20 38zM189 1446q0 12 4 18l71 181q8 16 24.5 55t24.5 53q23 37 48 49q16 4 28 4q16 0 29 -18q29 -45 51 -139l27 -99q18 -74 26 -98q2 -6 2 -18q0 -18 -14 -30.5t-33 -12.5q-20 0 -24 14l-80 276 l-105 -262q-6 -14 -28 -14q-20 0 -35.5 11t-15.5 30zM213 408q31 -20 180 -33q-6 31 -6 76q0 184 -33 471l-20 213q-88 -481 -121 -727z" />
<glyph unicode="&#xe3;" horiz-adv-x="612" d="M25 43l4 10l2 8q135 526 205 1039q0 8 2 27.5t4 56.5q6 76 13 121t24 67h69q29 0 49.5 -13t20.5 -38q0 -156 43 -463q41 -315 41 -442q0 -12 10 -64q10 -47 10 -61t21 -123q18 -98 18 -127v-2q0 -45 -33 -57q-47 0 -69.5 14t-22.5 53q0 61 -20 209l-8 43l-203 31 q-12 -47 -35 -191q-12 -100 -39 -133q-14 -18 -41 -18q-25 0 -45 15t-20 38zM117 1536q0 51 40.5 84.5t108.5 33.5q23 0 88 -41q66 -41 84 -40q18 0 29.5 12t13.5 28q4 16 15.5 28.5t29.5 12.5q33 0 50.5 -15t17.5 -38q0 -53 -39 -93t-92 -40q-52 0 -88.5 13.5t-51.5 31.5 q-14 18 -34.5 30.5t-45.5 12.5q-14 -6 -20 -16t-2 -23v-4q0 -27 -31 -37q-33 0 -53 15.5t-20 44.5zM213 408q31 -20 180 -33q-6 31 -6 76q0 184 -33 471l-20 213q-88 -481 -121 -727z" />
<glyph unicode="&#xe4;" horiz-adv-x="612" d="M25 43l4 10l2 8q135 526 205 1039q0 8 2 27.5t4 56.5q6 76 13 121t24 67h69q29 0 49.5 -13t20.5 -38q0 -156 43 -463q41 -315 41 -442q0 -12 10 -64q10 -47 10 -61t21 -123q18 -98 18 -127v-2q0 -45 -33 -57q-47 0 -69.5 14t-22.5 53q0 61 -20 209l-8 43l-203 31 q-12 -47 -35 -191q-12 -100 -39 -133q-14 -18 -41 -18q-25 0 -45 15t-20 38zM116 1585q0 31 24 54.5t54 23.5q29 0 50.5 -23.5t21.5 -52.5q0 -33 -22.5 -54.5t-57.5 -21.5q-26 0 -48 22.5t-22 51.5zM213 408q31 -20 180 -33q-6 31 -6 76q0 184 -33 471l-20 213 q-88 -481 -121 -727zM446 1575q0 31 23.5 54t54.5 23q29 0 51.5 -23.5t22.5 -51.5q0 -33 -23.5 -54.5t-58.5 -21.5q-27 0 -48.5 22.5t-21.5 51.5z" />
<glyph unicode="&#xe5;" horiz-adv-x="612" d="M25 43l4 10l2 8q135 526 205 1039q0 8 2 27.5t4 56.5q6 76 13 121t24 67h69q29 0 49.5 -13t20.5 -38q0 -156 43 -463q41 -315 41 -442q0 -12 10 -64q10 -47 10 -61t21 -123q18 -98 18 -127v-2q0 -45 -33 -57q-47 0 -69.5 14t-22.5 53q0 61 -20 209l-8 43l-203 31 q-12 -47 -35 -191q-12 -100 -39 -133q-14 -18 -41 -18q-25 0 -45 15t-20 38zM172 1657q0 72 46 119t118 47q94 0 143 -39q43 -35 58 -86q4 -29 4 -41q0 -49 -23 -96q-29 -66 -96 -95q-35 -14 -86 -14q-47 0 -81 19.5t-50 52.5q-33 66 -33 133zM213 408q31 -20 180 -33 q-6 31 -6 76q0 184 -33 471l-20 213q-88 -481 -121 -727zM252 1616q0 -29 28.5 -57.5t63.5 -28.5t61.5 13t41.5 36q20 33 20 74q0 39 -30.5 67.5t-90.5 28.5q-47 0 -70.5 -37t-23.5 -96z" />
<glyph unicode="&#xe6;" horiz-adv-x="897" d="M109 47q0 104 55 326q55 215 123 446l59 197q51 166 68 219q35 111 47 145q2 8 7 26.5t9 33.5q6 12 10 28q10 23 17 29q4 6 9 12.5t9 12.5q20 23 53 22l80 4q51 6 78 6q88 0 88 -57v-4l-20 -43q-117 0 -195 -10q0 -51 8 -131q6 -92 7 -144l-5 -225q-2 -98 -2 -223 q14 0 70 10q66 8 78 8h10l41 -49q0 -66 -113 -65h-8l-80 2l4 -261q2 -121 2 -280q31 0 113 10q63 10 115 10q27 0 47 -13t20 -36q0 -66 -243 -65h-31q-20 0 -43 -15q-27 -16 -39 -16l-45 45h2q16 190 16 252l-4 188q-6 129 -6 191q-23 0 -43 -2q-41 -2 -88 -8 q-6 -2 -21.5 -5.5t-23.5 -7.5l-100 -385q-6 -16 -11 -53q-8 -41 -18 -78t-25 -63q-20 -31 -43 -31q-14 0 -26 15.5t-12 31.5zM365 688q96 7 151 19l2 67q0 27 4 137q2 104 2 242q0 100 -2 129q-113 -385 -157 -594z" />
<glyph unicode="&#xe7;" horiz-adv-x="571" d="M90 496v55v63v50q0 82 2 146t8 140q6 80 18.5 130t41.5 114q25 59 60.5 92t92.5 55q51 23 127 23q31 0 47.5 -14.5t16.5 -36.5q0 -20 -13.5 -36.5t-31.5 -19.5h-97q-41 0 -71.5 -51t-42.5 -133q-27 -152 -27 -246v-10l-4 -196q-4 -88 -4 -199q0 -78 6 -127 q10 -74 35 -123q25 -55 84 -80q31 -12 68 -12q23 0 45 16q27 0 44 -11t17 -34q0 -80 -113 -80q-45 0 -95 13.5t-77 29.5q-137 88 -137 482zM243 -385q0 20 23 20q8 0 33 -10t32 -10q35 0 57.5 42t22.5 99q0 68 -30 92l-27 -4l-29 -4q-31 0 -55 41q16 43 16 119v22l60 9 q-8 -61 -8 -105q150 -8 149 -205q0 -33 -21.5 -70.5t-58.5 -64.5t-76 -27q-32 0 -60 15.5t-28 40.5z" />
<glyph unicode="&#xe8;" horiz-adv-x="581" d="M-37 1558q0 25 22.5 52.5t45.5 27.5q12 0 96 -43t155.5 -89t71.5 -62q0 -14 -14 -15q-23 0 -118 28t-177 58.5t-82 42.5zM135 436q0 100 6 299q8 178 9 299q0 29 -7 86q-6 59 -6 86q0 145 86 146q68 0 157 -27t89 -63q0 -20 -17.5 -38t-41.5 -28q-86 31 -156 41 q2 -31 2 -88q0 -82 -2 -148q-6 -98 -6 -147l6 -33l33 2q16 2 41 2q98 0 98 -57q0 -23 -18.5 -38t-47.5 -15q-37 0 -57 4h-51q4 -53 4 -156q0 -102 -2 -184q-6 -125 -6 -186q0 -115 4 -115l67 2q35 2 84 2q78 0 78 -49q0 -29 -25.5 -44.5t-62.5 -15.5h-174q-26 0 -47.5 18.5 t-24.5 45.5v53v41q-2 18 -2 43q0 43 -6 131z" />
<glyph unicode="&#xe9;" horiz-adv-x="581" d="M135 436q0 100 6 299q8 178 9 299q0 29 -7 86q-6 59 -6 86q0 145 86 146q68 0 157 -27t89 -63q0 -20 -17.5 -38t-41.5 -28q-86 31 -156 41q2 -31 2 -88q0 -82 -2 -148q-6 -98 -6 -147l6 -33l33 2q16 2 41 2q98 0 98 -57q0 -23 -18.5 -38t-47.5 -15q-37 0 -57 4h-51 q4 -53 4 -156q0 -102 -2 -184q-6 -125 -6 -186q0 -115 4 -115l67 2q35 2 84 2q78 0 78 -49q0 -29 -25.5 -44.5t-62.5 -15.5h-174q-26 0 -47.5 18.5t-24.5 45.5v53v41q-2 18 -2 43q0 43 -6 131zM219 1448q0 10 10 21l33 29q10 10 115 100l120 104q8 4 19 4q25 0 45 -24.5 t20 -50.5q0 -25 -14 -33q-74 -57 -299 -172q-4 -4 -16 -4q-13 0 -23 7t-10 19z" />
<glyph unicode="&#xea;" horiz-adv-x="581" d="M103 1405q0 12 4 18l71 181q8 16 24.5 55t24.5 53q23 37 48 49q16 4 28 4q16 0 29 -18q29 -45 51 -139l27 -99q18 -74 26 -98q2 -6 2 -18q0 -18 -14 -30.5t-33 -12.5q-20 0 -24 14l-80 276l-105 -262q-6 -14 -28 -14q-20 0 -35.5 11t-15.5 30zM135 436q0 100 6 299 q8 178 9 299q0 29 -7 86q-6 59 -6 86q0 145 86 146q68 0 157 -27t89 -63q0 -20 -17.5 -38t-41.5 -28q-86 31 -156 41q2 -31 2 -88q0 -82 -2 -148q-6 -98 -6 -147l6 -33l33 2q16 2 41 2q98 0 98 -57q0 -23 -18.5 -38t-47.5 -15q-37 0 -57 4h-51q4 -53 4 -156q0 -102 -2 -184 q-6 -125 -6 -186q0 -115 4 -115l67 2q35 2 84 2q78 0 78 -49q0 -29 -25.5 -44.5t-62.5 -15.5h-174q-26 0 -47.5 18.5t-24.5 45.5v53v41q-2 18 -2 43q0 43 -6 131z" />
<glyph unicode="&#xeb;" horiz-adv-x="581" d="M30 1544q0 31 24 54.5t54 23.5q29 0 50.5 -23.5t21.5 -52.5q0 -33 -22.5 -54.5t-57.5 -21.5q-26 0 -48 22.5t-22 51.5zM135 436q0 100 6 299q8 178 9 299q0 29 -7 86q-6 59 -6 86q0 145 86 146q68 0 157 -27t89 -63q0 -20 -17.5 -38t-41.5 -28q-86 31 -156 41 q2 -31 2 -88q0 -82 -2 -148q-6 -98 -6 -147l6 -33l33 2q16 2 41 2q98 0 98 -57q0 -23 -18.5 -38t-47.5 -15q-37 0 -57 4h-51q4 -53 4 -156q0 -102 -2 -184q-6 -125 -6 -186q0 -115 4 -115l67 2q35 2 84 2q78 0 78 -49q0 -29 -25.5 -44.5t-62.5 -15.5h-174q-26 0 -47.5 18.5 t-24.5 45.5v53v41q-2 18 -2 43q0 43 -6 131zM360 1534q0 31 23.5 54t54.5 23q29 0 51.5 -23.5t22.5 -51.5q0 -33 -23.5 -54.5t-58.5 -21.5q-27 0 -48.5 22.5t-21.5 51.5z" />
<glyph unicode="&#xec;" horiz-adv-x="462" d="M-96 1593q0 25 22.5 52.5t45.5 27.5q12 0 96 -43t155.5 -89t71.5 -62q0 -14 -14 -15q-23 0 -118 28t-177 58.5t-82 42.5zM49 63q0 49 64 50h22l21 -2q16 0 22 10t6 37q0 35 -4 108q-6 49 -14 176q-18 313 -19 473q0 57 3 105l2 104q0 68 -7 113q-33 -8 -47 -8 q-49 0 -49 49q0 25 31 43t78 27q82 16 145 16q25 0 42 -17.5t17 -39.5q0 -23 -13 -39.5t-34 -16.5q-12 0 -20 2h-16q-20 0 -29.5 -9t-9.5 -34q0 -199 24 -598q4 -74 17 -217q10 -94 10 -192v-78q12 2 41 2q86 0 86 -72v-12l-51 -35q-2 0 -13.5 -1t-42.5 -1q-66 -4 -84 -4 q-178 0 -178 61z" />
<glyph unicode="&#xed;" horiz-adv-x="462" d="M49 63q0 49 64 50h22l21 -2q16 0 22 10t6 37q0 35 -4 108q-6 49 -14 176q-18 313 -19 473q0 57 3 105l2 104q0 68 -7 113q-33 -8 -47 -8q-49 0 -49 49q0 25 31 43t78 27q82 16 145 16q25 0 42 -17.5t17 -39.5q0 -23 -13 -39.5t-34 -16.5q-12 0 -20 2h-16q-20 0 -29.5 -9 t-9.5 -34q0 -199 24 -598q4 -74 17 -217q10 -94 10 -192v-78q12 2 41 2q86 0 86 -72v-12l-51 -35q-2 0 -13.5 -1t-42.5 -1q-66 -4 -84 -4q-178 0 -178 61zM160 1482q0 10 10 21l33 29q10 10 115 100l120 104q8 4 19 4q25 0 45 -24.5t20 -50.5q0 -25 -14 -33 q-74 -57 -299 -172q-4 -4 -16 -4q-13 0 -23 7t-10 19z" />
<glyph unicode="&#xee;" horiz-adv-x="462" d="M43 1440q0 12 4 18l71 181q8 16 24.5 55t24.5 53q23 37 48 49q16 4 28 4q16 0 29 -18q29 -45 51 -139l27 -99q18 -74 26 -98q2 -6 2 -18q0 -18 -14 -30.5t-33 -12.5q-20 0 -24 14l-80 276l-105 -262q-6 -14 -28 -14q-20 0 -35.5 11t-15.5 30zM49 63q0 49 64 50h22l21 -2 q16 0 22 10t6 37q0 35 -4 108q-6 49 -14 176q-18 313 -19 473q0 57 3 105l2 104q0 68 -7 113q-33 -8 -47 -8q-49 0 -49 49q0 25 31 43t78 27q82 16 145 16q25 0 42 -17.5t17 -39.5q0 -23 -13 -39.5t-34 -16.5q-12 0 -20 2h-16q-20 0 -29.5 -9t-9.5 -34q0 -199 24 -598 q4 -74 17 -217q10 -94 10 -192v-78q12 2 41 2q86 0 86 -72v-12l-51 -35q-2 0 -13.5 -1t-42.5 -1q-66 -4 -84 -4q-178 0 -178 61z" />
<glyph unicode="&#xef;" horiz-adv-x="462" d="M-29 1579q0 31 24 54.5t54 23.5q29 0 50.5 -23.5t21.5 -52.5q0 -33 -22.5 -54.5t-57.5 -21.5q-26 0 -48 22.5t-22 51.5zM49 63q0 49 64 50h22l21 -2q16 0 22 10t6 37q0 35 -4 108q-6 49 -14 176q-18 313 -19 473q0 57 3 105l2 104q0 68 -7 113q-33 -8 -47 -8 q-49 0 -49 49q0 25 31 43t78 27q82 16 145 16q25 0 42 -17.5t17 -39.5q0 -23 -13 -39.5t-34 -16.5q-12 0 -20 2h-16q-20 0 -29.5 -9t-9.5 -34q0 -199 24 -598q4 -74 17 -217q10 -94 10 -192v-78q12 2 41 2q86 0 86 -72v-12l-51 -35q-2 0 -13.5 -1t-42.5 -1q-66 -4 -84 -4 q-178 0 -178 61zM301 1569q0 31 23.5 54t54.5 23q29 0 51.5 -23.5t22.5 -51.5q0 -33 -23.5 -54.5t-58.5 -21.5q-27 0 -48.5 22.5t-21.5 51.5z" />
<glyph unicode="&#xf0;" horiz-adv-x="587" d="M104 399q0 141 23 275q12 84 34.5 142t61.5 99q45 41 96 41l25 -2q-23 178 -47 297q-92 -10 -168 -10q-8 0 -13 10.5t-5 20.5q0 47 165 67q-29 113 -55 134q-35 6 -58.5 23t-23.5 42q0 18 17.5 30.5t36.5 12.5q129 0 192 -229l111 4q8 0 12 -9.5t4 -21.5q0 -39 -104 -57 q53 -248 53 -627l-4 -178q-6 -119 -6 -180q0 -43 -2.5 -79t-10.5 -77q-10 -47 -27.5 -74.5t-50.5 -48.5q-33 -18 -81 -18q-82 0 -115 55q-37 51 -47 125q-8 53 -8 139q-4 45 -5 94zM207 326q0 -254 67 -254q32 -1 52 24q12 18 16 56v32q0 23 2 27q20 264 21 471 q0 166 -60 203q-98 -25 -98 -496v-24v-39z" />
<glyph unicode="&#xf1;" horiz-adv-x="980" d="M145 829q0 66 7 191q6 129 6 190q0 96 73 152v-12q12 4 17 4q47 0 119 -164q57 -131 103 -276.5t122 -413.5l20 -74q47 -166 72 -238q41 440 41 1041v26q-2 12 -2 27q0 61 49 61q29 0 44 -22.5t15 -56.5v-154q-4 -315 -24.5 -684t-48.5 -416q-59 -16 -74 -16 q-25 0 -37 13t-18 46l-13 39v4v6q0 68 -140 461t-220 582v-1030l8 -15q2 -4 8.5 -14t6.5 -20q0 -27 -18.5 -45.5t-45.5 -18.5q-66 0 -65 125l-3 350q-2 158 -2 352zM252 1495q0 51 40.5 84.5t108.5 33.5q23 0 88 -41q66 -41 84 -40q18 0 29.5 12t13.5 28q4 16 15.5 28.5 t29.5 12.5q33 0 50.5 -15t17.5 -38q0 -53 -39 -93t-92 -40q-52 0 -88.5 13.5t-51.5 31.5q-14 18 -34.5 30.5t-45.5 12.5q-14 -6 -20 -16t-2 -23v-4q0 -27 -31 -37q-33 0 -53 15.5t-20 44.5z" />
<glyph unicode="&#xf2;" horiz-adv-x="737" d="M12 1568q0 25 22.5 52.5t45.5 27.5q12 0 96 -43t155.5 -89t71.5 -62q0 -14 -14 -15q-23 0 -118 28t-177 58.5t-82 42.5zM100 627q0 25 2 41v37q0 10 -2 10v37l2 143q2 66 17 209q10 98 47 190q14 41 36.5 62.5t51.5 21.5q82 0 147.5 -29.5t110.5 -82.5q41 -51 69.5 -126 t41.5 -159q12 -86 12 -182v-17q0 -63 2 -114l2 -117q0 -590 -274 -590q-54 0 -99 34t-73 91q-59 125 -74 272q-18 139 -19 269zM213 717q0 -111 6 -219q8 -154 41 -299q33 -152 96 -152q37 0 68 29.5t47 81.5q39 104 47 225q10 104 10 180q0 92 -14 242q-12 158 -12 235v37 q-4 78 -52.5 135.5t-117.5 57.5q-70 0 -92 -80q-20 -63 -21 -164q0 -39 2 -65v-56l-4 -94q-4 -43 -4 -94z" />
<glyph unicode="&#xf3;" horiz-adv-x="737" d="M100 627q0 25 2 41v37q0 10 -2 10v37l2 143q2 66 17 209q10 98 47 190q14 41 36.5 62.5t51.5 21.5q82 0 147.5 -29.5t110.5 -82.5q41 -51 69.5 -126t41.5 -159q12 -86 12 -182v-17q0 -63 2 -114l2 -117q0 -590 -274 -590q-54 0 -99 34t-73 91q-59 125 -74 272 q-18 139 -19 269zM213 717q0 -111 6 -219q8 -154 41 -299q33 -152 96 -152q37 0 68 29.5t47 81.5q39 104 47 225q10 104 10 180q0 92 -14 242q-12 158 -12 235v37q-4 78 -52.5 135.5t-117.5 57.5q-70 0 -92 -80q-20 -63 -21 -164q0 -39 2 -65v-56l-4 -94q-4 -43 -4 -94z M268 1458q0 10 10 21l33 29q10 10 115 100l120 104q8 4 19 4q25 0 45 -24.5t20 -50.5q0 -25 -14 -33q-74 -57 -299 -172q-4 -4 -16 -4q-13 0 -23 7t-10 19z" />
<glyph unicode="&#xf4;" horiz-adv-x="737" d="M100 627q0 25 2 41v37q0 10 -2 10v37l2 143q2 66 17 209q10 98 47 190q14 41 36.5 62.5t51.5 21.5q82 0 147.5 -29.5t110.5 -82.5q41 -51 69.5 -126t41.5 -159q12 -86 12 -182v-17q0 -63 2 -114l2 -117q0 -590 -274 -590q-54 0 -99 34t-73 91q-59 125 -74 272 q-18 139 -19 269zM152 1415q0 12 4 18l71 181q8 16 24.5 55t24.5 53q23 37 48 49q16 4 28 4q16 0 29 -18q29 -45 51 -139l27 -99q18 -74 26 -98q2 -6 2 -18q0 -18 -14 -30.5t-33 -12.5q-20 0 -24 14l-80 276l-105 -262q-6 -14 -28 -14q-20 0 -35.5 11t-15.5 30zM213 717 q0 -111 6 -219q8 -154 41 -299q33 -152 96 -152q37 0 68 29.5t47 81.5q39 104 47 225q10 104 10 180q0 92 -14 242q-12 158 -12 235v37q-4 78 -52.5 135.5t-117.5 57.5q-70 0 -92 -80q-20 -63 -21 -164q0 -39 2 -65v-56l-4 -94q-4 -43 -4 -94z" />
<glyph unicode="&#xf5;" horiz-adv-x="737" d="M80 1506q0 51 40.5 84.5t108.5 33.5q23 0 88 -41q66 -41 84 -40q18 0 29.5 12t13.5 28q4 16 15.5 28.5t29.5 12.5q33 0 50.5 -15t17.5 -38q0 -53 -39 -93t-92 -40q-52 0 -88.5 13.5t-51.5 31.5q-14 18 -34.5 30.5t-45.5 12.5q-14 -6 -20 -16t-2 -23v-4q0 -27 -31 -37 q-33 0 -53 15.5t-20 44.5zM100 627q0 25 2 41v37q0 10 -2 10v37l2 143q2 66 17 209q10 98 47 190q14 41 36.5 62.5t51.5 21.5q82 0 147.5 -29.5t110.5 -82.5q41 -51 69.5 -126t41.5 -159q12 -86 12 -182v-17q0 -63 2 -114l2 -117q0 -590 -274 -590q-54 0 -99 34t-73 91 q-59 125 -74 272q-18 139 -19 269zM213 717q0 -111 6 -219q8 -154 41 -299q33 -152 96 -152q37 0 68 29.5t47 81.5q39 104 47 225q10 104 10 180q0 92 -14 242q-12 158 -12 235v37q-4 78 -52.5 135.5t-117.5 57.5q-70 0 -92 -80q-20 -63 -21 -164q0 -39 2 -65v-56l-4 -94 q-4 -43 -4 -94z" />
<glyph unicode="&#xf6;" horiz-adv-x="737" d="M79 1555q0 31 24 54.5t54 23.5q29 0 50.5 -23.5t21.5 -52.5q0 -33 -22.5 -54.5t-57.5 -21.5q-26 0 -48 22.5t-22 51.5zM100 627q0 25 2 41v37q0 10 -2 10v37l2 143q2 66 17 209q10 98 47 190q14 41 36.5 62.5t51.5 21.5q82 0 147.5 -29.5t110.5 -82.5q41 -51 69.5 -126 t41.5 -159q12 -86 12 -182v-17q0 -63 2 -114l2 -117q0 -590 -274 -590q-54 0 -99 34t-73 91q-59 125 -74 272q-18 139 -19 269zM213 717q0 -111 6 -219q8 -154 41 -299q33 -152 96 -152q37 0 68 29.5t47 81.5q39 104 47 225q10 104 10 180q0 92 -14 242q-12 158 -12 235v37 q-4 78 -52.5 135.5t-117.5 57.5q-70 0 -92 -80q-20 -63 -21 -164q0 -39 2 -65v-56l-4 -94q-4 -43 -4 -94zM409 1545q0 31 23.5 54t54.5 23q29 0 51.5 -23.5t22.5 -51.5q0 -33 -23.5 -54.5t-58.5 -21.5q-27 0 -48.5 22.5t-21.5 51.5z" />
<glyph unicode="&#xf7;" horiz-adv-x="899" d="M158 655q0 20 13 32.5t34 12.5h301l61 5l64 4q98 0 98 -62q0 -23 -15.5 -35t-41.5 -12l-215 -4q-147 -6 -217 -6q-82 -1 -82 65zM369 862q0 27 21.5 47.5t49.5 20.5q31 0 51.5 -22.5t20.5 -53.5q0 -27 -20.5 -46.5t-49.5 -19.5q-28 0 -50.5 23t-22.5 51zM371 438 q0 29 20.5 50.5t48.5 21.5q29 0 50.5 -25.5t21.5 -56.5q0 -27 -18.5 -43t-49.5 -16q-30 0 -51.5 20.5t-21.5 48.5z" />
<glyph unicode="&#xf8;" horiz-adv-x="747" d="M100 627q0 25 2 41v37q0 10 -2 10v37l2 143q2 66 17 209q10 98 47 190q14 41 36.5 62.5t51.5 21.5q102 0 170 -41l37 224h59l-39 -265q154 -141 154 -497v-17q0 -63 2 -114l2 -117q0 -590 -274 -590q-45 0 -80 23l-45 -258l-50 47l37 260q-37 45 -64.5 121.5t-39.5 167.5 q-23 160 -23 305zM213 717q0 -301 43 -502l154 1032q-39 23 -78 23q-70 0 -92 -80q-20 -63 -21 -164q0 -39 2 -65v-56l-4 -94q-4 -43 -4 -94zM299 88q29 -41 57 -41q37 0 68 29.5t47 81.5q39 104 47 225q10 104 10 180q0 92 -14 242q-12 158 -12 235v37q-2 61 -35 115z" />
<glyph unicode="&#xf9;" horiz-adv-x="739" d="M33 1599q0 25 22.5 52.5t45.5 27.5q12 0 96 -43t155.5 -89t71.5 -62q0 -14 -14 -15q-23 0 -118 28t-177 58.5t-82 42.5zM100 1307q18 43 43 43t44.5 -37t19.5 -80v-557q0 -82 14 -217q14 -168 15 -217q0 -152 129 -152q147 0 147 1102v115v18q-2 6 -2 16q0 25 11 36.5 t44 11.5q27 0 42.5 -15.5t19.5 -36.5q2 -12 2 -47q0 -33 -6 -104q-8 -59 -9 -103q0 -47 -4 -84l-4 -86v-16q2 -8 2 -18q0 -909 -264 -910q-49 0 -88 21.5t-63 62.5q-49 86 -64 195q-14 94 -14 225q-6 221 -6 541l-3 157q-2 12 -2 41q-4 78 -4 95z" />
<glyph unicode="&#xfa;" horiz-adv-x="739" d="M100 1307q18 43 43 43t44.5 -37t19.5 -80v-557q0 -82 14 -217q14 -168 15 -217q0 -152 129 -152q147 0 147 1102v115v18q-2 6 -2 16q0 25 11 36.5t44 11.5q27 0 42.5 -15.5t19.5 -36.5q2 -12 2 -47q0 -33 -6 -104q-8 -59 -9 -103q0 -47 -4 -84l-4 -86v-16q2 -8 2 -18 q0 -909 -264 -910q-49 0 -88 21.5t-63 62.5q-49 86 -64 195q-14 94 -14 225q-6 221 -6 541l-3 157q-2 12 -2 41q-4 78 -4 95zM289 1489q0 10 10 21l33 29q10 10 115 100l120 104q8 4 19 4q25 0 45 -24.5t20 -50.5q0 -25 -14 -33q-74 -57 -299 -172q-4 -4 -16 -4q-13 0 -23 7 t-10 19z" />
<glyph unicode="&#xfb;" horiz-adv-x="739" d="M100 1307q18 43 43 43t44.5 -37t19.5 -80v-557q0 -82 14 -217q14 -168 15 -217q0 -152 129 -152q147 0 147 1102v115v18q-2 6 -2 16q0 25 11 36.5t44 11.5q27 0 42.5 -15.5t19.5 -36.5q2 -12 2 -47q0 -33 -6 -104q-8 -59 -9 -103q0 -47 -4 -84l-4 -86v-16q2 -8 2 -18 q0 -909 -264 -910q-49 0 -88 21.5t-63 62.5q-49 86 -64 195q-14 94 -14 225q-6 221 -6 541l-3 157q-2 12 -2 41q-4 78 -4 95zM173 1446q0 12 4 18l71 181q8 16 24.5 55t24.5 53q23 37 48 49q16 4 28 4q16 0 29 -18q29 -45 51 -139l27 -99q18 -74 26 -98q2 -6 2 -18 q0 -18 -14 -30.5t-33 -12.5q-20 0 -24 14l-80 276l-105 -262q-6 -14 -28 -14q-20 0 -35.5 11t-15.5 30z" />
<glyph unicode="&#xfc;" horiz-adv-x="739" d="M100 1307q18 43 43 43t44.5 -37t19.5 -80v-557q0 -82 14 -217q14 -168 15 -217q0 -152 129 -152q147 0 147 1102v115v18q-2 6 -2 16q0 25 11 36.5t44 11.5q27 0 42.5 -15.5t19.5 -36.5q2 -12 2 -47q0 -33 -6 -104q-8 -59 -9 -103q0 -47 -4 -84l-4 -86v-16q2 -8 2 -18 q0 -909 -264 -910q-49 0 -88 21.5t-63 62.5q-49 86 -64 195q-14 94 -14 225q-6 221 -6 541l-3 157q-2 12 -2 41q-4 78 -4 95zM100 1585q0 31 24 54.5t54 23.5q29 0 50.5 -23.5t21.5 -52.5q0 -33 -22.5 -54.5t-57.5 -21.5q-26 0 -48 22.5t-22 51.5zM430 1575q0 31 23.5 54 t54.5 23q29 0 51.5 -23.5t22.5 -51.5q0 -33 -23.5 -54.5t-58.5 -21.5q-27 0 -48.5 22.5t-21.5 51.5z" />
<glyph unicode="&#xfd;" horiz-adv-x="579" d="M35 1288v10l47 35q35 -4 74 -90q33 -76 72.5 -217t39.5 -149q8 23 33 153q25 131 55 232q35 100 72 100q20 0 35.5 -12.5t15.5 -30.5q0 -104 -57 -295q-61 -207 -62 -299v-616q0 -137 -67 -138q-34 0 -57 45q23 43 22 349q0 72 -10 155l-6 60q-6 55 -6 84v53 q-20 51 -75 190.5t-87 233.5q-39 109 -39 147zM240 1448q0 10 10 21l33 29q10 10 115 100l120 104q8 4 19 4q25 0 45 -24.5t20 -50.5q0 -25 -14 -33q-74 -57 -299 -172q-4 -4 -16 -4q-13 0 -23 7t-10 19z" />
<glyph unicode="&#xfe;" horiz-adv-x="581" d="M121 1487q0 61 49 61q76 0 76 -168q0 -53 -2 -88q-4 -35 -4 -59q82 -12 144 -73.5t91 -147.5q27 -86 27 -166q0 -127 -67.5 -224.5t-188.5 -150.5q0 -78 8 -195q6 -135 6 -202q0 -84 -67 -84q-23 0 -36.5 19.5t-13.5 47.5q0 147 -10 561q-10 416 -10 560zM236 1128 l2 -278q2 -125 2 -279q79 54 117 115.5t38 140.5q0 70 -5 107t-23 72q-18 31 -41 52t-84 70h-6z" />
<glyph unicode="&#xff;" horiz-adv-x="579" d="M35 1288v10l47 35q35 -4 74 -90q33 -76 72.5 -217t39.5 -149q8 23 33 153q25 131 55 232q35 100 72 100q20 0 35.5 -12.5t15.5 -30.5q0 -104 -57 -295q-61 -207 -62 -299v-616q0 -137 -67 -138q-34 0 -57 45q23 43 22 349q0 72 -10 155l-6 60q-6 55 -6 84v53 q-20 51 -75 190.5t-87 233.5q-39 109 -39 147zM51 1544q0 31 24 54.5t54 23.5q29 0 50.5 -23.5t21.5 -52.5q0 -33 -22.5 -54.5t-57.5 -21.5q-26 0 -48 22.5t-22 51.5zM381 1534q0 31 23.5 54t54.5 23q29 0 51.5 -23.5t22.5 -51.5q0 -33 -23.5 -54.5t-58.5 -21.5 q-27 0 -48.5 22.5t-21.5 51.5z" />
<glyph unicode="&#x100;" horiz-adv-x="716" d="M35 63q23 33 51 193l68 375q45 266 82.5 454.5t80.5 315.5q47 141 91 141q43 0 65 -16q0 -82 39 -396q41 -307 41 -419q0 -109 22 -312q20 -207 21 -329q0 -70 -68 -70q-32 0 -47.5 12.5t-15.5 40.5v269q-27 18 -100.5 32.5t-139.5 18.5q-23 -43 -32 -105l-9 -41 q-2 -14 -12 -63t-22.5 -85t-24.5 -56q-78 0 -90 40zM111 1708q0 20 13 32.5t34 12.5h301l61 4q29 2 64 2q98 0 98 -59q0 -23 -15.5 -35t-41.5 -12q-70 0 -215 -7l-217 -4q-82 0 -82 66zM240 465q86 -25 182 -25q16 0 41 6q-6 90 -21 224q-47 463 -47 567v16 q-20 -20 -56 -185t-66.5 -353.5t-32.5 -249.5z" />
<glyph unicode="&#x101;" horiz-adv-x="612" d="M25 43l4 10l2 8q135 526 205 1039q0 8 2 27.5t4 56.5q6 76 13 121t24 67h69q29 0 49.5 -13t20.5 -38q0 -156 43 -463q41 -315 41 -442q0 -12 10 -64q10 -47 10 -61t21 -123q18 -98 18 -127v-2q0 -45 -33 -57q-47 0 -69.5 14t-22.5 53q0 61 -20 209l-8 43l-203 31 q-12 -47 -35 -191q-12 -100 -39 -133q-14 -18 -41 -18q-25 0 -45 15t-20 38zM70 1528q0 20 13 32.5t34 12.5h301l61 4q29 2 64 2q98 0 98 -59q0 -23 -15.5 -35t-41.5 -12q-70 0 -215 -7l-217 -4q-82 0 -82 66zM213 408q31 -20 180 -33q-6 31 -6 76q0 184 -33 471l-20 213 q-88 -481 -121 -727z" />
<glyph unicode="&#x102;" horiz-adv-x="716" d="M35 63q23 33 51 193l68 375q45 266 82.5 454.5t80.5 315.5q47 141 91 141q43 0 65 -16q0 -82 39 -396q41 -307 41 -419q0 -109 22 -312q20 -207 21 -329q0 -70 -68 -70q-32 0 -47.5 12.5t-15.5 40.5v269q-27 18 -100.5 32.5t-139.5 18.5q-23 -43 -32 -105l-9 -41 q-2 -14 -12 -63t-22.5 -85t-24.5 -56q-78 0 -90 40zM240 465q86 -25 182 -25q16 0 41 6q-6 90 -21 224q-47 463 -47 567v16q-20 -20 -56 -185t-66.5 -353.5t-32.5 -249.5zM272 1864q0 12 11.5 21t27.5 9q23 0 41.5 -26.5t28.5 -63.5t26.5 -63.5t32.5 -26.5q33 0 51.5 30.5 t18.5 63.5q0 41 12.5 59.5t44.5 18.5q23 0 39.5 -15.5t16.5 -35.5q0 -27 -4 -51q-16 -74 -59.5 -119t-112.5 -45q-48 0 -83.5 21.5t-54.5 60.5q-37 72 -37 162z" />
<glyph unicode="&#x103;" horiz-adv-x="612" d="M25 43l4 10l2 8q135 526 205 1039q0 8 2 27.5t4 56.5q6 76 13 121t24 67h69q29 0 49.5 -13t20.5 -38q0 -156 43 -463q41 -315 41 -442q0 -12 10 -64q10 -47 10 -61t21 -123q18 -98 18 -127v-2q0 -45 -33 -57q-47 0 -69.5 14t-22.5 53q0 61 -20 209l-8 43l-203 31 q-12 -47 -35 -191q-12 -100 -39 -133q-14 -18 -41 -18q-25 0 -45 15t-20 38zM180 1723q0 12 11.5 21t27.5 9q23 0 41.5 -26.5t28.5 -63.5t26.5 -63.5t32.5 -26.5q33 0 51.5 30.5t18.5 63.5q0 41 12.5 59.5t44.5 18.5q23 0 39.5 -15.5t16.5 -35.5q0 -27 -4 -51 q-16 -74 -59.5 -119t-112.5 -45q-48 0 -83.5 21.5t-54.5 60.5q-37 72 -37 162zM213 408q31 -20 180 -33q-6 31 -6 76q0 184 -33 471l-20 213q-88 -481 -121 -727z" />
<glyph unicode="&#x104;" horiz-adv-x="716" d="M35 63q23 33 51 193l68 375q45 266 82.5 454.5t80.5 315.5q47 141 91 141q43 0 65 -16q0 -82 39 -396q41 -307 41 -419q0 -109 22 -312q20 -207 21 -329q0 -70 -68 -70q-32 0 -47.5 12.5t-15.5 40.5v269q-27 18 -100.5 32.5t-139.5 18.5q-23 -43 -32 -105l-9 -41 q-2 -14 -12 -63t-22.5 -85t-24.5 -56q-78 0 -90 40zM240 465q86 -25 182 -25q16 0 41 6q-6 90 -21 224q-47 463 -47 567v16q-20 -20 -56 -185t-66.5 -353.5t-32.5 -249.5zM294 -244q0 76 51.5 142.5t133.5 113.5h84q-178 -137 -178 -241q0 -51 36 -52q31 0 76 33l23 -59 q-14 -20 -50 -40t-65 -20q-53 0 -82 38t-29 85z" />
<glyph unicode="&#x105;" horiz-adv-x="612" d="M25 43l4 10l2 8q135 526 205 1039q0 8 2 27.5t4 56.5q6 76 13 121t24 67h69q29 0 49.5 -13t20.5 -38q0 -156 43 -463q41 -315 41 -442q0 -12 10 -64q10 -47 10 -61t21 -123q18 -98 18 -127v-2q0 -45 -33 -57q-47 0 -69.5 14t-22.5 53q0 61 -20 209l-8 43l-203 31 q-12 -47 -35 -191q-12 -100 -39 -133q-14 -18 -41 -18q-25 0 -45 15t-20 38zM213 408q31 -20 180 -33q-6 31 -6 76q0 184 -33 471l-20 213q-88 -481 -121 -727zM282 -244q0 76 51.5 142.5t133.5 113.5h84q-178 -137 -178 -241q0 -51 36 -52q31 0 76 33l23 -59 q-14 -20 -50 -40t-65 -20q-53 0 -82 38t-29 85z" />
<glyph unicode="&#x106;" horiz-adv-x="690" d="M90 793v129q2 55 2 114q0 121 14 191q-6 31 -6 63q0 123 92.5 199t233.5 76q53 0 98 -29t45 -72q0 -20 -16 -32.5t-41 -12.5q-20 0 -44 6.5t-30 18.5h-26v4q-76 0 -127 -33q-37 -27 -58 -88q-8 -23 -12 -57.5t-4 -63.5q-2 -16 -2 -65l4 -72l2 -70q0 -31 -8 -71 q-10 -51 -10 -72v-49q0 -80 6 -219q2 -117 26 -234q18 -109 70 -184q49 -78 133 -78q35 0 86 37q55 37 78 37q29 0 59 -31q0 -76 -57 -117q-53 -37 -127 -47q-41 -4 -65 -4q-58 0 -106 26.5t-83 72.5q-31 43 -55.5 109.5t-36.5 137.5q-25 121 -33 318q-2 47 -2 162z M287 1613q0 10 10 21l33 29q10 10 115 100l120 104q8 4 19 4q25 0 45 -24.5t20 -50.5q0 -25 -14 -33q-74 -57 -299 -172q-4 -4 -16 -4q-13 0 -23 7t-10 19z" />
<glyph unicode="&#x107;" horiz-adv-x="571" d="M90 496v55v63v50q0 82 2 146t8 140q6 80 18.5 130t41.5 114q25 59 60.5 92t92.5 55q51 23 127 23q31 0 47.5 -14.5t16.5 -36.5q0 -20 -13.5 -36.5t-31.5 -19.5h-97q-41 0 -71.5 -51t-42.5 -133q-27 -152 -27 -246v-10l-4 -196q-4 -88 -4 -199q0 -78 6 -127 q10 -74 35 -123q25 -55 84 -80q31 -12 68 -12q23 0 45 16q27 0 44 -11t17 -34q0 -80 -113 -80q-45 0 -95 13.5t-77 29.5q-137 88 -137 482zM236 1448q0 10 10 21l33 29q10 10 115 100l120 104q8 4 19 4q25 0 45 -24.5t20 -50.5q0 -25 -14 -33q-74 -57 -299 -172 q-4 -4 -16 -4q-13 0 -23 7t-10 19z" />
<glyph unicode="&#x108;" horiz-adv-x="690" d="M90 793v129q2 55 2 114q0 121 14 191q-6 31 -6 63q0 123 92.5 199t233.5 76q53 0 98 -29t45 -72q0 -20 -16 -32.5t-41 -12.5q-20 0 -44 6.5t-30 18.5h-26v4q-76 0 -127 -33q-37 -27 -58 -88q-8 -23 -12 -57.5t-4 -63.5q-2 -16 -2 -65l4 -72l2 -70q0 -31 -8 -71 q-10 -51 -10 -72v-49q0 -80 6 -219q2 -117 26 -234q18 -109 70 -184q49 -78 133 -78q35 0 86 37q55 37 78 37q29 0 59 -31q0 -76 -57 -117q-53 -37 -127 -47q-41 -4 -65 -4q-58 0 -106 26.5t-83 72.5q-31 43 -55.5 109.5t-36.5 137.5q-25 121 -33 318q-2 47 -2 162z M228 1641q0 12 4 18l71 181q8 16 24.5 55t24.5 53q23 37 48 49q16 4 28 4q16 0 29 -18q29 -45 51 -139l27 -99q18 -74 26 -98q2 -6 2 -18q0 -18 -14 -30.5t-33 -12.5q-20 0 -24 14l-80 276l-105 -262q-6 -14 -28 -14q-20 0 -35.5 11t-15.5 30z" />
<glyph unicode="&#x109;" horiz-adv-x="571" d="M90 496v55v63v50q0 82 2 146t8 140q6 80 18.5 130t41.5 114q25 59 60.5 92t92.5 55q51 23 127 23q31 0 47.5 -14.5t16.5 -36.5q0 -20 -13.5 -36.5t-31.5 -19.5h-97q-41 0 -71.5 -51t-42.5 -133q-27 -152 -27 -246v-10l-4 -196q-4 -88 -4 -199q0 -78 6 -127 q10 -74 35 -123q25 -55 84 -80q31 -12 68 -12q23 0 45 16q27 0 44 -11t17 -34q0 -80 -113 -80q-45 0 -95 13.5t-77 29.5q-137 88 -137 482zM119 1405q0 12 4 18l71 181q8 16 24.5 55t24.5 53q23 37 48 49q16 4 28 4q16 0 29 -18q29 -45 51 -139l27 -99q18 -74 26 -98 q2 -6 2 -18q0 -18 -14 -30.5t-33 -12.5q-20 0 -24 14l-80 276l-105 -262q-6 -14 -28 -14q-20 0 -35.5 11t-15.5 30z" />
<glyph unicode="&#x10a;" horiz-adv-x="690" d="M90 793v129q2 55 2 114q0 121 14 191q-6 31 -6 63q0 123 92.5 199t233.5 76q53 0 98 -29t45 -72q0 -20 -16 -32.5t-41 -12.5q-20 0 -44 6.5t-30 18.5h-26v4q-76 0 -127 -33q-37 -27 -58 -88q-8 -23 -12 -57.5t-4 -63.5q-2 -16 -2 -65l4 -72l2 -70q0 -31 -8 -71 q-10 -51 -10 -72v-49q0 -80 6 -219q2 -117 26 -234q18 -109 70 -184q49 -78 133 -78q35 0 86 37q55 37 78 37q29 0 59 -31q0 -76 -57 -117q-53 -37 -127 -47q-41 -4 -65 -4q-58 0 -106 26.5t-83 72.5q-31 43 -55.5 109.5t-36.5 137.5q-25 121 -33 318q-2 47 -2 162z M273 1710q0 31 22.5 54.5t53.5 23.5q29 0 51 -23.5t22 -52.5q0 -33 -23.5 -54.5t-58.5 -21.5q-26 0 -46.5 22.5t-20.5 51.5z" />
<glyph unicode="&#x10b;" horiz-adv-x="571" d="M90 496v55v63v50q0 82 2 146t8 140q6 80 18.5 130t41.5 114q25 59 60.5 92t92.5 55q51 23 127 23q31 0 47.5 -14.5t16.5 -36.5q0 -20 -13.5 -36.5t-31.5 -19.5h-97q-41 0 -71.5 -51t-42.5 -133q-27 -152 -27 -246v-10l-4 -196q-4 -88 -4 -199q0 -78 6 -127 q10 -74 35 -123q25 -55 84 -80q31 -12 68 -12q23 0 45 16q27 0 44 -11t17 -34q0 -80 -113 -80q-45 0 -95 13.5t-77 29.5q-137 88 -137 482zM211 1518q0 31 23.5 54.5t54.5 23.5q29 0 50.5 -23.5t21.5 -54.5q0 -33 -22.5 -53.5t-57.5 -20.5q-27 0 -48.5 22.5t-21.5 51.5z" />
<glyph unicode="&#x10c;" horiz-adv-x="690" d="M90 793v129q2 55 2 114q0 121 14 191q-6 31 -6 63q0 123 92.5 199t233.5 76q53 0 98 -29t45 -72q0 -20 -16 -32.5t-41 -12.5q-20 0 -44 6.5t-30 18.5h-26v4q-76 0 -127 -33q-37 -27 -58 -88q-8 -23 -12 -57.5t-4 -63.5q-2 -16 -2 -65l4 -72l2 -70q0 -31 -8 -71 q-10 -51 -10 -72v-49q0 -80 6 -219q2 -117 26 -234q18 -109 70 -184q49 -78 133 -78q35 0 86 37q55 37 78 37q29 0 59 -31q0 -76 -57 -117q-53 -37 -127 -47q-41 -4 -65 -4q-58 0 -106 26.5t-83 72.5q-31 43 -55.5 109.5t-36.5 137.5q-25 121 -33 318q-2 47 -2 162z M190 1991q0 16 15.5 28.5t33.5 12.5q23 0 52 -59q20 -47 51 -152l26 -94q6 49 9 67q2 18 8 68.5t16 91.5q16 84 58 84q18 0 30.5 -12t12.5 -31q0 -6 -9 -16l-8 -15v-37l-29 -112q-29 -119 -28 -146q0 -66 -51 -65q-25 0 -70 79t-81 175t-36 133z" />
<glyph unicode="&#x10d;" horiz-adv-x="571" d="M90 496v55v63v50q0 82 2 146t8 140q6 80 18.5 130t41.5 114q25 59 60.5 92t92.5 55q51 23 127 23q31 0 47.5 -14.5t16.5 -36.5q0 -20 -13.5 -36.5t-31.5 -19.5h-97q-41 0 -71.5 -51t-42.5 -133q-27 -152 -27 -246v-10l-4 -196q-4 -88 -4 -199q0 -78 6 -127 q10 -74 35 -123q25 -55 84 -80q31 -12 68 -12q23 0 45 16q27 0 44 -11t17 -34q0 -80 -113 -80q-45 0 -95 13.5t-77 29.5q-137 88 -137 482zM131 1794q0 16 15.5 28.5t33.5 12.5q23 0 52 -59q20 -47 51 -152l26 -94q6 49 9 67q2 18 8 68.5t16 91.5q16 84 58 84q18 0 30.5 -12 t12.5 -31q0 -6 -9 -16l-8 -15v-37l-29 -112q-29 -119 -28 -146q0 -66 -51 -65q-25 0 -70 79t-81 175t-36 133z" />
<glyph unicode="&#x10e;" horiz-adv-x="776" d="M94 1481q0 72 158 71h31q111 0 192 -67q66 -57 111 -166q31 -74 53 -205q12 -115 12 -180v-66v-96q-4 -8 -4 -16q0 -16 2 -25q2 -8 2 -20q0 -66 -19.5 -157t-56.5 -185q-92 -225 -206 -320q-68 -53 -142 -53q-41 0 -70.5 18.5t-29.5 51.5q45 45 45 239q0 117 -18 340 q-20 213 -21 336l4 113q2 49 2 112q0 57 -20 146q-25 92 -25 129zM174 1991q0 16 15.5 28.5t33.5 12.5q23 0 52 -59q20 -47 51 -152l26 -94q6 49 9 67q2 18 8 68.5t16 91.5q16 84 58 84q18 0 30.5 -12t12.5 -31q0 -6 -9 -16l-8 -15v-37l-29 -112q-29 -119 -28 -146 q0 -66 -51 -65q-25 0 -70 79t-81 175t-36 133zM221 1427q0 -184 25 -557q25 -371 24 -561v-194q76 47 133.5 136t88.5 198q55 201 55 405q0 111 -21 242q-23 127 -96 229q-35 49 -88 77t-121 28v-3z" />
<glyph unicode="&#x10f;" horiz-adv-x="708" d="M90 1794q0 16 15.5 28.5t33.5 12.5q23 0 52 -59q20 -47 51 -152l26 -94q6 49 9 67q2 18 8 68.5t16 91.5q16 84 58 84q18 0 30.5 -12t12.5 -31q0 -6 -9 -16l-8 -15v-37l-29 -112q-29 -119 -28 -146q0 -66 -51 -65q-25 0 -70 79t-81 175t-36 133zM121 1286q0 27 22.5 47.5 t49.5 20.5q72 0 138 -32t118 -89q109 -125 143 -275q18 -76 18 -149q0 -27 -2 -49l-2 -55v-113q0 -131 -8 -207q-12 -102 -47 -182q-41 -86 -119 -154q-37 -31 -94 -61h-148q-53 0 -53 268l4 324q2 143 2 321q0 66 -12 203q-10 150 -10 182zM250 1044q0 -129 16 -450 q14 -285 15 -453v-49q41 0 75.5 21.5t59.5 58.5q20 33 37.5 83t25.5 97q18 92 23 189q2 25 2 71q0 618 -240 645q-14 -92 -14 -213z" />
<glyph unicode="&#x110;" horiz-adv-x="862" d="M2 797q0 25 49 43q41 16 123 26q-4 90 -4 115l4 113q2 49 2 112q0 57 -20 146q-25 92 -25 129q0 72 158 71h30q57 0 107.5 -18t85.5 -49q66 -57 111 -166q31 -74 53 -205q12 -114 12 -180v-66v-96q-4 -8 -4 -16q0 -16 2 -25q2 -8 2 -20q0 -66 -19.5 -157t-56.5 -185 q-92 -225 -206 -320q-68 -53 -142 -53q-41 0 -70.5 18.5t-29.5 51.5q45 45 45 239q0 117 -19 340q-4 33 -8 98l-26 -2q-70 -4 -86 -4q-27 0 -47.5 17.5t-20.5 42.5zM258 1427q0 -184 25 -550h10q70 4 84 4q27 0 47 -17.5t20 -42.5t-47 -43q-39 -14 -106 -24q16 -305 16 -445 v-194q76 47 133.5 136t87.5 198q56 200 56 405q0 111 -21 242q-23 123 -94 229q-35 49 -89 77t-122 28v-3z" />
<glyph unicode="&#x111;" horiz-adv-x="862" d="M84 707q0 45 90 45q51 0 51 67q0 23 -2 41l-2 41q0 49 -10 203q-12 135 -12 182q0 27 22.5 47.5t48.5 20.5q72 0 138.5 -32t117.5 -89q106 -121 144 -275q18 -76 18 -149q0 -27 -2 -49l-2 -55v-113q0 -131 -8 -207q-12 -102 -47 -182q-41 -86 -117 -154q-41 -33 -96 -61 h-148q-53 0 -53 268l4 418q-135 6 -135 33zM328 1044l4 -190l4 -98q139 -4 139 -56q0 -25 -65 -24h-27q-12 -2 -22.5 -2t-20.5 -2q18 -393 18 -531v-49q41 0 76 21.5t60 58.5q20 33 37.5 83t25.5 97q18 92 23 189q2 25 2 71q0 618 -240 645q-14 -92 -14 -213z" />
<glyph unicode="&#x112;" horiz-adv-x="569" d="M-41 1737q0 20 13 32.5t34 12.5h301l61 4q29 2 64 2q98 0 98 -59q0 -23 -15.5 -35t-41.5 -12q-70 0 -215 -7l-217 -4q-82 0 -82 66zM111 1454v6q35 57 51 74q29 0 76 8q43 8 75 8q33 0 64 -19.5t31 -45.5q0 -61 -95 -62h-28q-12 2 -29 2q-18 0 -23 -2q0 -70 9 -168l4 -57 l4 -113q0 -39 -6 -118l-4 -115l28 6q41 12 68 12q23 0 41 -17t18 -40q0 -25 -15 -44t-38 -19l-25 2h-26q-31 0 -43 -15v-633l114 7q117 0 117 -54v-8q-12 -25 -45 -40t-63 -19l-68 -2h-63q-39 0 -68 10q-35 10 -35 57v1190q0 35 -12 105q-14 63 -14 104z" />
<glyph unicode="&#x113;" horiz-adv-x="581" d="M-16 1487q0 20 13 32.5t34 12.5h301l61 4q29 2 64 2q98 0 98 -59q0 -23 -15.5 -35t-41.5 -12q-70 0 -215 -7l-217 -4q-82 0 -82 66zM135 436q0 100 6 299q8 178 9 299q0 29 -7 86q-6 59 -6 86q0 145 86 146q68 0 157 -27t89 -63q0 -20 -17.5 -38t-41.5 -28 q-86 31 -156 41q2 -31 2 -88q0 -82 -2 -148q-6 -98 -6 -147l6 -33l33 2q16 2 41 2q98 0 98 -57q0 -23 -18.5 -38t-47.5 -15q-37 0 -57 4h-51q4 -53 4 -156q0 -102 -2 -184q-6 -125 -6 -186q0 -115 4 -115l67 2q35 2 84 2q78 0 78 -49q0 -29 -25.5 -44.5t-62.5 -15.5h-174 q-26 0 -47.5 18.5t-24.5 45.5v53v41q-2 18 -2 43q0 43 -6 131z" />
<glyph unicode="&#x114;" horiz-adv-x="569" d="M111 1454v6q35 57 51 74q29 0 76 8q43 8 75 8q33 0 64 -19.5t31 -45.5q0 -61 -95 -62h-28q-12 2 -29 2q-18 0 -23 -2q0 -70 9 -168l4 -57l4 -113q0 -39 -6 -118l-4 -115l28 6q41 12 68 12q23 0 41 -17t18 -40q0 -25 -15 -44t-38 -19l-25 2h-26q-31 0 -43 -15v-633l114 7 q117 0 117 -54v-8q-12 -25 -45 -40t-63 -19l-68 -2h-63q-39 0 -68 10q-35 10 -35 57v1190q0 35 -12 105q-14 63 -14 104zM120 1893q0 12 11.5 21t27.5 9q23 0 41.5 -26.5t28.5 -63.5t26.5 -63.5t32.5 -26.5q33 0 51.5 30.5t18.5 63.5q0 41 12.5 59.5t44.5 18.5 q23 0 39.5 -15.5t16.5 -35.5q0 -27 -4 -51q-16 -74 -59.5 -119t-112.5 -45q-48 0 -83.5 21.5t-54.5 60.5q-37 72 -37 162z" />
<glyph unicode="&#x115;" horiz-adv-x="581" d="M94 1682q0 12 11.5 21t27.5 9q23 0 41.5 -26.5t28.5 -63.5t26.5 -63.5t32.5 -26.5q33 0 51.5 30.5t18.5 63.5q0 41 12.5 59.5t44.5 18.5q23 0 39.5 -15.5t16.5 -35.5q0 -27 -4 -51q-16 -74 -59.5 -119t-112.5 -45q-48 0 -83.5 21.5t-54.5 60.5q-37 72 -37 162zM135 436 q0 100 6 299q8 178 9 299q0 29 -7 86q-6 59 -6 86q0 145 86 146q68 0 157 -27t89 -63q0 -20 -17.5 -38t-41.5 -28q-86 31 -156 41q2 -31 2 -88q0 -82 -2 -148q-6 -98 -6 -147l6 -33l33 2q16 2 41 2q98 0 98 -57q0 -23 -18.5 -38t-47.5 -15q-37 0 -57 4h-51q4 -53 4 -156 q0 -102 -2 -184q-6 -125 -6 -186q0 -115 4 -115l67 2q35 2 84 2q78 0 78 -49q0 -29 -25.5 -44.5t-62.5 -15.5h-174q-26 0 -47.5 18.5t-24.5 45.5v53v41q-2 18 -2 43q0 43 -6 131z" />
<glyph unicode="&#x116;" horiz-adv-x="569" d="M111 1454v6q35 57 51 74q29 0 76 8q43 8 75 8q33 0 64 -19.5t31 -45.5q0 -61 -95 -62h-28q-12 2 -29 2q-18 0 -23 -2q0 -70 9 -168l4 -57l4 -113q0 -39 -6 -118l-4 -115l28 6q41 12 68 12q23 0 41 -17t18 -40q0 -25 -15 -44t-38 -19l-25 2h-26q-31 0 -43 -15v-633l114 7 q117 0 117 -54v-8q-12 -25 -45 -40t-63 -19l-68 -2h-63q-39 0 -68 10q-35 10 -35 57v1190q0 35 -12 105q-14 63 -14 104zM172 1739q0 31 22.5 54.5t53.5 23.5q29 0 51 -23.5t22 -52.5q0 -33 -23.5 -54.5t-58.5 -21.5q-26 0 -46.5 22.5t-20.5 51.5z" />
<glyph unicode="&#x117;" horiz-adv-x="581" d="M135 436q0 100 6 299q8 178 9 299q0 29 -7 86q-6 59 -6 86q0 145 86 146q68 0 157 -27t89 -63q0 -20 -17.5 -38t-41.5 -28q-86 31 -156 41q2 -31 2 -88q0 -82 -2 -148q-6 -98 -6 -147l6 -33l33 2q16 2 41 2q98 0 98 -57q0 -23 -18.5 -38t-47.5 -15q-37 0 -57 4h-51 q4 -53 4 -156q0 -102 -2 -184q-6 -125 -6 -186q0 -115 4 -115l67 2q35 2 84 2q78 0 78 -49q0 -29 -25.5 -44.5t-62.5 -15.5h-174q-26 0 -47.5 18.5t-24.5 45.5v53v41q-2 18 -2 43q0 43 -6 131zM194 1518q0 31 23.5 54.5t54.5 23.5q29 0 50.5 -23.5t21.5 -54.5 q0 -33 -22.5 -53.5t-57.5 -20.5q-27 0 -48.5 22.5t-21.5 51.5z" />
<glyph unicode="&#x118;" horiz-adv-x="569" d="M111 1454v6q35 57 51 74q29 0 76 8q43 8 75 8q33 0 64 -19.5t31 -45.5q0 -61 -95 -62h-28q-12 2 -29 2q-18 0 -23 -2q0 -70 9 -168l4 -57l4 -113q0 -39 -6 -118l-4 -115l28 6q41 12 68 12q23 0 41 -17t18 -40q0 -25 -15 -44t-38 -19l-25 2h-26q-31 0 -43 -15v-633l114 7 q117 0 117 -54v-8q-12 -25 -45 -40t-63 -19l-68 -2h-63q-39 0 -68 10q-35 10 -35 57v1190q0 35 -12 105q-14 63 -14 104zM243 -244q0 76 51.5 142.5t133.5 113.5h84q-178 -137 -178 -241q0 -51 36 -52q31 0 76 33l23 -59q-14 -20 -50 -40t-65 -20q-53 0 -82 38t-29 85z" />
<glyph unicode="&#x119;" horiz-adv-x="581" d="M135 436q0 100 6 299q8 178 9 299q0 29 -7 86q-6 59 -6 86q0 145 86 146q68 0 157 -27t89 -63q0 -20 -17.5 -38t-41.5 -28q-86 31 -156 41q2 -31 2 -88q0 -82 -2 -148q-6 -98 -6 -147l6 -33l33 2q16 2 41 2q98 0 98 -57q0 -23 -18.5 -38t-47.5 -15q-37 0 -57 4h-51 q4 -53 4 -156q0 -102 -2 -184q-6 -125 -6 -186q0 -115 4 -115l67 2q35 2 84 2q78 0 78 -49q0 -29 -25.5 -44.5t-62.5 -15.5h-174q-26 0 -47.5 18.5t-24.5 45.5v53v41q-2 18 -2 43q0 43 -6 131zM253 -244q0 76 51.5 142.5t133.5 113.5h84q-178 -137 -178 -241q0 -51 36 -52 q31 0 76 33l23 -59q-14 -20 -50 -40t-65 -20q-53 0 -82 38t-29 85z" />
<glyph unicode="&#x11a;" horiz-adv-x="569" d="M90 2019q0 16 15.5 28.5t33.5 12.5q23 0 52 -59q20 -47 51 -152l26 -94q6 49 9 67q2 18 8 68.5t16 91.5q16 84 58 84q18 0 30.5 -12t12.5 -31q0 -6 -9 -16l-8 -15v-37l-29 -112q-29 -119 -28 -146q0 -66 -51 -65q-25 0 -70 79t-81 175t-36 133zM111 1454v6q35 57 51 74 q29 0 76 8q43 8 75 8q33 0 64 -19.5t31 -45.5q0 -61 -95 -62h-28q-12 2 -29 2q-18 0 -23 -2q0 -70 9 -168l4 -57l4 -113q0 -39 -6 -118l-4 -115l28 6q41 12 68 12q23 0 41 -17t18 -40q0 -25 -15 -44t-38 -19l-25 2h-26q-31 0 -43 -15v-633l114 7q117 0 117 -54v-8 q-12 -25 -45 -40t-63 -19l-68 -2h-63q-39 0 -68 10q-35 10 -35 57v1190q0 35 -12 105q-14 63 -14 104z" />
<glyph unicode="&#x11b;" horiz-adv-x="581" d="M114 1794q0 16 15.5 28.5t33.5 12.5q23 0 52 -59q20 -47 51 -152l26 -94q6 49 9 67q2 18 8 68.5t16 91.5q16 84 58 84q18 0 30.5 -12t12.5 -31q0 -6 -9 -16l-8 -15v-37l-29 -112q-29 -119 -28 -146q0 -66 -51 -65q-25 0 -70 79t-81 175t-36 133zM135 436q0 100 6 299 q8 178 9 299q0 29 -7 86q-6 59 -6 86q0 145 86 146q68 0 157 -27t89 -63q0 -20 -17.5 -38t-41.5 -28q-86 31 -156 41q2 -31 2 -88q0 -82 -2 -148q-6 -98 -6 -147l6 -33l33 2q16 2 41 2q98 0 98 -57q0 -23 -18.5 -38t-47.5 -15q-37 0 -57 4h-51q4 -53 4 -156q0 -102 -2 -184 q-6 -125 -6 -186q0 -115 4 -115l67 2q35 2 84 2q78 0 78 -49q0 -29 -25.5 -44.5t-62.5 -15.5h-174q-26 0 -47.5 18.5t-24.5 45.5v53v41q-2 18 -2 43q0 43 -6 131z" />
<glyph unicode="&#x11c;" horiz-adv-x="759" d="M90 711v69v82q0 88 6 211q8 104 33 213q27 106 78 180q51 78 137 111q51 14 96 14q86 0 86 -57q0 -23 -15 -36t-40 -13q-8 0 -29 6l-28 4q-39 0 -70 -23.5t-51 -68.5q-47 -98 -64 -215q-23 -143 -24 -250q-4 -92 -4 -195v-55q-2 -29 -2 -72q0 -104 10 -204 q8 -119 45 -205q33 -96 106 -135q35 -20 86 -21q90 0 152 86q-2 72 -10 140.5t-25 93.5q-2 0 -9 -1t-22 -3l-49 -5q-70 0 -69 60q0 18 20.5 32.5t54.5 20.5q57 14 103 14q41 0 63.5 -30.5t22.5 -77.5q0 -68 20 -184q20 -115 21 -183q0 -23 -14.5 -39t-34.5 -16q-51 0 -70 43 v2l-45 -22q-61 -35 -104 -35q-113 -1 -187 67q-59 49 -108 168q-31 78 -50 219q-14 115 -14 217q-2 27 -2 93zM211 1661q0 12 4 18l71 181q8 16 24.5 55t24.5 53q23 37 48 49q16 4 28 4q16 0 29 -18q29 -45 51 -139l27 -99q18 -74 26 -98q2 -6 2 -18q0 -18 -14 -30.5 t-33 -12.5q-20 0 -24 14l-80 276l-105 -262q-6 -14 -28 -14q-20 0 -35.5 11t-15.5 30z" />
<glyph unicode="&#x11d;" horiz-adv-x="708" d="M100 492v118v82q0 119 4 195q4 92 27 194q18 92 64 162q43 70 120 96q37 14 86 15q88 0 88 -51q0 -25 -19 -40.5t-46 -15.5q-12 0 -23 2q-8 2 -20 2q-35 0 -61.5 -36.5t-45.5 -102.5q-33 -127 -45 -276q-8 -139 -8 -207q0 -70 6 -191q8 -113 35 -196q14 -49 33.5 -79 t50.5 -50q35 -23 72 -23q98 0 98 328v94q-14 6 -47 6h-18h-23q-72 0 -72 47q0 29 19.5 44.5t50.5 15.5v-2h29q184 0 184 -64q0 -18 -10 -74q-12 -49 -13 -73q0 -35 7 -109l4 -108q0 -98 -69 -154.5t-167 -56.5q-57 0 -104 21.5t-80 55.5q-27 29 -49.5 84.5t-32.5 106.5 q-10 39 -16.5 112.5t-8.5 127.5zM187 1405q0 12 4 18l71 181q8 16 24.5 55t24.5 53q23 37 48 49q16 4 28 4q16 0 29 -18q29 -45 51 -139l27 -99q18 -74 26 -98q2 -6 2 -18q0 -18 -14 -30.5t-33 -12.5q-20 0 -24 14l-80 276l-105 -262q-6 -14 -28 -14q-20 0 -35.5 11 t-15.5 30z" />
<glyph unicode="&#x11e;" horiz-adv-x="759" d="M90 711v69v82q0 88 6 211q8 104 33 213q27 106 78 180q51 78 137 111q51 14 96 14q86 0 86 -57q0 -23 -15 -36t-40 -13q-8 0 -29 6l-28 4q-39 0 -70 -23.5t-51 -68.5q-47 -98 -64 -215q-23 -143 -24 -250q-4 -92 -4 -195v-55q-2 -29 -2 -72q0 -104 10 -204 q8 -119 45 -205q33 -96 106 -135q35 -20 86 -21q90 0 152 86q-2 72 -10 140.5t-25 93.5q-2 0 -9 -1t-22 -3l-49 -5q-70 0 -69 60q0 18 20.5 32.5t54.5 20.5q57 14 103 14q41 0 63.5 -30.5t22.5 -77.5q0 -68 20 -184q20 -115 21 -183q0 -23 -14.5 -39t-34.5 -16q-51 0 -70 43 v2l-45 -22q-61 -35 -104 -35q-113 -1 -187 67q-59 49 -108 168q-31 78 -50 219q-14 115 -14 217q-2 27 -2 93zM204 1885q0 12 11.5 21t27.5 9q23 0 41.5 -26.5t28.5 -63.5t26.5 -63.5t32.5 -26.5q33 0 51.5 30.5t18.5 63.5q0 41 12.5 59.5t44.5 18.5q23 0 39.5 -15.5 t16.5 -35.5q0 -27 -4 -51q-16 -74 -59.5 -119t-112.5 -45q-48 0 -83.5 21.5t-54.5 60.5q-37 72 -37 162z" />
<glyph unicode="&#x11f;" horiz-adv-x="708" d="M100 492v118v82q0 119 4 195q4 92 27 194q18 92 64 162q43 70 120 96q37 14 86 15q88 0 88 -51q0 -25 -19 -40.5t-46 -15.5q-12 0 -23 2q-8 2 -20 2q-35 0 -61.5 -36.5t-45.5 -102.5q-33 -127 -45 -276q-8 -139 -8 -207q0 -70 6 -191q8 -113 35 -196q14 -49 33.5 -79 t50.5 -50q35 -23 72 -23q98 0 98 328v94q-14 6 -47 6h-18h-23q-72 0 -72 47q0 29 19.5 44.5t50.5 15.5v-2h29q184 0 184 -64q0 -18 -10 -74q-12 -49 -13 -73q0 -35 7 -109l4 -108q0 -98 -69 -154.5t-167 -56.5q-57 0 -104 21.5t-80 55.5q-27 29 -49.5 84.5t-32.5 106.5 q-10 39 -16.5 112.5t-8.5 127.5zM178 1682q0 12 11.5 21t27.5 9q23 0 41.5 -26.5t28.5 -63.5t26.5 -63.5t32.5 -26.5q33 0 51.5 30.5t18.5 63.5q0 41 12.5 59.5t44.5 18.5q23 0 39.5 -15.5t16.5 -35.5q0 -27 -4 -51q-16 -74 -59.5 -119t-112.5 -45q-48 0 -83.5 21.5 t-54.5 60.5q-37 72 -37 162z" />
<glyph unicode="&#x120;" horiz-adv-x="759" d="M90 711v69v82q0 88 6 211q8 104 33 213q27 106 78 180q51 78 137 111q51 14 96 14q86 0 86 -57q0 -23 -15 -36t-40 -13q-8 0 -29 6l-28 4q-39 0 -70 -23.5t-51 -68.5q-47 -98 -64 -215q-23 -143 -24 -250q-4 -92 -4 -195v-55q-2 -29 -2 -72q0 -104 10 -204 q8 -119 45 -205q33 -96 106 -135q35 -20 86 -21q90 0 152 86q-2 72 -10 140.5t-25 93.5q-2 0 -9 -1t-22 -3l-49 -5q-70 0 -69 60q0 18 20.5 32.5t54.5 20.5q57 14 103 14q41 0 63.5 -30.5t22.5 -77.5q0 -68 20 -184q20 -115 21 -183q0 -23 -14.5 -39t-34.5 -16q-51 0 -70 43 v2l-45 -22q-61 -35 -104 -35q-113 -1 -187 67q-59 49 -108 168q-31 78 -50 219q-14 115 -14 217q-2 27 -2 93zM256 1730q0 31 22.5 54.5t53.5 23.5q29 0 51 -23.5t22 -52.5q0 -33 -23.5 -54.5t-58.5 -21.5q-26 0 -46.5 22.5t-20.5 51.5z" />
<glyph unicode="&#x121;" horiz-adv-x="708" d="M100 492v118v82q0 119 4 195q4 92 27 194q18 92 64 162q43 70 120 96q37 14 86 15q88 0 88 -51q0 -25 -19 -40.5t-46 -15.5q-12 0 -23 2q-8 2 -20 2q-35 0 -61.5 -36.5t-45.5 -102.5q-33 -127 -45 -276q-8 -139 -8 -207q0 -70 6 -191q8 -113 35 -196q14 -49 33.5 -79 t50.5 -50q35 -23 72 -23q98 0 98 328v94q-14 6 -47 6h-18h-23q-72 0 -72 47q0 29 19.5 44.5t50.5 15.5v-2h29q184 0 184 -64q0 -18 -10 -74q-12 -49 -13 -73q0 -35 7 -109l4 -108q0 -98 -69 -154.5t-167 -56.5q-57 0 -104 21.5t-80 55.5q-27 29 -49.5 84.5t-32.5 106.5 q-10 39 -16.5 112.5t-8.5 127.5zM278 1518q0 31 23.5 54.5t54.5 23.5q29 0 50.5 -23.5t21.5 -54.5q0 -33 -22.5 -53.5t-57.5 -20.5q-27 0 -48.5 22.5t-21.5 51.5z" />
<glyph unicode="&#x122;" horiz-adv-x="759" d="M90 711v69v82q0 88 6 211q8 104 33 213q27 106 78 180q51 78 137 111q51 14 96 14q86 0 86 -57q0 -23 -15 -36t-40 -13q-8 0 -29 6l-28 4q-39 0 -70 -23.5t-51 -68.5q-47 -98 -64 -215q-23 -143 -24 -250q-4 -92 -4 -195v-55q-2 -29 -2 -72q0 -104 10 -204 q8 -119 45 -205q33 -96 106 -135q35 -20 86 -21q90 0 152 86q-2 72 -10 140.5t-25 93.5q-2 0 -9 -1t-22 -3l-49 -5q-70 0 -69 60q0 18 20.5 32.5t54.5 20.5q57 14 103 14q41 0 63.5 -30.5t22.5 -77.5q0 -68 20 -184q20 -115 21 -183q0 -23 -14.5 -39t-34.5 -16q-51 0 -70 43 v2l-45 -22q-61 -35 -104 -35q-113 -1 -187 67q-59 49 -108 168q-31 78 -50 219q-14 115 -14 217q-2 27 -2 93zM262 -526q0 14 66.5 144t116.5 208q2 4 10 4q14 0 30.5 -14.5t16.5 -30.5q0 -41 -37 -108.5t-87 -130t-83 -85.5q-8 -4 -12 -4h-4q-17 1 -17 17z" />
<glyph unicode="&#x123;" horiz-adv-x="708" d="M100 492v118v82q0 119 4 195q4 92 27 194q18 92 64 162q43 70 120 96q37 14 86 15q88 0 88 -51q0 -25 -19 -40.5t-46 -15.5q-12 0 -23 2q-8 2 -20 2q-35 0 -61.5 -36.5t-45.5 -102.5q-33 -127 -45 -276q-8 -139 -8 -207q0 -70 6 -191q8 -113 35 -196q14 -49 33.5 -79 t50.5 -50q35 -23 72 -23q98 0 98 328v94q-14 6 -47 6h-18h-23q-72 0 -72 47q0 29 19.5 44.5t50.5 15.5v-2h29q184 0 184 -64q0 -18 -10 -74q-12 -49 -13 -73q0 -35 7 -109l4 -108q0 -98 -69 -154.5t-167 -56.5q-57 0 -104 21.5t-80 55.5q-27 29 -49.5 84.5t-32.5 106.5 q-10 39 -16.5 112.5t-8.5 127.5zM274 1478q0 41 37 109t86 129t82 84q10 6 12 6h4q18 0 19 -16q0 -14 -68 -144.5t-117 -207.5q-2 -4 -8 -5q-14 0 -30.5 14.5t-16.5 30.5z" />
<glyph unicode="&#x124;" horiz-adv-x="675" d="M94 1509q0 37 35 37q20 0 42 -10t32 -23q-8 -66 -8 -153q0 -86 8 -209q6 -141 6 -213v-37q-2 -16 -2 -39q0 -20 4 -53q12 0 41 2t57 6q68 6 101 6q0 178 -4 330l-5 342v55q27 0 47.5 -9t30.5 -23q18 -23 23 -78v-47q0 -176 20 -674q18 -451 19 -676q0 -29 -17.5 -51.5 t-42.5 -22.5q-26 0 -39.5 19.5t-13.5 48.5q0 428 -16 723q-49 8 -70 8q-84 0 -121 -14q0 -115 19 -346q16 -246 16 -349q0 -20 -12.5 -37.5t-30.5 -17.5q-27 0 -49 94q-33 139 -53 584q-14 301 -15 647q-2 63 -2 180zM181 1641q0 12 4 18l71 181q8 16 24.5 55t24.5 53 q23 37 48 49q16 4 28 4q16 0 29 -18q29 -45 51 -139l27 -99q18 -74 26 -98q2 -6 2 -18q0 -18 -14 -30.5t-33 -12.5q-20 0 -24 14l-80 276l-105 -262q-6 -14 -28 -14q-20 0 -35.5 11t-15.5 30z" />
<glyph unicode="&#x125;" horiz-adv-x="677" d="M121 1294q0 25 16.5 43.5t40.5 18.5q66 0 66 -123l-4 -254q-4 -115 -4 -256q31 -10 110 -10h76q4 12 4 24q0 98 -12 291q-14 180 -15 293q0 23 17.5 38t42.5 15q14 0 41 -10l18 -8q0 -291 21 -776l18 -519q0 -29 -21.5 -45t-50.5 -16q-69 0 -69 338l2 117l2 94v6v20 q2 16 2 39q0 4 -6 11q-6 6 -6 10v2q-10 -4 -37 -4t-66 8q-12 2 -65 10v-235q0 -53 6 -168q6 -113 6 -168q0 -31 -16.5 -53.5t-42.5 -22.5q-39 0 -56 76q-16 78 -16 203l4 166q2 70 2 147v35v28q0 33 -2 43v11l6 118q0 78 -6 232t-6 231zM170 1454q0 12 4 18l71 181 q8 16 24.5 55t24.5 53q23 37 48 49q16 4 28 4q16 0 29 -18q29 -45 51 -139l27 -99q18 -74 26 -98q2 -6 2 -18q0 -18 -14 -30.5t-33 -12.5q-20 0 -24 14l-80 276l-105 -262q-6 -14 -28 -14q-20 0 -35.5 11t-15.5 30z" />
<glyph unicode="&#x126;" horiz-adv-x="675" d="M86 1241q0 10 12.5 13t53.5 6q-4 84 -5 280l50 27l41 -35q-10 -88 -11 -158q0 -27 4 -112q23 2 111 2l109 2q-6 170 -7 254q0 23 7 43q29 4 48 -13.5t27 -52.5q10 -43 11 -115v-120q34 -9 47.5 -27t7.5 -39h-55q2 -252 16 -672q12 -377 12 -473q10 -16 10 -31 q0 -25 -16 -46t-37 -21q-20 0 -31.5 15.5t-11.5 43.5v25q2 10 2 22q0 262 -20 686l-39 5l-37 6q-90 0 -129 -21q0 -141 16 -344q18 -246 19 -354q0 -20 -10.5 -32.5t-26.5 -12.5q-39 0 -45 31q-12 25 -14 147q-4 111 -5 170l-2 84q0 121 -4 174q-18 266 -32 594h12 q-37 0 -57.5 14.5t-20.5 34.5zM236 1192q10 -188 10 -234q0 -23 -2 -43v-38q0 -20 4 -58l106 8q68 9 109 9q0 78 -10 360z" />
<glyph unicode="&#x127;" horiz-adv-x="677" d="M47 1020q0 14 11.5 22.5t22.5 11.5t15 5l31 6q-6 154 -6 229q0 25 16.5 43.5t40.5 18.5q66 0 66 -123q0 -90 -2 -156l168 10q-10 125 -11 234q0 23 17.5 38t42.5 15q14 0 41 -10l18 -8q0 -51 4 -215v-47h10q23 0 45.5 -12.5t22.5 -16.5q0 -27 -47 -43q-8 -4 -29 -8 q2 -61 11 -346l4 -88l18 -519q0 -29 -21.5 -45t-50.5 -16q-70 0 -69 338l2 117l2 94v6v20q2 16 2 39q0 4 -6 11q-6 6 -6 10v2q-10 -4 -37 -4t-66 8q-12 2 -65 10v-235q0 -53 6 -168q6 -113 6 -168q0 -31 -16.5 -53.5t-42.5 -22.5q-39 0 -56 76q-16 78 -16 203l4 166 q2 70 2 147v35v28q0 33 -2 43v11l6 118l-4 150h-14q-27 0 -47.5 11.5t-20.5 27.5zM236 723q31 -10 110 -10h76q4 12 4 24q0 70 -10 258q-100 -8 -176 -10v-6q-4 -115 -4 -256z" />
<glyph unicode="&#x128;" horiz-adv-x="526" d="M-45 1682q0 51 40.5 84.5t108.5 33.5q23 0 88 -41q66 -41 84 -40q18 0 29.5 12t13.5 28q4 16 15.5 28.5t29.5 12.5q33 0 50.5 -15t17.5 -38q0 -53 -39 -93t-92 -40q-52 0 -88.5 13.5t-51.5 31.5q-14 18 -34.5 30.5t-45.5 12.5q-14 -6 -20 -16t-2 -23v-4q0 -27 -31 -37 q-33 0 -53 15.5t-20 44.5zM76 63q0 49 61 50h25q8 -2 18 -2q16 0 23.5 10t7.5 37q0 174 -21 475q-18 313 -18 473q0 57 2 104l2 105q0 68 -6 112q-23 -8 -47 -8q-47 0 -47 49q0 25 29.5 43.5t76.5 26.5q86 14 146 14q25 0 42 -16t17 -39t-13.5 -39t-33.5 -16q-12 0 -21 2 h-16q-20 0 -29.5 -9.5t-9.5 -33.5q0 -217 27 -598q25 -399 24 -600v-78q14 2 41 2q86 0 86 -72v-12l-51 -35q-2 0 -12 -1t-41 -1q-70 -4 -86 -4q-176 0 -176 61z" />
<glyph unicode="&#x129;" horiz-adv-x="462" d="M-28 1530q0 51 40.5 84.5t108.5 33.5q23 0 88 -41q66 -41 84 -40q18 0 29.5 12t13.5 28q4 16 15.5 28.5t29.5 12.5q33 0 50.5 -15t17.5 -38q0 -53 -39 -93t-92 -40q-52 0 -88.5 13.5t-51.5 31.5q-14 18 -34.5 30.5t-45.5 12.5q-14 -6 -20 -16t-2 -23v-4q0 -27 -31 -37 q-33 0 -53 15.5t-20 44.5zM49 63q0 49 64 50h22l21 -2q16 0 22 10t6 37q0 35 -4 108q-6 49 -14 176q-18 313 -19 473q0 57 3 105l2 104q0 68 -7 113q-33 -8 -47 -8q-49 0 -49 49q0 25 31 43t78 27q82 16 145 16q25 0 42 -17.5t17 -39.5q0 -23 -13 -39.5t-34 -16.5 q-12 0 -20 2h-16q-20 0 -29.5 -9t-9.5 -34q0 -199 24 -598q4 -74 17 -217q10 -94 10 -192v-78q12 2 41 2q86 0 86 -72v-12l-51 -35q-2 0 -13.5 -1t-42.5 -1q-66 -4 -84 -4q-178 0 -178 61z" />
<glyph unicode="&#x12a;" horiz-adv-x="526" d="M-92 1729q0 20 13 32.5t34 12.5h301l61 4q29 2 64 2q98 0 98 -59q0 -23 -15.5 -35t-41.5 -12q-70 0 -215 -7l-217 -4q-82 0 -82 66zM76 63q0 49 61 50h25q8 -2 18 -2q16 0 23.5 10t7.5 37q0 174 -21 475q-18 313 -18 473q0 57 2 104l2 105q0 68 -6 112q-23 -8 -47 -8 q-47 0 -47 49q0 25 29.5 43.5t76.5 26.5q86 14 146 14q25 0 42 -16t17 -39t-13.5 -39t-33.5 -16q-12 0 -21 2h-16q-20 0 -29.5 -9.5t-9.5 -33.5q0 -217 27 -598q25 -399 24 -600v-78q14 2 41 2q86 0 86 -72v-12l-51 -35q-2 0 -12 -1t-41 -1q-70 -4 -86 -4q-176 0 -176 61z " />
<glyph unicode="&#x12b;" horiz-adv-x="462" d="M-75 1522q0 20 13 32.5t34 12.5h301l61 4q29 2 64 2q98 0 98 -59q0 -23 -15.5 -35t-41.5 -12q-70 0 -215 -7l-217 -4q-82 0 -82 66zM49 63q0 49 64 50h22l21 -2q16 0 22 10t6 37q0 35 -4 108q-6 49 -14 176q-18 313 -19 473q0 57 3 105l2 104q0 68 -7 113q-33 -8 -47 -8 q-49 0 -49 49q0 25 31 43t78 27q82 16 145 16q25 0 42 -17.5t17 -39.5q0 -23 -13 -39.5t-34 -16.5q-12 0 -20 2h-16q-20 0 -29.5 -9t-9.5 -34q0 -199 24 -598q4 -74 17 -217q10 -94 10 -192v-78q12 2 41 2q86 0 86 -72v-12l-51 -35q-2 0 -13.5 -1t-42.5 -1q-66 -4 -84 -4 q-178 0 -178 61z" />
<glyph unicode="&#x12c;" horiz-adv-x="526" d="M69 1885q0 12 11.5 21t27.5 9q23 0 41.5 -26.5t28.5 -63.5t26.5 -63.5t32.5 -26.5q33 0 51.5 30.5t18.5 63.5q0 41 12.5 59.5t44.5 18.5q23 0 39.5 -15.5t16.5 -35.5q0 -27 -4 -51q-16 -74 -59.5 -119t-112.5 -45q-48 0 -83.5 21.5t-54.5 60.5q-37 72 -37 162zM76 63 q0 49 61 50h25q8 -2 18 -2q16 0 23.5 10t7.5 37q0 174 -21 475q-18 313 -18 473q0 57 2 104l2 105q0 68 -6 112q-23 -8 -47 -8q-47 0 -47 49q0 25 29.5 43.5t76.5 26.5q86 14 146 14q25 0 42 -16t17 -39t-13.5 -39t-33.5 -16q-12 0 -21 2h-16q-20 0 -29.5 -9.5t-9.5 -33.5 q0 -217 27 -598q25 -399 24 -600v-78q14 2 41 2q86 0 86 -72v-12l-51 -35q-2 0 -12 -1t-41 -1q-70 -4 -86 -4q-176 0 -176 61z" />
<glyph unicode="&#x12d;" horiz-adv-x="462" d="M34 1717q0 12 11.5 21t27.5 9q23 0 41.5 -26.5t28.5 -63.5t26.5 -63.5t32.5 -26.5q33 0 51.5 30.5t18.5 63.5q0 41 12.5 59.5t44.5 18.5q23 0 39.5 -15.5t16.5 -35.5q0 -27 -4 -51q-16 -74 -59.5 -119t-112.5 -45q-48 0 -83.5 21.5t-54.5 60.5q-37 72 -37 162zM49 63 q0 49 64 50h22l21 -2q16 0 22 10t6 37q0 35 -4 108q-6 49 -14 176q-18 313 -19 473q0 57 3 105l2 104q0 68 -7 113q-33 -8 -47 -8q-49 0 -49 49q0 25 31 43t78 27q82 16 145 16q25 0 42 -17.5t17 -39.5q0 -23 -13 -39.5t-34 -16.5q-12 0 -20 2h-16q-20 0 -29.5 -9t-9.5 -34 q0 -199 24 -598q4 -74 17 -217q10 -94 10 -192v-78q12 2 41 2q86 0 86 -72v-12l-51 -35q-2 0 -13.5 -1t-42.5 -1q-66 -4 -84 -4q-178 0 -178 61z" />
<glyph unicode="&#x12e;" horiz-adv-x="526" d="M76 63q0 49 61 50h25q8 -2 18 -2q16 0 23.5 10t7.5 37q0 174 -21 475q-18 313 -18 473q0 57 2 104l2 105q0 68 -6 112q-23 -8 -47 -8q-47 0 -47 49q0 25 29.5 43.5t76.5 26.5q86 14 146 14q25 0 42 -16t17 -39t-13.5 -39t-33.5 -16q-12 0 -21 2h-16q-20 0 -29.5 -9.5 t-9.5 -33.5q0 -217 27 -598q25 -399 24 -600v-78q14 2 41 2q86 0 86 -72v-12l-51 -35q-2 0 -12 -1t-41 -1q-70 -4 -86 -4q-176 0 -176 61zM124 -244q0 76 51.5 142.5t133.5 113.5h84q-178 -137 -178 -241q0 -51 36 -52q31 0 76 33l23 -59q-14 -20 -50 -40t-65 -20 q-53 0 -82 38t-29 85z" />
<glyph unicode="&#x12f;" horiz-adv-x="462" d="M49 63q0 49 64 50h22l21 -2q16 0 22 10t6 37q0 35 -4 108q-6 49 -14 176q-18 313 -19 473q0 57 3 105l2 104q0 68 -7 113q-33 -8 -47 -8q-49 0 -49 49q0 25 31 43t78 27q82 16 145 16q25 0 42 -17.5t17 -39.5q0 -23 -13 -39.5t-34 -16.5q-12 0 -20 2h-16q-20 0 -29.5 -9 t-9.5 -34q0 -199 24 -598q4 -74 17 -217q10 -94 10 -192v-78q12 2 41 2q86 0 86 -72v-12l-51 -35q-2 0 -13.5 -1t-42.5 -1q-66 -4 -84 -4q-178 0 -178 61zM282 -211q0 76 51.5 142.5t133.5 113.5h84q-178 -137 -178 -241q0 -51 36 -52q31 0 76 33l23 -59q-14 -20 -50 -40 t-65 -20q-53 0 -82 38t-29 85z" />
<glyph unicode="&#x130;" horiz-adv-x="526" d="M76 63q0 49 61 50h25q8 -2 18 -2q16 0 23.5 10t7.5 37q0 174 -21 475q-18 313 -18 473q0 57 2 104l2 105q0 68 -6 112q-23 -8 -47 -8q-47 0 -47 49q0 25 29.5 43.5t76.5 26.5q86 14 146 14q25 0 42 -16t17 -39t-13.5 -39t-33.5 -16q-12 0 -21 2h-16q-20 0 -29.5 -9.5 t-9.5 -33.5q0 -217 27 -598q25 -399 24 -600v-78q14 2 41 2q86 0 86 -72v-12l-51 -35q-2 0 -12 -1t-41 -1q-70 -4 -86 -4q-176 0 -176 61zM121 1730q0 31 22.5 54.5t53.5 23.5q29 0 51 -23.5t22 -52.5q0 -33 -23.5 -54.5t-58.5 -21.5q-26 0 -46.5 22.5t-20.5 51.5z" />
<glyph unicode="&#x131;" horiz-adv-x="462" d="M49 63q0 49 64 50h22l21 -2q16 0 22 10t6 37q0 35 -4 108q-6 49 -14 176q-18 313 -19 473q0 57 3 105l2 104q0 68 -7 113q-33 -8 -47 -8q-49 0 -49 49q0 25 31 43t78 27q82 16 145 16q25 0 42 -17.5t17 -39.5q0 -23 -13 -39.5t-34 -16.5q-12 0 -20 2h-16q-20 0 -29.5 -9 t-9.5 -34q0 -199 24 -598q4 -74 17 -217q10 -94 10 -192v-78q12 2 41 2q86 0 86 -72v-12l-51 -35q-2 0 -13.5 -1t-42.5 -1q-66 -4 -84 -4q-178 0 -178 61z" />
<glyph unicode="&#x132;" horiz-adv-x="1075" d="M76 63q0 49 61 50h25q8 -2 18 -2q16 0 23.5 10t7.5 37q0 174 -21 475q-18 313 -18 473q0 57 2 104l2 105q0 68 -6 112q-23 -8 -47 -8q-47 0 -47 49q0 25 29.5 43.5t76.5 26.5q86 14 146 14q25 0 42 -16t17 -39t-13.5 -39t-33.5 -16q-12 0 -21 2h-16q-20 0 -29.5 -9.5 t-9.5 -33.5q0 -217 27 -598q25 -399 24 -600v-78q14 2 41 2q86 0 86 -72v-12l-51 -35q-2 0 -12 -1t-41 -1q-70 -4 -86 -4q-176 0 -176 61zM567 1481q0 72 244 71h26q29 0 45.5 -3t30.5 -15q16 -12 16 -37q0 -53 -86 -53h-1t-1 2h-4h-26v-16q0 -53 12 -158q10 -119 10 -160 q0 -145 21 -397q16 -238 16 -400v-82v-81q0 -123 -52 -218.5t-147 -128.5q-32 0 -52.5 16.5t-20.5 47.5q0 23 24.5 47.5t55.5 36.5q31 39 56 121t25 168l3 100q2 43 2 98l-2 84l-11 207q-14 406 -45 715q-6 -4 -26 -6q-33 -10 -62 -10q-20 0 -35.5 15t-15.5 36z" />
<glyph unicode="&#x133;" horiz-adv-x="983" d="M49 63q0 49 64 50h22l21 -2q16 0 22 10t6 37q0 35 -4 108q-6 49 -14 176q-18 313 -19 473q0 57 3 105l2 104q0 68 -7 113q-33 -8 -47 -8q-49 0 -49 49q0 25 31 43t78 27q82 16 145 16q25 0 42 -17.5t17 -39.5q0 -23 -13 -39.5t-34 -16.5q-12 0 -20 2h-16q-20 0 -29.5 -9 t-9.5 -34q0 -199 24 -598q4 -74 17 -217q10 -94 10 -192v-78q12 2 41 2q86 0 86 -72v-12l-51 -35q-2 0 -13.5 -1t-42.5 -1q-66 -4 -84 -4q-178 0 -178 61zM459 -152q2 8 2 19q0 8 29 20q98 31 133 68q57 63 57 231q0 135 -10 525q-12 342 -12 522v8q-6 0 -19.5 2t-30.5 2 q-37 4 -59 10q-31 8 -43 21q-4 8 -4 16q0 18 21.5 32.5t43.5 14.5q102 0 233.5 -14t131.5 -33q0 -20 -15.5 -33.5t-39.5 -13.5h-105q0 -109 10 -432q10 -240 11 -430v-219q0 -72 -11 -121q-14 -76 -57 -131q-45 -63 -135 -90q-45 -14 -109 -15q-22 0 -22 25v16z" />
<glyph unicode="&#x134;" horiz-adv-x="548" d="M41 1481q0 72 244 71h26q29 0 45.5 -3t30.5 -15q16 -12 16 -37q0 -53 -86 -53h-1t-1 2h-4h-26v-16q0 -53 12 -158q10 -119 10 -160q0 -145 21 -397q16 -238 16 -400v-82v-81q0 -123 -52 -218.5t-147 -128.5q-32 0 -52.5 16.5t-20.5 47.5q0 23 24.5 47.5t55.5 36.5 q31 39 56 121t25 168l3 100q2 43 2 98l-2 84l-11 207q-14 406 -45 715q-6 -4 -26 -6q-33 -10 -62 -10q-20 0 -35.5 15t-15.5 36zM95 1641q0 12 4 18l71 181q8 16 24.5 55t24.5 53q23 37 48 49q16 4 28 4q16 0 29 -18q29 -45 51 -139l27 -99q18 -74 26 -98q2 -6 2 -18 q0 -18 -14 -30.5t-33 -12.5q-20 0 -24 14l-80 276l-105 -262q-6 -14 -28 -14q-20 0 -35.5 11t-15.5 30z" />
<glyph unicode="&#x135;" horiz-adv-x="520" d="M-4 -152q2 8 2 19q0 8 29 20q98 31 133 68q57 63 57 231q0 135 -10 525q-12 342 -12 522v8q-6 0 -19.5 2t-30.5 2q-37 4 -59 10q-31 8 -43 21q-4 8 -4 16q0 18 21.5 32.5t43.5 14.5q102 0 233.5 -14t131.5 -33q0 -20 -15.5 -33.5t-39.5 -13.5h-105q0 -109 10 -432 q10 -240 11 -430v-219q0 -72 -11 -121q-14 -76 -57 -131q-45 -63 -135 -90q-45 -14 -109 -15q-22 0 -22 25v16zM80 1405q0 12 4 18l71 181q8 16 24.5 55t24.5 53q23 37 48 49q16 4 28 4q16 0 29 -18q29 -45 51 -139l27 -99q18 -74 26 -98q2 -6 2 -18q0 -18 -14 -30.5 t-33 -12.5q-20 0 -24 14l-80 276l-105 -262q-6 -14 -28 -14q-20 0 -35.5 11t-15.5 30z" />
<glyph unicode="&#x136;" horiz-adv-x="729" d="M121 109q0 90 12 276q14 172 14 274l3 177v213q0 113 -15 235q-14 127 -14 193q0 27 16.5 45t40.5 18q76 0 76 -166l-8 -420l39 101q68 172 139 340q41 92 74 145q35 55 55 55q23 0 40 -15t17 -38q0 -20 -110 -254q-109 -223 -127 -297v-37q31 -78 164 -498.5t133 -445.5 t-19.5 -41t-46.5 -16q-12 0 -24 4q-10 2 -23 2q-55 313 -110.5 524t-139.5 398l-43 -80q-18 -35 -20 -62q-6 -61 -6 -90q0 -61 6 -188q6 -125 6 -191v-168q0 -109 -70 -108q-59 0 -59 115zM245 -526q0 14 66.5 144t116.5 208q2 4 10 4q14 0 30.5 -14.5t16.5 -30.5 q0 -41 -37 -108.5t-87 -130t-83 -85.5q-8 -4 -12 -4h-4q-17 1 -17 17z" />
<glyph unicode="&#x137;" horiz-adv-x="716" d="M129 35v620q0 90 21 332q20 211 20 332q16 39 59 39q27 0 45.5 -18.5t18.5 -45.5v-6q-27 -45 -27 -373v-73l76 149q70 145 131 250q57 102 84 102q33 0 56.5 -14t23.5 -41l-49 -82q-154 -248 -172 -286q0 -35 -2 -62l-2 -61q0 -88 70.5 -329t117.5 -318l27 -37 q39 -53 39 -95q0 -23 -17.5 -38t-40.5 -15q-47 1 -100 103q-80 154 -158 505q-23 96 -37 179q-74 -147 -73 -357v-379q0 -47 -41 -47q-31 0 -50.5 17.5t-19.5 48.5zM239 -526q0 14 66.5 144t116.5 208q2 4 10 4q14 0 30.5 -14.5t16.5 -30.5q0 -41 -37 -108.5t-87 -130 t-83 -85.5q-8 -4 -12 -4h-4q-17 1 -17 17z" />
<glyph unicode="&#x138;" horiz-adv-x="843" d="M172 35v620q0 125 21 332q18 221 18 332q20 39 61 39q27 0 45.5 -18.5t18.5 -45.5v-6q-29 -47 -29 -373v-73q0 2 17.5 34.5t58.5 114.5q51 106 131 250q59 102 84 102q33 0 56.5 -14t23.5 -41l-49 -82q-154 -250 -170 -286l-2 -62q-2 -27 -2 -61q0 -86 69.5 -327 t116.5 -320l29 -37q39 -53 39 -95q0 -23 -17.5 -38t-42.5 -15q-45 1 -98 103q-80 154 -158 505q-23 96 -37 179q-74 -147 -73 -357v-379q0 -47 -43 -47q-31 0 -49.5 17.5t-18.5 48.5z" />
<glyph unicode="&#x139;" horiz-adv-x="512" d="M109 1613q0 10 10 21l33 29q10 10 115 100l120 104q8 4 19 4q25 0 45 -24.5t20 -50.5q0 -25 -14 -33q-74 -57 -299 -172q-4 -4 -16 -4q-13 0 -23 7t-10 19zM121 1530q0 18 14.5 29.5t34.5 11.5q25 0 43 -17.5t18 -42.5q0 -123 13 -368q10 -272 10 -369l2 -24v-25v-14v-11 q6 -178 6 -532v-53h158q43 -31 43 -62q0 -23 -15.5 -40t-35.5 -17q-6 0 -23 4l-8 2q-12 -2 -39 -2h-35q-14 2 -33 2q-20 -25 -57 -25q-27 0 -48.5 19.5t-21.5 46.5q0 18 9 45q6 29 6 43q0 182 -21 700q-20 442 -20 699z" />
<glyph unicode="&#x13a;" horiz-adv-x="548" d="M129 39q0 172 14 459q12 305 13 456v15q-12 129 -13 192q0 195 72 195q20 0 35.5 -15.5t15.5 -35.5q0 -25 -6 -78q-6 -51 -6 -78q0 -137 2 -248q2 -109 2 -246q-10 -31 -10 -86v-24l-4 -162q-4 -72 -4 -164q0 -141 67 -141q4 0 13.5 1t25.5 1q18 2 47 2q111 0 111 -62 q0 -20 -18.5 -34.5t-45.5 -18.5q-73 25 -182 25q-33 -20 -70 -21q-25 0 -42 21.5t-17 46.5zM174 1427q0 10 10 21l33 29q10 10 115 100l120 104q8 4 19 4q25 0 45 -24.5t20 -50.5q0 -25 -14 -33q-74 -57 -299 -172q-4 -4 -16 -4q-13 0 -23 7t-10 19z" />
<glyph unicode="&#x13b;" horiz-adv-x="512" d="M121 1530q0 18 14.5 29.5t34.5 11.5q25 0 43 -17.5t18 -42.5q0 -123 13 -368q10 -272 10 -369l2 -24v-25v-14v-11q6 -178 6 -532v-53h158q43 -31 43 -62q0 -23 -15.5 -40t-35.5 -17q-6 0 -23 4l-8 2q-12 -2 -39 -2h-35q-14 2 -33 2q-20 -25 -57 -25q-27 0 -48.5 19.5 t-21.5 46.5q0 18 9 45q6 29 6 43q0 182 -21 700q-20 442 -20 699zM137 -526q0 14 66.5 144t116.5 208q2 4 10 4q14 0 30.5 -14.5t16.5 -30.5q0 -41 -37 -108.5t-87 -130t-83 -85.5q-8 -4 -12 -4h-4q-17 1 -17 17z" />
<glyph unicode="&#x13c;" horiz-adv-x="548" d="M129 39q0 172 14 459q12 305 13 456v15q-12 129 -13 192q0 195 72 195q20 0 35.5 -15.5t15.5 -35.5q0 -25 -6 -78q-6 -51 -6 -78q0 -137 2 -248q2 -109 2 -246q-10 -31 -10 -86v-24l-4 -162q-4 -72 -4 -164q0 -141 67 -141q4 0 13.5 1t25.5 1q18 2 47 2q111 0 111 -62 q0 -20 -18.5 -34.5t-45.5 -18.5q-73 25 -182 25q-33 -20 -70 -21q-25 0 -42 21.5t-17 46.5zM155 -526q0 14 66.5 144t116.5 208q2 4 10 4q14 0 30.5 -14.5t16.5 -30.5q0 -41 -37 -108.5t-87 -130t-83 -85.5q-8 -4 -12 -4h-4q-17 1 -17 17z" />
<glyph unicode="&#x13d;" horiz-adv-x="512" d="M12 1991q0 16 15.5 28.5t33.5 12.5q23 0 52 -59q20 -47 51 -152l26 -94q6 49 9 67q2 18 8 68.5t16 91.5q16 84 58 84q18 0 30.5 -12t12.5 -31q0 -6 -9 -16l-8 -15v-37l-29 -112q-29 -119 -28 -146q0 -66 -51 -65q-25 0 -70 79t-81 175t-36 133zM121 1530q0 18 14.5 29.5 t34.5 11.5q25 0 43 -17.5t18 -42.5q0 -123 13 -368q10 -272 10 -369l2 -24v-25v-14v-11q6 -178 6 -532v-53h158q43 -31 43 -62q0 -23 -15.5 -40t-35.5 -17q-6 0 -23 4l-8 2q-12 -2 -39 -2h-35q-14 2 -33 2q-20 -25 -57 -25q-27 0 -48.5 19.5t-21.5 46.5q0 18 9 45q6 29 6 43 q0 182 -21 700q-20 442 -20 699z" />
<glyph unicode="&#x13e;" horiz-adv-x="548" d="M78 1794q0 16 15.5 28.5t33.5 12.5q23 0 52 -59q20 -47 51 -152l26 -94q6 49 9 67q2 18 8 68.5t16 91.5q16 84 58 84q18 0 30.5 -12t12.5 -31q0 -6 -9 -16l-8 -15v-37l-29 -112q-29 -119 -28 -146q0 -66 -51 -65q-25 0 -70 79t-81 175t-36 133zM129 39q0 172 14 459 q12 305 13 456v15q-12 129 -13 192q0 195 72 195q20 0 35.5 -15.5t15.5 -35.5q0 -25 -6 -78q-6 -51 -6 -78q0 -137 2 -248q2 -109 2 -246q-10 -31 -10 -86v-24l-4 -162q-4 -72 -4 -164q0 -141 67 -141q4 0 13.5 1t25.5 1q18 2 47 2q111 0 111 -62q0 -20 -18.5 -34.5 t-45.5 -18.5q-73 25 -182 25q-33 -20 -70 -21q-25 0 -42 21.5t-17 46.5z" />
<glyph unicode="&#x13f;" horiz-adv-x="673" d="M121 1530q0 18 14.5 29.5t34.5 11.5q25 0 43 -17.5t18 -42.5q0 -123 13 -368q10 -272 10 -369l2 -24v-25v-14v-11q6 -178 6 -532v-53h158q43 -31 43 -62q0 -23 -15.5 -40t-35.5 -17q-6 0 -23 4l-8 2q-12 -2 -39 -2h-35q-14 2 -33 2q-20 -25 -57 -25q-27 0 -48.5 19.5 t-21.5 46.5q0 18 9 45q6 29 6 43q0 182 -21 700q-20 442 -20 699zM514 707q0 31 22.5 54t53.5 23q29 0 51 -23.5t22 -51.5q0 -33 -23.5 -54.5t-57.5 -21.5q-27 0 -47.5 22.5t-20.5 51.5z" />
<glyph unicode="&#x140;" horiz-adv-x="692" d="M129 39q0 172 14 459q12 305 13 456v15q-12 129 -13 192q0 195 72 195q20 0 35.5 -15.5t15.5 -35.5q0 -25 -6 -78q-6 -51 -6 -78q0 -137 2 -248q2 -109 2 -246q-10 -31 -10 -86v-24l-4 -162q-4 -72 -4 -164q0 -141 67 -141q4 0 13.5 1t25.5 1q18 2 47 2q111 0 111 -62 q0 -20 -18.5 -34.5t-45.5 -18.5q-73 25 -182 25q-33 -20 -70 -21q-25 0 -42 21.5t-17 46.5zM512 707q0 31 22.5 54t53.5 23q29 0 51 -23.5t22 -51.5q0 -33 -23.5 -54.5t-57.5 -21.5q-27 0 -47.5 22.5t-20.5 51.5z" />
<glyph unicode="&#x141;" horiz-adv-x="571" d="M45 803q0 45 115 69q-18 440 -19 658q0 18 14.5 29.5t34.5 11.5q25 0 44.5 -17.5t19.5 -42.5q0 -139 8 -327q10 -236 10 -281q102 45 177 45q16 0 27 -14t11 -37q0 -70 -213 -100v-2q0 -18 2 -31v-35v-18v-11q8 -238 9 -532v-53h155q43 -31 43 -62q0 -23 -15 -40t-36 -17 q-4 0 -20 4q-4 0 -6.5 1t-4.5 1q-12 -2 -39 -2h-32l-33 2l-33 2h-37q-23 0 -40 12.5t-17 26.5q0 25 6 45q6 29 6 43q0 213 -18 637q-35 -14 -51 -14q-27 0 -47.5 14t-20.5 35z" />
<glyph unicode="&#x142;" horiz-adv-x="585" d="M45 657q0 51 139 78l4 219v15q-12 129 -12 192q0 195 72 195q20 0 35.5 -15.5t15.5 -35.5q0 -25 -6 -78q-8 -47 -8 -78l4 -197l2 -178q86 33 160 33q14 0 25 -10.5t11 -26.5t-18 -33q-16 -8 -53 -20q-43 -12 -78 -21l-47 -10q-12 -39 -12 -117v-24q0 -90 -5 -162l-4 -164 q0 -35 6 -121q0 -20 3 -20q4 0 18 1t45 1q35 2 84 2q109 0 109 -62q0 -20 -17.5 -34.5t-44.5 -18.5q-73 25 -182 25q-33 -20 -72 -21q-23 0 -40 21.5t-17 46.5q0 129 18 610q-68 -31 -108 -31q-10 0 -18.5 11.5t-8.5 27.5z" />
<glyph unicode="&#x143;" horiz-adv-x="843" d="M111 811v262q0 63 6 189q8 109 8 188v12q0 102 45 103q27 0 68 -90q68 -147 172 -529q59 -221 139 -569q-2 8 33 -141l2 -11q0 199 4 357l4 356v606q8 51 65 51q55 0 56 -79v-13q-12 -25 -13 -59q0 -125 -6 -377q-6 -254 -6 -381v-625q0 -33 -17.5 -62.5t-41.5 -29.5 q-41 0 -168 422q-143 494 -248 907v-671q0 -86 16 -293q14 -225 15 -291q0 -18 -22.5 -31.5t-51.5 -13.5q-43 0 -43 33l4 59q4 66 4 86q0 109 -12 344q-12 240 -12 291zM363 1613q0 10 10 21l33 29q10 10 115 100l120 104q8 4 19 4q25 0 45 -24.5t20 -50.5q0 -25 -14 -33 q-74 -57 -299 -172q-4 -4 -16 -4q-13 0 -23 7t-10 19z" />
<glyph unicode="&#x144;" horiz-adv-x="980" d="M145 829q0 66 7 191q6 129 6 190q0 96 73 152v-12q12 4 17 4q47 0 119 -164q57 -131 103 -276.5t122 -413.5l20 -74q47 -166 72 -238q41 440 41 1041v26q-2 12 -2 27q0 61 49 61q29 0 44 -22.5t15 -56.5v-154q-4 -315 -24.5 -684t-48.5 -416q-59 -16 -74 -16 q-25 0 -37 13t-18 46l-13 39v4v6q0 68 -140 461t-220 582v-1030l8 -15q2 -4 8.5 -14t6.5 -20q0 -27 -18.5 -45.5t-45.5 -18.5q-66 0 -65 125l-3 350q-2 158 -2 352zM440 1448q0 10 10 21l33 29q10 10 115 100l120 104q8 4 19 4q25 0 45 -24.5t20 -50.5q0 -25 -14 -33 q-74 -57 -299 -172q-4 -4 -16 -4q-13 0 -23 7t-10 19z" />
<glyph unicode="&#x145;" horiz-adv-x="843" d="M111 811v262q0 63 6 189q8 109 8 188v12q0 102 45 103q27 0 68 -90q68 -147 172 -529q59 -221 139 -569q-2 8 33 -141l2 -11q0 199 4 357l4 356v606q8 51 65 51q55 0 56 -79v-13q-12 -25 -13 -59q0 -125 -6 -377q-6 -254 -6 -381v-625q0 -33 -17.5 -62.5t-41.5 -29.5 q-41 0 -168 422q-143 494 -248 907v-671q0 -86 16 -293q14 -225 15 -291q0 -18 -22.5 -31.5t-51.5 -13.5q-43 0 -43 33l4 59q4 66 4 86q0 109 -12 344q-12 240 -12 291zM303 -526q0 14 66.5 144t116.5 208q2 4 10 4q14 0 30.5 -14.5t16.5 -30.5q0 -41 -37 -108.5t-87 -130 t-83 -85.5q-8 -4 -12 -4h-4q-17 1 -17 17z" />
<glyph unicode="&#x146;" horiz-adv-x="980" d="M145 829q0 66 7 191q6 129 6 190q0 96 73 152v-12q12 4 17 4q47 0 119 -164q57 -131 103 -276.5t122 -413.5l20 -74q47 -166 72 -238q41 440 41 1041v26q-2 12 -2 27q0 61 49 61q29 0 44 -22.5t15 -56.5v-154q-4 -315 -24.5 -684t-48.5 -416q-59 -16 -74 -16 q-25 0 -37 13t-18 46l-13 39v4v6q0 68 -140 461t-220 582v-1030l8 -15q2 -4 8.5 -14t6.5 -20q0 -27 -18.5 -45.5t-45.5 -18.5q-66 0 -65 125l-3 350q-2 158 -2 352zM372 -526q0 14 66.5 144t116.5 208q2 4 10 4q14 0 30.5 -14.5t16.5 -30.5q0 -41 -37 -108.5t-87 -130 t-83 -85.5q-8 -4 -12 -4h-4q-17 1 -17 17z" />
<glyph unicode="&#x147;" horiz-adv-x="843" d="M111 811v262q0 63 6 189q8 109 8 188v12q0 102 45 103q27 0 68 -90q68 -147 172 -529q59 -221 139 -569q-2 8 33 -141l2 -11q0 199 4 357l4 356v606q8 51 65 51q55 0 56 -79v-13q-12 -25 -13 -59q0 -125 -6 -377q-6 -254 -6 -381v-625q0 -33 -17.5 -62.5t-41.5 -29.5 q-41 0 -168 422q-143 494 -248 907v-671q0 -86 16 -293q14 -225 15 -291q0 -18 -22.5 -31.5t-51.5 -13.5q-43 0 -43 33l4 59q4 66 4 86q0 109 -12 344q-12 240 -12 291zM266 1991q0 16 15.5 28.5t33.5 12.5q23 0 52 -59q20 -47 51 -152l26 -94q6 49 9 67q2 18 8 68.5 t16 91.5q16 84 58 84q18 0 30.5 -12t12.5 -31q0 -6 -9 -16l-8 -15v-37l-29 -112q-29 -119 -28 -146q0 -66 -51 -65q-25 0 -70 79t-81 175t-36 133z" />
<glyph unicode="&#x148;" horiz-adv-x="980" d="M145 829q0 66 7 191q6 129 6 190q0 96 73 152v-12q12 4 17 4q47 0 119 -164q57 -131 103 -276.5t122 -413.5l20 -74q47 -166 72 -238q41 440 41 1041v26q-2 12 -2 27q0 61 49 61q29 0 44 -22.5t15 -56.5v-154q-4 -315 -24.5 -684t-48.5 -416q-59 -16 -74 -16 q-25 0 -37 13t-18 46l-13 39v4v6q0 68 -140 461t-220 582v-1030l8 -15q2 -4 8.5 -14t6.5 -20q0 -27 -18.5 -45.5t-45.5 -18.5q-66 0 -65 125l-3 350q-2 158 -2 352zM336 1794q0 16 15.5 28.5t33.5 12.5q23 0 52 -59q20 -47 51 -152l26 -94q6 49 9 67q2 18 8 68.5t16 91.5 q16 84 58 84q18 0 30.5 -12t12.5 -31q0 -6 -9 -16l-8 -15v-37l-29 -112q-29 -119 -28 -146q0 -66 -51 -65q-25 0 -70 79t-81 175t-36 133z" />
<glyph unicode="&#x149;" horiz-adv-x="980" d="M156 1513q0 25 24 46q25 27 41.5 81t26.5 111q6 51 26.5 87t53.5 36q70 0 69 -109q0 -49 -30.5 -113.5t-79.5 -115.5q-53 -49 -101 -49q-12 0 -21 7t-9 19zM172 829q0 66 6 191q6 129 6 190q0 96 74 152v-12q12 4 16 4q47 0 119 -164q55 -127 99.5 -266.5t117.5 -388.5 l31 -109q43 -158 70 -238q41 440 41 1041v26q-2 12 -2 27q0 61 51 61q29 0 43 -22.5t14 -56.5v-154q-4 -315 -24.5 -684t-49.5 -416q-59 -16 -71 -16q-27 0 -39 13t-19 46l-12 39v4v6q0 68 -139 462t-219 581v-1030q0 -2 8 -15q2 -6 7 -16t5 -18q0 -27 -18.5 -45.5 t-42.5 -18.5q-68 0 -68 125l-2 350q-2 158 -2 352z" />
<glyph unicode="&#x14a;" horiz-adv-x="952" d="M172 811v262q0 63 6 189q8 109 8 188v12q0 102 45 103q27 0 68 -90q68 -147 172 -529q59 -221 139 -569l33 -141l2 -11q0 199 4 357l4 356v606q12 51 68 51q53 0 53 -79v-13l-8 -16q-16 -29 -16 -43v-1401v-76q0 -61 -5 -88q-4 -31 -8 -53.5t-14 -40.5q-10 -23 -18.5 -34 t-28.5 -30q-18 -18 -35 -28l-102 -80q-33 0 -53.5 15.5t-20.5 45.5q0 27 17.5 48.5t45.5 33.5q39 20 61.5 34.5t39.5 37.5q18 25 18 59v72v74q-59 129 -163.5 489.5t-207.5 775.5v-671q0 -113 15 -293q14 -225 14 -291q0 -18 -22.5 -31.5t-49.5 -13.5q-45 0 -45 33l5 59 q6 49 6 86q0 123 -15 344q-12 240 -12 291z" />
<glyph unicode="&#x14b;" horiz-adv-x="1042" d="M172 829q0 66 6 191q6 129 6 190q0 96 74 152v-12q12 4 16 4q47 0 119 -164q55 -127 99.5 -266.5t117.5 -388.5l31 -109q43 -158 70 -238q41 440 41 1041v26q-2 12 -2 27q0 61 51 61q29 0 43 -22.5t14 -56.5v-154v-109q0 -469 -19.5 -787t-84 -522t-191.5 -204 q-33 0 -53.5 16.5t-20.5 46.5q0 25 14.5 37.5t43.5 18.5q35 8 56.5 19.5t39.5 41.5q49 78 49 230q0 27 -4 59q-2 16 -2 43q-43 106 -203 575q-156 465 -198 570v-1030q0 -2 8 -15q2 -6 7 -16t5 -18q0 -27 -18.5 -45.5t-42.5 -18.5q-68 0 -68 125l-2 350q-2 158 -2 352z" />
<glyph unicode="&#x14c;" horiz-adv-x="727" d="M27 1737q0 20 13 32.5t34 12.5h301l61 4q29 2 64 2q98 0 98 -59q0 -23 -15.5 -35t-41.5 -12q-70 0 -215 -7l-217 -4q-82 0 -82 66zM90 1038q0 123 10 217q8 98 41 195q33 84 95 119q37 16 73 16q109 0 172 -86q70 -96 92 -215q33 -143 37 -274q8 -145 8 -275v-117 q0 -35 -10 -131q-8 -76 -8 -129v-8q-12 -57 -12 -135q0 -57 -24.5 -118.5t-69.5 -104.5q-45 -49 -103 -49q-55 0 -100 36.5t-78 100.5q-59 111 -88 303q-20 133 -31 307l-2 109v110q-2 53 -2 129zM184 852q0 -137 29 -338q33 -272 96 -387q41 -72 86 -72q41 0 70 76 q25 68 36 165t19 220q4 53 4 137l-2 189q-4 111 -24 276q-16 141 -62 250q-20 51 -51 80t-66 29q-51 0 -75 -80q-31 -84 -41 -185q-12 -109 -15 -206l-2 -68q-2 -29 -2 -78v-8z" />
<glyph unicode="&#x14d;" horiz-adv-x="737" d="M33 1497q0 20 13 32.5t34 12.5h301l61 4q29 2 64 2q98 0 98 -59q0 -23 -15.5 -35t-41.5 -12q-70 0 -215 -7l-217 -4q-82 0 -82 66zM100 627q0 25 2 41v37q0 10 -2 10v37l2 143q2 66 17 209q10 98 47 190q14 41 36.5 62.5t51.5 21.5q82 0 147.5 -29.5t110.5 -82.5 q41 -51 69.5 -126t41.5 -159q12 -86 12 -182v-17q0 -63 2 -114l2 -117q0 -590 -274 -590q-54 0 -99 34t-73 91q-59 125 -74 272q-18 139 -19 269zM213 717q0 -111 6 -219q8 -154 41 -299q33 -152 96 -152q37 0 68 29.5t47 81.5q39 104 47 225q10 104 10 180q0 92 -14 242 q-12 158 -12 235v37q-4 78 -52.5 135.5t-117.5 57.5q-70 0 -92 -80q-20 -63 -21 -164q0 -39 2 -65v-56l-4 -94q-4 -43 -4 -94z" />
<glyph unicode="&#x14e;" horiz-adv-x="727" d="M90 1038q0 123 10 217q8 98 41 195q33 84 95 119q37 16 73 16q109 0 172 -86q70 -96 92 -215q33 -143 37 -274q8 -145 8 -275v-117q0 -35 -10 -131q-8 -76 -8 -129v-8q-12 -57 -12 -135q0 -57 -24.5 -118.5t-69.5 -104.5q-45 -49 -103 -49q-55 0 -100 36.5t-78 100.5 q-59 111 -88 303q-20 133 -31 307l-2 109v110q-2 53 -2 129zM184 852q0 -137 29 -338q33 -272 96 -387q41 -72 86 -72q41 0 70 76q25 68 36 165t19 220q4 53 4 137l-2 189q-4 111 -24 276q-16 141 -62 250q-20 51 -51 80t-66 29q-51 0 -75 -80q-31 -84 -41 -185 q-12 -109 -15 -206l-2 -68q-2 -29 -2 -78v-8zM188 1893q0 12 11.5 21t27.5 9q23 0 41.5 -26.5t28.5 -63.5t26.5 -63.5t32.5 -26.5q33 0 51.5 30.5t18.5 63.5q0 41 12.5 59.5t44.5 18.5q23 0 39.5 -15.5t16.5 -35.5q0 -27 -4 -51q-16 -74 -59.5 -119t-112.5 -45 q-48 0 -83.5 21.5t-54.5 60.5q-37 72 -37 162z" />
<glyph unicode="&#x14f;" horiz-adv-x="737" d="M100 627q0 25 2 41v37q0 10 -2 10v37l2 143q2 66 17 209q10 98 47 190q14 41 36.5 62.5t51.5 21.5q82 0 147.5 -29.5t110.5 -82.5q41 -51 69.5 -126t41.5 -159q12 -86 12 -182v-17q0 -63 2 -114l2 -117q0 -590 -274 -590q-54 0 -99 34t-73 91q-59 125 -74 272 q-18 139 -19 269zM143 1692q0 12 11.5 21t27.5 9q23 0 41.5 -26.5t28.5 -63.5t26.5 -63.5t32.5 -26.5q33 0 51.5 30.5t18.5 63.5q0 41 12.5 59.5t44.5 18.5q23 0 39.5 -15.5t16.5 -35.5q0 -27 -4 -51q-16 -74 -59.5 -119t-112.5 -45q-48 0 -83.5 21.5t-54.5 60.5 q-37 72 -37 162zM213 717q0 -111 6 -219q8 -154 41 -299q33 -152 96 -152q37 0 68 29.5t47 81.5q39 104 47 225q10 104 10 180q0 92 -14 242q-12 158 -12 235v37q-4 78 -52.5 135.5t-117.5 57.5q-70 0 -92 -80q-20 -63 -21 -164q0 -39 2 -65v-56l-4 -94q-4 -43 -4 -94z" />
<glyph unicode="&#x150;" horiz-adv-x="727" d="M90 1038q0 123 10 217q8 98 41 195q33 84 95 119q37 16 73 16q109 0 172 -86q70 -96 92 -215q33 -143 37 -274q8 -145 8 -275v-117q0 -35 -10 -131q-8 -76 -8 -129v-8q-12 -57 -12 -135q0 -57 -24.5 -118.5t-69.5 -104.5q-45 -49 -103 -49q-55 0 -100 36.5t-78 100.5 q-59 111 -88 303q-20 133 -31 307l-2 109v110q-2 53 -2 129zM170 1614v12q2 29 68 133.5t143 202.5q74 90 90 90q18 0 34 -11.5t16 -25.5q0 -43 -72 -137t-164 -178q-82 -76 -115 -86zM184 852q0 -137 29 -338q33 -272 96 -387q41 -72 86 -72q41 0 70 76q25 68 36 165 t19 220q4 53 4 137l-2 189q-4 111 -24 276q-16 141 -62 250q-20 51 -51 80t-66 29q-51 0 -75 -80q-31 -84 -41 -185q-12 -109 -15 -206l-2 -68q-2 -29 -2 -78v-8zM428 1653q0 25 86 123q96 109 181 188q94 88 116 88q20 0 39 -14.5t25 -32.5q-12 -31 -98 -113t-186.5 -162.5 t-141.5 -103.5q-21 0 -21 27z" />
<glyph unicode="&#x151;" horiz-adv-x="737" d="M100 627q0 25 2 41v37q0 10 -2 10v37l2 143q2 66 17 209q10 98 47 190q14 41 36.5 62.5t51.5 21.5q82 0 147.5 -29.5t110.5 -82.5q41 -51 69.5 -126t41.5 -159q12 -86 12 -182v-17q0 -63 2 -114l2 -117q0 -590 -274 -590q-54 0 -99 34t-73 91q-59 125 -74 272 q-18 139 -19 269zM147 1401v12q2 29 68 133.5t143 202.5q74 90 90 90q18 0 34 -11.5t16 -25.5q0 -43 -72 -137t-164 -178q-82 -76 -115 -86zM213 717q0 -111 6 -219q8 -154 41 -299q33 -152 96 -152q37 0 68 29.5t47 81.5q39 104 47 225q10 104 10 180q0 92 -14 242 q-12 158 -12 235v37q-4 78 -52.5 135.5t-117.5 57.5q-70 0 -92 -80q-20 -63 -21 -164q0 -39 2 -65v-56l-4 -94q-4 -43 -4 -94zM405 1440q0 25 86 123q96 109 181 188q94 88 116 88q20 0 39 -14.5t25 -32.5q-12 -31 -98 -113t-186.5 -162.5t-141.5 -103.5q-21 0 -21 27z" />
<glyph unicode="&#x152;" horiz-adv-x="1165" d="M90 809q0 96 4 182q4 104 25 219q10 57 25.5 101.5t41.5 97.5q25 45 55.5 74.5t73.5 48.5q43 18 97 18q96 0 160.5 -12t115.5 -45l31 43q25 0 45 -4q31 -6 47 -6h152q16 0 26 2l25 2q47 -29 47 -60q0 -20 -18.5 -32.5t-43.5 -12.5l-110 5l-107 4q0 -78 15 -207 q14 -162 14 -209l-2 -53q-2 -23 -2 -52q0 -25 4 -57l61 -2h11h22h23q45 0 69 -37q0 -63 -57 -63l-49 2q-23 2 -49 2h-29q0 -117 6 -344q8 -203 8 -334q70 6 134 6h32q135 0 135 -61v-7l-22 -34q-90 0 -162 -2l-162 -5q-26 0 -49.5 14.5t-23.5 35.5v6q-76 -25 -109 -25 q-145 0 -258 60q-90 49 -152 151q-25 43 -44 101.5t-29 115.5q-20 102 -25 248q-2 37 -2 125zM184 752q16 -35 29 -281q6 -84 29 -162q23 -76 55 -78q47 -55 112.5 -86.5t137.5 -31.5q73 0 139 20q41 14 41 35q0 215 -18 620q-18 348 -23 582q-70 80 -244 80 q-53 0 -97 -23.5t-73 -66.5q-57 -90 -71 -201q-16 -106 -17 -203v-67v-70v-67z" />
<glyph unicode="&#x153;" horiz-adv-x="942" d="M100 627q0 25 2 41v37q0 10 -2 10v37q0 86 11 213q10 129 63 258q25 59 68 92t98 33q66 0 122 -48.5t83 -121.5q0 78 6 114q6 37 18.5 48.5t38.5 11.5q68 0 157 -27t89 -63q0 -18 -11.5 -33t-29.5 -15q-33 0 -88 21q-53 16 -84 20v-127l-6 -122l-2 -140q0 -27 6 -69l45 2 q23 2 47 2q80 0 80 -33q0 -20 -12.5 -34.5t-32.5 -14.5h-131q6 -80 6 -156q0 -102 -4 -184l-4 -186q0 -129 4 -130l65 5l84 2q66 0 66 -52q0 -23 -22.5 -34t-53.5 -11h-172q-29 0 -50.5 18.5t-21.5 45.5v90q-16 -78 -62 -122t-105 -44q-54 0 -99 34t-73 91q-59 125 -74 272 q-18 139 -19 269zM209 909l2 -104l2 -88q0 -111 6 -219q8 -154 41 -299q33 -152 96 -152q37 0 68 29.5t47 81.5q39 104 47 225q10 104 10 180q0 92 -14 242q-12 158 -12 235v37q-4 78 -52.5 135.5t-117.5 57.5q-76 0 -103 -119q-20 -94 -20 -242z" />
<glyph unicode="&#x154;" horiz-adv-x="591" d="M115 43v16l4 603q4 266 4 600v251q0 25 10 34t43 9q51 0 94 -19t74 -54q63 -72 82 -172q8 -41 8 -94q0 -31 -5 -68t-7 -47q-4 -20 -18.5 -61.5t-18.5 -53.5l-25 -57l-20 -53q2 -74 25.5 -186.5t52.5 -209.5q20 -68 74 -225l59 -180v-4q0 -35 -6 -60q-6 -33 -43 -32 q-39 0 -76 55v6q-6 109 -37 242t-90 321q-45 141 -76 254v-807q0 -33 -11 -48t-44 -15q-25 0 -39 15t-14 40zM127 1613q0 10 10 21l33 29q10 10 115 100l120 104q8 4 19 4q25 0 45 -24.5t20 -50.5q0 -25 -14 -33q-74 -57 -299 -172q-4 -4 -16 -4q-13 0 -23 7t-10 19z M217 1044q0 -72 2 -94q29 29 70 80l30 176q2 10 3 29q0 59 -23 137q-12 37 -31.5 62.5t-40.5 27.5l-4 -205q-6 -137 -6 -213z" />
<glyph unicode="&#x155;" horiz-adv-x="604" d="M121 1268q0 98 67 98q111 0 181.5 -57.5t70.5 -159.5v-143q0 -31 -10 -71t-22 -65l-39 -73l-33 -62l10 -49l29 -145q29 -158 55.5 -256.5t65.5 -178.5l12 -24q20 -41 20 -66q0 -20 -12 -35.5t-33 -15.5q-45 0 -82 98q-43 106 -63 220l-14 69q-59 293 -76 334h-25 q0 -59 -2 -108v-113q0 -274 39 -428l-22 -55h-58l-26 30l2 138q0 184 -19 559q-16 399 -16 559zM223 1260l4 -242q4 -106 4 -232q45 23 77 124.5t32 187.5q0 66 -16 123q-10 33 -34 50t-59 17l-4 -10zM250 1448q0 10 10 21l33 29q10 10 115 100l120 104q8 4 19 4 q25 0 45 -24.5t20 -50.5q0 -25 -14 -33q-74 -57 -299 -172q-4 -4 -16 -4q-13 0 -23 7t-10 19z" />
<glyph unicode="&#x156;" horiz-adv-x="591" d="M115 43v16l4 603q4 266 4 600v251q0 25 10 34t43 9q51 0 94 -19t74 -54q63 -72 82 -172q8 -41 8 -94q0 -31 -5 -68t-7 -47q-4 -20 -18.5 -61.5t-18.5 -53.5l-25 -57l-20 -53q2 -74 25.5 -186.5t52.5 -209.5q20 -68 74 -225l59 -180v-4q0 -35 -6 -60q-6 -33 -43 -32 q-39 0 -76 55v6q-6 109 -37 242t-90 321q-45 141 -76 254v-807q0 -33 -11 -48t-44 -15q-25 0 -39 15t-14 40zM178 -526q0 14 66.5 144t116.5 208q2 4 10 4q14 0 30.5 -14.5t16.5 -30.5q0 -41 -37 -108.5t-87 -130t-83 -85.5q-8 -4 -12 -4h-4q-17 1 -17 17zM217 1044 q0 -72 2 -94q29 29 70 80l30 176q2 10 3 29q0 59 -23 137q-12 37 -31.5 62.5t-40.5 27.5l-4 -205q-6 -137 -6 -213z" />
<glyph unicode="&#x157;" horiz-adv-x="604" d="M121 1268q0 98 67 98q111 0 181.5 -57.5t70.5 -159.5v-143q0 -31 -10 -71t-22 -65l-39 -73l-33 -62l10 -49l29 -145q29 -158 55.5 -256.5t65.5 -178.5l12 -24q20 -41 20 -66q0 -20 -12 -35.5t-33 -15.5q-45 0 -82 98q-43 106 -63 220l-14 69q-59 293 -76 334h-25 q0 -59 -2 -108v-113q0 -274 39 -428l-22 -55h-58l-26 30l2 138q0 184 -19 559q-16 399 -16 559zM182 -526q0 14 66.5 144t116.5 208q2 4 10 4q14 0 30.5 -14.5t16.5 -30.5q0 -41 -37 -108.5t-87 -130t-83 -85.5q-8 -4 -12 -4h-4q-17 1 -17 17zM223 1260l4 -242 q4 -106 4 -232q45 23 77 124.5t32 187.5q0 66 -16 123q-10 33 -34 50t-59 17l-4 -10z" />
<glyph unicode="&#x158;" horiz-adv-x="591" d="M30 1991q0 16 15.5 28.5t33.5 12.5q23 0 52 -59q20 -47 51 -152l26 -94q6 49 9 67q2 18 8 68.5t16 91.5q16 84 58 84q18 0 30.5 -12t12.5 -31q0 -6 -9 -16l-8 -15v-37l-29 -112q-29 -119 -28 -146q0 -66 -51 -65q-25 0 -70 79t-81 175t-36 133zM115 43v16l4 603 q4 266 4 600v251q0 25 10 34t43 9q51 0 94 -19t74 -54q63 -72 82 -172q8 -41 8 -94q0 -31 -5 -68t-7 -47q-4 -20 -18.5 -61.5t-18.5 -53.5l-25 -57l-20 -53q2 -74 25.5 -186.5t52.5 -209.5q20 -68 74 -225l59 -180v-4q0 -35 -6 -60q-6 -33 -43 -32q-39 0 -76 55v6 q-6 109 -37 242t-90 321q-45 141 -76 254v-807q0 -33 -11 -48t-44 -15q-25 0 -39 15t-14 40zM217 1044q0 -72 2 -94q29 29 70 80l30 176q2 10 3 29q0 59 -23 137q-12 37 -31.5 62.5t-40.5 27.5l-4 -205q-6 -137 -6 -213z" />
<glyph unicode="&#x159;" horiz-adv-x="604" d="M121 1268q0 98 67 98q111 0 181.5 -57.5t70.5 -159.5v-143q0 -31 -10 -71t-22 -65l-39 -73l-33 -62l10 -49l29 -145q29 -158 55.5 -256.5t65.5 -178.5l12 -24q20 -41 20 -66q0 -20 -12 -35.5t-33 -15.5q-45 0 -82 98q-43 106 -63 220l-14 69q-59 293 -76 334h-25 q0 -59 -2 -108v-113q0 -274 39 -428l-22 -55h-58l-26 30l2 138q0 184 -19 559q-16 399 -16 559zM145 1794q0 16 15.5 28.5t33.5 12.5q23 0 52 -59q20 -47 51 -152l26 -94q6 49 9 67q2 18 8 68.5t16 91.5q16 84 58 84q18 0 30.5 -12t12.5 -31q0 -6 -9 -16l-8 -15v-37 l-29 -112q-29 -119 -28 -146q0 -66 -51 -65q-25 0 -70 79t-81 175t-36 133zM223 1260l4 -242q4 -106 4 -232q45 23 77 124.5t32 187.5q0 66 -16 123q-10 33 -34 50t-59 17l-4 -10z" />
<glyph unicode="&#x15a;" horiz-adv-x="628" d="M80 25q0 25 12 40t35 15q20 0 59 -17q43 -16 54 -16q39 0 70.5 34t49.5 89q37 102 37 184q0 88 -27.5 185.5t-74.5 189.5l-33 66q-51 102 -78.5 161.5t-48.5 128.5q-31 98 -31 191q0 74 26 139.5t77 110.5q51 49 127 49q37 0 71.5 -21.5t49.5 -54.5l-35 -43q-53 0 -80 21 q-37 -4 -64.5 -36t-42.5 -73q-12 -39 -12 -78q0 -78 21.5 -158.5t56.5 -152.5l143 -287q35 -74 55.5 -166t20.5 -184q0 -135 -65 -254q-35 -61 -90.5 -97t-122.5 -36q-74 0 -127 27q-33 18 -33 43zM236 1652q0 10 10 21l33 29q10 10 115 100l120 104q8 4 19 4q25 0 45 -24.5 t20 -50.5q0 -25 -14 -33q-74 -57 -299 -172q-4 -4 -16 -4q-13 0 -23 7t-10 19z" />
<glyph unicode="&#x15b;" horiz-adv-x="505" d="M70 51l22 35q12 0 39 -8q31 -6 47 -6q37 0 66.5 32.5t44.5 85.5q27 98 26 177q0 135 -86 284l-22 39q-39 68 -65.5 121t-45.5 115q-25 80 -24 159q0 90 41 189q20 47 58 76.5t85 29.5q37 0 68.5 -23.5t31.5 -56.5q0 -18 -14 -28t-35 -10q-23 0 -43 12q-45 -2 -71 -80 q-23 -72 -23 -119q0 -59 18.5 -119.5t47.5 -109.5l45 -82l71 -135q29 -57 46.5 -133t17.5 -154q0 -125 -58 -238q-29 -57 -81 -92t-115 -35v-6q-37 6 -62.5 26.5t-29.5 53.5zM182 1468q0 10 10 21l33 29q10 10 115 100l120 104q8 4 19 4q25 0 45 -24.5t20 -50.5 q0 -25 -14 -33q-74 -57 -299 -172q-4 -4 -16 -4q-13 0 -23 7t-10 19z" />
<glyph unicode="&#x15c;" horiz-adv-x="628" d="M80 25q0 25 12 40t35 15q20 0 59 -17q43 -16 54 -16q39 0 70.5 34t49.5 89q37 102 37 184q0 88 -27.5 185.5t-74.5 189.5l-33 66q-51 102 -78.5 161.5t-48.5 128.5q-31 98 -31 191q0 74 26 139.5t77 110.5q51 49 127 49q37 0 71.5 -21.5t49.5 -54.5l-35 -43q-53 0 -80 21 q-37 -4 -64.5 -36t-42.5 -73q-12 -39 -12 -78q0 -78 21.5 -158.5t56.5 -152.5l143 -287q35 -74 55.5 -166t20.5 -184q0 -135 -65 -254q-35 -61 -90.5 -97t-122.5 -36q-74 0 -127 27q-33 18 -33 43zM177 1679q0 12 4 18l71 181q8 16 24.5 55t24.5 53q23 37 48 49q16 4 28 4 q16 0 29 -18q29 -45 51 -139l27 -99q18 -74 26 -98q2 -6 2 -18q0 -18 -14 -30.5t-33 -12.5q-20 0 -24 14l-80 276l-105 -262q-6 -14 -28 -14q-20 0 -35.5 11t-15.5 30z" />
<glyph unicode="&#x15d;" horiz-adv-x="505" d="M66 1425q0 12 4 18l71 181q8 16 24.5 55t24.5 53q23 37 48 49q16 4 28 4q16 0 29 -18q29 -45 51 -139l27 -99q18 -74 26 -98q2 -6 2 -18q0 -18 -14 -30.5t-33 -12.5q-20 0 -24 14l-80 276l-105 -262q-6 -14 -28 -14q-20 0 -35.5 11t-15.5 30zM70 51l22 35q12 0 39 -8 q31 -6 47 -6q37 0 66.5 32.5t44.5 85.5q27 98 26 177q0 135 -86 284l-22 39q-39 68 -65.5 121t-45.5 115q-25 80 -24 159q0 90 41 189q20 47 58 76.5t85 29.5q37 0 68.5 -23.5t31.5 -56.5q0 -18 -14 -28t-35 -10q-23 0 -43 12q-45 -2 -71 -80q-23 -72 -23 -119 q0 -59 18.5 -119.5t47.5 -109.5l45 -82l71 -135q29 -57 46.5 -133t17.5 -154q0 -125 -58 -238q-29 -57 -81 -92t-115 -35v-6q-37 6 -62.5 26.5t-29.5 53.5z" />
<glyph unicode="&#x15e;" horiz-adv-x="628" d="M80 25q0 25 12 40t35 15q20 0 59 -17q43 -16 54 -16q39 0 70.5 34t49.5 89q37 102 37 184q0 88 -27.5 185.5t-74.5 189.5l-33 66q-51 102 -78.5 161.5t-48.5 128.5q-31 98 -31 191q0 74 26 139.5t77 110.5q51 49 127 49q37 0 71.5 -21.5t49.5 -54.5l-35 -43q-53 0 -80 21 q-37 -4 -64.5 -36t-42.5 -73q-12 -39 -12 -78q0 -78 21.5 -158.5t56.5 -152.5l143 -287q35 -74 55.5 -166t20.5 -184q0 -135 -65 -254q-35 -61 -90.5 -97t-122.5 -36q-74 0 -127 27q-33 18 -33 43zM153 -393q0 20 23 20q8 0 33 -10t32 -10q35 0 57.5 42t22.5 99q0 68 -30 92 l-27 -4l-29 -4q-31 0 -55 41q16 43 16 119v22l60 9q-8 -61 -8 -105q150 -8 149 -205q0 -33 -21.5 -70.5t-58.5 -64.5t-76 -27q-32 0 -60 15.5t-28 40.5z" />
<glyph unicode="&#x15f;" horiz-adv-x="505" d="M70 51l22 35q12 0 39 -8q31 -6 47 -6q37 0 66.5 32.5t44.5 85.5q27 98 26 177q0 135 -86 284l-22 39q-39 68 -65.5 121t-45.5 115q-25 80 -24 159q0 90 41 189q20 47 58 76.5t85 29.5q37 0 68.5 -23.5t31.5 -56.5q0 -18 -14 -28t-35 -10q-23 0 -43 12q-45 -2 -71 -80 q-23 -72 -23 -119q0 -59 18.5 -119.5t47.5 -109.5l45 -82l71 -135q29 -57 46.5 -133t17.5 -154q0 -125 -58 -238q-29 -57 -81 -92t-115 -35v-6q-37 6 -62.5 26.5t-29.5 53.5zM129 -385q0 20 23 20q8 0 33 -10t32 -10q35 0 57.5 42t22.5 99q0 68 -30 92l-27 -4l-29 -4 q-31 0 -55 41q16 43 16 119v22l60 9q-8 -61 -8 -105q150 -8 149 -205q0 -33 -21.5 -70.5t-58.5 -64.5t-76 -27q-32 0 -60 15.5t-28 40.5z" />
<glyph unicode="&#x160;" horiz-adv-x="628" d="M80 25q0 25 12 40t35 15q20 0 59 -17q43 -16 54 -16q39 0 70.5 34t49.5 89q37 102 37 184q0 88 -27.5 185.5t-74.5 189.5l-33 66q-51 102 -78.5 161.5t-48.5 128.5q-31 98 -31 191q0 74 26 139.5t77 110.5q51 49 127 49q37 0 71.5 -21.5t49.5 -54.5l-35 -43q-53 0 -80 21 q-37 -4 -64.5 -36t-42.5 -73q-12 -39 -12 -78q0 -78 21.5 -158.5t56.5 -152.5l143 -287q35 -74 55.5 -166t20.5 -184q0 -135 -65 -254q-35 -61 -90.5 -97t-122.5 -36q-74 0 -127 27q-33 18 -33 43zM139 2030q0 16 15.5 28.5t33.5 12.5q23 0 52 -59q20 -47 51 -152l26 -94 q6 49 9 67q2 18 8 68.5t16 91.5q16 84 58 84q18 0 30.5 -12t12.5 -31q0 -6 -9 -16l-8 -15v-37l-29 -112q-29 -119 -28 -146q0 -66 -51 -65q-25 0 -70 79t-81 175t-36 133z" />
<glyph unicode="&#x161;" horiz-adv-x="505" d="M70 51l22 35q12 0 39 -8q31 -6 47 -6q37 0 66.5 32.5t44.5 85.5q27 98 26 177q0 135 -86 284l-22 39q-39 68 -65.5 121t-45.5 115q-25 80 -24 159q0 90 41 189q20 47 58 76.5t85 29.5q37 0 68.5 -23.5t31.5 -56.5q0 -18 -14 -28t-35 -10q-23 0 -43 12q-45 -2 -71 -80 q-23 -72 -23 -119q0 -59 18.5 -119.5t47.5 -109.5l45 -82l71 -135q29 -57 46.5 -133t17.5 -154q0 -125 -58 -238q-29 -57 -81 -92t-115 -35v-6q-37 6 -62.5 26.5t-29.5 53.5zM78 1815q0 16 15.5 28.5t33.5 12.5q23 0 52 -59q20 -47 51 -152l26 -94q6 49 9 67q2 18 8 68.5 t16 91.5q16 84 58 84q18 0 30.5 -12t12.5 -31q0 -6 -9 -16l-8 -15v-37l-29 -112q-29 -119 -28 -146q0 -66 -51 -65q-25 0 -70 79t-81 175t-36 133z" />
<glyph unicode="&#x162;" horiz-adv-x="536" d="M4 1468q0 25 49 43q72 25 244 35q70 4 84 4q25 0 45 -16t20 -41t-17 -40t-44 -15l-37 2q-16 2 -37 2h-20q14 -139 14 -252l-2 -131q-2 -59 -2 -133q0 -98 8 -236q10 -170 10 -235q0 -78 9 -185q8 -109 8 -184q0 -100 -60 -100q-30 0 -47.5 29.5t-17.5 72.5q0 68 8 166 l4 53l4 109q0 72 -14 319q-14 248 -14 320q0 6 1 23.5t1 54.5q2 41 2 100q0 150 -21 190q-12 0 -53 -6l-57 -4q-27 0 -47.5 15.5t-20.5 39.5zM196 -393q0 20 23 20q8 0 33 -10t32 -10q35 0 57.5 42t22.5 99q0 68 -30 92l-27 -4l-29 -4q-31 0 -55 41q16 43 16 119v22l60 9 q-8 -61 -8 -105q150 -8 149 -205q0 -33 -21.5 -70.5t-58.5 -64.5t-76 -27q-32 0 -60 15.5t-28 40.5z" />
<glyph unicode="&#x163;" horiz-adv-x="524" d="M4 1317q0 16 21.5 29.5t44.5 13.5q57 0 139 -8q78 -10 139 -11h17h16q63 0 63 -49q0 -25 -20.5 -40t-46.5 -15q-18 0 -53 6l-41 8l-2 -10l-2 -10q0 -182 34 -582q33 -375 33 -581q0 -25 -21.5 -43.5t-48.5 -18.5l-36 27l-2 80q-2 35 -2 77l2 70q-6 23 -31 449t-29 546 q-119 4 -151 25q-23 16 -23 37zM219 -385q0 20 23 20q8 0 33 -10t32 -10q35 0 57.5 42t22.5 99q0 68 -30 92l-27 -4l-29 -4q-31 0 -55 41q16 43 16 119v22l60 9q-8 -61 -8 -105q150 -8 149 -205q0 -33 -21.5 -70.5t-58.5 -64.5t-76 -27q-32 0 -60 15.5t-28 40.5z" />
<glyph unicode="&#x164;" horiz-adv-x="536" d="M4 1468q0 25 49 43q72 25 244 35q70 4 84 4q25 0 45 -16t20 -41t-17 -40t-44 -15l-37 2q-16 2 -37 2h-20q14 -139 14 -252l-2 -131q-2 -59 -2 -133q0 -98 8 -236q10 -170 10 -235q0 -78 9 -185q8 -109 8 -184q0 -100 -60 -100q-30 0 -47.5 29.5t-17.5 72.5q0 68 8 166 l4 53l4 109q0 72 -14 319q-14 248 -14 320q0 6 1 23.5t1 54.5q2 41 2 100q0 150 -21 190q-12 0 -53 -6l-57 -4q-27 0 -47.5 15.5t-20.5 39.5zM112 1991q0 16 15.5 28.5t33.5 12.5q23 0 52 -59q20 -47 51 -152l26 -94q6 49 9 67q2 18 8 68.5t16 91.5q16 84 58 84 q18 0 30.5 -12t12.5 -31q0 -6 -9 -16l-8 -15v-37l-29 -112q-29 -119 -28 -146q0 -66 -51 -65q-25 0 -70 79t-81 175t-36 133z" />
<glyph unicode="&#x165;" horiz-adv-x="524" d="M4 1317q0 16 21.5 29.5t44.5 13.5q57 0 139 -8q78 -10 139 -11h17h16q63 0 63 -49q0 -25 -20.5 -40t-46.5 -15q-18 0 -53 6l-41 8l-2 -10l-2 -10q0 -182 34 -582q33 -375 33 -581q0 -25 -21.5 -43.5t-48.5 -18.5l-36 27l-2 80q-2 35 -2 77l2 70q-6 23 -31 449t-29 546 q-119 4 -151 25q-23 16 -23 37zM57 1794q0 16 15.5 28.5t33.5 12.5q23 0 52 -59q20 -47 51 -152l26 -94q6 49 9 67q2 18 8 68.5t16 91.5q16 84 58 84q18 0 30.5 -12t12.5 -31q0 -6 -9 -16l-8 -15v-37l-29 -112q-29 -119 -28 -146q0 -66 -51 -65q-25 0 -70 79t-81 175 t-36 133z" />
<glyph unicode="&#x166;" horiz-adv-x="700" d="M113 866q0 45 45 45h176q-4 115 -4 144l2 78v100q0 147 -19 190q-16 0 -53 -6l-57 -4q-27 0 -47.5 15.5t-20.5 39.5q0 25 49 43q72 25 242 35q70 4 86 4q25 0 45.5 -16t20.5 -41q0 -27 -17.5 -41t-46.5 -14l-37 2q-14 2 -35 2h-20q12 -119 12 -252q0 -74 -2 -131l-2 -133 v-15h29l63 4l64 5q98 -1 98 -62q0 -23 -15.5 -35t-41.5 -12l-193 -4l6 -117q8 -137 9 -235q0 -51 10 -185l4 -61l4 -123q0 -100 -59 -100q-31 0 -48.5 29.5t-17.5 72.5q0 55 6 166q8 96 8 162q0 121 -14 319l-4 70l-143 -4q-82 0 -82 65z" />
<glyph unicode="&#x167;" horiz-adv-x="700" d="M98 1317q0 18 21.5 30.5t44.5 12.5q57 0 139 -8q78 -10 139 -11h17h16q63 0 64 -49q0 -25 -20.5 -40t-47.5 -15q-18 0 -53 6l-41 8l-2 -10l-2 -10q0 -158 22 -438q68 6 117 6q29 0 49.5 -17.5t20.5 -42.5q0 -47 -176 -69q35 -414 34 -602q0 -25 -21.5 -43.5t-47.5 -18.5 l-37 27l-2 80q-2 35 -2 77l2 70q-8 25 -29 399q-78 -4 -96 -4q-29 0 -48.5 17.5t-19.5 42.5q0 47 158 67q-20 375 -25 473q-119 4 -151 25q-23 16 -23 37z" />
<glyph unicode="&#x168;" horiz-adv-x="821" d="M94 1477q0 25 18.5 44t41.5 19q74 0 73 -145q0 -94 11 -357q10 -262 10 -356q10 -27 19 -106.5t9 -131.5q0 -45 14.5 -111.5t41.5 -133.5q27 -72 69.5 -118t90.5 -46q29 0 48 18.5t25 52.5q12 57 13 113v399q0 76 -15 193q-12 129 -12 195v14q0 33 -2 59l-2 60 q0 57 -6 174q-8 104 -9 176q0 23 24 39t52 16l51 -47v-35q0 -25 -8 -59q-8 -57 -8 -66q0 -186 21 -514q18 -344 18 -534q0 -102 -20 -180q-12 -47 -34 -76t-59 -49q-35 -20 -90 -21q-126 0 -200 111q-80 113 -113 276q-37 174 -47 373q-10 180 -10 391v170q2 72 2 152 q-16 16 -17 41zM132 1661q0 51 40.5 84.5t108.5 33.5q23 0 88 -41q66 -41 84 -40q18 0 29.5 12t13.5 28q4 16 15.5 28.5t29.5 12.5q33 0 50.5 -15t17.5 -38q0 -53 -39 -93t-92 -40q-52 0 -88.5 13.5t-51.5 31.5q-14 18 -34.5 30.5t-45.5 12.5q-14 -6 -20 -16t-2 -23v-4 q0 -27 -31 -37q-33 0 -53 15.5t-20 44.5z" />
<glyph unicode="&#x169;" horiz-adv-x="739" d="M100 1307q18 43 43 43t44.5 -37t19.5 -80v-557q0 -82 14 -217q14 -168 15 -217q0 -152 129 -152q147 0 147 1102v115v18q-2 6 -2 16q0 25 11 36.5t44 11.5q27 0 42.5 -15.5t19.5 -36.5q2 -12 2 -47q0 -33 -6 -104q-8 -59 -9 -103q0 -47 -4 -84l-4 -86v-16q2 -8 2 -18 q0 -909 -264 -910q-49 0 -88 21.5t-63 62.5q-49 86 -64 195q-14 94 -14 225q-6 221 -6 541l-3 157q-2 12 -2 41q-4 78 -4 95zM101 1536q0 51 40.5 84.5t108.5 33.5q23 0 88 -41q66 -41 84 -40q18 0 29.5 12t13.5 28q4 16 15.5 28.5t29.5 12.5q33 0 50.5 -15t17.5 -38 q0 -53 -39 -93t-92 -40q-52 0 -88.5 13.5t-51.5 31.5q-14 18 -34.5 30.5t-45.5 12.5q-14 -6 -20 -16t-2 -23v-4q0 -27 -31 -37q-33 0 -53 15.5t-20 44.5z" />
<glyph unicode="&#x16a;" horiz-adv-x="821" d="M84 1708q0 20 13 32.5t34 12.5h301l61 4q29 2 64 2q98 0 98 -59q0 -23 -15.5 -35t-41.5 -12q-70 0 -215 -7l-217 -4q-82 0 -82 66zM94 1477q0 25 18.5 44t41.5 19q74 0 73 -145q0 -94 11 -357q10 -262 10 -356q10 -27 19 -106.5t9 -131.5q0 -45 14.5 -111.5t41.5 -133.5 q27 -72 69.5 -118t90.5 -46q29 0 48 18.5t25 52.5q12 57 13 113v399q0 76 -15 193q-12 129 -12 195v14q0 33 -2 59l-2 60q0 57 -6 174q-8 104 -9 176q0 23 24 39t52 16l51 -47v-35q0 -25 -8 -59q-8 -57 -8 -66q0 -186 21 -514q18 -344 18 -534q0 -102 -20 -180 q-12 -47 -34 -76t-59 -49q-35 -20 -90 -21q-126 0 -200 111q-80 113 -113 276q-37 174 -47 373q-10 180 -10 391v170q2 72 2 152q-16 16 -17 41z" />
<glyph unicode="&#x16b;" horiz-adv-x="739" d="M54 1528q0 20 13 32.5t34 12.5h301l61 4q29 2 64 2q98 0 98 -59q0 -23 -15.5 -35t-41.5 -12q-70 0 -215 -7l-217 -4q-82 0 -82 66zM100 1307q18 43 43 43t44.5 -37t19.5 -80v-557q0 -82 14 -217q14 -168 15 -217q0 -152 129 -152q147 0 147 1102v115v18q-2 6 -2 16 q0 25 11 36.5t44 11.5q27 0 42.5 -15.5t19.5 -36.5q2 -12 2 -47q0 -33 -6 -104q-8 -59 -9 -103q0 -47 -4 -84l-4 -86v-16q2 -8 2 -18q0 -909 -264 -910q-49 0 -88 21.5t-63 62.5q-49 86 -64 195q-14 94 -14 225q-6 221 -6 541l-3 157q-2 12 -2 41q-4 78 -4 95z" />
<glyph unicode="&#x16c;" horiz-adv-x="821" d="M94 1477q0 25 18.5 44t41.5 19q74 0 73 -145q0 -94 11 -357q10 -262 10 -356q10 -27 19 -106.5t9 -131.5q0 -45 14.5 -111.5t41.5 -133.5q27 -72 69.5 -118t90.5 -46q29 0 48 18.5t25 52.5q12 57 13 113v399q0 76 -15 193q-12 129 -12 195v14q0 33 -2 59l-2 60 q0 57 -6 174q-8 104 -9 176q0 23 24 39t52 16l51 -47v-35q0 -25 -8 -59q-8 -57 -8 -66q0 -186 21 -514q18 -344 18 -534q0 -102 -20 -180q-12 -47 -34 -76t-59 -49q-35 -20 -90 -21q-126 0 -200 111q-80 113 -113 276q-37 174 -47 373q-10 180 -10 391v170q2 72 2 152 q-16 16 -17 41zM245 1864q0 12 11.5 21t27.5 9q23 0 41.5 -26.5t28.5 -63.5t26.5 -63.5t32.5 -26.5q33 0 51.5 30.5t18.5 63.5q0 41 12.5 59.5t44.5 18.5q23 0 39.5 -15.5t16.5 -35.5q0 -27 -4 -51q-16 -74 -59.5 -119t-112.5 -45q-48 0 -83.5 21.5t-54.5 60.5 q-37 72 -37 162z" />
<glyph unicode="&#x16d;" horiz-adv-x="739" d="M100 1307q18 43 43 43t44.5 -37t19.5 -80v-557q0 -82 14 -217q14 -168 15 -217q0 -152 129 -152q147 0 147 1102v115v18q-2 6 -2 16q0 25 11 36.5t44 11.5q27 0 42.5 -15.5t19.5 -36.5q2 -12 2 -47q0 -33 -6 -104q-8 -59 -9 -103q0 -47 -4 -84l-4 -86v-16q2 -8 2 -18 q0 -909 -264 -910q-49 0 -88 21.5t-63 62.5q-49 86 -64 195q-14 94 -14 225q-6 221 -6 541l-3 157q-2 12 -2 41q-4 78 -4 95zM163 1723q0 12 11.5 21t27.5 9q23 0 41.5 -26.5t28.5 -63.5t26.5 -63.5t32.5 -26.5q33 0 51.5 30.5t18.5 63.5q0 41 12.5 59.5t44.5 18.5 q23 0 39.5 -15.5t16.5 -35.5q0 -27 -4 -51q-16 -74 -59.5 -119t-112.5 -45q-48 0 -83.5 21.5t-54.5 60.5q-37 72 -37 162z" />
<glyph unicode="&#x16e;" horiz-adv-x="821" d="M94 1477q0 25 18.5 44t41.5 19q74 0 73 -145q0 -94 11 -357q10 -262 10 -356q10 -27 19 -106.5t9 -131.5q0 -45 14.5 -111.5t41.5 -133.5q27 -72 69.5 -118t90.5 -46q29 0 48 18.5t25 52.5q12 57 13 113v399q0 76 -15 193q-12 129 -12 195v14q0 33 -2 59l-2 60 q0 57 -6 174q-8 104 -9 176q0 23 24 39t52 16l51 -47v-35q0 -25 -8 -59q-8 -57 -8 -66q0 -186 21 -514q18 -344 18 -534q0 -102 -20 -180q-12 -47 -34 -76t-59 -49q-35 -20 -90 -21q-126 0 -200 111q-80 113 -113 276q-37 174 -47 373q-10 180 -10 391v170q2 72 2 152 q-16 16 -17 41zM207 1757q0 72 46 119t118 47q94 0 143 -39q43 -35 58 -86q4 -29 4 -41q0 -49 -23 -96q-29 -66 -96 -95q-35 -14 -86 -14q-47 0 -81 19.5t-50 52.5q-33 66 -33 133zM287 1716q0 -29 28.5 -57.5t63.5 -28.5t61.5 13t41.5 36q20 33 20 74q0 39 -30.5 67.5 t-90.5 28.5q-47 0 -70.5 -37t-23.5 -96z" />
<glyph unicode="&#x16f;" horiz-adv-x="739" d="M100 1307q18 43 43 43t44.5 -37t19.5 -80v-557q0 -82 14 -217q14 -168 15 -217q0 -152 129 -152q147 0 147 1102v115v18q-2 6 -2 16q0 25 11 36.5t44 11.5q27 0 42.5 -15.5t19.5 -36.5q2 -12 2 -47q0 -33 -6 -104q-8 -59 -9 -103q0 -47 -4 -84l-4 -86v-16q2 -8 2 -18 q0 -909 -264 -910q-49 0 -88 21.5t-63 62.5q-49 86 -64 195q-14 94 -14 225q-6 221 -6 541l-3 157q-2 12 -2 41q-4 78 -4 95zM156 1657q0 72 46 119t118 47q94 0 143 -39q43 -35 58 -86q4 -29 4 -41q0 -49 -23 -96q-29 -66 -96 -95q-35 -14 -86 -14q-47 0 -81 19.5t-50 52.5 q-33 66 -33 133zM236 1616q0 -29 28.5 -57.5t63.5 -28.5t61.5 13t41.5 36q20 33 20 74q0 39 -30.5 67.5t-90.5 28.5q-47 0 -70.5 -37t-23.5 -96z" />
<glyph unicode="&#x170;" horiz-adv-x="821" d="M94 1477q0 25 18.5 44t41.5 19q74 0 73 -145q0 -94 11 -357q10 -262 10 -356q10 -27 19 -106.5t9 -131.5q0 -45 14.5 -111.5t41.5 -133.5q27 -72 69.5 -118t90.5 -46q29 0 48 18.5t25 52.5q12 57 13 113v399q0 76 -15 193q-12 129 -12 195v14q0 33 -2 59l-2 60 q0 57 -6 174q-8 104 -9 176q0 23 24 39t52 16l51 -47v-35q0 -25 -8 -59q-8 -57 -8 -66q0 -186 21 -514q18 -344 18 -534q0 -102 -20 -180q-12 -47 -34 -76t-59 -49q-35 -20 -90 -21q-126 0 -200 111q-80 113 -113 276q-37 174 -47 373q-10 180 -10 391v170q2 72 2 152 q-16 16 -17 41zM202 1583v12q2 29 68 133.5t143 202.5q74 90 90 90q18 0 34 -11.5t16 -25.5q0 -43 -72 -137t-164 -178q-82 -76 -115 -86zM460 1622q0 25 86 123q96 109 181 188q94 88 116 88q20 0 39 -14.5t25 -32.5q-12 -31 -98 -113t-186.5 -162.5t-141.5 -103.5 q-21 0 -21 27z" />
<glyph unicode="&#x171;" horiz-adv-x="739" d="M100 1307q18 43 43 43t44.5 -37t19.5 -80v-557q0 -82 14 -217q14 -168 15 -217q0 -152 129 -152q147 0 147 1102v115v18q-2 6 -2 16q0 25 11 36.5t44 11.5q27 0 42.5 -15.5t19.5 -36.5q2 -12 2 -47q0 -33 -6 -104q-8 -59 -9 -103q0 -47 -4 -84l-4 -86v-16q2 -8 2 -18 q0 -909 -264 -910q-49 0 -88 21.5t-63 62.5q-49 86 -64 195q-14 94 -14 225q-6 221 -6 541l-3 157q-2 12 -2 41q-4 78 -4 95zM168 1432v12q2 29 68 133.5t143 202.5q74 90 90 90q18 0 34 -11.5t16 -25.5q0 -43 -72 -137t-164 -178q-82 -76 -115 -86zM426 1471q0 25 86 123 q96 109 181 188q94 88 116 88q20 0 39 -14.5t25 -32.5q-12 -31 -98 -113t-186.5 -162.5t-141.5 -103.5q-21 0 -21 27z" />
<glyph unicode="&#x172;" horiz-adv-x="821" d="M94 1477q0 25 18.5 44t41.5 19q74 0 73 -145q0 -94 11 -357q10 -262 10 -356q10 -27 19 -106.5t9 -131.5q0 -45 14.5 -111.5t41.5 -133.5q27 -72 69.5 -118t90.5 -46q29 0 48 18.5t25 52.5q12 57 13 113v399q0 76 -15 193q-12 129 -12 195v14q0 33 -2 59l-2 60 q0 57 -6 174q-8 104 -9 176q0 23 24 39t52 16l51 -47v-35q0 -25 -8 -59q-8 -57 -8 -66q0 -186 21 -514q18 -344 18 -534q0 -102 -20 -180q-12 -47 -34 -76t-59 -49q-35 -20 -90 -21q-126 0 -200 111q-80 113 -113 276q-37 174 -47 373q-10 180 -10 391v170q2 72 2 152 q-16 16 -17 41zM471 -244q0 76 51.5 142.5t133.5 113.5h84q-178 -137 -178 -241q0 -51 36 -52q31 0 76 33l23 -59q-14 -20 -50 -40t-65 -20q-53 0 -82 38t-29 85z" />
<glyph unicode="&#x173;" horiz-adv-x="739" d="M100 1307q18 43 43 43t44.5 -37t19.5 -80v-557q0 -82 14 -217q14 -168 15 -217q0 -152 129 -152q147 0 147 1102v115v18q-2 6 -2 16q0 25 11 36.5t44 11.5q27 0 42.5 -15.5t19.5 -36.5q2 -12 2 -47q0 -33 -6 -104q-8 -59 -9 -103q0 -47 -4 -84l-4 -86v-16q2 -8 2 -18 q0 -909 -264 -910q-49 0 -88 21.5t-63 62.5q-49 86 -64 195q-14 94 -14 225q-6 221 -6 541l-3 157q-2 12 -2 41q-4 78 -4 95zM161 -244q0 76 51.5 142.5t133.5 113.5h84q-178 -137 -178 -241q0 -51 36 -52q31 0 76 33l23 -59q-14 -20 -50 -40t-65 -20q-53 0 -82 38t-29 85z " />
<glyph unicode="&#x174;" horiz-adv-x="1011" d="M59 1491q27 49 72 49q47 0 88 -213q39 -225 66 -516l14 -166q12 -139 14 -141l21 172l12 106q27 233 35 330q10 127 10 174v39q0 23 16.5 43.5t36.5 20.5q74 0 74 -62v-31q0 -117 23.5 -251t68.5 -320q29 -109 58 -264q6 68 39 327q33 238 48 405t15 312q0 47 15.5 66.5 t58.5 19.5q25 0 44 -15t19 -40q0 -23 -20 -47q0 -147 -22.5 -345t-55.5 -376q-33 -174 -55.5 -373.5t-22.5 -351.5q0 -33 -15.5 -52.5t-45.5 -19.5q-23 0 -54 84q-39 117 -96 465l-37 240l-18 133q-27 -186 -40 -300t-26 -269q-14 -150 -14 -295q0 -20 -17.5 -39t-39.5 -19 q-76 0 -76 156q0 98 -85 703.5t-108 660.5zM328 1641q0 12 4 18l71 181q8 16 24.5 55t24.5 53q23 37 48 49q16 4 28 4q16 0 29 -18q29 -45 51 -139l27 -99q18 -74 26 -98q2 -6 2 -18q0 -18 -14 -30.5t-33 -12.5q-20 0 -24 14l-80 276l-105 -262q-6 -14 -28 -14 q-20 0 -35.5 11t-15.5 30z" />
<glyph unicode="&#x175;" horiz-adv-x="878" d="M59 1292q18 37 60 37q66 0 65 -135q0 -160 43 -467q43 -305 49 -444l11 69q20 137 35.5 259t25.5 263q14 158 14 312l56 24q27 0 44 -13t17 -38v-16q33 -115 54.5 -251t37.5 -321q12 -141 29 -264q39 274 39 676q0 63 16 156q14 94 15 153q-6 18 -6 35q0 49 61 49 q25 0 39 -12t14 -35v-31q0 -31 -6 -53v-10q-27 -82 -27 -188v-150q0 -129 -30 -385q-33 -250 -33 -373v-37q0 -47 -10 -79q-12 -41 -60 -41q-33 0 -50 21.5t-17 53.5q0 166 -35 430q-18 119 -39 240l-33 215q-8 -59 -8 -117q0 -115 -16.5 -303t-51.5 -366q-39 -199 -88 -199 q-40 0 -71 123q-27 109 -44.5 269.5t-35.5 406.5q-10 160 -29 342q-14 152 -35 194zM271 1405q0 12 4 18l71 181q8 16 24.5 55t24.5 53q23 37 48 49q16 4 28 4q16 0 29 -18q29 -45 51 -139l27 -99q18 -74 26 -98q2 -6 2 -18q0 -18 -14 -30.5t-33 -12.5q-20 0 -24 14l-80 276 l-105 -262q-6 -14 -28 -14q-20 0 -35.5 11t-15.5 30z" />
<glyph unicode="&#x176;" horiz-adv-x="542" d="M31 1513q0 14 16 24.5t35 10.5q23 0 43 -47q25 -53 47.5 -149.5t26.5 -114.5l26 -141l21 -90q6 33 10 86q12 170 31 282q14 78 32 119q20 45 50 45q55 0 55 -20q0 -117 -49 -344t-49 -347l-4 -32q-4 -31 -3 -37v-33q0 -88 7 -270l4 -273l4 -47l4 -49v-51 q0 -25 -20.5 -42.5t-49.5 -17.5q-20 0 -35.5 14.5t-15.5 35.5l4 198q6 133 6 199q0 59 -18 176q-20 115 -21 178q0 78 -22.5 178.5t-56.5 192.5q-33 88 -55.5 189.5t-22.5 176.5zM154 1641q0 12 4 18l71 181q8 16 24.5 55t24.5 53q23 37 48 49q16 4 28 4q16 0 29 -18 q29 -45 51 -139l27 -99q18 -74 26 -98q2 -6 2 -18q0 -18 -14 -30.5t-33 -12.5q-20 0 -24 14l-80 276l-105 -262q-6 -14 -28 -14q-20 0 -35.5 11t-15.5 30z" />
<glyph unicode="&#x177;" horiz-adv-x="579" d="M35 1288v10l47 35q35 -4 74 -90q33 -76 72.5 -217t39.5 -149q8 23 33 153q25 131 55 232q35 100 72 100q20 0 35.5 -12.5t15.5 -30.5q0 -104 -57 -295q-61 -207 -62 -299v-616q0 -137 -67 -138q-34 0 -57 45q23 43 22 349q0 72 -10 155l-6 60q-6 55 -6 84v53 q-20 51 -75 190.5t-87 233.5q-39 109 -39 147zM123 1405q0 12 4 18l71 181q8 16 24.5 55t24.5 53q23 37 48 49q16 4 28 4q16 0 29 -18q29 -45 51 -139l27 -99q18 -74 26 -98q2 -6 2 -18q0 -18 -14 -30.5t-33 -12.5q-20 0 -24 14l-80 276l-105 -262q-6 -14 -28 -14 q-20 0 -35.5 11t-15.5 30z" />
<glyph unicode="&#x178;" horiz-adv-x="542" d="M31 1513q0 14 16 24.5t35 10.5q23 0 43 -47q25 -53 47.5 -149.5t26.5 -114.5l26 -141l21 -90q6 33 10 86q12 170 31 282q14 78 32 119q20 45 50 45q55 0 55 -20q0 -117 -49 -344t-49 -347l-4 -32q-4 -31 -3 -37v-33q0 -88 7 -270l4 -273l4 -47l4 -49v-51 q0 -25 -20.5 -42.5t-49.5 -17.5q-20 0 -35.5 14.5t-15.5 35.5l4 198q6 133 6 199q0 59 -18 176q-20 115 -21 178q0 78 -22.5 178.5t-56.5 192.5q-33 88 -55.5 189.5t-22.5 176.5zM81 1679q0 31 24 54.5t54 23.5q29 0 50.5 -23.5t21.5 -52.5q0 -33 -22.5 -54.5t-57.5 -21.5 q-26 0 -48 22.5t-22 51.5zM411 1669q0 31 23.5 54t54.5 23q29 0 51.5 -23.5t22.5 -51.5q0 -33 -23.5 -54.5t-58.5 -21.5q-27 0 -48.5 22.5t-21.5 51.5z" />
<glyph unicode="&#x179;" horiz-adv-x="534" d="M49 31q45 70 103.5 372t99.5 625q41 317 45 422l-74 -6q-14 -2 -43 -2q-111 0 -110 63v11l26 32v2q25 -8 60 -8q33 0 96 12q72 10 96 11q25 0 40 -17.5t15 -42.5q0 -539 -227 -1419l45 2q27 4 64 4q109 0 108 -61v-11l-33 -30l-124 -4q-57 -4 -127 -4q-37 0 -60 49z M207 1613q0 10 10 21l33 29q10 10 115 100l120 104q8 4 19 4q25 0 45 -24.5t20 -50.5q0 -25 -14 -33q-74 -57 -299 -172q-4 -4 -16 -4q-13 0 -23 7t-10 19z" />
<glyph unicode="&#x17a;" horiz-adv-x="598" d="M100 43q0 123 48.5 323.5t140.5 495.5q92 305 114 393q-25 0 -79 -6q-55 -6 -88 -6q-20 0 -37 17.5t-17 39.5q0 59 226 60q102 0 102 -57q0 -66 -45 -195q-43 -115 -53 -174q-20 -145 -107 -475l-90 -355h37l43 5q18 2 43 2v2q82 0 82 -52q0 -23 -20.5 -36t-51.5 -13 q-33 0 -59 2l-62 4q-12 0 -34 -12q-27 -10 -37 -10q-23 0 -39.5 13.5t-16.5 33.5zM309 1448q0 10 10 21l33 29q10 10 115 100l120 104q8 4 19 4q25 0 45 -24.5t20 -50.5q0 -25 -14 -33q-74 -57 -299 -172q-4 -4 -16 -4q-13 0 -23 7t-10 19z" />
<glyph unicode="&#x17b;" horiz-adv-x="534" d="M49 31q45 70 103.5 372t99.5 625q41 317 45 422l-74 -6q-14 -2 -43 -2q-111 0 -110 63v11l26 32v2q25 -8 60 -8q33 0 96 12q72 10 96 11q25 0 40 -17.5t15 -42.5q0 -539 -227 -1419l45 2q27 4 64 4q109 0 108 -61v-11l-33 -30l-124 -4q-57 -4 -127 -4q-37 0 -60 49z M193 1710q0 31 22.5 54.5t53.5 23.5q29 0 51 -23.5t22 -52.5q0 -33 -23.5 -54.5t-58.5 -21.5q-26 0 -46.5 22.5t-20.5 51.5z" />
<glyph unicode="&#x17c;" horiz-adv-x="598" d="M100 43q0 123 48.5 323.5t140.5 495.5q92 305 114 393q-25 0 -79 -6q-55 -6 -88 -6q-20 0 -37 17.5t-17 39.5q0 59 226 60q102 0 102 -57q0 -66 -45 -195q-43 -115 -53 -174q-20 -145 -107 -475l-90 -355h37l43 5q18 2 43 2v2q82 0 82 -52q0 -23 -20.5 -36t-51.5 -13 q-33 0 -59 2l-62 4q-12 0 -34 -12q-27 -10 -37 -10q-23 0 -39.5 13.5t-16.5 33.5zM284 1518q0 31 23.5 54.5t54.5 23.5q29 0 50.5 -23.5t21.5 -54.5q0 -33 -22.5 -53.5t-57.5 -20.5q-27 0 -48.5 22.5t-21.5 51.5z" />
<glyph unicode="&#x17d;" horiz-adv-x="534" d="M49 31q45 70 103.5 372t99.5 625q41 317 45 422l-74 -6q-14 -2 -43 -2q-111 0 -110 63v11l26 32v2q25 -8 60 -8q33 0 96 12q72 10 96 11q25 0 40 -17.5t15 -42.5q0 -539 -227 -1419l45 2q27 4 64 4q109 0 108 -61v-11l-33 -30l-124 -4q-57 -4 -127 -4q-37 0 -60 49z M110 1991q0 16 15.5 28.5t33.5 12.5q23 0 52 -59q20 -47 51 -152l26 -94q6 49 9 67q2 18 8 68.5t16 91.5q16 84 58 84q18 0 30.5 -12t12.5 -31q0 -6 -9 -16l-8 -15v-37l-29 -112q-29 -119 -28 -146q0 -66 -51 -65q-25 0 -70 79t-81 175t-36 133z" />
<glyph unicode="&#x17e;" horiz-adv-x="598" d="M100 43q0 123 48.5 323.5t140.5 495.5q92 305 114 393q-25 0 -79 -6q-55 -6 -88 -6q-20 0 -37 17.5t-17 39.5q0 59 226 60q102 0 102 -57q0 -66 -45 -195q-43 -115 -53 -174q-20 -145 -107 -475l-90 -355h37l43 5q18 2 43 2v2q82 0 82 -52q0 -23 -20.5 -36t-51.5 -13 q-33 0 -59 2l-62 4q-12 0 -34 -12q-27 -10 -37 -10q-23 0 -39.5 13.5t-16.5 33.5zM205 1794q0 16 15.5 28.5t33.5 12.5q23 0 52 -59q20 -47 51 -152l26 -94q6 49 9 67q2 18 8 68.5t16 91.5q16 84 58 84q18 0 30.5 -12t12.5 -31q0 -6 -9 -16l-8 -15v-37l-29 -112 q-29 -119 -28 -146q0 -66 -51 -65q-25 0 -70 79t-81 175t-36 133z" />
<glyph unicode="&#x18f;" horiz-adv-x="913" d="M90 453v63q0 178 76 279.5t219 101.5h14l281 -12q2 72 2 170q0 195 -64.5 321.5t-177.5 126.5q-117 0 -266 -141q-6 -8 -18 -8q-18 0 -28.5 16t-10.5 39v6q4 12 16 23q174 141 326 141q109 0 189.5 -74.5t123.5 -204.5q41 -127 41 -280v-377q0 -211 -47 -360.5t-134 -226 t-202 -76.5q-178 0 -259 116.5t-81 356.5zM219 414q0 -354 182 -355q29 1 60 9q106 29 159.5 156.5t53.5 367.5v8q0 84 4 207h-287q-39 0 -58.5 -5t-43.5 -24q-47 -37 -62 -190q-8 -94 -8 -174z" />
<glyph unicode="&#x192;" horiz-adv-x="1310" d="M313 -166q0 29 23 45l84 10v15q8 2 30.5 6t35 8t22.5 10q16 12 23.5 23.5t15.5 40.5q6 33 9 78t3 63q0 39 4 98l10 215l9 213l-80 -4q-27 0 -47.5 17.5t-20.5 42.5q0 47 154 67v56l2 139q6 209 12 262l2 45q0 61 4 101t17 79q20 72 86 111q33 16 84 27.5t84 11.5l16 2h12 q20 0 35.5 -14.5t15.5 -38.5q0 -63 -100 -76q-61 -8 -92 -28.5t-41 -62.5t-10 -124q0 -6 -1 -26.5t-1 -67.5q-4 -106 -4 -131l-9 -252q86 4 109 4q27 0 47.5 -17.5t20.5 -42.5q0 -49 -183 -71v-27l-20 -444q-4 -45 -4 -80q0 -152 -42 -229.5t-147 -100.5q-59 -12 -86 -12 q-82 0 -82 59z" />
<glyph unicode="&#x19d;" horiz-adv-x="843" d="M-43 -326q0 27 18.5 48.5t47.5 33.5q6 4 29.5 15.5t41 26t29.5 30.5q16 27 16 59l2 72v74l-6 143q0 109 -12 344q-12 240 -12 291v262q0 63 6 189q8 109 8 188v12q0 102 45 103q27 0 68 -90q68 -147 172 -529q59 -221 139 -569q-2 8 33 -141l2 -11q0 199 4 357l4 356v606 q8 51 65 51q55 0 56 -79v-13q-12 -25 -13 -59q0 -125 -6 -377q-6 -254 -6 -381v-625q0 -33 -17.5 -62.5t-41.5 -29.5q-41 0 -168 422q-143 494 -248 907v-671q0 -86 16 -293q14 -225 15 -291q0 -119 -6 -164q-2 -10 -4.5 -31.5t-6.5 -35t-12 -27.5q-12 -25 -19.5 -35 t-25.5 -29q-25 -23 -37 -28l-100 -80q-33 0 -54.5 16.5t-21.5 44.5z" />
<glyph unicode="&#x1a0;" horiz-adv-x="761" d="M90 1038q0 123 10 217q8 98 41 195q33 84 95 119q37 16 73 16q35 0 60 -8v2q18 -4 60 -8t67 -4q55 0 73.5 16t18.5 49q0 18 -8.5 44t-8.5 34q0 18 19.5 27.5t50.5 9.5q43 0 61.5 -20.5t18.5 -63.5q0 -84 -63.5 -134t-143.5 -50h-18q55 -82 77 -195q33 -143 37 -274 q8 -145 8 -275v-117q0 -35 -10 -131q-8 -76 -8 -129v-8q-12 -57 -12 -135q0 -57 -24.5 -118.5t-69.5 -104.5q-45 -49 -103 -49q-55 0 -100 36.5t-78 100.5q-59 111 -88 303q-20 133 -31 307l-2 109v110q-2 53 -2 129zM184 852q0 -137 29 -338q33 -272 96 -387q41 -72 86 -72 q41 0 70 76q25 68 36 165t19 220q4 53 4 137l-2 189q-4 110 -24 276q-16 141 -62 250q-20 51 -51 80t-66 29q-51 0 -75 -80q-31 -84 -41 -185q-12 -109 -15 -206l-2 -68q-2 -29 -2 -78v-8z" />
<glyph unicode="&#x1a1;" horiz-adv-x="737" d="M100 627q0 25 2 41v37q0 10 -2 10v37l2 143q2 66 17 209q10 98 47 190q14 41 36.5 62.5t51.5 21.5q51 0 94 -12q49 -8 90 -8t67.5 18.5t26.5 46.5q0 18 -8 44t-8 34q0 37 72 37q78 0 78 -84q0 -70 -48.5 -118t-115.5 -60l10 -10q41 -51 69.5 -126t41.5 -159 q12 -86 12 -182v-17q0 -63 2 -114l2 -117q0 -590 -274 -590q-53 0 -98.5 34t-73.5 91q-59 125 -74 272q-18 139 -19 269zM213 717q0 -111 6 -219q8 -154 41 -299q33 -152 96 -152q37 0 68 29.5t47 81.5q39 104 47 225q10 104 10 180q0 92 -14 242q-12 158 -12 235v37 q-4 78 -52.5 135.5t-117.5 57.5q-70 0 -92 -80q-20 -63 -21 -164q0 -39 2 -65v-56l-4 -94q-4 -43 -4 -94z" />
<glyph unicode="&#x1af;" horiz-adv-x="872" d="M94 1477q0 25 18.5 44t41.5 19q74 0 73 -145q0 -94 11 -357q10 -262 10 -356q10 -27 19 -106.5t9 -131.5q0 -45 14.5 -111.5t41.5 -133.5q27 -72 69.5 -118t90.5 -46q29 0 48 18.5t25 52.5q12 57 13 113v399q0 76 -15 193q-12 129 -12 195v14q0 33 -2 59l-2 60 q0 57 -6 174q-8 104 -9 176q0 23 24 39t52 16l51 -47v-35q0 -25 -8 -59q-8 -57 -8 -66q0 -186 21 -514q18 -344 18 -534q0 -102 -20 -180q-12 -47 -34 -76t-59 -49q-35 -20 -90 -21q-126 0 -200 111q-80 113 -113 276q-37 174 -47 373q-10 180 -10 391v170q2 72 2 152 q-16 16 -17 41zM591 1427v82q20 -12 48 -12q27 0 43 18.5t16 46.5q0 18 -8 44t-8 34q0 37 71 37q78 0 78 -84q0 -82 -53 -132t-121 -50q-46 0 -66 16z" />
<glyph unicode="&#x1b0;" horiz-adv-x="833" d="M100 1307q18 43 43 43t44.5 -37t19.5 -80v-557q0 -82 14 -217q14 -168 15 -217q0 -152 129 -152q147 0 147 1102v115v18q-2 6 -2 16q0 25 11 36.5t44 11.5q27 0 42.5 -15.5t19.5 -36.5q2 -12 2 -47q0 -33 -6 -104q-8 -59 -9 -103q0 -47 -4 -84l-4 -86v-16q2 -8 2 -18 q0 -909 -264 -910q-49 0 -88 21.5t-63 62.5q-49 86 -64 195q-14 94 -14 225q-6 221 -6 541l-3 157q-2 12 -2 41q-4 78 -4 95zM587 1292v82q20 -12 48 -12q27 0 43 18.5t16 46.5q0 18 -8 44t-8 34q0 37 71 37q78 0 78 -84q0 -82 -53 -132t-121 -50q-46 0 -66 16z" />
<glyph unicode="&#x1c4;" horiz-adv-x="1310" d="M94 1481q0 72 158 71h31q111 0 192 -67q66 -57 111 -166q31 -74 53 -205q12 -115 12 -180v-66v-96q-4 -8 -4 -16q0 -16 2 -25q2 -8 2 -20q0 -66 -19.5 -157t-56.5 -185q-92 -225 -206 -320q-68 -53 -142 -53q-41 0 -70.5 18.5t-29.5 51.5q45 45 45 239q0 117 -18 340 q-20 213 -21 336l4 113q2 49 2 112q0 57 -20 146q-25 92 -25 129zM221 1427q0 -184 25 -557q25 -371 24 -561v-194q76 47 133.5 136t88.5 198q55 201 55 405q0 111 -21 242q-23 127 -96 229q-35 49 -88 77t-121 28v-3zM825 31q45 70 103.5 372t99.5 625q41 317 45 422 l-74 -6q-14 -2 -43 -2q-111 0 -110 63v11l26 32v2q25 -8 60 -8q33 0 96 12q72 10 96 11q25 0 40 -17.5t15 -42.5q0 -539 -227 -1419l45 2q27 4 64 4q109 0 108 -61v-11l-33 -30l-124 -4q-57 -4 -127 -4q-37 0 -60 49zM887 1991q0 16 15.5 28.5t33.5 12.5q23 0 52 -59 q20 -47 51 -152l26 -94q6 49 9 67q2 18 8 68.5t16 91.5q16 84 58 84q18 0 30.5 -12t12.5 -31q0 -6 -9 -16l-8 -15v-37l-29 -112q-29 -119 -28 -146q0 -66 -51 -65q-25 0 -70 79t-81 175t-36 133z" />
<glyph unicode="&#x1c5;" horiz-adv-x="1374" d="M94 1481q0 72 158 71h31q111 0 192 -67q66 -57 111 -166q31 -74 53 -205q12 -115 12 -180v-66v-96q-4 -8 -4 -16q0 -16 2 -25q2 -8 2 -20q0 -66 -19.5 -157t-56.5 -185q-92 -225 -206 -320q-68 -53 -142 -53q-41 0 -70.5 18.5t-29.5 51.5q45 45 45 239q0 117 -18 340 q-20 213 -21 336l4 113q2 49 2 112q0 57 -20 146q-25 92 -25 129zM221 1427q0 -184 25 -557q25 -371 24 -561v-194q76 47 133.5 136t88.5 198q55 201 55 405q0 111 -21 242q-23 127 -96 229q-35 49 -88 77t-121 28v-3zM876 43q0 123 48.5 323.5t140.5 495.5q92 305 114 393 q-25 0 -79 -6q-55 -6 -88 -6q-20 0 -37 17.5t-17 39.5q0 59 226 60q102 0 102 -57q0 -66 -45 -195q-43 -115 -53 -174q-20 -145 -107 -475l-90 -355h37l43 5q18 2 43 2v2q82 0 82 -52q0 -23 -20.5 -36t-51.5 -13q-33 0 -59 2l-62 4q-12 0 -34 -12q-27 -10 -37 -10 q-23 0 -39.5 13.5t-16.5 33.5zM981 1804q0 16 15.5 28.5t33.5 12.5q23 0 52 -59q20 -47 51 -152l26 -94q6 49 9 67q2 18 8 68.5t16 91.5q16 84 58 84q18 0 30.5 -12t12.5 -31q0 -6 -9 -16l-8 -15v-37l-29 -112q-29 -119 -28 -146q0 -66 -51 -65q-25 0 -70 79t-81 175 t-36 133z" />
<glyph unicode="&#x1c6;" horiz-adv-x="1306" d="M121 1286q0 27 22.5 47.5t49.5 20.5q72 0 138 -32t118 -89q109 -125 143 -275q18 -76 18 -149q0 -27 -2 -49l-2 -55v-113q0 -131 -8 -207q-12 -102 -47 -182q-41 -86 -119 -154q-37 -31 -94 -61h-148q-53 0 -53 268l4 324q2 143 2 321q0 66 -12 203q-10 150 -10 182z M250 1044q0 -129 16 -450q14 -285 15 -453v-49q41 0 75.5 21.5t59.5 58.5q20 33 37.5 83t25.5 97q18 92 23 189q2 25 2 71q0 618 -240 645q-14 -92 -14 -213zM809 43q0 123 48.5 323.5t140.5 495.5q92 305 114 393q-25 0 -79 -6q-55 -6 -88 -6q-20 0 -37 17.5t-17 39.5 q0 59 226 60q102 0 102 -57q0 -66 -45 -195q-43 -115 -53 -174q-20 -145 -107 -475l-90 -355h37l43 5q18 2 43 2v2q82 0 82 -52q0 -23 -20.5 -36t-51.5 -13q-33 0 -59 2l-62 4q-12 0 -34 -12q-27 -10 -37 -10q-23 0 -39.5 13.5t-16.5 33.5zM897 1794q0 16 15.5 28.5 t33.5 12.5q23 0 52 -59q20 -47 51 -152l26 -94q6 49 9 67q2 18 8 68.5t16 91.5q16 84 58 84q18 0 30.5 -12t12.5 -31q0 -6 -9 -16l-8 -15v-37l-29 -112q-29 -119 -28 -146q0 -66 -51 -65q-25 0 -70 79t-81 175t-36 133z" />
<glyph unicode="&#x1c7;" horiz-adv-x="1060" d="M121 1530q0 18 14.5 29.5t34.5 11.5q25 0 43 -17.5t18 -42.5q0 -123 13 -368q10 -272 10 -369l2 -24v-25v-14v-11q6 -178 6 -532v-53h158q43 -31 43 -62q0 -23 -15.5 -40t-35.5 -17q-6 0 -23 4l-8 2q-12 -2 -39 -2h-35q-14 2 -33 2q-20 -25 -57 -25q-27 0 -48.5 19.5 t-21.5 46.5q0 18 9 45q6 29 6 43q0 182 -21 700q-20 442 -20 699zM553 1481q0 72 244 71h26q29 0 45.5 -3t30.5 -15q16 -12 16 -37q0 -53 -86 -53h-1t-1 2h-4h-26v-16q0 -53 12 -158q10 -119 10 -160q0 -145 21 -397q16 -238 16 -400v-82v-81q0 -123 -52 -218.5t-147 -128.5 q-32 0 -52.5 16.5t-20.5 47.5q0 23 24.5 47.5t55.5 36.5q31 39 56 121t25 168l3 100q2 43 2 98l-2 84l-11 207q-14 406 -45 715q-6 -4 -26 -6q-33 -10 -62 -10q-20 0 -35.5 15t-15.5 36z" />
<glyph unicode="&#x1c8;" horiz-adv-x="1032" d="M121 1530q0 18 14.5 29.5t34.5 11.5q25 0 43 -17.5t18 -42.5q0 -123 13 -368q10 -272 10 -369l2 -24v-25v-14v-11q6 -178 6 -532v-53h158q43 -31 43 -62q0 -23 -15.5 -40t-35.5 -17q-6 0 -23 4l-8 2q-12 -2 -39 -2h-35q-14 2 -33 2q-20 -25 -57 -25q-27 0 -48.5 19.5 t-21.5 46.5q0 18 9 45q6 29 6 43q0 182 -21 700q-20 442 -20 699zM508 -152q2 8 2 19q0 8 29 20q98 31 133 68q57 63 57 231q0 135 -10 525q-12 342 -12 522v8q-6 0 -19.5 2t-30.5 2q-37 4 -59 10q-31 8 -43 21q-4 8 -4 16q0 18 21.5 32.5t43.5 14.5q102 0 233.5 -14 t131.5 -33q0 -20 -15.5 -33.5t-39.5 -13.5h-105q0 -109 10 -432q10 -240 11 -430v-219q0 -72 -11 -121q-14 -76 -57 -131q-45 -63 -135 -90q-45 -14 -109 -15q-22 0 -22 25v16z" />
<glyph unicode="&#x1c9;" horiz-adv-x="1069" d="M129 39q0 172 14 459q12 305 13 456v15q-12 129 -13 192q0 195 72 195q20 0 35.5 -15.5t15.5 -35.5q0 -25 -6 -78q-6 -51 -6 -78q0 -137 2 -248q2 -109 2 -246q-10 -31 -10 -86v-24l-4 -162q-4 -72 -4 -164q0 -141 67 -141q4 0 13.5 1t25.5 1q18 2 47 2q111 0 111 -62 q0 -20 -18.5 -34.5t-45.5 -18.5q-73 25 -182 25q-33 -20 -70 -21q-25 0 -42 21.5t-17 46.5zM545 -152q2 8 2 19q0 8 29 20q98 31 133 68q57 63 57 231q0 135 -10 525q-12 342 -12 522v8q-6 0 -19.5 2t-30.5 2q-37 4 -59 10q-31 8 -43 21q-4 8 -4 16q0 18 21.5 32.5 t43.5 14.5q102 0 233.5 -14t131.5 -33q0 -20 -15.5 -33.5t-39.5 -13.5h-105q0 -109 10 -432q10 -240 11 -430v-219q0 -72 -11 -121q-14 -76 -57 -131q-45 -63 -135 -90q-45 -14 -109 -15q-22 0 -22 25v16z" />
<glyph unicode="&#x1ca;" horiz-adv-x="1392" d="M111 811v262q0 63 6 189q8 109 8 188v12q0 102 45 103q27 0 68 -90q68 -147 172 -529q59 -221 139 -569q-2 8 33 -141l2 -11q0 199 4 357l4 356v606q8 51 65 51q55 0 56 -79v-13q-12 -25 -13 -59q0 -125 -6 -377q-6 -254 -6 -381v-625q0 -33 -17.5 -62.5t-41.5 -29.5 q-41 0 -168 422q-143 494 -248 907v-671q0 -86 16 -293q14 -225 15 -291q0 -18 -22.5 -31.5t-51.5 -13.5q-43 0 -43 33l4 59q4 66 4 86q0 109 -12 344q-12 240 -12 291zM885 1481q0 72 244 71h26q29 0 45.5 -3t30.5 -15q16 -12 16 -37q0 -53 -86 -53h-1t-1 2h-4h-26v-16 q0 -53 12 -158q10 -119 10 -160q0 -145 21 -397q16 -238 16 -400v-82v-81q0 -123 -52 -218.5t-147 -128.5q-32 0 -52.5 16.5t-20.5 47.5q0 23 24.5 47.5t55.5 36.5q31 39 56 121t25 168l3 100q2 43 2 98l-2 84l-11 207q-14 406 -45 715q-6 -4 -26 -6q-33 -10 -62 -10 q-20 0 -35.5 15t-15.5 36z" />
<glyph unicode="&#x1cb;" horiz-adv-x="1363" d="M111 811v262q0 63 6 189q8 109 8 188v12q0 102 45 103q27 0 68 -90q68 -147 172 -529q59 -221 139 -569q-2 8 33 -141l2 -11q0 199 4 357l4 356v606q8 51 65 51q55 0 56 -79v-13q-12 -25 -13 -59q0 -125 -6 -377q-6 -254 -6 -381v-625q0 -33 -17.5 -62.5t-41.5 -29.5 q-41 0 -168 422q-143 494 -248 907v-671q0 -86 16 -293q14 -225 15 -291q0 -18 -22.5 -31.5t-51.5 -13.5q-43 0 -43 33l4 59q4 66 4 86q0 109 -12 344q-12 240 -12 291zM840 -152q2 8 2 19q0 8 29 20q98 31 133 68q57 63 57 231q0 135 -10 525q-12 342 -12 522v8 q-6 0 -19.5 2t-30.5 2q-37 4 -59 10q-31 8 -43 21q-4 8 -4 16q0 18 21.5 32.5t43.5 14.5q102 0 233.5 -14t131.5 -33q0 -20 -15.5 -33.5t-39.5 -13.5h-105q0 -109 10 -432q10 -240 11 -430v-219q0 -72 -11 -121q-14 -76 -57 -131q-45 -63 -135 -90q-45 -14 -109 -15 q-22 0 -22 25v16z" />
<glyph unicode="&#x1cc;" horiz-adv-x="1501" d="M145 829q0 66 7 191q6 129 6 190q0 96 73 152v-12q12 4 17 4q47 0 119 -164q57 -131 103 -276.5t122 -413.5l20 -74q47 -166 72 -238q41 440 41 1041v26q-2 12 -2 27q0 61 49 61q29 0 44 -22.5t15 -56.5v-154q-4 -315 -24.5 -684t-48.5 -416q-59 -16 -74 -16 q-25 0 -37 13t-18 46l-13 39v4v6q0 68 -140 461t-220 582v-1030l8 -15q2 -4 8.5 -14t6.5 -20q0 -27 -18.5 -45.5t-45.5 -18.5q-66 0 -65 125l-3 350q-2 158 -2 352zM977 -152q2 8 2 19q0 8 29 20q98 31 133 68q57 63 57 231q0 135 -10 525q-12 342 -12 522v8q-6 0 -19.5 2 t-30.5 2q-37 4 -59 10q-31 8 -43 21q-4 8 -4 16q0 18 21.5 32.5t43.5 14.5q102 0 233.5 -14t131.5 -33q0 -20 -15.5 -33.5t-39.5 -13.5h-105q0 -109 10 -432q10 -240 11 -430v-219q0 -72 -11 -121q-14 -76 -57 -131q-45 -63 -135 -90q-45 -14 -109 -15q-22 0 -22 25v16z" />
<glyph unicode="&#x1cd;" horiz-adv-x="716" d="M35 63q23 33 51 193l68 375q45 266 82.5 454.5t80.5 315.5q47 141 91 141q43 0 65 -16q0 -82 39 -396q41 -307 41 -419q0 -109 22 -312q20 -207 21 -329q0 -70 -68 -70q-32 0 -47.5 12.5t-15.5 40.5v269q-27 18 -100.5 32.5t-139.5 18.5q-23 -43 -32 -105l-9 -41 q-2 -14 -12 -63t-22.5 -85t-24.5 -56q-78 0 -90 40zM240 465q86 -25 182 -25q16 0 41 6q-6 90 -21 224q-47 463 -47 567v16q-20 -20 -56 -185t-66.5 -353.5t-32.5 -249.5zM241 1991q0 16 15.5 28.5t33.5 12.5q23 0 52 -59q20 -47 51 -152l26 -94q6 49 9 67q2 18 8 68.5 t16 91.5q16 84 58 84q18 0 30.5 -12t12.5 -31q0 -6 -9 -16l-8 -15v-37l-29 -112q-29 -119 -28 -146q0 -66 -51 -65q-25 0 -70 79t-81 175t-36 133z" />
<glyph unicode="&#x1ce;" horiz-adv-x="612" d="M25 43l4 10l2 8q135 526 205 1039q0 8 2 27.5t4 56.5q6 76 13 121t24 67h69q29 0 49.5 -13t20.5 -38q0 -156 43 -463q41 -315 41 -442q0 -12 10 -64q10 -47 10 -61t21 -123q18 -98 18 -127v-2q0 -45 -33 -57q-47 0 -69.5 14t-22.5 53q0 61 -20 209l-8 43l-203 31 q-12 -47 -35 -191q-12 -100 -39 -133q-14 -18 -41 -18q-25 0 -45 15t-20 38zM200 1835q0 16 15.5 28.5t33.5 12.5q23 0 52 -59q20 -47 51 -152l26 -94q6 49 9 67q2 18 8 68.5t16 91.5q16 84 58 84q18 0 30.5 -12t12.5 -31q0 -6 -9 -16l-8 -15v-37l-29 -112 q-29 -119 -28 -146q0 -66 -51 -65q-25 0 -70 79t-81 175t-36 133zM213 408q31 -20 180 -33q-6 31 -6 76q0 184 -33 471l-20 213q-88 -481 -121 -727z" />
<glyph unicode="&#x1cf;" horiz-adv-x="526" d="M39 2011q0 16 15.5 28.5t33.5 12.5q23 0 52 -59q20 -47 51 -152l26 -94q6 49 9 67q2 18 8 68.5t16 91.5q16 84 58 84q18 0 30.5 -12t12.5 -31q0 -6 -9 -16l-8 -15v-37l-29 -112q-29 -119 -28 -146q0 -66 -51 -65q-25 0 -70 79t-81 175t-36 133zM76 63q0 49 61 50h25 q8 -2 18 -2q16 0 23.5 10t7.5 37q0 174 -21 475q-18 313 -18 473q0 57 2 104l2 105q0 68 -6 112q-23 -8 -47 -8q-47 0 -47 49q0 25 29.5 43.5t76.5 26.5q86 14 146 14q25 0 42 -16t17 -39t-13.5 -39t-33.5 -16q-12 0 -21 2h-16q-20 0 -29.5 -9.5t-9.5 -33.5q0 -217 27 -598 q25 -399 24 -600v-78q14 2 41 2q86 0 86 -72v-12l-51 -35q-2 0 -12 -1t-41 -1q-70 -4 -86 -4q-176 0 -176 61z" />
<glyph unicode="&#x1d0;" horiz-adv-x="462" d="M49 63q0 49 64 50h22l21 -2q16 0 22 10t6 37q0 35 -4 108q-6 49 -14 176q-18 313 -19 473q0 57 3 105l2 104q0 68 -7 113q-33 -8 -47 -8q-49 0 -49 49q0 25 31 43t78 27q82 16 145 16q25 0 42 -17.5t17 -39.5q0 -23 -13 -39.5t-34 -16.5q-12 0 -20 2h-16q-20 0 -29.5 -9 t-9.5 -34q0 -199 24 -598q4 -74 17 -217q10 -94 10 -192v-78q12 2 41 2q86 0 86 -72v-12l-51 -35q-2 0 -13.5 -1t-42.5 -1q-66 -4 -84 -4q-178 0 -178 61zM55 1829q0 16 15.5 28.5t33.5 12.5q23 0 52 -59q20 -47 51 -152l26 -94q6 49 9 67q2 18 8 68.5t16 91.5q16 84 58 84 q18 0 30.5 -12t12.5 -31q0 -6 -9 -16l-8 -15v-37l-29 -112q-29 -119 -28 -146q0 -66 -51 -65q-25 0 -70 79t-81 175t-36 133z" />
</font>
</defs>
</svg>
