<?xml version="1.0" standalone="no"?>
<!DOCTYPE svg PUBLIC "-//W3C//DTD SVG 1.1//EN" "http://www.w3.org/Graphics/SVG/1.1/DTD/svg11.dtd" >
<svg xmlns="http://www.w3.org/2000/svg" xmlns:xlink="http://www.w3.org/1999/xlink" version="1.1">
<metadata></metadata>
<defs>
<font id="amatic_scregular" horiz-adv-x="0" >
<font-face units-per-em="2048" ascent="1638" descent="-410" />
<missing-glyph horiz-adv-x="350" />
<glyph unicode="fi" horiz-adv-x="1042" d="M150 2q20 186 20 498q0 137 12 413q14 256 15 412q0 18 17 28.5t40 10.5q72 0 158 -16.5t86 -42.5q0 -35 -72 -35q-45 20 -115 20l-24 -2q-6 -2 -9.5 -6t-5.5 -12q-4 -16 -8 -23q0 -92 -8 -217q-10 -121 -10 -215v-72q0 -8 33 -6q104 0 104 -32q0 -16 -15.5 -27.5 t-33.5 -11.5q-12 0 -35 6q-20 6 -35 6q-37 0 -37 -100v-232q0 -49 6 -145q6 -98 7 -148q0 -82 -50 -82zM606 1325q0 8 18.5 16.5t30.5 8.5q78 0 156 -9q47 -2 94 -18q37 -12 37 -35q0 -4 -6 -16l-47 -4q-14 12 -60 12l-10 -6q6 -18 6 -109q0 -135 -2 -243l-4 -244 q0 -92 8 -223q6 -150 6 -226v-26q-2 -14 -2 -37q0 -47 7 -57l-2 -5q0 -20 45 -20q18 0 30 2h31q59 0 59 -29q0 -18 -12 -29.5t-33 -11.5q-18 0 -32 4q-16 2 -35 3q-12 0 -37 -11q-25 -12 -37 -12q-47 0 -55 20q-10 0 -17 -2h-16q-45 0 -57 21q0 14 16 24l10 11h60l8 8l4 18 l2 25q0 125 -6 223l-4 76l-4 149q0 80 6 240l4 238q0 156 -10 237q-18 6 -62 6l-22 -2q-12 -2 -27 -2q-39 0 -39 35z" />
<glyph unicode="fl" horiz-adv-x="1067" d="M150 2q20 186 20 498q0 137 12 413q14 256 15 412q0 18 17 28.5t40 10.5q72 0 158 -16.5t86 -42.5q0 -35 -72 -35q-45 20 -115 20l-24 -2q-6 -2 -9.5 -6t-5.5 -12q-4 -16 -8 -23q0 -92 -8 -217q-10 -121 -10 -215v-72q0 -8 33 -6q104 0 104 -32q0 -16 -15.5 -27.5 t-33.5 -11.5q-12 0 -35 6q-20 6 -35 6q-37 0 -37 -100v-232q0 -49 6 -145q6 -98 7 -148q0 -82 -50 -82zM707 20q4 12 4 68q0 188 6 559q6 369 6 533l4 73l6 62q0 14 14 14q10 0 29 -6l6 -2q0 -45 -2 -82v-80v-223q2 -98 2 -223q-2 -10 -2 -45l-2 -43q-2 -41 -2 -84 q0 -47 2 -86l2 -88l-6 -17l2 2q0 -6 -2 -8v-8q0 -16 6 -29l-6 -196v-13q0 -35 2 -41q0 -10 10 -10l107 -4q47 0 64.5 -1t21.5 -1h6q10 0 20.5 -11.5t10.5 -23.5q0 -25 -33 -26q-35 2 -170 2l4 -2q-20 0 -39 -3q-16 -4 -37 -4q-28 0 -34 47z" />
<glyph />
<glyph />
<glyph unicode=" "  horiz-adv-x="350" />
<glyph unicode="&#x09;" horiz-adv-x="350" />
<glyph unicode="&#xa0;" horiz-adv-x="350" />
<glyph unicode="!" horiz-adv-x="520" d="M195 39q0 20 20.5 41.5t40.5 21.5q29 0 45 -21.5t16 -53.5q0 -51 -51 -54q-4 11 -12 11l-27 12q-10 6 -32 43zM242 1493q0 20 21.5 37.5t41.5 17.5q27 0 27 -26q0 -180 -21 -490q-23 -342 -22 -489l2 -41v-49q0 -86 -17 -121l7 -10h-27v4l-2 4v491l4 174v176q0 92 -6 162 l-4 56z" />
<glyph unicode="&#x22;" horiz-adv-x="679" d="M203 1262q4 18 4 122v17q0 174 22 174q20 0 33.5 -23.5t13.5 -54.5q0 -57 -23.5 -148.5t-41.5 -91.5zM414 1409v45q0 51 6 76q10 35 18 41q8 4 17 4q12 0 18 -23q8 -23 8 -55q0 -57 -12 -149.5t-23 -92.5q-6 0 -6 2q-27 43 -26 152z" />
<glyph unicode="#" horiz-adv-x="819" d="M90 635q0 20 70 20h43q35 0 41 2q6 12 21.5 147.5t15.5 166.5q-18 0 -33 -2l-35 -2q-78 0 -82 37l16 18h43q76 0 95 6l18 133q29 184 29 295v21l-2 20q0 45 30 45l15 -29q0 -80 -19 -237q-16 -139 -16 -238q25 -8 86 -8h27q74 0 108 14q61 287 78 482q12 16 29 16 q18 0 24 -20q0 -78 -37 -232t-37 -235l5 -11h75l27 -28q-12 -33 -27 -33q-23 0 -43 2l-43 2q-31 -123 -30 -309l12 -4l16 2h21q57 0 57 -39q0 -14 -33 -27h-80q-2 -41 -28 -284q-29 -242 -29 -357l-22 -26q-37 0 -37 20q0 31 14 127q12 86 12 129q0 49 21 193q18 127 18 190 q-55 6 -166 6q-43 0 -71 -8q-25 -225 -21 -190l-6 -62q-14 -176 -31 -293q-8 -59 -15 -85.5t-15 -26.5q-11 0 -22 6t-11 14q0 82 24.5 303t49.5 334l-43 -4q-37 -4 -45 -4q-61 0 -62 43zM297 670l2 -4l33 -4q106 0 188 8l23 118q10 68 12 117q2 20 2 58q0 20 -158 20 q-47 0 -67 -12q-10 -23 -22.5 -135.5t-12.5 -161.5v-4z" />
<glyph unicode="$" horiz-adv-x="520" d="M80 1300q0 57 20 132q10 39 31 64.5t47 25.5l-4 43q-4 18 -4 45q0 53 29 53l16 -18q-2 -8 -2 -46q0 -76 33 -75q41 0 78 -45q51 -49 51 -62q0 -12 -8.5 -23.5t-16.5 -2.5q-16 16 -28 39q-18 29 -38 42t-55 15l-6 -17q0 -45 4 -79q2 -37 2 -82q0 -68 17.5 -238t29.5 -201 q14 -35 56 -116q109 -225 119 -351q0 -47 -8.5 -76.5t-28.5 -54.5t-44 -44t-59 -44l4 -57q4 -27 4 -59q0 -86 -34 -86q-9 0 -14 14t-5 27l8 6v135l-6 6q-80 0 -102 -4q-72 49 -72 102q0 20 19 21h4q20 -14 26 -33q6 -27 20.5 -39t49.5 -12q29 0 57 8q0 72 -18.5 292 t-34.5 376q-4 20 -22 57l-19 39q-20 41 -40.5 90t-35.5 102q-20 70 -20 131zM127 1288q0 -125 78 -299q0 -4 6 -8q0 86 -18 256q-16 166 -19 236q-18 -2 -32.5 -70t-14.5 -115zM272 776q0 -90 19 -268q16 -190 16 -268l2 -4q41 18 69 62t28 89q0 55 -47.5 194.5t-86.5 194.5 z" />
<glyph unicode="%" horiz-adv-x="1105" d="M80 1180v8q0 76 33 205q14 70 44.5 114.5t67.5 44.5h4q100 0 138 -75q63 -106 63 -318l-4 -6q0 -27 2 -47l2 -47q0 -35 -2 -73t-12 -85q-12 -55 -29.5 -90t-50.5 -61q-35 -27 -84 -27q-172 0 -172 457zM131 1178q0 -29 2 -56l2 -57q0 -66 19 -160q12 -57 36.5 -93 t57.5 -36q43 0 73.5 33t43.5 90q18 94 18 172q0 55 -8 127q-8 111 -8 129l-5 19q0 61 -37.5 106t-93.5 45q-20 0 -36.5 -23.5t-24.5 -60.5q-18 -72 -25 -139q-2 -16 -3 -26.5t-3 -16.5q0 -14 -4 -27zM362 31q0 41 9.5 93t34.5 150q6 20 28 113q131 582 256 1061l4 12 q2 12 6.5 25.5l6.5 19.5l10 21q4 6 8 6q12 0 21.5 -7t9.5 -20q0 -10 -8 -49l-21 -88q-8 -45 -12 -51l-232 -1018l-41 -178l-6 -29q-4 -31 -16 -63q-12 -31 -37 -35q-21 14 -21 37zM676 350v8q0 457 172 457q45 0 81 -25.5t54 -64.5q16 -35 27.5 -85t13.5 -89l2 -72l-2 -47 l-2 -47l4 -6q0 -117 -35 -221q-20 -59 -64 -95t-106 -36q-39 0 -68.5 39.5t-45.5 103.5q-31 117 -31 180zM727 367q0 -14 4 -27l4 -27q0 -8 8 -47q8 -53 15.5 -82.5t23.5 -58.5q18 -31 43 -31q57 0 90 37q29 35 43 96q10 37 15 117v59v66q0 72 -10 131q-10 51 -22.5 82 t-37.5 51q-25 25 -61 25q-33 0 -56.5 -35t-35.5 -90q-18 -94 -19 -158l-2 -55q-2 -25 -2 -53z" />
<glyph unicode="&#x26;" horiz-adv-x="919" d="M90 293q0 92 12 153l11 64q2 20 18 61q6 18 11 31.5t8 24.5l26 61l29 55q4 10 12 26.5t21 41.5l34 68q0 49 -6 143q-8 84 -8 143v170q0 63 29 105q16 25 39 24q49 0 101 -32.5t52 -71.5q0 -35 -2 -62l-4 -61l2 -25l-45 -133q-23 -63 -53 -125q-2 -4 -23 -32 q-33 -45 -32 -76q0 -66 40.5 -227.5t98.5 -309.5q63 -154 106 -166q78 154 78 398q0 16 -4 24q-6 10 -12 6q-23 0 -31 15v4l-2 12l4 10q39 0 121 8.5t100 16.5q14 -2 24.5 -10.5t10.5 -20.5q0 -14 -31.5 -23.5t-68.5 -9.5h-25q-10 2 -24 2h-15q0 -166 -18.5 -266t-69.5 -200 q70 -82 160 -82q20 0 37 2q33 4 39 4l20 -19q0 -33 -92 -32q-31 0 -66.5 12t-60.5 29q-31 18 -57 40q-72 -49 -119 -66t-115 -17q-70 0 -131 49t-94 123q-35 74 -35 141zM135 330q0 -115 53 -209q27 -47 73 -75t106 -28q47 0 110.5 26t65.5 56q-8 16 -41 47 q-61 61 -113.5 192.5t-81.5 270.5l-10 82q-6 59 -16 94q-70 -90 -108 -210.5t-38 -245.5zM305 1339l2 -254l4 -10q-4 -16 -4 -35q0 -8 4 -45q2 -18 2 -45q35 31 78 156t43 184q0 123 -76 123q-12 0 -32.5 -28.5t-20.5 -45.5z" />
<glyph unicode="'" horiz-adv-x="479" d="M211 1262q4 37 4 122v17q0 174 23 174q20 0 33.5 -23.5t13.5 -54.5q0 -57 -23.5 -148.5t-42.5 -91.5z" />
<glyph unicode="(" horiz-adv-x="415" d="M100 879q0 80 28 252t73 325q49 166 98 170l20 -16q-2 -47 -45 -129l-26 -58q-92 -258 -92 -544q0 -645 155 -1018q6 -16 41 -78q35 -61 43 -98q-14 -25 -30 -25q-25 0 -37 23q-14 23 -23 41l-6 18q-92 205 -145.5 522.5t-53.5 614.5z" />
<glyph unicode=")" horiz-adv-x="434" d="M20 -254q0 10 15 39l37 70q12 25 20 41t12 26q78 209 127.5 452.5t49.5 442.5q0 348 -93 606l-26 58q-45 80 -45 129l18 16q43 -4 82 -110q61 -166 105 -523q14 -147 14 -176q0 -225 -64 -498q-39 -170 -86 -327q-31 -111 -69 -195q-39 -76 -68 -76q-10 0 -19.5 7.5 t-9.5 17.5z" />
<glyph unicode="*" horiz-adv-x="880" d="M51 1153q0 10 7.5 17.5t15.5 7.5h139q59 -2 137 -2l4 4q-25 47 -87 180t-62 143t10 16.5t23 6.5q12 0 43 -72q6 -14 13 -30.5t13 -37.5q25 -53 35 -81q33 -80 53 -93q10 16 37 105q43 119 60 158q31 70 51 69q10 0 21 -10t11 -21q0 -8 -26 -55q-25 -51 -55 -143 q-31 -94 -50 -137l2 -2q55 -8 123 -9q29 0 88 7l88 4q14 0 26.5 -12.5t12.5 -26.5q0 -29 -47 -29l-116 4q-76 6 -117 6h-25q-31 0 -39 -6q0 -27 80 -180q78 -160 78 -180q0 -12 -9 -20.5t-20 -8.5q-20 0 -31.5 17.5t-17.5 52.5q-8 27 -8 36q-55 129 -111 234q-8 -10 -24 -53 l-80 -189l-12 -32q-18 -51 -31 -72l-27 -4l-28 30q0 25 75 175q78 154 86 198q-16 4 -22 4h-232q-10 0 -16 -2h-16q-23 0 -23 33zM436 1118h2v2q-2 0 -2 -1v-1z" />
<glyph unicode="+" horiz-adv-x="819" d="M147 655q0 16 4.5 22.5t18.5 6.5l53 -2l56 -4q84 0 83 16q0 35 -6 103l-4 102q0 25 8.5 35t32.5 10q37 0 37 -35l-8 -20l4 -80l4 -82q0 -29 13.5 -39t43.5 -10l62 4l61 2q63 0 64 -37q0 -33 -35 -33t-61 4q-27 2 -64 3h-10q-47 0 -60.5 -11.5t-13.5 -56.5q0 -43 8 -86 q10 -57 11 -78q0 -14 -12.5 -23.5t-30.5 -9.5q-13 0 -28.5 9.5t-15.5 19.5v64q0 29 3 53l2 53q0 20 -1 31.5t-8 21.5q-6 10 -18 12.5t-43 2.5l-45 -5q-31 -6 -45 -6q-59 0 -60 43z" />
<glyph unicode="," horiz-adv-x="407" d="M152 -131q0 10 16 33q18 25 18 24q14 23 25 58q6 18 7 29.5t-3 13.5q-25 2 -40 20.5t-15 38.5q0 29 23.5 45t52.5 16q33 0 46 -22.5t13 -50.5q0 -49 -31 -113.5t-78 -103.5l-12 -2q-22 4 -22 14z" />
<glyph unicode="-" horiz-adv-x="544" d="M70 715q0 20 130 39.5t220 19.5q16 0 30.5 -10t14.5 -25q0 -20 -129 -39.5t-223 -19.5q-17 0 -30 10t-13 25z" />
<glyph unicode="." horiz-adv-x="301" d="M100 41q0 20 16.5 37.5t37.5 17.5q16 0 32.5 -17.5t16.5 -35.5q0 -51 -58 -51q-18 0 -31.5 15.5t-13.5 33.5z" />
<glyph unicode="/" horiz-adv-x="679" d="M156 31q0 43 10 96t33 145l28 115q131 582 256 1061l4 12q2 12 6.5 25.5l6.5 19.5l10 21q4 6 8 6q31 0 31 -27q0 -2 -10 -49l-21 -88l-10 -51l-78 -344l-154 -674l-40 -178q-2 -6 -7 -29q-4 -16 -16 -63q-12 -31 -39 -35q-18 12 -18 37z" />
<glyph unicode="0" horiz-adv-x="657" d="M121 1036v164q2 74 2 164q0 51 6 86q2 23 9 34t28 32q29 27 102 26q184 0 224 -328q47 -348 47 -722q0 -125 -7 -201q-8 -94 -34 -178q-14 -43 -35 -69t-51 -42q-33 -16 -70 -16q-8 0 -33.5 10t-32.5 16q-100 76 -131 381q-14 143 -19 284.5t-5 358.5zM166 1397 q0 -18 2 -33v-35l4 -190l4 -193v-201q0 -119 12 -253q12 -168 54 -308q18 -70 50 -110.5t68 -40.5q55 0 86 96q29 100 33 193q6 115 6 151q0 66 -12 287q-12 219 -12 280v50q-6 123 -29 194q-16 63 -37.5 109.5t-54.5 74.5q-37 29 -86 29t-68.5 -24.5t-19.5 -75.5z" />
<glyph unicode="1" horiz-adv-x="563" d="M55 1501q0 10 11.5 16.5t29.5 8.5q29 4 162 4q14 0 23.5 -10.5t9.5 -22.5v-63q0 -63 6 -193l4 -194q0 -43 14 -289q12 -266 13 -398v-26l6 -113l4 -119l-2 -16l-2 -14l8 -6l47 4q20 2 45 2q63 0 64 -29q0 -29 -45 -29l-164 -4q-82 -4 -166 -4q-17 0 -25 8.5t-8 30.5 q0 6 5 13.5t11 7.5h60l57 -3q33 0 42 7.5t9 33.5q0 477 -45 1180v66l2 65q0 33 -6 46.5t-24.5 17.5t-63.5 4q-12 0 -22 -2l-25 -2q-35 0 -35 22z" />
<glyph unicode="2" horiz-adv-x="692" d="M121 25l108 249q121 262 178.5 494.5t57.5 480.5q0 295 -127 295q-27 -12 -44.5 -41.5t-21.5 -62.5q-8 -74 -34 -74q-20 0 -27 20v21q0 84 47 145q25 33 59 33q84 0 138.5 -63.5t56.5 -155.5l-2 -4q0 -41 2 -76q2 -33 2 -74q0 -170 -46 -410.5t-110 -381.5l-59 -133 l-45 -103q-35 -80 -47 -112q-6 -14 -6 -23q0 -10 12 -10q111 20 246 22q29 0 28 -32q0 -27 -18 -27l-145 -8q-113 -10 -154 -10q-20 0 -34.5 11t-14.5 30z" />
<glyph unicode="3" horiz-adv-x="679" d="M90 1403q35 70 76 103.5t100 33.5q27 0 51.5 -13.5t40.5 -35.5l7 -2q82 -119 81 -387q0 -49 -36 -115q-6 -4 -33 -47q-16 -27 -35 -51q82 -31 113 -123q20 -63 41 -178q4 -43 14 -80q10 -55 12 -70.5t2 -70.5q0 -74 -6 -129q-6 -74 -31 -136q-27 -63 -81 -90 q-29 -14 -68 -14q-45 0 -86 21.5t-41 54.5l14 10q14 0 30.5 -8t33.5 -21q6 -6 24 -18q156 0 156 260q0 139 -8 229q-8 66 -22.5 116t-41.5 106q-25 51 -67 96h-8l-13 -2q-14 0 -39 8v8l-10 10q6 12 23 31q6 8 35.5 43t54.5 88q18 53 18 100q0 88 -10 162q-8 59 -21.5 99.5 t-37.5 68.5q-27 31 -62 31q-31 0 -54.5 -17.5t-31.5 -39.5q-20 -59 -47 -60q-12 0 -23.5 8.5t-13.5 20.5z" />
<glyph unicode="4" horiz-adv-x="612" d="M150 653q0 14 10 49q10 37 10 52q0 80 8 200q10 111 10 201v326q0 14 -4 26l-4 25q0 27 25 27q14 0 25.5 -8.5t11.5 -20.5q0 -45 -4 -82l-5 -82q0 -35 7 -70l-4 -6q4 -25 4 -57q0 -86 -13 -258q-12 -172 -12 -258q0 -12 8 -31q6 -18 6 -29q0 -10 -6 -26q-8 -16 -8 -29 q0 -39 21 -39q18 0 54 6t50 13q0 49 -16 442q0 31 -9 80q-8 74 -8 84q0 12 12.5 18t26.5 6l19 -22q0 -47 6 -143q6 -98 6 -146q0 -78 6 -194.5t14 -124.5l37 4q18 4 39 4q39 0 39 -23q0 -16 -16.5 -22t-38.5 -2q-25 2 -42.5 -9.5t-17.5 -35.5q0 -82 6.5 -207t12.5 -139 q0 -2 -1 -10.5t-1 -24.5q0 -33 10 -49l-8 -25l8 -14v-29l-35 -25l-31 13v73l-2 5q8 31 9 73q0 35 -7 105q-8 63 -8 104l2 45q2 20 2 47q0 78 -20 90q-23 0 -60 -6q-41 -6 -61 -6q-18 0 -27 2q-12 8 -16 12l-12 9v6q0 10 12 65z" />
<glyph unicode="5" horiz-adv-x="647" d="M129 1565l23 20l155 2h4q59 0 60 -28l-25 -19h-43l-4 -4l-84 10l-12 -4l-8 2q0 -39 6 -110q6 -76 8 -84q6 -106 27 -344l-5 -2l37 -5q117 -14 142 -32q37 -27 66.5 -135.5t39.5 -221.5q10 -86 10 -172q0 -82 -4 -141q-4 -74 -24 -150q-12 -41 -28.5 -69.5t-41.5 -52.5 q-23 -25 -55 -45h-17q-100 -1 -100 32q0 23 39 23q10 0 27 -8q14 -8 24 -9q31 0 57.5 37t42.5 92q29 111 29 181q0 145 -20 348q-14 113 -47 196q-33 80 -80 80h-47l-11 -6h-2l-4 2q-2 0 -22 -10q-20 -8 -23 -8q-18 0 -29.5 9t-15.5 24q-2 6 -2 15t-2 17v31q8 51 8 104 q0 68 -22 222q-23 135 -27 213zM193 1335l2 2q-2 0 -2 -1v-1z" />
<glyph unicode="6" horiz-adv-x="641" d="M160 807v8q0 90 4 182q2 96 22 252q12 117 58 224q41 96 112 96q8 0 17.5 -6.5t9.5 -12.5q0 -18 -45 -41q-4 -2 -27 -12q-29 -25 -54.5 -152.5t-33.5 -254.5l-10 -193q27 16 45 16q70 0 115 -61q51 -80 67 -154q29 -117 37 -196l4 -51q8 -98 8 -142q2 -35 3 -78v-61 q0 -68 -13 -113q-18 -53 -65 -73q-27 -12 -64 -13q-37 0 -66.5 21.5t-43.5 56.5q-29 59 -37 166l-4 51q-2 51 -9 103q-31 225 -30 438zM213 727q0 -260 51 -561l4 -29l11 -59q6 -25 26 -45t62 -21q75 0 75 162q0 115 -8 232q-8 166 -45 307q-16 74 -46 114.5t-69 40.5 q-61 -39 -61 -110v-31z" />
<glyph unicode="7" horiz-adv-x="600" d="M164 1542l16 19l111 4q47 2 106 2q14 0 27.5 -11.5t19.5 -25.5q-14 -35 -14 -92q0 -33 -2 -43q-12 -158 -92 -719t-98 -590l2 -16q0 -33 -14.5 -65t-35.5 -32l-24 23q0 39 22 100l15 47q35 147 58.5 310t51.5 428l37 331l15 95q20 121 20 209q0 12 -70 12q-35 0 -61 -2 l-59 -4z" />
<glyph unicode="8" horiz-adv-x="595" d="M129 1442q0 66 27 112q27 55 94 56h37l18 -8q25 -10 37 -23q12 -12 14 -20q39 -86 39 -228q0 -117 -41 -323l-28 -140q0 -10 16 -51q8 -20 8 -22q135 -406 135 -691q0 -14 -2 -24l-4 -25l2 -10q-33 -68 -69.5 -95.5t-98.5 -27.5q-37 0 -65.5 27.5t-42.5 75.5 q-31 90 -31 161q0 311 68 570l12 35q16 49 16 77q0 12 -8 43l-22 74l-17 45q-94 293 -94 412zM180 1438q0 -43 19.5 -155t45 -207t44.5 -107q59 190 59 366q0 104 -24 178q-18 51 -50 52h-10q-4 -2 -10 -2q-16 0 -27 6q-47 -37 -47 -131zM221 168q0 -39 29 -109l-2 -6 q2 -35 20.5 -63.5t44.5 -28.5q64 0 93.5 43t29.5 115q0 201 -78 479l-14 64q-18 88 -41 126q-37 -51 -59.5 -250.5t-22.5 -369.5z" />
<glyph unicode="9" horiz-adv-x="589" d="M49 1317q0 123 60.5 204t162.5 81q35 0 77 -15.5t57 -36.5q14 -23 14 -327v-121q-2 -53 -2 -121q0 -18 -8 -41q-6 -25 -7 -41l-4 -344q-2 -154 -2 -346q0 -29 -8 -76q-6 -51 -6 -76q0 -14 2 -22v-25q0 -57 -35 -57l-16 20q18 53 18 183l4 286q6 190 6 285l-2 111 q-2 49 -2 110l-14 -4q-70 8 -127 45t-94 90q-74 109 -74 238zM104 1366q0 -80 31 -162t82 -141q57 -59 115 -66l28 4q10 201 11 439q0 61 -22.5 92t-74.5 31q-84 0 -127 -53.5t-43 -143.5z" />
<glyph unicode=":" horiz-adv-x="362" d="M121 250q0 20 15.5 37.5t35.5 17.5q18 0 33.5 -17.5t15.5 -35.5q0 -51 -55 -51q-19 0 -32 15t-13 34zM139 1024q0 20 16.5 37.5t37.5 17.5q18 0 34.5 -17.5t16.5 -35.5q0 -51 -60 -51q-16 0 -30.5 15.5t-14.5 33.5z" />
<glyph unicode=";" horiz-adv-x="387" d="M152 51q0 10 16 33l18 25q14 23 25 57q6 18 7 29.5t-3 13.5q-25 2 -40 20.5t-15 38.5q0 29 23.5 45.5t52.5 16.5q33 0 46 -22.5t13 -51.5q0 -49 -31 -113.5t-78 -103.5l-12 -2q-22 4 -22 14zM176 1024q0 20 16.5 37.5t36.5 17.5q18 0 34 -17.5t16 -35.5q0 -51 -58 -51 q-18 0 -31.5 15.5t-13.5 33.5z" />
<glyph unicode="&#x3c;" horiz-adv-x="700" d="M147 698q0 23 48 140l106 243q55 121 70 166q0 6 12 39q16 70 39 109q12 25 27 26l26 -20q-8 -61 -48 -160.5t-91 -202.5q-49 -98 -83 -191t-34 -147q0 -16 140.5 -302.5t175.5 -344.5l18 -14q-4 -12 -12.5 -25.5t-16.5 -13.5t-12 2l-14 2h-4q-33 49 -82 160l-35 78 l-103 213l-20 45q-18 31 -25 49q-6 18 -45 69q-37 49 -37 80z" />
<glyph unicode="=" horiz-adv-x="759" d="M123 627q0 10 10 10h82l322 -2q6 0 11 -7t5 -18q0 -16 -14 -16q-1 4 -396 4q-8 0 -14 9t-6 20zM145 743q0 8 2 13q4 6 183 6h231q12 0 21.5 -7t9.5 -18q0 -8 -2 -10q0 -6 -217 -6h-199q-29 -1 -29 22z" />
<glyph unicode="&#x3e;" horiz-adv-x="700" d="M139 39l19 14q43 78 179 355.5t136 291.5q0 53 -33.5 146.5t-83.5 191.5q-51 102 -91 201.5t-48 161.5l27 20q12 -2 26.5 -25.5t22.5 -49.5q2 -8 16 -58l13 -41q14 -45 69 -166l37 -86l68 -157q49 -113 49 -140q0 -31 -37 -80q-39 -51 -45 -69l-25 -51q-18 -33 -20 -43 l-176 -365l-43 -86l-17 -2l-14 -2q-8 0 -17.5 13.5t-11.5 25.5z" />
<glyph unicode="?" horiz-adv-x="493" d="M100 1409q0 63 25 115q12 25 36.5 40t57.5 15q84 0 111 -45q20 -41 31.5 -105.5t11.5 -123.5q0 -182 -66 -408q-27 -94 -46 -239.5t-19 -301.5l2 -114q0 2 -1 2h-1q-16 -8 -23 -8q-18 -1 -22 24q0 313 39 559q10 63 32 150q27 111 39 188.5t12 145.5q0 104 -24 180 q-18 51 -49 51h-23q-72 0 -71 -127q0 -37 14 -125q-18 -8 -35 -8q-14 0 -16 8q-14 72 -15 127zM174 41q0 20 16.5 37.5t36.5 17.5q18 0 33.5 -17.5t15.5 -35.5q0 -51 -57 -51q-18 0 -31.5 15.5t-13.5 33.5z" />
<glyph unicode="@" horiz-adv-x="1062" d="M111 905q0 281 34 455q16 82 32 131t40 92q27 47 62.5 73.5t91.5 43.5q61 14 127 14t124 -20.5t99 -53.5q35 -29 69.5 -83t55.5 -107q16 -41 34.5 -115.5t26.5 -124.5q2 -16 7.5 -44.5t11.5 -78.5l6 -32q31 -221 31 -271q0 -338 -152 -338q-31 0 -59 23q-27 20 -45 29 q-27 -63 -83.5 -106.5t-117.5 -43.5q-39 0 -71 18.5t-52 47.5q-39 51 -61 155q-14 76 -19 183q-2 25 -2 84v51q0 82 8 174q8 86 35 164q16 41 37.5 65.5t54.5 38.5q33 16 74 17q80 0 133 -60q10 -12 25 -80q16 -92 49 -352l18 -178q8 -92 13 -109l22 -10q25 -51 43 -51 q80 0 80 291q0 332 -115 635q-47 121 -112.5 172t-178.5 51q-98 0 -159 -41q-49 -33 -82 -111q-25 -63 -33 -155l-6 -86l-2 -31l-2 -37q0 -12 -2 -30.5t-6 -35.5q-2 -8 -6.5 -27.5t-10.5 -33.5l4 -80q0 -41 -8 -65q4 -12 4 -27q0 -98 8 -168l11 -94q14 -121 18 -213 q6 -94 12 -132t29 -100q31 -80 86 -150.5t115 -70.5q111 0 194.5 38t169.5 124q39 39 45 39l19 -18q-14 -49 -64.5 -95.5t-115.5 -74.5q-66 -29 -129.5 -44.5t-110.5 -15.5q-149 0 -260 240q0 23 -17 55q-10 25 -10 27q-20 57 -43.5 303t-23.5 360zM385 713q0 -68 3 -110 t15 -89q25 -106 117 -106q33 0 67 36.5t56.5 90t22.5 92.5v153v43l-4 41l-5 43q-4 14 -4 24.5t-2 16.5q-6 63 -14 82q0 -2 -8 43q-6 37 -8 41l-7 41q-2 14 -6 34.5t-12 43.5q-8 20 -18.5 30.5t-26.5 18.5q-25 8 -41 8q-33 0 -58.5 -21.5t-37.5 -54.5q-12 -29 -19.5 -74.5 t-9.5 -84.5v-80v-262z" />
<glyph unicode="A" horiz-adv-x="722" d="M70 39l2 4v2l22 102q25 96 43 189q20 104 31 135q16 68 65 338l13 68q53 315 73 397q10 49 37 145q10 41 29 82q18 35 31 35q33 0 47 -20q10 -18 31.5 -203t37.5 -373l27 -340q0 -88 12 -266q12 -180 13 -268v-9q0 -23 -6 -41q-8 -16 -39 -16q-17 0 -28 10t-11 25v268 q0 25 -104.5 45.5t-172.5 20.5q-4 0 -13 -31t-13 -45q-27 -106 -54 -227l-10 -46q-4 -16 -20 -16t-29.5 10.5t-13.5 24.5zM223 426q90 -29 207 -29h12q6 -2 15 -2q41 1 41 21q0 127 -14.5 347t-30.5 388q-4 72 -17 158l-8 80q0 -2 -4 22l-4 25q-16 -45 -31.5 -125 t-32.5 -189q-49 -305 -84 -458l-18 -70q-31 -102 -31 -156v-12z" />
<glyph unicode="B" horiz-adv-x="659" d="M150 1389q0 147 53 147q137 0 211.5 -88t74.5 -234q0 -164 -131 -340q109 -109 153 -207t44 -235q0 -84 -5 -134t-20 -93q-14 -45 -39.5 -78t-68.5 -61q-41 -29 -107 -58q-25 -6 -41 -10q-27 -10 -41 -10h-4h-5q-70 0 -70 28q0 86 6 260l4 259q0 143 -6 428 q-8 252 -8 426zM213 1378q0 -137 4 -245l4 -246l6 -2q45 0 86 39t68 102q27 59 41 123.5t14 118.5q0 72 -52 135t-118 63q-53 0 -53 -88zM221 788q10 -334 10 -718h7l6 -2q69 0 127.5 42t92.5 111.5t34 149.5q0 367 -176 440q-16 0 -54 -10q-35 -12 -47 -13z" />
<glyph unicode="C" horiz-adv-x="675" d="M125 1090q0 106 12 210q8 51 21.5 88t38.5 72q45 70 135 92q47 12 104 13q39 0 79 -22.5t40 -53.5q0 -23 -33 -23q-12 0 -47 15q-31 14 -55 14q-57 0 -103.5 -23.5t-72.5 -62.5q-23 -33 -39.5 -90t-20.5 -115q-6 -51 -6 -123l2 -114q2 -49 2 -107q0 -141 29 -415.5 t55 -317.5q25 -39 73 -59.5t101 -20.5q94 0 144 59q18 25 39 25q18 0 18 -29q0 -37 -22.5 -64.5t-61.5 -41.5q-66 -29 -143 -29q-58 0 -121.5 45t-89.5 103q-25 53 -50.5 337.5t-25.5 424.5v108q-2 47 -2 105z" />
<glyph unicode="D" horiz-adv-x="780" d="M129 1497q0 49 156 49h10q104 0 180 -71q59 -55 107 -175q33 -94 49 -210q8 -61 14 -189v-63q0 -127 -33.5 -275.5t-95.5 -277.5q-37 -82 -95.5 -147.5t-111.5 -103.5t-71 -38q-25 0 -49.5 12t-24.5 29q0 12 16 41q16 27 15 41l-7 180l-14 559l-4 248q-2 227 -10 285 q-4 23 -17 51q-14 39 -14 55zM211 1450q0 -72 8 -170q8 -100 8 -170q0 -113 17 -391q14 -242 14 -389v-230h10q76 39 135.5 114t94.5 165q31 76 51 173t29 181q6 74 6 141q0 598 -330 599q-43 0 -43 -23z" />
<glyph unicode="E" horiz-adv-x="509" d="M139 1485q0 25 10.5 41t26.5 16h127q29 0 43 -4q20 -6 21 -35q0 -16 -12.5 -26.5t-26.5 -12.5h-35l-33 2l-33 2q-14 0 -19 -5t-5 -19q0 -96 2 -174v-174v-256q0 -4 4 -4h2h2q51 4 111 4q33 0 32 -29q0 -20 -7 -27.5t-23 -7.5h-117q-8 0 -8 -10l4 -303q4 -141 4 -326v-76 h88h86h18q37 0 37 -26q0 -33 -18 -39q-25 -8 -101 -8h-86q-49 0 -68.5 9t-19.5 36v39q-2 16 -2 37v4l2 299l-2 845q0 131 -4 228z" />
<glyph unicode="F" horiz-adv-x="524" d="M139 1511v15q0 14 21 18q12 4 71 4h45h58q16 0 24.5 -13t8.5 -34q0 -20 -37 -20l-47 2h-54q-16 0 -20 -6.5t-4 -32.5q0 -41 14 -299t14 -301q25 0 70 12q47 12 70 12q12 0 21 -14t9 -27q0 -23 -32.5 -29.5t-94.5 -11.5q-43 -6 -43 -24q0 -92 21 -344q18 -229 18 -346 l-6 -11q6 -14 6 -26q0 -39 -45 -39q-32 0 -32 53v152l-7 125q-18 336 -18 493q0 86 -23 537q-4 98 -6 125.5t-2 29.5z" />
<glyph unicode="G" horiz-adv-x="786" d="M125 877q0 100 4 178q4 94 29 202q10 55 25.5 96.5t41.5 86.5q47 82 131 114q45 16 95 17q61 0 61 -35q0 -25 -31 -25q-8 0 -28 7l-29 4q-68 0 -117 -56q-35 -41 -67 -141q-23 -82 -31 -182q-6 -55 -12 -180l-2 -136v-112q0 -199 28 -363q20 -102 48 -169.5t75 -110.5 q51 -47 111 -47q109 0 174 102q0 55 -8 145q-6 45 -17 84q-12 35 -28 35l-39 -4l-43 -4q-47 0 -47 35q0 16 57 30.5t96 14.5q33 0 48.5 -23.5t15.5 -62.5q0 -45 20 -182q20 -115 21 -183q0 -33 -27 -32q-49 0 -49 45l2 6v4q-117 -68 -207 -68q-153 0 -227 221t-74 689z" />
<glyph unicode="H" horiz-adv-x="669" d="M129 1532q0 20 27 20q12 0 19 -7t5 -19v-152q0 -55 10 -209l5 -69q4 -115 4 -138v-100q0 -53 10 -53l78 4l41 4q102 8 116 8l2 4q0 90 -10 346q-10 260 -10 349q0 25 29 24q14 0 24 -7t10 -19q0 -399 15 -879q14 -481 14 -590v-29q0 -16 -7 -28t-19 -12q-17 0 -23 8 t-6 24v25q2 8 2 22q0 281 -21 711h-14h-39h-39q-115 0 -143 -6q0 -150 16 -371q18 -252 19 -370q0 -31 -23 -31q-31 0 -31 28q-2 100 -9 277.5t-13 300.5q-39 487 -39 934z" />
<glyph unicode="I" horiz-adv-x="552" d="M121 1513q0 18 16 29q14 6 76 6h57q31 -2 78 -2q16 0 26.5 -7t10.5 -21q0 -12 -6 -22.5t-19 -10.5q-14 0 -24 2h-25h-20q-20 0 -25 -4l-4 -8q0 -160 27 -646q24 -432 24 -630v-15v-57q-2 -27 -2 -55h74q47 0 47 -29q0 -12 -9 -23.5t-20 -11.5h-110q-49 2 -125 2 q-14 0 -25.5 10.5t-11.5 22.5q0 27 35 27h80q0 236 -15 594q-8 287 -16 450l2 105v135q0 102 -4 131h-72q-20 0 -20 28z" />
<glyph unicode="J" horiz-adv-x="475" d="M41 1516q0 25 16 30q16 8 78 8l78 -2h109q14 0 23 -10t9 -22q0 -18 -11 -24.5t-44 -6.5h-45q0 -276 22 -690q4 -55 9 -189q14 -256 14 -305q0 -86 -3 -135t-13 -107q-10 -59 -30 -101t-54 -83q-35 -45 -86 -78q-43 0 -43 39q2 20 49 49l24 19q90 88 90 313q0 139 -10 303 q-10 219 -10 277l-12 317q-10 270 -11 371q-33 0 -61 -2l-61 -2q-12 0 -19.5 9t-7.5 22z" />
<glyph unicode="K" horiz-adv-x="645" d="M129 39v618q0 121 6 394l4 393q0 39 4 72q6 25 23 24q31 0 37 -14q8 -14 8 -74l-4 -340l-4 -248h2q39 86 110 258l76 191q115 284 146 284q14 0 24 -8t10 -22q-6 -39 -32 -82l-21 -37q-35 -82 -102 -246q-82 -199 -88 -209q-2 -14 2 -24q41 -104 92 -258t84 -267 q35 -123 70.5 -249.5t50.5 -182.5q4 -12 4 -14q0 -14 -11.5 -22.5t-25.5 -8.5q-19 1 -25 15q-2 12 -49 172l-71 249q-113 389 -146 482l-12 35q-2 -4 -7 -12.5t-18 -26.5q-25 -45 -41 -70l-28 -47v-729q0 -35 -6.5 -48.5t-26.5 -13.5t-27.5 14.5t-7.5 51.5z" />
<glyph unicode="L" horiz-adv-x="505" d="M139 1550q0 10 9.5 17.5t21.5 7.5q37 0 37 -31q0 -379 6 -567l10 -367q0 -86 13 -280l12 -254q0 -6 6 -6q2 -2 27 -2h127q27 0 26 -37q0 -16 -6 -27.5t-18 -11.5l-15 -2h-16q-43 -2 -166 -2q-14 0 -23.5 12t-9.5 31v32v50q0 129 -10 290q-8 172 -8 291q0 111 -10 428 q-12 287 -13 428z" />
<glyph unicode="M" horiz-adv-x="937" d="M150 111v342l2 206q2 92 2 209q0 135 2 242l4 244v180q0 10 9 18.5t19 8.5q16 0 23 -17q18 -61 92 -362t111 -465q18 -96 59 -340l14 80q6 37 19 102q25 160 31 180l94 502l18 107l23 114l10 62q2 20 12.5 31.5t22.5 11.5q10 0 18 -10.5t8 -28.5v-203q0 -154 19 -465 q14 -287 14 -461q0 -55 6 -170q4 -147 4 -204q0 -45 -6 -60q-8 -12 -22 -12q-27 0 -36 13.5t-9 43.5v187q0 139 -8 338q-2 37 -3 106q-6 145 -6 229l2 115q2 51 2 115q0 55 -2 98q-2 31 -3 51.5t-3 32.5l-4 -14q-23 -150 -68 -393.5t-73 -391.5q-29 -131 -37 -186 q-4 -27 -17.5 -43t-29.5 -16t-28.5 16t-14.5 47q-14 98 -104.5 548.5t-100.5 467.5q-6 -184 -6 -414q0 -180 2 -325t2 -326q0 -31 6 -96l4 -99q0 -39 -14 -53q-59 0 -59 107z" />
<glyph unicode="N" horiz-adv-x="778" d="M100 1489v20q0 25 13.5 34t42.5 9q12 0 27.5 -12t19.5 -27l43 -200q29 -143 49 -217q43 -170 147 -557q59 -254 107 -389q12 31 12 98q0 199 4 356l4 357q0 88 2 159v158l-2 289q10 29 43 28q16 0 17 -59q0 -27 -2 -43q0 -16 -1 -23.5t-1 -9.5v-131q0 -272 -2 -485 q-2 -215 -2 -484q0 -51 -7 -161l-4 -162q0 -59 -53 -60q-14 0 -26.5 14.5t-16.5 33.5l-6 38q-6 25 -6 31q-229 821 -252 922q-18 74 -84 409q-2 -12 -2 -84v-741l4 -293l4 -291l-12 -16h-47l-7 16q4 20 5 82l-2 357l-5 356v268v195q-2 86 -2 192q0 12 -2 23z" />
<glyph unicode="O" horiz-adv-x="753" d="M125 942v82q0 172 20 299q12 80 34 131t59 82q35 35 90 35q49 0 90 -19.5t67 -50.5q23 -29 41.5 -76t28.5 -90l16 -96q49 -350 50 -621v-6q0 -102 -5 -188q-4 -102 -22 -215q-8 -55 -23.5 -96t-40.5 -82q-43 -74 -120 -74q-285 0 -285 985zM186 831q0 -137 27 -348 q16 -133 41 -231t65 -166q41 -72 95 -72q32 0 59 38t41 106q33 143 41 280q4 111 4 215v9l-2 204q-4 111 -25 287q-16 125 -67 256q-20 51 -54 80t-73 29q-35 0 -61.5 -33t-43.5 -92q-37 -137 -40 -254q-6 -100 -7 -207v-101z" />
<glyph unicode="P" horiz-adv-x="565" d="M129 1536l6 8q2 4 8 10q2 6 11 9q4 2 14 2q72 0 130 -33t95 -90q72 -113 72 -256q0 -92 -29.5 -188.5t-89.5 -174.5q-61 -84 -137 -98l4 -227l4 -111q8 -197 8 -336q0 -33 -9 -48t-36 -15h-1q-23 0 -23 71q0 102 -2 183l-4 184v166q-2 74 -3 166q0 274 -10 508l-2 73 q-6 121 -6 197zM180 1505q0 -117 13 -350q12 -233 12 -350l4 -4q19 2 37 16q4 2 14 17l14 14q133 133 134 334q0 115 -46 213q-25 51 -71.5 80.5t-110.5 29.5z" />
<glyph unicode="Q" horiz-adv-x="755" d="M125 766q0 123 6 278q6 135 27 263q20 119 63 192q43 78 117 78q72 0 142.5 -58.5t80.5 -127.5q57 -328 57 -797q0 -358 -126 -541q0 -12 10 -39l10 -28l6 -56q6 -55 11.5 -77.5t21.5 -45.5q18 -25 51 -24h8q66 0 66 -27q0 -39 -78 -39q-8 1 -33 13q-23 14 -28 14 q-37 16 -57.5 59t-33.5 125q-12 80 -20 99q-57 0 -104.5 19.5t-79.5 53.5q-55 57 -88 176q-12 41 -18.5 100.5t-6.5 104.5q-2 27 -2 92v93q-2 43 -2 100zM184 590q0 -117 25 -236q14 -82 37.5 -138t62.5 -95q41 -41 94 -41h1q75 0 108 192q35 199 35 615v53l-2 129l-2 55 q-2 49 -10.5 95.5t-16.5 93.5q-14 78 -63 147q-41 59 -119 60q-33 0 -58 -45q-41 -72 -67 -287q-18 -143 -23 -348q-2 -45 -2 -127v-123z" />
<glyph unicode="R" horiz-adv-x="579" d="M129 20v31l4 414l4 199q8 358 8 610v264q0 18 37 18q53 0 99.5 -28.5t72.5 -77.5q55 -100 56 -219q0 -94 -41 -205q-12 -31 -31 -71t-33 -54q43 -158 125 -485l96 -369q2 -6 2 -22q0 -18 -7 -31.5t-21 -13.5h-2q-39 0 -49 40l-25 91q-57 190 -84 321q-16 72 -41 199 q-29 147 -53 239l-21 -12l-26 -12l4 -789v-30q0 -41 -37 -41q-16 0 -26.5 10t-10.5 24zM197 913q16 0 55 39t55 66q14 29 24.5 86t10.5 102q0 84 -29 172q-14 51 -42.5 83t-63.5 32h-4q-2 -2 -6 -2v-578z" />
<glyph unicode="S" horiz-adv-x="620" d="M100 6q0 25 23 25t57 -15q33 -16 56 -16q45 0 82.5 37t58.5 96q41 117 41 207q0 100 -29 202.5t-76 192.5q-10 23 -34 68q-51 102 -78 159.5t-47 127.5q-29 92 -29 198q0 68 21.5 130.5t68.5 107.5q51 47 115 47q25 0 59.5 -19.5t34.5 -37.5q0 -16 -12 -17q-12 0 -33 10 q-18 10 -35 11q-47 0 -83 -35t-52 -86q-14 -43 -14 -94q0 -80 20.5 -165t54.5 -159l72 -150l20 -43q43 -88 67 -145t40 -129q23 -96 23 -184q0 -119 -62 -242q-31 -59 -82 -96t-112 -37q-37 0 -56.5 3t-42.5 13q-25 12 -37 35z" />
<glyph unicode="T" horiz-adv-x="653" d="M10 1505q0 16 6.5 22.5t32.5 10.5q29 6 82 6h205l225 2q25 0 34 -8t9 -27q0 -31 -39 -30h-92h-90l-18 -2l2 -119v-160v-831v-170l2 -152v-4q0 -16 -2 -27.5t-9 -17.5q-6 -10 -20 -10q-21 0 -31 15t-10 38v182v183l-4 327q-6 219 -6 328l2 59v133q0 221 -4 222h-232 q-16 0 -29.5 8t-13.5 22z" />
<glyph unicode="U" horiz-adv-x="761" d="M111 1448v14v17q0 53 30 53q43 0 43 -49v-15l-2 -16q0 -238 14 -562.5t29 -467.5q10 -90 35 -184q16 -63 35.5 -106.5t50.5 -72.5q36 -32 70 -32h2q35 0 62.5 16t41.5 43q14 23 23.5 58.5t11.5 68.5q2 20 2 68v233q0 156 -8 383l-8 262l-4 174q-6 115 -7 174 q0 23 12.5 35t28.5 12t27.5 -12t11.5 -35v-155q0 -102 2 -185v-184q0 -199 4 -348q2 -152 3 -340q0 -51 -4.5 -90t-16.5 -82q-12 -49 -33.5 -83t-56.5 -56q-39 -23 -86 -23t-88 20.5t-68 53.5q-27 31 -47 76t-33 90q-20 70 -30 174l-4 63q0 20 -1 26.5t-1 8.5 q-10 100 -25.5 442t-15.5 533z" />
<glyph unicode="V" horiz-adv-x="665" d="M70 1511q0 14 9 25.5t19 11.5q6 0 15 -4q10 -4 18 -22q8 -16 8 -31l4 -29l29 -157l18 -109l103 -702l26 -195q16 -98 27 -186l14 145l23 236l49 448q18 190 27 250l10 106l14 103q10 61 15 115q4 39 39 38l12 -8h-4l20 -16q0 -59 -16 -174l-12 -80l-7 -51 q-27 -223 -32 -279q-31 -260 -65 -563t-36 -356q-16 -45 -39 -45l-8 2q-25 6 -22 6q-37 152 -82 452l-113 732l-18 90q-45 176 -45 247zM342 100h6l-2 6z" />
<glyph unicode="W" horiz-adv-x="944" d="M70 1513q6 10 18 18.5t25 8.5q31 0 42 -10t11 -37v-18v-21v-22q63 -670 133 -1254h4q6 59 25 326l4 59q14 260 16 275q6 61 25 180l24 166l6 94q2 25 3.5 42t3.5 26l2 26q0 2 3 6t9 8q29 0 37 -14q6 -6 8 -13t2 -18l4 -18q20 -109 88 -565.5t82 -601.5l6 -4l76 829 q4 78 27 246q20 170 20 276l-2 21v18q0 27 12.5 38t40.5 11q12 0 25.5 -10t13.5 -22q0 -20 -22 -39q2 -2 2 -13q0 -12 -3 -25.5t-5 -19.5q-23 -184 -56 -542l-41 -424l-16 -162l-25 -207l-10 -104q0 -25 -7 -37.5t-30 -12.5q-33 0 -39 25q-4 12 -8 57l-2 31 q-49 315 -147 1122l-6 4l-3 -2v-2l-102 -1118v-37q0 -80 -35 -80q-39 0 -39 45v25q2 8 2 20v11l-36 248q-14 78 -19 112q-18 143 -39 320q-16 139 -57 458l-6 48q-31 231 -45 253z" />
<glyph unicode="X" horiz-adv-x="573" d="M70 12q0 18 39 158q51 193 94 395l20 103q12 53 17 104q2 18 2 49q0 68 -11.5 140.5t-37.5 185.5l-33 141q-4 27 -15 53l-12 41q-20 70 -24 113q18 27 32 27q16 0 26.5 -9.5t12.5 -21.5q2 -6 2 -31q2 -12 2 -26l49 -244l15 -72q8 -49 18 -100t19 -96q12 94 80 458l4 31 q6 47 16 90q6 25 17.5 38t23.5 13q37 0 37 -22q0 -16 -12 -47q-14 -35 -15 -35q-29 -113 -84 -387l-20 -111q-14 -92 -17 -110q-4 -37 -4 -49l109 -553l22 -105l4 -24q4 -16 5 -39q0 -43 -33 -43q-10 0 -17.5 1t-13.5 7t-6 18q0 37 -10 113q0 2 -11 59q2 -8 -10 54l-14 73 q-47 238 -60 277q-8 -14 -59 -249t-65 -319l-2 -14l-5 -24q-4 -10 -10 -21q-2 -6 -8 -8t-10 -4l-17 -2q-8 0 -19 8t-11 16z" />
<glyph unicode="Y" horiz-adv-x="516" d="M49 1513q0 14 12.5 23.5t28.5 9.5l25 -16q6 -92 55 -328.5t74 -271.5q4 10 20 178q14 150 41 297q25 135 60 135q10 0 16 -1t10 -5t4 -16q0 -18 -8 -43l-8 -41l-53 -306q-10 -59 -18.5 -146t-8.5 -153q0 -18 2 -32q2 -16 2 -35l-12 -31v-16l4 -80l4 -43q6 -82 6 -123 q0 -324 -4 -414l6 -6q0 -4 2 -6v-8q0 -25 -11 -42.5t-34 -17.5q-12 0 -20 15.5t-8 34.5q0 66 6 196l4 199q0 29 -6 84q-8 49 -9 82q0 35 -12 96q-12 66 -12 94q0 25 -21 117q-6 18 -8 29.5t-4 15.5q-8 57 -27 141q-35 190 -67 301q-31 98 -31 133z" />
<glyph unicode="Z" horiz-adv-x="505" d="M70 8q41 72 62.5 166t37.5 234q12 123 25 180l94 680q6 41 10 71q16 111 16 160q-23 0 -67 -6l-70 -4q-92 0 -92 41l14 16q12 -4 50 -4q29 0 96 10q53 10 96 11q33 0 33 -37q-23 -49 -33 -197q-4 -72 -8 -90l-62 -465q-51 -401 -82 -579q-2 -20 -24 -74q-23 -55 -23 -82 l68 4q43 6 65 6q86 0 86 -41l-18 -18q-68 0 -121 -4l-123 -4q-16 -1 -30 26z" />
<glyph unicode="[" horiz-adv-x="532" d="M121 -35q0 94 20 252q23 176 23 254q0 180 26 506q25 336 25 504q0 10 -8 24q-10 16 -10 23l41 24q59 0 98 -2q86 -4 117 -16q18 -8 18 -23q0 -10 -9 -16t-22 -6q-20 0 -57 6q-41 6 -57 6q-63 0 -64 -43q0 -119 -4 -270.5t-10 -255.5l-21 -305l-4 -60q-12 -168 -12 -196 q-16 -287 -27 -320v-49l-10 -16l70 -4q66 -4 100 -15q41 -8 41 -35q0 -20 -35 -20q-69 0 -149 15.5t-80 37.5z" />
<glyph unicode="\" horiz-adv-x="679" d="M131 1505q0 12 9.5 19.5t21.5 7.5q6 0 8 -6q6 -8 16 -43l7 -23l4 -12q100 -387 256 -1061l28 -115q43 -168 43 -241q0 -23 -20 -37q-25 4 -37 35q-12 33 -16 63l-7 29l-41 178q-16 59 -28 121l-31 129l-22 96q-55 227 -97 412q-37 174 -53 260q-2 4 -4 16.5t-8 34.5 l-21 88q-8 39 -8 49z" />
<glyph unicode="]" horiz-adv-x="512" d="M59 1511q0 12 21 23q31 12 117 16q39 2 98 2l41 -24q0 -6 -10 -23q-10 -16 -11 -24q0 -152 29 -486q27 -311 27 -485q0 -72 20 -272q20 -172 21 -273q0 -23 -80 -38t-152 -15q-35 0 -35 20q0 27 43 35q35 10 103 15l65 4l-8 16v49q-14 31 -36.5 459t-30.5 694 q0 39 -7 121q-6 86 -6 133q0 23 -7 32t-28 9l-57 -4l-57 -4h-10q-49 0 -50 20z" />
<glyph unicode="^" horiz-adv-x="622" d="M100 389q0 39 31 176l12 68l17 106q14 106 23.5 157.5t18.5 87.5t13 50q18 76 25 117q4 16 4 47q8 80 18 127q8 33 24.5 51.5t39.5 18.5l22 -19q0 -68 8 -153q8 -86 21 -156l20 -154q18 -111 70 -315l18 -63q8 -31 15.5 -54.5t11.5 -42.5q10 -47 10 -53t-9 -15.5 t-17 -9.5q-29 0 -45 66q-12 39 -25 109q-8 33 -8 34q-49 188 -117 654q-16 -49 -26.5 -110.5t-24.5 -168.5l-19 -127q-31 -188 -81 -438l-27 -10q-8 2 -15.5 8t-7.5 12zM303 1229l2 4l-2 4v-8z" />
<glyph unicode="_" horiz-adv-x="745" d="M100 -14q0 6 283 6h293q16 0 30.5 -10.5t14.5 -24.5h-64q0 -6 -213 -6h-303q-16 0 -28.5 9t-12.5 26z" />
<glyph unicode="`" horiz-adv-x="679" d="M33 1257q0 37 12 46h12q61 0 80 -23q0 -2 25 -8q20 -6 82 -31q49 -20 84 -39q39 -23 39 -39q0 -6 -8.5 -11t-16.5 -5q-33 10 -116 38.5t-91 35.5q-12 -4 -33 -4q-70 0 -69 40z" />
<glyph unicode="a" horiz-adv-x="641" d="M80 25l2 6l2 6q37 145 61 289l25 127l25 155l22 135q10 55 37 179q29 139 35 190q2 6 8 76q8 78 14 115q6 53 13 61h14q6 -2 14 -2q25 0 37 12q14 0 25.5 -9t11.5 -22q0 -98 14 -225q8 -66 13 -108q23 -264 114 -992v-6q0 -20 -16 -30q-31 0 -39 7t-12 38 q-18 150 -23 186l-10 82q-45 10 -102 10l-74 4q-49 6 -72 6q-12 0 -14 -10q0 -6 -2 -6l-4 -41q-2 -37 -23 -147q-10 -55 -24 -86q-16 -35 -31 -35q-12 0 -26.5 11t-14.5 24zM221 377q0 -10 78 -18.5t137 -8.5h21q-20 295 -78 871l-111 -547q-47 -236 -47 -297z" />
<glyph unicode="b" horiz-adv-x="579" d="M139 84q0 74 13 217q10 160 10 215l-2 92q-2 41 -2 90q0 82 6 244q6 166 6 246l-2 119l-8 10v12q0 53 43 53q33 0 107.5 -25.5t74.5 -41.5v-6q37 -59 50.5 -119t13.5 -152q0 -150 -33 -243h2q-8 -16 -33 -54l-29 -43q37 -29 62.5 -84t32.5 -106q2 -18 4 -45t4 -64l2 -53 v-29q0 -197 -123 -290q-63 -49 -158 -50q-16 0 -27.5 12.5t-11.5 30.5zM211 96l2 -39q49 0 91 33t66.5 85t24.5 104l2 8v16v23q0 86 -14 163q-23 104 -80 152q-33 27 -78 27q-10 -170 -10 -279v-47q0 -59 6 -94q-10 -18 -10 -98v-54zM219 766l4 -12l4 -15h17q135 0 135 273 q0 23 -4 88l-2 39l-4 4q-8 68 -23 106q-10 29 -32.5 46.5t-49.5 17.5q-45 0 -45 -269q0 -51 2 -69v-41v-70q-2 -33 -2 -73v-25z" />
<glyph unicode="c" horiz-adv-x="583" d="M125 446v234q0 133 8 258q6 92 18.5 155.5t38.5 127.5q29 66 64 92q14 12 55 28q27 10 51 23h82h7q2 -2 6 -2l10 -2l8 -6q6 -6 6 -8q2 -4 2 -13l-26 -30h-86q-39 0 -71 -38t-48 -96q-16 -51 -26.5 -120.5t-12.5 -120.5q-4 -66 -4 -90l-4 -11q0 -115 -4 -206l-4 -207 q0 -90 12 -166q10 -82 59 -148q46 -65 143 -65h3q31 0 51 18q31 0 31 -22q0 -14 -26 -34t-52 -30h-68l-49 19q-39 12 -66.5 34.5t-52.5 67.5q-43 82 -51 236q-4 70 -4 122z" />
<glyph unicode="d" horiz-adv-x="712" d="M139 1311q0 14 17.5 29.5t31.5 15.5q16 0 31 -17l23 -18q12 -6 47 -12t49 -13q31 -16 82 -63q49 -49 67 -62l-2 -4q2 -12 31 -53q23 -31 37 -57q33 -94 33 -244q0 -27 -2 -47v-49v-17l-2 -20q0 -39 12 -62q-12 -66 -31 -247q-6 -53 -20.5 -112.5t-34.5 -98.5 q-53 -100 -178 -170h-144q-16 0 -16 55q-8 141 -8 356q0 135 2 242l2 242q0 156 -8 385q-18 16 -19 41zM223 883q0 -438 25 -764l-2 -39l8 -4l4 -27h64q14 16 26 27l14 10l17 14q143 129 143 492v39q-2 16 -2 35l-8 206q-6 119 -72 246q-31 63 -83 103.5t-109 40.5 q-25 0 -25 -379z" />
<glyph unicode="e" horiz-adv-x="524" d="M139 76q16 43 17 84q0 47 -6 135l-5 135q0 102 7 307q8 182 8 310l-4 122q-4 55 -4 123q0 31 14 44.5t45 13.5q20 0 33 -13q4 -2 59 -8q51 -6 88 -18q39 -12 39 -31q0 -20 -39 -41q-117 39 -166 39l-10 -12q2 -18 2 -88q0 -88 -4 -158q-2 -72 -2 -160q0 -57 29 -57l32 2 q16 2 35 2q80 0 80 -37q0 -23 -10 -38t-31 -15q-31 0 -47 16l-66 10h-10l-10 -10v-6q4 -35 4 -162q0 -80 -2 -145l-2 -146q0 -80 6 -163q2 -47 20.5 -62.5t67.5 -15.5l37 2q18 2 41 2q59 0 59 -27q0 -37 -90 -37h-168q-37 0 -41 43v27q2 10 2 25z" />
<glyph unicode="f" horiz-adv-x="557" d="M150 2q20 186 20 498q0 137 12 413q14 256 15 412q0 18 17 28.5t40 10.5q72 0 158 -16.5t86 -42.5q0 -35 -72 -35q-45 20 -115 20l-24 -2q-6 -2 -9.5 -6t-5.5 -12q-4 -16 -8 -23q0 -92 -8 -217q-10 -121 -10 -215v-72q0 -8 33 -6q104 0 104 -32q0 -16 -15.5 -27.5 t-33.5 -11.5q-12 0 -35 6q-20 6 -35 6q-37 0 -37 -100v-232q0 -49 6 -145q6 -98 7 -148q0 -82 -50 -82z" />
<glyph unicode="g" horiz-adv-x="694" d="M121 623q0 70 8 159l12 129q10 154 23.5 233t59.5 139t143 71q10 2 32 2q63 0 64 -29q0 -12 -13.5 -21.5t-27.5 -9.5l-21 2l-18 2q-35 0 -62.5 -22.5t-46.5 -65.5q-43 -102 -55 -200q-16 -129 -20 -226l-2 -157q0 -100 6 -150q14 -23 19 -68.5t9 -125.5q4 -72 18.5 -122 t51.5 -83q41 -35 113 -35q59 0 84 66q29 70 32 143q6 92 7 156v112q-20 20 -72 21h-16q-10 -2 -23 -2q-49 0 -49 24q0 35 49 35q35 0 57 -2l45 -2q39 -6 62 -14q25 -8 24 -23q0 -27 -12 -76q-10 -57 -10 -77q0 -86 4 -156q2 -72 2 -158q-104 -106 -209 -106q-94 0 -139 22.5 t-66.5 87t-38.5 205.5q-24 199 -24 313v9z" />
<glyph unicode="h" horiz-adv-x="669" d="M139 1315q0 14 10.5 26.5t24.5 12.5q41 0 41 -119q0 -139 -2 -252q-4 -113 -4 -248q0 -24 144 -24h12h8q39 0 56 15t17 52q0 109 -14 283q-12 188 -12 282q0 12 10 21.5t25 9.5l18 -6q14 -2 19 -6q0 -160 12 -477q12 -319 12 -479q0 -242 14 -406l-14 -23q0 21 -61 21 q-10 379 -11 549l-6 8l8 18q0 37 -8 76l-30 8q-18 -6 -41 -6q-16 0 -68 11q-35 10 -63 10l-23 -8q0 -72 -2 -129t-2 -129l4 -9q0 -57 6 -172q6 -113 6 -170q0 -23 -8 -38t-24 -15q-45 0 -46 123q0 104 3 188l2 187q0 186 -7 200q10 20 11 136q0 98 -9 239l-4 80zM387 735v4 l4 -4h-4z" />
<glyph unicode="i" horiz-adv-x="485" d="M49 1325q0 8 18.5 16.5t30.5 8.5q78 0 156 -9q47 -2 94 -18q37 -12 37 -35q0 -4 -6 -16l-47 -4q-14 12 -60 12l-10 -6q6 -18 6 -109q0 -135 -2 -243l-4 -244q0 -92 8 -223q6 -150 6 -226v-26q-2 -14 -2 -37q0 -47 7 -57l-2 -5q0 -20 45 -20q18 0 30 2h31q59 0 59 -29 q0 -18 -12 -29.5t-33 -11.5q-18 0 -32 4q-16 2 -35 3q-12 0 -37 -11q-25 -12 -37 -12q-47 0 -55 20q-10 0 -17 -2h-16q-45 0 -57 21q0 14 16 24l10 11h60l8 8l4 18l2 25q0 125 -6 223l-4 76l-4 149q0 80 6 240l4 238q0 156 -10 237q-18 6 -62 6l-22 -2q-12 -2 -27 -2 q-39 0 -39 35z" />
<glyph unicode="j" horiz-adv-x="491" d="M14 -197q0 6 35 29q33 25 74 49q45 31 47 35q31 35 48.5 109.5t17.5 146.5q0 219 -9 545q-10 303 -10 543l-12 22q-14 4 -49 10q-39 2 -70 17q-31 10 -31 26q0 8 16.5 16.5t26.5 8.5q39 0 124 -14.5t151.5 -35t66.5 -36.5q0 -12 -9 -19.5t-23 -7.5t-56 10q-31 10 -55 11 q-18 0 -18 -41q0 -113 10 -426q10 -236 10 -424v-225q-12 -27 -12 -86q0 -86 -49 -195q-27 -55 -69 -89t-91 -34h-15l-47 47v4z" />
<glyph unicode="k" horiz-adv-x="675" d="M139 10v385q0 33 11 129q10 96 10 129q0 86 10 199q8 115 8 197v284q12 23 39 23q16 0 27.5 -11.5t11.5 -27.5q-16 -37 -16 -98l-4 -215q-4 -98 -5 -218q20 6 160 283q139 274 154 274q53 0 53 -34q-131 -195 -217 -379l-2 -66q-2 -29 -2 -65q0 -90 69.5 -338t118.5 -344 q23 -31 27 -35q20 -29 29.5 -48.5t9.5 -39.5q0 -14 -10.5 -22.5t-24.5 -8.5q-49 0 -117 184q-63 170 -110 369t-52 279l-6 8l-30 -66q-23 -43 -34 -70.5t-22 -68.5q-12 -39 -12 -80t-4 -74l-4 -73v-262q0 -18 6 -60q6 -37 6 -57q0 -10 -10 -17.5t-23 -7.5q-27 0 -36 8.5 t-9 34.5z" />
<glyph unicode="l" horiz-adv-x="509" d="M150 20q4 12 4 68q0 188 6 559q6 369 6 533l4 73l6 62q0 14 14 14q10 0 29 -6l6 -2q0 -45 -2 -82v-80v-223q2 -98 2 -223q-2 -10 -2 -45l-2 -43q-2 -41 -2 -84q0 -47 2 -86l2 -88l-6 -17l2 2q0 -6 -2 -8v-8q0 -16 6 -29l-6 -196v-13q0 -35 2 -41q0 -10 10 -10l107 -4 q47 0 64.5 -1t21.5 -1h6q10 0 20.5 -11.5t10.5 -23.5q0 -25 -33 -26q-35 2 -170 2l4 -2q-20 0 -39 -3q-16 -4 -37 -4q-28 0 -34 47z" />
<glyph unicode="m" horiz-adv-x="1161" d="M150 -10q0 184 32 647q31 430 31 645q0 10 -4 21q-6 12 -6 18q0 31 53 31q35 0 41 -31q8 -41 8 -61l2 -25q10 -53 60 -164q39 -88 59 -153q12 -49 23 -80q33 -119 43 -176l26 -54q6 -31 25 -100q18 -78 26.5 -127t8.5 -94q23 35 128 419t123 490q2 4 3.5 11t3.5 20 q4 27 18 80q16 41 49 41q14 0 32.5 -12.5t18.5 -24.5q0 -854 27 -903v-107q-2 -47 -2 -108q0 -131 14 -197q2 -2 3 -6t3 -10q2 -8 2 -19q0 -23 -13 -45t-32 -22q-41 0 -41 131v135q0 295 -12 461l-6 75q-8 51 -8 90q0 70 4 127l4 127q0 63 -8 97q-41 -29 -248 -863l-2 -30 q-6 -51 -16 -82q-6 -23 -17.5 -35t-25.5 -12q-33 0 -47.5 16t-14.5 51q0 55 -52 286.5t-112.5 444.5t-83.5 236q-2 -72 -16 -338q-29 -471 -29 -741l2 -82q-8 -27 -43 -27q-6 0 -20 11.5t-14 17.5zM883 1147l6 -2v4h-2z" />
<glyph unicode="n" horiz-adv-x="942" d="M156 829q0 59 6 183q6 121 6 180v27q0 100 37 131l6 -7l20 5q8 -2 19 -13q8 -8 8 -18l4 -12q0 -4 1 -7l1 -4q33 -145 148 -407q117 -276 145 -367q20 -72 33 -127q39 -174 92 -268l4 6q47 455 47 1116l-2 25q-2 10 -2 26q0 43 29 43q18 0 31.5 -18t13.5 -41v-137l-10 -17 q0 -195 -22.5 -639t-43.5 -483l-35 -8v-2l-2 2l-20 -6q-17 0 -24 12t-13 37q-2 16 -8 29l2 6q-16 96 -70 235l-37 107q-4 4 -39 104l-16 49q-184 569 -232 617q-16 -55 -16 -144q0 -47 2 -81l2 -80l-2 -49q-2 -23 -2 -50q0 -45 4 -77l4 -66h-6q0 -342 14 -377v-184 q8 -16 9 -43q0 -16 -11.5 -28.5t-27.5 -12.5q-43 0 -43 110l4 66q4 31 4 68q0 98 -6 295t-6 294z" />
<glyph unicode="o" horiz-adv-x="708" d="M121 715v71q0 571 147 572q10 0 29 -6q66 -23 129 -29q39 -8 78 -80q43 -74 64.5 -194.5t21.5 -247.5l-4 -10q0 -68 2 -121l2 -123q0 -104 -8 -189q-12 -127 -41 -219q-18 -55 -42 -92t-59 -61q-33 -25 -80 -25q-239 0 -239 754zM184 717q0 -45 2 -80l2 -82 q0 -96 17 -221q12 -92 28.5 -155.5t47.5 -108.5q31 -49 71 -50q80 0 119 113q39 115 47 234q8 123 8 196q0 82 -12 242q-10 178 -10 242l-8 16l4 10q0 90 -50.5 155.5t-121.5 65.5q-94 0 -113 -90q-4 -31 -8 -88q0 -152 -12 -207q0 -31 -7 -96z" />
<glyph unicode="p" horiz-adv-x="538" d="M150 698q20 33 20 189q0 373 -10 397q18 51 28 51h91q23 0 64.5 -21.5t70.5 -45.5q51 -47 51 -242q0 -104 -6 -160q-4 -39 -13.5 -61.5t-27.5 -50.5q-31 -47 -105 -82q-31 -16 -86 -33v-244q0 -51 11 -200l4 -66l4 -133q0 -37 -39 -37l-31 16q-22 124 -22 281v14 q0 66 6 191l4 190q-14 29 -14 47zM225 1217q0 -49 6 -148l5 -147q0 -53 -5 -97l-4 -96l15 -20q59 0 100 55q14 20 26.5 55t16.5 68q12 59 12 137v55q0 29 -2 55.5t-8 51.5q-8 27 -21.5 44t-35.5 30q-25 12 -60 12q-25 0 -35 -12.5t-10 -42.5z" />
<glyph unicode="q" horiz-adv-x="704" d="M121 707v10q0 639 203 651q16 -6 45 -12l43 -15q92 -47 131 -137q43 -100 53 -194q8 -100 8 -193v-96q0 -145 -31 -404q-16 -135 -45.5 -234t-66.5 -122q-2 -2 -15 -6q-25 -12 -24 -25q0 -72 16 -145q2 -18 17 -80q8 -33 14 -70q14 -14 63 -14q41 0 41 -29q0 -27 -26 -26 q-39 0 -81 8t-54 25q0 86 -17 163q0 -2 -14 91l-16 79q-57 12 -91 27.5t-63 48.5q-55 61 -68 219q-22 232 -22 460v20zM172 702l4 -20l4 -18v-89q0 -589 159 -589h1q11 0 29 6q23 6 30 6q39 0 75 107.5t52 240.5q16 125 17 168v358q0 442 -226 443q-33 0 -57 -37t-39 -100 q-33 -133 -41 -273q-8 -133 -8 -203z" />
<glyph unicode="r" horiz-adv-x="593" d="M150 1288q0 23 3 37t13 27q8 14 29 14q104 0 167.5 -51t63.5 -148v-149q0 -39 -25.5 -104.5t-56.5 -120.5l-27 -52q23 -104 89.5 -375.5t72.5 -287.5q2 -2 5 -10.5t14 -24.5q14 -29 14 -49q0 -29 -23 -29l-28 10q-25 27 -53.5 141.5t-53.5 258.5q-16 117 -47 231 q-25 102 -47 103h-6q-45 0 -45 -29q0 -147 16 -449q8 -184 19 -215l-17 -34h-28l-17 16q-32 918 -32 1269v21zM209 1260q0 -137 4 -248q2 -111 2 -248l4 -4q39 0 69.5 39t49.5 100q33 125 33 199q0 47 -5.5 77.5t-17.5 65.5q-25 72 -117 72q-10 0 -16 -17.5t-6 -35.5z" />
<glyph unicode="s" horiz-adv-x="503" d="M104 25l11 16q8 0 37 -6q23 -8 36 -8q45 0 80 35.5t54 93.5q28 102 28 194v6q0 141 -86 303q-53 94 -81.5 149.5t-51.5 127.5q-27 84 -27 162q0 74 37 174q18 47 52 76.5t73 29.5q27 0 52.5 -18.5t25.5 -38.5q0 -16 -27 -16q-8 0 -20 6t-23 6q-31 0 -55 -24.5t-37 -63.5 q-24 -73 -24 -134q0 -44 10 -85q2 -12 4 -20.5t2 -12.5l12 -41l11 -37l16 -37q6 -14 13 -25.5t14 -21.5l24 -43q8 -12 35 -58t49 -98q20 -43 30.5 -80.5t18.5 -91.5q6 -51 6 -112q0 -98 -26 -185q-37 -102 -107 -143q-38 -24 -86 -24h-4l-10 -5q-23 5 -43.5 18t-22.5 32z M332 1311h2q0 2 -2 2v-2z" />
<glyph unicode="t" horiz-adv-x="608" d="M20 1337q10 23 39 23q61 0 179 -8q106 -10 178 -11h43l43 2q37 0 37 -26q0 -12 -13.5 -19.5t-31.5 -7.5q-41 0 -86 4l-89 4q-8 0 -8 -6q-2 -6 -2 -39q0 -199 25 -602q22 -401 22 -584v-16q0 -14 -17 -26.5t-34 -12.5l-22 17l-2 75q-2 33 -2 74q0 20 2 35l2 37q0 20 -9 49 q0 137 -20 510q-20 360 -23 489q-127 0 -170 7q-41 10 -41 32z" />
<glyph unicode="u" horiz-adv-x="749" d="M145 1319l13 29q47 -6 47 -113l6 -543q0 -57 10 -217q12 -143 12 -217q0 -233 154 -233q94 0 121 430l2 41q14 563 14 833l-2 19q-2 8 -2 18q0 23 35 23q25 0 31 -13q4 -20 4 -71q0 -156 -12 -209l2 -13q0 -27 -7 -82l-4 -81v-21q2 -8 2 -20q-4 -49 -4 -95q-2 -14 -2 -45 q-4 -195 -8 -338q-6 -178 -49 -301q-45 -131 -146 -131q-32 0 -70 21.5t-63 50.5q-29 37 -45 207t-20 389q0 49 -2 74q-4 514 -17 608z" />
<glyph unicode="v" horiz-adv-x="729" d="M70 1341q0 6 9 15.5t17 9.5q29 0 45 -63q8 -27 15.5 -61t11.5 -48q4 -31 6 -37q39 -158 47 -201l21 -104l18 -98l19 -105q6 -55 16 -96l31 -201q0 -8 14 -104l14 -101q41 133 70 406q29 254 82 510q45 221 63 321l27 11q8 -2 15 -8.5t7 -12.5q0 -45 -18 -123l-12 -53 l-35 -162q-31 -133 -42 -204.5t-26 -206.5l-4 -47q-10 -111 -15 -150t-24 -100q-16 -61 -26 -109l-4 -47q-4 -72 -17 -127q-16 -70 -65 -70l-23 19q0 158 -50 465t-132 671l-16 64l-27 94q-12 43 -12 53zM350 137l2 -4v8z" />
<glyph unicode="w" horiz-adv-x="839" d="M76 1311q8 16 33 16t34 -47q2 -8 7 -82v-27q2 -43 47 -405q41 -328 47 -535q8 -18 10 -55q4 -41 10 -55h2l33 215q0 29 12 98q14 109 25 213q10 125 12 217q6 147 14 197l7 51q8 78 8 76l37 16q14 0 24.5 -8t10.5 -20q0 -6 -7 -17q82 -276 111 -661l4 -76q2 -92 14 -158 q12 -53 23 -78q25 70 41 340.5t16 468.5q0 37 15 158q14 100 14 160q0 18 -8 35q0 33 41 32q16 0 21 -4t5 -20q0 -57 -10 -88l4 -13q-16 -88 -16 -192q0 -18 4 -23l-12 -41l6 -14q-6 -12 -6 -24l6 -39l-6 -9q0 -72 -16.5 -319.5t-24.5 -314.5l-13 -56q-12 -43 -12 -67 q0 -66 -6 -125q-2 -41 -16 -72q-14 -27 -31 -27q-23 0 -29 25t-6 47v19q-8 82 -23 153q-18 100 -24 155.5t-19 200.5q-18 229 -34 349q-18 152 -39 172l-13 -111q-10 -98 -10 -139q0 -86 -8 -172t-29 -219l-24 -170q-2 -4 -3 -15.5t-3 -27.5q-4 -57 -23 -152q-6 -41 -18 -65 q-8 -25 -25 -25q-29 0 -47 92q-14 82 -27 260q-6 113 -10 168t-16 131l-8 64q-16 111 -20.5 158t-8.5 137q-2 68 -6 122t-15 113q-8 51 -26 109zM594 176h2l-2 2v-2z" />
<glyph unicode="x" horiz-adv-x="509" d="M80 1315q0 8 13 14t24 6q16 0 27.5 -24.5t15.5 -50.5l2 -48q29 -84 51 -204q27 -135 43 -191q12 25 31.5 160t25.5 203q12 166 27 170l16 4l17 2l18 -25q-33 -47 -33 -180v-12l2 -13l-2 -2q-8 -74 -41 -225q-34 -163 -34 -249q0 -38 53 -277.5t70 -280.5q0 -2 10 -16 q14 -27 14 -43q0 -12 -9 -20.5t-22 -8.5q-14 0 -26 6l-37 156q-49 184 -78 342q-25 -37 -45 -213q-20 -182 -37 -225q4 -8 4 -25q0 -20 -7 -35.5t-23 -15.5q-39 -1 -39 24q0 102 57 320q57 215 57 321q0 57 -55 311.5t-74 276.5v8q2 2 2 5v2q0 12 -10 28z" />
<glyph unicode="y" horiz-adv-x="546" d="M49 1307l29 22q20 -4 59 -131q31 -90 56 -178l24 -78q37 -127 53 -131l9 37l-5 10q16 20 41 146q27 143 52 241q27 115 53 115q10 0 18 -6t8 -15q0 -31 -61 -241q-31 -100 -51 -189q-25 -104 -25 -186q10 -20 10 -35q0 -10 -6 -29q-6 -18 -6 -30q0 -10 8 -92q8 -55 9 -95 q0 -90 2 -161v-164v-8q0 -139 -43 -140q-7 0 -17 8.5t-12 14.5q18 49 18 358q0 59 -6 170l-10 146l-12 26l6 25q-12 29 -37 96.5t-49 136.5q-74 195 -96 281q-12 41 -19 76z" />
<glyph unicode="z" horiz-adv-x="524" d="M80 27q0 25 20 106l19 70q29 98 31 114q14 45 38 168q27 127 40.5 180.5t56.5 182.5q49 162 73.5 267.5t24.5 187.5q-31 0 -96 -7q-63 -6 -97 -6q-12 0 -20 10.5t-8 22.5q0 18 74 27q74 6 153 6q14 0 24.5 -2t18.5 -8q8 -12 8 -23q0 -72 -51 -223q-49 -156 -49 -185 q-6 -33 -47 -178l-14 -49q-129 -424 -132 -625q14 -4 60 -4q25 0 43 4q18 2 43 3q59 0 59 -27t-47 -27q-33 0 -59 2l-62 4q-23 0 -45 -12q-25 -10 -28 -10q-31 0 -31 31z" />
<glyph unicode="{" horiz-adv-x="481" d="M121 760q0 14 14 16q25 0 38 26.5t13 69.5l-6 189q-8 137 -8 244q0 113 36 176t95 63q25 0 52.5 -11t27.5 -24q0 -20 -18 -20q-2 -2 -17 -2l-14 4q-16 4 -27 4q-72 0 -71 -199v-252q0 -45 2 -79l4 -78q0 -53 -11.5 -82t-44.5 -47q33 -16 44.5 -45t11.5 -82l-4 -103 q-2 -47 -2 -108v-223q0 -199 71 -199q35 0 53 -2q23 -6 23 -25q0 -23 -80 -22q-59 0 -95 63.5t-36 175.5l4 109q2 43 2 106q0 33 4 140q4 51 4 102q0 88 -57 94q-8 2 -8 21z" />
<glyph unicode="|" horiz-adv-x="311" d="M90 -72q0 92 12 273q12 178 13 270q0 145 16 506q16 360 16 510q0 20 3 35q6 18 18 26q8 4 20 4t13 -22q0 -190 -19 -578q-20 -434 -20 -581q0 -227 -6 -320v-49l-6 -70q0 -20 -35 -20q-19 0 -22 2t-3 14z" />
<glyph unicode="}" horiz-adv-x="481" d="M100 -23q0 23 33 23h14q8 -2 27 -2q74 0 74 199v252l-4 79q-2 35 -2 78q0 55 10 83t43 46q-33 16 -43 44t-10 83q0 57 2 105l4 106v223q0 199 -74 199h-31q-43 0 -43 21q0 12 26 20t52 8q59 0 95 -63.5t36 -175.5l-4 -107q-2 -45 -2 -108q0 -33 -4 -140l-4 -102 q0 -88 59 -94q8 -4 8 -21q0 -12 -16 -16q-25 0 -38 -26.5t-13 -69.5l6 -189q8 -139 8 -244q0 -113 -35.5 -176t-95.5 -63q-26 0 -52 8t-26 20z" />
<glyph unicode="~" horiz-adv-x="800" d="M178 1055q0 66 33 105.5t92 39.5q43 0 92 -61q20 -27 43 -45.5t39 -18.5q12 0 17 2l14 -4q6 14 29 29q18 10 18 47l-4 20l-8 19q6 12 20 12q23 0 35 -20.5t12 -49.5q0 -43 -32.5 -75.5t-75.5 -32.5q-33 0 -70 20.5t-59 42.5q-16 14 -54 58q-8 8 -22 8q-25 0 -46.5 -19.5 t-21.5 -37.5q0 -8 7 -21q4 -16 4 -22q-20 -27 -41 -27q-20 0 -21 31z" />
<glyph unicode="&#xa1;" horiz-adv-x="559" d="M227 1483q16 33 33 43q10 8 27 12q8 0 12 10q51 -2 51 -53q0 -33 -16.5 -54.5t-44.5 -21.5q-21 0 -41.5 21.5t-20.5 42.5zM274 29q0 63 9 159q6 104 6 162q0 96 -2 174t-2 176v492v4l2 4h26l-6 -10q16 -43 17 -121q0 -27 -2 -47v-43q0 -180 20 -490q23 -342 23 -489 q0 -27 -27 -27q-23 0 -43.5 17.5t-20.5 38.5z" />
<glyph unicode="&#xa2;" horiz-adv-x="618" d="M111 842q0 311 163 401q0 20 -6 64l-4 63q0 66 27 66l12 -9q-2 -12 -2 -53q0 -74 10 -135l43 -14q33 -10 62.5 -21.5t52.5 -27.5q25 -18 25 -41q0 -6 -6.5 -16.5t-12.5 -10.5q-16 0 -35 25q-4 6 -11 18t-16.5 17.5t-23.5 9.5q-27 6 -33 16h-37l-2 4q0 -129 31 -385 q31 -252 31 -383q0 -8 -2 -14v-15q0 -16 16 -32q57 0 94 27.5t80 92.5q23 0 23 -36q0 -27 -34 -56.5t-79 -50t-76 -20.5h-18v-54q-2 -23 -2 -51l4 -96l2 -98q0 -16 -12 -17q-8 0 -14.5 5t-6.5 10l-4 -2q-4 76 -4 180v127q-8 2 -39 14t-67 35q-31 16 -49.5 32.5t-32.5 43.5 q-18 29 -21 57q-27 115 -26 330zM162 780q0 -383 162 -383l8 4q0 129 -33 469q-12 203 -33 291q-25 -4 -46 -43t-33.5 -84t-8.5 -57q-16 -147 -16 -189v-8z" />
<glyph unicode="&#xa3;" horiz-adv-x="702" d="M96 49q0 31 78 66q37 16 41 20q35 25 53.5 97.5t18.5 146.5t-16.5 155.5t-51.5 196.5l-20 72l-25 86h-4l-4 -2q-12 0 -21.5 8t-9.5 20q0 29 27 29q0 47 -12 146q-12 96 -13 145q0 78 6 133q4 70 29 135q12 35 30.5 54.5t49.5 33.5q27 14 63 15q45 0 83 -39t55 -90 q16 -49 16 -78l-20 -21q-16 0 -22.5 5.5t-14.5 21.5l-11 20q0 51 -29.5 94.5t-70.5 43.5q-27 0 -50.5 -33t-35.5 -82q-27 -106 -27 -180q0 -88 10.5 -203t22.5 -115q43 0 109 15q72 12 106 12q12 0 21.5 -7t9.5 -20q0 -33 -27 -32q-121 0 -219 -19q47 -104 82 -257t35 -267 q0 -41 -7 -75t-26 -87l-24 -70q47 0 149 -22q102 -23 148 -23q47 0 90 17l28 -21q0 -45 -96 -45q-25 0 -45 2l-47 4l-8 -4q-18 12 -62.5 21.5t-83.5 13.5l-35 4q-53 0 -91 -13.5t-99 -49.5q-33 6 -33 22z" />
<glyph unicode="&#xa4;" horiz-adv-x="940" d="M115 279q0 6 43 51q41 47 47 65q-14 25 -23.5 62t-11.5 65v70q0 186 29 348q18 106 45 135q0 23 -49 74q-49 53 -50 63q0 23 25 23q23 0 40 -14.5t38 -42.5q16 -25 28 -37q8 6 39 39q57 57 58 57q25 27 35 27q61 0 112 -17.5t109 -56.5q12 2 35 37q57 102 94 102l28 -31 q0 -14 -47 -73t-47 -82q0 -6 35 -111q55 -174 55 -258q0 -90 -39 -244q0 -6 -10 -41q-18 -61 -18 -92q0 -45 59 -112q18 -25 19 -37q0 -29 -27 -29q-55 0 -55 39l-43 76q-90 -102 -244 -103q-47 0 -95 27t-85 68q-12 0 -23 -25q-16 -35 -31.5 -54.5t-33.5 -19.5 q-23 0 -32 12.5t-9 39.5zM233 586q0 -63 11.5 -104.5t42.5 -69.5q0 -63 49 -96t125 -33q49 0 91 25.5t69 70.5q55 92 73 205q16 104 17 196q0 78 -22.5 186.5t-51.5 127.5q-18 0 -28.5 14t-10.5 33q-20 29 -62 46t-83 17q-29 0 -80 -42t-54 -68l19 -19q0 -27 -7 -36t-22 -7 q-10 0 -18 -8q-16 -25 -35.5 -147.5t-19.5 -180.5q0 -4 4 -37q-6 -27 -7 -73z" />
<glyph unicode="&#xa5;" horiz-adv-x="919" d="M43 1716v31l27 8q14 0 34 -20q35 -33 97 -125q8 -12 19 -29.5t26 -40.5q20 -35 28 -43q0 -14 60 -102q25 -39 43 -72q25 -47 51 -94q23 -35 31 -41q12 -16 18 -17q27 51 51 140q8 37 60 194q43 145 76 232q16 45 27 59t32 14q14 0 24.5 -9t10.5 -21q-41 -88 -94 -277 q-53 -184 -80 -258q0 -33 -33 -102q-33 -70 -33 -96q25 -12 51 -13l111 4q74 6 111 6q12 0 36 -43q-2 -27 -145 -26h-164l-2 -55q-2 -25 -2 -56h227h21q8 2 18 2q43 0 43 -45q0 -10 -13 -20t-24 -10h-8l4 2l-14 4q-10 4 -23 4h-227l-8 -4q0 -123 -14 -326q-16 -195 -17 -328 v-26q2 -12 2 -27q0 -74 -47 -74q-41 0 -41 25q6 12 16.5 122.5t10.5 143.5l4 154l4 80l2 71q6 104 6 162q0 6 -4 23q-82 0 -256 -11q-18 8 -35 39l9 27q176 0 292 8q4 41 4 94q0 27 -22 27q-41 0 -74 -4l-74 -4q-115 0 -114 37l14 22q43 0 80 -2h80q98 0 110 14v39 q-23 10 -100 152q-106 193 -182 318.5t-121 162.5z" />
<glyph unicode="&#xa6;" horiz-adv-x="313" d="M111 -31q0 70 6 201l4 199q0 10 1 34.5t1 71.5l2 86q0 10 4 43q6 23 37 23q4 0 7 -1t3 -5q2 -2 2 -17l-6 -184l-4 -152q0 -127 -6 -176v-49l-6 -70q0 -8 -3 -13t-8 -5q-2 -2 -10 -2q-16 0 -20 3t-4 13zM135 874l4 222q6 145 6 219l2 94q0 49 1.5 62.5t1.5 15.5q0 20 2 35 q6 18 18 26q8 4 20 4t13 -22l-4 -174l-6 -142q0 -158 -7 -217v-49l-6 -69q0 -20 -20 -21q-17 0 -21 3t-4 13z" />
<glyph unicode="&#xa7;" horiz-adv-x="495" d="M90 784q0 106 45 177q-29 70 -29 137q0 82 37 174q20 47 53 76.5t72 29.5q25 0 51.5 -18.5t26.5 -38.5q0 -16 -27 -16q-8 0 -20 6q-16 6 -23 6q-31 0 -55 -24.5t-37 -63.5q-25 -76 -24 -139q0 -70 27.5 -128.5t82.5 -134.5l70 -96q29 -39 47.5 -89t18.5 -105 q0 -104 -48 -183q31 -68 31 -131q0 -82 -37 -174q-20 -47 -53 -76.5t-72 -29.5q-24 0 -50.5 18.5t-26.5 38.5q0 16 26 16q8 0 23 -6q12 -6 20 -6q31 0 55.5 20.5t36.5 53.5q25 61 25 112q0 70 -26.5 129.5t-84.5 147.5l-71 104q-29 41 -46.5 96.5t-17.5 116.5zM143 760 q0 -51 18.5 -104.5t43.5 -90.5q27 -43 61 -90l60 -84q26 68 26 129q0 49 -18.5 104.5t-44.5 94.5l-64 92q-12 23 -24 37l-33 49q-25 -61 -25 -137z" />
<glyph unicode="&#xa8;" horiz-adv-x="919" d="M279 1133q0 18 15 34.5t34 16.5q20 0 30.5 -20.5t10.5 -47.5q0 -16 -15.5 -25.5t-36.5 -9.5q-16 0 -27 16.5t-11 35.5zM549 1135q0 18 15.5 34.5t33.5 16.5t31.5 -16.5t13.5 -32.5q0 -47 -53 -47q-17 0 -29 14t-12 31z" />
<glyph unicode="&#xa9;" horiz-adv-x="1239" d="M115 924q0 137 18 286q14 96 32.5 172t49.5 150q33 80 76 134t104 87q57 35 137 35t150 -29.5t123 -85.5q111 -115 168 -276q63 -184 86 -340q23 -160 22 -301q0 -754 -499 -754q-168 0 -261.5 60.5t-132 167t-51.5 274.5q-6 72 -8 158q-4 39 -9 128t-5 134zM186 940 q0 -96 13 -238q0 -23 4 -59l2 -49q8 -127 20 -211q8 -63 21.5 -101t42.5 -89q25 -45 58.5 -72t88.5 -45q53 -18 119 -19q201 0 301 113q49 55 81 125t56 170l-2 10q0 20 13 57q10 41 10 56v305q0 47 -19 133l-20 98q-66 401 -287 553l-26 19l-13 8l-28 16q-8 6 -16.5 8.5 t-12.5 4.5q-12 4 -35 4q-66 0 -121 -31t-94 -84q-74 -100 -113 -268q-31 -147 -39 -295q-4 -82 -4 -119zM328 793v8q0 84 4 160q6 106 20 196q16 100 54 184q37 84 106 117q35 18 94 19q41 0 67.5 -16.5t74.5 -80.5q57 -76 57 -104q0 -12 -7 -20.5t-20 -8.5q-35 0 -71 82 q-16 35 -46 58.5t-63 23.5q-43 0 -76 -27.5t-53 -70.5q-16 -39 -28.5 -97.5t-18.5 -111.5l-8 -107l-8 -79l4 -9q-8 -37 -9 -86v-37q0 -90 4.5 -146t20.5 -126q16 -78 45 -117v-6q27 -31 40 -42t42 -25q27 -14 59 -15q39 0 72 16.5t51 39.5q4 4 26.5 28.5t33.5 24.5 q31 0 30 -45q0 -29 -34.5 -57.5t-84 -47t-83.5 -18.5q-46 0 -93 18q-8 4 -19 10.5t-24 12.5l-43 20q-80 100 -100 234q-10 66 -13 114t-3 134z" />
<glyph unicode="&#xaa;" horiz-adv-x="509" d="M92 795l2 4v4q6 23 15 67l20 93q6 23 12 69q2 10 6.5 35t12.5 51q12 43 12 76q2 12 7 34.5t14 63.5q12 53 20 107q0 2 3 12t3 29q0 10 2 31.5t4 33.5q4 31 6 33h21h8q14 0 21 6q35 0 34 -16q0 -59 9 -125q2 -16 4 -31.5t2 -30.5q4 -51 16 -148t19 -138l34 -264v-3 q0 -12 -10 -18q-20 0 -32.5 5t-14.5 22q-8 82 -13 112.5t-5 34.5q-23 6 -56 6l-43 2l-39 4q-4 0 -8 -6v-4l-2 -22q-4 -35 -14 -82q-2 -14 -12 -47q-14 -8 -22.5 -14.5t-12.5 -6.5q-6 0 -14.5 6t-8.5 15zM188 1001q0 -6 44 -11t75 -5h12l-24 285l-19 190l-63 -305 q-25 -129 -25 -154z" />
<glyph unicode="&#xab;" horiz-adv-x="800" d="M123 698q0 14 57 156l39 98q20 49 41 101.5t45 109.5q72 174 78 195v2q39 106 57 106q37 0 41 -28q-27 -41 -49 -97l-22 -57l-19 -49l-29 -78q-92 -244 -108 -289q-55 -160 -68 -176q4 -70 271 -536q88 -152 88 -168q0 -8 -15.5 -15.5t-25.5 -7.5q-9 1 -21 15 q-29 37 -49 77q-4 6 -22 43l-13 27l-24 47q-92 178 -127 248q-66 131 -88 182q-37 80 -37 94zM297 698q0 23 47 140l107 243q55 121 69 166q0 6 12 39q8 33 17.5 60.5t21.5 48.5q12 23 27 26l27 -20q-8 -61 -48 -160.5t-92 -202.5q-49 -98 -82.5 -191t-33.5 -147 q0 -16 140 -300.5t175 -346.5l18 -14q-2 -12 -11 -25.5t-17 -13.5l-12 2l-15 2h-4q-33 49 -82 160l-35 78l-102 213l-21 45q-12 20 -17 31.5t-7 17.5q-6 16 -43 69q-39 47 -39 80z" />
<glyph unicode="&#xac;" horiz-adv-x="800" d="M147 768q0 14 15 14l61 4q39 4 74 5l94 4q41 2 96 2q39 0 68 4q18 -2 32.5 -11.5t14.5 -23.5q0 -8 -4 -37l-4 -29q0 -135 2 -170q0 -16 -8 -24t-19 -8q-10 0 -22 10t-12 20l-5 103q-2 43 -2 96q0 6 -10 10q-4 0 -13 1t-28 1h-33q-10 0 -63 -4q-29 -2 -64 -2h-161l-2 6 q-6 18 -7 29z" />
<glyph unicode="&#xad;" horiz-adv-x="544" d="M70 756q0 6 127 12t223 6q16 0 30.5 -10t14.5 -25q0 -6 -126 -12t-226 -6q-17 0 -30 10t-13 25z" />
<glyph unicode="&#xae;" horiz-adv-x="1300" d="M164 715v135q2 59 2 135q0 930 502 930q78 0 159.5 -51.5t135.5 -128.5q31 -8 38 -45q8 -39 29 -58q0 -51 55 -352q23 -129 32 -209t9 -151v-66q0 -43 -4 -223l-2 -60q-2 -94 -12 -165.5t-29 -167.5q-31 -168 -108 -250q-80 -82 -146.5 -118t-152.5 -36q-147 0 -256 70 q-90 59 -154 180q-45 90 -74 244q-18 98 -22 262q-2 37 -2 125zM233 1042q0 -72 7 -213q8 -129 8 -213q0 -436 131 -604q27 -37 72 -57q45 -29 57 -39q39 -14 67 -14l19 -8q139 0 235 63q88 59 140 168q45 90 67 223q16 96 21 244q2 33 2 115q0 588 -123 944l14 16 q-18 51 -57 64q-39 43 -63.5 63.5t-63.5 40.5q-47 20 -84 20q-78 0 -145.5 -28.5t-112.5 -79.5q-45 -49 -80 -118.5t-55 -143.5q-39 -133 -51 -305q-4 -90 -5 -138zM424 1454q0 53 11 85t36 46q25 16 56.5 21.5t88.5 5.5q92 0 142 -56q49 -57 59 -131q12 -86 12 -155 q0 -66 -14 -116t-37 -79t-41 -43q-18 -16 -33.5 -32.5t-15.5 -30.5q0 -20 45 -187l94 -329q45 -162 50 -162v-2l8 -27q8 -18 14 -41q8 -16 8 -22q0 -16 -39 -31q-20 0 -41 33q-29 47 -63 184l-23 98q-4 16 -14 62q-10 27 -27 94l-14 57l-43 174q-18 70 -29 70q-14 0 -43 -12 q-23 -14 -45 -15l-6 -79v-37q0 -90 23 -293t22 -293q0 -20 -6 -33q-6 -10 -27 -10q-20 0 -34.5 11t-14.5 30q0 145 -8 264q-6 49 -14 96q-12 68 -12 107v399q0 63 -13 189q-12 98 -12 190zM500 1415q0 -82 6 -248q2 -68 10 -137q6 -55 19 -55q32 0 110 63.5t90 98.5 q18 55 19 135q0 51 -4 94q-6 57 -21 102q-16 45 -57 68q-25 12 -49 12q-55 0 -81 -10t-34 -37.5t-8 -85.5z" />
<glyph unicode="&#xaf;" horiz-adv-x="720" d="M156 1137q0 16 131 16h114q72 0 105 -4q25 -2 35 -9t10 -20q-4 -16 -131 -16h-117h-39q-51 0 -65 4q-31 4 -39 14q-4 8 -4 15z" />
<glyph unicode="&#xb0;" horiz-adv-x="536" d="M90 1133q0 125 68 202q37 43 88 43q84 0 142 -55t58 -133q0 -225 -190 -225q-41 0 -80 27.5t-62.5 67.5t-23.5 73zM135 1122q0 -41 37 -79.5t88 -38.5q43 0 74 17t47 48q27 55 27 105q0 68 -43 112.5t-113 44.5q-35 0 -63.5 -33.5t-41.5 -83.5q-12 -45 -12 -92z" />
<glyph unicode="&#xb1;" horiz-adv-x="800" d="M131 655q0 16 4 22.5t19 6.5l55 -2l53 -4q84 0 84 16l-4 103q-6 68 -6 102q0 25 8 35t33 10q37 0 37 -35l-8 -20l4 -80q4 -37 4 -82q0 -29 13 -39t44 -10l61 4l62 2q63 0 63 -37q0 -33 -34 -33q-33 0 -62 4q-27 2 -63 3h-11q-47 0 -60 -11.5t-13 -56.5q0 -31 10 -86 q8 -70 8 -78q0 -14 -12 -23.5t-31 -9.5q-12 0 -27.5 9.5t-15.5 19.5v64q0 29 2 53l2 53q0 20 -1 31.5t-7 21.5t-18.5 12.5t-42.5 2.5l-45 -5q-31 -6 -46 -6q-59 0 -59 43zM176 252q0 6 131 12t219 6q16 0 30.5 -10t14.5 -24q0 -6 -130 -12.5t-222 -6.5q-16 0 -29.5 10.5 t-13.5 24.5z" />
<glyph unicode="&#xb2;" horiz-adv-x="559" d="M139 719q45 123 62 153q70 152 100.5 271t30.5 256q0 156 -72 155q-14 -8 -24.5 -24.5t-12.5 -34.5q-2 -14 -18.5 -26.5t-24.5 -6.5q-14 8 -14 13v12q0 47 24 80q6 8 27 13t33 5q68 0 101.5 -33.5t35.5 -89.5l-2 -2l2 -41q2 -18 2 -41q0 -92 -25.5 -219t-60.5 -205 q-25 -61 -33 -75l-26 -56l-27 -63q-2 -4 -2 -12q0 -6 6 -7q27 6 49.5 9.5t57.5 3.5q16 0 16 -17q0 -31 -10 -30q-25 0 -80 -7q-39 -4 -86 -4q-12 0 -20.5 6.5t-8.5 16.5z" />
<glyph unicode="&#xb3;" horiz-adv-x="516" d="M80 1468q37 72 113 72q16 0 44.5 -8t36.5 -19l5 -2q45 -68 45 -215v-14q0 -33 -11 -49q-6 -6 -10 -16.5t-8 -16.5q-4 -4 -8 -9t-10.5 -8t-20.5 -5q25 -8 44 -26.5t28 -41.5q12 -37 22 -98q0 -8 8 -45q6 -23 7.5 -38.5t1.5 -39.5q0 -41 -5 -74q-2 -31 -18 -74 q-8 -23 -39 -36t-35 -15q-25 -8 -39 -8q-20 0 -44.5 24.5t-24.5 45.5l8 4q14 0 35 -17l14 -10q45 0 65.5 25.5t20.5 95.5q0 78 -6 127q-6 63 -35 123q-12 33 -37 53h-4h-6q-14 0 -22 4v4l-5 6q0 4 13 17q4 6 21.5 25.5t27.5 47.5q10 31 10 56q0 49 -6 90q-6 59 -33 92 q-6 6 -12 6q-4 0 -9 -2t-12 -2q-16 0 -29.5 -9t-19.5 -22q-16 -41 -26 -32q-33 25 -35 34z" />
<glyph unicode="&#xb4;" horiz-adv-x="620" d="M186 1139q0 6 58 53l65 53l56 43q70 53 75 60q45 0 45 -31l-6 -33q-106 -49 -256 -174q-14 0 -25.5 8t-11.5 21z" />
<glyph unicode="&#xb5;" horiz-adv-x="749" d="M86 -273q0 92 12 273q12 178 13 270q0 145 16 506q16 360 16 510q0 20 3 35q6 18 18 26q8 4 20 4t13 -22q0 -190 -19 -578q-20 -434 -20 -581q0 -227 -6 -320v-49l-6 -70q0 -20 -35 -20q-19 0 -22 2t-3 14zM145 1319l13 29q47 -6 47 -113l6 -543q0 -57 10 -217 q12 -143 12 -217q0 -233 154 -233q94 0 121 430l2 41q14 563 14 833l-2 19q-2 8 -2 18q0 23 35 23q25 0 31 -13q4 -20 4 -71q0 -156 -12 -209l2 -13q0 -27 -7 -82l-4 -81v-21q2 -8 2 -20q-4 -49 -4 -95q-2 -14 -2 -45q-4 -195 -8 -338q-6 -178 -49 -301q-45 -131 -146 -131 q-32 0 -70 21.5t-63 50.5q-29 37 -45 207t-20 389q0 49 -2 74q-4 514 -17 608z" />
<glyph unicode="&#xb6;" horiz-adv-x="925" d="M31 1389q0 160 61 272q33 59 71 83.5t101 43.5q57 14 72 20q47 18 121 19q61 4 55 4q14 20 49 20q6 0 39 -8q25 -8 41 -8q37 0 47 4q14 -12 41 -16q43 -6 60.5 -12.5t17.5 -20.5q0 -29 -41 -29q-25 0 -41 4l4 -209l4 -104q8 -182 8 -311q0 -145 -6 -439q-8 -260 -8 -438 q0 -47 8 -114q6 -76 6 -115q0 -14 -10 -23.5t-24 -9.5q-52 0 -52 100q0 217 9 537q10 399 10 537q0 92 -8 223q-6 147 -7 223v35q2 12 3 31q0 53 -20.5 78.5t-74.5 25.5q-23 0 -22 -104q0 -117 12 -355q14 -221 14 -354q0 -104 -4 -256q-2 -16 -2 -45l-6 -123 q-2 -104 -8 -184q-4 -68 -10 -163t-9 -151l5 -12q0 -12 -13.5 -21.5t-25.5 -9.5q-39 0 -39 41q0 166 20 455q23 315 23 453l-2 79q-2 35 -2 78h-172q-31 12 -74 25q-80 23 -127 49q-61 37 -82 131l-4 31q0 20 -8 33zM94 1454q0 -166 96 -227q49 -31 106.5 -43.5t141.5 -12.5 q37 0 48.5 8.5t11.5 32.5q0 63 -11 242q-8 141 -8 242v28l2 29q-18 18 -106 19q-74 0 -139.5 -46.5t-103.5 -120t-38 -151.5z" />
<glyph unicode="&#xb7;" horiz-adv-x="301" d="M100 745q0 20 16.5 38t37.5 18q16 0 32.5 -17.5t16.5 -35.5q0 -51 -58 -52q-18 0 -31.5 15.5t-13.5 33.5z" />
<glyph unicode="&#xb8;" horiz-adv-x="620" d="M229 -393q0 20 23 20q8 0 33 -10t32 -10q35 0 57.5 42t22.5 99q0 68 -30 92l-27 -4l-29 -4q-31 0 -55 41q16 43 16 119v22l60 9q-8 -61 -8 -105q150 -8 149 -205q0 -33 -21.5 -70.5t-58.5 -64.5t-76 -27q-32 0 -60 15.5t-28 40.5z" />
<glyph unicode="&#xb9;" horiz-adv-x="520" d="M100 1513q0 14 25 15q14 2 88 2q10 0 26.5 -6t16.5 -13v-34v-109l4 -106q0 -31 8 -160q6 -125 6 -205v-14l5 -64l2 -65v-11l-2 -8l4 -2h26q12 2 27 2q35 0 35 -14q0 -10 -7.5 -21.5t-19.5 -11.5l-90 -2l-117 -4q-8 0 -12 12.5t-4 28.5q0 2 2 5t6 3h33h33q18 0 23 4t5 19 q0 190 -26 622q0 2 1 10.5t1 26.5v37q0 27 -8.5 33t-45.5 6l-12 -2h-12q-10 0 -15.5 9t-5.5 17z" />
<glyph unicode="&#xba;" horiz-adv-x="530" d="M100 1188v39q0 164 23.5 240.5t79.5 76.5q2 0 14 -4q51 -14 72 -14q25 -2 39 -12.5t24 -32.5q23 -41 35 -107.5t12 -138.5l-2 -4q0 -39 2 -70v-67q0 -57 -4 -105q-6 -78 -20 -121q-20 -61 -58 -86q-8 -6 -28.5 -10t-34.5 -4q-82 0 -118 102.5t-36 317.5zM156 1143 q2 -20 2 -45q0 -45 10 -123q8 -86 41 -141q14 -27 41 -27q45 0 65 57q23 70 27 129q2 51 2 111l-4 133l-4 43l-4 92l-4 8l2 6q0 49 -27 82t-67 33q-29 0 -44.5 -9t-19.5 -34l-4 -49q0 -18 -1 -56t-5 -59l-4 -53q-2 -23 -2 -53v-45z" />
<glyph unicode="&#xbb;" horiz-adv-x="800" d="M98 39l19 14q41 72 178 351.5t137 295.5q0 53 -32.5 147.5t-82.5 190.5q-49 96 -90 198.5t-51 164.5l27 20q12 -2 27.5 -25.5t23.5 -49.5q10 -39 16 -58l11 -41q14 -45 69 -166q18 -39 86 -196l21 -47q47 -117 47 -140q0 -31 -37 -80q-41 -59 -45 -69q-8 -23 -25 -51 l-20 -43l-176 -365l-43 -86l-17 -2l-12 -2q-8 0 -17.5 13.5t-13.5 25.5zM256 -12q0 10 88 168q106 184 187 339.5t83 196.5q-12 16 -67 176q-16 45 -109 289l-28 78l-19 49q-29 74 -43 105q-8 20 -29 49q4 29 41 28q18 0 58 -106v-2l78 -195q25 -57 45 -109.5t41 -101.5 l39 -98q57 -141 57 -156q0 -14 -37 -94q-70 -154 -178 -358q-45 -90 -62 -119l-34 -70q-27 -51 -50 -77q-12 -14 -18 -15q-12 0 -27.5 7.5t-15.5 15.5z" />
<glyph unicode="&#xbc;" horiz-adv-x="1269" d="M100 1513q0 14 25 15q14 2 88 2q10 0 26.5 -6t16.5 -13v-34v-109l4 -106q0 -31 8 -160q6 -125 6 -205v-14l5 -64l2 -65v-11l-2 -8l4 -2h26q12 2 27 2q35 0 35 -14q0 -10 -7.5 -21.5t-19.5 -11.5l-90 -2l-117 -4q-8 0 -12 12.5t-4 28.5q0 2 2 5t6 3h33h33q18 0 23 4t5 19 q0 190 -26 622q0 2 1 10.5t1 26.5v37q0 27 -8.5 33t-45.5 6l-12 -2h-12q-10 0 -15.5 9t-5.5 17zM377 31q0 43 10 96t33 145l29 115q131 582 256 1061l4 12q2 12 6 25.5t6 19.5l10 21q4 6 8 6q31 0 31 -27q0 -2 -10 -49l-21 -88l-10 -51l-78 -344l-153 -674l-41 -178 q-2 -6 -6 -29q-4 -16 -17 -63q-12 -31 -39 -35q-18 12 -18 37zM815 352q0 14 4 27q6 18 6 29q0 37 6 110q4 49 5 113v180q0 8 -2 14t-3 15q0 8 7.5 11t33.5 3q20 0 21 -14q0 -27 -2 -47t-2 -45q0 -23 4 -39l-4 -2l4 -33q0 -47 -6 -144q-8 -84 -8 -124q0 -10 4 -17l4 -16 l-4 -17q-4 -6 -4 -14q0 -23 10 -23q27 0 79 4.5t58 6.5l2 80q0 66 -8 147q-2 6 -2 17.5t-4 27.5l-4 47q0 6 7 9.5t13 3.5l37 -13l4 -80q2 -35 2 -80q0 -43 4 -98t8 -61q12 0 21 2q16 4 22 4q10 0 15.5 -7t5.5 -26q0 -16 -31 -12h-4q-29 0 -29 -25q0 -45 4.5 -114.5 t6.5 -77.5v-21q0 -14 4 -26l-4 -15l4 -8v-14l-19 -15l-43 7v41l-2 4q6 18 6 39l-4 59q-6 37 -6 57q0 14 2 27l2 24q0 43 -12 50q-2 0 -19.5 -1t-93.5 -1q-12 0 -20 -2.5t-14 -2.5l-11 3h-22.5t-16.5 4q-6 6 -8 6v4l6 37z" />
<glyph unicode="&#xbd;" horiz-adv-x="1200" d="M100 1513q0 14 25 15q14 2 88 2q10 0 26.5 -6t16.5 -13v-34v-109l4 -106q0 -31 8 -160q6 -125 6 -205v-14l5 -64l2 -65v-11l-2 -8l4 -2h26q12 2 27 2q35 0 35 -14q0 -10 -7.5 -21.5t-19.5 -11.5l-90 -2l-117 -4q-8 0 -12 12.5t-4 28.5q0 2 2 5t6 3h33h33q18 0 23 4t5 19 q0 190 -26 622q0 2 1 10.5t1 26.5v37q0 27 -8.5 33t-45.5 6l-12 -2h-12q-10 0 -15.5 9t-5.5 17zM392 31q0 43 10 96t33 145l28 115q131 582 256 1061l4 12q2 12 6.5 25.5l6.5 19.5l10 21q4 6 8 6q31 0 31 -27q0 -2 -10 -49l-21 -88l-10 -51l-78 -344l-154 -674l-40 -178 q-2 -6 -7 -29q-4 -16 -16 -63q-12 -31 -39 -35q-18 12 -18 37zM839 14q45 123 62 153q70 152 100.5 271t30.5 256q0 156 -72 155q-14 -8 -24.5 -24.5t-12.5 -34.5q-2 -14 -18.5 -26.5t-24.5 -6.5q-14 8 -14 13v12q0 47 24 80q6 8 27 13t33 5q68 0 101.5 -33.5t35.5 -89.5 l-2 -2l2 -41q2 -18 2 -41q0 -92 -25.5 -219t-60.5 -205q-25 -61 -33 -75l-26 -56l-27 -63q-2 -4 -2 -12q0 -6 6 -7q27 6 49.5 9.5t57.5 3.5q16 0 16 -17q0 -31 -10 -30q-25 0 -80 -7q-39 -4 -86 -4q-12 0 -20.5 6.5t-8.5 16.5z" />
<glyph unicode="&#xbe;" horiz-adv-x="1269" d="M80 1468q37 72 113 72q16 0 44.5 -8t36.5 -19l5 -2q45 -68 45 -215v-14q0 -33 -11 -49q-6 -6 -10 -16.5t-8 -16.5q-4 -4 -8 -9t-10.5 -8t-20.5 -5q25 -8 44 -26.5t28 -41.5q12 -37 22 -98q0 -8 8 -45q6 -23 7.5 -38.5t1.5 -39.5q0 -41 -5 -74q-2 -31 -18 -74 q-8 -23 -39 -36t-35 -15q-25 -8 -39 -8q-20 0 -44.5 24.5t-24.5 45.5l8 4q14 0 35 -17l14 -10q45 0 65.5 25.5t20.5 95.5q0 78 -6 127q-6 63 -35 123q-12 33 -37 53h-4h-6q-14 0 -22 4v4l-5 6q0 4 13 17q4 6 21.5 25.5t27.5 47.5q10 31 10 56q0 49 -6 90q-6 59 -33 92 q-6 6 -12 6q-4 0 -9 -2t-12 -2q-16 0 -29.5 -9t-19.5 -22q-16 -41 -26 -32q-33 25 -35 34zM395 31q0 43 10.5 96t32.5 145l29 115q131 582 256 1061l4 12q2 12 6 25.5t6 19.5l11 21q4 6 8 6q31 0 30 -27q0 -2 -10 -49l-20 -88l-10 -51l-78 -344l-154 -674l-41 -178 q-2 -6 -6 -29q-4 -16 -16 -63q-12 -31 -39 -35q-19 12 -19 37zM815 352q0 14 4 27q6 18 6 29q0 37 6 110q4 49 5 113v180q0 8 -2 14t-3 15q0 8 7.5 11t33.5 3q20 0 21 -14q0 -27 -2 -47t-2 -45q0 -23 4 -39l-4 -2l4 -33q0 -47 -6 -144q-8 -84 -8 -124q0 -10 4 -17l4 -16 l-4 -17q-4 -6 -4 -14q0 -23 10 -23q27 0 79 4.5t58 6.5l2 80q0 66 -8 147q-2 6 -2 17.5t-4 27.5l-4 47q0 6 7 9.5t13 3.5l37 -13l4 -80q2 -35 2 -80q0 -43 4 -98t8 -61q12 0 21 2q16 4 22 4q10 0 15.5 -7t5.5 -26q0 -16 -31 -12h-4q-29 0 -29 -25q0 -45 4.5 -114.5 t6.5 -77.5v-21q0 -14 4 -26l-4 -15l4 -8v-14l-19 -15l-43 7v41l-2 4q6 18 6 39l-4 59q-6 37 -6 57q0 14 2 27l2 24q0 43 -12 50q-2 0 -19.5 -1t-93.5 -1q-12 0 -20 -2.5t-14 -2.5l-11 3h-22.5t-16.5 4q-6 6 -8 6v4l6 37z" />
<glyph unicode="&#xbf;" horiz-adv-x="493" d="M121 80q0 182 65 407q27 94 46.5 239.5t19.5 299.5l-2 117q0 -4 4 0q6 6 20 6q20 0 23 -25q0 -313 -39 -559q-10 -63 -33 -149q-27 -111 -39 -188.5t-12 -145.5q0 -53 4 -93t21 -85q18 -53 49 -54h22q72 0 72 127q0 37 -14 123q20 10 34 11q14 0 17 -11q14 -90 14 -127 q0 -61 -24 -110q-31 -57 -95 -58q-87 0 -110 45q-20 41 -31.5 104.5t-11.5 125.5zM217 1341q0 51 57 52q18 0 31.5 -15.5t13.5 -34.5q0 -20 -16 -37.5t-37 -17.5q-18 0 -33.5 17.5t-15.5 35.5z" />
<glyph unicode="&#xc0;" horiz-adv-x="722" d="M70 39l2 4v2l22 102q25 96 43 189q20 104 31 135q16 68 65 338l13 68q53 315 73 397q10 49 37 145q10 41 29 82q18 35 31 35q33 0 47 -20q10 -18 31.5 -203t37.5 -373l27 -340q0 -88 12 -266q12 -180 13 -268v-9q0 -23 -6 -41q-8 -16 -39 -16q-17 0 -28 10t-11 25v268 q0 25 -104.5 45.5t-172.5 20.5q-4 0 -13 -31t-13 -45q-27 -106 -54 -227l-10 -46q-4 -16 -20 -16t-29.5 10.5t-13.5 24.5zM223 426q90 -29 207 -29h12q6 -2 15 -2q41 1 41 21q0 127 -14.5 347t-30.5 388q-4 72 -17 158l-8 80q0 -2 -4 22l-4 25q-16 -45 -31.5 -125 t-32.5 -189q-49 -305 -84 -458l-18 -70q-31 -102 -31 -156v-12zM251 1741q0 35 21 49l12 -4q61 -8 74 -35q0 -2 24 -13l74 -45q45 -29 76 -53q33 -27 33 -43q0 -14 -27 -14q-31 16 -94.5 52t-97.5 56l-33 2q-61 12 -62 48z" />
<glyph unicode="&#xc1;" horiz-adv-x="722" d="M70 39l2 4v2l22 102q25 96 43 189q20 104 31 135q16 68 65 338l13 68q53 315 73 397q10 49 37 145q10 41 29 82q18 35 31 35q33 0 47 -20q10 -18 31.5 -203t37.5 -373l27 -340q0 -88 12 -266q12 -180 13 -268v-9q0 -23 -6 -41q-8 -16 -39 -16q-17 0 -28 10t-11 25v268 q0 25 -104.5 45.5t-172.5 20.5q-4 0 -13 -31t-13 -45q-27 -106 -54 -227l-10 -46q-4 -16 -20 -16t-29.5 10.5t-13.5 24.5zM223 426q90 -29 207 -29h12q6 -2 15 -2q41 1 41 21q0 127 -14.5 347t-30.5 388q-4 72 -17 158l-8 80q0 -2 -4 22l-4 25q-16 -45 -31.5 -125 t-32.5 -189q-49 -305 -84 -458l-18 -70q-31 -102 -31 -156v-12zM422 1669q0 6 58 53l65 53l56 43q70 53 75 60q45 0 45 -31l-6 -33q-106 -49 -256 -174q-14 0 -25.5 8t-11.5 21z" />
<glyph unicode="&#xc2;" horiz-adv-x="722" d="M70 39l2 4v2l22 102q25 96 43 189q20 104 31 135q16 68 65 338l13 68q53 315 73 397q10 49 37 145q10 41 29 82q18 35 31 35q33 0 47 -20q10 -18 31.5 -203t37.5 -373l27 -340q0 -88 12 -266q12 -180 13 -268v-9q0 -23 -6 -41q-8 -16 -39 -16q-17 0 -28 10t-11 25v268 q0 25 -104.5 45.5t-172.5 20.5q-4 0 -13 -31t-13 -45q-27 -106 -54 -227l-10 -46q-4 -16 -20 -16t-29.5 10.5t-13.5 24.5zM223 426q90 -29 207 -29h12q6 -2 15 -2q41 1 41 21q0 127 -14.5 347t-30.5 388q-4 72 -17 158l-8 80q0 -2 -4 22l-4 25q-16 -45 -31.5 -125 t-32.5 -189q-49 -305 -84 -458l-18 -70q-31 -102 -31 -156v-12zM311 1618q2 31 37 117t76 157.5t59 71.5q31 0 31 -43q0 -68 37 -166l22 -73l-2 -13l16 -30l-2 -11q2 -8 5.5 -13t3.5 -9q0 -18 -37 -25l-29 17q-10 131 -57 307q-8 -12 -70 -197q-16 -53 -16 -69l-35 -47z" />
<glyph unicode="&#xc3;" horiz-adv-x="722" d="M70 39l2 4v2l22 102q25 96 43 189q20 104 31 135q16 68 65 338l13 68q53 315 73 397q10 49 37 145q10 41 29 82q18 35 31 35q33 0 47 -20q10 -18 31.5 -203t37.5 -373l27 -340q0 -88 12 -266q12 -180 13 -268v-9q0 -23 -6 -41q-8 -16 -39 -16q-17 0 -28 10t-11 25v268 q0 25 -104.5 45.5t-172.5 20.5q-4 0 -13 -31t-13 -45q-27 -106 -54 -227l-10 -46q-4 -16 -20 -16t-29.5 10.5t-13.5 24.5zM223 426q90 -29 207 -29h12q6 -2 15 -2q41 1 41 21q0 127 -14.5 347t-30.5 388q-4 72 -17 158l-8 80q0 -2 -4 22l-4 25q-16 -45 -31.5 -125 t-32.5 -189q-49 -305 -84 -458l-18 -70q-31 -102 -31 -156v-12zM246 1643q0 63 35 102t86 39t86 -41q16 -31 51 -55.5t66 -24.5q53 0 53 74l-4 20l-8 19q6 12 20 12q23 0 35 -20.5t12 -49.5q0 -43 -32.5 -75.5t-75.5 -32.5q-33 0 -70 20.5t-59 42.5q-16 14 -54 58l-14 6 q-31 0 -53.5 -16.5t-22.5 -38.5l11 -43l-23 -31q-12 0 -25.5 11t-13.5 24z" />
<glyph unicode="&#xc4;" horiz-adv-x="722" d="M70 39l2 4v2l22 102q25 96 43 189q20 104 31 135q16 68 65 338l13 68q53 315 73 397q10 49 37 145q10 41 29 82q18 35 31 35q33 0 47 -20q10 -18 31.5 -203t37.5 -373l27 -340q0 -88 12 -266q12 -180 13 -268v-9q0 -23 -6 -41q-8 -16 -39 -16q-17 0 -28 10t-11 25v268 q0 25 -104.5 45.5t-172.5 20.5q-4 0 -13 -31t-13 -45q-27 -106 -54 -227l-10 -46q-4 -16 -20 -16t-29.5 10.5t-13.5 24.5zM223 426q90 -29 207 -29h12q6 -2 15 -2q41 1 41 21q0 127 -14.5 347t-30.5 388q-4 72 -17 158l-8 80q0 -2 -4 22l-4 25q-16 -45 -31.5 -125 t-32.5 -189q-49 -305 -84 -458l-18 -70q-31 -102 -31 -156v-12zM285 1700q0 18 15.5 35t33.5 17q20 0 30.5 -20.5t10.5 -47.5q0 -16 -15.5 -25.5t-35.5 -9.5q-16 0 -27.5 16.5t-11.5 34.5zM555 1702q0 18 15.5 35t33.5 17t32 -16.5t14 -33.5q0 -47 -54 -47q-16 0 -28.5 14.5 t-12.5 30.5z" />
<glyph unicode="&#xc5;" horiz-adv-x="722" d="M70 39l2 4v2l22 102q25 96 43 189q20 104 31 135q16 68 65 338l13 68q53 315 73 397q10 49 37 145q10 41 29 82q18 35 31 35q33 0 47 -20q10 -18 31.5 -203t37.5 -373l27 -340q0 -88 12 -266q12 -180 13 -268v-9q0 -23 -6 -41q-8 -16 -39 -16q-17 0 -28 10t-11 25v268 q0 25 -104.5 45.5t-172.5 20.5q-4 0 -13 -31t-13 -45q-27 -106 -54 -227l-10 -46q-4 -16 -20 -16t-29.5 10.5t-13.5 24.5zM223 426q90 -29 207 -29h12q6 -2 15 -2q41 1 41 21q0 127 -14.5 347t-30.5 388q-4 72 -17 158l-8 80q0 -2 -4 22l-4 25q-16 -45 -31.5 -125 t-32.5 -189q-49 -305 -84 -458l-18 -70q-31 -102 -31 -156v-12zM346 1714q0 47 37 87t82 40q39 0 76 -39t37 -79q0 -55 -36 -86t-95 -31q-39 0 -70 33.5t-31 74.5zM393 1725q0 -41 17 -64q10 -16 29 -16q26 0 56 17t30 40q0 41 -15.5 70.5t-44.5 29.5q-25 0 -48.5 -25.5 t-23.5 -51.5z" />
<glyph unicode="&#xc6;" horiz-adv-x="835" d="M49 27q2 88 82 405q125 494 268 961q27 92 50 123q23 29 45 28l77 4q53 6 80 6q66 0 66 -32l-15 -25q-98 0 -200 -12q0 -49 6 -152q6 -100 6 -153q0 -133 -2 -240q-2 -104 -2 -238l8 -12q25 0 82 10q43 10 82 11l27 -35q0 -35 -146 -35h-53q0 -135 2 -244q4 -106 4 -243 v-41q-2 -20 -2 -43q0 -35 18 -35q31 0 117 10q78 12 117 12q16 0 30.5 -7t14.5 -19q0 -23 -61 -29q-82 -8 -134 -8q-76 -4 -86 -8l-18 -15q-14 -12 -29 -12l-28 29q16 100 16 241l-4 197l-4 195l-12 14l-64 -6q-47 -2 -100 -11q-45 -10 -47 -18l-103 -391q-4 -18 -15 -75.5 t-24 -90.5q-16 -41 -32 -41q-6 0 -11.5 9t-5.5 16zM256 664q129 6 205 24l4 215l4 250q0 145 -14 240q-18 -20 -106.5 -348t-92.5 -381z" />
<glyph unicode="&#xc7;" horiz-adv-x="675" d="M125 1090q0 106 12 210q8 51 21.5 88t38.5 72q45 70 135 92q47 12 104 13q39 0 79 -22.5t40 -53.5q0 -23 -33 -23q-12 0 -47 15q-31 14 -55 14q-57 0 -103.5 -23.5t-72.5 -62.5q-23 -33 -39.5 -90t-20.5 -115q-6 -51 -6 -123l2 -114q2 -49 2 -107q0 -141 29 -415.5 t55 -317.5q25 -39 73 -59.5t101 -20.5q94 0 144 59q18 25 39 25q18 0 18 -29q0 -37 -22.5 -64.5t-61.5 -41.5q-66 -29 -143 -29q-58 0 -121.5 45t-89.5 103q-25 53 -50.5 337.5t-25.5 424.5v108q-2 47 -2 105zM335 -393q0 20 23 20q8 0 33 -10t32 -10q35 0 57.5 42t22.5 99 q0 68 -30 92l-27 -4l-29 -4q-31 0 -55 41q16 43 16 119v22l60 9q-8 -61 -8 -105q150 -8 149 -205q0 -33 -21.5 -70.5t-58.5 -64.5t-76 -27q-32 0 -60 15.5t-28 40.5z" />
<glyph unicode="&#xc8;" horiz-adv-x="509" d="M45 1741q0 35 21 49l12 -4q61 -8 74 -35q0 -2 24 -13l74 -45q45 -29 76 -53q33 -27 33 -43q0 -14 -27 -14q-31 16 -94.5 52t-97.5 56l-33 2q-61 12 -62 48zM139 1485q0 25 10.5 41t26.5 16h127q29 0 43 -4q20 -6 21 -35q0 -16 -12.5 -26.5t-26.5 -12.5h-35l-33 2l-33 2 q-14 0 -19 -5t-5 -19q0 -96 2 -174v-174v-256q0 -4 4 -4h2h2q51 4 111 4q33 0 32 -29q0 -20 -7 -27.5t-23 -7.5h-117q-8 0 -8 -10l4 -303q4 -141 4 -326v-76h88h86h18q37 0 37 -26q0 -33 -18 -39q-25 -8 -101 -8h-86q-49 0 -68.5 9t-19.5 36v39q-2 16 -2 37v4l2 299l-2 845 q0 131 -4 228z" />
<glyph unicode="&#xc9;" horiz-adv-x="509" d="M139 1485q0 25 10.5 41t26.5 16h127q29 0 43 -4q20 -6 21 -35q0 -16 -12.5 -26.5t-26.5 -12.5h-35l-33 2l-33 2q-14 0 -19 -5t-5 -19q0 -96 2 -174v-174v-256q0 -4 4 -4h2h2q51 4 111 4q33 0 32 -29q0 -20 -7 -27.5t-23 -7.5h-117q-8 0 -8 -10l4 -303q4 -141 4 -326v-76 h88h86h18q37 0 37 -26q0 -33 -18 -39q-25 -8 -101 -8h-86q-49 0 -68.5 9t-19.5 36v39q-2 16 -2 37v4l2 299l-2 845q0 131 -4 228zM215 1669q0 6 58 53l65 53l56 43q70 53 75 60q45 0 45 -31l-6 -33q-106 -49 -256 -174q-14 0 -25.5 8t-11.5 21z" />
<glyph unicode="&#xca;" horiz-adv-x="509" d="M104 1618q2 31 37 117t76 157.5t59 71.5q31 0 31 -43q0 -68 37 -166l22 -73l-2 -13l16 -30l-2 -11q2 -8 5.5 -13t3.5 -9q0 -18 -37 -25l-29 17q-10 131 -57 307q-8 -12 -70 -197q-16 -53 -16 -69l-35 -47zM139 1485q0 25 10.5 41t26.5 16h127q29 0 43 -4q20 -6 21 -35 q0 -16 -12.5 -26.5t-26.5 -12.5h-35l-33 2l-33 2q-14 0 -19 -5t-5 -19q0 -96 2 -174v-174v-256q0 -4 4 -4h2h2q51 4 111 4q33 0 32 -29q0 -20 -7 -27.5t-23 -7.5h-117q-8 0 -8 -10l4 -303q4 -141 4 -326v-76h88h86h18q37 0 37 -26q0 -33 -18 -39q-25 -8 -101 -8h-86 q-49 0 -68.5 9t-19.5 36v39q-2 16 -2 37v4l2 299l-2 845q0 131 -4 228z" />
<glyph unicode="&#xcb;" horiz-adv-x="509" d="M78 1700q0 18 15.5 35t33.5 17q20 0 30.5 -20.5t10.5 -47.5q0 -16 -15.5 -25.5t-35.5 -9.5q-16 0 -27.5 16.5t-11.5 34.5zM139 1485q0 25 10.5 41t26.5 16h127q29 0 43 -4q20 -6 21 -35q0 -16 -12.5 -26.5t-26.5 -12.5h-35l-33 2l-33 2q-14 0 -19 -5t-5 -19q0 -96 2 -174 v-174v-256q0 -4 4 -4h2h2q51 4 111 4q33 0 32 -29q0 -20 -7 -27.5t-23 -7.5h-117q-8 0 -8 -10l4 -303q4 -141 4 -326v-76h88h86h18q37 0 37 -26q0 -33 -18 -39q-25 -8 -101 -8h-86q-49 0 -68.5 9t-19.5 36v39q-2 16 -2 37v4l2 299l-2 845q0 131 -4 228zM348 1702 q0 18 15.5 35t33.5 17t32 -16.5t14 -33.5q0 -47 -54 -47q-16 0 -28.5 14.5t-12.5 30.5z" />
<glyph unicode="&#xcc;" horiz-adv-x="552" d="M65 1741q0 35 21 49l12 -4q61 -8 74 -35q0 -2 24 -13l74 -45q45 -29 76 -53q33 -27 33 -43q0 -14 -27 -14q-31 16 -94.5 52t-97.5 56l-33 2q-61 12 -62 48zM121 1513q0 18 16 29q14 6 76 6h57q31 -2 78 -2q16 0 26.5 -7t10.5 -21q0 -12 -6 -22.5t-19 -10.5q-14 0 -24 2 h-25h-20q-20 0 -25 -4l-4 -8q0 -160 27 -646q25 -449 24 -645v-57q-2 -27 -2 -55h74q47 0 47 -29q0 -12 -9 -23.5t-20 -11.5h-110q-49 2 -125 2q-14 0 -25.5 10.5t-11.5 22.5q0 27 35 27h80q0 236 -15 594q-8 287 -16 450l2 105v135q0 102 -4 131h-72q-20 0 -20 28z" />
<glyph unicode="&#xcd;" horiz-adv-x="552" d="M121 1513q0 18 16 29q14 6 76 6h57q31 -2 78 -2q16 0 26.5 -7t10.5 -21q0 -12 -6 -22.5t-19 -10.5q-14 0 -24 2h-25h-20q-20 0 -25 -4l-4 -8q0 -160 27 -646q25 -449 24 -645v-57q-2 -27 -2 -55h74q47 0 47 -29q0 -12 -9 -23.5t-20 -11.5h-110q-49 2 -125 2 q-14 0 -25.5 10.5t-11.5 22.5q0 27 35 27h80q0 236 -15 594q-8 287 -16 450l2 105v135q0 102 -4 131h-72q-20 0 -20 28zM235 1669q0 6 58 53l65 53l56 43q70 53 75 60q45 0 45 -31l-6 -33q-106 -49 -256 -174q-14 0 -25.5 8t-11.5 21z" />
<glyph unicode="&#xce;" horiz-adv-x="552" d="M121 1513q0 18 16 29q14 6 76 6h57q31 -2 78 -2q16 0 26.5 -7t10.5 -21q0 -12 -6 -22.5t-19 -10.5q-14 0 -24 2h-25h-20q-20 0 -25 -4l-4 -8q0 -160 27 -646q25 -449 24 -645v-57q-2 -27 -2 -55h74q47 0 47 -29q0 -12 -9 -23.5t-20 -11.5h-110q-49 2 -125 2 q-14 0 -25.5 10.5t-11.5 22.5q0 27 35 27h80q0 236 -15 594q-8 287 -16 450l2 105v135q0 102 -4 131h-72q-20 0 -20 28zM125 1618q2 31 37 117t76 157.5t59 71.5q31 0 31 -43q0 -68 37 -166l22 -73l-2 -13l16 -30l-2 -11q2 -8 5.5 -13t3.5 -9q0 -18 -37 -25l-29 17 q-10 131 -57 307q-8 -12 -70 -197q-16 -53 -16 -69l-35 -47z" />
<glyph unicode="&#xcf;" horiz-adv-x="552" d="M98 1700q0 18 15.5 35t33.5 17q20 0 30.5 -20.5t10.5 -47.5q0 -16 -15.5 -25.5t-35.5 -9.5q-16 0 -27.5 16.5t-11.5 34.5zM121 1513q0 18 16 29q14 6 76 6h57q31 -2 78 -2q16 0 26.5 -7t10.5 -21q0 -12 -6 -22.5t-19 -10.5q-14 0 -24 2h-25h-20q-20 0 -25 -4l-4 -8 q0 -160 27 -646q25 -449 24 -645v-57q-2 -27 -2 -55h74q47 0 47 -29q0 -12 -9 -23.5t-20 -11.5h-110q-49 2 -125 2q-14 0 -25.5 10.5t-11.5 22.5q0 27 35 27h80q0 236 -15 594q-8 287 -16 450l2 105v135q0 102 -4 131h-72q-20 0 -20 28zM368 1702q0 18 15.5 35t33.5 17 t32 -16.5t14 -33.5q0 -47 -54 -47q-16 0 -28.5 14.5t-12.5 30.5z" />
<glyph unicode="&#xd0;" horiz-adv-x="880" d="M51 776q0 37 127 37h19l8 4v4l2 6q0 41 -14 185q-14 115 -15 184l-4 123l-4 61q-8 106 -8 183q0 10 12 26.5t21 16.5q61 0 127.5 -35t121.5 -94q104 -111 172 -236v-4q96 -272 97 -588q0 -137 -51.5 -284.5t-145.5 -272.5q-98 -129 -215 -180q-18 6 -22 8 q-16 4 -23.5 10.5t-13.5 20.5h-2q0 270 -19 651q-4 37 -4 53q-2 25 -6 57.5t-6 41.5q-23 0 -64 -6q-43 -6 -61 -7q-18 0 -23.5 7.5t-5.5 27.5zM231 1534q0 -160 15.5 -424t34.5 -289q25 0 69 13q55 10 72 10q16 0 27.5 -15.5t15.5 -33.5l-21 -25q-109 0 -168 -14 q2 -63 7.5 -178t7.5 -127l-2 -2q0 -53 10 -222q10 -164 10 -221q19 4 33 14q6 4 27 25l14 14q104 104 180 265t76 292q0 121 -2 174.5t-12 135.5q-8 76 -29 161q-35 166 -128 288t-232 163z" />
<glyph unicode="&#xd1;" horiz-adv-x="778" d="M100 1489v20q0 25 13.5 34t42.5 9q12 0 27.5 -12t19.5 -27l43 -200q29 -143 49 -217q43 -170 147 -557q59 -254 107 -389q12 31 12 98q0 199 4 356l4 357q0 88 2 159v158l-2 289q10 29 43 28q16 0 17 -59q0 -27 -2 -43q0 -16 -1 -23.5t-1 -9.5v-131q0 -272 -2 -485 q-2 -215 -2 -484q0 -51 -7 -161l-4 -162q0 -59 -53 -60q-14 0 -26.5 14.5t-16.5 33.5l-6 38q-6 25 -6 31q-229 821 -252 922q-18 74 -84 409q-2 -12 -2 -84v-741l4 -293l4 -291l-12 -16h-47l-7 16q4 20 5 82l-2 357l-5 356v268v195q-2 86 -2 192q0 12 -2 23zM172 1643 q0 63 35 102t86 39t86 -41q16 -31 51 -55.5t66 -24.5q53 0 53 74l-4 20l-8 19q6 12 20 12q23 0 35 -20.5t12 -49.5q0 -43 -32.5 -75.5t-75.5 -32.5q-33 0 -70 20.5t-59 42.5q-16 14 -54 58l-14 6q-31 0 -53.5 -16.5t-22.5 -38.5l11 -43l-23 -31q-12 0 -25.5 11t-13.5 24z " />
<glyph unicode="&#xd2;" horiz-adv-x="753" d="M116 1772q0 35 21 49l12 -4q61 -8 74 -35q0 -2 24 -13l74 -45q45 -29 76 -53q33 -27 33 -43q0 -14 -27 -14q-31 16 -94.5 52t-97.5 56l-33 2q-61 12 -62 48zM125 942v82q0 172 20 299q12 80 34 131t59 82q35 35 90 35q49 0 90 -19.5t67 -50.5q23 -29 41.5 -76t28.5 -90 l16 -96q49 -350 50 -621v-6q0 -102 -5 -188q-4 -102 -22 -215q-8 -55 -23.5 -96t-40.5 -82q-43 -74 -120 -74q-285 0 -285 985zM186 831q0 -137 27 -348q16 -133 41 -231t65 -166q41 -72 95 -72q32 0 59 38t41 106q33 143 41 280q4 111 4 215v9l-2 204q-4 111 -25 287 q-16 125 -67 256q-20 51 -54 80t-73 29q-35 0 -61.5 -33t-43.5 -92q-37 -137 -40 -254q-6 -100 -7 -207v-101z" />
<glyph unicode="&#xd3;" horiz-adv-x="753" d="M125 942v82q0 172 20 299q12 80 34 131t59 82q35 35 90 35q49 0 90 -19.5t67 -50.5q23 -29 41.5 -76t28.5 -90l16 -96q49 -350 50 -621v-6q0 -102 -5 -188q-4 -102 -22 -215q-8 -55 -23.5 -96t-40.5 -82q-43 -74 -120 -74q-285 0 -285 985zM186 831q0 -137 27 -348 q16 -133 41 -231t65 -166q41 -72 95 -72q32 0 59 38t41 106q33 143 41 280q4 111 4 215v9l-2 204q-4 111 -25 287q-16 125 -67 256q-20 51 -54 80t-73 29q-35 0 -61.5 -33t-43.5 -92q-37 -137 -40 -254q-6 -100 -7 -207v-101zM286 1700q0 6 58 53l65 53l56 43q70 53 75 60 q45 0 45 -31l-6 -33q-106 -49 -256 -174q-14 0 -25.5 8t-11.5 21z" />
<glyph unicode="&#xd4;" horiz-adv-x="753" d="M125 942v82q0 172 20 299q12 80 34 131t59 82q35 35 90 35q49 0 90 -19.5t67 -50.5q23 -29 41.5 -76t28.5 -90l16 -96q49 -350 50 -621v-6q0 -102 -5 -188q-4 -102 -22 -215q-8 -55 -23.5 -96t-40.5 -82q-43 -74 -120 -74q-285 0 -285 985zM176 1649q2 31 37 117 t76 157.5t59 71.5q31 0 31 -43q0 -68 37 -166l22 -73l-2 -13l16 -30l-2 -11q2 -8 5.5 -13t3.5 -9q0 -18 -37 -25l-29 17q-10 131 -57 307q-8 -12 -70 -197q-16 -53 -16 -69l-35 -47zM186 831q0 -137 27 -348q16 -133 41 -231t65 -166q41 -72 95 -72q32 0 59 38t41 106 q33 143 41 280q4 111 4 215v9l-2 204q-4 111 -25 287q-16 125 -67 256q-20 51 -54 80t-73 29q-35 0 -61.5 -33t-43.5 -92q-37 -137 -40 -254q-6 -100 -7 -207v-101z" />
<glyph unicode="&#xd5;" horiz-adv-x="753" d="M110 1673q0 63 35 102t86 39t86 -41q16 -31 51 -55.5t66 -24.5q53 0 53 74l-4 20l-8 19q6 12 20 12q23 0 35 -20.5t12 -49.5q0 -43 -32.5 -75.5t-75.5 -32.5q-33 0 -70 20.5t-59 42.5q-16 14 -54 58l-14 6q-31 0 -53.5 -16.5t-22.5 -38.5l11 -43l-23 -31q-12 0 -25.5 11 t-13.5 24zM125 942v82q0 172 20 299q12 80 34 131t59 82q35 35 90 35q49 0 90 -19.5t67 -50.5q23 -29 41.5 -76t28.5 -90l16 -96q49 -350 50 -621v-6q0 -102 -5 -188q-4 -102 -22 -215q-8 -55 -23.5 -96t-40.5 -82q-43 -74 -120 -74q-285 0 -285 985zM186 831 q0 -137 27 -348q16 -133 41 -231t65 -166q41 -72 95 -72q32 0 59 38t41 106q33 143 41 280q4 111 4 215v9l-2 204q-4 111 -25 287q-16 125 -67 256q-20 51 -54 80t-73 29q-35 0 -61.5 -33t-43.5 -92q-37 -137 -40 -254q-6 -100 -7 -207v-101z" />
<glyph unicode="&#xd6;" horiz-adv-x="753" d="M125 942v82q0 172 20 299q12 80 34 131t59 82q35 35 90 35q49 0 90 -19.5t67 -50.5q23 -29 41.5 -76t28.5 -90l16 -96q49 -350 50 -621v-6q0 -102 -5 -188q-4 -102 -22 -215q-8 -55 -23.5 -96t-40.5 -82q-43 -74 -120 -74q-285 0 -285 985zM150 1730q0 18 15.5 35 t33.5 17q20 0 30.5 -20.5t10.5 -47.5q0 -16 -15.5 -25.5t-35.5 -9.5q-16 0 -27.5 16.5t-11.5 34.5zM186 831q0 -137 27 -348q16 -133 41 -231t65 -166q41 -72 95 -72q32 0 59 38t41 106q33 143 41 280q4 111 4 215v9l-2 204q-4 111 -25 287q-16 125 -67 256q-20 51 -54 80 t-73 29q-35 0 -61.5 -33t-43.5 -92q-37 -137 -40 -254q-6 -100 -7 -207v-101zM420 1732q0 18 15.5 35t33.5 17t32 -16.5t14 -33.5q0 -47 -54 -47q-16 0 -28.5 14.5t-12.5 30.5z" />
<glyph unicode="&#xd7;" horiz-adv-x="739" d="M139 817q0 10 14.5 25.5t26.5 15.5q14 0 25 -10l10 -21q125 -127 154 -127q20 0 51 35q8 8 35.5 41t50 50.5t37.5 17.5q10 0 20 -10.5t10 -20.5q0 -12 -20.5 -34.5t-47 -48t-40.5 -38.5q-37 -31 -37 -49q0 -16 24.5 -40.5t59.5 -47.5q82 -57 82 -84q0 -18 -14.5 -32.5 t-36.5 -14.5q-9 0 -15 6l-45 43q-8 6 -41 43q-23 29 -47 49q-18 18 -30 19q-16 0 -37 -18.5t-35 -45.5q-47 -63 -80 -63q-12 0 -26.5 10t-14.5 20q0 8 16 25q25 25 43 39q23 18 35.5 31.5t26.5 31.5q16 27 16 33q-23 23 -63 55q-6 4 -76 68q-31 31 -31 47z" />
<glyph unicode="&#xd8;" horiz-adv-x="651" d="M125 952v129q0 487 149 488q10 0 31 -10q20 -12 29 -13l8 4l10 -10q20 55 35 150q8 43 12 70.5t7 37.5h36l-2 -59l-43 -248q0 -25 31 -59l-2 -5q2 -18 20 -45q10 -14 11 -16q23 -57 22 -137l-4 -2q0 -51 17 -189q14 -117 14 -188v-12l4 -7l4 -194q2 -86 2 -193 q0 -72 -2 -131q-4 -74 -22 -153q-14 -70 -62 -125q-39 -55 -117 -55q-70 0 -100 40h-2q-10 -70 -53 -284l-31 24q2 31 9 71t22 103q8 35 28 177q0 16 -8 39q-4 12 -10 34q-43 268 -43 768zM168 840q0 -92 18 -135q0 -70 13 -216q12 -143 12 -215q6 7 18 97q12 98 35 309 l19 168l4 45q4 37 9 86t9 111l8 92l4 45l11 71q14 111 14 158q0 25 -20.5 41t-45.5 16l-8 -2l-14 -6l-10 -4l-13 4q-63 -39 -63 -653v-12zM240 119q0 -51 20.5 -73.5t69.5 -22.5q133 -1 133 376q0 846 -74 990q-27 -174 -61 -572q-33 -395 -74 -602q-14 -90 -14 -96z" />
<glyph unicode="&#xd9;" horiz-adv-x="761" d="M110 1741q0 35 21 49l12 -4q61 -8 74 -35q0 -2 24 -13l74 -45q45 -29 76 -53q33 -27 33 -43q0 -14 -27 -14q-31 16 -94.5 52t-97.5 56l-33 2q-61 12 -62 48zM111 1448v14v17q0 53 30 53q43 0 43 -49v-15l-2 -16q0 -238 14.5 -562.5t28.5 -467.5q10 -90 35 -184 q16 -63 35.5 -106.5t50.5 -72.5q37 -33 72 -32q35 0 62.5 16t41.5 43q14 23 23.5 58.5t11.5 68.5q2 20 2 68v233q0 156 -8 383l-8 262l-4 174q-6 115 -7 174q0 23 12.5 35t28.5 12t27.5 -12t11.5 -35v-155q0 -102 2 -185v-184q0 -199 4 -348q2 -152 3 -340q0 -51 -4.5 -90 t-16.5 -82q-12 -49 -33.5 -83t-56.5 -56q-39 -23 -86 -23t-88 20.5t-68 53.5q-27 31 -47 76t-33 90q-20 70 -30 174l-4 63q0 20 -1 26.5t-1 8.5q-10 100 -25.5 442t-15.5 533z" />
<glyph unicode="&#xda;" horiz-adv-x="761" d="M111 1448v14v17q0 53 30 53q43 0 43 -49v-15l-2 -16q0 -238 14.5 -562.5t28.5 -467.5q10 -90 35 -184q16 -63 35.5 -106.5t50.5 -72.5q37 -33 72 -32q35 0 62.5 16t41.5 43q14 23 23.5 58.5t11.5 68.5q2 20 2 68v233q0 156 -8 383l-8 262l-4 174q-6 115 -7 174 q0 23 12.5 35t28.5 12t27.5 -12t11.5 -35v-155q0 -102 2 -185v-184q0 -199 4 -348q2 -152 3 -340q0 -51 -4.5 -90t-16.5 -82q-12 -49 -33.5 -83t-56.5 -56q-39 -23 -86 -23t-88 20.5t-68 53.5q-27 31 -47 76t-33 90q-20 70 -30 174l-4 63q0 20 -1 26.5t-1 8.5 q-10 100 -25.5 442t-15.5 533zM280 1669q0 6 58 53l65 53l56 43q70 53 75 60q45 0 45 -31l-6 -33q-106 -49 -256 -174q-14 0 -25.5 8t-11.5 21z" />
<glyph unicode="&#xdb;" horiz-adv-x="761" d="M111 1448v14v17q0 53 30 53q43 0 43 -49v-15l-2 -16q0 -238 14.5 -562.5t28.5 -467.5q10 -90 35 -184q16 -63 35.5 -106.5t50.5 -72.5q37 -33 72 -32q35 0 62.5 16t41.5 43q14 23 23.5 58.5t11.5 68.5q2 20 2 68v233q0 156 -8 383l-8 262l-4 174q-6 115 -7 174 q0 23 12.5 35t28.5 12t27.5 -12t11.5 -35v-155q0 -102 2 -185v-184q0 -199 4 -348q2 -152 3 -340q0 -51 -4.5 -90t-16.5 -82q-12 -49 -33.5 -83t-56.5 -56q-39 -23 -86 -23t-88 20.5t-68 53.5q-27 31 -47 76t-33 90q-20 70 -30 174l-4 63q0 20 -1 26.5t-1 8.5 q-10 100 -25.5 442t-15.5 533zM170 1618q2 31 37 117t76 157.5t59 71.5q31 0 31 -43q0 -68 37 -166l22 -73l-2 -13l16 -30l-2 -11q2 -8 5.5 -13t3.5 -9q0 -18 -37 -25l-29 17q-10 131 -57 307q-8 -12 -70 -197q-16 -53 -16 -69l-35 -47z" />
<glyph unicode="&#xdc;" horiz-adv-x="761" d="M111 1448v14v17q0 53 30 53q43 0 43 -49v-15l-2 -16q0 -238 14.5 -562.5t28.5 -467.5q10 -90 35 -184q16 -63 35.5 -106.5t50.5 -72.5q37 -33 72 -32q35 0 62.5 16t41.5 43q14 23 23.5 58.5t11.5 68.5q2 20 2 68v233q0 156 -8 383l-8 262l-4 174q-6 115 -7 174 q0 23 12.5 35t28.5 12t27.5 -12t11.5 -35v-155q0 -102 2 -185v-184q0 -199 4 -348q2 -152 3 -340q0 -51 -4.5 -90t-16.5 -82q-12 -49 -33.5 -83t-56.5 -56q-39 -23 -86 -23t-88 20.5t-68 53.5q-27 31 -47 76t-33 90q-20 70 -30 174l-4 63q0 20 -1 26.5t-1 8.5 q-10 100 -25.5 442t-15.5 533zM143 1700q0 18 15.5 35t33.5 17q20 0 30.5 -20.5t10.5 -47.5q0 -16 -15.5 -25.5t-35.5 -9.5q-16 0 -27.5 16.5t-11.5 34.5zM413 1702q0 18 15.5 35t33.5 17t32 -16.5t14 -33.5q0 -47 -54 -47q-16 0 -28.5 14.5t-12.5 30.5z" />
<glyph unicode="&#xdd;" horiz-adv-x="516" d="M49 1513q0 14 12.5 23.5t28.5 9.5l25 -16q6 -92 55 -328.5t74 -271.5q4 10 20 178q14 150 41 297q25 135 60 135q10 0 16 -1t10 -5t4 -16q0 -18 -8 -43l-8 -41l-53 -306q-10 -59 -18.5 -146t-8.5 -153q0 -18 2 -32q2 -16 2 -35l-12 -31v-16l4 -80l4 -43q6 -82 6 -123 q0 -324 -4 -414l6 -6q0 -4 2 -6v-8q0 -25 -11 -42.5t-34 -17.5q-12 0 -20 15.5t-8 34.5q0 66 6 196l4 199q0 29 -6 84q-8 49 -9 82q0 35 -12 96q-12 66 -12 94q0 25 -21 117q-6 18 -8 29.5t-4 15.5q-8 57 -27 141q-35 190 -67 301q-31 98 -31 133zM176 1669q0 6 58 53l65 53 l56 43q70 53 75 60q45 0 45 -31l-6 -33q-106 -49 -256 -174q-14 0 -25.5 8t-11.5 21z" />
<glyph unicode="&#xde;" horiz-adv-x="651" d="M139 1395q0 4 1 16t1 39l2 66v10l-2 4q0 10 17 16q4 0 28 -6h4q4 -27 7 -135q0 -100 4 -137v-2q74 0 136 -22.5t103 -61.5q39 -37 65.5 -86t37.5 -103q10 -55 10 -106q0 -102 -45 -225t-109 -175q-16 -10 -26 -14q-20 -8 -27 -14q-20 -12 -110 -33q0 -113 6 -186 q6 -76 6 -189q0 -33 -9.5 -48t-35.5 -15q-27 -1 -27 71q0 84 2 129v129q0 78 -2 125l-2 127q0 115 -10 367q0 41 -4 98l-2 66l-4 69l-4 50q-8 84 -9 147zM209 1153q0 -111 12 -330q14 -250 15 -321q26 4 69 19.5t57 27.5q133 137 134 334q0 324 -287 323v-53z" />
<glyph unicode="&#xdf;" horiz-adv-x="720" d="M180 1266q0 270 156 270q78 0 121 -89t43 -233q0 -111 -33 -205t-98 -155q94 -49 145 -148.5t51 -232.5v-47q0 -78 -5 -125t-21 -100q-35 -115 -154 -174l-16 -4q-16 0 -29.5 9t-13.5 21q0 16 24 35q39 18 81 51t48 58q29 53 29 163v11q0 127 -37 250q-18 66 -56 116.5 t-87 73.5q-14 6 -23.5 20.5t-9.5 26.5q0 10 4 19q4 8 12 8q4 4 15 4q41 12 80.5 115.5t39.5 185.5q0 117 -32 199q-31 78 -76 77q-94 0 -94 -211q0 -102 4 -184l4 -184v-78l4 -381l4 -379q0 -61 -37 -61h-2q-37 -1 -37 28l4 260q6 172 7 259q0 152 -9 366q-6 244 -6 365z " />
<glyph unicode="&#xe0;" horiz-adv-x="641" d="M80 25l2 6l2 6q37 145 61 289l25 127l25 155l22 135q10 55 37 179q29 139 35 190q2 6 8 76q8 78 14 115q6 53 13 61h14q6 -2 14 -2q25 0 37 12q14 0 25.5 -9t11.5 -22q0 -98 14 -225q8 -66 13 -108q23 -264 114 -992v-6q0 -20 -16 -30q-31 0 -39 7t-12 38 q-18 150 -23 186l-10 82q-45 10 -102 10l-74 4q-49 6 -72 6q-12 0 -14 -10q0 -6 -2 -6l-4 -41q-2 -37 -23 -147q-10 -55 -24 -86q-16 -35 -31 -35q-12 0 -26.5 11t-14.5 24zM156 1548q0 37 12 46h12q61 0 80 -23q0 -2 25 -8q20 -6 82 -31q49 -20 84 -39q39 -23 39 -39 q0 -6 -8.5 -11t-16.5 -5q-33 10 -116 38.5t-91 35.5q-12 -4 -33 -4q-70 0 -69 40zM221 377q0 -10 78 -18.5t137 -8.5h21q-20 295 -78 871l-111 -547q-47 -236 -47 -297z" />
<glyph unicode="&#xe1;" horiz-adv-x="641" d="M80 25l2 6l2 6q37 145 61 289l25 127l25 155l22 135q10 55 37 179q29 139 35 190q2 6 8 76q8 78 14 115q6 53 13 61h14q6 -2 14 -2q25 0 37 12q14 0 25.5 -9t11.5 -22q0 -98 14 -225q8 -66 13 -108q23 -264 114 -992v-6q0 -20 -16 -30q-31 0 -39 7t-12 38 q-18 150 -23 186l-10 82q-45 10 -102 10l-74 4q-49 6 -72 6q-12 0 -14 -10q0 -6 -2 -6l-4 -41q-2 -37 -23 -147q-10 -55 -24 -86q-16 -35 -31 -35q-12 0 -26.5 11t-14.5 24zM221 377q0 -10 78 -18.5t137 -8.5h21q-20 295 -78 871l-111 -547q-47 -236 -47 -297zM344 1448 q0 6 58 53l65 53l56 43q70 53 75 60q45 0 45 -31l-6 -33q-106 -49 -256 -174q-14 0 -25.5 8t-11.5 21z" />
<glyph unicode="&#xe2;" horiz-adv-x="641" d="M80 25l2 6l2 6q37 145 61 289l25 127l25 155l22 135q10 55 37 179q29 139 35 190q2 6 8 76q8 78 14 115q6 53 13 61h14q6 -2 14 -2q25 0 37 12q14 0 25.5 -9t11.5 -22q0 -98 14 -225q8 -66 13 -108q23 -264 114 -992v-6q0 -20 -16 -30q-31 0 -39 7t-12 38 q-18 150 -23 186l-10 82q-45 10 -102 10l-74 4q-49 6 -72 6q-12 0 -14 -10q0 -6 -2 -6l-4 -41q-2 -37 -23 -147q-10 -55 -24 -86q-16 -35 -31 -35q-12 0 -26.5 11t-14.5 24zM221 377q0 -10 78 -18.5t137 -8.5h21q-20 295 -78 871l-111 -547q-47 -236 -47 -297zM240 1417 q2 31 37 117t76 157.5t59 71.5q31 0 31 -43q0 -68 37 -166l22 -73l-2 -13l16 -30l-2 -11q2 -8 5.5 -13t3.5 -9q0 -18 -37 -25l-29 17q-10 131 -57 307q-8 -12 -70 -197q-16 -53 -16 -69l-35 -47z" />
<glyph unicode="&#xe3;" horiz-adv-x="641" d="M80 25l2 6l2 6q37 145 61 289l25 127l25 155l22 135q10 55 37 179q29 139 35 190q2 6 8 76q8 78 14 115q6 53 13 61h14q6 -2 14 -2q25 0 37 12q14 0 25.5 -9t11.5 -22q0 -98 14 -225q8 -66 13 -108q23 -264 114 -992v-6q0 -20 -16 -30q-31 0 -39 7t-12 38 q-18 150 -23 186l-10 82q-45 10 -102 10l-74 4q-49 6 -72 6q-12 0 -14 -10q0 -6 -2 -6l-4 -41q-2 -37 -23 -147q-10 -55 -24 -86q-16 -35 -31 -35q-12 0 -26.5 11t-14.5 24zM164 1452q0 63 35 102t86 39t86 -41q16 -31 51 -55.5t66 -24.5q53 0 53 74l-4 20l-8 19q6 12 20 12 q23 0 35 -20.5t12 -49.5q0 -43 -32.5 -75.5t-75.5 -32.5q-33 0 -70 20.5t-59 42.5q-16 14 -54 58l-14 6q-31 0 -53.5 -16.5t-22.5 -38.5l11 -43l-23 -31q-12 0 -25.5 11t-13.5 24zM221 377q0 -10 78 -18.5t137 -8.5h21q-20 295 -78 871l-111 -547q-47 -236 -47 -297z" />
<glyph unicode="&#xe4;" horiz-adv-x="641" d="M80 25l2 6l2 6q37 145 61 289l25 127l25 155l22 135q10 55 37 179q29 139 35 190q2 6 8 76q8 78 14 115q6 53 13 61h14q6 -2 14 -2q25 0 37 12q14 0 25.5 -9t11.5 -22q0 -98 14 -225q8 -66 13 -108q23 -264 114 -992v-6q0 -20 -16 -30q-31 0 -39 7t-12 38 q-18 150 -23 186l-10 82q-45 10 -102 10l-74 4q-49 6 -72 6q-12 0 -14 -10q0 -6 -2 -6l-4 -41q-2 -37 -23 -147q-10 -55 -24 -86q-16 -35 -31 -35q-12 0 -26.5 11t-14.5 24zM203 1559q0 18 15 34.5t34 16.5q20 0 30.5 -20.5t10.5 -47.5q0 -16 -15.5 -25.5t-36.5 -9.5 q-16 0 -27 16.5t-11 35.5zM221 377q0 -10 78 -18.5t137 -8.5h21q-20 295 -78 871l-111 -547q-47 -236 -47 -297zM473 1561q0 18 15.5 34.5t33.5 16.5t31.5 -16.5t13.5 -32.5q0 -47 -53 -47q-17 0 -29 14t-12 31z" />
<glyph unicode="&#xe5;" horiz-adv-x="641" d="M80 25l2 6l2 6q37 145 61 289l25 127l25 155l22 135q10 55 37 179q29 139 35 190q2 6 8 76q8 78 14 115q6 53 13 61h14q6 -2 14 -2q25 0 37 12q14 0 25.5 -9t11.5 -22q0 -98 14 -225q8 -66 13 -108q23 -264 114 -992v-6q0 -20 -16 -30q-31 0 -39 7t-12 38 q-18 150 -23 186l-10 82q-45 10 -102 10l-74 4q-49 6 -72 6q-12 0 -14 -10q0 -6 -2 -6l-4 -41q-2 -37 -23 -147q-10 -55 -24 -86q-16 -35 -31 -35q-12 0 -26.5 11t-14.5 24zM221 377q0 -10 78 -18.5t137 -8.5h21q-20 295 -78 871l-111 -547q-47 -236 -47 -297zM264 1507 q0 47 37 87t82 40q39 0 76 -39t37 -79q0 -55 -36 -86t-95 -31q-39 0 -70 33.5t-31 74.5zM311 1518q0 -41 17 -64q10 -16 29 -16q26 0 56 17t30 40q0 41 -15.5 70.5t-44.5 29.5q-25 0 -48.5 -25.5t-23.5 -51.5z" />
<glyph unicode="&#xe6;" horiz-adv-x="825" d="M49 27q2 88 82 405q102 328 268 764l4 12l3 4v5q37 131 88 131q43 0 77 2h80q66 0 66 -33l-15 -25h-102q-57 0 -98 -4q0 -86 2 -155l4 -158v-146q2 -63 2 -147l8 -12q61 20 164 20l27 -35q0 -35 -146 -34h-53q0 -129 2 -234q4 -102 4 -233v-41q-2 -20 -2 -43 q0 -35 18 -35q31 0 117 10q78 12 117 12q16 0 30.5 -7t14.5 -19q0 -23 -61 -29q-82 -8 -134 -8q-76 -4 -86 -8q-4 2 -16 2h-12q-8 -2 -19 -2l-28 28q16 84 16 215l-4 187l-4 184l-12 14q-6 -4 -64 -6q-43 -2 -98 -10q-45 -6 -49 -18l-103 -371q-4 -18 -15 -75.5t-24 -90.5 q-16 -41 -32 -41q-6 0 -11.5 9t-5.5 16zM256 643q88 0 205 25v280v68q2 31 2 69v78l-2 74q-18 -18 -109.5 -284.5t-95.5 -309.5z" />
<glyph unicode="&#xe7;" horiz-adv-x="583" d="M125 446v234q0 133 8 258q6 92 18.5 155.5t38.5 127.5q29 66 64 92q14 12 55 28q27 10 51 23h82h7q2 -2 6 -2l10 -2l8 -6q6 -6 6 -8q2 -4 2 -13l-26 -30h-86q-39 0 -71 -38t-48 -96q-16 -51 -26.5 -120.5t-12.5 -120.5q-4 -66 -4 -90l-4 -11q0 -115 -4 -206l-4 -207 q0 -90 12 -166q10 -82 59 -148q47 -66 146 -65q31 0 51 18q31 0 31 -22q0 -14 -26 -34t-52 -30h-68l-49 19q-39 12 -66.5 34.5t-52.5 67.5q-43 82 -51 236q-4 70 -4 122zM221 -393q0 20 23 20q8 0 33 -10t32 -10q35 0 57.5 42t22.5 99q0 68 -30 92l-27 -4l-29 -4 q-31 0 -55 41q16 43 16 119v22l60 9q-8 -61 -8 -105q150 -8 149 -205q0 -33 -21.5 -70.5t-58.5 -64.5t-76 -27q-32 0 -60 15.5t-28 40.5z" />
<glyph unicode="&#xe8;" horiz-adv-x="524" d="M62 1529q0 37 12 46h12q61 0 80 -23q0 -2 25 -8q20 -6 82 -31q49 -20 84 -39q39 -23 39 -39q0 -6 -8.5 -11t-16.5 -5q-33 10 -116 38.5t-91 35.5q-12 -4 -33 -4q-70 0 -69 40zM139 76q16 43 17 84q0 47 -6 135l-5 135q0 102 7 307q8 182 8 310l-4 122q-4 55 -4 123 q0 31 14 44.5t45 13.5q20 0 33 -13q4 -2 59 -8q51 -6 88 -18q39 -12 39 -31q0 -20 -39 -41q-117 39 -166 39l-10 -12q2 -18 2 -88q0 -88 -4 -158q-2 -72 -2 -160q0 -57 29 -57l32 2q16 2 35 2q80 0 80 -37q0 -23 -10 -38t-31 -15q-31 0 -47 16l-66 10h-10l-10 -10v-6 q4 -35 4 -162q0 -80 -2 -145l-2 -146q0 -80 6 -163q2 -47 20.5 -62.5t67.5 -15.5l37 2q18 2 41 2q59 0 59 -27q0 -37 -90 -37h-168q-37 0 -41 43v27q2 10 2 25z" />
<glyph unicode="&#xe9;" horiz-adv-x="524" d="M139 76q16 43 17 84q0 47 -6 135l-5 135q0 102 7 307q8 182 8 310l-4 122q-4 55 -4 123q0 31 14 44.5t45 13.5q20 0 33 -13q4 -2 59 -8q51 -6 88 -18q39 -12 39 -31q0 -20 -39 -41q-117 39 -166 39l-10 -12q2 -18 2 -88q0 -88 -4 -158q-2 -72 -2 -160q0 -57 29 -57l32 2 q16 2 35 2q80 0 80 -37q0 -23 -10 -38t-31 -15q-31 0 -47 16l-66 10h-10l-10 -10v-6q4 -35 4 -162q0 -80 -2 -145l-2 -146q0 -80 6 -163q2 -47 20.5 -62.5t67.5 -15.5l37 2q18 2 41 2q59 0 59 -27q0 -37 -90 -37h-168q-37 0 -41 43v27q2 10 2 25zM249 1430q0 6 58 53l65 53 l56 43q70 53 75 60q45 0 45 -31l-6 -33q-106 -49 -256 -174q-14 0 -25.5 8t-11.5 21z" />
<glyph unicode="&#xea;" horiz-adv-x="524" d="M139 76q16 43 17 84q0 47 -6 135l-5 135q0 102 7 307q8 182 8 310l-4 122q-4 55 -4 123q0 31 14 44.5t45 13.5q20 0 33 -13q4 -2 59 -8q51 -6 88 -18q39 -12 39 -31q0 -20 -39 -41q-117 39 -166 39l-10 -12q2 -18 2 -88q0 -88 -4 -158q-2 -72 -2 -160q0 -57 29 -57l32 2 q16 2 35 2q80 0 80 -37q0 -23 -10 -38t-31 -15q-31 0 -47 16l-66 10h-10l-10 -10v-6q4 -35 4 -162q0 -80 -2 -145l-2 -146q0 -80 6 -163q2 -47 20.5 -62.5t67.5 -15.5l37 2q18 2 41 2q59 0 59 -27q0 -37 -90 -37h-168q-37 0 -41 43v27q2 10 2 25zM145 1399q2 31 37 117 t76 157.5t59 71.5q31 0 31 -43q0 -68 37 -166l22 -73l-2 -13l16 -30l-2 -11q2 -8 5.5 -13t3.5 -9q0 -18 -37 -25l-29 17q-10 131 -57 307q-8 -12 -70 -197q-16 -53 -16 -69l-35 -47z" />
<glyph unicode="&#xeb;" horiz-adv-x="524" d="M109 1541q0 18 15 34.5t34 16.5q20 0 30.5 -20.5t10.5 -47.5q0 -16 -15.5 -25.5t-36.5 -9.5q-16 0 -27 16.5t-11 35.5zM139 76q16 43 17 84q0 47 -6 135l-5 135q0 102 7 307q8 182 8 310l-4 122q-4 55 -4 123q0 31 14 44.5t45 13.5q20 0 33 -13q4 -2 59 -8q51 -6 88 -18 q39 -12 39 -31q0 -20 -39 -41q-117 39 -166 39l-10 -12q2 -18 2 -88q0 -88 -4 -158q-2 -72 -2 -160q0 -57 29 -57l32 2q16 2 35 2q80 0 80 -37q0 -23 -10 -38t-31 -15q-31 0 -47 16l-66 10h-10l-10 -10v-6q4 -35 4 -162q0 -80 -2 -145l-2 -146q0 -80 6 -163 q2 -47 20.5 -62.5t67.5 -15.5l37 2q18 2 41 2q59 0 59 -27q0 -37 -90 -37h-168q-37 0 -41 43v27q2 10 2 25zM379 1543q0 18 15.5 34.5t33.5 16.5t31.5 -16.5t13.5 -32.5q0 -47 -53 -47q-17 0 -29 14t-12 31z" />
<glyph unicode="&#xec;" horiz-adv-x="485" d="M29 1529q0 37 12 46h12q61 0 80 -23q0 -2 25 -8q20 -6 82 -31q49 -20 84 -39q39 -23 39 -39q0 -6 -8.5 -11t-16.5 -5q-33 10 -116 38.5t-91 35.5q-12 -4 -33 -4q-70 0 -69 40zM49 1325q0 8 18.5 16.5t30.5 8.5q78 0 156 -9q47 -2 94 -18q37 -12 37 -35q0 -4 -6 -16 l-47 -4q-14 12 -60 12l-10 -6q6 -18 6 -109q0 -135 -2 -243l-4 -244q0 -92 8 -223q6 -150 6 -226v-26q-2 -14 -2 -37q0 -47 7 -57l-2 -5q0 -20 45 -20q18 0 30 2h31q59 0 59 -29q0 -18 -12 -29.5t-33 -11.5q-18 0 -32 4q-16 2 -35 3q-12 0 -37 -11q-25 -12 -37 -12 q-47 0 -55 20q-10 0 -17 -2h-16q-45 0 -57 21q0 14 16 24l10 11h60l8 8l4 18l2 25q0 125 -6 223l-4 76l-4 149q0 80 6 240l4 238q0 156 -10 237q-18 6 -62 6l-22 -2q-12 -2 -27 -2q-39 0 -39 35z" />
<glyph unicode="&#xed;" horiz-adv-x="485" d="M49 1325q0 8 18.5 16.5t30.5 8.5q78 0 156 -9q47 -2 94 -18q37 -12 37 -35q0 -4 -6 -16l-47 -4q-14 12 -60 12l-10 -6q6 -18 6 -109q0 -135 -2 -243l-4 -244q0 -92 8 -223q6 -150 6 -226v-26q-2 -14 -2 -37q0 -47 7 -57l-2 -5q0 -20 45 -20q18 0 30 2h31q59 0 59 -29 q0 -18 -12 -29.5t-33 -11.5q-18 0 -32 4q-16 2 -35 3q-12 0 -37 -11q-25 -12 -37 -12q-47 0 -55 20q-10 0 -17 -2h-16q-45 0 -57 21q0 14 16 24l10 11h60l8 8l4 18l2 25q0 125 -6 223l-4 76l-4 149q0 80 6 240l4 238q0 156 -10 237q-18 6 -62 6l-22 -2q-12 -2 -27 -2 q-39 0 -39 35zM217 1430q0 6 58 53l65 53l56 43q70 53 75 60q45 0 45 -31l-6 -33q-106 -49 -256 -174q-14 0 -25.5 8t-11.5 21z" />
<glyph unicode="&#xee;" horiz-adv-x="485" d="M49 1325q0 8 18.5 16.5t30.5 8.5q78 0 156 -9q47 -2 94 -18q37 -12 37 -35q0 -4 -6 -16l-47 -4q-14 12 -60 12l-10 -6q6 -18 6 -109q0 -135 -2 -243l-4 -244q0 -92 8 -223q6 -150 6 -226v-26q-2 -14 -2 -37q0 -47 7 -57l-2 -5q0 -20 45 -20q18 0 30 2h31q59 0 59 -29 q0 -18 -12 -29.5t-33 -11.5q-18 0 -32 4q-16 2 -35 3q-12 0 -37 -11q-25 -12 -37 -12q-47 0 -55 20q-10 0 -17 -2h-16q-45 0 -57 21q0 14 16 24l10 11h60l8 8l4 18l2 25q0 125 -6 223l-4 76l-4 149q0 80 6 240l4 238q0 156 -10 237q-18 6 -62 6l-22 -2q-12 -2 -27 -2 q-39 0 -39 35zM113 1399q2 31 37 117t76 157.5t59 71.5q31 0 31 -43q0 -68 37 -166l22 -73l-2 -13l16 -30l-2 -11q2 -8 5.5 -13t3.5 -9q0 -18 -37 -25l-29 17q-10 131 -57 307q-8 -12 -70 -197q-16 -53 -16 -69l-35 -47z" />
<glyph unicode="&#xef;" horiz-adv-x="485" d="M49 1325q0 8 18.5 16.5t30.5 8.5q78 0 156 -9q47 -2 94 -18q37 -12 37 -35q0 -4 -6 -16l-47 -4q-14 12 -60 12l-10 -6q6 -18 6 -109q0 -135 -2 -243l-4 -244q0 -92 8 -223q6 -150 6 -226v-26q-2 -14 -2 -37q0 -47 7 -57l-2 -5q0 -20 45 -20q18 0 30 2h31q59 0 59 -29 q0 -18 -12 -29.5t-33 -11.5q-18 0 -32 4q-16 2 -35 3q-12 0 -37 -11q-25 -12 -37 -12q-47 0 -55 20q-10 0 -17 -2h-16q-45 0 -57 21q0 14 16 24l10 11h60l8 8l4 18l2 25q0 125 -6 223l-4 76l-4 149q0 80 6 240l4 238q0 156 -10 237q-18 6 -62 6l-22 -2q-12 -2 -27 -2 q-39 0 -39 35zM76 1541q0 18 15 34.5t34 16.5q20 0 30.5 -20.5t10.5 -47.5q0 -16 -15.5 -25.5t-36.5 -9.5q-16 0 -27 16.5t-11 35.5zM346 1543q0 18 15.5 34.5t33.5 16.5t31.5 -16.5t13.5 -32.5q0 -47 -53 -47q-17 0 -29 14t-12 31z" />
<glyph unicode="&#xf0;" horiz-adv-x="679" d="M178 170q0 92 4 184q4 96 25 248q14 113 63 217q43 94 121 94q23 0 45 -16q-6 231 -33 391q-115 -12 -147 -12q-10 0 -10 8q0 29 22 29q53 0 131 10q-23 143 -59 174q-23 10 -27 12q-45 23 -45 41q0 6 9.5 12.5t15.5 6.5q106 0 158 -240l81 4q12 0 13 -10l-2 -10 q0 -8 -88 -17q35 -197 34 -481v-8q0 -236 -10 -438q-6 -37 -10 -154q-8 -106 -37 -166q-14 -35 -44 -56.5t-69 -21.5q-69 0 -104 41q-14 18 -22.5 46t-10.5 53q-4 37 -4 59zM227 174q0 -162 76 -162q44 1 62 21q12 10 18 19t8 28q4 16 10 57q0 14 1 20.5t1 8.5 q33 260 33 561v117q-16 14 -61 24q-33 0 -58.5 -41t-42.5 -114q-35 -180 -38 -307q-8 -156 -9 -232z" />
<glyph unicode="&#xf1;" horiz-adv-x="942" d="M156 829q0 59 6 183q6 121 6 180v27q0 100 37 131l6 -7l20 5q8 -2 19 -13q8 -8 8 -18l4 -12q0 -4 1 -7l1 -4q33 -145 148 -407q117 -276 145 -367q20 -72 33 -127q39 -174 92 -268l4 6q47 455 47 1116l-2 25q-2 10 -2 26q0 43 29 43q18 0 31.5 -18t13.5 -41v-137l-10 -17 q0 -195 -22.5 -639t-43.5 -483l-35 -8v-2l-2 2l-20 -6q-17 0 -24 12t-13 37q-2 16 -8 29l2 6q-16 96 -70 235l-37 107q-4 4 -39 104l-16 49q-184 569 -232 617q-16 -55 -16 -144q0 -47 2 -81l2 -80l-2 -49q-2 -23 -2 -50q0 -45 4 -77l4 -66h-6q0 -342 14 -377v-184 q8 -16 9 -43q0 -16 -11.5 -28.5t-27.5 -12.5q-43 0 -43 110l4 66q4 31 4 68q0 98 -6 295t-6 294zM254 1434q0 63 35 102t86 39t86 -41q16 -31 51 -55.5t66 -24.5q53 0 53 74l-4 20l-8 19q6 12 20 12q23 0 35 -20.5t12 -49.5q0 -43 -32.5 -75.5t-75.5 -32.5q-33 0 -70 20.5 t-59 42.5q-16 14 -54 58l-14 6q-31 0 -53.5 -16.5t-22.5 -38.5l11 -43l-23 -31q-12 0 -25.5 11t-13.5 24z" />
<glyph unicode="&#xf2;" horiz-adv-x="708" d="M121 715v71q0 571 147 572q10 0 29 -6q66 -23 129 -29q39 -8 78 -80q43 -74 64.5 -194.5t21.5 -247.5l-4 -10q0 -68 2 -121l2 -123q0 -104 -8 -189q-12 -127 -41 -219q-18 -55 -42 -92t-59 -61q-33 -25 -80 -25q-239 0 -239 754zM129 1529q0 37 12 46h12q61 0 80 -23 q0 -2 25 -8q20 -6 82 -31q49 -20 84 -39q39 -23 39 -39q0 -6 -8.5 -11t-16.5 -5q-33 10 -116 38.5t-91 35.5q-12 -4 -33 -4q-70 0 -69 40zM184 717q0 -45 2 -80l2 -82q0 -96 17 -221q12 -92 28.5 -155.5t47.5 -108.5q31 -49 71 -50q80 0 119 113q39 115 47 234q8 123 8 196 q0 82 -12 242q-10 178 -10 242l-8 16l4 10q0 90 -50.5 155.5t-121.5 65.5q-94 0 -113 -90q-4 -31 -8 -88q0 -152 -12 -207q0 -31 -7 -96z" />
<glyph unicode="&#xf3;" horiz-adv-x="708" d="M121 715v71q0 571 147 572q10 0 29 -6q66 -23 129 -29q39 -8 78 -80q43 -74 64.5 -194.5t21.5 -247.5l-4 -10q0 -68 2 -121l2 -123q0 -104 -8 -189q-12 -127 -41 -219q-18 -55 -42 -92t-59 -61q-33 -25 -80 -25q-239 0 -239 754zM184 717q0 -45 2 -80l2 -82 q0 -96 17 -221q12 -92 28.5 -155.5t47.5 -108.5q31 -49 71 -50q80 0 119 113q39 115 47 234q8 123 8 196q0 82 -12 242q-10 178 -10 242l-8 16l4 10q0 90 -50.5 155.5t-121.5 65.5q-94 0 -113 -90q-4 -31 -8 -88q0 -152 -12 -207q0 -31 -7 -96zM317 1430q0 6 58 53l65 53 l56 43q70 53 75 60q45 0 45 -31l-6 -33q-106 -49 -256 -174q-14 0 -25.5 8t-11.5 21z" />
<glyph unicode="&#xf4;" horiz-adv-x="708" d="M121 715v71q0 571 147 572q10 0 29 -6q66 -23 129 -29q39 -8 78 -80q43 -74 64.5 -194.5t21.5 -247.5l-4 -10q0 -68 2 -121l2 -123q0 -104 -8 -189q-12 -127 -41 -219q-18 -55 -42 -92t-59 -61q-33 -25 -80 -25q-239 0 -239 754zM184 717q0 -45 2 -80l2 -82 q0 -96 17 -221q12 -92 28.5 -155.5t47.5 -108.5q31 -49 71 -50q80 0 119 113q39 115 47 234q8 123 8 196q0 82 -12 242q-10 178 -10 242l-8 16l4 10q0 90 -50.5 155.5t-121.5 65.5q-94 0 -113 -90q-4 -31 -8 -88q0 -152 -12 -207q0 -31 -7 -96zM213 1399q2 31 37 117 t76 157.5t59 71.5q31 0 31 -43q0 -68 37 -166l22 -73l-2 -13l16 -30l-2 -11q2 -8 5.5 -13t3.5 -9q0 -18 -37 -25l-29 17q-10 131 -57 307q-8 -12 -70 -197q-16 -53 -16 -69l-35 -47z" />
<glyph unicode="&#xf5;" horiz-adv-x="708" d="M121 715v71q0 571 147 572q10 0 29 -6q66 -23 129 -29q39 -8 78 -80q43 -74 64.5 -194.5t21.5 -247.5l-4 -10q0 -68 2 -121l2 -123q0 -104 -8 -189q-12 -127 -41 -219q-18 -55 -42 -92t-59 -61q-33 -25 -80 -25q-239 0 -239 754zM137 1434q0 63 35 102t86 39t86 -41 q16 -31 51 -55.5t66 -24.5q53 0 53 74l-4 20l-8 19q6 12 20 12q23 0 35 -20.5t12 -49.5q0 -43 -32.5 -75.5t-75.5 -32.5q-33 0 -70 20.5t-59 42.5q-16 14 -54 58l-14 6q-31 0 -53.5 -16.5t-22.5 -38.5l11 -43l-23 -31q-12 0 -25.5 11t-13.5 24zM184 717q0 -45 2 -80l2 -82 q0 -96 17 -221q12 -92 28.5 -155.5t47.5 -108.5q31 -49 71 -50q80 0 119 113q39 115 47 234q8 123 8 196q0 82 -12 242q-10 178 -10 242l-8 16l4 10q0 90 -50.5 155.5t-121.5 65.5q-94 0 -113 -90q-4 -31 -8 -88q0 -152 -12 -207q0 -31 -7 -96z" />
<glyph unicode="&#xf6;" horiz-adv-x="708" d="M121 715v71q0 571 147 572q10 0 29 -6q66 -23 129 -29q39 -8 78 -80q43 -74 64.5 -194.5t21.5 -247.5l-4 -10q0 -68 2 -121l2 -123q0 -104 -8 -189q-12 -127 -41 -219q-18 -55 -42 -92t-59 -61q-33 -25 -80 -25q-239 0 -239 754zM177 1541q0 18 15 34.5t34 16.5 q20 0 30.5 -20.5t10.5 -47.5q0 -16 -15.5 -25.5t-36.5 -9.5q-16 0 -27 16.5t-11 35.5zM184 717q0 -45 2 -80l2 -82q0 -96 17 -221q12 -92 28.5 -155.5t47.5 -108.5q31 -49 71 -50q80 0 119 113q39 115 47 234q8 123 8 196q0 82 -12 242q-10 178 -10 242l-8 16l4 10 q0 90 -50.5 155.5t-121.5 65.5q-94 0 -113 -90q-4 -31 -8 -88q0 -152 -12 -207q0 -31 -7 -96zM447 1543q0 18 15.5 34.5t33.5 16.5t31.5 -16.5t13.5 -32.5q0 -47 -53 -47q-17 0 -29 14t-12 31z" />
<glyph unicode="&#xf7;" horiz-adv-x="720" d="M156 756q0 6 200 6h191q8 0 15 -7t7 -14q0 -16 -39 -16l-112 -4h-219q-19 0 -31 10t-12 25zM348 977q0 16 16.5 30.5t32.5 14.5q47 0 47 -53q0 -14 -14 -27.5t-31 -13.5q-18 0 -34.5 15t-16.5 34zM350 516q0 20 20.5 30.5t47.5 10.5q16 0 25.5 -15.5t9.5 -35.5 q0 -16 -16.5 -27.5t-35.5 -11.5q-18 0 -34.5 15.5t-16.5 33.5z" />
<glyph unicode="&#xf8;" horiz-adv-x="598" d="M121 870v123q0 389 135 389q14 0 31 -8q25 -12 26 -14l6 4l15 -14l18 104q18 106 27 137h33v-18l-21 -129q-20 -115 -20 -133t10 -29l8 -14l8 -13l-2 -4q0 -8 15 -30l14 -25q23 -51 22 -125l-4 -2q0 -47 13 -143q14 -92 14 -146v-10l4 -6q0 -98 2 -176l4 -178 q0 -76 -6 -140q-4 -49 -10 -83.5t-21 -73.5q-14 -41 -33.5 -67t-48.5 -42q-31 -18 -67 -18q-66 0 -90 37h-2l-2 -15q-31 -256 -54 -256q-18 0 -18 29q2 59 25 162q18 102 24 161q0 12 -6 37q-8 23 -8 31q-41 233 -41 698zM162 768q0 -84 14 -121q0 -63 12 -196 q12 -129 13 -197q22 133 71 606l25 209l8 66q14 104 14 145q0 20 -18 35.5t-41 15.5l-31 -10l-10 2q-57 -31 -57 -541v-14zM225 111q0 -45 19.5 -65.5t64.5 -20.5q121 0 121 344q0 178 -4 307t-18 297q-14 182 -46 244q-35 -203 -96 -801q-18 -186 -26 -215q-14 -49 -15 -90 z" />
<glyph unicode="&#xf9;" horiz-adv-x="749" d="M101 1529q0 37 12 46h12q61 0 80 -23q0 -2 25 -8q20 -6 82 -31q49 -20 84 -39q39 -23 39 -39q0 -6 -8.5 -11t-16.5 -5q-33 10 -116 38.5t-91 35.5q-12 -4 -33 -4q-70 0 -69 40zM145 1319l13 29q47 -6 47 -113l6 -543q0 -57 10 -217q12 -143 12 -217q0 -233 154 -233 q94 0 121 430l2 41q14 563 14 833l-2 19q-2 8 -2 18q0 23 35 23q25 0 31 -13q4 -20 4 -71q0 -156 -12 -209l2 -13q0 -27 -7 -82l-4 -81v-21q2 -8 2 -20q-4 -49 -4 -95q-2 -14 -2 -45q-4 -195 -8 -338q-6 -178 -49 -301q-45 -131 -146 -131q-32 0 -70 21.5t-63 50.5 q-29 37 -45 207t-20 389q0 49 -2 74q-4 514 -17 608z" />
<glyph unicode="&#xfa;" horiz-adv-x="749" d="M145 1319l13 29q47 -6 47 -113l6 -543q0 -57 10 -217q12 -143 12 -217q0 -233 154 -233q94 0 121 430l2 41q14 563 14 833l-2 19q-2 8 -2 18q0 23 35 23q25 0 31 -13q4 -20 4 -71q0 -156 -12 -209l2 -13q0 -27 -7 -82l-4 -81v-21q2 -8 2 -20q-4 -49 -4 -95q-2 -14 -2 -45 q-4 -195 -8 -338q-6 -178 -49 -301q-45 -131 -146 -131q-32 0 -70 21.5t-63 50.5q-29 37 -45 207t-20 389q0 49 -2 74q-4 514 -17 608zM288 1430q0 6 58 53l65 53l56 43q70 53 75 60q45 0 45 -31l-6 -33q-106 -49 -256 -174q-14 0 -25.5 8t-11.5 21z" />
<glyph unicode="&#xfb;" horiz-adv-x="749" d="M145 1319l13 29q47 -6 47 -113l6 -543q0 -57 10 -217q12 -143 12 -217q0 -233 154 -233q94 0 121 430l2 41q14 563 14 833l-2 19q-2 8 -2 18q0 23 35 23q25 0 31 -13q4 -20 4 -71q0 -156 -12 -209l2 -13q0 -27 -7 -82l-4 -81v-21q2 -8 2 -20q-4 -49 -4 -95q-2 -14 -2 -45 q-4 -195 -8 -338q-6 -178 -49 -301q-45 -131 -146 -131q-32 0 -70 21.5t-63 50.5q-29 37 -45 207t-20 389q0 49 -2 74q-4 514 -17 608zM184 1399q2 31 37 117t76 157.5t59 71.5q31 0 31 -43q0 -68 37 -166l22 -73l-2 -13l16 -30l-2 -11q2 -8 5.5 -13t3.5 -9q0 -18 -37 -25 l-29 17q-10 131 -57 307q-8 -12 -70 -197q-16 -53 -16 -69l-35 -47z" />
<glyph unicode="&#xfc;" horiz-adv-x="749" d="M145 1319l13 29q47 -6 47 -113l6 -543q0 -57 10 -217q12 -143 12 -217q0 -233 154 -233q94 0 121 430l2 41q14 563 14 833l-2 19q-2 8 -2 18q0 23 35 23q25 0 31 -13q4 -20 4 -71q0 -156 -12 -209l2 -13q0 -27 -7 -82l-4 -81v-21q2 -8 2 -20q-4 -49 -4 -95q-2 -14 -2 -45 q-4 -195 -8 -338q-6 -178 -49 -301q-45 -131 -146 -131q-32 0 -70 21.5t-63 50.5q-29 37 -45 207t-20 389q0 49 -2 74q-4 514 -17 608zM148 1541q0 18 15 34.5t34 16.5q20 0 30.5 -20.5t10.5 -47.5q0 -16 -15.5 -25.5t-36.5 -9.5q-16 0 -27 16.5t-11 35.5zM418 1543 q0 18 15.5 34.5t33.5 16.5t31.5 -16.5t13.5 -32.5q0 -47 -53 -47q-17 0 -29 14t-12 31z" />
<glyph unicode="&#xfd;" horiz-adv-x="546" d="M49 1307l29 22q20 -4 59 -131q31 -90 56 -178l24 -78q37 -127 53 -131l9 37l-5 10q16 20 41 146q27 143 52 241q27 115 53 115q10 0 18 -6t8 -15q0 -31 -61 -241q-31 -100 -51 -189q-25 -104 -25 -186q10 -20 10 -35q0 -10 -6 -29q-6 -18 -6 -30q0 -10 8 -92q8 -55 9 -95 q0 -90 2 -161v-164v-8q0 -139 -43 -140q-7 0 -17 8.5t-12 14.5q18 49 18 358q0 59 -6 170l-10 146l-12 26l6 25q-12 29 -37 96.5t-49 136.5q-74 195 -96 281q-12 41 -19 76zM206 1430q0 6 58 53l65 53l56 43q70 53 75 60q45 0 45 -31l-6 -33q-106 -49 -256 -174 q-14 0 -25.5 8t-11.5 21z" />
<glyph unicode="&#xfe;" horiz-adv-x="659" d="M203 1487q0 41 30 41q53 0 54 -148q0 -51 -2 -86q-8 -63 -4 -63v-17q78 -4 142 -61t93 -147q27 -78 27 -160q0 -123 -66.5 -216t-189.5 -145q-2 -45 8 -211q6 -131 6 -200q0 -33 -11 -48.5t-34 -15.5q-12 0 -20.5 13.5t-8.5 33.5q0 188 -12 564q-10 414 -10 557z M276 1151l3 -301q2 -154 2 -318q102 64 149 134.5t47 160.5q0 76 -5 115t-26 74q-20 35 -42.5 57.5t-92.5 77.5h-35z" />
<glyph unicode="&#xff;" horiz-adv-x="546" d="M49 1307l29 22q20 -4 59 -131q31 -90 56 -178l24 -78q37 -127 53 -131l9 37l-5 10q16 20 41 146q27 143 52 241q27 115 53 115q10 0 18 -6t8 -15q0 -31 -61 -241q-31 -100 -51 -189q-25 -104 -25 -186q10 -20 10 -35q0 -10 -6 -29q-6 -18 -6 -30q0 -10 8 -92q8 -55 9 -95 q0 -90 2 -161v-164v-8q0 -139 -43 -140q-7 0 -17 8.5t-12 14.5q18 49 18 358q0 59 -6 170l-10 146l-12 26l6 25q-12 29 -37 96.5t-49 136.5q-74 195 -96 281q-12 41 -19 76zM66 1541q0 18 15 34.5t34 16.5q20 0 30.5 -20.5t10.5 -47.5q0 -16 -15.5 -25.5t-36.5 -9.5 q-16 0 -27 16.5t-11 35.5zM336 1543q0 18 15.5 34.5t33.5 16.5t31.5 -16.5t13.5 -32.5q0 -47 -53 -47q-17 0 -29 14t-12 31z" />
<glyph unicode="&#x100;" horiz-adv-x="722" d="M70 39l2 4v2l22 102q25 96 43 189q20 104 31 135q16 68 65 338l13 68q53 315 73 397q10 49 37 145q10 41 29 82q18 35 31 35q33 0 47 -20q10 -18 31.5 -203t37.5 -373l27 -340q0 -88 12 -266q12 -180 13 -268v-9q0 -23 -6 -41q-8 -16 -39 -16q-17 0 -28 10t-11 25v268 q0 25 -104.5 45.5t-172.5 20.5q-4 0 -13 -31t-13 -45q-27 -106 -54 -227l-10 -46q-4 -16 -20 -16t-29.5 10.5t-13.5 24.5zM223 426q90 -29 207 -29h12q6 -2 15 -2q41 1 41 21q0 127 -14.5 347t-30.5 388q-4 72 -17 158l-8 80q0 -2 -4 22l-4 25q-16 -45 -31.5 -125 t-32.5 -189q-49 -305 -84 -458l-18 -70q-31 -102 -31 -156v-12zM267 1708q0 16 131 16h114q72 0 105 -4q25 -2 35 -9t10 -20q-4 -16 -131 -16h-117h-39q-51 0 -65 4q-31 4 -39 14q-4 8 -4 15z" />
<glyph unicode="&#x101;" horiz-adv-x="641" d="M80 25l2 6l2 6q37 145 61 289l25 127l25 155l22 135q10 55 37 179q29 139 35 190q2 6 8 76q8 78 14 115q6 53 13 61h14q6 -2 14 -2q25 0 37 12q14 0 25.5 -9t11.5 -22q0 -98 14 -225q8 -66 13 -108q23 -264 114 -992v-6q0 -20 -16 -30q-31 0 -39 7t-12 38 q-18 150 -23 186l-10 82q-45 10 -102 10l-74 4q-49 6 -72 6q-12 0 -14 -10q0 -6 -2 -6l-4 -41q-2 -37 -23 -147q-10 -55 -24 -86q-16 -35 -31 -35q-12 0 -26.5 11t-14.5 24zM185 1495q0 16 131 16h115q72 0 104 -4q25 -2 35 -9t10 -20q-4 -16 -131 -16h-117h-39q-51 0 -65 4 q-31 4 -39 14q-4 8 -4 15zM221 377q0 -10 78 -18.5t137 -8.5h21q-20 295 -78 871l-111 -547q-47 -236 -47 -297z" />
<glyph unicode="&#x102;" horiz-adv-x="722" d="M70 39l2 4v2l22 102q25 96 43 189q20 104 31 135q16 68 65 338l13 68q53 315 73 397q10 49 37 145q10 41 29 82q18 35 31 35q33 0 47 -20q10 -18 31.5 -203t37.5 -373l27 -340q0 -88 12 -266q12 -180 13 -268v-9q0 -23 -6 -41q-8 -16 -39 -16q-17 0 -28 10t-11 25v268 q0 25 -104.5 45.5t-172.5 20.5q-4 0 -13 -31t-13 -45q-27 -106 -54 -227l-10 -46q-4 -16 -20 -16t-29.5 10.5t-13.5 24.5zM223 426q90 -29 207 -29h12q6 -2 15 -2q41 1 41 21q0 127 -14.5 347t-30.5 388q-4 72 -17 158l-8 80q0 -2 -4 22l-4 25q-16 -45 -31.5 -125 t-32.5 -189q-49 -305 -84 -458l-18 -70q-31 -102 -31 -156v-12zM309 1831l23 19q14 -4 20 -33q16 -106 52 -131l22 -16h51q25 0 47.5 35.5t22.5 68.5v14q-2 6 -2 15q0 39 37 39q10 0 20 -9.5t10 -19.5l-4 -18l-6 -15l4 -14q-2 -6 -6 -15.5t-8 -19.5q-20 -45 -35 -63 q-10 -16 -21.5 -24.5t-31.5 -14.5q-23 -6 -45 -7q-82 0 -119 70q-31 66 -31 139z" />
<glyph unicode="&#x103;" horiz-adv-x="641" d="M80 25l2 6l2 6q37 145 61 289l25 127l25 155l22 135q10 55 37 179q29 139 35 190q2 6 8 76q8 78 14 115q6 53 13 61h14q6 -2 14 -2q25 0 37 12q14 0 25.5 -9t11.5 -22q0 -98 14 -225q8 -66 13 -108q23 -264 114 -992v-6q0 -20 -16 -30q-31 0 -39 7t-12 38 q-18 150 -23 186l-10 82q-45 10 -102 10l-74 4q-49 6 -72 6q-12 0 -14 -10q0 -6 -2 -6l-4 -41q-2 -37 -23 -147q-10 -55 -24 -86q-16 -35 -31 -35q-12 0 -26.5 11t-14.5 24zM221 377q0 -10 78 -18.5t137 -8.5h21q-20 295 -78 871l-111 -547q-47 -236 -47 -297zM227 1632 l23 19q14 -4 20 -33q16 -106 52 -131l22 -16h51q25 0 47.5 35.5t22.5 68.5v14q-2 6 -2 15q0 39 37 39q10 0 20 -9.5t10 -19.5l-4 -18l-6 -15l4 -14q-2 -6 -6 -15.5t-8 -19.5q-20 -45 -35 -63q-10 -16 -21.5 -24.5t-31.5 -14.5q-23 -6 -45 -7q-82 0 -119 70q-31 66 -31 139z " />
<glyph unicode="&#x104;" horiz-adv-x="722" d="M70 39l2 4v2l22 102q25 96 43 189q20 104 31 135q16 68 65 338l13 68q53 315 73 397q10 49 37 145q10 41 29 82q18 35 31 35q33 0 47 -20q10 -18 31.5 -203t37.5 -373l27 -340q0 -88 12 -266q12 -180 13 -268v-9q0 -23 -6 -41q-8 -16 -39 -16q-17 0 -28 10t-11 25v268 q0 25 -104.5 45.5t-172.5 20.5q-4 0 -13 -31t-13 -45q-27 -106 -54 -227l-10 -46q-4 -16 -20 -16t-29.5 10.5t-13.5 24.5zM223 426q90 -29 207 -29h12q6 -2 15 -2q41 1 41 21q0 127 -14.5 347t-30.5 388q-4 72 -17 158l-8 80q0 -2 -4 22l-4 25q-16 -45 -31.5 -125 t-32.5 -189q-49 -305 -84 -458l-18 -70q-31 -102 -31 -156v-12zM370 -291q0 47 14.5 96.5t34.5 88.5q47 82 78 108l15 17l57 -9h4l-16 -26q-49 -61 -76 -129q-18 -43 -19 -78q0 -10 -4 -47l-2 -21v-22q0 -27 22.5 -55.5t47.5 -28.5q8 0 33 10q20 10 33 10q20 0 20 -20 q0 -25 -26.5 -40.5t-59.5 -15.5q-39 0 -76 27t-58.5 65t-21.5 70z" />
<glyph unicode="&#x105;" horiz-adv-x="641" d="M80 25l2 6l2 6q37 145 61 289l25 127l25 155l22 135q10 55 37 179q29 139 35 190q2 6 8 76q8 78 14 115q6 53 13 61h14q6 -2 14 -2q25 0 37 12q14 0 25.5 -9t11.5 -22q0 -98 14 -225q8 -66 13 -108q23 -264 114 -992v-6q0 -20 -16 -30q-31 0 -39 7t-12 38 q-18 150 -23 186l-10 82q-45 10 -102 10l-74 4q-49 6 -72 6q-12 0 -14 -10q0 -6 -2 -6l-4 -41q-2 -37 -23 -147q-10 -55 -24 -86q-16 -35 -31 -35q-12 0 -26.5 11t-14.5 24zM221 377q0 -10 78 -18.5t137 -8.5h21q-20 295 -78 871l-111 -547q-47 -236 -47 -297zM362 -297 q0 47 14.5 96.5t34.5 88.5q47 82 78 108l15 17l57 -9h4l-16 -26q-49 -61 -76 -129q-18 -43 -19 -78q0 -10 -4 -47l-2 -21v-22q0 -27 22.5 -55.5t47.5 -28.5q8 0 33 10q20 10 33 10q20 0 20 -20q0 -25 -26.5 -40.5t-59.5 -15.5q-39 0 -76 27t-58.5 65t-21.5 70z" />
<glyph unicode="&#x106;" horiz-adv-x="675" d="M125 1090q0 106 12 210q8 51 21.5 88t38.5 72q45 70 135 92q47 12 104 13q39 0 79 -22.5t40 -53.5q0 -23 -33 -23q-12 0 -47 15q-31 14 -55 14q-57 0 -103.5 -23.5t-72.5 -62.5q-23 -33 -39.5 -90t-20.5 -115q-6 -51 -6 -123l2 -114q2 -49 2 -107q0 -141 29 -415.5 t55 -317.5q25 -39 73 -59.5t101 -20.5q94 0 144 59q18 25 39 25q18 0 18 -29q0 -37 -22.5 -64.5t-61.5 -41.5q-66 -29 -143 -29q-58 0 -121.5 45t-89.5 103q-25 53 -50.5 337.5t-25.5 424.5v108q-2 47 -2 105zM297 1669q0 6 58 53l65 53l56 43q70 53 75 60q45 0 45 -31 l-6 -33q-106 -49 -256 -174q-14 0 -25.5 8t-11.5 21z" />
<glyph unicode="&#x107;" horiz-adv-x="583" d="M125 446v234q0 133 8 258q6 92 18.5 155.5t38.5 127.5q29 66 64 92q14 12 55 28q27 10 51 23h82h7q2 -2 6 -2l10 -2l8 -6q6 -6 6 -8q2 -4 2 -13l-26 -30h-86q-39 0 -71 -38t-48 -96q-16 -51 -26.5 -120.5t-12.5 -120.5q-4 -66 -4 -90l-4 -11q0 -115 -4 -206l-4 -207 q0 -90 12 -166q10 -82 59 -148q47 -66 146 -65q31 0 51 18q31 0 31 -22q0 -14 -26 -34t-52 -30h-68l-49 19q-39 12 -66.5 34.5t-52.5 67.5q-43 82 -51 236q-4 70 -4 122zM256 1430q0 6 58 53l65 53l56 43q70 53 75 60q45 0 45 -31l-6 -33q-106 -49 -256 -174q-14 0 -25.5 8 t-11.5 21z" />
<glyph unicode="&#x108;" horiz-adv-x="675" d="M125 1090q0 106 12 210q8 51 21.5 88t38.5 72q45 70 135 92q47 12 104 13q39 0 79 -22.5t40 -53.5q0 -23 -33 -23q-12 0 -47 15q-31 14 -55 14q-57 0 -103.5 -23.5t-72.5 -62.5q-23 -33 -39.5 -90t-20.5 -115q-6 -51 -6 -123l2 -114q2 -49 2 -107q0 -141 29 -415.5 t55 -317.5q25 -39 73 -59.5t101 -20.5q94 0 144 59q18 25 39 25q18 0 18 -29q0 -37 -22.5 -64.5t-61.5 -41.5q-66 -29 -143 -29q-58 0 -121.5 45t-89.5 103q-25 53 -50.5 337.5t-25.5 424.5v108q-2 47 -2 105zM186 1618q2 31 37 117t76 157.5t59 71.5q31 0 31 -43 q0 -68 37 -166l22 -73l-2 -13l16 -30l-2 -11q2 -8 5.5 -13t3.5 -9q0 -18 -37 -25l-29 17q-10 131 -57 307q-8 -12 -70 -197q-16 -53 -16 -69l-35 -47z" />
<glyph unicode="&#x109;" horiz-adv-x="583" d="M125 446v234q0 133 8 258q6 92 18.5 155.5t38.5 127.5q29 66 64 92q14 12 55 28q27 10 51 23h82h7q2 -2 6 -2l10 -2l8 -6q6 -6 6 -8q2 -4 2 -13l-26 -30h-86q-39 0 -71 -38t-48 -96q-16 -51 -26.5 -120.5t-12.5 -120.5q-4 -66 -4 -90l-4 -11q0 -115 -4 -206l-4 -207 q0 -90 12 -166q10 -82 59 -148q47 -66 146 -65q31 0 51 18q31 0 31 -22q0 -14 -26 -34t-52 -30h-68l-49 19q-39 12 -66.5 34.5t-52.5 67.5q-43 82 -51 236q-4 70 -4 122zM152 1399q2 31 37 117t76 157.5t59 71.5q31 0 31 -43q0 -68 37 -166l22 -73l-2 -13l16 -30l-2 -11 q2 -8 5.5 -13t3.5 -9q0 -18 -37 -25l-29 17q-10 131 -57 307q-8 -12 -70 -197q-16 -53 -16 -69l-35 -47z" />
<glyph unicode="&#x10a;" horiz-adv-x="675" d="M125 1090q0 106 12 210q8 51 21.5 88t38.5 72q45 70 135 92q47 12 104 13q39 0 79 -22.5t40 -53.5q0 -23 -33 -23q-12 0 -47 15q-31 14 -55 14q-57 0 -103.5 -23.5t-72.5 -62.5q-23 -33 -39.5 -90t-20.5 -115q-6 -51 -6 -123l2 -114q2 -49 2 -107q0 -141 29 -415.5 t55 -317.5q25 -39 73 -59.5t101 -20.5q94 0 144 59q18 25 39 25q18 0 18 -29q0 -37 -22.5 -64.5t-61.5 -41.5q-66 -29 -143 -29q-58 0 -121.5 45t-89.5 103q-25 53 -50.5 337.5t-25.5 424.5v108q-2 47 -2 105zM287 1696q0 20 16.5 37.5t36.5 17.5q18 0 33.5 -17t15.5 -36 q0 -51 -57 -51q-19 0 -32 15.5t-13 33.5z" />
<glyph unicode="&#x10b;" horiz-adv-x="583" d="M125 446v234q0 133 8 258q6 92 18.5 155.5t38.5 127.5q29 66 64 92q14 12 55 28q27 10 51 23h82h7q2 -2 6 -2l10 -2l8 -6q6 -6 6 -8q2 -4 2 -13l-26 -30h-86q-39 0 -71 -38t-48 -96q-16 -51 -26.5 -120.5t-12.5 -120.5q-4 -66 -4 -90l-4 -11q0 -115 -4 -206l-4 -207 q0 -90 12 -166q10 -82 59 -148q47 -66 146 -65q31 0 51 18q31 0 31 -22q0 -14 -26 -34t-52 -30h-68l-49 19q-39 12 -66.5 34.5t-52.5 67.5q-43 82 -51 236q-4 70 -4 122zM242 1530q0 20 16 37.5t37 17.5q18 0 33.5 -17t15.5 -36q0 -51 -57 -51q-19 0 -32 15.5t-13 33.5z" />
<glyph unicode="&#x10c;" horiz-adv-x="675" d="M125 1090q0 106 12 210q8 51 21.5 88t38.5 72q45 70 135 92q47 12 104 13q39 0 79 -22.5t40 -53.5q0 -23 -33 -23q-12 0 -47 15q-31 14 -55 14q-57 0 -103.5 -23.5t-72.5 -62.5q-23 -33 -39.5 -90t-20.5 -115q-6 -51 -6 -123l2 -114q2 -49 2 -107q0 -141 29 -415.5 t55 -317.5q25 -39 73 -59.5t101 -20.5q94 0 144 59q18 25 39 25q18 0 18 -29q0 -37 -22.5 -64.5t-61.5 -41.5q-66 -29 -143 -29q-58 0 -121.5 45t-89.5 103q-25 53 -50.5 337.5t-25.5 424.5v108q-2 47 -2 105zM197 1951l39 27l35 -47q0 -16 16 -70q20 -57 39.5 -114.5 t30.5 -81.5q47 178 57 307l29 16q37 -6 37 -24q0 -2 -9 -23l2 -10l-16 -31l2 -12l-22 -74q-37 -98 -37 -166q0 -43 -31 -43q-18 0 -59 72t-76 158t-37 116z" />
<glyph unicode="&#x10d;" horiz-adv-x="583" d="M121 1732l39 27l35 -47q0 -16 16 -70q20 -57 39.5 -114.5t30.5 -81.5q47 178 57 307l29 16q37 -6 37 -24q0 -2 -9 -23l2 -10l-16 -31l2 -12l-22 -74q-37 -98 -37 -166q0 -43 -31 -43q-18 0 -59 72t-76 158t-37 116zM125 446v234q0 133 8 258q6 92 18.5 155.5t38.5 127.5 q29 66 64 92q14 12 55 28q27 10 51 23h82h7q2 -2 6 -2l10 -2l8 -6q6 -6 6 -8q2 -4 2 -13l-26 -30h-86q-39 0 -71 -38t-48 -96q-16 -51 -26.5 -120.5t-12.5 -120.5q-4 -66 -4 -90l-4 -11q0 -115 -4 -206l-4 -207q0 -90 12 -166q10 -82 59 -148q47 -66 146 -65q31 0 51 18 q31 0 31 -22q0 -14 -26 -34t-52 -30h-68l-49 19q-39 12 -66.5 34.5t-52.5 67.5q-43 82 -51 236q-4 70 -4 122z" />
<glyph unicode="&#x10e;" horiz-adv-x="780" d="M119 1951l39 27l35 -47q0 -16 16 -70q20 -57 39.5 -114.5t30.5 -81.5q47 178 57 307l29 16q37 -6 37 -24q0 -2 -9 -23l2 -10l-16 -31l2 -12l-22 -74q-37 -98 -37 -166q0 -43 -31 -43q-18 0 -59 72t-76 158t-37 116zM129 1497q0 49 156 49h10q104 0 180 -71 q59 -55 107 -175q33 -94 49 -210q8 -61 14 -189v-63q0 -127 -33.5 -275.5t-95.5 -277.5q-37 -82 -95.5 -147.5t-111.5 -103.5t-71 -38q-25 0 -49.5 12t-24.5 29q0 12 16 41q16 27 15 41l-7 180l-14 559l-4 248q-2 227 -10 285q-4 23 -17 51q-14 39 -14 55zM211 1450 q0 -72 8 -170q8 -100 8 -170q0 -113 17 -391q14 -242 14 -389v-230h10q76 39 135.5 114t94.5 165q31 76 51 173t29 181q6 74 6 141q0 598 -330 599q-43 0 -43 -23z" />
<glyph unicode="&#x10f;" horiz-adv-x="712" d="M115 1732l39 27l35 -47q0 -16 16 -70q20 -57 39.5 -114.5t30.5 -81.5q47 178 57 307l29 16q37 -6 37 -24q0 -2 -9 -23l2 -10l-16 -31l2 -12l-22 -74q-37 -98 -37 -166q0 -43 -31 -43q-18 0 -59 72t-76 158t-37 116zM139 1311q0 14 17.5 29.5t31.5 15.5q16 0 31 -17 l23 -18q12 -6 47 -12t49 -13q31 -16 82 -63q49 -49 67 -62l-2 -4q2 -12 31 -53q23 -31 37 -57q33 -94 33 -244q0 -27 -2 -47v-49v-17l-2 -20q0 -39 12 -62q-12 -66 -31 -247q-6 -53 -20.5 -112.5t-34.5 -98.5q-53 -100 -178 -170h-144q-16 0 -16 55q-8 141 -8 356 q0 135 2 242l2 242q0 156 -8 385q-18 16 -19 41zM223 883q0 -438 25 -764l-2 -39l8 -4l4 -27h64q14 16 26 27l14 10l17 14q143 129 143 492v39q-2 16 -2 35l-8 206q-6 119 -72 246q-31 63 -83 103.5t-109 40.5q-25 0 -25 -379z" />
<glyph unicode="&#x110;" horiz-adv-x="880" d="M51 776q0 37 127 37h19l8 4v4l2 6q0 41 -14 185q-14 115 -15 184l-4 123l-4 61q-8 106 -8 183q0 10 12 26.5t21 16.5q61 0 127.5 -35t121.5 -94q104 -111 172 -236v-4q96 -272 97 -588q0 -137 -51.5 -284.5t-145.5 -272.5q-98 -129 -215 -180q-18 6 -22 8 q-16 4 -23.5 10.5t-13.5 20.5h-2q0 270 -19 651q-4 37 -4 53q-2 25 -6 57.5t-6 41.5q-23 0 -64 -6q-43 -6 -61 -7q-18 0 -23.5 7.5t-5.5 27.5zM231 1534q0 -160 15.5 -424t34.5 -289q25 0 69 13q55 10 72 10q16 0 27.5 -15.5t15.5 -33.5l-21 -25q-109 0 -168 -14 q2 -63 7.5 -178t7.5 -127l-2 -2q0 -53 10 -222q10 -164 10 -221q19 4 33 14q6 4 27 25l14 14q104 104 180 265t76 292q0 121 -2 174.5t-12 135.5q-8 76 -29 161q-35 166 -128 288t-232 163z" />
<glyph unicode="&#x111;" horiz-adv-x="780" d="M141 672q0 4 31 6t41 4q2 88 2 203q0 213 -6 385q-18 16 -19 41q0 14 16.5 29.5t33.5 15.5q14 0 30 -17l23 -18q12 -6 47 -12t47 -13q35 -14 82 -63q55 -51 70 -62l-2 -4q2 -12 30 -53q29 -37 35 -57q35 -92 35 -244q0 -27 -2 -47v-49v-17l-2 -20q0 -37 10 -62 q-10 -63 -29 -247q-6 -53 -20 -112.5t-35 -98.5q-53 -100 -178 -170h-143q-18 0 -19 55q-6 160 -6 356v238h-29q-16 0 -29.5 9t-13.5 24zM274 883q0 -135 2 -199q29 2 80 2q16 0 30.5 -10t14.5 -25q0 -6 -125 -10q6 -324 23 -522l-2 -39l6 -4l6 -27h64q14 16 26 27l15 10 l14 14q145 127 145 492v39q-2 16 -2 35l-10 206q-4 117 -69 246q-31 63 -83.5 103.5t-109.5 40.5q-25 0 -25 -379z" />
<glyph unicode="&#x112;" horiz-adv-x="509" d="M60 1708q0 16 131 16h114q72 0 105 -4q25 -2 35 -9t10 -20q-4 -16 -131 -16h-117h-39q-51 0 -65 4q-31 4 -39 14q-4 8 -4 15zM139 1485q0 25 10.5 41t26.5 16h127q29 0 43 -4q20 -6 21 -35q0 -16 -12.5 -26.5t-26.5 -12.5h-35l-33 2l-33 2q-14 0 -19 -5t-5 -19 q0 -96 2 -174v-174v-256q0 -4 4 -4h2h2q51 4 111 4q33 0 32 -29q0 -20 -7 -27.5t-23 -7.5h-117q-8 0 -8 -10l4 -303q4 -141 4 -326v-76h88h86h18q37 0 37 -26q0 -33 -18 -39q-25 -8 -101 -8h-86q-49 0 -68.5 9t-19.5 36v39q-2 16 -2 37v4l2 299l-2 845q0 131 -4 228z" />
<glyph unicode="&#x113;" horiz-adv-x="524" d="M90 1477q0 16 131 16h115q72 0 104 -4q25 -2 35 -9t10 -20q-4 -16 -131 -16h-117h-39q-51 0 -65 4q-31 4 -39 14q-4 8 -4 15zM139 76q16 43 17 84q0 47 -6 135l-5 135q0 102 7 307q8 182 8 310l-4 122q-4 55 -4 123q0 31 14 44.5t45 13.5q20 0 33 -13q4 -2 59 -8 q51 -6 88 -18q39 -12 39 -31q0 -20 -39 -41q-117 39 -166 39l-10 -12q2 -18 2 -88q0 -88 -4 -158q-2 -72 -2 -160q0 -57 29 -57l32 2q16 2 35 2q80 0 80 -37q0 -23 -10 -38t-31 -15q-31 0 -47 16l-66 10h-10l-10 -10v-6q4 -35 4 -162q0 -80 -2 -145l-2 -146q0 -80 6 -163 q2 -47 20.5 -62.5t67.5 -15.5l37 2q18 2 41 2q59 0 59 -27q0 -37 -90 -37h-168q-37 0 -41 43v27q2 10 2 25z" />
<glyph unicode="&#x114;" horiz-adv-x="509" d="M102 1831l23 19q14 -4 20 -33q16 -106 52 -131l22 -16h51q25 0 47.5 35.5t22.5 68.5v14q-2 6 -2 15q0 39 37 39q10 0 20 -9.5t10 -19.5l-4 -18l-6 -15l4 -14q-2 -6 -6 -15.5t-8 -19.5q-20 -45 -35 -63q-10 -16 -21.5 -24.5t-31.5 -14.5q-23 -6 -45 -7q-82 0 -119 70 q-31 66 -31 139zM139 1485q0 25 10.5 41t26.5 16h127q29 0 43 -4q20 -6 21 -35q0 -16 -12.5 -26.5t-26.5 -12.5h-35l-33 2l-33 2q-14 0 -19 -5t-5 -19q0 -96 2 -174v-174v-256q0 -4 4 -4h2h2q51 4 111 4q33 0 32 -29q0 -20 -7 -27.5t-23 -7.5h-117q-8 0 -8 -10l4 -303 q4 -141 4 -326v-76h88h86h18q37 0 37 -26q0 -33 -18 -39q-25 -8 -101 -8h-86q-49 0 -68.5 9t-19.5 36v39q-2 16 -2 37v4l2 299l-2 845q0 131 -4 228z" />
<glyph unicode="&#x115;" horiz-adv-x="524" d="M133 1613l23 19q14 -4 20 -33q16 -106 52 -131l22 -16h51q25 0 47.5 35.5t22.5 68.5v14q-2 6 -2 15q0 39 37 39q10 0 20 -9.5t10 -19.5l-4 -18l-6 -15l4 -14q-2 -6 -6 -15.5t-8 -19.5q-20 -45 -35 -63q-10 -16 -21.5 -24.5t-31.5 -14.5q-23 -6 -45 -7q-82 0 -119 70 q-31 66 -31 139zM139 76q16 43 17 84q0 47 -6 135l-5 135q0 102 7 307q8 182 8 310l-4 122q-4 55 -4 123q0 31 14 44.5t45 13.5q20 0 33 -13q4 -2 59 -8q51 -6 88 -18q39 -12 39 -31q0 -20 -39 -41q-117 39 -166 39l-10 -12q2 -18 2 -88q0 -88 -4 -158q-2 -72 -2 -160 q0 -57 29 -57l32 2q16 2 35 2q80 0 80 -37q0 -23 -10 -38t-31 -15q-31 0 -47 16l-66 10h-10l-10 -10v-6q4 -35 4 -162q0 -80 -2 -145l-2 -146q0 -80 6 -163q2 -47 20.5 -62.5t67.5 -15.5l37 2q18 2 41 2q59 0 59 -27q0 -37 -90 -37h-168q-37 0 -41 43v27q2 10 2 25z" />
<glyph unicode="&#x116;" horiz-adv-x="509" d="M139 1485q0 25 10.5 41t26.5 16h127q29 0 43 -4q20 -6 21 -35q0 -16 -12.5 -26.5t-26.5 -12.5h-35l-33 2l-33 2q-14 0 -19 -5t-5 -19q0 -96 2 -174v-174v-256q0 -4 4 -4h2h2q51 4 111 4q33 0 32 -29q0 -20 -7 -27.5t-23 -7.5h-117q-8 0 -8 -10l4 -303q4 -141 4 -326v-76 h88h86h18q37 0 37 -26q0 -33 -18 -39q-25 -8 -101 -8h-86q-49 0 -68.5 9t-19.5 36v39q-2 16 -2 37v4l2 299l-2 845q0 131 -4 228zM205 1696q0 20 16.5 37.5t36.5 17.5q18 0 33.5 -17t15.5 -36q0 -51 -57 -51q-19 0 -32 15.5t-13 33.5z" />
<glyph unicode="&#x117;" horiz-adv-x="524" d="M139 76q16 43 17 84q0 47 -6 135l-5 135q0 102 7 307q8 182 8 310l-4 122q-4 55 -4 123q0 31 14 44.5t45 13.5q20 0 33 -13q4 -2 59 -8q51 -6 88 -18q39 -12 39 -31q0 -20 -39 -41q-117 39 -166 39l-10 -12q2 -18 2 -88q0 -88 -4 -158q-2 -72 -2 -160q0 -57 29 -57l32 2 q16 2 35 2q80 0 80 -37q0 -23 -10 -38t-31 -15q-31 0 -47 16l-66 10h-10l-10 -10v-6q4 -35 4 -162q0 -80 -2 -145l-2 -146q0 -80 6 -163q2 -47 20.5 -62.5t67.5 -15.5l37 2q18 2 41 2q59 0 59 -27q0 -37 -90 -37h-168q-37 0 -41 43v27q2 10 2 25zM236 1530q0 20 16 37.5 t37 17.5q18 0 33.5 -17t15.5 -36q0 -51 -57 -51q-19 0 -32 15.5t-13 33.5z" />
<glyph unicode="&#x118;" horiz-adv-x="509" d="M139 1485q0 25 10.5 41t26.5 16h127q29 0 43 -4q20 -6 21 -35q0 -16 -12.5 -26.5t-26.5 -12.5h-35l-33 2l-33 2q-14 0 -19 -5t-5 -19q0 -96 2 -174v-174v-256q0 -4 4 -4h2h2q51 4 111 4q33 0 32 -29q0 -20 -7 -27.5t-23 -7.5h-117q-8 0 -8 -10l4 -303q4 -141 4 -326v-76 h88h86h18q37 0 37 -26q0 -33 -18 -39q-25 -8 -101 -8h-86q-49 0 -68.5 9t-19.5 36v39q-2 16 -2 37v4l2 299l-2 845q0 131 -4 228zM247 -291q0 47 14.5 96.5t34.5 88.5q47 82 78 108l15 17l57 -9h4l-16 -26q-49 -61 -76 -129q-18 -43 -19 -78q0 -10 -4 -47l-2 -21v-22 q0 -27 22.5 -55.5t47.5 -28.5q8 0 33 10q20 10 33 10q20 0 20 -20q0 -25 -26.5 -40.5t-59.5 -15.5q-39 0 -76 27t-58.5 65t-21.5 70z" />
<glyph unicode="&#x119;" horiz-adv-x="524" d="M139 76q16 43 17 84q0 47 -6 135l-5 135q0 102 7 307q8 182 8 310l-4 122q-4 55 -4 123q0 31 14 44.5t45 13.5q20 0 33 -13q4 -2 59 -8q51 -6 88 -18q39 -12 39 -31q0 -20 -39 -41q-117 39 -166 39l-10 -12q2 -18 2 -88q0 -88 -4 -158q-2 -72 -2 -160q0 -57 29 -57l32 2 q16 2 35 2q80 0 80 -37q0 -23 -10 -38t-31 -15q-31 0 -47 16l-66 10h-10l-10 -10v-6q4 -35 4 -162q0 -80 -2 -145l-2 -146q0 -80 6 -163q2 -47 20.5 -62.5t67.5 -15.5l37 2q18 2 41 2q59 0 59 -27q0 -37 -90 -37h-168q-37 0 -41 43v27q2 10 2 25zM237 -287q0 47 14.5 96.5 t34.5 88.5q47 82 78 108l15 17l57 -9h4l-16 -26q-49 -61 -76 -129q-18 -43 -19 -78q0 -10 -4 -47l-2 -21v-22q0 -27 22.5 -55.5t47.5 -28.5q8 0 33 10q20 10 33 10q20 0 20 -20q0 -25 -26.5 -40.5t-59.5 -15.5q-39 0 -76 27t-58.5 65t-21.5 70z" />
<glyph unicode="&#x11a;" horiz-adv-x="509" d="M115 1951l39 27l35 -47q0 -16 16 -70q20 -57 39.5 -114.5t30.5 -81.5q47 178 57 307l29 16q37 -6 37 -24q0 -2 -9 -23l2 -10l-16 -31l2 -12l-22 -74q-37 -98 -37 -166q0 -43 -31 -43q-18 0 -59 72t-76 158t-37 116zM139 1485q0 25 10.5 41t26.5 16h127q29 0 43 -4 q20 -6 21 -35q0 -16 -12.5 -26.5t-26.5 -12.5h-35l-33 2l-33 2q-14 0 -19 -5t-5 -19q0 -96 2 -174v-174v-256q0 -4 4 -4h2h2q51 4 111 4q33 0 32 -29q0 -20 -7 -27.5t-23 -7.5h-117q-8 0 -8 -10l4 -303q4 -141 4 -326v-76h88h86h18q37 0 37 -26q0 -33 -18 -39 q-25 -8 -101 -8h-86q-49 0 -68.5 9t-19.5 36v39q-2 16 -2 37v4l2 299l-2 845q0 131 -4 228z" />
<glyph unicode="&#x11b;" horiz-adv-x="524" d="M115 1732l39 27l35 -47q0 -16 16 -70q20 -57 39.5 -114.5t30.5 -81.5q47 178 57 307l29 16q37 -6 37 -24q0 -2 -9 -23l2 -10l-16 -31l2 -12l-22 -74q-37 -98 -37 -166q0 -43 -31 -43q-18 0 -59 72t-76 158t-37 116zM139 76q16 43 17 84q0 47 -6 135l-5 135q0 102 7 307 q8 182 8 310l-4 122q-4 55 -4 123q0 31 14 44.5t45 13.5q20 0 33 -13q4 -2 59 -8q51 -6 88 -18q39 -12 39 -31q0 -20 -39 -41q-117 39 -166 39l-10 -12q2 -18 2 -88q0 -88 -4 -158q-2 -72 -2 -160q0 -57 29 -57l32 2q16 2 35 2q80 0 80 -37q0 -23 -10 -38t-31 -15 q-31 0 -47 16l-66 10h-10l-10 -10v-6q4 -35 4 -162q0 -80 -2 -145l-2 -146q0 -80 6 -163q2 -47 20.5 -62.5t67.5 -15.5l37 2q18 2 41 2q59 0 59 -27q0 -37 -90 -37h-168q-37 0 -41 43v27q2 10 2 25z" />
<glyph unicode="&#x11c;" horiz-adv-x="786" d="M125 877q0 100 4 178q4 94 29 202q10 55 25.5 96.5t41.5 86.5q47 82 131 114q45 16 95 17q61 0 61 -35q0 -25 -31 -25q-8 0 -28 7l-29 4q-68 0 -117 -56q-35 -41 -67 -141q-23 -82 -31 -182q-6 -55 -12 -180l-2 -136v-112q0 -199 28 -363q20 -102 48 -169.5t75 -110.5 q51 -47 111 -47q109 0 174 102q0 55 -8 145q-6 45 -17 84q-12 35 -28 35l-39 -4l-43 -4q-47 0 -47 35q0 16 57 30.5t96 14.5q33 0 48.5 -23.5t15.5 -62.5q0 -45 20 -182q20 -115 21 -183q0 -33 -27 -32q-49 0 -49 45l2 6v4q-117 -68 -207 -68q-153 0 -227 221t-74 689z M272 1638q2 31 37 117t76 157.5t59 71.5q31 0 31 -43q0 -68 37 -166l22 -73l-2 -13l16 -30l-2 -11q2 -8 5.5 -13t3.5 -9q0 -18 -37 -25l-29 17q-10 131 -57 307q-8 -12 -70 -197q-16 -53 -16 -69l-35 -47z" />
<glyph unicode="&#x11d;" horiz-adv-x="694" d="M121 623q0 70 8 159l12 129q10 154 23.5 233t59.5 139t143 71q10 2 32 2q63 0 64 -29q0 -12 -13.5 -21.5t-27.5 -9.5l-21 2l-18 2q-35 0 -62.5 -22.5t-46.5 -65.5q-43 -102 -55 -200q-16 -129 -20 -226l-2 -157q0 -100 6 -150q14 -23 19 -68.5t9 -125.5q4 -72 18.5 -122 t51.5 -83q41 -35 113 -35q59 0 84 66q29 70 32 143q6 92 7 156v112q-20 20 -72 21h-16q-10 -2 -23 -2q-49 0 -49 24q0 35 49 35q35 0 57 -2l45 -2q39 -6 62 -14q25 -8 24 -23q0 -27 -12 -76q-10 -57 -10 -77q0 -86 4 -156q2 -72 2 -158q-104 -106 -209 -106q-94 0 -139 22.5 t-66.5 87t-38.5 205.5q-25 207 -24 322zM205 1399q2 31 37 117t76 157.5t59 71.5q31 0 31 -43q0 -68 37 -166l22 -73l-2 -13l16 -30l-2 -11q2 -8 5.5 -13t3.5 -9q0 -18 -37 -25l-29 17q-10 131 -57 307q-8 -12 -70 -197q-16 -53 -16 -69l-35 -47z" />
<glyph unicode="&#x11e;" horiz-adv-x="786" d="M125 877q0 100 4 178q4 94 29 202q10 55 25.5 96.5t41.5 86.5q47 82 131 114q45 16 95 17q61 0 61 -35q0 -25 -31 -25q-8 0 -28 7l-29 4q-68 0 -117 -56q-35 -41 -67 -141q-23 -82 -31 -182q-6 -55 -12 -180l-2 -136v-112q0 -199 28 -363q20 -102 48 -169.5t75 -110.5 q51 -47 111 -47q109 0 174 102q0 55 -8 145q-6 45 -17 84q-12 35 -28 35l-39 -4l-43 -4q-47 0 -47 35q0 16 57 30.5t96 14.5q33 0 48.5 -23.5t15.5 -62.5q0 -45 20 -182q20 -115 21 -183q0 -33 -27 -32q-49 0 -49 45l2 6v4q-117 -68 -207 -68q-153 0 -227 221t-74 689z M270 1851l23 19q14 -4 20 -33q16 -106 52 -131l22 -16h51q25 0 47.5 35.5t22.5 68.5v14q-2 6 -2 15q0 39 37 39q10 0 20 -9.5t10 -19.5l-4 -18l-6 -15l4 -14q-2 -6 -6 -15.5t-8 -19.5q-20 -45 -35 -63q-10 -16 -21.5 -24.5t-31.5 -14.5q-23 -6 -45 -7q-82 0 -119 70 q-31 66 -31 139z" />
<glyph unicode="&#x11f;" horiz-adv-x="694" d="M121 623q0 70 8 159l12 129q10 154 23.5 233t59.5 139t143 71q10 2 32 2q63 0 64 -29q0 -12 -13.5 -21.5t-27.5 -9.5l-21 2l-18 2q-35 0 -62.5 -22.5t-46.5 -65.5q-43 -102 -55 -200q-16 -129 -20 -226l-2 -157q0 -100 6 -150q14 -23 19 -68.5t9 -125.5q4 -72 18.5 -122 t51.5 -83q41 -35 113 -35q59 0 84 66q29 70 32 143q6 92 7 156v112q-20 20 -72 21h-16q-10 -2 -23 -2q-49 0 -49 24q0 35 49 35q35 0 57 -2l45 -2q39 -6 62 -14q25 -8 24 -23q0 -27 -12 -76q-10 -57 -10 -77q0 -86 4 -156q2 -72 2 -158q-104 -106 -209 -106q-94 0 -139 22.5 t-66.5 87t-38.5 205.5q-25 207 -24 322zM192 1613l23 19q14 -4 20 -33q16 -106 52 -131l22 -16h51q25 0 47.5 35.5t22.5 68.5v14q-2 6 -2 15q0 39 37 39q10 0 20 -9.5t10 -19.5l-4 -18l-6 -15l4 -14q-2 -6 -6 -15.5t-8 -19.5q-20 -45 -35 -63q-10 -16 -21.5 -24.5 t-31.5 -14.5q-23 -6 -45 -7q-82 0 -119 70q-31 66 -31 139z" />
<glyph unicode="&#x120;" horiz-adv-x="786" d="M125 877q0 100 4 178q4 94 29 202q10 55 25.5 96.5t41.5 86.5q47 82 131 114q45 16 95 17q61 0 61 -35q0 -25 -31 -25q-8 0 -28 7l-29 4q-68 0 -117 -56q-35 -41 -67 -141q-23 -82 -31 -182q-6 -55 -12 -180l-2 -136v-112q0 -199 28 -363q20 -102 48 -169.5t75 -110.5 q51 -47 111 -47q109 0 174 102q0 55 -8 145q-6 45 -17 84q-12 35 -28 35l-39 -4l-43 -4q-47 0 -47 35q0 16 57 30.5t96 14.5q33 0 48.5 -23.5t15.5 -62.5q0 -45 20 -182q20 -115 21 -183q0 -33 -27 -32q-49 0 -49 45l2 6v4q-117 -68 -207 -68q-153 0 -227 221t-74 689z M332 1714q0 20 16.5 37.5t36.5 17.5q18 0 33.5 -17t15.5 -36q0 -51 -57 -51q-19 0 -32 15.5t-13 33.5z" />
<glyph unicode="&#x121;" horiz-adv-x="694" d="M121 623q0 70 8 159l12 129q10 154 23.5 233t59.5 139t143 71q10 2 32 2q63 0 64 -29q0 -12 -13.5 -21.5t-27.5 -9.5l-21 2l-18 2q-35 0 -62.5 -22.5t-46.5 -65.5q-43 -102 -55 -200q-16 -129 -20 -226l-2 -157q0 -100 6 -150q14 -23 19 -68.5t9 -125.5q4 -72 18.5 -122 t51.5 -83q41 -35 113 -35q59 0 84 66q29 70 32 143q6 92 7 156v112q-20 20 -72 21h-16q-10 -2 -23 -2q-49 0 -49 24q0 35 49 35q35 0 57 -2l45 -2q39 -6 62 -14q25 -8 24 -23q0 -27 -12 -76q-10 -57 -10 -77q0 -86 4 -156q2 -72 2 -158q-104 -106 -209 -106q-94 0 -139 22.5 t-66.5 87t-38.5 205.5q-25 207 -24 322zM295 1530q0 20 16 37.5t37 17.5q18 0 33.5 -17t15.5 -36q0 -51 -57 -51q-19 0 -32 15.5t-13 33.5z" />
<glyph unicode="&#x122;" horiz-adv-x="786" d="M125 877q0 100 4 178q4 94 29 202q10 55 25.5 96.5t41.5 86.5q47 82 131 114q45 16 95 17q61 0 61 -35q0 -25 -31 -25q-8 0 -28 7l-29 4q-68 0 -117 -56q-35 -41 -67 -141q-23 -82 -31 -182q-6 -55 -12 -180l-2 -136v-112q0 -199 28 -363q20 -102 48 -169.5t75 -110.5 q51 -47 111 -47q109 0 174 102q0 55 -8 145q-6 45 -17 84q-12 35 -28 35l-39 -4l-43 -4q-47 0 -47 35q0 16 57 30.5t96 14.5q33 0 48.5 -23.5t15.5 -62.5q0 -45 20 -182q20 -115 21 -183q0 -33 -27 -32q-49 0 -49 45l2 6v4q-117 -68 -207 -68q-153 0 -227 221t-74 689z M346 -444l4 18q12 8 58 54q37 43 43 61q6 14 6 35q-27 16 -43.5 41t-16.5 49q0 27 24 45.5t54 18.5q45 0 68 -60l-4 -6q4 -4 4 -25q0 -35 -25.5 -94t-64.5 -104q-37 -45 -74 -49z" />
<glyph unicode="&#x123;" horiz-adv-x="694" d="M121 623q0 70 8 159l12 129q10 154 23.5 233t59.5 139t143 71q10 2 32 2q63 0 64 -29q0 -12 -13.5 -21.5t-27.5 -9.5l-21 2l-18 2q-35 0 -62.5 -22.5t-46.5 -65.5q-43 -102 -55 -200q-16 -129 -20 -226l-2 -157q0 -100 6 -150q14 -23 19 -68.5t9 -125.5q4 -72 18.5 -122 t51.5 -83q41 -35 113 -35q59 0 84 66q29 70 32 143q6 92 7 156v112q-20 20 -72 21h-16q-10 -2 -23 -2q-49 0 -49 24q0 35 49 35q35 0 57 -2l45 -2q39 -6 62 -14q25 -8 24 -23q0 -27 -12 -76q-10 -57 -10 -77q0 -86 4 -156q2 -72 2 -158q-104 -106 -209 -106q-94 0 -139 22.5 t-66.5 87t-38.5 205.5q-25 207 -24 322zM238 -383q0 8 2 12q16 12 55 51q37 35 45 64q6 14 6 35q-59 12 -59 90q0 33 22.5 48t55.5 15q90 0 90 -82q0 -51 -49 -128t-115 -120q-16 -10 -29 -10q-25 0 -24 25z" />
<glyph unicode="&#x124;" horiz-adv-x="669" d="M129 1532q0 20 27 20q12 0 19 -7t5 -19v-152q0 -55 10 -209l5 -69q4 -115 4 -138v-100q0 -53 10 -53l78 4l41 4q102 8 116 8l2 4q0 90 -10 346q-10 260 -10 349q0 25 29 24q14 0 24 -7t10 -19q0 -399 15 -879q14 -481 14 -590v-29q0 -16 -7 -28t-19 -12q-17 0 -23 8 t-6 24v25q2 8 2 22q0 281 -21 711h-14h-39h-39q-115 0 -143 -6q0 -150 16 -371q18 -252 19 -370q0 -31 -23 -31q-31 0 -31 28q-2 100 -9 277.5t-13 300.5q-39 487 -39 934zM184 1618q2 31 37 117t76 157.5t59 71.5q31 0 31 -43q0 -68 37 -166l22 -73l-2 -13l16 -30l-2 -11 q2 -8 5.5 -13t3.5 -9q0 -18 -37 -25l-29 17q-10 131 -57 307q-8 -12 -70 -197q-16 -53 -16 -69l-35 -47z" />
<glyph unicode="&#x125;" horiz-adv-x="669" d="M139 1315q0 14 10.5 26.5t24.5 12.5q41 0 41 -119q0 -139 -2 -252q-4 -113 -4 -248q0 -25 156 -24h8q39 0 56 15t17 52q0 109 -14 283q-12 188 -12 282q0 12 10 21.5t25 9.5l18 -6q14 -2 19 -6q0 -160 12 -477q12 -319 12 -479q0 -242 14 -406l-14 -23q0 21 -61 21 q-10 379 -11 549l-6 8l8 18q0 37 -8 76l-30 8q-18 -6 -41 -6q-16 0 -68 11q-35 10 -63 10l-23 -8q0 -72 -2 -129t-2 -129l4 -9q0 -57 6 -172q6 -113 6 -170q0 -23 -8 -38t-24 -15q-45 0 -46 123q0 104 3 188l2 187q0 186 -7 200q10 20 11 136q0 98 -9 239l-4 80zM184 1423 q2 31 37 117t76 157.5t59 71.5q31 0 31 -43q0 -68 37 -166l22 -73l-2 -13l16 -30l-2 -11q2 -8 5.5 -13t3.5 -9q0 -18 -37 -25l-29 17q-10 131 -57 307q-8 -12 -70 -197q-16 -53 -16 -69l-35 -47zM387 735v4l4 -4h-4z" />
<glyph unicode="&#x126;" horiz-adv-x="759" d="M131 1241l45 4q-4 84 -4 287l33 16l26 -22q-8 -68 -8 -152q0 -72 4 -127l248 4q-6 178 -6 269q0 16 4 28q37 0 49 -53q8 -49 8 -113v-131q12 -4 20.5 -14t8.5 -25h-27q4 -373 17 -688q12 -387 12 -475q8 -16 8 -29q0 -16 -11 -34.5t-26 -18.5q-28 0 -28 45l2 25v22 q0 334 -21 703h-6q-2 -2 -4 -2h-2q-14 0 -39 6l-39 4q-102 0 -145 -25q0 -117 18 -354q16 -252 17 -354q0 -31 -21 -31q-14 0 -21 4t-12 17q-8 25 -12 143q-4 111 -4 170l-2 84q0 125 -4 174q-25 369 -33 608h-2q-16 0 -29.5 10.5t-13.5 24.5zM229 1206q10 -201 11 -248v-40 q-2 -18 -2 -41q0 -31 8 -72q15 0 121 8l41 4l77 4l2 4q0 74 -10 387q-94 0 -248 -6z" />
<glyph unicode="&#x127;" horiz-adv-x="739" d="M154 1065q0 8 32 18l-4 76l-4 156q0 14 10.5 26.5t24.5 12.5q43 0 43 -119q0 -80 -2 -135q88 16 213 24q-8 125 -8 219q0 12 10 21.5t25 9.5l18 -6q16 -2 18 -6l2 -193q2 -18 3 -57q14 -10 14 -22q0 -6 -12 -13l6 -192q12 -256 12 -479q0 -242 14 -406l-14 -23 q0 20 -61 21q-10 379 -11 549l-6 8l8 18q0 37 -8 76l-31 8q-18 -6 -40 -6q-18 0 -66 11q-39 10 -66 10l-20 -8l-4 -129q-2 -57 -2 -129l6 -9l4 -172q6 -113 6 -170q0 -53 -33 -53q-45 0 -45 123q0 104 2 188l2 187q0 186 -6 200q10 20 11 136q0 70 -7 194q-14 4 -24 13.5 t-10 21.5zM248 735q0 -25 155 -24h9q39 0 56 15t17 52q0 109 -14 281q-98 -18 -219 -27v-49q-4 -113 -4 -248zM426 735v4l4 -4h-4z" />
<glyph unicode="&#x128;" horiz-adv-x="552" d="M59 1643q0 63 35 102t86 39t86 -41q16 -31 51 -55.5t66 -24.5q53 0 53 74l-4 20l-8 19q6 12 20 12q23 0 35 -20.5t12 -49.5q0 -43 -32.5 -75.5t-75.5 -32.5q-33 0 -70 20.5t-59 42.5q-16 14 -54 58l-14 6q-31 0 -53.5 -16.5t-22.5 -38.5l11 -43l-23 -31q-12 0 -25.5 11 t-13.5 24zM121 1513q0 18 16 29q14 6 76 6h57q31 -2 78 -2q16 0 26.5 -7t10.5 -21q0 -12 -6 -22.5t-19 -10.5q-14 0 -24 2h-25h-20q-20 0 -25 -4l-4 -8q0 -160 27 -646q25 -449 24 -645v-57q-2 -27 -2 -55h74q47 0 47 -29q0 -12 -9 -23.5t-20 -11.5h-110q-49 2 -125 2 q-14 0 -25.5 10.5t-11.5 22.5q0 27 35 27h80q0 236 -15 594q-8 287 -16 450l2 105v135q0 102 -4 131h-72q-20 0 -20 28z" />
<glyph unicode="&#x129;" horiz-adv-x="485" d="M37 1434q0 63 35 102t86 39t86 -41q16 -31 51 -55.5t66 -24.5q53 0 53 74l-4 20l-8 19q6 12 20 12q23 0 35 -20.5t12 -49.5q0 -43 -32.5 -75.5t-75.5 -32.5q-33 0 -70 20.5t-59 42.5q-16 14 -54 58l-14 6q-31 0 -53.5 -16.5t-22.5 -38.5l11 -43l-23 -31q-12 0 -25.5 11 t-13.5 24zM49 1325q0 8 18.5 16.5t30.5 8.5q78 0 156 -9q47 -2 94 -18q37 -12 37 -35q0 -4 -6 -16l-47 -4q-14 12 -60 12l-10 -6q6 -18 6 -109q0 -135 -2 -243l-4 -244q0 -92 8 -223q6 -150 6 -226v-26q-2 -14 -2 -37q0 -47 7 -57l-2 -5q0 -20 45 -20q18 0 30 2h31 q59 0 59 -29q0 -18 -12 -29.5t-33 -11.5q-18 0 -32 4q-16 2 -35 3q-12 0 -37 -11q-25 -12 -37 -12q-47 0 -55 20q-10 0 -17 -2h-16q-45 0 -57 21q0 14 16 24l10 11h60l8 8l4 18l2 25q0 125 -6 223l-4 76l-4 149q0 80 6 240l4 238q0 156 -10 237q-18 6 -62 6l-22 -2 q-12 -2 -27 -2q-39 0 -39 35z" />
<glyph unicode="&#x12a;" horiz-adv-x="552" d="M80 1708q0 16 131 16h114q72 0 105 -4q25 -2 35 -9t10 -20q-4 -16 -131 -16h-117h-39q-51 0 -65 4q-31 4 -39 14q-4 8 -4 15zM121 1513q0 18 16 29q14 6 76 6h57q31 -2 78 -2q16 0 26.5 -7t10.5 -21q0 -12 -6 -22.5t-19 -10.5q-14 0 -24 2h-25h-20q-20 0 -25 -4l-4 -8 q0 -160 27 -646q25 -449 24 -645v-57q-2 -27 -2 -55h74q47 0 47 -29q0 -12 -9 -23.5t-20 -11.5h-110q-49 2 -125 2q-14 0 -25.5 10.5t-11.5 22.5q0 27 35 27h80q0 236 -15 594q-8 287 -16 450l2 105v135q0 102 -4 131h-72q-20 0 -20 28z" />
<glyph unicode="&#x12b;" horiz-adv-x="485" d="M49 1325q0 8 18.5 16.5t30.5 8.5q78 0 156 -9q47 -2 94 -18q37 -12 37 -35q0 -4 -6 -16l-47 -4q-14 12 -60 12l-10 -6q6 -18 6 -109q0 -135 -2 -243l-4 -244q0 -92 8 -223q6 -150 6 -226v-26q-2 -14 -2 -37q0 -47 7 -57l-2 -5q0 -20 45 -20q18 0 30 2h31q59 0 59 -29 q0 -18 -12 -29.5t-33 -11.5q-18 0 -32 4q-16 2 -35 3q-12 0 -37 -11q-25 -12 -37 -12q-47 0 -55 20q-10 0 -17 -2h-16q-45 0 -57 21q0 14 16 24l10 11h60l8 8l4 18l2 25q0 125 -6 223l-4 76l-4 149q0 80 6 240l4 238q0 156 -10 237q-18 6 -62 6l-22 -2q-12 -2 -27 -2 q-39 0 -39 35zM58 1477q0 16 131 16h115q72 0 104 -4q25 -2 35 -9t10 -20q-4 -16 -131 -16h-117h-39q-51 0 -65 4q-31 4 -39 14q-4 8 -4 15z" />
<glyph unicode="&#x12c;" horiz-adv-x="552" d="M121 1513q0 18 16 29q14 6 76 6h57q31 -2 78 -2q16 0 26.5 -7t10.5 -21q0 -12 -6 -22.5t-19 -10.5q-14 0 -24 2h-25h-20q-20 0 -25 -4l-4 -8q0 -160 27 -646q25 -449 24 -645v-57q-2 -27 -2 -55h74q47 0 47 -29q0 -12 -9 -23.5t-20 -11.5h-110q-49 2 -125 2 q-14 0 -25.5 10.5t-11.5 22.5q0 27 35 27h80q0 236 -15 594q-8 287 -16 450l2 105v135q0 102 -4 131h-72q-20 0 -20 28zM123 1831l23 19q14 -4 20 -33q16 -106 52 -131l22 -16h51q25 0 47.5 35.5t22.5 68.5v14q-2 6 -2 15q0 39 37 39q10 0 20 -9.5t10 -19.5l-4 -18l-6 -15 l4 -14q-2 -6 -6 -15.5t-8 -19.5q-20 -45 -35 -63q-10 -16 -21.5 -24.5t-31.5 -14.5q-23 -6 -45 -7q-82 0 -119 70q-31 66 -31 139z" />
<glyph unicode="&#x12d;" horiz-adv-x="485" d="M49 1325q0 8 18.5 16.5t30.5 8.5q78 0 156 -9q47 -2 94 -18q37 -12 37 -35q0 -4 -6 -16l-47 -4q-14 12 -60 12l-10 -6q6 -18 6 -109q0 -135 -2 -243l-4 -244q0 -92 8 -223q6 -150 6 -226v-26q-2 -14 -2 -37q0 -47 7 -57l-2 -5q0 -20 45 -20q18 0 30 2h31q59 0 59 -29 q0 -18 -12 -29.5t-33 -11.5q-18 0 -32 4q-16 2 -35 3q-12 0 -37 -11q-25 -12 -37 -12q-47 0 -55 20q-10 0 -17 -2h-16q-45 0 -57 21q0 14 16 24l10 11h60l8 8l4 18l2 25q0 125 -6 223l-4 76l-4 149q0 80 6 240l4 238q0 156 -10 237q-18 6 -62 6l-22 -2q-12 -2 -27 -2 q-39 0 -39 35zM100 1613l23 19q14 -4 20 -33q16 -106 52 -131l22 -16h51q25 0 47.5 35.5t22.5 68.5v14q-2 6 -2 15q0 39 37 39q10 0 20 -9.5t10 -19.5l-4 -18l-6 -15l4 -14q-2 -6 -6 -15.5t-8 -19.5q-20 -45 -35 -63q-10 -16 -21.5 -24.5t-31.5 -14.5q-23 -6 -45 -7 q-82 0 -119 70q-31 66 -31 139z" />
<glyph unicode="&#x12e;" horiz-adv-x="552" d="M121 1513q0 18 16 29q14 6 76 6h57q31 -2 78 -2q16 0 26.5 -7t10.5 -21q0 -12 -6 -22.5t-19 -10.5q-14 0 -24 2h-25h-20q-20 0 -25 -4l-4 -8q0 -160 27 -646q25 -449 24 -645v-57q-2 -27 -2 -55h74q47 0 47 -29q0 -12 -9 -23.5t-20 -11.5h-110q-49 2 -125 2 q-14 0 -25.5 10.5t-11.5 22.5q0 27 35 27h80q0 236 -15 594q-8 287 -16 450l2 105v135q0 102 -4 131h-72q-20 0 -20 28zM327 -291q0 47 14.5 96.5t34.5 88.5q47 82 78 108l15 17l57 -9h4l-16 -26q-49 -61 -76 -129q-18 -43 -19 -78q0 -10 -4 -47l-2 -21v-22 q0 -27 22.5 -55.5t47.5 -28.5q8 0 33 10q20 10 33 10q20 0 20 -20q0 -25 -26.5 -40.5t-59.5 -15.5q-39 0 -76 27t-58.5 65t-21.5 70z" />
<glyph unicode="&#x12f;" horiz-adv-x="485" d="M49 1325q0 8 18.5 16.5t30.5 8.5q78 0 156 -9q47 -2 94 -18q37 -12 37 -35q0 -4 -6 -16l-47 -4q-14 12 -60 12l-10 -6q6 -18 6 -109q0 -135 -2 -243l-4 -244q0 -92 8 -223q6 -150 6 -226v-26q-2 -14 -2 -37q0 -47 7 -57l-2 -5q0 -20 45 -20q18 0 30 2h31q59 0 59 -29 q0 -18 -12 -29.5t-33 -11.5q-18 0 -32 4q-16 2 -35 3q-12 0 -37 -11q-25 -12 -37 -12q-47 0 -55 20q-10 0 -17 -2h-16q-45 0 -57 21q0 14 16 24l10 11h60l8 8l4 18l2 25q0 125 -6 223l-4 76l-4 149q0 80 6 240l4 238q0 156 -10 237q-18 6 -62 6l-22 -2q-12 -2 -27 -2 q-39 0 -39 35zM231 -260q0 47 14.5 96.5t34.5 88.5q47 82 78 108l15 17l57 -9h4l-16 -26q-49 -61 -76 -129q-18 -43 -19 -78q0 -10 -4 -47l-2 -21v-22q0 -27 22.5 -55.5t47.5 -28.5q8 0 33 10q20 10 33 10q20 0 20 -20q0 -25 -26.5 -40.5t-59.5 -15.5q-39 0 -76 27t-58.5 65 t-21.5 70z" />
<glyph unicode="&#x130;" horiz-adv-x="552" d="M121 1513q0 18 16 29q14 6 76 6h57q31 -2 78 -2q16 0 26.5 -7t10.5 -21q0 -12 -6 -22.5t-19 -10.5q-14 0 -24 2h-25h-20q-20 0 -25 -4l-4 -8q0 -160 27 -646q25 -449 24 -645v-57q-2 -27 -2 -55h74q47 0 47 -29q0 -12 -9 -23.5t-20 -11.5h-110q-49 2 -125 2 q-14 0 -25.5 10.5t-11.5 22.5q0 27 35 27h80q0 236 -15 594q-8 287 -16 450l2 105v135q0 102 -4 131h-72q-20 0 -20 28zM226 1696q0 20 16.5 37.5t36.5 17.5q18 0 33.5 -17t15.5 -36q0 -51 -57 -51q-19 0 -32 15.5t-13 33.5z" />
<glyph unicode="&#x131;" horiz-adv-x="485" d="M49 1325q0 8 18.5 16.5t30.5 8.5q78 0 156 -9q47 -2 94 -18q37 -12 37 -35q0 -4 -6 -16l-47 -4q-14 12 -60 12l-10 -6q6 -18 6 -109q0 -135 -2 -243l-4 -244q0 -92 8 -223q6 -150 6 -226v-26q-2 -14 -2 -37q0 -47 7 -57l-2 -5q0 -20 45 -20q18 0 30 2h31q59 0 59 -29 q0 -18 -12 -29.5t-33 -11.5q-18 0 -32 4q-16 2 -35 3q-12 0 -37 -11q-25 -12 -37 -12q-47 0 -55 20q-10 0 -17 -2h-16q-45 0 -57 21q0 14 16 24l10 11h60l8 8l4 18l2 25q0 125 -6 223l-4 76l-4 149q0 80 6 240l4 238q0 156 -10 237q-18 6 -62 6l-22 -2q-12 -2 -27 -2 q-39 0 -39 35z" />
<glyph unicode="&#x132;" horiz-adv-x="1028" d="M121 1513q0 18 16 29q14 6 76 6h57q31 -2 78 -2q16 0 26.5 -7t10.5 -21q0 -12 -6 -22.5t-19 -10.5q-14 0 -24 2h-25h-20q-20 0 -25 -4l-4 -8q0 -160 27 -646q25 -449 24 -645v-57q-2 -27 -2 -55h74q47 0 47 -29q0 -12 -9 -23.5t-20 -11.5h-110q-49 2 -125 2 q-14 0 -25.5 10.5t-11.5 22.5q0 27 35 27h80q0 236 -15 594q-8 287 -16 450l2 105v135q0 102 -4 131h-72q-20 0 -20 28zM594 1516q0 25 16 30q16 8 78 8l78 -2h109q14 0 23 -10t9 -22q0 -18 -11 -24.5t-44 -6.5h-45q0 -276 22 -690q4 -55 9 -189q14 -256 14 -305 q0 -86 -3 -135t-13 -107q-10 -59 -30 -101t-54 -83q-35 -45 -86 -78q-43 0 -43 39q2 20 49 49l24 19q90 88 90 313q0 139 -10 303q-10 219 -10 277l-12 317q-10 270 -11 371q-33 0 -61 -2l-61 -2q-12 0 -19.5 9t-7.5 22z" />
<glyph unicode="&#x133;" horiz-adv-x="976" d="M49 1325q0 8 18.5 16.5t30.5 8.5q78 0 156 -9q47 -2 94 -18q37 -12 37 -35q0 -4 -6 -16l-47 -4q-14 12 -60 12l-10 -6q6 -18 6 -109q0 -135 -2 -243l-4 -244q0 -92 8 -223q6 -150 6 -226v-26q-2 -14 -2 -37q0 -47 7 -57l-2 -5q0 -20 45 -20q18 0 30 2h31q59 0 59 -29 q0 -18 -12 -29.5t-33 -11.5q-18 0 -32 4q-16 2 -35 3q-12 0 -37 -11q-25 -12 -37 -12q-47 0 -55 20q-10 0 -17 -2h-16q-45 0 -57 21q0 14 16 24l10 11h60l8 8l4 18l2 25q0 125 -6 223l-4 76l-4 149q0 80 6 240l4 238q0 156 -10 237q-18 6 -62 6l-22 -2q-12 -2 -27 -2 q-39 0 -39 35zM499 -197q0 6 35 29q33 25 74 49q45 31 47 35q31 35 48.5 109.5t17.5 146.5q0 219 -9 545q-10 303 -10 543l-12 22q-14 4 -49 10q-39 2 -70 17q-31 10 -31 26q0 8 16.5 16.5t26.5 8.5q39 0 124 -14.5t151.5 -35t66.5 -36.5q0 -12 -9 -19.5t-23 -7.5t-56 10 q-31 10 -55 11q-18 0 -18 -41q0 -113 10 -426q10 -236 10 -424v-225q-12 -27 -12 -86q0 -86 -49 -195q-27 -55 -69 -89t-91 -34h-15l-47 47v4z" />
<glyph unicode="&#x134;" horiz-adv-x="475" d="M41 1516q0 25 16 30q16 8 78 8l78 -2h109q14 0 23 -10t9 -22q0 -18 -11 -24.5t-44 -6.5h-45q0 -276 22 -690q4 -55 9 -189q14 -256 14 -305q0 -86 -3 -135t-13 -107q-10 -59 -30 -101t-54 -83q-35 -45 -86 -78q-43 0 -43 39q2 20 49 49l24 19q90 88 90 313q0 139 -10 303 q-10 219 -10 277l-12 317q-10 270 -11 371q-33 0 -61 -2l-61 -2q-12 0 -19.5 9t-7.5 22zM86 1618q2 31 37 117t76 157.5t59 71.5q31 0 31 -43q0 -68 37 -166l22 -73l-2 -13l16 -30l-2 -11q2 -8 5.5 -13t3.5 -9q0 -18 -37 -25l-29 17q-10 131 -57 307q-8 -12 -70 -197 q-16 -53 -16 -69l-35 -47z" />
<glyph unicode="&#x135;" horiz-adv-x="491" d="M14 -197q0 6 35 29q33 25 74 49q45 31 47 35q31 35 48.5 109.5t17.5 146.5q0 219 -9 545q-10 303 -10 543l-12 22q-14 4 -49 10q-39 2 -70 17q-31 10 -31 26q0 8 16.5 16.5t26.5 8.5q39 0 124 -14.5t151.5 -35t66.5 -36.5q0 -12 -9 -19.5t-23 -7.5t-56 10q-31 10 -55 11 q-18 0 -18 -41q0 -113 10 -426q10 -236 10 -424v-225q-12 -27 -12 -86q0 -86 -49 -195q-27 -55 -69 -89t-91 -34h-15l-47 47v4zM102 1399q2 31 37 117t76 157.5t59 71.5q31 0 31 -43q0 -68 37 -166l22 -73l-2 -13l16 -30l-2 -11q2 -8 5.5 -13t3.5 -9q0 -18 -37 -25l-29 17 q-10 131 -57 307q-8 -12 -70 -197q-16 -53 -16 -69l-35 -47z" />
<glyph unicode="&#x136;" horiz-adv-x="645" d="M129 39v618q0 121 6 394l4 393q0 39 4 72q6 25 23 24q31 0 37 -14q8 -14 8 -74l-4 -340l-4 -248h2q39 86 110 258l76 191q115 285 146 284q14 0 24 -8t10 -22q-6 -39 -32 -82l-21 -37q-35 -82 -102 -246q-82 -199 -88 -209q-2 -14 2 -24q41 -104 92 -258t84 -267 q35 -123 70.5 -249.5t50.5 -182.5q4 -12 4 -14q0 -14 -11.5 -22.5t-25.5 -8.5q-19 1 -25 15q-2 12 -49 172l-71 249q-113 389 -146 482l-12 35q-2 -4 -7 -12.5t-18 -26.5q-25 -45 -41 -70l-28 -47v-729q0 -35 -6.5 -48.5t-26.5 -13.5t-27.5 14.5t-7.5 51.5zM225 -424l4 18 q12 8 58 54q37 43 43 61q6 14 6 35q-27 16 -43.5 41t-16.5 49q0 27 24 45.5t54 18.5q45 0 68 -60l-4 -6q4 -4 4 -25q0 -35 -25.5 -94t-64.5 -104q-37 -45 -74 -49z" />
<glyph unicode="&#x137;" horiz-adv-x="675" d="M139 10v385q0 33 11 129q10 96 10 129q0 86 10 199q8 115 8 197v284q12 23 39 23q16 0 27.5 -11.5t11.5 -27.5q-16 -37 -16 -98l-4 -215q-4 -98 -5 -218q20 6 160 283q139 274 154 274q53 0 53 -34q-131 -195 -217 -379l-2 -66q-2 -29 -2 -65q0 -90 69.5 -338t118.5 -344 q23 -31 27 -35q20 -29 29.5 -48.5t9.5 -39.5q0 -14 -10.5 -22.5t-24.5 -8.5q-49 0 -117 184q-63 170 -110 369t-52 279l-6 8l-30 -66q-23 -43 -34 -70.5t-22 -68.5q-12 -39 -12 -80t-4 -74l-4 -73v-262q0 -18 6 -60q6 -37 6 -57q0 -10 -10 -17.5t-23 -7.5q-27 0 -36 8.5 t-9 34.5zM239 -424l4 18q12 8 58 54q37 43 43 61q6 14 6 35q-27 16 -43.5 41t-16.5 49q0 27 24 45.5t54 18.5q45 0 68 -60l-4 -6q4 -4 4 -25q0 -35 -25.5 -94t-64.5 -104q-37 -45 -74 -49z" />
<glyph unicode="&#x138;" horiz-adv-x="800" d="M170 10v385q0 33 10 129t10 129q0 86 11 199q10 143 10 197v284q10 23 39 23q14 0 26.5 -12.5t12.5 -26.5q-18 -33 -19 -98l-4 -215q-4 -98 -4 -218q20 6 160 283q139 274 153 274q51 0 56 -34q-131 -190 -219 -379l-2 -66q-2 -29 -2 -65q0 -90 69.5 -338t120.5 -344 q8 -14 25 -35q20 -29 29.5 -48.5t9.5 -39.5q0 -14 -10.5 -22.5t-24.5 -8.5q-49 0 -115 184q-63 172 -111.5 371t-52.5 277l-6 8l-31 -66q-23 -43 -34 -70.5t-21 -68.5q-10 -45 -10 -80q0 -25 -6 -74l-4 -73v-262q0 -18 6 -60q8 -33 8 -57q0 -10 -11.5 -17.5t-23.5 -7.5 q-27 0 -36 8.5t-9 34.5z" />
<glyph unicode="&#x139;" horiz-adv-x="505" d="M131 1669q0 6 58 53l65 53l56 43q70 53 75 60q45 0 45 -31l-6 -33q-106 -49 -256 -174q-14 0 -25.5 8t-11.5 21zM139 1550q0 10 9.5 17.5t21.5 7.5q37 0 37 -31q0 -379 6 -567l10 -367q0 -86 13 -280l12 -254q0 -6 6 -6q2 -2 27 -2h127q27 0 26 -37q0 -16 -6 -27.5 t-18 -11.5l-15 -2h-16q-43 -2 -166 -2q-14 0 -23.5 12t-9.5 31v32v50q0 129 -10 290q-8 172 -8 291q0 111 -10 428q-12 287 -13 428z" />
<glyph unicode="&#x13a;" horiz-adv-x="509" d="M150 20q4 12 4 68q0 188 6 559q6 369 6 533l4 73l6 62q0 14 14 14q10 0 29 -6l6 -2q0 -45 -2 -82v-80v-223q2 -98 2 -223q-2 -10 -2 -45l-2 -43q-2 -41 -2 -84q0 -47 2 -86l2 -88l-6 -17l2 2q0 -6 -2 -8v-8q0 -16 6 -29l-6 -196v-13q0 -35 2 -41q0 -10 10 -10l107 -4 q47 0 64.5 -1t21.5 -1h6q10 0 20.5 -11.5t10.5 -23.5q0 -25 -33 -26q-35 2 -170 2l4 -2q-20 0 -39 -3q-16 -4 -37 -4q-28 0 -34 47zM153 1475q0 6 58 53l65 53l56 43q70 53 75 60q45 0 45 -31l-6 -33q-106 -49 -256 -174q-14 0 -25.5 8t-11.5 21z" />
<glyph unicode="&#x13b;" horiz-adv-x="505" d="M139 1550q0 10 9.5 17.5t21.5 7.5q37 0 37 -31q0 -379 6 -567l10 -367q0 -86 13 -280l12 -254q0 -6 6 -6q2 -2 27 -2h127q27 0 26 -37q0 -16 -6 -27.5t-18 -11.5l-15 -2h-16q-43 -2 -166 -2q-14 0 -23.5 12t-9.5 31v32v50q0 129 -10 290q-8 172 -8 291q0 111 -10 428 q-12 287 -13 428zM155 -424l4 18q12 8 58 54q37 43 43 61q6 14 6 35q-27 16 -43.5 41t-16.5 49q0 27 24 45.5t54 18.5q45 0 68 -60l-4 -6q4 -4 4 -25q0 -35 -25.5 -94t-64.5 -104q-37 -45 -74 -49z" />
<glyph unicode="&#x13c;" horiz-adv-x="509" d="M137 -424l4 18q12 8 58 54q37 43 43 61q6 14 6 35q-27 16 -43.5 41t-16.5 49q0 27 24 45.5t54 18.5q45 0 68 -60l-4 -6q4 -4 4 -25q0 -35 -25.5 -94t-64.5 -104q-37 -45 -74 -49zM150 20q4 12 4 68q0 188 6 559q6 369 6 533l4 73l6 62q0 14 14 14q10 0 29 -6l6 -2 q0 -45 -2 -82v-80v-223q2 -98 2 -223q-2 -10 -2 -45l-2 -43q-2 -41 -2 -84q0 -47 2 -86l2 -88l-6 -17l2 2q0 -6 -2 -8v-8q0 -16 6 -29l-6 -196v-13q0 -35 2 -41q0 -10 10 -10l107 -4q47 0 64.5 -1t21.5 -1h6q10 0 20.5 -11.5t10.5 -23.5q0 -25 -33 -26q-35 2 -170 2l4 -2 q-20 0 -39 -3q-16 -4 -37 -4q-28 0 -34 47z" />
<glyph unicode="&#x13d;" horiz-adv-x="505" d="M31 1951l39 27l35 -47q0 -16 16 -70q20 -57 39.5 -114.5t30.5 -81.5q47 178 57 307l29 16q37 -6 37 -24q0 -2 -9 -23l2 -10l-16 -31l2 -12l-22 -74q-37 -98 -37 -166q0 -43 -31 -43q-18 0 -59 72t-76 158t-37 116zM139 1550q0 10 9.5 17.5t21.5 7.5q37 0 37 -31 q0 -379 6 -567l10 -367q0 -86 13 -280l12 -254q0 -6 6 -6q2 -2 27 -2h127q27 0 26 -37q0 -16 -6 -27.5t-18 -11.5l-15 -2h-16q-43 -2 -166 -2q-14 0 -23.5 12t-9.5 31v32v50q0 129 -10 290q-8 172 -8 291q0 111 -10 428q-12 287 -13 428z" />
<glyph unicode="&#x13e;" horiz-adv-x="509" d="M23 1732l39 27l35 -47q0 -16 16 -70q20 -57 39.5 -114.5t30.5 -81.5q47 178 57 307l29 16q37 -6 37 -24q0 -2 -9 -23l2 -10l-16 -31l2 -12l-22 -74q-37 -98 -37 -166q0 -43 -31 -43q-18 0 -59 72t-76 158t-37 116zM150 20q4 12 4 68q0 188 6 559q6 369 6 533l4 73l6 62 q0 14 14 14q10 0 29 -6l6 -2q0 -45 -2 -82v-80v-223q2 -98 2 -223q-2 -10 -2 -45l-2 -43q-2 -41 -2 -84q0 -47 2 -86l2 -88l-6 -17l2 2q0 -6 -2 -8v-8q0 -16 6 -29l-6 -196v-13q0 -35 2 -41q0 -10 10 -10l107 -4q47 0 64.5 -1t21.5 -1h6q10 0 20.5 -11.5t10.5 -23.5 q0 -25 -33 -26q-35 2 -170 2l4 -2q-20 0 -39 -3q-16 -4 -37 -4q-28 0 -34 47z" />
<glyph unicode="&#x13f;" horiz-adv-x="634" d="M139 1550q0 10 9.5 17.5t21.5 7.5q37 0 37 -31q0 -379 6 -567l10 -367q0 -86 13 -280l12 -254q0 -6 6 -6q2 -2 27 -2h127q27 0 26 -37q0 -16 -6 -27.5t-18 -11.5l-15 -2h-16q-43 -2 -166 -2q-14 0 -23.5 12t-9.5 31v32v50q0 129 -10 290q-8 172 -8 291q0 111 -10 428 q-12 287 -13 428zM483 745q0 20 16.5 38t37.5 18q16 0 32.5 -17.5t16.5 -35.5q0 -51 -58 -52q-18 0 -31.5 15.5t-13.5 33.5z" />
<glyph unicode="&#x140;" horiz-adv-x="681" d="M150 20q4 12 4 68q0 188 6 559q6 369 6 533l4 73l6 62q0 14 14 14q10 0 29 -6l6 -2q0 -45 -2 -82v-80v-223q2 -98 2 -223q-2 -10 -2 -45l-2 -43q-2 -41 -2 -84q0 -47 2 -86l2 -88l-6 -17l2 2q0 -6 -2 -8v-8q0 -16 6 -29l-6 -196v-13q0 -35 2 -41q0 -10 10 -10l107 -4 q47 0 64.5 -1t21.5 -1h6q10 0 20.5 -11.5t10.5 -23.5q0 -25 -33 -26q-35 2 -170 2l4 -2q-20 0 -39 -3q-16 -4 -37 -4q-28 0 -34 47zM489 655q0 20 16.5 38t37.5 18q16 0 32.5 -17.5t16.5 -35.5q0 -51 -58 -52q-18 0 -31.5 15.5t-13.5 33.5z" />
<glyph unicode="&#x141;" horiz-adv-x="536" d="M12 748q0 23 178 110l-8 264q-12 287 -12 428q0 10 9 17.5t22 7.5q37 0 37 -31q0 -401 8 -567l2 -90q39 20 141 65q12 4 21 4q12 0 23 -6t11 -14q0 -23 -194 -119l6 -207q0 -119 10 -280l13 -254q0 -6 6 -6q2 -2 26 -2h127q29 0 29 -37q0 -16 -7 -27.5t-20 -11.5l-14 -2 h-16q-43 -2 -164 -2q-14 0 -24.5 12t-10.5 31l2 32v50q0 76 -10 290q-10 162 -10 291v94l-64 -28l-63 -29q-8 -4 -21 -4q-10 0 -21.5 6t-11.5 15z" />
<glyph unicode="&#x142;" horiz-adv-x="557" d="M41 639q0 20 170 106q2 195 2 435l6 73l4 62q0 14 17 14q4 0 28 -6l4 -2v-82q-2 -35 -2 -80q0 -125 2 -223v-160l47 23q29 12 53.5 23.5t43.5 19.5q8 4 20 4t23.5 -6t11.5 -15q0 -23 -199 -120l-2 -80l-4 -84l2 -86q2 -39 2 -88l-6 -17l2 2v-8q-2 -2 -2 -8q0 -16 6 -29 l-6 -196v-13l2 -41q2 -10 10 -10l107 -4q47 0 64.5 -1t21.5 -1h6q12 0 22.5 -11.5t10.5 -23.5q0 -23 -35 -26q-35 2 -170 2l4 -2q-20 0 -37 -3q-16 -4 -39 -4q-29 0 -32 47q4 25 4 68q0 188 6 559v27q-76 -37 -117 -53l-18 -5q-12 0 -22.5 6.5t-10.5 16.5z" />
<glyph unicode="&#x143;" horiz-adv-x="778" d="M100 1489v20q0 25 13.5 34t42.5 9q12 0 27.5 -12t19.5 -27l43 -200q29 -143 49 -217q43 -170 147 -557q59 -254 107 -389q12 31 12 98q0 199 4 356l4 357q0 88 2 159v158l-2 289q10 29 43 28q16 0 17 -59q0 -27 -2 -43q0 -16 -1 -23.5t-1 -9.5v-131q0 -272 -2 -485 q-2 -215 -2 -484q0 -51 -7 -161l-4 -162q0 -59 -53 -60q-14 0 -26.5 14.5t-16.5 33.5l-6 38q-6 25 -6 31q-229 821 -252 922q-18 74 -84 409q-2 -12 -2 -84v-741l4 -293l4 -291l-12 -16h-47l-7 16q4 20 5 82l-2 357l-5 356v268v195q-2 86 -2 192q0 12 -2 23zM348 1669 q0 6 58 53l65 53l56 43q70 53 75 60q45 0 45 -31l-6 -33q-106 -49 -256 -174q-14 0 -25.5 8t-11.5 21z" />
<glyph unicode="&#x144;" horiz-adv-x="942" d="M156 829q0 59 6 183q6 121 6 180v27q0 100 37 131l6 -7l20 5q8 -2 19 -13q8 -8 8 -18l4 -12q0 -4 1 -7l1 -4q33 -145 148 -407q117 -276 145 -367q20 -72 33 -127q39 -174 92 -268l4 6q47 455 47 1116l-2 25q-2 10 -2 26q0 43 29 43q18 0 31.5 -18t13.5 -41v-137l-10 -17 q0 -195 -22.5 -639t-43.5 -483l-35 -8v-2l-2 2l-20 -6q-17 0 -24 12t-13 37q-2 16 -8 29l2 6q-16 96 -70 235l-37 107q-4 4 -39 104l-16 49q-184 569 -232 617q-16 -55 -16 -144q0 -47 2 -81l2 -80l-2 -49q-2 -23 -2 -50q0 -45 4 -77l4 -66h-6q0 -342 14 -377v-184 q8 -16 9 -43q0 -16 -11.5 -28.5t-27.5 -12.5q-43 0 -43 110l4 66q4 31 4 68q0 98 -6 295t-6 294zM434 1430q0 6 58 53l65 53l56 43q70 53 75 60q45 0 45 -31l-6 -33q-106 -49 -256 -174q-14 0 -25.5 8t-11.5 21z" />
<glyph unicode="&#x145;" horiz-adv-x="778" d="M100 1489v20q0 25 13.5 34t42.5 9q12 0 27.5 -12t19.5 -27l43 -200q29 -143 49 -217q43 -170 147 -557q59 -254 107 -389q12 31 12 98q0 199 4 356l4 357q0 88 2 159v158l-2 289q10 29 43 28q16 0 17 -59q0 -27 -2 -43q0 -16 -1 -23.5t-1 -9.5v-131q0 -272 -2 -485 q-2 -215 -2 -484q0 -51 -7 -161l-4 -162q0 -59 -53 -60q-14 0 -26.5 14.5t-16.5 33.5l-6 38q-6 25 -6 31q-229 821 -252 922q-18 74 -84 409q-2 -12 -2 -84v-741l4 -293l4 -291l-12 -16h-47l-7 16q4 20 5 82l-2 357l-5 356v268v195q-2 86 -2 192q0 12 -2 23zM291 -424l4 18 q12 8 58 54q37 43 43 61q6 14 6 35q-27 16 -43.5 41t-16.5 49q0 27 24 45.5t54 18.5q45 0 68 -60l-4 -6q4 -4 4 -25q0 -35 -25.5 -94t-64.5 -104q-37 -45 -74 -49z" />
<glyph unicode="&#x146;" horiz-adv-x="942" d="M156 829q0 59 6 183q6 121 6 180v27q0 100 37 131l6 -7l20 5q8 -2 19 -13q8 -8 8 -18l4 -12q0 -4 1 -7l1 -4q33 -145 148 -407q117 -276 145 -367q20 -72 33 -127q39 -174 92 -268l4 6q47 455 47 1116l-2 25q-2 10 -2 26q0 43 29 43q18 0 31.5 -18t13.5 -41v-137l-10 -17 q0 -195 -22.5 -639t-43.5 -483l-35 -8v-2l-2 2l-20 -6q-17 0 -24 12t-13 37q-2 16 -8 29l2 6q-16 96 -70 235l-37 107q-4 4 -39 104l-16 49q-184 569 -232 617q-16 -55 -16 -144q0 -47 2 -81l2 -80l-2 -49q-2 -23 -2 -50q0 -45 4 -77l4 -66h-6q0 -342 14 -377v-184 q8 -16 9 -43q0 -16 -11.5 -28.5t-27.5 -12.5q-43 0 -43 110l4 66q4 31 4 68q0 98 -6 295t-6 294zM372 -424l4 18q12 8 58 54q37 43 43 61q6 14 6 35q-27 16 -43.5 41t-16.5 49q0 27 24 45.5t54 18.5q45 0 68 -60l-4 -6q4 -4 4 -25q0 -35 -25.5 -94t-64.5 -104 q-37 -45 -74 -49z" />
<glyph unicode="&#x147;" horiz-adv-x="778" d="M100 1489v20q0 25 13.5 34t42.5 9q12 0 27.5 -12t19.5 -27l43 -200q29 -143 49 -217q43 -170 147 -557q59 -254 107 -389q12 31 12 98q0 199 4 356l4 357q0 88 2 159v158l-2 289q10 29 43 28q16 0 17 -59q0 -27 -2 -43q0 -16 -1 -23.5t-1 -9.5v-131q0 -272 -2 -485 q-2 -215 -2 -484q0 -51 -7 -161l-4 -162q0 -59 -53 -60q-14 0 -26.5 14.5t-16.5 33.5l-6 38q-6 25 -6 31q-229 821 -252 922q-18 74 -84 409q-2 -12 -2 -84v-741l4 -293l4 -291l-12 -16h-47l-7 16q4 20 5 82l-2 357l-5 356v268v195q-2 86 -2 192q0 12 -2 23zM248 1951l39 27 l35 -47q0 -16 16 -70q20 -57 39.5 -114.5t30.5 -81.5q47 178 57 307l29 16q37 -6 37 -24q0 -2 -9 -23l2 -10l-16 -31l2 -12l-22 -74q-37 -98 -37 -166q0 -43 -31 -43q-18 0 -59 72t-76 158t-37 116z" />
<glyph unicode="&#x148;" horiz-adv-x="942" d="M156 829q0 59 6 183q6 121 6 180v27q0 100 37 131l6 -7l20 5q8 -2 19 -13q8 -8 8 -18l4 -12q0 -4 1 -7l1 -4q33 -145 148 -407q117 -276 145 -367q20 -72 33 -127q39 -174 92 -268l4 6q47 455 47 1116l-2 25q-2 10 -2 26q0 43 29 43q18 0 31.5 -18t13.5 -41v-137l-10 -17 q0 -195 -22.5 -639t-43.5 -483l-35 -8v-2l-2 2l-20 -6q-17 0 -24 12t-13 37q-2 16 -8 29l2 6q-16 96 -70 235l-37 107q-4 4 -39 104l-16 49q-184 569 -232 617q-16 -55 -16 -144q0 -47 2 -81l2 -80l-2 -49q-2 -23 -2 -50q0 -45 4 -77l4 -66h-6q0 -342 14 -377v-184 q8 -16 9 -43q0 -16 -11.5 -28.5t-27.5 -12.5q-43 0 -43 110l4 66q4 31 4 68q0 98 -6 295t-6 294zM299 1732l39 27l35 -47q0 -16 16 -70q20 -57 39.5 -114.5t30.5 -81.5q47 178 57 307l29 16q37 -6 37 -24q0 -2 -9 -23l2 -10l-16 -31l2 -12l-22 -74q-37 -98 -37 -166 q0 -43 -31 -43q-18 0 -59 72t-76 158t-37 116z" />
<glyph unicode="&#x149;" horiz-adv-x="999" d="M76 1532q0 4 4 12q8 10 24.5 24.5t30.5 28.5q31 31 45 62q6 16 6 35q-33 8 -46 29.5t-13 60.5q0 33 22.5 48t55.5 15q90 0 90 -82q0 -51 -50 -127.5t-116 -119.5q-10 -8 -27 -9q-12 0 -19 6.5t-7 16.5zM178 829q0 74 8 183q6 121 7 180v27q0 100 36 131l7 -7l20 5 q10 -4 18 -13l9 -18l4 -12q0 -4 1 -7l1 -4q33 -139 145 -407q102 -236 148 -367l32 -127q39 -174 93 -268l4 6q47 455 47 1116l-2 25q-2 10 -2 26q0 43 28 43q18 0 31.5 -18t13.5 -41v-137l-12 -17q0 -190 -22.5 -636.5t-40.5 -485.5l-35 -8v-2l-2 2q-16 -6 -23 -6 q-14 0 -21 12t-14 37q-8 27 -10 29l2 6q-14 92 -67 235l-37 107q-8 8 -56 153q-184 569 -233 617q-14 -57 -14 -144q0 -47 2 -81l2 -80l-2 -49q-2 -23 -2 -50q0 -45 4 -77l4 -66h-6q0 -340 12 -377v-184q8 -10 8 -43q0 -16 -10 -28.5t-27 -12.5q-43 0 -43 110q0 37 4 66 l5 68q0 98 -7 295q-8 174 -8 294z" />
<glyph unicode="&#x14a;" horiz-adv-x="919" d="M178 811v268l4 131l4 64q8 115 9 192q0 12 -2 23v20q0 25 13 34t42 9q14 0 30.5 -12t16.5 -27q0 -39 8 -71.5t27 -71.5q18 -45 26.5 -77.5t16.5 -98.5l12 -98q29 -127 100 -383l21 -72q31 -104 51 -207q20 -102 29 -121l57 -198q10 117 10 133q0 199 4 356l5 357l-5 159 q-2 70 -2 158q0 23 2 41l5 37q0 20 -7 26l7 17v47q0 68 -9 121q6 29 52 28q33 0 32 -67q-12 -20 -12 -68v-35v-34q0 -43 -6 -62l-4 -323q-2 -143 -2 -324q0 -31 4 -55l-4 -9v-258q0 -51 -6 -161l-5 -162q0 -23 -6 -76t-6 -92q0 -102 -47 -190.5t-127 -145.5q-43 0 -43 39 q2 18 49 49q18 10 27 19q90 94 90 313v18q-12 16 -23 52q2 -8 -41 129q-45 137 -78.5 252.5t-74.5 265.5q-55 205 -80 346q-2 6 -2 13t-2 15q0 39 -19 58l5 10l-23 121l-12 51q-14 66 -35 117l-6 -41v-19q0 -31 4 -38q-14 -43 -14 -142v-561q0 -113 14 -293q12 -193 12 -291 l-12 -16h-47l-6 16q4 20 4 82q0 121 -13 357q-12 238 -12 356z" />
<glyph unicode="&#x14b;" horiz-adv-x="999" d="M178 829q0 74 8 183q6 121 7 180v12v30.5t2 39t8 33.5q10 29 26 43l7 -7l20 5q10 -4 18 -13l9 -18l4 -12q0 -4 1 -7l1 -4q33 -139 145 -407q102 -236 148 -367l32 -127q39 -174 93 -268l4 6q47 455 47 1116l-2 25q-2 10 -2 26q0 43 28 43q18 0 31.5 -18t13.5 -41v-137 l-12 -17q0 -102 -45 -823l-18 -293v-65q0 -94 -29 -189q-41 -123 -117 -172q-45 -31 -102 -30l-35 34l-2 4v5q0 6 18 12q74 16 115 53q39 33 59.5 107.5t24.5 162.5l-35 142q-25 98 -69 235q-14 43 -22.5 69t-12.5 38q-4 4 -17.5 41t-25.5 76l-13 36q-184 569 -233 617 q-14 -57 -14 -144q0 -47 2 -81l2 -80l-2 -49q-2 -23 -2 -50q0 -29 2 -53l2 -55q0 -10 -2 -17v-18q0 -340 12 -377v-184q8 -10 8 -43q0 -16 -10 -28.5t-27 -12.5q-43 0 -43 110q0 37 4 66l5 68q0 98 -7 295q-8 174 -8 294z" />
<glyph unicode="&#x14c;" horiz-adv-x="753" d="M125 942v82q0 172 20 299q12 80 34 131t59 82q35 35 90 35q49 0 90 -19.5t67 -50.5q23 -29 41.5 -76t28.5 -90l16 -96q49 -350 50 -621v-6q0 -102 -5 -188q-4 -102 -22 -215q-8 -55 -23.5 -96t-40.5 -82q-43 -74 -120 -74q-285 0 -285 985zM131 1739q0 16 131 16h114 q72 0 105 -4q25 -2 35 -9t10 -20q-4 -16 -131 -16h-117h-39q-51 0 -65 4q-31 4 -39 14q-4 8 -4 15zM186 831q0 -137 27 -348q16 -133 41 -231t65 -166q41 -72 95 -72q32 0 59 38t41 106q33 143 41 280q4 111 4 215v9l-2 204q-4 111 -25 287q-16 125 -67 256q-20 51 -54 80 t-73 29q-35 0 -61.5 -33t-43.5 -92q-37 -137 -40 -254q-6 -100 -7 -207v-101z" />
<glyph unicode="&#x14d;" horiz-adv-x="708" d="M121 715v71q0 571 147 572q10 0 29 -6q66 -23 129 -29q39 -8 78 -80q43 -74 64.5 -194.5t21.5 -247.5l-4 -10q0 -68 2 -121l2 -123q0 -104 -8 -189q-12 -127 -41 -219q-18 -55 -42 -92t-59 -61q-33 -25 -80 -25q-239 0 -239 754zM158 1477q0 16 131 16h115q72 0 104 -4 q25 -2 35 -9t10 -20q-4 -16 -131 -16h-117h-39q-51 0 -65 4q-31 4 -39 14q-4 8 -4 15zM184 717q0 -45 2 -80l2 -82q0 -96 17 -221q12 -92 28.5 -155.5t47.5 -108.5q31 -49 71 -50q80 0 119 113q39 115 47 234q8 123 8 196q0 82 -12 242q-10 178 -10 242l-8 16l4 10 q0 90 -50.5 155.5t-121.5 65.5q-94 0 -113 -90q-4 -31 -8 -88q0 -152 -12 -207q0 -31 -7 -96z" />
<glyph unicode="&#x14e;" horiz-adv-x="753" d="M125 942v82q0 172 20 299q12 80 34 131t59 82q35 35 90 35q49 0 90 -19.5t67 -50.5q23 -29 41.5 -76t28.5 -90l16 -96q49 -350 50 -621v-6q0 -102 -5 -188q-4 -102 -22 -215q-8 -55 -23.5 -96t-40.5 -82q-43 -74 -120 -74q-285 0 -285 985zM174 1861l23 19q14 -4 20 -33 q16 -106 52 -131l22 -16h51q25 0 47.5 35.5t22.5 68.5v14q-2 6 -2 15q0 39 37 39q10 0 20 -9.5t10 -19.5l-4 -18l-6 -15l4 -14q-2 -6 -6 -15.5t-8 -19.5q-20 -45 -35 -63q-10 -16 -21.5 -24.5t-31.5 -14.5q-23 -6 -45 -7q-82 0 -119 70q-31 66 -31 139zM186 831 q0 -137 27 -348q16 -133 41 -231t65 -166q41 -72 95 -72q32 0 59 38t41 106q33 143 41 280q4 111 4 215v9l-2 204q-4 111 -25 287q-16 125 -67 256q-20 51 -54 80t-73 29q-35 0 -61.5 -33t-43.5 -92q-37 -137 -40 -254q-6 -100 -7 -207v-101z" />
<glyph unicode="&#x14f;" horiz-adv-x="708" d="M121 715v71q0 571 147 572q10 0 29 -6q66 -23 129 -29q39 -8 78 -80q43 -74 64.5 -194.5t21.5 -247.5l-4 -10q0 -68 2 -121l2 -123q0 -104 -8 -189q-12 -127 -41 -219q-18 -55 -42 -92t-59 -61q-33 -25 -80 -25q-239 0 -239 754zM184 717q0 -45 2 -80l2 -82 q0 -96 17 -221q12 -92 28.5 -155.5t47.5 -108.5q31 -49 71 -50q80 0 119 113q39 115 47 234q8 123 8 196q0 82 -12 242q-10 178 -10 242l-8 16l4 10q0 90 -50.5 155.5t-121.5 65.5q-94 0 -113 -90q-4 -31 -8 -88q0 -152 -12 -207q0 -31 -7 -96zM200 1613l23 19q14 -4 20 -33 q16 -106 52 -131l22 -16h51q25 0 47.5 35.5t22.5 68.5v14q-2 6 -2 15q0 39 37 39q10 0 20 -9.5t10 -19.5l-4 -18l-6 -15l4 -14q-2 -6 -6 -15.5t-8 -19.5q-20 -45 -35 -63q-10 -16 -21.5 -24.5t-31.5 -14.5q-23 -6 -45 -7q-82 0 -119 70q-31 66 -31 139z" />
<glyph unicode="&#x150;" horiz-adv-x="753" d="M125 942v82q0 172 20 299q12 80 34 131t59 82q35 35 90 35q49 0 90 -19.5t67 -50.5q23 -29 41.5 -76t28.5 -90l16 -96q49 -350 50 -621v-6q0 -102 -5 -188q-4 -102 -22 -215q-8 -55 -23.5 -96t-40.5 -82q-43 -74 -120 -74q-285 0 -285 985zM133 1629q6 20 173 150 t186 130q6 0 14 -10t8 -21q0 -10 -12 -20q-164 -123 -203 -150q-31 -14 -69 -47q-49 -35 -86 -45zM186 831q0 -137 27 -348q16 -133 41 -231t65 -166q41 -72 95 -72q32 0 59 38t41 106q33 143 41 280q4 111 4 215v9l-2 204q-4 111 -25 287q-16 125 -67 256q-20 51 -54 80 t-73 29q-35 0 -61.5 -33t-43.5 -92q-37 -137 -40 -254q-6 -100 -7 -207v-101zM443 1639q0 14 94 85t157 111q106 59 115 60q10 0 23.5 -16.5t17.5 -32.5l-104 -62q-25 -6 -113 -53l-51 -35l-82 -51q-41 -23 -47 -23q-10 1 -10 17z" />
<glyph unicode="&#x151;" horiz-adv-x="708" d="M121 715v71q0 571 147 572q10 0 29 -6q66 -23 129 -29q39 -8 78 -80q43 -74 64.5 -194.5t21.5 -247.5l-4 -10q0 -68 2 -121l2 -123q0 -104 -8 -189q-12 -127 -41 -219q-18 -55 -42 -92t-59 -61q-33 -25 -80 -25q-239 0 -239 754zM125 1401q6 20 173 150t186 130 q6 0 14 -10t8 -21q0 -10 -12 -20q-164 -123 -203 -150q-31 -14 -69 -47q-49 -35 -86 -45zM184 717q0 -45 2 -80l2 -82q0 -96 17 -221q12 -92 28.5 -155.5t47.5 -108.5q31 -49 71 -50q80 0 119 113q39 115 47 234q8 123 8 196q0 82 -12 242q-10 178 -10 242l-8 16l4 10 q0 90 -50.5 155.5t-121.5 65.5q-94 0 -113 -90q-4 -31 -8 -88q0 -152 -12 -207q0 -31 -7 -96zM435 1411q0 14 94 85t157 111q106 59 115 60q10 0 23.5 -16.5t17.5 -32.5l-104 -62q-25 -6 -113 -53l-51 -35l-82 -51q-41 -23 -47 -23q-10 1 -10 17z" />
<glyph unicode="&#x152;" horiz-adv-x="1136" d="M125 965q0 106 22 233q25 133 89 242q33 53 81 82.5t105 29.5q225 0 295 -79l-6 22l30 43q14 0 41 -6q25 -6 39 -6h152l22 2q10 2 23 2q10 -8 20.5 -19.5t10.5 -17.5q0 -23 -37 -23l-121 5q-53 4 -121 4q0 -84 14 -228q14 -141 15 -227q0 -31 -2 -53l-2 -53q0 -47 10 -84 l80 -3q14 0 26 3q12 2 27 2q31 0 49 -25q0 -18 -6 -25.5t-27 -7.5q-25 0 -45 2l-47 4q-59 0 -59 -18q0 -150 8 -365q6 -246 6 -366l74 6q37 2 84 2q141 0 141 -39l-12 -18q-86 0 -156 -2l-155 -4q-46 -1 -50 30l13 33q-20 -2 -70 -18q-45 -14 -76 -15q-113 0 -204 41 t-150 117q-121 145 -121 377q0 70 -6 211zM174 748l4 -7q0 -102 25 -299q12 -98 37 -168q25 -72 59 -77q119 -125 262 -125q51 0 121 14q37 6 59.5 24.5t22.5 43.5q0 190 -14 499q-14 387 -15 500q0 43 -6 125q-6 80 -6 123q-37 49 -107.5 72.5t-158.5 23.5 q-59 0 -107.5 -25.5t-77.5 -70.5q-61 -92 -82 -215q-16 -113 -16 -219v-74q2 -33 2 -72z" />
<glyph unicode="&#x153;" horiz-adv-x="905" d="M121 715q0 166 21.5 299t58.5 209q74 152 166 151q43 0 78.5 -34.5t58.5 -96.5q0 -4 14 -35l19 -34q-4 53 -5 118q0 31 14.5 44.5t45.5 13.5q20 0 33 -13q4 -2 59 -8q51 -6 88 -18q39 -12 39 -31q0 -18 -37 -41q-121 39 -166 39l-10 -12v-88q0 -88 -2 -158 q-4 -72 -4 -160q0 -57 29 -57l32 2q16 2 37 2q78 0 78 -37q0 -23 -10 -38t-31 -15q-33 0 -45 16l-68 10h-8l-10 -16q2 -35 2 -162v-145q-2 -66 -2 -146q0 -53 4 -163q2 -47 21.5 -62.5t68.5 -15.5l37 2q16 2 39 2q59 0 59 -27q0 -37 -88 -37h-170q-37 0 -41 43v27q2 10 2 25 l-6 8l10 41q-57 -156 -172 -156q-239 0 -239 754zM184 717q0 -45 2 -80l2 -82q0 -96 17 -221q12 -92 28.5 -155.5t47.5 -108.5q31 -49 71 -50q80 0 119 113q39 115 47 234q8 123 8 196q0 82 -12 242q-10 178 -10 242l-8 16l4 10q0 123 -31 184q-27 61 -76 62 q-47 0 -93 -56.5t-75.5 -150.5t-29.5 -203q0 -31 -7 -96z" />
<glyph unicode="&#x154;" horiz-adv-x="579" d="M129 20v31l4 414l4 199q8 358 8 610v264q0 18 37 18q53 0 99.5 -28.5t72.5 -77.5q55 -100 56 -219q0 -94 -41 -205q-12 -31 -31 -71t-33 -54q43 -158 125 -485l96 -369q2 -6 2 -22q0 -18 -7 -31.5t-21 -13.5q-41 -1 -51 40l-25 91q-57 190 -84 321q-16 72 -41 199 q-29 147 -53 239l-21 -12l-26 -12l4 -789v-30q0 -41 -37 -41q-16 0 -26.5 10t-10.5 24zM178 1669q0 6 58 53l65 53l56 43q70 53 75 60q45 0 45 -31l-6 -33q-106 -49 -256 -174q-14 0 -25.5 8t-11.5 21zM197 913q16 0 55 39t55 66q14 29 24.5 86t10.5 102q0 84 -29 172 q-14 51 -42.5 83t-63.5 32h-4q-2 -2 -6 -2v-578z" />
<glyph unicode="&#x155;" horiz-adv-x="593" d="M150 1288q0 23 3 37t13 27q8 14 29 14q104 0 167.5 -51t63.5 -148v-149q0 -39 -25.5 -104.5t-56.5 -120.5l-27 -52q23 -104 89.5 -375.5t72.5 -287.5q2 -2 5 -10.5t14 -24.5q14 -29 14 -49q0 -29 -23 -29l-28 10q-25 27 -53.5 141.5t-53.5 258.5q-16 117 -47 231 q-25 102 -47 103h-6q-45 0 -45 -29q0 -147 16 -449q8 -184 19 -215l-17 -34h-28l-17 16q-33 946 -32 1290zM209 1260q0 -137 4 -248q2 -111 2 -248l4 -4q39 0 69.5 39t49.5 100q33 125 33 199q0 47 -5.5 77.5t-17.5 65.5q-25 72 -117 72q-10 0 -16 -17.5t-6 -35.5zM211 1430 q0 6 58 53l65 53l56 43q70 53 75 60q45 0 45 -31l-6 -33q-106 -49 -256 -174q-14 0 -25.5 8t-11.5 21z" />
<glyph unicode="&#x156;" horiz-adv-x="579" d="M129 20v31l4 414l4 199q8 358 8 610v264q0 18 37 18q53 0 99.5 -28.5t72.5 -77.5q55 -100 56 -219q0 -94 -41 -205q-12 -31 -31 -71t-33 -54q43 -158 125 -485l96 -369q2 -6 2 -22q0 -18 -7 -31.5t-21 -13.5q-41 -1 -51 40l-25 91q-57 190 -84 321q-16 72 -41 199 q-29 147 -53 239l-21 -12l-26 -12l4 -789v-30q0 -41 -37 -41q-16 0 -26.5 10t-10.5 24zM192 -424l4 18q12 8 58 54q37 43 43 61q6 14 6 35q-27 16 -43.5 41t-16.5 49q0 27 24 45.5t54 18.5q45 0 68 -60l-4 -6q4 -4 4 -25q0 -35 -25.5 -94t-64.5 -104q-37 -45 -74 -49z M197 913q16 0 55 39t55 66q14 29 24.5 86t10.5 102q0 84 -29 172q-14 51 -42.5 83t-63.5 32h-4q-2 -2 -6 -2v-578z" />
<glyph unicode="&#x157;" horiz-adv-x="593" d="M150 1288q0 23 3 37t13 27q8 14 29 14q104 0 167.5 -51t63.5 -148v-149q0 -39 -25.5 -104.5t-56.5 -120.5l-27 -52q23 -104 89.5 -375.5t72.5 -287.5q2 -2 5 -10.5t14 -24.5q14 -29 14 -49q0 -29 -23 -29l-28 10q-25 27 -53.5 141.5t-53.5 258.5q-16 117 -47 231 q-25 102 -47 103h-6q-45 0 -45 -29q0 -147 16 -449q8 -184 19 -215l-17 -34h-28l-17 16q-33 946 -32 1290zM198 -424l4 18q12 8 58 54q37 43 43 61q6 14 6 35q-27 16 -43.5 41t-16.5 49q0 27 24 45.5t54 18.5q45 0 68 -60l-4 -6q4 -4 4 -25q0 -35 -25.5 -94t-64.5 -104 q-37 -45 -74 -49zM209 1260q0 -137 4 -248q2 -111 2 -248l4 -4q39 0 69.5 39t49.5 100q33 125 33 199q0 47 -5.5 77.5t-17.5 65.5q-25 72 -117 72q-10 0 -16 -17.5t-6 -35.5z" />
<glyph unicode="&#x158;" horiz-adv-x="579" d="M78 1951l39 27l35 -47q0 -16 16 -70q20 -57 39.5 -114.5t30.5 -81.5q47 178 57 307l29 16q37 -6 37 -24q0 -2 -9 -23l2 -10l-16 -31l2 -12l-22 -74q-37 -98 -37 -166q0 -43 -31 -43q-18 0 -59 72t-76 158t-37 116zM129 20v31l4 414l4 199q8 358 8 610v264q0 18 37 18 q53 0 99.5 -28.5t72.5 -77.5q55 -100 56 -219q0 -94 -41 -205q-12 -31 -31 -71t-33 -54q43 -158 125 -485l96 -369q2 -6 2 -22q0 -18 -7 -31.5t-21 -13.5q-41 -1 -51 40l-25 91q-57 190 -84 321q-16 72 -41 199q-29 147 -53 239l-21 -12l-26 -12l4 -789v-30q0 -41 -37 -41 q-16 0 -26.5 10t-10.5 24zM197 913q16 0 55 39t55 66q14 29 24.5 86t10.5 102q0 84 -29 172q-14 51 -42.5 83t-63.5 32h-4q-2 -2 -6 -2v-578z" />
<glyph unicode="&#x159;" horiz-adv-x="593" d="M76 1732l39 27l35 -47q0 -16 16 -70q20 -57 39.5 -114.5t30.5 -81.5q47 178 57 307l29 16q37 -6 37 -24q0 -2 -9 -23l2 -10l-16 -31l2 -12l-22 -74q-37 -98 -37 -166q0 -43 -31 -43q-18 0 -59 72t-76 158t-37 116zM150 1288q0 23 3 37t13 27q8 14 29 14q104 0 167.5 -51 t63.5 -148v-149q0 -39 -25.5 -104.5t-56.5 -120.5l-27 -52q23 -104 89.5 -375.5t72.5 -287.5q2 -2 5 -10.5t14 -24.5q14 -29 14 -49q0 -29 -23 -29l-28 10q-25 27 -53.5 141.5t-53.5 258.5q-16 117 -47 231q-25 102 -47 103h-6q-45 0 -45 -29q0 -147 16 -449q8 -184 19 -215 l-17 -34h-28l-17 16q-33 946 -32 1290zM209 1260q0 -137 4 -248q2 -111 2 -248l4 -4q39 0 69.5 39t49.5 100q33 125 33 199q0 47 -5.5 77.5t-17.5 65.5q-25 72 -117 72q-10 0 -16 -17.5t-6 -35.5z" />
<glyph unicode="&#x15a;" horiz-adv-x="620" d="M100 6q0 25 23 25t57 -15q33 -16 56 -16q45 0 82.5 37t58.5 96q41 117 41 207q0 100 -29 202.5t-76 192.5q-10 23 -34 68q-51 102 -78 159.5t-47 127.5q-29 92 -29 198q0 68 21.5 130.5t68.5 107.5q51 47 115 47q25 0 59.5 -19.5t34.5 -37.5q0 -16 -12 -17q-12 0 -33 10 q-18 10 -35 11q-47 0 -83 -35t-52 -86q-14 -43 -14 -94q0 -80 20.5 -165t54.5 -159l72 -150l20 -43q43 -88 67 -145t40 -129q23 -96 23 -184q0 -119 -62 -242q-31 -59 -82 -96t-112 -37q-37 0 -56.5 3t-42.5 13q-25 12 -37 35zM270 1669q0 6 58 53l65 53l56 43q70 53 75 60 q45 0 45 -31l-6 -33q-106 -49 -256 -174q-14 0 -25.5 8t-11.5 21z" />
<glyph unicode="&#x15b;" horiz-adv-x="503" d="M104 25l11 16q8 0 37 -6q23 -8 36 -8q45 0 80 35.5t54 93.5q29 106 28 200q0 141 -86 303q-53 94 -81.5 149.5t-51.5 127.5q-27 84 -27 162q0 74 37 174q18 47 52 76.5t73 29.5q27 0 52.5 -18.5t25.5 -38.5q0 -16 -27 -16q-8 0 -20 6t-23 6q-31 0 -55 -24.5t-37 -63.5 q-25 -76 -24 -139q0 -39 10 -80q2 -12 4 -20.5t2 -12.5l12 -41l11 -37l16 -37q6 -14 13 -25.5t14 -21.5l24 -43q8 -12 35 -58t49 -98q20 -43 30.5 -80.5t18.5 -91.5q6 -51 6 -112q0 -98 -26 -185q-37 -102 -107 -143q-39 -25 -90 -24l-10 -5q-23 5 -43.5 18t-22.5 32z M225 1456q0 6 58 53l65 53l56 43q70 53 75 60q45 0 45 -31l-6 -33q-106 -49 -256 -174q-14 0 -25.5 8t-11.5 21zM332 1311h2q0 2 -2 2v-2z" />
<glyph unicode="&#x15c;" horiz-adv-x="620" d="M100 6q0 25 23 25t57 -15q33 -16 56 -16q45 0 82.5 37t58.5 96q41 117 41 207q0 100 -29 202.5t-76 192.5q-10 23 -34 68q-51 102 -78 159.5t-47 127.5q-29 92 -29 198q0 68 21.5 130.5t68.5 107.5q51 47 115 47q25 0 59.5 -19.5t34.5 -37.5q0 -16 -12 -17q-12 0 -33 10 q-18 10 -35 11q-47 0 -83 -35t-52 -86q-14 -43 -14 -94q0 -80 20.5 -165t54.5 -159l72 -150l20 -43q43 -88 67 -145t40 -129q23 -96 23 -184q0 -119 -62 -242q-31 -59 -82 -96t-112 -37q-37 0 -56.5 3t-42.5 13q-25 12 -37 35zM160 1618q2 31 37 117t76 157.5t59 71.5 q31 0 31 -43q0 -68 37 -166l22 -73l-2 -13l16 -30l-2 -11q2 -8 5.5 -13t3.5 -9q0 -18 -37 -25l-29 17q-10 131 -57 307q-8 -12 -70 -197q-16 -53 -16 -69l-35 -47z" />
<glyph unicode="&#x15d;" horiz-adv-x="503" d="M104 25l11 16q8 0 37 -6q23 -8 36 -8q45 0 80 35.5t54 93.5q29 106 28 200q0 141 -86 303q-53 94 -81.5 149.5t-51.5 127.5q-27 84 -27 162q0 74 37 174q18 47 52 76.5t73 29.5q27 0 52.5 -18.5t25.5 -38.5q0 -16 -27 -16q-8 0 -20 6t-23 6q-31 0 -55 -24.5t-37 -63.5 q-25 -76 -24 -139q0 -39 10 -80q2 -12 4 -20.5t2 -12.5l12 -41l11 -37l16 -37q6 -14 13 -25.5t14 -21.5l24 -43q8 -12 35 -58t49 -98q20 -43 30.5 -80.5t18.5 -91.5q6 -51 6 -112q0 -98 -26 -185q-37 -102 -107 -143q-39 -25 -90 -24l-10 -5q-23 5 -43.5 18t-22.5 32z M121 1425q2 31 37 117t76 157.5t59 71.5q31 0 31 -43q0 -68 37 -166l22 -73l-2 -13l16 -30l-2 -11q2 -8 5.5 -13t3.5 -9q0 -18 -37 -25l-29 17q-10 131 -57 307q-8 -12 -70 -197q-16 -53 -16 -69l-35 -47zM332 1311h2q0 2 -2 2v-2z" />
<glyph unicode="&#x15e;" horiz-adv-x="620" d="M100 6q0 25 23 25t57 -15q33 -16 56 -16q45 0 82.5 37t58.5 96q41 117 41 207q0 100 -29 202.5t-76 192.5q-10 23 -34 68q-51 102 -78 159.5t-47 127.5q-29 92 -29 198q0 68 21.5 130.5t68.5 107.5q51 47 115 47q25 0 59.5 -19.5t34.5 -37.5q0 -16 -12 -17q-12 0 -33 10 q-18 10 -35 11q-47 0 -83 -35t-52 -86q-14 -43 -14 -94q0 -80 20.5 -165t54.5 -159l72 -150l20 -43q43 -88 67 -145t40 -129q23 -96 23 -184q0 -119 -62 -242q-31 -59 -82 -96t-112 -37q-37 0 -56.5 3t-42.5 13q-25 12 -37 35zM188 -424q0 20 23 20q8 0 33 -10t32 -10 q35 0 57.5 42t22.5 99q0 68 -30 92l-27 -4l-29 -4q-31 0 -55 41q16 43 16 119v22l60 9q-8 -61 -8 -105q150 -8 149 -205q0 -33 -21.5 -70.5t-58.5 -64.5t-76 -27q-32 0 -60 15.5t-28 40.5z" />
<glyph unicode="&#x15f;" horiz-adv-x="503" d="M104 25l11 16q8 0 37 -6q23 -8 36 -8q45 0 80 35.5t54 93.5q29 106 28 200q0 141 -86 303q-53 94 -81.5 149.5t-51.5 127.5q-27 84 -27 162q0 74 37 174q18 47 52 76.5t73 29.5q27 0 52.5 -18.5t25.5 -38.5q0 -16 -27 -16q-8 0 -20 6t-23 6q-31 0 -55 -24.5t-37 -63.5 q-25 -76 -24 -139q0 -39 10 -80q2 -12 4 -20.5t2 -12.5l12 -41l11 -37l16 -37q6 -14 13 -25.5t14 -21.5l24 -43q8 -12 35 -58t49 -98q20 -43 30.5 -80.5t18.5 -91.5q6 -51 6 -112q0 -98 -26 -185q-37 -102 -107 -143q-39 -25 -90 -24l-10 -5q-23 5 -43.5 18t-22.5 32z M131 -393q0 20 23 20q8 0 33 -10t32 -10q35 0 57.5 42t22.5 99q0 68 -30 92l-27 -4l-29 -4q-31 0 -55 41q16 43 16 119v22l60 9q-8 -61 -8 -105q150 -8 149 -205q0 -33 -21.5 -70.5t-58.5 -64.5t-76 -27q-32 0 -60 15.5t-28 40.5zM332 1311h2q0 2 -2 2v-2z" />
<glyph unicode="&#x160;" horiz-adv-x="620" d="M100 6q0 25 23 25t57 -15q33 -16 56 -16q45 0 82.5 37t58.5 96q41 117 41 207q0 100 -29 202.5t-76 192.5q-10 23 -34 68q-51 102 -78 159.5t-47 127.5q-29 92 -29 198q0 68 21.5 130.5t68.5 107.5q51 47 115 47q25 0 59.5 -19.5t34.5 -37.5q0 -16 -12 -17q-12 0 -33 10 q-18 10 -35 11q-47 0 -83 -35t-52 -86q-14 -43 -14 -94q0 -80 20.5 -165t54.5 -159l72 -150l20 -43q43 -88 67 -145t40 -129q23 -96 23 -184q0 -119 -62 -242q-31 -59 -82 -96t-112 -37q-37 0 -56.5 3t-42.5 13q-25 12 -37 35zM170 1951l39 27l35 -47q0 -16 16 -70 q20 -57 39.5 -114.5t30.5 -81.5q47 178 57 307l29 16q37 -6 37 -24q0 -2 -9 -23l2 -10l-16 -31l2 -12l-22 -74q-37 -98 -37 -166q0 -43 -31 -43q-18 0 -59 72t-76 158t-37 116z" />
<glyph unicode="&#x161;" horiz-adv-x="503" d="M90 1759l39 27l35 -47q0 -16 16 -70q20 -57 39.5 -114.5t30.5 -81.5q47 178 57 307l29 16q37 -6 37 -24q0 -2 -9 -23l2 -10l-16 -31l2 -12l-22 -74q-37 -98 -37 -166q0 -43 -31 -43q-18 0 -59 72t-76 158t-37 116zM104 25l11 16q8 0 37 -6q23 -8 36 -8q45 0 80 35.5 t54 93.5q29 106 28 200q0 141 -86 303q-53 94 -81.5 149.5t-51.5 127.5q-27 84 -27 162q0 74 37 174q18 47 52 76.5t73 29.5q27 0 52.5 -18.5t25.5 -38.5q0 -16 -27 -16q-8 0 -20 6t-23 6q-31 0 -55 -24.5t-37 -63.5q-25 -76 -24 -139q0 -39 10 -80q2 -12 4 -20.5t2 -12.5 l12 -41l11 -37l16 -37q6 -14 13 -25.5t14 -21.5l24 -43q8 -12 35 -58t49 -98q20 -43 30.5 -80.5t18.5 -91.5q6 -51 6 -112q0 -98 -26 -185q-37 -102 -107 -143q-39 -25 -90 -24l-10 -5q-23 5 -43.5 18t-22.5 32zM332 1311h2q0 2 -2 2v-2z" />
<glyph unicode="&#x162;" horiz-adv-x="653" d="M10 1505q0 16 6.5 22.5t32.5 10.5q29 6 82 6h205l225 2q25 0 34 -8t9 -27q0 -31 -39 -30h-92h-90l-18 -2l2 -119v-160v-831v-170l2 -152v-4q0 -16 -2 -27.5t-9 -17.5q-6 -10 -20 -10q-21 0 -31 15t-10 38v182v183l-4 327q-6 219 -6 328l2 59v133q0 221 -4 222h-232 q-16 0 -29.5 8t-13.5 22zM256 -393q0 20 23 20q8 0 33 -10t32 -10q35 0 57.5 42t22.5 99q0 68 -30 92l-27 -4l-29 -4q-31 0 -55 41q16 43 16 119v22l60 9q-8 -61 -8 -105q150 -8 149 -205q0 -33 -21.5 -70.5t-58.5 -64.5t-76 -27q-32 0 -60 15.5t-28 40.5z" />
<glyph unicode="&#x163;" horiz-adv-x="608" d="M20 1337q10 23 39 23q61 0 179 -8q106 -10 178 -11h43l43 2q37 0 37 -26q0 -12 -13.5 -19.5t-31.5 -7.5q-41 0 -86 4l-89 4q-8 0 -8 -6q-2 -6 -2 -39q0 -199 25 -602q23 -418 22 -600q0 -14 -17 -26.5t-34 -12.5l-22 17l-2 75q-2 33 -2 74q0 20 2 35l2 37q0 20 -9 49 q0 137 -20 510q-20 360 -23 489q-127 0 -170 7q-41 10 -41 32zM233 -393q0 20 23 20q8 0 33 -10t32 -10q35 0 57.5 42t22.5 99q0 68 -30 92l-27 -4l-29 -4q-31 0 -55 41q16 43 16 119v22l60 9q-8 -61 -8 -105q150 -8 149 -205q0 -33 -21.5 -70.5t-58.5 -64.5t-76 -27 q-32 0 -60 15.5t-28 40.5z" />
<glyph unicode="&#x164;" horiz-adv-x="653" d="M10 1505q0 16 6.5 22.5t32.5 10.5q29 6 82 6h205l225 2q25 0 34 -8t9 -27q0 -31 -39 -30h-92h-90l-18 -2l2 -119v-160v-831v-170l2 -152v-4q0 -16 -2 -27.5t-9 -17.5q-6 -10 -20 -10q-21 0 -31 15t-10 38v182v183l-4 327q-6 219 -6 328l2 59v133q0 221 -4 222h-232 q-16 0 -29.5 8t-13.5 22zM186 1951l39 27l35 -47q0 -16 16 -70q20 -57 39.5 -114.5t30.5 -81.5q47 178 57 307l29 16q37 -6 37 -24q0 -2 -9 -23l2 -10l-16 -31l2 -12l-22 -74q-37 -98 -37 -166q0 -43 -31 -43q-18 0 -59 72t-76 158t-37 116z" />
<glyph unicode="&#x165;" horiz-adv-x="608" d="M20 1337q10 23 39 23q61 0 179 -8q106 -10 178 -11h43l43 2q37 0 37 -26q0 -12 -13.5 -19.5t-31.5 -7.5q-41 0 -86 4l-89 4q-8 0 -8 -6q-2 -6 -2 -39q0 -199 25 -602q23 -418 22 -600q0 -14 -17 -26.5t-34 -12.5l-22 17l-2 75q-2 33 -2 74q0 20 2 35l2 37q0 20 -9 49 q0 137 -20 510q-20 360 -23 489q-127 0 -170 7q-41 10 -41 32zM84 1732l39 27l35 -47q0 -16 16 -70q20 -57 39.5 -114.5t30.5 -81.5q47 178 57 307l29 16q37 -6 37 -24q0 -2 -9 -23l2 -10l-16 -31l2 -12l-22 -74q-37 -98 -37 -166q0 -43 -31 -43q-18 0 -59 72t-76 158 t-37 116z" />
<glyph unicode="&#x166;" horiz-adv-x="720" d="M131 1487q0 20 131 39.5t221 19.5q16 0 29.5 -10t13.5 -25q0 -31 -39 -30l-38 4l-37 2q-37 0 -43 -21q14 -121 14 -266v-125q-2 -53 -2 -123q0 -109 4 -198q80 8 139 8q10 0 20.5 -7t10.5 -16q0 -18 -164 -41q6 -51 19 -94q-6 -31 -7 -59l5 -240q6 -160 6 -237 q0 -80 -35 -80q-21 0 -32 26.5t-11 55.5l4 106l4 57l4 56l4 117q0 96 -12 286q-68 -6 -123 -6q-16 0 -29.5 8t-13.5 21q0 20 162 35q-12 195 -12 311v59q2 33 2 133q0 211 -35 211q-23 0 -60 -6t-57 -6q-16 0 -29.5 10.5t-13.5 24.5z" />
<glyph unicode="&#x167;" horiz-adv-x="720" d="M139 1337q10 23 39 23q57 0 139 -8q76 -10 140 -11h18q8 2 19 2q37 0 36 -26q0 -12 -14 -22.5t-31 -10.5q-16 0 -57 6q-33 8 -53 8l-10 -12l4 -8q-4 -4 -4 -25q0 -176 24 -489q106 10 141 10q16 0 30.5 -10t14.5 -25q0 -23 -180 -47q37 -438 37 -641q0 -14 -11 -26.5 t-28 -12.5l-22 17l-2 75q-2 33 -2 74q0 20 2 35l2 37q0 20 -9 49q0 145 -16 387q-70 -6 -123 -6q-16 0 -29.5 10t-13.5 25q0 23 162 43q-31 393 -31 540q-164 0 -172 39z" />
<glyph unicode="&#x168;" horiz-adv-x="761" d="M104 1643q0 63 35 102t86 39t86 -41q16 -31 51 -55.5t66 -24.5q53 0 53 74l-4 20l-8 19q6 12 20 12q23 0 35 -20.5t12 -49.5q0 -43 -32.5 -75.5t-75.5 -32.5q-33 0 -70 20.5t-59 42.5q-16 14 -54 58l-14 6q-31 0 -53.5 -16.5t-22.5 -38.5l11 -43l-23 -31q-12 0 -25.5 11 t-13.5 24zM111 1448v14v17q0 53 30 53q43 0 43 -49v-15l-2 -16q0 -238 14.5 -562.5t28.5 -467.5q10 -90 35 -184q16 -63 35.5 -106.5t50.5 -72.5q37 -33 72 -32q35 0 62.5 16t41.5 43q14 23 23.5 58.5t11.5 68.5q2 20 2 68v233q0 156 -8 383l-8 262l-4 174q-6 115 -7 174 q0 23 12.5 35t28.5 12t27.5 -12t11.5 -35v-155q0 -102 2 -185v-184q0 -199 4 -348q2 -152 3 -340q0 -51 -4.5 -90t-16.5 -82q-12 -49 -33.5 -83t-56.5 -56q-39 -23 -86 -23t-88 20.5t-68 53.5q-27 31 -47 76t-33 90q-20 70 -30 174l-4 63q0 20 -1 26.5t-1 8.5 q-10 100 -25.5 442t-15.5 533z" />
<glyph unicode="&#x169;" horiz-adv-x="749" d="M108 1434q0 63 35 102t86 39t86 -41q16 -31 51 -55.5t66 -24.5q53 0 53 74l-4 20l-8 19q6 12 20 12q23 0 35 -20.5t12 -49.5q0 -43 -32.5 -75.5t-75.5 -32.5q-33 0 -70 20.5t-59 42.5q-16 14 -54 58l-14 6q-31 0 -53.5 -16.5t-22.5 -38.5l11 -43l-23 -31q-12 0 -25.5 11 t-13.5 24zM145 1319l13 29q47 -6 47 -113l6 -543q0 -57 10 -217q12 -143 12 -217q0 -233 154 -233q94 0 121 430l2 41q14 563 14 833l-2 19q-2 8 -2 18q0 23 35 23q25 0 31 -13q4 -20 4 -71q0 -156 -12 -209l2 -13q0 -27 -7 -82l-4 -81v-21q2 -8 2 -20q-4 -49 -4 -95 q-2 -14 -2 -45q-4 -195 -8 -338q-6 -178 -49 -301q-45 -131 -146 -131q-32 0 -70 21.5t-63 50.5q-29 37 -45 207t-20 389q0 49 -2 74q-4 514 -17 608z" />
<glyph unicode="&#x16a;" horiz-adv-x="761" d="M111 1448v14v17q0 53 30 53q43 0 43 -49v-15l-2 -16q0 -238 14.5 -562.5t28.5 -467.5q10 -90 35 -184q16 -63 35.5 -106.5t50.5 -72.5q37 -33 72 -32q35 0 62.5 16t41.5 43q14 23 23.5 58.5t11.5 68.5q2 20 2 68v233q0 156 -8 383l-8 262l-4 174q-6 115 -7 174 q0 23 12.5 35t28.5 12t27.5 -12t11.5 -35v-155q0 -102 2 -185v-184q0 -199 4 -348q2 -152 3 -340q0 -51 -4.5 -90t-16.5 -82q-12 -49 -33.5 -83t-56.5 -56q-39 -23 -86 -23t-88 20.5t-68 53.5q-27 31 -47 76t-33 90q-20 70 -30 174l-4 63q0 20 -1 26.5t-1 8.5 q-10 100 -25.5 442t-15.5 533zM125 1708q0 16 131 16h114q72 0 105 -4q25 -2 35 -9t10 -20q-4 -16 -131 -16h-117h-39q-51 0 -65 4q-31 4 -39 14q-4 8 -4 15z" />
<glyph unicode="&#x16b;" horiz-adv-x="749" d="M129 1477q0 16 131 16h115q72 0 104 -4q25 -2 35 -9t10 -20q-4 -16 -131 -16h-117h-39q-51 0 -65 4q-31 4 -39 14q-4 8 -4 15zM145 1319l13 29q47 -6 47 -113l6 -543q0 -57 10 -217q12 -143 12 -217q0 -233 154 -233q94 0 121 430l2 41q14 563 14 833l-2 19q-2 8 -2 18 q0 23 35 23q25 0 31 -13q4 -20 4 -71q0 -156 -12 -209l2 -13q0 -27 -7 -82l-4 -81v-21q2 -8 2 -20q-4 -49 -4 -95q-2 -14 -2 -45q-4 -195 -8 -338q-6 -178 -49 -301q-45 -131 -146 -131q-32 0 -70 21.5t-63 50.5q-29 37 -45 207t-20 389q0 49 -2 74q-4 514 -17 608z" />
<glyph unicode="&#x16c;" horiz-adv-x="761" d="M111 1448v14v17q0 53 30 53q43 0 43 -49v-15l-2 -16q0 -238 14.5 -562.5t28.5 -467.5q10 -90 35 -184q16 -63 35.5 -106.5t50.5 -72.5q37 -33 72 -32q35 0 62.5 16t41.5 43q14 23 23.5 58.5t11.5 68.5q2 20 2 68v233q0 156 -8 383l-8 262l-4 174q-6 115 -7 174 q0 23 12.5 35t28.5 12t27.5 -12t11.5 -35v-155q0 -102 2 -185v-184q0 -199 4 -348q2 -152 3 -340q0 -51 -4.5 -90t-16.5 -82q-12 -49 -33.5 -83t-56.5 -56q-39 -23 -86 -23t-88 20.5t-68 53.5q-27 31 -47 76t-33 90q-20 70 -30 174l-4 63q0 20 -1 26.5t-1 8.5 q-10 100 -25.5 442t-15.5 533zM168 1831l23 19q14 -4 20 -33q16 -106 52 -131l22 -16h51q25 0 47.5 35.5t22.5 68.5v14q-2 6 -2 15q0 39 37 39q10 0 20 -9.5t10 -19.5l-4 -18l-6 -15l4 -14q-2 -6 -6 -15.5t-8 -19.5q-20 -45 -35 -63q-10 -16 -21.5 -24.5t-31.5 -14.5 q-23 -6 -45 -7q-82 0 -119 70q-31 66 -31 139z" />
<glyph unicode="&#x16d;" horiz-adv-x="749" d="M145 1319l13 29q47 -6 47 -113l6 -543q0 -57 10 -217q12 -143 12 -217q0 -233 154 -233q94 0 121 430l2 41q14 563 14 833l-2 19q-2 8 -2 18q0 23 35 23q25 0 31 -13q4 -20 4 -71q0 -156 -12 -209l2 -13q0 -27 -7 -82l-4 -81v-21q2 -8 2 -20q-4 -49 -4 -95q-2 -14 -2 -45 q-4 -195 -8 -338q-6 -178 -49 -301q-45 -131 -146 -131q-32 0 -70 21.5t-63 50.5q-29 37 -45 207t-20 389q0 49 -2 74q-4 514 -17 608zM172 1613l23 19q14 -4 20 -33q16 -106 52 -131l22 -16h51q25 0 47.5 35.5t22.5 68.5v14q-2 6 -2 15q0 39 37 39q10 0 20 -9.5t10 -19.5 l-4 -18l-6 -15l4 -14q-2 -6 -6 -15.5t-8 -19.5q-20 -45 -35 -63q-10 -16 -21.5 -24.5t-31.5 -14.5q-23 -6 -45 -7q-82 0 -119 70q-31 66 -31 139z" />
<glyph unicode="&#x16e;" horiz-adv-x="761" d="M111 1448v14v17q0 53 30 53q43 0 43 -49v-15l-2 -16q0 -238 14.5 -562.5t28.5 -467.5q10 -90 35 -184q16 -63 35.5 -106.5t50.5 -72.5q37 -33 72 -32q35 0 62.5 16t41.5 43q14 23 23.5 58.5t11.5 68.5q2 20 2 68v233q0 156 -8 383l-8 262l-4 174q-6 115 -7 174 q0 23 12.5 35t28.5 12t27.5 -12t11.5 -35v-155q0 -102 2 -185v-184q0 -199 4 -348q2 -152 3 -340q0 -51 -4.5 -90t-16.5 -82q-12 -49 -33.5 -83t-56.5 -56q-39 -23 -86 -23t-88 20.5t-68 53.5q-27 31 -47 76t-33 90q-20 70 -30 174l-4 63q0 20 -1 26.5t-1 8.5 q-10 100 -25.5 442t-15.5 533zM204 1714q0 47 37 87t82 40q39 0 76 -39t37 -79q0 -55 -36 -86t-95 -31q-39 0 -70 33.5t-31 74.5zM251 1725q0 -41 17 -64q10 -16 29 -16q26 0 56 17t30 40q0 41 -15.5 70.5t-44.5 29.5q-25 0 -48.5 -25.5t-23.5 -51.5z" />
<glyph unicode="&#x16f;" horiz-adv-x="749" d="M145 1319l13 29q47 -6 47 -113l6 -543q0 -57 10 -217q12 -143 12 -217q0 -233 154 -233q94 0 121 430l2 41q14 563 14 833l-2 19q-2 8 -2 18q0 23 35 23q25 0 31 -13q4 -20 4 -71q0 -156 -12 -209l2 -13q0 -27 -7 -82l-4 -81v-21q2 -8 2 -20q-4 -49 -4 -95q-2 -14 -2 -45 q-4 -195 -8 -338q-6 -178 -49 -301q-45 -131 -146 -131q-32 0 -70 21.5t-63 50.5q-29 37 -45 207t-20 389q0 49 -2 74q-4 514 -17 608zM209 1489q0 47 37 87t82 40q39 0 76 -39t37 -79q0 -55 -36 -86t-95 -31q-39 0 -70 33.5t-31 74.5zM256 1500q0 -41 17 -64q10 -16 29 -16 q26 0 56 17t30 40q0 41 -15.5 70.5t-44.5 29.5q-25 0 -48.5 -25.5t-23.5 -51.5z" />
<glyph unicode="&#x170;" horiz-adv-x="761" d="M111 1448v14v17q0 53 30 53q43 0 43 -49v-15l-2 -16q0 -238 14.5 -562.5t28.5 -467.5q10 -90 35 -184q16 -63 35.5 -106.5t50.5 -72.5q37 -33 72 -32q35 0 62.5 16t41.5 43q14 23 23.5 58.5t11.5 68.5q2 20 2 68v233q0 156 -8 383l-8 262l-4 174q-6 115 -7 174 q0 23 12.5 35t28.5 12t27.5 -12t11.5 -35v-155q0 -102 2 -185v-184q0 -199 4 -348q2 -152 3 -340q0 -51 -4.5 -90t-16.5 -82q-12 -49 -33.5 -83t-56.5 -56q-39 -23 -86 -23t-88 20.5t-68 53.5q-27 31 -47 76t-33 90q-20 70 -30 174l-4 63q0 20 -1 26.5t-1 8.5 q-10 100 -25.5 442t-15.5 533zM127 1598q6 20 173 150t186 130q6 0 14 -10t8 -21q0 -10 -12 -20q-164 -123 -203 -150q-31 -14 -69 -47q-49 -35 -86 -45zM437 1608q0 14 94 85t157 111q106 59 115 60q10 0 23.5 -16.5t17.5 -32.5l-104 -62q-25 -6 -113 -53l-51 -35l-82 -51 q-41 -23 -47 -23q-10 1 -10 17z" />
<glyph unicode="&#x171;" horiz-adv-x="749" d="M96 1401q6 20 173 150t186 130q6 0 14 -10t8 -21q0 -10 -12 -20q-164 -123 -203 -150q-31 -14 -69 -47q-49 -35 -86 -45zM145 1319l13 29q47 -6 47 -113l6 -543q0 -57 10 -217q12 -143 12 -217q0 -233 154 -233q94 0 121 430l2 41q14 563 14 833l-2 19q-2 8 -2 18 q0 23 35 23q25 0 31 -13q4 -20 4 -71q0 -156 -12 -209l2 -13q0 -27 -7 -82l-4 -81v-21q2 -8 2 -20q-4 -49 -4 -95q-2 -14 -2 -45q-4 -195 -8 -338q-6 -178 -49 -301q-45 -131 -146 -131q-32 0 -70 21.5t-63 50.5q-29 37 -45 207t-20 389q0 49 -2 74q-4 514 -17 608z M406 1411q0 14 94 85t157 111q106 59 115 60q10 0 23.5 -16.5t17.5 -32.5l-104 -62q-25 -6 -113 -53l-51 -35l-82 -51q-41 -23 -47 -23q-10 1 -10 17z" />
<glyph unicode="&#x172;" horiz-adv-x="761" d="M111 1448v14v17q0 53 30 53q43 0 43 -49v-15l-2 -16q0 -238 14.5 -562.5t28.5 -467.5q10 -90 35 -184q16 -63 35.5 -106.5t50.5 -72.5q37 -33 72 -32q35 0 62.5 16t41.5 43q14 23 23.5 58.5t11.5 68.5q2 20 2 68v233q0 156 -8 383l-8 262l-4 174q-6 115 -7 174 q0 23 12.5 35t28.5 12t27.5 -12t11.5 -35v-155q0 -102 2 -185v-184q0 -199 4 -348q2 -152 3 -340q0 -51 -4.5 -90t-16.5 -82q-12 -49 -33.5 -83t-56.5 -56q-39 -23 -86 -23t-88 20.5t-68 53.5q-27 31 -47 76t-33 90q-20 70 -30 174l-4 63q0 20 -1 26.5t-1 8.5 q-10 100 -25.5 442t-15.5 533zM340 -287q0 47 14.5 96.5t34.5 88.5q47 82 78 108l15 17l57 -9h4l-16 -26q-49 -61 -76 -129q-18 -43 -19 -78q0 -10 -4 -47l-2 -21v-22q0 -27 22.5 -55.5t47.5 -28.5q8 0 33 10q20 10 33 10q20 0 20 -20q0 -25 -26.5 -40.5t-59.5 -15.5 q-39 0 -76 27t-58.5 65t-21.5 70z" />
<glyph unicode="&#x173;" horiz-adv-x="749" d="M145 1319l13 29q47 -6 47 -113l6 -543q0 -57 10 -217q12 -143 12 -217q0 -233 154 -233q94 0 121 430l2 41q14 563 14 833l-2 19q-2 8 -2 18q0 23 35 23q25 0 31 -13q4 -20 4 -71q0 -156 -12 -209l2 -13q0 -27 -7 -82l-4 -81v-21q2 -8 2 -20q-4 -49 -4 -95q-2 -14 -2 -45 q-4 -195 -8 -338q-6 -178 -49 -301q-45 -131 -146 -131q-32 0 -70 21.5t-63 50.5q-29 37 -45 207t-20 389q0 49 -2 74q-4 514 -17 608zM282 -281q0 47 14.5 96.5t34.5 88.5q47 82 78 108l15 17l57 -9h4l-16 -26q-49 -61 -76 -129q-18 -43 -19 -78q0 -10 -4 -47l-2 -21v-22 q0 -27 22.5 -55.5t47.5 -28.5q8 0 33 10q20 10 33 10q20 0 20 -20q0 -25 -26.5 -40.5t-59.5 -15.5q-39 0 -76 27t-58.5 65t-21.5 70z" />
<glyph unicode="&#x174;" horiz-adv-x="944" d="M70 1513q6 10 18 18.5t25 8.5q31 0 42 -10t11 -37v-18v-21v-22q63 -670 133 -1254h4q6 59 25 326l4 59q14 260 16 275q6 61 25 180l24 166l6 94q2 25 3.5 42t3.5 26l2 26q0 2 3 6t9 8q29 0 37 -14q6 -6 8 -13t2 -18l4 -18q20 -109 88 -565.5t82 -601.5l6 -4l76 829 q4 78 27 246q20 170 20 276l-2 21v18q0 27 12.5 38t40.5 11q12 0 25.5 -10t13.5 -22q0 -20 -22 -39q2 -2 2 -13q0 -12 -3 -25.5t-5 -19.5q-23 -184 -56 -542l-41 -424l-16 -162l-25 -207l-10 -104q0 -25 -7 -37.5t-30 -12.5q-33 0 -39 25q-4 12 -8 57l-2 31 q-49 315 -147 1122l-6 4l-3 -2v-2l-102 -1118v-37q0 -80 -35 -80q-39 0 -39 45v25q2 8 2 20v11l-36 248q-14 78 -19 112q-18 143 -39 320q-16 139 -57 458l-6 48q-31 231 -45 253zM279 1618q2 31 37 117t76 157.5t59 71.5q31 0 31 -43q0 -68 37 -166l22 -73l-2 -13l16 -30 l-2 -11q2 -8 5.5 -13t3.5 -9q0 -18 -37 -25l-29 17q-10 131 -57 307q-8 -12 -70 -197q-16 -53 -16 -69l-35 -47z" />
<glyph unicode="&#x175;" horiz-adv-x="839" d="M76 1311q8 16 33 16t34 -47q2 -8 7 -82v-27q2 -43 47 -405q41 -328 47 -535q8 -18 10 -55q4 -41 10 -55h2l33 215q0 29 12 98q14 109 25 213q10 125 12 217q6 147 14 197l7 51q8 78 8 76l37 16q14 0 24.5 -8t10.5 -20q0 -6 -7 -17q82 -276 111 -661l4 -76q2 -92 14 -158 q12 -53 23 -78q25 70 41 340.5t16 468.5q0 37 15 158q14 100 14 160q0 18 -8 35q0 33 41 32q16 0 21 -4t5 -20q0 -57 -10 -88l4 -13q-16 -88 -16 -192q0 -18 4 -23l-12 -41l6 -14q-6 -12 -6 -24l6 -39l-6 -9q0 -72 -16.5 -319.5t-24.5 -314.5l-13 -56q-12 -43 -12 -67 q0 -66 -6 -125q-2 -41 -16 -72q-14 -27 -31 -27q-23 0 -29 25t-6 47v19q-8 82 -23 153q-18 100 -24 155.5t-19 200.5q-18 229 -34 349q-18 152 -39 172l-13 -111q-10 -98 -10 -139q0 -86 -8 -172t-29 -219l-24 -170q-2 -4 -3 -15.5t-3 -27.5q-4 -57 -23 -152q-6 -41 -18 -65 q-8 -25 -25 -25q-29 0 -47 92q-14 82 -27 260q-6 113 -10 168t-16 131l-8 64q-16 111 -20.5 158t-8.5 137q-2 68 -6 122t-15 113q-8 51 -26 109zM279 1399q2 31 37 117t76 157.5t59 71.5q31 0 31 -43q0 -68 37 -166l22 -73l-2 -13l16 -30l-2 -11q2 -8 5.5 -13t3.5 -9 q0 -18 -37 -25l-29 17q-10 131 -57 307q-8 -12 -70 -197q-16 -53 -16 -69l-35 -47zM594 176h2l-2 2v-2z" />
<glyph unicode="&#x176;" horiz-adv-x="516" d="M49 1513q0 14 12.5 23.5t28.5 9.5l25 -16q6 -92 55 -328.5t74 -271.5q4 10 20 178q14 150 41 297q25 135 60 135q10 0 16 -1t10 -5t4 -16q0 -18 -8 -43l-8 -41l-53 -306q-10 -59 -18.5 -146t-8.5 -153q0 -18 2 -32q2 -16 2 -35l-12 -31v-16l4 -80l4 -43q6 -82 6 -123 q0 -324 -4 -414l6 -6q0 -4 2 -6v-8q0 -25 -11 -42.5t-34 -17.5q-12 0 -20 15.5t-8 34.5q0 66 6 196l4 199q0 29 -6 84q-8 49 -9 82q0 35 -12 96q-12 66 -12 94q0 25 -21 117q-6 18 -8 29.5t-4 15.5q-8 57 -27 141q-35 190 -67 301q-31 98 -31 133zM66 1618q2 31 37 117 t76 157.5t59 71.5q31 0 31 -43q0 -68 37 -166l22 -73l-2 -13l16 -30l-2 -11q2 -8 5.5 -13t3.5 -9q0 -18 -37 -25l-29 17q-10 131 -57 307q-8 -12 -70 -197q-16 -53 -16 -69l-35 -47z" />
<glyph unicode="&#x177;" horiz-adv-x="546" d="M49 1307l29 22q20 -4 59 -131q31 -90 56 -178l24 -78q37 -127 53 -131l9 37l-5 10q16 20 41 146q27 143 52 241q27 115 53 115q10 0 18 -6t8 -15q0 -31 -61 -241q-31 -100 -51 -189q-25 -104 -25 -186q10 -20 10 -35q0 -10 -6 -29q-6 -18 -6 -30q0 -10 8 -92q8 -55 9 -95 q0 -90 2 -161v-164v-8q0 -139 -43 -140q-7 0 -17 8.5t-12 14.5q18 49 18 358q0 59 -6 170l-10 146l-12 26l6 25q-12 29 -37 96.5t-49 136.5q-74 195 -96 281q-12 41 -19 76zM102 1399q2 31 37 117t76 157.5t59 71.5q31 0 31 -43q0 -68 37 -166l22 -73l-2 -13l16 -30l-2 -11 q2 -8 5.5 -13t3.5 -9q0 -18 -37 -25l-29 17q-10 131 -57 307q-8 -12 -70 -197q-16 -53 -16 -69l-35 -47z" />
<glyph unicode="&#x178;" horiz-adv-x="516" d="M39 1700q0 18 15.5 35t33.5 17q20 0 30.5 -20.5t10.5 -47.5q0 -16 -15.5 -25.5t-35.5 -9.5q-16 0 -27.5 16.5t-11.5 34.5zM49 1513q0 14 12.5 23.5t28.5 9.5l25 -16q6 -92 55 -328.5t74 -271.5q4 10 20 178q14 150 41 297q25 135 60 135q10 0 16 -1t10 -5t4 -16 q0 -18 -8 -43l-8 -41l-53 -306q-10 -59 -18.5 -146t-8.5 -153q0 -18 2 -32q2 -16 2 -35l-12 -31v-16l4 -80l4 -43q6 -82 6 -123q0 -324 -4 -414l6 -6q0 -4 2 -6v-8q0 -25 -11 -42.5t-34 -17.5q-12 0 -20 15.5t-8 34.5q0 66 6 196l4 199q0 29 -6 84q-8 49 -9 82q0 35 -12 96 q-12 66 -12 94q0 25 -21 117q-6 18 -8 29.5t-4 15.5q-8 57 -27 141q-35 190 -67 301q-31 98 -31 133zM309 1702q0 18 15.5 35t33.5 17t32 -16.5t14 -33.5q0 -47 -54 -47q-16 0 -28.5 14.5t-12.5 30.5z" />
<glyph unicode="&#x179;" horiz-adv-x="505" d="M70 8q41 72 62.5 166t37.5 234q12 123 25 180l94 680q6 41 10 71q16 111 16 160q-23 0 -67 -6l-70 -4q-92 0 -92 41l14 16q12 -4 50 -4q29 0 96 10q53 10 96 11q33 0 33 -37q-23 -49 -33 -197q-4 -72 -8 -90l-62 -465q-51 -401 -82 -579q-2 -20 -24 -74q-23 -55 -23 -82 l68 4q43 6 65 6q86 0 86 -41l-18 -18q-68 0 -121 -4l-123 -4q-16 -1 -30 26zM182 1669q0 6 58 53l65 53l56 43q70 53 75 60q45 0 45 -31l-6 -33q-106 -49 -256 -174q-14 0 -25.5 8t-11.5 21z" />
<glyph unicode="&#x17a;" horiz-adv-x="524" d="M80 27q0 25 20 106l19 70q29 98 31 114q14 45 38 168q27 127 40.5 180.5t56.5 182.5q49 162 73.5 267.5t24.5 187.5q-31 0 -96 -7q-63 -6 -97 -6q-12 0 -20 10.5t-8 22.5q0 18 74 27q74 6 153 6q14 0 24.5 -2t18.5 -8q8 -12 8 -23q0 -72 -51 -223q-49 -156 -49 -185 q-6 -33 -47 -178l-14 -49q-129 -424 -132 -625q14 -4 60 -4q25 0 43 4q18 2 43 3q59 0 59 -27t-47 -27q-33 0 -59 2l-62 4q-23 0 -45 -12q-25 -10 -28 -10q-31 0 -31 31zM276 1430q0 6 58 53l65 53l56 43q70 53 75 60q45 0 45 -31l-6 -33q-106 -49 -256 -174q-14 0 -25.5 8 t-11.5 21z" />
<glyph unicode="&#x17b;" horiz-adv-x="505" d="M70 8q41 72 62.5 166t37.5 234q12 123 25 180l94 680q6 41 10 71q16 111 16 160q-23 0 -67 -6l-70 -4q-92 0 -92 41l14 16q12 -4 50 -4q29 0 96 10q53 10 96 11q33 0 33 -37q-23 -49 -33 -197q-4 -72 -8 -90l-62 -465q-51 -401 -82 -579q-2 -20 -24 -74q-23 -55 -23 -82 l68 4q43 6 65 6q86 0 86 -41l-18 -18q-68 0 -121 -4l-123 -4q-16 -1 -30 26zM172 1696q0 20 16.5 37.5t36.5 17.5q18 0 33.5 -17t15.5 -36q0 -51 -57 -51q-19 0 -32 15.5t-13 33.5z" />
<glyph unicode="&#x17c;" horiz-adv-x="524" d="M80 27q0 25 20 106l19 70q29 98 31 114q14 45 38 168q27 127 40.5 180.5t56.5 182.5q49 162 73.5 267.5t24.5 187.5q-31 0 -96 -7q-63 -6 -97 -6q-12 0 -20 10.5t-8 22.5q0 18 74 27q74 6 153 6q14 0 24.5 -2t18.5 -8q8 -12 8 -23q0 -72 -51 -223q-49 -156 -49 -185 q-6 -33 -47 -178l-14 -49q-129 -424 -132 -625q14 -4 60 -4q25 0 43 4q18 2 43 3q59 0 59 -27t-47 -27q-33 0 -59 2l-62 4q-23 0 -45 -12q-25 -10 -28 -10q-31 0 -31 31zM263 1530q0 20 16 37.5t37 17.5q18 0 33.5 -17t15.5 -36q0 -51 -57 -51q-19 0 -32 15.5t-13 33.5z" />
<glyph unicode="&#x17d;" horiz-adv-x="505" d="M70 8q41 72 62.5 166t37.5 234q12 123 25 180l94 680q6 41 10 71q16 111 16 160q-23 0 -67 -6l-70 -4q-92 0 -92 41l14 16q12 -4 50 -4q29 0 96 10q53 10 96 11q33 0 33 -37q-23 -49 -33 -197q-4 -72 -8 -90l-62 -465q-51 -401 -82 -579q-2 -20 -24 -74q-23 -55 -23 -82 l68 4q43 6 65 6q86 0 86 -41l-18 -18q-68 0 -121 -4l-123 -4q-16 -1 -30 26zM82 1951l39 27l35 -47q0 -16 16 -70q20 -57 39.5 -114.5t30.5 -81.5q47 178 57 307l29 16q37 -6 37 -24q0 -2 -9 -23l2 -10l-16 -31l2 -12l-22 -74q-37 -98 -37 -166q0 -43 -31 -43q-18 0 -59 72 t-76 158t-37 116z" />
<glyph unicode="&#x17e;" horiz-adv-x="524" d="M80 27q0 25 20 106l19 70q29 98 31 114q14 45 38 168q27 127 40.5 180.5t56.5 182.5q49 162 73.5 267.5t24.5 187.5q-31 0 -96 -7q-63 -6 -97 -6q-12 0 -20 10.5t-8 22.5q0 18 74 27q74 6 153 6q14 0 24.5 -2t18.5 -8q8 -12 8 -23q0 -72 -51 -223q-49 -156 -49 -185 q-6 -33 -47 -178l-14 -49q-129 -424 -132 -625q14 -4 60 -4q25 0 43 4q18 2 43 3q59 0 59 -27t-47 -27q-33 0 -59 2l-62 4q-23 0 -45 -12q-25 -10 -28 -10q-31 0 -31 31zM141 1732l39 27l35 -47q0 -16 16 -70q20 -57 39.5 -114.5t30.5 -81.5q47 178 57 307l29 16 q37 -6 37 -24q0 -2 -9 -23l2 -10l-16 -31l2 -12l-22 -74q-37 -98 -37 -166q0 -43 -31 -43q-18 0 -59 72t-76 158t-37 116z" />
<glyph unicode="&#x18f;" horiz-adv-x="913" d="M127 438v62q0 170 69.5 261t206.5 91h304q2 59 2 178q0 199 -69 314.5t-194 115.5q-113 0 -253 -92q-23 0 -33 10q-8 8 0 15q100 68 169.5 100.5t133.5 32.5q98 0 174 -71t113 -191q35 -111 34 -267v-372q0 -115 -8 -224q-4 -63 -14 -109t-31 -93q-23 -55 -47.5 -91 t-65.5 -61q-49 -31 -88 -45q-41 -8 -94 -8q-164 0 -236.5 107.5t-72.5 336.5zM203 401q0 -182 57 -257.5t205 -75.5q61 0 109.5 60t76.5 157q49 170 49 290v9q0 72 5 202h-308q-25 0 -44 -2t-40 -8q-23 -6 -36 -20.5t-31 -44.5q-16 -25 -23.5 -62t-13.5 -108q-6 -63 -6 -140 z" />
<glyph unicode="&#x192;" horiz-adv-x="620" d="M4 -166q0 25 80 35q55 6 86 22q23 10 32 17.5t17 23.5q2 4 9.5 21.5t11.5 54.5q8 49 10 123q29 631 29 707v90q0 8 -33 8q-104 -4 -105 31l2 8q2 4 13 10q4 2 16 2h10h8q12 0 46 -6l45 -6q2 47 12 262q2 18 2 47q0 47 4 96q4 86 41 127q35 43 121 62q39 10 78 10h16h12 q20 0 21 -16q0 -29 -74 -41q-57 -8 -91 -25.5t-50 -48.5q-18 -31 -24.5 -70t-6.5 -106v-94q-4 -102 -4 -131v-72l31 2q106 0 106 -39q0 -6 -2 -10t-10 -8t-19 -5h-10h-8q-12 0 -45 7l-45 6l-4 -74q0 12 -23 -516l-6 -109q-4 -63 -4 -112q0 -70 -6 -117q-16 -106 -76 -145 q-31 -20 -78 -32.5t-84 -12.5q-51 -1 -51 24z" />
<glyph unicode="&#x19d;" horiz-adv-x="778" d="M-53 -428q0 23 49 49l24 19q90 94 91 313v18l-2 484l-5 356v268v195q-2 86 -2 192q0 12 -2 23v20q0 25 13.5 34t42.5 9q12 0 27.5 -12t19.5 -27l43 -200q29 -143 49 -217q43 -170 147 -557q59 -254 107 -389q12 31 12 98q0 199 4 356l4 357q0 88 2 159v158l-2 289 q10 29 43 28q16 0 17 -59q0 -27 -2 -43q0 -16 -1 -23.5t-1 -9.5v-131q0 -272 -2 -485q-2 -215 -2 -484q0 -51 -7 -161l-4 -162q0 -59 -53 -60q-14 0 -26.5 14.5t-16.5 33.5l-6 38q-6 25 -6 31q-229 821 -252 922q-18 74 -84 409q-2 -12 -2 -84v-741l4 -293q2 -129 2 -346 q-6 -53 -6 -92q0 -102 -48 -189.5t-126 -146.5q-43 0 -43 39z" />
<glyph unicode="&#x1a0;" horiz-adv-x="753" d="M125 942v82q0 172 20 299q12 80 34 131t59 82q35 35 90 35q49 0 90 -19.5t67 -50.5q23 -29 41.5 -76t28.5 -90l16 -96q49 -350 50 -621v-6q0 -102 -5 -188q-4 -102 -22 -215q-8 -55 -23.5 -96t-40.5 -82q-43 -74 -120 -74q-285 0 -285 985zM186 831q0 -137 27 -348 q16 -133 41 -231t65 -166q41 -72 95 -72q32 0 59 38t41 106q33 143 41 280q4 111 4 215v9l-2 204q-4 111 -25 287q-16 125 -67 256q-20 51 -54 80t-73 29q-35 0 -61.5 -33t-43.5 -92q-37 -137 -40 -254q-6 -100 -7 -207v-101zM444 1493v43q20 -12 47 -12t43 18.5t16 46.5 q0 18 -8 44t-8 34q0 37 37 37q57 0 57 -84q0 -66 -36.5 -104.5t-81.5 -38.5q-46 0 -66 16z" />
<glyph unicode="&#x1a1;" horiz-adv-x="708" d="M121 715v71q0 571 147 572q10 0 29 -6q66 -23 129 -29q39 -8 78 -80q43 -74 64.5 -194.5t21.5 -247.5l-4 -10q0 -68 2 -121l2 -123q0 -104 -8 -189q-12 -127 -41 -219q-18 -55 -42 -92t-59 -61q-33 -25 -80 -25q-239 0 -239 754zM184 717q0 -45 2 -80l2 -82 q0 -96 17 -221q12 -92 28.5 -155.5t47.5 -108.5q31 -49 71 -50q80 0 119 113q39 115 47 234q8 123 8 196q0 82 -12 242q-10 178 -10 242l-8 16l4 10q0 90 -50.5 155.5t-121.5 65.5q-94 0 -113 -90q-4 -31 -8 -88q0 -152 -12 -207q0 -31 -7 -96zM494 1177v43q20 -12 47 -12 t43 18.5t16 46.5q0 18 -8 44t-8 34q0 37 37 37q57 0 57 -84q0 -66 -36.5 -104.5t-81.5 -38.5q-46 0 -66 16z" />
</font>
</defs>
</svg>
