<?xml version="1.0" standalone="no"?>
<!DOCTYPE svg PUBLIC "-//W3C//DTD SVG 1.1//EN" "http://www.w3.org/Graphics/SVG/1.1/DTD/svg11.dtd" >
<svg xmlns="http://www.w3.org/2000/svg" xmlns:xlink="http://www.w3.org/1999/xlink" version="1.1">
<metadata></metadata>
<defs>
<font id="bosk_testregular" horiz-adv-x="937" >
<font-face units-per-em="2048" ascent="1536" descent="-512" />
<missing-glyph horiz-adv-x="409" />
<glyph horiz-adv-x="0" />
<glyph horiz-adv-x="0" />
<glyph unicode="&#xd;" horiz-adv-x="409" />
<glyph unicode=" "  horiz-adv-x="409" />
<glyph unicode="&#x09;" horiz-adv-x="409" />
<glyph unicode="&#xa0;" horiz-adv-x="409" />
<glyph unicode="!" horiz-adv-x="516" d="M43 191.5q0 5.5 4 19.5q4 12 12 21.5t20.5 19t18.5 16.5q9 1 25 4t22 4q22 4 62.5 -4.5t60.5 -5.5q24 -14 45 -8q7 -4 24 -22.5t30 -20.5q0 -12 14 -35q0 -14 -1 -41t-1 -41q-14 -7 -21 -25t-4 -36q-19 -22 -46.5 -31.5t-55.5 -3.5q-18 -2 -36 4.5t-39 18.5t-32 16 q-4 2 -10 9.5t-11.5 11t-12.5 -0.5q-6 -3 -8 -0.5t-0.5 10.5t1.5 9q-47 32 -49 72q-1 5 -6.5 19.5t-5.5 20zM121 487q-1 19 8 82q-3 17 1.5 46.5t4.5 39.5q0 34 9.5 95t11.5 86q12 80 19.5 162.5t14.5 213.5t9 166q4 23 4 105h6q17 0 29 6q43 18 106 8v-2q9 -1 33 -10t39 -6 q17 -15 55 -74q0 -9 2 -37t2.5 -42t-3 -36t-11.5 -39q3 -12 0.5 -36.5t-0.5 -36.5q3 -17 -2.5 -55.5t0.5 -55.5q0 -4 10 -4q0 -1 -1 -3t-1 -3h-5h-5t-4 -0.5t-3 -2t-0.5 -4t1 -6.5t4.5 -10q2 -17 -6 -47.5t-7 -46.5q-1 -8 0 -28.5t-1 -35.5t-9 -26q0 -28 0.5 -32.5t-4 -32 t-4.5 -31.5t-1 -12t-1.5 -12.5t-2 -10.5t-5.5 -10q-10 -20 -13 -61t-8 -56q0 -25 -2 -53t-5.5 -62t-4.5 -53q0 -4 -6 -10t-6 -11q-5 -20 -13 -26q-14 -17 -32.5 -22.5t-51.5 -5.5t-39 -1q-14 4 -25.5 12.5t-25 21.5t-20.5 19q-4 6 -14 19.5t-15 21t-9 20.5t-3 25z" />
<glyph unicode="&#x22;" horiz-adv-x="604" d="M42.5 1440q1.5 19 16.5 28q0 2 6.5 12.5t2.5 16.5q6 2 20 2q12 3 55 -2q-1 -6 6.5 -10t8.5 -8q13 -3 33 -15.5t28 -15.5q15 -7 30 -29t23 -28q-1 -10 6.5 -28.5t8.5 -23.5q4 -55 -4 -94q-13 -35 -15 -53q-5 -4 -13 -13.5t-13 -13.5q-9 -13 -26.5 -18t-35.5 0 q-34 13 -59 57q0 4 -5.5 8.5t-4.5 8.5q5 2 1.5 16t-3.5 16q1 9 13 24t11 26v10q-5 3 -18 10.5t-22 14t-15 14.5q-1 2 -4 5.5t-5 5.5t-3.5 6t0.5 7q-2 4 -10.5 13.5t-10.5 15.5q-4 16 -2.5 35zM316.5 1418.5q-0.5 10.5 0 15t1.5 12.5t4.5 13t9.5 9q1 3 7 13t3 16q4 2 20 2 q13 3 56 -2q-1 -6 6 -10t8 -8q13 -3 33.5 -15.5t28.5 -15.5q13 -6 27.5 -28t25.5 -29q-1 -10 5 -27.5t7 -24.5q6 -50 -2 -94q-10 -21 -14 -53q-5 -4 -13.5 -13.5t-13.5 -13.5q-9 -13 -27 -18t-34 0q-40 15 -60 57q0 4 -5.5 8.5t-4.5 8.5q2 4 -4 32q2 8 14.5 23.5t10.5 26.5 q2 4 2 10q-5 3 -15 8.5t-15.5 9t-13 9.5t-12.5 12q-1 2 -4 5.5t-5 5.5t-3.5 6t0.5 7q-22 28 -23 29q0 3 -0.5 13.5z" />
<glyph unicode="#" horiz-adv-x="1615" d="M41 627q4 7 17.5 24.5t17.5 28.5q12 14 32 20.5t39.5 6t40.5 -1.5q5 5 21.5 2.5t23.5 -0.5q14 3 47.5 -1.5t47.5 1.5q14 -2 47 -3t51 -4q15 22 31 73t32 73q-35 0 -53 -2q-7 0 -26 2t-29 2t-25.5 -1.5t-27.5 -6.5q-6 -1 -22 2.5t-23 1.5q-11 -10 -34 -2t-34 2 q-30 26 -43 35q-4 6 -13 22.5t-16 24.5q-14 38 -5.5 79t38.5 70q20 0 123 10q44 1 93 1t109 -0.5t93 -0.5q9 19 24.5 59t24.5 60q10 46 45 130.5t45 127.5q3 11 -6 11q4 8 4 10q2 2 2 8q4 8 6 10q16 -4 49.5 -1.5t49.5 -2.5q3 0 5 -2t4 -5.5t3 -4.5q10 -6 31 -6q2 -1 5 -3 t5 -3q-3 -3 -1 -5.5t3 -3t5 -1.5t5 -1q41 -48 58 -86q-4 -4 1.5 -24t-4.5 -21q2 -15 -8.5 -42t-11.5 -36q-2 -3 -8.5 -15t-7.5 -15.5t-4.5 -16.5t0.5 -18q-6 -8 -13.5 -23.5t-9.5 -19.5q-6 -9 -12.5 -29.5t-12.5 -28.5q7 0 53.5 0.5t71.5 4.5q1 9 10 25.5t11 21.5 q5 20 21.5 55.5t21.5 52.5q19 29 41.5 87t32.5 77q0 5 6 15.5t4 15.5q-3 7 6.5 12.5t9.5 9.5q24 5 53 9q6 -3 17 -3l2 -2q4 -3 17.5 -3.5t17.5 -2.5q3 -11 16 -18q22 -9 27 -10q2 -5 10.5 -11.5t9.5 -11.5q3 -6 11 -20.5t12 -22.5t9 -20.5t6.5 -24t0.5 -23.5q-5 -9 -13 -26 t-16 -30t-18 -23q-8 -13 -16 -40t-13 -38q-7 -6 -11 -21t-7 -20q4 -8 26.5 -6t28.5 0q12 -2 14 -2.5t14.5 2t14.5 2.5q11 -5 25 -6t31 0t26 0q5 -1 15 3.5t14 4.5q5 -6 39 -51q4 -9 20 -9q-2 -3 -2 -5t2.5 -9.5t3.5 -9.5q15 -20 21 -23q5 -7 0.5 -22.5t-0.5 -22.5 q6 -6 6 -15.5t-3 -22t-3 -19.5q-12 -15 -33.5 -21.5t-40.5 -1.5q-13 -2 -42 0.5t-42 -0.5q-45 -8 -130 -11.5t-97 -4.5q-7 0 -12.5 -3t-10 -11.5t-5.5 -11t-5 -13.5q-3 -8 -19 -43t-20 -55q33 -1 98.5 -1t98.5 -1q12 -1 23 -4.5t28 -11t22 -9.5q4 -5 11.5 -24t17.5 -25 q1 -3 12 -28.5t9 -41.5q8 -16 -4.5 -38t-10.5 -35q-8 0 -21 -7t-18 -8q-69 -4 -94 2q-11 -5 -38 -1.5t-38 1.5q-11 2 -31.5 -4t-31.5 -4q-15 0 -18.5 0.5t-19.5 -3.5l-20 -5q-13 3 -36.5 1.5t-38.5 0.5q-6 3 -8 -1.5t-3 -12t-4 -9.5q-4 -7 -19.5 -43.5t-31.5 -52.5 q4 -11 -4 -26.5t-8 -22.5t-8 -15t-9 -12q-28 -86 -51 -127q-3 -8 -9.5 -27.5t-13 -33t-16.5 -23.5q2 -9 -6.5 -20t-9.5 -16q-18 -23 -50 -27t-57 8q-4 5 -20 17.5t-18 23.5q-22 -3 -23 -1q-1 1 4 6l6 7q-2 7 -10.5 25.5t-12 29t-3.5 26.5t8 28q-7 23 14 57.5t23 42.5 q6 17 33.5 84t33.5 105q-14 5 -30 5.5t-34.5 -1t-29.5 -0.5q-39 -5 -47 -4q-10 -12 -18 -45q-16 -26 -42 -79t-36 -71q-2 -5 -11 -17t-10 -20q-4 -12 -18.5 -36.5t-18.5 -40.5q-2 -19 -21.5 -48t-23.5 -43q0 -3 -1.5 -5t-4.5 -4t-4 -3q3 -32 -41 -45q-9 2 -19 2t-22 -1 t-18 -1q-2 11 -8.5 17t-18.5 10.5t-16 7.5q-3 4 -19 20q6 15 -12.5 27t-9.5 29q-5 51 -8 61q-2 6 0 12t6.5 12t5.5 9q4 9 12 24t13.5 28t9.5 26q5 11 36 80t50 104q-86 0 -129 -4q-40 -9 -105 29q-53 56 -53 133zM705 705q19 3 40.5 3t46.5 -1.5t39 -1.5q12 10 21 32 q4 11 14 36t16 43.5t9 35.5q-6 0 -23.5 -1t-23.5 -1q-54 -8 -80 -8q-6 -17 -30 -63t-29 -74zM1546 1040q13 0 19 -6q-14 4 -19 6z" />
<glyph unicode="$" horiz-adv-x="921" d="M49 383q0 6 3 24t1 27q2 10 11.5 26.5t11.5 22.5q4 5 8.5 9.5t10.5 7.5l10 5t12 4.5t11 3.5t12.5 3t11.5 2q4 0 13 2.5t14.5 3t12.5 -1.5t11 -8q9 -4 34.5 -2.5t34.5 -7.5q11 1 14 0.5t9.5 -9.5t7.5 -10q10 0 18.5 -14t12.5 -16q9 -16 7 -39t-19 -33q-9 -16 -41 -25.5 t-37 -11.5q-2 -3 -11.5 -14.5t-14.5 -19.5t-9 -17q1 -6 -0.5 -18.5t-0.5 -23t7 -17.5q54 -37 139 -23q5 16 8 36t4 34.5t2.5 38.5t2.5 36q6 23 10.5 74.5t11.5 77.5q2 31 10.5 88.5t10.5 77.5q-9 6 -40 23.5t-44 31.5q-64 37 -94 76q-5 16 -22.5 41t-20.5 31q-3 23 -15.5 71 t-13.5 74q0 10 3 29t3 28q-4 14 4 40.5t4 41.5q21 49 23 70q11 11 14 27q12 12 14 20q21 32 95 115q6 9 20 21t18 16q14 7 19 14h2l10 10q2 0 2 2q13 9 39.5 18t34.5 13q10 8 39.5 8t38.5 16q9 38 35 95q2 5 7 20t8 22.5t9.5 18t14.5 17.5q38 11 71 -31q8 -18 9.5 -41.5 t-1 -41.5t-7 -44t-5.5 -41q-1 -9 -2 -13t5 -10t9 -8t11 -6h10q6 -13 22 -16q17 -4 29 -9q61 -48 88 -106q10 -11 14 -39.5t7 -36.5q0 -64 -39 -106q-30 -56 -92 -78q-50 4 -72 4q-4 3 -13 11t-16.5 12.5t-15.5 5.5q-12 -15 -8 -50q-4 -4 -4 -10q-5 0 -5 -4 q-11 -124 -12 -127q-5 -16 -6 -53t-10 -55q-12 -16 2 -27q6 -8 24.5 -22.5t24.5 -24.5q11 -9 23 -21.5t19.5 -20.5t21 -26t17 -22.5t19.5 -27t17 -23.5q14 -17 51 -80q6 -5 9.5 -13.5t6 -19.5t4.5 -16q3 -11 11.5 -33t13 -39.5t4.5 -34.5q8 -69 -45 -147q-10 -6 -23.5 -24 t-23.5 -24q-7 -19 -35 -37.5t-33 -23.5q-6 -3 -31.5 -16t-36.5 -18t-32 -13t-38.5 -11.5t-35.5 -4.5q-5 -5 -22 -9q0 -40 -19 -110q3 -25 -2 -115q-1 -6 -4 -10.5t-9.5 -9.5t-8.5 -7q-13 -3 -36 2.5t-34 2.5q-13 5 -22.5 16t-18.5 27t-16 24q-1 19 -1 41t0.5 49t0.5 41 q8 10 8 45q-12 3 -46 15.5t-54 13.5q-21 15 -78 47q-8 4 -19.5 17.5t-19.5 17.5q-14 23 -35 47q0 23 -12 35q-47 96 -25 180zM344.5 971q-0.5 -7 3 -23.5t4.5 -23.5q46 -46 78 -52q6 11 7 33.5t3 30.5q1 10 5.5 45.5t3.5 54.5q-2 2 -9 2q14 9 19 49q1 23 4.5 46t11.5 59.5 t10 46.5l-4 -2q-34 -25 -65 -72q-21 -15 -31 -45q-39 -47 -35 -125q-5 -17 -5.5 -24zM520.5 314q-0.5 -10 0.5 -24.5t1 -19.5q4 -4 6.5 -3.5t8.5 4.5t8 5q10 7 19 14.5t18.5 17t15.5 16t16.5 19t14.5 17.5t15.5 20t14.5 19q-5 8 -18 41t-29 45q-3 16 -22.5 36.5t-22.5 25.5 q-9 -52 -12 -109q1 -8 -2 -15.5t-8.5 -16.5t-7.5 -13q-3 -12 -6.5 -34t-4.5 -27q-5 -8 -5.5 -18zM655 1190q26 22 35 37q2 5 15.5 27t11.5 38q-26 17 -43 15q0 -18 -11 -57t-8 -60z" />
<glyph unicode="%" horiz-adv-x="1566" d="M42 1112q0 11 2 42.5t3 41.5q8 13 16.5 40.5t16.5 39.5q5 9 19 33.5t22 37.5t22.5 30t30.5 28q1 1 8.5 10.5t14.5 9.5q17 17 57.5 39.5t46.5 26.5q14 2 47 10q14 1 42.5 -4t43.5 -4q-11 -27 39 -39q10 -3 29.5 -11t29.5 -11q7 -11 30.5 -15.5t31.5 -11.5 q14 -13 42.5 -35.5t41.5 -34.5q7 -12 13 -25t10 -28.5t6.5 -26t5 -30t3.5 -27t3 -31t2 -28.5q3 -34 1 -48t-12.5 -46.5t-13.5 -45.5q-24 -49 -51 -96q-12 -8 -12 -16q-3 -19 -29 -40t-31 -28q-3 -7 -14 -17.5t-14 -15.5q-1 -1 -8 -3.5t-9 -3.5t-6.5 -4t-7 -6t-4.5 -7 q-11 3 -41 -12q-9 -5 -20.5 -7.5t-29.5 -3t-22 -0.5q-10 1 -31 1t-36.5 2.5t-28.5 11.5q-4 1 -33.5 9t-44.5 15q-11 12 -44 34t-46 40q-3 4 -18.5 15.5t-16.5 23.5q-1 7 -10.5 20t-9.5 23q-18 16 -23.5 59t-7.5 49q0 5 -4 5v6h2v10v2q0 2 -2 4q-1 32 -1 43zM225 1022 q2 -4 5 -17.5t8.5 -22t15.5 -9.5q46 -14 95 -0.5t83 47.5q19 10 19 31q5 0 8.5 2.5t8.5 10.5l5 7q44 98 53 135q-5 14 -3 29.5t-2 29.5t-19 17q-9 1 -22.5 10.5t-18.5 10.5q-34 -15 -41 -23q-13 -9 -38.5 -22.5t-33.5 -18.5q-8 -12 -44 -50t-44 -65q-15 -7 -19.5 -32 t-9.5 -31q-4 -6 9 -12q-33 -7 -15 -27zM295 100q3 14 0.5 44t1.5 44q2 8 12.5 16.5t12.5 12.5q20 30 59.5 100.5t64.5 106.5q14 20 86 137q38 49 73 101.5t87 137.5t66 107q3 5 21 30.5t24.5 36t17.5 30t17 36.5h-2q0 1 1 4.5t1 4.5h4q22 25 67 104q37 62 45 82 q11 16 70 121q11 15 14 28q2 12 21 36.5t16 43.5q1 3 15 17q62 4 94 4q-1 0 -4.5 -0.5t-6 -0.5t-5 -1t-2.5 -2.5t1 -5.5q9 6 21.5 -5t17.5 -12q7 -7 26 -22t31 -29t17 -31q5 -8 6 -18.5t-0.5 -26.5t-1.5 -22q-7 -9 -16.5 -30t-12.5 -26q-22 -27 -51 -84q-7 -4 -12 -12 t-9.5 -20.5t-6.5 -16.5q-8 -18 -28 -50t-28 -50q-5 -7 -21.5 -39.5t-33.5 -44.5q-19 -42 -27 -57q-10 -6 -17.5 -17.5t-14.5 -27.5t-11 -23q-14 -6 -21 -33t-20 -33q-19 -23 -50.5 -73.5t-49.5 -73.5q-2 -6 -14 -21t-13 -26q-9 -18 -36.5 -55t-36.5 -60q-13 -8 -28 -31.5 t-19 -27.5q-43 -70 -78 -121q-15 -20 -38.5 -60t-35.5 -57q-24 -34 -27 -47q-27 -27 -18 -53q-17 -4 -35 -30t-37 -29q-32 -8 -37 -9q-3 2 -19 7.5t-23.5 13t-8.5 20.5q-18 -4 -23 -0.5t-11.5 16.5t-12.5 17q2 2 10 2q-2 10 -9 27.5t-9 25.5zM864 365q2 12 2 49t8 57 q7 14 19.5 41t23.5 47.5t25 36.5q5 6 12 16t13.5 17.5t13.5 11.5q64 61 129 98q7 9 25 16.5t24 12.5q7 1 28 8.5t32 5.5q2 0 8 6q12 8 24 -2t15 -10q2 0 18 -6t25 -2q16 -6 38 -28t33 -29q2 -4 7 -28t14 -32q61 -23 90 -96q-4 -9 5.5 -22t10.5 -15q4 -19 13 -31q8 -8 5 -57 t-3 -57q0 -4 -1 -18.5t-1.5 -21t-4.5 -16.5t-10 -16q-3 -4 -0.5 -12.5t0.5 -12.5q-12 -16 -23.5 -55t-25.5 -55q-11 -18 -28 -36.5t-29 -28.5t-37 -29.5t-33 -26.5q-2 -13 -22 -21t-25 -14q-15 3 -29 -4q-39 -6 -118 -6q-10 6 -39.5 14t-40.5 21q-21 0 -31 2q4 12 -10 16 q-4 6 -21 10q-7 11 -35.5 35t-35.5 45q-34 24 -41 84q0 7 -5.5 25.5t-3.5 28.5q2 14 -4.5 41.5t-3.5 42.5zM1051 319q0 -50 2 -77q11 -23 39.5 -27.5t50.5 6.5q49 18 88 52.5t57 80.5q6 13 10 27t7 30.5t4.5 27.5t4 31.5t3.5 27.5q1 14 1 17.5t-8 14t-10 13.5q-4 2 -7 10.5 t-7 13.5t-10 2q-5 -3 -15.5 -7.5t-17 -9.5t-10.5 -13q-14 -6 -30 -16.5t-25.5 -18.5l-28.5 -24t-25 -21q-18 -32 -28 -39q-4 -20 -22 -53.5t-23 -47.5z" />
<glyph unicode="&#x26;" horiz-adv-x="1292" d="M53 246q-28 102 13 217q6 12 14.5 36.5t17.5 43t23 32.5q20 27 68 66.5t61 52.5q5 5 17 11.5t16 11.5q9 11 32.5 25t32.5 26q1 12 -2 24t-9.5 29t-8.5 23q-11 28 -16 60t-8 76.5t-5 63.5q7 4 7 19t1 18q9 114 78 224q21 17 41 63q24 14 35 18q17 27 65.5 57t59.5 40 q22 12 90 16q61 5 82 -10q12 -1 33.5 -1t33.5 -1q1 -3 -3 -3.5t-8.5 0t-7 -1t0.5 -7.5q40 -13 51 -33q3 -4 13.5 -9.5t13.5 -9.5q5 -8 19.5 -19.5t17.5 -14.5q5 -18 10 -21q49 -78 37 -166q7 -48 -8 -88q0 -23 -15 -60.5t-18 -49.5q-1 -2 -18 -22t-21 -34 q-2 -17 -21.5 -38.5t-23.5 -32.5q-12 -6 -24.5 -16.5t-18.5 -17t-21.5 -23t-17.5 -19.5q-17 -8 -46.5 -30t-45.5 -30q-20 -15 -25 -20q4 -31 27 -43q1 -10 6 -20t13 -21.5t11 -18.5q47 98 113 154q9 4 33 20t41 19q118 69 215 29q97 -29 129 -103q1 -5 7.5 -11.5t8.5 -10.5 t-2 -17q-3 -5 -10 -20.5t-11.5 -23.5t-13.5 -18t-20 -15q-8 -2 -23.5 -5.5t-23 -5t-23.5 -3t-24 0.5q-11 -5 -24.5 7.5t-18.5 13.5q-11 2 -29.5 19t-32.5 16q-2 -3 -9.5 -12t-11.5 -14t-9.5 -13t-8.5 -15.5t-4 -15.5q0 -15 -11.5 -42.5t-10.5 -43.5q-9 -56 -33 -105 q6 -4 1 -25.5t-5 -25.5q16 -9 27.5 -22.5t26.5 -38.5t20 -31q2 -16 20.5 -37t22.5 -30q5 -6 12.5 -23.5t11.5 -24.5q18 -63 -20 -104q-9 -6 -28 -18.5t-28 -18.5q-67 -10 -118 19q-3 15 -20.5 34.5t-20.5 24.5q-8 11 -25.5 30.5t-23.5 26.5q-54 -40 -136 -104q0 -9 -6 -11.5 t-17.5 -2.5t-15.5 -1q-12 1 -33.5 -11.5t-35.5 -8.5q-54 -18 -168 -6q-39 8 -55 18q-7 7 -29 11.5t-29 17.5q-100 41 -127 94q-5 13 -16 34.5t-18 40t-9 36.5zM288.5 322.5q1.5 -20.5 3 -33t7 -38t6.5 -32.5q21 -33 60.5 -45.5t78.5 -1.5q21 1 51.5 25t34.5 26 q2 2 11.5 10.5t12 10.5t11 10t11.5 11.5t10 11t10 13t7 12.5t6.5 14t4.5 14q-10 17 -34 47t-33 47q-5 9 -33 49t-37 64q-5 4 -10 16.5t-11 20.5t-16 6q-72 -59 -100 -86q-3 -3 -8 -14.5t-10 -14.5q1 -13 -8.5 -36.5t-10.5 -35.5q-8 -16 -12 -33t-2.5 -37.5zM516 1032 q6 -19 16 -64.5t19 -68.5q8 8 41.5 37t50.5 47q6 11 29.5 48t29.5 59q34 83 11 178q-19 65 -54 67q-76 -34 -106 -98q1 -7 -1 -13.5t-7 -15.5t-6 -12q-23 -76 -23 -164z" />
<glyph unicode="'" horiz-adv-x="329" d="M42.5 1440q1.5 19 16.5 28q0 2 6.5 12.5t2.5 16.5q6 2 20 2q12 3 55 -2q-1 -6 6.5 -10t8.5 -8q13 -3 33 -15.5t28 -15.5q15 -7 30 -29t23 -28q-1 -10 6.5 -28.5t8.5 -23.5q4 -55 -4 -94q-13 -35 -15 -53q-5 -4 -13 -13.5t-13 -13.5q-9 -13 -26.5 -18t-35.5 0 q-34 13 -59 57q0 4 -5.5 8.5t-4.5 8.5q5 2 1.5 16t-3.5 16q1 9 13 24t11 26v10q-5 3 -18 10.5t-22 14t-15 14.5q-1 2 -4 5.5t-5 5.5t-3.5 6t0.5 7q-2 4 -10.5 13.5t-10.5 15.5q-4 16 -2.5 35z" />
<glyph unicode="(" horiz-adv-x="561" d="M41 721q4 25 7 54t6 65t5 55q5 18 8 59t9 62q10 43 14 102q7 6 11 23t5 20q9 31 29 95t29 96q20 36 20 59q6 15 39 74q7 23 31 51q2 9 7 17t13 17.5t11 14.5q19 35 51 35q52 8 72 -6q46 -11 92 -43q20 -38 20 -74q-2 -15 -18 -39.5t-17 -40.5q-2 -3 -7.5 -7t-6.5 -5 q-6 -17 -26 -48.5t-25 -49.5q-6 -8 -11.5 -32t-15.5 -34q-2 -5 -12 -28.5t-14 -33.5t-8 -28.5t-3 -34.5q-11 -27 -34 -121q-5 -8 -3.5 -26t-3.5 -27q-14 -91 -14 -115q-1 0 -3 -1t-3 -1q0 -6 -3.5 -43t1.5 -43q1 -4 0 -9t-3 -10.5t-3 -8.5q2 -13 -1.5 -46.5t1.5 -46.5 q-5 -43 -2 -100q12 -37 4 -55q0 -16 7.5 -42t8.5 -34q4 -11 7 -41.5t12 -46.5q34 -164 92 -248q5 -5 20 -28t27 -31q2 -5 4.5 -16t6 -19t9.5 -14q9 -12 2 -22.5t-20 -12.5q-12 -17 -37.5 -20t-42.5 8q-4 0 -14 -1.5t-17.5 -1t-13.5 4.5q-29 16 -70 67q-9 5 -15.5 12 t-16 22.5t-9.5 16.5q-86 137 -120 248q-4 18 -16.5 63t-16.5 70q-1 17 -9.5 52t-9.5 53q-10 111 -14 133q0 9 1.5 27t1 32t-4.5 27z" />
<glyph unicode=")" horiz-adv-x="550" d="M41 1548q7 6 22 11t21 8q27 -3 66 4q17 1 32 -5.5t35.5 -22.5t26.5 -19q28 -7 41 -27q0 -13 16 -32t14 -33q5 -10 25 -37.5t25 -46.5q0 -14 12 -31t14 -25q3 -12 17 -35t16 -38q4 -16 7 -34.5t6 -41.5t5 -35q5 -4 12.5 -17t14.5 -16q-9 0 -10.5 -7t1.5 -19t3 -15 q-3 -49 8 -90q2 -2 5.5 -4.5t4.5 -3.5q-1 -13 6 -36.5t7 -35.5q1 -13 7.5 -53t4.5 -63q-6 -4 -1 -25t5 -25q-1 -5 -3.5 -14.5t-3 -14.5t0.5 -14q-33 -171 -37 -217q-1 -5 -3.5 -27.5t-10.5 -31.5q-3 -7 -11.5 -50t-25.5 -61q4 -11 -5.5 -27.5t-7.5 -25.5q-1 -3 -13.5 -28.5 t-12.5 -41.5q-5 -13 -31 -39q-14 -48 -27 -59q-20 -51 -32 -70q-10 -13 -49 -47q-14 -13 -53 -22t-54 -25q-6 1 -18 -1t-21.5 -1t-13.5 10q-43 39 -27 68q8 24 36.5 75.5t35.5 82.5q-10 10 -4 10q5 -1 7.5 0.5t5.5 7.5l3 6q4 10 11.5 30t11.5 30q4 6 10 27t14 30q3 9 8.5 31 t10.5 33q0 25 16 61q6 20 11.5 45t7.5 39t6.5 47t5.5 41q2 22 13.5 67t12.5 70q1 11 1.5 32.5t3 38.5t8.5 32q4 9 -2.5 26t-5.5 25q5 19 -1 52t-6 44q2 16 -6 48t-6 50q-1 2 -5 16t-3.5 16.5t0.5 17.5q-4 18 -27 81q-3 5 -2 16.5t-2 16.5q-21 60 -26 70q-15 34 -23 41 q-4 8 -13.5 32t-17.5 35q-6 12 -19.5 34.5t-23.5 41t-16 35.5q-32 19 -41 55z" />
<glyph unicode="*" horiz-adv-x="657" d="M41 1346q1 1 7.5 3.5t8.5 6.5q14 3 39 1t37 1q46 -4 68 -4q1 6 -3.5 14t-4.5 10q-9 11 -26 35t-26 35q-12 15 -8 37q33 11 78 14q24 6 49 -8q4 -3 14 -4.5t13 -3.5q0 -9 2 -10q8 -13 27.5 -38.5t27.5 -39.5q5 -3 9 0t7 9t5 7q5 6 17 22.5t22.5 27t23.5 16.5q0 1 -1 3 t-1 3q7 -1 28.5 -0.5t28.5 -1.5q8 -13 33 -8q3 -2 7 -8t8.5 -10t9.5 -3q7 -3 10.5 -8.5t5 -16.5t2.5 -14q2 -4 -0.5 -7.5t-7.5 -6.5t-6 -4q-9 -5 -16.5 -14t-16 -22t-12.5 -18q-11 -17 -11 -20q24 0 64 -4q2 -7 12.5 -9.5t12.5 -4.5q17 -9 28.5 -25t7.5 -33q-2 -6 -2 -20 q-17 -13 -20 -19q-10 -1 -22 0t-26 3t-22 3q-3 1 -13.5 4t-15.5 4t-13.5 2t-15 -0.5t-13.5 -4.5q4 -11 10 -13q2 -14 17 -35t18 -34q16 -36 4 -50q-5 -7 -11.5 -11.5t-14.5 -7t-13.5 -3.5t-16 -2t-14.5 -2q-5 3 -24 8.5t-25 15.5q-5 10 -20.5 26t-20.5 26q-12 23 -25 30 q-18 -12 -48 -44.5t-50 -45.5q-5 -8 -20.5 -14t-18.5 -8q-5 0 -47 6q-4 5 -14.5 9.5t-14.5 8.5q-19 13 -32 35q-4 13 14 31q7 7 20.5 18t24 21.5t16.5 21.5q-12 4 5 4q31 27 40 39q-7 2 -26 2.5t-29 3.5q-4 2 -15.5 7t-17.5 8t-13 9.5t-11 14.5q-2 1 -7.5 5t-10.5 6t-9 0 q-5 5 -6.5 12t-2.5 17.5t-1 13.5z" />
<glyph unicode="+" horiz-adv-x="962" d="M41 801q32 32 49 38q19 6 41 -1q6 1 29.5 6t32.5 6.5t29.5 5t32.5 3.5t29.5 -0.5t32 -3.5t29.5 -9q12 36 8.5 112t10.5 111q59 17 113 -10t80.5 -82t14.5 -115q20 -15 49.5 -18.5t59 0t59.5 5.5t57 -7.5t44 -34.5q106 -92 67 -158q-5 -15 -17.5 -23.5t-23 -10t-30.5 -2 t-27 -1.5q-5 0 -33.5 3.5t-36.5 4t-32.5 2t-36.5 0.5t-31.5 -2.5t-35.5 -5.5t-32 -10q-3 -35 -18 -205q-28 -29 -63.5 -24.5t-67 27t-49.5 51.5q-29 17 -34.5 44.5t1.5 66t4 57.5q-30 9 -78.5 0.5t-80 -14t-74.5 17.5q-19 14 -32 37.5t-18 42.5t-11.5 51t-10.5 45z" />
<glyph unicode="," horiz-adv-x="393" d="M41 156q7 23 26 38.5t42 18.5q38 4 57 -2q5 4 18 1t16.5 -4t16 -7t16.5 -8q52 -24 78 -80q2 -3 9.5 -12t11.5 -14t7.5 -14t2.5 -18q1 -7 4 -21.5t4.5 -23t0.5 -21t-5 -22.5q-6 -6 -6.5 -20t-1.5 -17q-6 -10 -14.5 -30.5t-17 -36t-21.5 -25.5q-15 -29 -43 -20 q-43 11 -72.5 49.5t-26.5 83.5q2 5 7.5 13.5t9 16t2.5 15.5q-14 7 -35 14q-5 8 -27 24t-24 34q-35 49 -35 88z" />
<glyph unicode="-" horiz-adv-x="749" d="M41 784q2 2 8.5 9t10 10.5t10 7t12.5 4.5q40 10 89 16.5t84.5 9t93.5 5t87 4.5q97 21 189 -23q22 -20 40.5 -43.5t32 -52t9.5 -57.5t-29 -51q-48 -2 -163.5 -4t-200.5 -7.5t-162 -19.5q-107 41 -111 192z" />
<glyph unicode="." horiz-adv-x="403" d="M42 183q0 9 2.5 15.5t7.5 15t9.5 14t12 14t10.5 12.5q5 5 17.5 8.5t17.5 7.5q52 4 74 -16q6 -10 25.5 -12t23.5 -4q6 -8 22.5 -14t22.5 -13q54 -32 67 -64q5 -4 6 -9t-0.5 -13t-1.5 -10q-1 -3 0.5 -15.5t-1 -19.5t-11.5 -6q0 -11 -3.5 -19.5t-12.5 -16.5t-13.5 -11.5 t-19 -11.5t-16.5 -9q-24 -6 -48 -6q-2 1 -24.5 8.5t-34.5 9.5q-14 7 -37.5 25.5t-32.5 24.5q-1 4 -4 5t-7.5 1.5t-6.5 1.5q-7 28 -41 90q-3 8 -3 17z" />
<glyph unicode="/" horiz-adv-x="913" d="M43 82q-2 16 5.5 31.5t21 33t18.5 27.5q5 5 0 14q9 6 15.5 15.5t13 24t8.5 18.5q74 141 113 225q41 77 105.5 228t96.5 214q32 81 58 136q9 19 -6 22q3 0 8 1t8 1q8 19 36 76t38 88q9 21 29.5 66t35 79.5t25.5 67.5h-4q2 2 2 6q7 6 11 24t7 23q5 10 7 33t7 33q3 4 12.5 6 t12.5 6l4 2q42 -33 80 -45q4 -5 16.5 -17.5t20 -23.5t10.5 -24q0 -10 14 -19q-4 -79 -53 -207q-6 -5 -7 -20.5t-7 -20.5q-10 -16 -19 -34t-20 -44t-16 -36q-15 -4 -10 -10t11.5 -10.5t0.5 -4.5q-10 2 -15.5 -5t-9.5 -18.5t-8 -15.5q1 -11 -10.5 -29.5t-10.5 -31.5 q-24 -32 -26 -54q-1 -4 -7 -10.5t-8 -9.5q-7 -13 -16.5 -44t-19.5 -46q-3 -11 -13.5 -31.5t-13.5 -28.5q-2 -9 -6.5 -18t-12 -20.5t-10.5 -16.5q-5 -14 -18 -40t-17 -40q-4 -6 -8 -22t-12 -23q-10 -23 -135 -289q0 -2 -15 -26q-1 -6 -4 -13t-6 -12t-8.5 -12.5t-7.5 -11.5 q-2 -6 1 -7.5t9 -1.5h2q1 -4 -3 -5.5t-9.5 -1t-10.5 -1t-6 -6.5q-5 -14 -22 -53q-21 -16 -29 -51q-12 -14 -28 -45.5t-19 -36.5q-15 -15 -26 -45q-22 -14 -45.5 -15t-43.5 15q-12 12 -28 12q-5 8 -14.5 25.5t-14.5 25.5q-2 14 -2.5 40t-1.5 34z" />
<glyph unicode="0" horiz-adv-x="991" d="M43 524.5q-1 34.5 1.5 61.5t8.5 53q0 30 5.5 63.5t14 73t11.5 62.5q7 37 29.5 115t29.5 120q8 5 13.5 20t9.5 19q19 54 78 162q19 48 59 94q6 18 43 55q27 38 64 52q4 0 6.5 5.5t3.5 6.5h-12q3 1 9 2t9 2h8q18 0 29 8q30 5 84.5 -3t68.5 -9q6 0 1 -3q-7 -3 -5 -5 q24 -21 50 -35q5 -5 30 -45q28 -3 62 -23q7 -1 12.5 -4t11.5 -8t9 -8.5t9.5 -11t8.5 -9.5q24 -19 57 -61q5 -24 10 -33q11 -14 16.5 -46.5t12.5 -45.5q16 -32 25 -115q9 -11 11.5 -27t1.5 -29.5t1 -29.5q-2 -19 4.5 -61t1.5 -64q-6 -16 -5 -48t-5 -48q-1 -2 -5.5 -12.5 t-4 -13t1.5 -13.5q4 -8 -9 -20t-4 -25q-1 -8 -1.5 -36t-6.5 -44q-4 -13 -10.5 -63t-22.5 -74q-2 -8 -5.5 -48.5t-18.5 -58.5q-3 -4 -20.5 -46.5t-38.5 -57.5q-4 -18 -12 -33t-26 -38t-22 -29q-2 -2 -2 -4q-5 -2 -10 -13q-8 -4 -15.5 -10t-16.5 -14.5t-13 -12.5 q-6 -7 -22 -12t-17 -6q-53 -40 -113 -43q-61 -11 -108 -8q-9 1 -39.5 7t-48.5 7q-14 9 -41 17q-40 22 -56 24q-10 9 -43 51q-10 9 -23.5 34t-23.5 34q-9 10 -16 23t-14.5 29t-12.5 24q-4 18 -10.5 37t-16 42.5t-14.5 36.5q-1 9 -5 54t-5 61.5t-2 51zM279 367q3 -12 10 -56.5 t16 -66.5q7 -7 14.5 -25.5t14.5 -25.5q11 -20 31 -30t41 -3q53 17 69 35q59 53 94 124q3 6 12 18.5t14.5 23t8.5 20.5t15.5 35.5t13.5 40.5q48 169 57 207q4 59 27 163q1 17 5 56t4 57t-5 57q0 8 -1 33.5t-1 34.5q-7 -2 -13 1q-2 1 0 2q1 1 3 1q6 0 8.5 2.5t1.5 7l-2 9 t-3.5 9.5t-2.5 7q-5 46 -41 166q-5 7 -22 21.5t-23 27.5q-23 -4 -31 2q-14 -5 -33 -25t-29 -26q-5 -17 -25 -42.5t-26 -37.5q-3 -12 -12 -21q-8 -6 -13 -23.5t-7 -21.5q-10 -17 -29.5 -58t-32.5 -62q0 -13 -9.5 -41t-6.5 -45q-8 -12 -13 -25.5t-10 -37t-6 -28.5 q-2 -8 -12.5 -42.5t-12.5 -53.5q-1 -4 -1.5 -21.5t-6.5 -25.5q-4 -8 -7.5 -28.5t-8.5 -30.5q-1 -13 -2.5 -41t-4 -49.5t-7.5 -40.5q6 -10 2 -37.5t-2 -38.5q5 -37 0 -51z" />
<glyph unicode="1" horiz-adv-x="802" d="M41 55q1 24 0 43.5t2 42.5t12 41q2 6 12 21t11 24q3 15 14 23q31 1 66 3t77 5t66 4q4 38 8.5 133t12.5 146q2 19 6.5 69.5t7 74t8 67.5t10 73.5t12 67t15.5 70.5q-8 0 -10 -2q-9 -8 -25.5 -23.5t-27 -25.5t-26 -21t-30.5 -17q-33 -16 -55 3q-53 0 -105 73 q-12 16 -18 35.5t-9.5 46.5t-6.5 39q34 14 75 55q2 2 8.5 6.5t10 9t4.5 9.5q17 13 45 45.5t47 46.5q19 25 40 57.5t33.5 52.5t38 63.5t33.5 56.5q6 14 19.5 16t33 -2.5t27.5 -3.5q8 -2 11 8q65 3 127 0q20 -4 26 -10q29 -21 39 -29q5 -13 21 -33t20 -26q4 -20 5.5 -29 t-0.5 -24.5t-11 -26.5q-1 -8 -2.5 -26t-4 -31.5t-7.5 -24.5q0 -26 -16 -80t-13 -84q-22 -17 -14 -59q0 -3 -11 -15.5t-4 -25.5q-3 -14 -11 -41t-11 -41q-1 -30 -13 -85.5t-14 -82.5q-5 -26 -13 -87.5t-16 -94.5q0 -5 1.5 -17t1 -21.5t-4.5 -17.5q0 -31 -6.5 -99t-5.5 -104 q17 -1 53 -1t54 -1q6 -2 11 -5t9.5 -6t9 -8.5t7.5 -8.5t7.5 -10t6 -10t6.5 -11t6 -10q-6 -7 -2 -14t6.5 -9t10.5 -6t10 -6q-2 -20 10 -57q-4 -49 -17 -70q3 -13 -5.5 -22.5t-14.5 -11.5t-23 -7q-5 -2 -15 0.5t-13 1.5q-12 -4 -37 -1t-37 -1q-1 0 -16.5 1.5t-20.5 1.5 t-15.5 -1.5t-17.5 -5.5q-7 -1 -52 -2t-68 -8q-64 9 -131 -4q-4 -2 -7 3t-6 1q-14 -8 -45 -9.5t-45 -9.5q-63 -9 -90 13q-4 8 -13.5 21.5t-14 25t-3.5 24.5z" />
<glyph unicode="2" horiz-adv-x="1019" d="M43.5 175.5q-3.5 32.5 1.5 37.5q-2 11 1.5 21t10.5 22t9 18q3 6 11.5 28t16.5 32q5 6 15 16t17 19.5t11 19.5q18 28 31 33q20 15 58.5 55.5t64.5 57.5q3 2 21.5 15.5t25.5 22.5q11 9 55.5 43t67.5 54q66 42 141 135q20 18 38 42.5t38 57t31 47.5q27 44 30 64 q10 9 17.5 34.5t11.5 32.5v25.5v27.5t-1 25t-3 27t-6 24.5t-10 24.5q-3 9 -10 14.5t-22 11.5t-16 7q-85 16 -120 11q-21 -3 -39 -11q-8 0 -18 -8.5t-15 -10.5q-22 4 -47 -16q-9 -2 -17.5 -7.5t-14 -10t-14 -13l-12.5 -12.5q-4 -7 -18 -16t-18 -17q-45 -40 -54 -67 q-2 -6 -8 -16.5t-8.5 -17t-4.5 -17t-1 -19.5h4t6 0.5t5.5 -0.5t2.5 -4q-12 7 -19 2t-9 -16q0 -5 -7.5 -16t-1.5 -21q20 -14 64 -25q6 -7 33.5 -19t33.5 -30q1 -6 14.5 -12.5t12.5 -16.5q15 -27 6 -63t-41 -47q-7 2 -31.5 1t-31.5 7q-6 2 -32 7t-36 13q-13 18 -43 29 q-48 24 -108 104q-2 4 -8 22.5t-13 25.5q-9 31 -14 43q-1 16 -5 48.5t-4.5 48t5.5 48.5q5 7 8.5 29t13.5 30q4 18 31 41q-2 4 -2 9t0.5 8t4 8t4.5 6.5t6 7.5l5 6q12 9 32.5 33t33.5 33q8 6 21 18.5t24 21.5t23 13q26 21 12 21l-19 -4l-2 4q14 2 52 2q8 9 30 16t27 10 q7 4 24.5 9t24.5 12q10 10 31 10q132 10 241 -35q8 -3 21 -10t24.5 -11t22.5 -3q4 0 6 -6l2 -5q18 -14 33 -14q4 -5 41 -45.5t49 -65.5q6 -6 13.5 -20t9.5 -16q5 -20 12 -23q7 -12 13 -40.5t11 -39.5q3 -5 0.5 -15.5t-0.5 -15.5q1 -7 5.5 -22t5 -21t-1.5 -22q3 -9 0.5 -19 t-0.5 -19t12 -11v-4q-18 -14 -12 -35q2 -7 -2 -23t-2 -24q2 -9 1 -13t-6 -13.5t-6 -12.5q-3 -5 -5 -24.5t-13 -22.5q-3 -6 -5 -18t-5.5 -20.5t-12.5 -12.5q-3 -5 -11.5 -24.5t-16.5 -27.5q-2 -14 -18.5 -32t-20.5 -27q-5 -12 -13.5 -23.5t-22 -27t-17.5 -21.5 q-1 -13 -22 -24.5t-19 -26.5q-10 -2 -22 -17t-17 -18q-14 -6 -35.5 -24.5t-34.5 -24.5q-8 -6 -27 -23.5t-30 -25.5q-33 -19 -39 -31q-25 -12 -64.5 -46.5t-62.5 -45.5q-9 -5 -17 -20q4 -7 21 -2t22 2q16 -2 29.5 -0.5t30 0t28.5 -8.5q28 4 41 2q5 -1 24 1t24 -5q13 -6 42 -6 t44 -6q33 -23 57 -53q4 -6 15.5 -36.5t27.5 -39.5q0 -22 -4 -72h2q0 -4 -2 -6l-2 -2q-4 -4 -6.5 -18t-10.5 -17q-15 -12 -35 -12.5t-43.5 3.5t-37.5 3q-21 8 -75 7t-75 14q-76 -16 -110 -11q-4 -1 -33.5 -4.5t-38.5 -15.5q-11 4 -30 -2t-21 -6q-11 -2 -21.5 -6t-26 -12.5 t-18.5 -10.5q-5 -4 -12.5 -2.5t-10 3t-8.5 6t-8 5.5q-5 5 -18 10.5t-17 10.5q-2 2 -13.5 19t-20.5 22q-2 13 -20.5 27.5t-20.5 25.5q-1 6 -15 19.5t-8 27.5q0 6 -3.5 38.5z" />
<glyph unicode="3" horiz-adv-x="946" d="M43 304q0 25 3.5 55t2.5 47q1 2 10.5 15.5t3.5 24.5q19 19 37 60q2 3 11.5 17t13.5 19.5t13.5 16t16.5 15t18 8t22 2.5q13 -6 29.5 -26t27.5 -26q1 -2 1 -5.5t0.5 -6t2 -5t4.5 -3.5q8 -4 10.5 -20.5t10.5 -20.5q13 -23 8 -51t-25 -47q-1 -1 -4 -8t-4 -8.5t-5 -6.5 t-7.5 -3.5t-10.5 1.5q-1 0 -5 -2.5t-5.5 -3.5t-5 -3t-5 -3.5l-4 -4t-3 -4.5t-1 -5t1 -5.5t3.5 -5.5q19 -10 74 -37q6 -1 39 -7.5t51 -6.5q9 5 34.5 1.5t36.5 -1.5q15 2 45 5t49 5t44 8t45 15q32 2 75 41q31 31 39 112q-1 5 -9.5 15t-8.5 18q-3 6 -14 39q-35 49 -64 66 q-8 8 -16 8h-2q3 8 -4 18q-31 27 -103 27h-8h-2q-14 8 -51 8q-55 0 -84 -2q-1 0 -18 -2t-25 -4h-8h-2q-30 87 -35 106q0 32 14 52q6 28 23 55q15 -5 21.5 0.5t10.5 18.5t9 18q5 13 26 15.5t27 6.5q8 4 38.5 17t43.5 26q36 11 73 62q43 22 43 55q9 5 14.5 14.5t7 17t4 22 t3.5 20.5q-7 47 -22 76q-47 71 -97 69q-12 3 -35 -3.5t-36 -2.5q-3 -1 -21.5 -12.5t-32.5 -9.5q-6 -8 -32 -24t-31 -34q-20 -12 -25 -28q-1 -8 -13.5 -17.5t-14.5 -17.5q-10 -21 4 -42t37 -24q-8 -15 10.5 -30.5t17.5 -26.5q10 -21 4 -50t-30 -36q-7 4 -21.5 1.5t-21.5 0.5 q-27 4 -80 29q-10 4 -23 17t-20 17q-4 7 -14 26t-18.5 31.5t-18.5 22.5q3 9 -3 26.5t-6 24.5q-9 8 -8 30t-2 34q-6 26 -6 37.5t6.5 38.5t7.5 39q8 6 18 23t21 22q8 19 21.5 33t39.5 32.5t33 24.5q9 1 25.5 11.5t24.5 12.5q4 1 6.5 3.5t6 7t5.5 6.5q19 -1 56.5 9t58.5 9 q14 5 39 -2.5t34 -7.5q41 -12 66 -10q-1 -1 -4.5 -3t-4 -3.5t2.5 -4.5q12 -7 46 -19.5t50 -25.5q16 -9 30 -22.5t32 -33.5t26 -28q17 -19 39 -56.5t31 -49.5q3 -26 18 -47q2 -20 10.5 -57.5t10.5 -57.5l2 -2q0 -8 2 -14q-6 -15 -2 -35v-11.5t-4.5 -9.5t-5.5 -8 q0 -8 -5.5 -27t-3.5 -30q-3 -6 -8 -20t-10.5 -24.5t-13.5 -17.5q-5 -23 -34 -54t-36 -44q5 -7 33 -37t39 -49q5 -11 17.5 -28.5t16.5 -24.5q15 -18 30.5 -58t25.5 -55q0 -2 5.5 -32.5t12.5 -45.5q0 -3 -2.5 -23t0.5 -24q5 -19 -2.5 -54t-5.5 -50q-22 -63 -41 -103 q-3 -10 -14.5 -28.5t-12.5 -32.5q-12 -4 -22 -12.5t-20 -21.5t-17 -19q-13 -2 -27 -25q-51 -16 -92 -35q-9 -1 -59 -10.5t-78 -5.5q-7 -7 -17 -8t-23.5 1.5t-18.5 2.5q-13 3 -43 -0.5t-41 2.5q-20 1 -55 10.5t-52 11.5q-6 3 -115 68q-5 14 -25 36t-24 38q-12 12 -19.5 27.5 t-14.5 37.5t-11 31q-8 21 -8 46z" />
<glyph unicode="4" horiz-adv-x="1026" d="M41 727q6 19 27.5 47t27.5 41q9 9 19.5 33t19.5 33q12 32 21 43q5 13 24 48t25 56q-2 0 -6 4q1 1 2 3t2 3q6 1 10 7t7.5 16t6.5 14q5 20 30 83t28 99q1 7 12 64q-3 12 5.5 41.5t-3.5 38.5q-1 7 2 21.5t2 25.5t-12 16q-16 7 4 27q7 3 22.5 1t22 -3.5t21.5 -6.5t22 -7 q20 -2 61 -2q-15 -10 -6 -17q9 -16 38 -35.5t38 -34.5q21 -65 21 -98q-9 -111 -15 -145q-13 -30 -4 -58q-18 -26 -14 -45v-4v-6q-5 -2 -7.5 -6.5t-6.5 -14.5l-3 -10q-4 -13 -19 -50t-20 -58q-9 -6 -16.5 -24.5t-9.5 -22.5q-6 -8 -10 -33q4 -4 10 -5t16.5 0t12.5 1 q19 2 68.5 6t76.5 8q10 15 10 19q4 29 19 84t20 80q14 11 14 32q0 9 -2 13q2 6 3 22t4 23q8 23 12 65.5t8 59.5q7 22 9.5 66t8.5 63q4 15 0.5 47.5t1.5 48.5q28 1 79.5 -12t60.5 -15q4 -2 20.5 -17.5t28.5 -17.5q12 -14 29 -46t28 -46q4 -6 -4 -22q-4 -3 -2.5 -18t0.5 -19 q-15 -26 -14 -79.5t-10 -80.5q-3 -6 -5.5 -23t-9.5 -24q6 -35 -10 -59q-1 -22 -10 -61t-11 -58q11 1 20.5 -2t19.5 -11t14.5 -12.5t16 -17.5t13.5 -15q1 -16 15 -47.5t12 -50.5q0 -31 -12 -55q-1 -7 1.5 -24.5t0.5 -26.5q-5 -4 -16 -10t-13 -7q-15 10 -18 11 q-16 -10 -34 -14t-36 1t-25 21q-7 1 -11.5 -3.5t-8 -14t-4.5 -11.5q0 -15 -4 -43.5t-4 -42.5q-12 -23 -6 -35q-18 -141 -21 -192q-8 -14 -4 -45q-2 -18 -3 -56.5t-3 -56.5q4 -51 -17 -68q-5 -5 -13 -8t-20.5 -5t-15.5 -3q-14 -6 -39 4t-36 10q-7 14 -21 9q-4 4 -14 15 t-17.5 18t-15.5 12q3 13 -9 32.5t-9 32.5q-11 36 -7 121q-3 30 5.5 89.5t7.5 86.5q-1 24 4.5 69.5t5.5 65.5q-12 -5 -49 0q-14 -3 -64 -12t-76 -16q-25 -11 -52 -7t-46 21q-10 -4 -26.5 -16.5t-24.5 -16.5q-7 3 -27.5 0t-25.5 6q-6 7 -30 16t-28 23q-17 9 -26.5 24t-17.5 42 t-11 33q9 8 1.5 33.5t-7.5 29.5z" />
<glyph unicode="5" horiz-adv-x="1005" d="M41 1331q0 7 1 21t1.5 22.5t2 20.5t5.5 22q3 7 9.5 11.5t11.5 6t16 3t14 2.5q13 1 41.5 11.5t44.5 10.5q80 13 109 13q23 -1 66.5 7t66.5 7q35 3 105.5 3t105.5 3q63 3 111 -16q1 -1 19 -24.5t30 -31.5q1 -3 3 -11.5t4.5 -15t6.5 -10.5q32 -48 14 -118l-11 -16.5t-17 -18 t-21 -0.5q-121 17 -127 18q-23 -7 -66.5 -8t-49.5 -2q-35 -4 -54 0q-19 5 -52.5 -3t-41.5 -9q-6 -1 -18 -7.5t-19 -7.5t-8.5 -7.5t-2 -16t-3.5 -14.5q0 -10 -6.5 -38t-3.5 -44q-10 -1 -11 -12t2 -21q-8 -15 -11 -43.5t-7 -40.5q3 -17 -0.5 -48t-1.5 -46q18 2 60 15.5 t67 12.5q34 5 96.5 -2.5t73.5 -7.5q13 -6 44.5 -16.5t53.5 -21t39 -25.5q5 -9 22 -19.5t21 -19.5q10 -14 53 -62q11 -7 20 -18.5t18.5 -27t15.5 -23.5q4 -7 16 -29.5t17.5 -33t14 -29t13 -35t6.5 -33.5q3 -1 4.5 -3.5t0.5 -5.5t-1 -6.5v-5.5q4 -14 4.5 -43t4.5 -43 q2 -12 -1 -33.5t-1 -33.5q-25 -103 -56 -144q-2 -18 -25 -40.5t-28 -32.5q-5 -7 -22 -20.5t-19 -24.5q-19 -2 -49 -22.5t-49 -22.5q-12 7 -33 -9q-38 -14 -111.5 -15.5t-93.5 -4.5q-9 -1 -38 1.5t-40 -1.5q-13 7 -42 9t-42 9q-3 2 -11.5 4.5t-13 6t-7.5 8.5q-3 7 -16.5 8.5 t-16.5 3.5q-4 3 -12.5 7t-14.5 8.5t-10 9.5q-8 4 -12 4q0 6 -3 10.5t-12 11t-10 6.5q-18 10 -35 42t-30 42q-24 83 -33 101q-3 7 3.5 18t4.5 17q-4 17 3.5 45.5t6.5 40.5q5 7 9.5 23.5t9.5 23.5q20 -4 35 -20t20 -36q1 -2 21 -33t24 -51q44 -41 135 -57q23 3 75 1.5t75 2.5 q72 7 114 21q7 2 23.5 7t25.5 8t22.5 9t23.5 13q52 39 88 90q10 14 6 53q2 46 -35 104q-3 7 -20.5 17.5t-16.5 23.5q-18 2 -56 18t-61 15q-108 39 -237 -27q-6 -7 -22 -11.5t-21 -12.5q-32 -10 -72 22q-12 6 -25.5 26.5t-15.5 23.5q-6 4 -18.5 7.5t-14.5 4.5q-4 2 -11 6.5 t-13 7.5t-12 4q-6 7 -18.5 22.5t-18.5 22.5q-39 92 -29 217q-3 142 27 250q-56 41 -56 86q-12 36 -14 39z" />
<glyph unicode="6" horiz-adv-x="962" d="M43 528q-2 6 6 19t4 22q2 14 6 55t9 68.5t14 52.5q1 20 10.5 54t11.5 45q4 27 22.5 74.5t23.5 68.5q7 11 22 51q-1 10 11 23.5t14 21.5q25 41 45 95q9 18 32.5 56t34.5 60q5 16 15 31t24 32.5t21 28.5q9 17 34 42t31 32q1 3 5 4t7 2t5 3t0 6q-3 5 3 9.5t12.5 5t8.5 -2.5 q25 10 31 10q24 8 65.5 -4t55.5 -12q9 -8 36 -21.5t37 -23.5q25 -6 43.5 -22t41.5 -46.5t30 -38.5q2 -4 9.5 -14.5t11 -19t0.5 -17.5q-1 -6 -0.5 -21.5t-1.5 -26.5t-7 -20q2 -12 -3 -19.5t-11.5 -9.5t-20 -4t-18.5 -3q-70 20 -106 104q-16 5 -39 -9.5t-33 -15.5 q-8 -14 -25 -24q-6 -13 -30 -40t-29 -46q-13 -6 -19.5 -28t-13.5 -28q-9 -28 -4 -40q-18 0 -18 -9q-2 -6 -16.5 -32t-10.5 -43q80 -7 135 -25q16 -3 70 -25.5t86 -17.5q29 -36 59 -43q8 -14 35 -32.5t35 -33.5q2 -5 37 -63q40 -76 33 -191q5 -51 -31 -114q-1 -4 -3 -18 t-5 -23t-9 -15q-5 -11 -16 -31t-19.5 -37.5t-13.5 -33.5q-30 -30 -47 -65q-3 -12 -21.5 -24.5t-21.5 -16.5q0 -13 -20 -25q-38 -46 -140 -104q-54 -45 -163 -29q-6 -2 -15 3t-14 3q-13 -3 -36 5t-34 7q-17 1 -32.5 7.5t-36 18.5t-29.5 17q-33 24 -68 64q-14 8 -26.5 32.5 t-22.5 32.5q-10 20 -26 60q-13 64 -23 145q0 107 -4 137zM258 371q-4 -45 12 -135q4 -25 29 -32.5t53 -2.5q2 1 27.5 6t36.5 12q32 22 61 35q22 19 61 57t48 47q4 7 22.5 35t26 40.5t19.5 35t20 41.5q48 97 45 178q4 17 -4 24.5t-26.5 12t-22.5 6.5q-38 15 -109 19 q-15 -11 -18 -7.5t-5.5 10.5t-7.5 5q-5 -10 -28 -15q-44 -23 -74 -53q-16 -28 -27 -37q-13 -30 -32 -32q-9 -16 -49 -49.5t-46 -63.5q6 -11 -1 -29.5t-3 -27.5q0 -9 -6.5 -37t-1.5 -43z" />
<glyph unicode="7" horiz-adv-x="1101" d="M43 1346q-8 58 43 120q15 0 43.5 12.5t44.5 12.5q38 12 106.5 8t106.5 2q51 -14 111 -4q27 -3 89 -3t95 -7q58 -4 182 -8q27 -6 70 -29q5 -8 22 -12q67 -31 82 -95q15 -26 23 -69q-8 -11 -24 -56t-38 -59q-9 -32 -34 -53q-1 -18 -18 -46t-19 -44q-5 0 -13 -4 q-9 -34 -32 -64q-9 -27 -38 -75t-38 -74q-1 -7 -11 -15.5t-12 -15.5q1 -11 -8 -28t-10 -23q-3 -10 -15 -30.5t-14 -33.5q-2 -11 -13 -32.5t-11 -34.5q-16 -5 -13 -25q-23 -37 -47 -119q-44 -83 -65 -172q-10 -18 -21.5 -56t-21.5 -56q-10 -21 -20.5 -73.5t-26.5 -76.5 q-2 0 -8.5 0.5t-10.5 0.5t-8.5 -1t-6.5 -4.5t-1 -9.5q-14 -4 -27.5 -0.5t-32 12.5t-26.5 12q-8 6 -15.5 24t-15.5 24q-17 34 -17.5 79t6.5 74.5t23 79.5q4 22 12.5 45t19 50.5t16.5 43.5q2 14 12 37t12 35q3 11 16.5 39.5t14.5 44.5q-13 6 -28 -5t-27 -5q-6 2 -22.5 8.5 t-25.5 7.5q-2 12 -15 36.5t-11 41.5q-4 56 6 76q13 26 16 49q35 50 43 59q18 -5 47 2q19 4 65.5 6.5t68.5 10.5q17 28 73 153q9 19 48.5 84.5t52.5 104.5q-5 7 -21.5 4t-23.5 0q-13 4 -41 0.5t-41 -0.5q-7 1 -23.5 4t-23.5 3t-23 -3q-2 -3 -13.5 -0.5t-13.5 2.5 q-11 -4 -39 -0.5t-38 2.5q-11 2 -40 3.5t-44 4.5q-15 0 -40.5 -9t-35.5 -11q-1 -1 -6 -4.5t-6 -5t-3.5 -5.5t-1 -8t4.5 -10q24 -48 32 -60q2 -4 9.5 -15.5t7.5 -15v-16.5q7 -36 -2 -63q-9 -2 -22.5 -12t-20.5 -13q-23 2 -76 27q-4 5 -11.5 18t-14 22.5t-13.5 16.5 q-6 27 -25 49q-3 21 -11.5 40.5t-26.5 47.5t-23 37q-2 8 -10.5 22t-10.5 19q-1 2 -6 17q-2 2 -2 4t-2 4q4 11 -8 27z" />
<glyph unicode="8" horiz-adv-x="1040" d="M55 285q-30 101 6 241q2 19 8 38.5t17 46.5t14 36q6 15 27.5 42.5t26.5 45.5q9 1 18.5 12.5t15.5 14.5q8 12 31 33t31 34q-8 9 -24.5 26t-24.5 26q-1 5 -8 14.5t-9 13.5q-3 5 -11 27t-17 31q-22 79 -6 161q22 109 40 144q58 94 101 133q10 13 31.5 30.5t29.5 26.5 q7 7 24.5 18.5t24.5 18.5q56 13 107 10q20 0 57 -8t53 -10q12 -6 27 -12q4 0 6 -2t4.5 -6t3.5 -5q18 -2 46 -19.5t34 -19.5q2 -3 30 -38t34 -58q36 -49 47 -137q5 -13 8 -25.5t3 -28.5t0.5 -25t-3 -28.5t-4 -25t-5.5 -28.5t-5 -25q-4 -8 -10 -26t-12 -31t-15 -23 q-1 -2 -8.5 -9.5t-11 -13.5t-3.5 -12t-7.5 -12t-8.5 -9q-1 -2 -11 -15t-14 -21q-1 -4 0 -7t4.5 -4.5t6 -2.5t7 -2t5.5 -1q59 -38 78 -53q1 -3 4.5 -5.5t6.5 -4t7.5 -3t7.5 -3.5q3 -3 18.5 -22t26.5 -26q14 -20 33.5 -57t28.5 -51q33 -99 16 -232q-1 -6 -10 -24t-6 -29 q-2 -3 -14 -45q-12 -26 -45.5 -64.5t-40.5 -49.5q-18 -9 -27 -27h-4q-6 -14 -18 -22.5t-28.5 -17t-25.5 -15.5q-36 -27 -51 -37q-6 -3 -19.5 -6t-24 -7t-17.5 -12q-9 -1 -39 -8.5t-48 -7.5l-2 -6q-17 0 -49 3t-49 3q-47 10 -88 4q-8 4 -37 14t-45 19q-26 5 -49.5 18.5 t-55 36.5t-44.5 31q-9 14 -27 18q-1 1 -2 3t-2 3q-3 13 -18.5 33.5t-16.5 34.5q-13 12 -22 42t-13 38zM233 348q1 -7 1 -18.5v-19.5t2.5 -18t7.5 -18q16 -8 24 -16q17 -11 38.5 -16t48.5 -7.5t42 -5.5q123 0 187 35q9 6 37 19t41 24q7 7 27 18t28 21q6 8 26.5 31.5t32 41 t17.5 36.5q14 28 26 104q-2 7 -6 13t-10.5 11.5t-11 9t-13.5 9.5l-12 8q-56 37 -92 33q-9 -1 -28 1t-28 1q-72 -16 -124 -51q-20 -15 -63.5 -20.5t-59.5 -12.5q-4 -2 -10 2.5t-9 1.5q-9 -3 -17 -8.5t-15.5 -14t-11 -13.5t-11 -17t-10.5 -16q-7 -8 -12.5 -18t-11.5 -24.5 t-9 -19.5q-17 -23 -21 -86zM344 1036q-10 -33 2 -67q2 -1 23 -11q70 -3 151 27q23 16 76 64q2 3 20.5 19.5t16.5 33.5q8 7 14.5 15t12 18.5t8 17.5t7.5 21.5t7 19.5q4 15 -3 41t-7 31q-8 25 -27 20q-18 -4 -55 -0.5t-55 0.5q-6 -5 -18.5 -14.5t-20 -15.5t-17 -14.5 t-16.5 -16.5q-3 -9 -19 -20.5t-20 -20.5q-3 -16 -26 -38.5t-25 -39.5q0 -2 -2 -4q-6 0 -6 -4q-8 -9 -13.5 -33t-7.5 -29z" />
<glyph unicode="9" horiz-adv-x="1038" d="M43 1083q-2 19 2.5 38.5t15 45t13.5 37.5q17 17 20 39q13 14 43 64q12 1 18.5 19t10.5 22q6 5 17.5 17t21.5 19.5t22 10.5q9 21 43.5 42t44.5 31q10 12 27 -2q17 17 39.5 25t54 13t45.5 9q25 3 103 3q21 -13 32 -9q11 -4 33.5 -8t30.5 -6q22 -17 55 -20q9 -14 25 -21 q2 -1 7 -3t7 -3q67 -54 88 -84q6 -9 21.5 -27t24.5 -32.5t12 -30.5q11 -11 14 -31q13 -21 23.5 -62.5t17.5 -58.5q1 -8 10.5 -61.5t9.5 -81.5q-5 -17 -1.5 -51t-2.5 -49q2 -23 3 -28t-3.5 -27.5t-5.5 -26.5q-2 -8 -6 -41t-9.5 -52.5t-15.5 -37.5q-2 -35 -26 -93 q-7 -13 -15.5 -50.5t-23.5 -53.5q-11 -13 -22 -50t-29 -52q-7 -6 -9 -25t-10 -25q-15 -12 -29.5 -43.5t-25.5 -42.5q-10 -10 -33 -44t-43 -44q-13 -23 -49 -56.5t-47 -47.5q-9 3 -22 -6.5t-17 -10.5q-5 -12 -27.5 -22t-27.5 -14q-8 0 -39.5 -4t-38.5 0q-10 3 -34.5 5.5 t-37.5 6.5q-5 2 -16.5 6.5t-20 7t-16.5 2.5q0 9 -12.5 15.5t-14.5 11.5q0 1 -43 37q-4 6 -18.5 25t-21 29t-15.5 26.5t-14 31.5q8 25 -2 35q-19 43 -19 131q2 2 4.5 7.5t4.5 8.5t5.5 6t8.5 2.5t12 -3.5q6 -6 33 -21.5t33 -32.5q13 0 23.5 -7.5t21.5 -21.5t16 -18 q7 -52 41 -86q10 5 21 11.5t19 12t19 15t16.5 15t17 17.5t16 16.5t17 18.5t15.5 17q9 8 22.5 27t18.5 24q16 15 28 33t26.5 47.5t19.5 38.5q31 49 78 164q-6 -4 -60 -37q-9 -10 -34.5 -14.5t-32.5 -7.5t-28 -4t-30 -9q-21 -3 -90 2q-13 6 -70.5 22t-82.5 38q-18 5 -33 16.5 t-34 31t-27 26.5q-13 11 -29.5 39.5t-24.5 37.5q-8 15 -17 44.5t-11 35.5q-6 42 -23 80q-5 110 -2 141zM263 947q1 -33 1 -70q0 -2 2 -20t3 -23t4 -18t8 -21.5t12 -16.5q53 -10 162 15q69 34 114 71q4 2 14.5 14t18.5 13q45 -8 62 -23q6 -9 29 -30.5t30 -38.5q13 6 15 30.5 t5 30.5q13 41 18 120.5t7 94.5q-8 149 -72 213q-7 6 -17 9t-16.5 3.5t-21 0t-18.5 -0.5q-30 -7 -58 -4q-11 -5 -47 -19.5t-55 -25.5q-18 -18 -35 -18q-37 -34 -52 -48t-39 -45.5t-36 -60.5q-21 -26 -30 -62.5t-8 -69.5z" />
<glyph unicode=":" horiz-adv-x="374" d="M45.5 984.5q7.5 17.5 24.5 23.5q50 9 127 -17q9 -7 25.5 -23.5t25.5 -23.5q11 1 19 -6.5t15.5 -19.5t12.5 -17q1 -7 5.5 -22.5t6 -24.5t1 -22t-6.5 -23q-4 -13 -12.5 -20.5t-26.5 -14.5t-20 -8q-46 -4 -115 35q-23 14 -59 65q-11 14 -14.5 45.5t-6.5 40.5 q-9 15 -1.5 32.5zM54.5 627q8.5 26 31.5 32q2 1 16 6.5t21 6.5q3 0 25 -3t29.5 -4.5t24 -5.5t28 -10t22.5 -14q38 -13 63 -45.5t15 -69.5q3 -18 -8 -33t-23 -21.5t-33 -16.5q-6 -1 -22.5 -5.5t-24.5 -5.5q-13 11 -47 15q-7 5 -29 16.5t-33 18.5t-22.5 22t-13.5 33 q0 6 -10 17.5t-9 19.5q-9 21 -0.5 47z" />
<glyph unicode=";" horiz-adv-x="380" d="M43 1039.5q0 7.5 1 12.5t3.5 14t3.5 13q37 15 64 17q9 1 19 -1t16.5 -5t17.5 -9.5t16 -9.5q17 -8 45.5 -29t32.5 -24q9 -9 14.5 -19t7.5 -25.5t3 -21.5t0.5 -27.5t-0.5 -23.5q-2 -3 -13.5 -16.5t-15.5 -22.5q-56 -45 -92 -33q-16 7 -40 26.5t-34 25.5q-3 4 -14.5 20.5 t-16.5 28t-6 24.5q-1 8 -5.5 24.5t-5.5 23.5t1 24q-2 6 -2 13.5zM72 717q4 6 10 10.5t10.5 6t14.5 5t12 4.5q33 0 43 2q5 0 19 -8.5t24 -1.5q16 0 16 -6q13 1 24 -1.5t23 -11.5t16.5 -13t19 -20t15.5 -17q7 -7 8 -25t3 -23q9 -10 10 -25t-2 -28t0 -28q3 -24 -4.5 -48.5 t-20.5 -54t-18 -45.5q-5 -6 -17.5 -10t-15.5 -6q-5 -1 -18.5 -12t-22.5 -9q-4 3 -18 11.5t-20 12.5t-16 12t-17 15.5t-13 16.5q-2 9 -10 34.5t-8 39.5q2 3 9.5 10.5t11 12t8 11.5t6 14t0.5 15q-21 14 -35 21q-15 15 -28 50t-17 42q3 11 -2 47z" />
<glyph unicode="&#x3c;" horiz-adv-x="657" d="M45.5 728.5q-7.5 18.5 1.5 31.5q2 5 5.5 19.5t8.5 21.5q-5 13 1 35t6 30q1 5 5 7.5t10 3.5t9 2q16 7 49.5 27t51.5 26q20 13 59 30.5t53 24.5q21 6 37 25q13 0 25.5 5.5t27.5 15.5t23 14q14 2 34.5 15t26.5 15q14 4 26 1t30 -14t22 -13q7 0 10.5 -10t7.5 -13 q16 -8 37 -22q-6 0 -6 -2q-1 -8 5 -26t3 -28q3 -46 -26 -69q-27 -9 -33 -21q-3 -1 -21.5 -9.5t-29.5 -8.5q-6 -5 -17.5 -15.5t-17.5 -15.5q-3 -1 -15 -3t-20 -5t-14 -8q-6 -7 -28 -14.5t-27 -18.5q8 -8 24.5 -19t22.5 -16q14 -15 31 -28t39 -28t34 -24q4 -9 20.5 -16 t20.5 -15q24 -8 39.5 -26t11.5 -41q-9 -23 -49 -68q-10 -7 -31.5 -17.5t-31.5 -17.5q-17 8 -53 11t-52 10q-48 30 -129.5 95t-109.5 85q-3 2 -35 24t-47 36q-17 3 -24.5 21.5z" />
<glyph unicode="=" horiz-adv-x="972" d="M41 1022q32 24 74 33t96 11.5t82 8.5q277 21 477 -8q76 -11 123 -82t14 -141q-71 -22 -254.5 -1t-257.5 13q-33 -13 -97 -18.5t-89 -12.5q-11 -4 -22 -4.5t-22.5 3t-20 6.5t-21.5 11t-18.5 12t-18.5 13q-9 17 -16.5 39t-11 37t-9.5 42.5t-8 37.5zM98 772q33 8 47 10 q40 3 83.5 4.5t77 2.5t86 1.5t77.5 0.5t85.5 -1t77 -1t86 -1.5t79.5 -1.5q126 -68 135 -157q-15 -43 -45.5 -68.5t-71.5 -5.5q-50 -9 -198.5 -3t-196.5 5q-22 8 -49 8.5t-45.5 -3t-50.5 -11t-46 -10.5q-70 24 -106 90t-25 141z" />
<glyph unicode="&#x3e;" horiz-adv-x="573" d="M41 538q0 13 2 23t6 19q-2 4 0 9t2 7.5t4 6.5t5 6t6 5.5t7 4.5t7 4t6 4q27 27 83 67.5t77 59.5q2 2 6 5t6.5 4.5t4.5 5t-1 7.5q-2 1 -7.5 5t-9 6t-8.5 3.5t-10 0.5q-3 1 -18 8.5t-25.5 10t-21.5 1.5l-10 10q-12 -4 -29 8t-19 13q-15 6 -24.5 16.5t-21.5 31.5t-15 25 q2 10 2 31q-6 12 2 33l2 2q12 12 12 27q-1 3 -2 8t-2 8q1 4 12 23t11 32q6 -2 13 -0.5t14 0t10 -7.5q5 -11 33 -20q9 -7 29 -11.5t26 -7.5q27 -18 61 -24q3 -6 8 -9.5t15.5 -7l13.5 -4.5q39 -12 131 -55q11 -2 19.5 -19.5t13.5 -21.5q5 -5 11 -18.5t11 -18.5q8 -6 11 -15.5 t3.5 -21.5t2.5 -18q9 -7 15 -28.5t9 -27.5q1 -8 -4 -43q-7 -5 -18 -22.5t-21 -22.5q-8 -7 -27 -20.5t-28 -22.5q-7 -10 -29 -19.5t-28 -19.5q-23 -13 -61 -44t-58 -44q-9 -15 -29 -22q-45 -45 -63 -55q-6 0 -17.5 -0.5t-20.5 -0.5t-17 1q-10 10 -19 22q-3 3 -12.5 9 t-14.5 9.5t-10 11t-6 15.5q0 3 -2.5 20t-3 23.5t-0.5 19.5z" />
<glyph unicode="?" horiz-adv-x="751" d="M43 1245q0 4 0.5 15.5t1.5 17.5t4.5 13.5t9.5 11.5q9 34 19 43q15 45 80 94q43 27 53 30q0 15 29 15q8 -1 11 0t10.5 5t10.5 5q50 3 99 0q2 0 13 -1t18 0t12 5q3 2 6 2t4.5 -1t5 -3.5t4.5 -3.5q46 -12 94 -12q-12 -4 -10 -13q20 -14 70 -30q7 -17 35 -40t34 -42 q14 -10 27 -45q14 -27 20 -65t6 -55.5t-5 -73.5t-5 -60q0 -8 -5.5 -19t-6.5 -16q-4 -13 -9.5 -26t-13.5 -29t-12 -25q-9 -4 -20 -17.5t-17 -17.5q-3 -1 -4.5 -8t-5.5 -8q-28 -9 -28 -25q-99 -74 -134 -155q-1 -2 -6.5 -10.5t-6.5 -11t-3.5 -11.5t2.5 -12q-1 -5 -6.5 -13.5 t-7 -13.5t1.5 -16q-9 -39 -12 -72q18 -68 -13 -113q-6 -3 -15.5 -12t-14.5 -11.5t-19 1.5q-5 3 -19 -0.5t-18 2.5q-6 6 -21.5 4t-21.5 4q-4 4 -17.5 10t-17.5 13q-3 10 -20.5 34t-15.5 43q-21 13 -25 52q-10 149 37 260q2 14 16 28q0 16 15 25q14 26 37 50.5t54.5 52 t45.5 42.5q2 2 2 6q6 3 10 7q0 2 2 2h6q2 11 16 23t17 20q2 7 11 28.5t12 36t0 29.5q1 8 7 37.5t5 49t-12 36.5q-21 24 -56 0q-10 -2 -23.5 -18.5t-23.5 -18.5q-8 -3 -16.5 -17t-14.5 -18q-24 -58 -26 -90q10 -17 10 -37q0 -1 -1 -3t-1 -3q-4 -6 -4 -21v-2q-4 -8 -14 -18h-3 h-14q-20 -2 -63 -2q-9 2 -21 14q-26 3 -41 21q-3 4 -18 13t-17 19q-5 15 -22 34.5t-28.5 39t-8.5 41.5zM80 166q1 16 6 47l10 8t11 7t10.5 5t12 4.5t11 3.5t12.5 2.5l12 2t13 2.5t12 2q8 4 16.5 0.5t18.5 -11.5t15 -10q13 -1 40.5 -1t41.5 -1q9 -4 32.5 -11.5t36.5 -14.5 q2 -3 11 -14.5t12.5 -17t9 -15.5t7.5 -19.5t1 -19.5q-16 -43 -16 -52q-10 -3 -19 -10t-18 -18t-14 -15q-12 0 -33.5 -11t-36.5 -7q-9 1 -25 -0.5t-28 0t-21 10.5q-44 9 -76 45q-11 15 -22 17q0 4 -2.5 9l-3.5 7q-22 11 -30 35.5t-7 40.5z" />
<glyph unicode="@" horiz-adv-x="1509" d="M43 733q0 22 18 96q-5 29 18 81.5t19 80.5q18 15 34 52.5t28 50.5q63 133 178 219q12 6 37 25t41 26q15 6 41 23.5t39 23.5q1 11 9.5 14.5t21 4t18.5 4.5q102 54 190 59q194 15 301 -37q36 -5 45 -14q15 -15 64 -19q4 -1 2.5 -8.5t-0.5 -9.5q55 -28 88 -64q18 -9 42 -35 t36 -34q52 -68 73 -115q28 -28 31 -61q17 -16 26 -58t19 -57q0 -9 3 -75.5t-1 -76.5q0 -12 -4.5 -38.5t-3.5 -42.5q-6 -8 -12 -28t-12 -28q4 -17 -11.5 -39t-17.5 -32q-18 -76 -62 -115q-7 -21 -31.5 -52.5t-31.5 -43.5q-11 -19 -43 -41t-43 -35q-14 3 -34 -7.5t-28 -11.5 q-37 -12 -112 -4q-7 2 -24 5t-27.5 8t-16.5 16q-20 1 -46 23.5t-38 27.5q-2 4 -5.5 13t-5.5 14t-6.5 10.5t-10.5 9.5q-6 13 -26.5 47.5t-27.5 55.5q-1 2 -1.5 8.5t-1.5 8t-7 -0.5q-24 -27 -51 -51q-6 -10 -27 -17.5t-26 -11.5q-7 -1 -25 -3.5t-28 -3.5t-25 -1t-27 4 q-89 36 -125 78q-8 4 -14 21t-14 22q-12 8 -18.5 21t-11 30.5t-9.5 26.5q-29 59 -15 110q4 15 9.5 51.5t13.5 62t25 44.5q1 3 4 12.5t4 13t4.5 11.5t6 12t6.5 9.5t9 9.5q10 10 32.5 45.5t43.5 46.5q19 14 21 24q-10 2 -33 -12q-2 -2 -9 -10.5t-13 -13t-13 -5.5 q-7 -9 -41 -42t-41 -58q-62 -89 -82 -149q-1 -5 -13.5 -28t-8.5 -38q-8 -26 -17 -76.5t-14 -70.5q0 -19 2 -59.5t2 -61.5q35 -96 90 -154q10 -9 41 -37.5t49 -42.5q66 -32 88 -39q9 -2 44 -4.5t53 -9.5q28 -7 78 6t71 12q16 8 40 -6.5t40 -9.5q46 -4 76.5 -46.5t19.5 -86.5 q-28 -42 -45 -49q-11 -5 -35.5 -10.5t-34.5 -10.5q-6 -5 -13.5 -3t-14.5 2t-8 -7q-14 -1 -58 -1.5t-69 -2.5q-7 7 -26.5 7t-23.5 1q-45 7 -153 45q-7 3 -31 11.5t-39 16.5t-28 19q-30 18 -80.5 62t-59.5 51q-10 12 -38.5 44.5t-46 56.5t-27.5 51q-15 21 -26.5 49.5 t-16.5 48.5t-12.5 58t-10.5 52q3 20 -4 69t0 69q6 6 -2 22zM553 690q3 -6 10.5 -6t17.5 2.5t13 1.5q16 4 30 15t28.5 28.5t23.5 24.5q14 22 35 62t30 56q1 8 11 33t8 41q2 4 2 13q11 15 0 22h-4q-1 1 -2 3t-2 3t-3 4t-3 4q-9 23 -27 15q-18 -6 -21 -11q-12 -8 -16 -14h-2 l-6 -6q-8 -8 -8 -14q-4 -4 -4 -17v-4q-11 -21 -43 -61q-1 -2 -3 -9.5t-5 -12.5t-7 -9q-6 -5 -12 -20t-12 -21q-5 -17 -27 -61q-2 -20 -2 -62zM580 1149q12 -5 34.5 5t36.5 3q17 9 20.5 2t11 -15t19.5 -3q7 -6 29.5 -24.5t33 -28t26 -25.5t26.5 -31h8q2 12 10 35.5t9 26.5 q-1 0 -4 1t-4 1q5 6 10 21.5t10 21.5q7 0 24 -3.5t27 -2.5q9 -10 33 -18t31 -11q11 -8 27 -28.5t22 -26.5q12 1 14.5 -10t1 -23.5t4.5 -20.5q5 -9 4 -28.5t3 -30.5q-6 -12 -10.5 -36t-10.5 -36q-7 -13 -6 -16q5 -12 -4 -27t-10 -20q3 -15 -11.5 -38.5t-9.5 -39.5 q2 -16 0.5 -21.5t-11.5 -18t-13 -17.5q-1 -4 0.5 -8.5t5 -9.5t4.5 -7q-9 -58 20 -117q16 1 32.5 9t27 16t28 21.5t25.5 19.5q13 15 34.5 43.5t26.5 34.5q13 14 28 44.5t26 43.5q7 11 12 36.5t8 32.5q2 12 12 42.5t11 47.5q3 13 1.5 40t2.5 38q0 73 -47 117q-5 15 -15.5 29.5 t-19.5 22.5t-26.5 22t-24.5 20q-48 39 -70 45q-17 1 -55.5 10.5t-59.5 8.5q-7 -3 -22.5 -0.5t-22.5 -1.5q-40 7 -65 2q-9 -3 -36.5 -9t-41.5 -12q-47 -17 -49 -18q-8 -10 -32.5 -17.5t-33.5 -17.5q-22 -6 -65 -45z" />
<glyph unicode="A" horiz-adv-x="962" d="M41 37q6 8 7 19t-0.5 25t-0.5 21q5 13 5.5 47.5t10.5 51.5q16 122 17 139q1 30 15.5 82.5t17.5 75.5q4 18 10.5 61t13.5 66q6 17 15.5 52.5t15.5 53.5q6 51 35.5 142.5t36.5 121.5q25 36 28 76q8 21 30.5 73t31.5 81q4 16 20.5 46.5t18.5 49.5q28 62 41 109q10 7 10 20 q16 17 38.5 26t52 15t44.5 12q7 -3 66 -24q4 -4 16.5 -12.5t19.5 -17t7 -19.5q28 -46 32 -125q6 -18 11.5 -57t11.5 -58q2 -12 8.5 -64t13.5 -79v-7q1 -4 2 -10.5t2 -9.5q10 -117 31 -287q8 -16 13.5 -48t9.5 -44q-1 -8 -1 -18q0 -24 8 -60q12 -50 13 -63q4 -14 8.5 -40.5 t6.5 -35.5q18 -26 22 -98q9 -12 12.5 -40.5t5.5 -35.5q21 -71 25 -100q0 -5 7.5 -16.5t2.5 -20.5q1 -5 7.5 -23.5t3.5 -28.5q-1 -8 -5 -15.5t-10.5 -16.5t-9.5 -13q-48 -19 -83 -19q-29 0 -50 13q-17 1 -35.5 26.5t-30.5 29.5l-8 8q3 4 -2.5 8t-13.5 4q-20 39 -31 102 q-22 94 -49 187q-8 1 -25.5 3.5t-27.5 4t-25 1t-27 -4.5q-65 13 -120 16q-9 2 -33 11q-9 -2 -14.5 -10t-2.5 -17q4 -5 4 -12.5t-2 -16t-2 -12.5q-1 -7 -2 -31t-4.5 -39t-11.5 -28q0 -40 -6 -50q2 -13 -4 -44.5t0 -43.5t4 -18.5t-7.5 -17.5t-6.5 -17q-22 -7 -27 -24 q-10 -3 -29 -13t-28 -14q-10 -5 -28 1.5t-28 2.5q-17 -3 -45 8.5t-41 12.5q-2 2 -6 7t-6 7zM365 575q7 -2 30 -13.5t39 -8.5q72 -14 123 -13q-1 20 -12 62t-10 66q-36 185 -43 315q-4 7 -13 4q-4 -6 -8 -18q-1 -7 -11 -32t-5 -42q-11 -16 -33 -66q-3 -3 0 -10.5t0 -11.5 q-7 -16 -11 -48.5t-10 -47.5q-16 -52 -18 -66q-2 -5 -6.5 -16.5t-6.5 -18t-4 -16.5t-1 -19z" />
<glyph unicode="B" horiz-adv-x="1083" d="M44 442q3 54 4 87q0 14 -1 24q6 48 13.5 147t13.5 148q6 26 9.5 77t8.5 74q1 6 4.5 21t5 26t0.5 21q10 24 17.5 73.5t11.5 65.5q-1 15 6.5 41.5t9 41t-11.5 38.5q-1 1 -7.5 9.5t-9.5 11.5t-9.5 7t-12.5 5q-8 23 -28 63q17 8 53 17.5t53 17.5q1 13 10 17.5t19.5 3 t23.5 -3.5t19 0q8 5 37 7t39 17q15 2 35 2q31 0 75.5 -4t75.5 -4q21 0 35 2q-1 -1 -2 -4t-2 -4q13 -8 43 -19.5t43 -19.5q96 -35 190 -143q11 -6 24.5 -26.5t16.5 -23.5q5 -13 27.5 -52.5t27.5 -65.5q1 -7 11 -78q-9 -124 -88 -234q-10 -12 -37 -30q-4 -4 -1.5 -9t5.5 -6.5 t8.5 -5t7.5 -4.5q18 -14 53 -33q11 -18 43.5 -46t44.5 -48q35 -46 64 -106q-1 -13 6 -38t6 -40q6 -14 6 -34.5t-6 -47.5q5 -13 -1.5 -35.5t-6.5 -30.5q-3 -6 -7.5 -20.5t-10.5 -24t-17 -14.5q-1 -11 -4.5 -21.5t-11.5 -25.5t-10 -21q-15 -7 -32.5 -32t-23.5 -31 q-2 -3 -19 -17.5t-16 -29.5q-27 -7 -43 -29q-7 -7 -17 -12.5t-24.5 -11.5t-19.5 -9q-9 -7 -28 -14.5t-25 -11.5q-8 1 -23.5 -5.5t-17.5 -7.5q-10 2 -67 3.5t-85 15.5q-15 3 -37 17t-32 18q-18 26 -54 51q-9 32 -6 41q-20 47 -22 67q15 11 45.5 -0.5t44.5 -5.5l10.5 1.5 t10.5 -2.5t10 -4.5t9.5 -5.5t8.5 -5q10 -1 19 -2q50 0 85 33q38 17 58 49q12 8 24 20.5t17 18.5t20 26t17 23q12 12 25.5 42.5t15.5 33.5q15 44 15 92q0 15 -1 30q3 13 -3 23.5t-17 21.5t-15 17q-6 9 -17 16.5t-18.5 11t-24 8.5t-20.5 7q-16 4 -51.5 7.5t-54.5 8.5 q-11 -1 -22 -1q-102 0 -158 61q-4 11 -12 21.5t-19.5 23t-16.5 18.5q-8 15 -8 35t12 31q5 5 5 20.5t6 20.5h11q52 0 130 16q25 8 51.5 28.5t39 34t38.5 44.5q10 15 18 32t17 39t14 33q6 23 6 42q0 46 -32 73q-55 63 -97 71q-10 9 -35.5 10.5t-33.5 4.5q-14 1 -38 -6.5 t-38 -6.5q-2 -1 -11 -3t-13.5 -5.5t-6.5 -9.5q-1 -24 -13 -70t-13 -69q-1 -13 -9 -37t-10 -35h2v-4q-2 -2 -2 -6q-5 -57 -31 -154q-1 -27 -4 -57.5t-7.5 -67t-6.5 -57.5q-7 -15 -9 -43t-5 -39q-4 -18 -4 -58v-17v-11q0 -44 -7 -64q-2 -4 0 -12t0 -12q-8 -25 -8 -69v-6v-13 q0 -39 -2 -64v-13q0 -34 4 -93t4 -94v-13q14 -21 4 -45q-7 -7 -20 -15.5t-18 -12.5q-9 1 -25 -3t-23 -4q-46 15 -88 46q-13 13 -18 14q-15 35 -22 75t-11 98t-6 79q-3 17 -3 47q0 26 2 63z" />
<glyph unicode="C" horiz-adv-x="972" d="M41 551q1 4 4 12.5t3.5 13t-1.5 13.5q12 66 12 94v8q4 14 5 28.5t0 38t-1 29.5q4 12 7 37t4 29q7 14 9.5 43t4.5 37q2 4 -1.5 15.5t1.5 15.5q8 11 11 38t12 39q2 3 2 21v6h4q6 3 1.5 15.5t0.5 17.5q-1 5 5.5 12t6.5 12q2 10 11 26t12 24q5 19 11.5 37t20.5 41t19 31 t26.5 38t22.5 31q17 11 45 32.5t52 38t48 27.5q8 3 25 10.5t30.5 12t26.5 6.5q3 1 24 4t27 12q9 -1 30.5 2.5t36.5 1.5t24 -14q81 -12 147 -66q5 -7 35.5 -32t36.5 -48q33 -28 51 -88q9 -22 15.5 -45.5t13.5 -58.5t10 -47q-1 -5 -6.5 -16t-5.5 -17q4 -4 6 -4q-2 -4 -3 -8 t-1.5 -9t-1.5 -8q-7 -21 -7 -39q-1 -2 -5 -15.5t-5.5 -17t-5.5 -15t-7 -16.5t-8 -13.5t-10.5 -14.5t-11.5 -12q-37 -9 -76 -12q-7 -1 -20 7t-23 5q-6 9 -31 30.5t-32 39.5q-3 5 -11.5 16.5t-12.5 21t-3 19.5q1 2 3.5 9t4 12.5t0.5 9.5q5 10 5 16q4 4 4 8q0 5 6 50q4 25 4 44 q0 14 -2 25q-2 8 -6.5 30t-8 33.5t-10 29t-16.5 29.5t-23 21q-19 2 -37.5 -5.5t-40.5 -23t-32 -20.5q-29 -27 -82 -96q-15 -44 -45 -78q0 -8 -15 -43v-5t0.5 -5.5t-1 -4.5t-5.5 -3q-2 -8 -7.5 -22.5t-8.5 -24t-6 -22.5t-4 -25q1 -8 -8 -25.5t-5 -28.5q-4 -77 -16 -104 q-3 -4 -3 -8t1.5 -9t1.5 -8q-7 -19 -9 -56t-5 -52q-7 -26 -8.5 -76t-4.5 -70q1 -10 3 -44.5t3 -51t4.5 -43t8.5 -47.5q0 -2 -1.5 -7.5t-2.5 -9t0 -7.5t2 -7q9 -11 11.5 -43t16.5 -43q9 -38 37 -63q14 -3 37 -20t35 -21q39 5 49 12q9 6 39 18.5t41 26.5q3 3 12 10.5t14 14 t7 14.5q12 16 20 35t16 45t13 39q11 38 11 96q0 29 -3 64q0 25 43 30q16 -6 59.5 -12.5t65.5 -17.5q42 -36 52 -99q3 -20 4 -39q0 -40 -15 -75q-3 -9 -1.5 -19t-1 -19t-11.5 -12q-5 -12 -14.5 -33.5t-14.5 -33.5q-2 -7 -12.5 -18.5t-12.5 -18.5q-5 -11 -26.5 -27.5 t-24.5 -31.5q-40 -8 -55 -31q-8 -3 -24 -8t-29 -10.5t-23 -12.5q-16 -2 -68 -6q-47 -4 -64 -4h-3q-15 0 -68 4q-23 2 -49 12.5t-38 18t-42 26.5q-25 14 -47 17q-14 21 -47 43q-24 35 -59 43q1 13 -14.5 34t-10.5 39q-29 64 -35 140q-16 118 -18 178z" />
<glyph unicode="D" horiz-adv-x="987" d="M41 284q0 16 0.5 35t-0.5 39q0 11 0.5 35t1 38t3.5 33.5t9 35.5q-5 12 -5 50q0 22 2 52q4 68 3 94v9q11 85 11 94q12 40 18 117t8 92q-2 23 -2 32.5t2.5 31.5t3.5 32q0 37 9.5 104.5t11.5 83.5q1 16 9 60q5 28 5 48q0 12 -2 21q20 10 21 17q4 0 12 1t12 1q6 2 10 10h21 q9 3 26.5 9.5t31.5 10.5t28 3q6 0 13.5 4.5t10.5 5.5q15 3 86 8q12 4 34 1.5t34 0.5q13 -4 48.5 -9.5t53.5 -13.5q7 -4 30 -10t32 -14h2q3 -6 10 -6h17q0 -5 4 -13q22 -3 41 -15.5t40 -34t33 -29.5q6 -13 30 -39t30 -45q15 -17 30 -54.5t25 -52.5q3 -24 18 -66t19 -57v-2 q0 -1 1 -3t1 -3q-10 -7 -7 -22t13 -25q1 -17 0 -31t0.5 -31.5t5.5 -31.5q-4 -13 -1.5 -39t-0.5 -41q-1 -4 -1 -24t-7 -29q-3 -19 -5.5 -57t-8 -67t-19.5 -53q-2 -20 -13 -56t-13 -54q-13 -22 -15 -33q-5 -4 -8 -11t-5.5 -16t-4.5 -14q-5 -8 -14 -25t-13 -24 q-14 -12 -37.5 -43t-40.5 -43q-6 -16 -29 -35t-30 -28q-9 -6 -26.5 -20.5t-26.5 -20.5q-28 -8 -47 -37q-2 -4 -17.5 -9t-13.5 -14q-68 -31 -94 -37q-13 -3 -34 -16t-34 -16q-8 -3 -19.5 -9.5t-21 -11t-20 -8.5t-22 -2.5t-21.5 8.5q-11 -2 -22.5 14t-27.5 6q-6 -1 -22.5 -4.5 t-27.5 -3t-19 7.5q-7 2 -22 4.5t-21 4.5q-11 7 -21 18t-21.5 26.5t-17.5 22.5q5 11 -10 17.5t-4 21.5q-3 33 -5 75q-1 25 -1 47v27zM279 240q10 -1 26 8t23 10q10 1 24.5 12t20.5 13q3 2 43 27t55 46q30 20 35 29q27 17 66 62.5t44 50.5q6 10 28 36.5t28 45.5q7 9 13 33 t13 34q4 7 7.5 24t7.5 25q9 21 15 46t12 56.5t10 47.5q8 44 8 87t-8 87q2 5 -2 14q4 4 4 10q-7 46 -37 115q2 4 2 7.5t-2 7.5l-3 6t-5 6.5t-5 5.5q-7 15 -40 63q-8 6 -29.5 10t-28.5 9q-14 7 -41.5 7.5t-36.5 2.5q-6 0 -26 3t-29 1q-14 -11 -49 -18t-49 -21q-11 -7 -15 -19 t-4 -29t-2 -25q-1 -17 -11 -62t-9 -70q-4 -8 2 -14q-7 -19 -7 -58.5t-8 -58.5q10 -5 7.5 -28t-0.5 -29q-20 -108 -25 -129q5 -4 0.5 -20.5t-4.5 -20.5q3 -16 -3 -44t-3 -44q2 -17 0 -49t0 -47q-9 -9 -9 -22.5t9 -22.5q3 -6 -3 -14t-5 -11q6 -4 1 -27.5t-5 -27.5 q2 -20 2 -42.5t-1 -50.5t-1 -44z" />
<glyph unicode="E" horiz-adv-x="956" d="M41 306q0 16 0.5 34t-0.5 37q3 21 5 89.5t11 104.5q10 29 13 58q0 5 5.5 19t2.5 22q0 2 -0.5 10.5t0 13t2.5 10t6 9.5q0 26 2.5 54t5.5 50t9.5 54t10 49.5t12 53.5t11.5 50q14 10 4 20q13 30 11 43v5q0 25 8 66q9 45 10 59q3 31 17.5 103t15.5 112l18 6q2 -2 8 -2 q51 4 74 16q13 0 19 4q32 8 196 33q23 8 69.5 8t61.5 2q9 -1 28.5 1t29.5 1q17 -5 52.5 -5t51.5 -5q9 -5 24 -24t31 -21q-4 -18 2 -21q6 -5 9.5 -15t5.5 -13q24 -28 26 -51q11 -14 -4 -29q3 -28 -2 -47q-12 -6 -31 -25q-21 -18 -53 2q-6 0 -23 0.5t-25.5 1.5t-22 4t-23.5 9 q-9 -1 -30.5 -6t-30.5 -6t-31 3q-7 -1 -27 -5t-28 -5t-29 0q-9 1 -18 1q-31 0 -46 -15q-26 -5 -59 -29q-9 -14 -9.5 -44.5t-8.5 -43.5q26 2 65 18q16 -4 24.5 -3t24.5 5t25 5q6 5 43 4t43 0q59 -5 74 -13q44 -44 67 -81q0 -9 4 -11q-6 -8 2 -16q0 -4 4 -4v-4q10 -10 10 -33 q0 -13 -3 -29q1 -4 1 -7q0 -31 -40 -52q-4 0 -15.5 -0.5t-18 -0.5t-15.5 1.5t-15 5.5q-11 -1 -31.5 1.5t-31.5 0.5q-141 -24 -176 -35q-46 -12 -73 -12q-11 0 -18 2q-5 -27 -15 -82.5t-15 -83.5q2 -9 -7 -23.5t-4 -25.5q0 -19 -2.5 -41t-5.5 -36.5t-8.5 -41.5t-7.5 -37 q-5 -9 -3 -29t-3 -28q-2 -27 -3 -82t-3 -82q-4 -11 -5 -16.5t4.5 -6.5t10.5 -0.5t12.5 2t11.5 1.5q23 -7 70 -7q19 0 41 1q5 6 31.5 0.5t31.5 -5.5q7 6 59 2t58 -4q7 -3 35.5 -8t40.5 -20q4 -8 27.5 -39t29.5 -51q-2 -9 7.5 -23t5.5 -22q-4 0 -2 -14l2 -15q-9 -38 -33 -68 q-15 -3 -43 0t-43 0q-103 7 -187 15q-7 0 -18.5 5t-17.5 5q-12 -7 -45.5 -4.5t-45.5 0.5q-46 -4 -126 -8q-19 13 -47.5 44.5t-41.5 41.5q3 7 0 10q-12 12 -18 16q-1 0 -2 1t-2 1q-13 8 -10 21q-6 5 -10.5 25t-14.5 26q-3 30 -5 68q-1 23 -1 44v26z" />
<glyph unicode="F" horiz-adv-x="862" d="M43 102q-2 26 -2 47q0 31 4 50q-2 1 -2 75q1 37 1 93q2 167 1 168q2 20 6.5 83t9.5 97q1 36 7 140q5 88 4 142v19q5 21 6.5 61.5t5.5 59.5q14 182 14 317q17 -2 49 6.5t39 9.5q15 5 45.5 7.5t44.5 7.5q6 2 17 2h10q22 0 56.5 6t56.5 7q5 0 10 -1q10 2 34 -0.5t34 2.5h9 q23 -1 63 3q34 3 57 4q10 0 18 -1q23 -3 45 0q17 -9 47 -16q20 -10 37 -10q2 -2 13 -16.5t14.5 -19t11 -17.5t9 -21.5t1.5 -20t-4 -22.5q-9 -6 -30.5 -17t-32.5 -20q-5 0 -17 2t-18 2q-9 -4 -14 -5t-6 1.5t-0.5 5.5t1 7.5t0.5 7.5q-5 -2 -12.5 -8t-11.5 -7q-41 -5 -129 -6.5 t-133 -7.5q-11 -6 -31 -5.5t-31 -0.5q-4 -4 -4.5 -10.5t1 -15.5t1.5 -13q-1 -9 -1 -20q0 -24 3 -60q-10 -19 -6 -57q-9 -15 -2 -33q3 -4 7 -4t10.5 2t9.5 2h11q34 0 89 5q65 7 100 7h3q35 0 96 -12q8 -2 29 -17t38 -10l2 -1q-8 -5 -6 -7q5 -10 17.5 -27.5t15.5 -21.5 q0 -13 -6.5 -24t-20 -24.5t-16.5 -17.5q-23 -8 -62 -8h-26q-21 1 -39 2q-30 0 -49 -4q-10 -5 -32.5 -3.5t-35.5 -2.5q-42 -15 -87 -15q-14 0 -28 1q-23 9 -32 6q-10 -15 -4 -51t0 -52q-3 -20 -3 -64v-23v-15q0 -50 -6 -72q-5 -11 -5 -37t-9 -38q-2 -13 -2.5 -49t-7.5 -56 q-3 -62 -3 -134q0 -43 1 -89q0 -5 -4.5 -12.5t-3.5 -12.5q6 -16 7 -33.5t-0.5 -40t-0.5 -34.5q-1 -7 1.5 -31t-1.5 -31q-6 -4 -24 -18.5t-29 -20.5q-23 5 -56 -10q-6 1 -20.5 6.5t-22.5 5.5q-19 15 -39 15q-6 7 -24 33t-31 36z" />
<glyph unicode="G" horiz-adv-x="1015" d="M43 344q2 13 2 33q0 18 -1 41q-1 20 -1 35q0 25 2 39q4 15 0 40q1 37 4 107t4 104q4 41 22 118t23 114q24 95 33 119q2 5 12.5 31t12.5 42q9 16 36 69t46 79q9 16 22.5 33.5t23 28t27.5 30.5t25 27q11 5 33.5 18.5t40.5 21t36 9.5q0 6 -4 14q20 -3 61 -3h14q6 1 11 1 q44 0 64 -4q5 -2 17.5 0.5t23 2.5t14.5 -9q1 -6 11.5 -7.5t11.5 -2.5q13 -10 52.5 -30.5t55.5 -39.5q52 -45 84 -107.5t33 -128.5q-6 -17 -2.5 -48.5t-1.5 -47.5q0 -17 -10 -20q-4 -1 -12.5 -5t-13.5 -6t-13 -3.5t-15 -0.5q-13 -6 -29.5 5t-27.5 8q-6 0 -22 4q-3 6 -12.5 14 t-12.5 14q-1 5 -11.5 13t-9.5 16q-2 11 -12 33t-12 33q-4 10 -14 84q4 18 -5.5 34.5t-27.5 22.5q-33 -4 -45 -12q-13 2 -28 -10.5t-21 -14.5q-6 -5 -33.5 -22.5t-36.5 -32.5q-4 -6 -13 -13t-10 -8q-1 -12 -6.5 -22.5t-16.5 -23t-15 -17.5q0 -13 -12.5 -34t-14.5 -32 q-4 -22 -14 -28q-3 -4 -9.5 -21.5t-13.5 -23.5q0 -48 -12 -68q-3 -16 -10.5 -45.5t-10.5 -44.5q4 -44 -10 -60q-11 -20 -13.5 -61t-9.5 -59q0 -38 -2 -45q4 -19 -4 -27q-9 -70 -9 -146q0 -21 1 -42q-7 -11 -7 -38q0 -14 2 -31q4 -37 4 -56q0 -8 -1 -13q1 -12 6.5 -25.5 t10.5 -21.5t14.5 -22.5t13.5 -20.5q20 -13 45 -10q74 9 137.5 56.5t94.5 115.5q-8 -1 -34 -10t-42 -8q-53 34 -66 61q-17 40 -20 45q-3 12 -5 36t-5 36q1 13 8 33.5t8 27.5q-5 25 6 31q13 6 80 26q18 11 42 18t39 9t47.5 4.5t41.5 3.5q107 0 160 -2q17 0 29 -7.5t27.5 -26.5 t19.5 -23q4 -11 24 -35t19 -43q13 -37 13 -73q0 -8 -1 -15q-3 -8 -13.5 -20.5t-13.5 -18.5q-23 -10 -74 -10q0 -26 -10 -53q-1 -3 -6 -18.5t-6.5 -19.5t-6 -17t-8 -19.5t-9 -16t-12 -17t-13.5 -13.5q-5 -4 -8.5 -9t-6 -12t-4.5 -10q-21 -9 -37 -41q-14 -7 -30.5 -31.5 t-32.5 -29.5q-7 0 -14 -11t-15 -10q-4 0 -7 -2t-7 -5.5t-6 -4.5q-4 -2 -14 -4.5t-17.5 -6.5t-11.5 -10q-25 4 -39 -8q-10 0 -29.5 -3.5t-27.5 -4.5h-25.5h-29t-26 0.5t-29 2.5t-25.5 4.5t-27.5 7t-24.5 10.5q-14 1 -36 12.5t-35 13.5q-14 23 -43 41q-36 36 -52 62 q-37 37 -84 133q-1 6 -8.5 25t-5.5 30z" />
<glyph unicode="H" horiz-adv-x="954" d="M43 129q-1 42 -1 82q0 148 9 281q-1 28 2.5 60t9 70t7.5 60q1 35 8.5 113t7.5 120q3 31 16.5 102.5t14.5 110.5q26 189 33 312q0 9 3 18t9 21.5t8 17.5q13 0 29 4q12 1 26 0t31 -3t27 -3q33 0 47 -2q-3 -10 4 -12q35 -18 67 -76q1 -12 1 -27q0 -20 -2 -50q-3 -40 -3 -62 v-9q-5 -11 -5 -37q0 -13 1 -30q-6 -18 -7.5 -53t-2.5 -41q-3 -5 -3.5 -11.5t0.5 -15.5t1 -12q-5 -19 -9.5 -65.5t-13.5 -69.5q1 -8 -4 -31t0 -29q0 -8 -4.5 -29t-3.5 -34q44 1 124.5 10.5t109.5 11.5q14 -3 25 9.5t7 27.5q2 20 2.5 56.5t1.5 48.5q0 11 5 42.5t2 47.5 q5 10 7.5 21.5t4 27t2.5 22.5q1 42 12 140q10 90 10 142v9q-1 9 2 20t6 17t10 18.5t9 16.5q-1 1 -4 3t-4 3h104q-1 -7 2 -12t9 -7t11 -3t13 -2t10 -1q16 -1 34 -22.5t28 -26.5q11 -19 15 -42t5 -52t4 -45q0 -11 -4 -40.5t-2 -47.5q2 -19 1 -27t-5.5 -26.5t-5.5 -26.5 q5 -37 -4 -51q-2 -20 -2 -64q5 -16 -8 -41q-4 -41 -7.5 -122.5t-7.5 -122.5q-3 -19 -3 -58q1 -7 1 -14v-11q0 -41 -4 -59q5 -25 5.5 -78.5t6.5 -80.5q0 -6 -3 -17.5t-3 -17.5q3 -34 3 -92q-1 -10 -1 -20v-28q0 -53 2 -85q5 -22 4 -52t-16 -49q-15 8 -24.5 -6t-16.5 -14 q-3 -1 -12.5 -2.5t-13.5 -2t-12.5 -1t-13.5 0t-11.5 2.5t-12.5 5q-10 0 -28 10t-31 8q-14 39 -29 45q-15 10 -32 43q-7 55 -7 155.5t-4 156.5q1 10 1 22q-1 35 -5 89q-4 48 -3 81q0 18 1 33q-20 3 -61.5 -0.5t-59.5 0.5q-57 -7 -97 -7q-27 0 -46 3q-13 -31 -10 -43 q-2 -20 -8.5 -68t-9.5 -82.5t-3 -66.5q-2 -8 -1 -35t-7 -33q4 -14 2 -41t2 -41q-5 -29 -5 -77v-25q0 -22 1 -41q0 -38 -2 -62q-7 -6 -14 -22.5t-15 -22.5q-14 3 -41.5 -9.5t-44.5 -4.5q-15 0 -36.5 11t-32.5 13q-5 7 -21 21.5t-22 24.5q-2 6 -19 26.5t-12 36.5z" />
<glyph unicode="I" horiz-adv-x="667" d="M42 155q2 37 15 62q6 7 11 27.5t12 27.5q14 -1 29 -4t33.5 -7.5t27.5 -6.5q0 211 14 315q-3 11 -1.5 39t2.5 39.5t5 39.5t5 40q1 46 9.5 132t10.5 124q4 12 4 44.5t10 47.5q3 27 7.5 84t7.5 84q-11 5 -24 5t-29 -2.5t-25 -2.5q-30 12 -64 70q-9 59 -9 125q0 18 1 37 q6 1 17 0t20 0.5t16 5.5q9 4 30.5 8t31.5 8q5 3 14 -3t15 -3q14 4 43.5 4.5t44.5 5.5q16 1 44.5 -3.5t41.5 -4.5q20 1 54.5 -4t45.5 -6q13 -7 51 -15q2 -12 20 -32.5t15 -38.5q9 1 15.5 -7t4.5 -16q-5 -14 2 -39t5 -37q-8 -6 -16.5 -23t-18.5 -26.5t-27 -5.5q-7 -2 -19 6.5 t-22 3.5q-11 0 -16.5 -10.5t-5.5 -21.5q-2 -19 -11.5 -57.5t-11.5 -57.5q-8 -13 -9 -40.5t-5 -39.5q1 -8 1 -17q0 -31 -8 -79q-10 -62 -12 -80q0 -88 -18 -174q0 -94 -10 -139q3 -18 2.5 -40.5t-0.5 -35.5t-2.5 -43t-3.5 -37q-14 -28 -6 -53q-4 -14 0 -47q-18 -18 2 -54 q33 7 55 0q24 -9 41 -47t26 -47q1 -3 1.5 -21.5t7.5 -25.5q3 -19 2 -27.5t-8 -26.5t-9 -26q-5 -1 -14.5 -8.5t-15.5 -9.5q-20 -2 -40.5 -2.5t-44.5 1t-39 3t-44.5 5.5t-40.5 5q-9 4 -29.5 2t-30.5 2q-15 -4 -40.5 1t-37.5 3q-8 -3 -16 -3q-25 0 -55 30q-9 7 -16 27.5 t-15 27.5q-3 20 -3 45v20z" />
<glyph unicode="J" horiz-adv-x="940" d="M42 444q0 5 2 11.5t7 9.5q4 0 14 2t16.5 2.5t15.5 -0.5t16 -4q23 -11 41 -55t30 -56q1 -8 5.5 -15t8 -11.5t12.5 -10t12.5 -7.5t15 -7t12.5 -6q12 -3 34.5 -10t37 -10.5t34.5 -6t37 -0.5q9 3 29 2.5t35 3t22 15.5q18 5 33.5 19t23 26t20 37t17.5 33q18 23 29 71 q-4 46 -4 72v6q1 26 5 78.5t5 79.5q5 12 -3.5 31t-4.5 30q5 19 3.5 63.5t6.5 61.5q6 31 6 127q-1 7 -1 10.5t2.5 11.5t3.5 11q-1 9 -1 21q0 27 5 68t5 68q0 12 -1 21q-15 -3 -33 -3.5t-29.5 0t-33.5 2t-31 1.5q-7 1 -22.5 -4t-24.5 -2q-6 1 -23 -4t-22 0q-51 0 -76 -13 q-21 3 -38.5 16.5t-23.5 33.5q-4 5 -13.5 16.5t-14 17.5t-11 16.5t-10 20.5t-4.5 21q1 15 -3.5 39t-6 39t5.5 39q8 9 54 7t55 -1q21 13 66 16t56 6q16 0 122 1h18q89 0 104 -5q5 -1 38.5 -11.5t51.5 -12.5q5 -9 21 -20.5t20 -20.5q7 -14 26.5 -34t26.5 -34q23 -52 23 -91 q0 -11 -2 -22q-4 -25 -5.5 -52t-1.5 -62t-1 -50q-2 -7 1 -33t-7 -30q3 -17 1.5 -45t0.5 -43q-8 -22 -6 -61.5t-3 -61.5q3 -16 1.5 -47t1.5 -47q-5 -2 -7 -4q-1 -19 -2 -57t-2 -56q5 -8 -3.5 -21.5t-2.5 -23.5q-9 -124 -18 -164q-4 -18 -8 -53t-10 -62.5t-19 -50.5 q2 -20 -27 -41q2 -22 -22.5 -46.5t-28.5 -37.5q-10 -5 -25 -19.5t-22 -19.5q-9 -1 -20 -10.5t-17 -11.5q3 -10 -5.5 -11.5t-21 -1t-16.5 -5.5q-3 -6 -14.5 -9.5t-14.5 -5.5q-32 -9 -73 -11q-23 -1 -43 -1q-15 0 -29 0.5t-29 0.5q-20 0 -43 -1q-3 2 -10 5t-11 5t-10 3.5 t-12 0.5q-67 23 -88 23q-14 8 -34.5 28.5t-32.5 28.5q-7 11 -29 41t-34.5 52t-18.5 46q-1 6 -11 22.5t-4 27.5q0 21 -2.5 43.5t-7 53.5t-6.5 44q0 3 -0.5 11t-0.5 13z" />
<glyph unicode="K" horiz-adv-x="1021" d="M41 729q1 17 1 49v58q0 18 -1 34q0 52 4 74q0 47 2 70q10 28 2 53q1 37 9 127q8 80 8 126v11q6 17 8.5 34.5t3 47.5t0.5 37q-3 10 0 18.5t10.5 18.5t9.5 14q7 -2 29.5 -3.5t32.5 -8.5q13 -2 41 -2t43 -2q8 -11 29.5 -25t27.5 -20q16 -38 20 -82q2 -27 2 -59 q-1 -20 -1 -41q-1 -31 -1 -54q0 -18 1 -30q-8 -9 -7 -26.5t-2 -27.5q-2 -12 -0.5 -43t-3.5 -41q-2 -9 -0.5 -30.5t0.5 -30.5q4 -5 6.5 -4.5t6.5 3.5t6 3q13 3 26 14t21 21q2 1 8.5 10.5t13.5 9.5q6 0 6 8q2 2 5.5 6.5t5.5 6.5l2 4q8 4 10 6q59 66 96 121q24 31 90.5 144 t120.5 161q26 5 66 8q28 4 41 4q18 0 34 -4h17q12 -12 31 -12q4 -3 14 -10t15.5 -11.5t11.5 -12t8 -15.5q12 -14 10 -38t-20 -34q1 -16 -18.5 -33t-22.5 -22q-4 -11 -23 -25q-11 -35 -31 -53q-19 -48 -35 -60q-4 -10 -12 -30.5t-12 -30.5q-7 -4 -15.5 -18.5t-15.5 -18.5 q8 1 8 -2q-1 -6 -16 -10q-3 -4 -15 -25t-20 -30q-2 -10 -15.5 -26t-15.5 -26q-1 -1 -5 -4q-18 -15 -4 -18h3q14 -4 25.5 -11.5t28 -24t20.5 -19.5q8 -18 25 -52q0 -7 -3.5 -22t-3.5 -23q4 -8 11.5 -15.5t18.5 -17t16 -14.5q5 -9 14 -35q9 -8 18 -27.5t13 -25.5 q13 -21 27.5 -64.5t25.5 -62.5q6 -12 6 -41q6 -7 9.5 -26.5t8.5 -26.5q-1 -14 1 -28.5t5.5 -33t4.5 -28.5q8 -1 7 -8.5t-4.5 -14.5t1.5 -12q0 -3 3 -13t1 -16q0 -5 4.5 -32.5t-4.5 -32.5q-6 -6 -4.5 -23.5t0.5 -23.5q1 -6 1 -16q0 -17 -3 -48l-2 -2q-9 -18 -9 -37v-4 q-10 -14 -12 -16q-8 -9 -28 -20t-27 -17h-82q-6 5 -32.5 20t-33.5 29q-8 4 -20 19t-23 18q-11 7 -12 33t-2 30v21q0 213 -59 399q-12 38 -45 92q-6 19 -29.5 47.5t-28.5 36.5q-5 1 -16.5 9t-20.5 6q-12 12 -26 -15h-4q-26 0 -72 -22q-7 0 -40 -2.5t-40 0.5q-6 -11 -7.5 -24 t0 -33t1.5 -27q-3 -16 -3 -35t1.5 -42.5t1.5 -35.5q-4 -13 1.5 -43t-1.5 -43q-4 -10 0.5 -32t1.5 -33q2 -10 -0.5 -34.5t2.5 -31.5q-8 -14 -8.5 -30.5t3.5 -39.5t5 -32q-1 -15 4.5 -48.5t3.5 -50.5q1 -9 11 -43q-18 -24 2 -26q-13 -2 -34 -20.5t-38 -16.5q-4 -1 -15 -3 t-16 -2.5t-13.5 -1t-15.5 1.5t-14 5q-13 1 -24 7t-23.5 16.5t-19.5 15.5q-9 23 -37 55q-2 26 -8 78t-9 84t-5 76q-1 30 -1 56v26q-8 48 -8 129q1 15 1 29v52q0 65 -3 107z" />
<glyph unicode="L" d="M44 628q6 120 7 146q5 28 7 59t2.5 75t0.5 59q4 17 4.5 50t0.5 38q11 18 8 37q0 10 -2 16q3 48 8 103t12 121t10 104q-4 20 -4 45q2 2 10.5 6t10.5 8q20 2 39 1l39 -1q-5 0 -11 -6q4 -1 13.5 -7t15.5 -7q16 6 45 -13q12 -4 25 -12.5t20.5 -15.5t20.5 -19.5t18 -17.5 q8 -28 8 -59.5t-8 -65.5q-10 -22 -10 -67l1 -10q0 -45 -9 -69q-11 -66 -25 -295q4 -25 3 -49q0 -37 -9 -69v-12q0 -25 -3 -65q-4 -50 -5 -63q-3 -98 -11 -170q3 -15 3.5 -32.5t0.5 -39t1 -34.5q46 -32 96 -35q17 -1 79.5 -1.5t96.5 -6.5q4 -1 16.5 2.5t16.5 -0.5 q22 -5 53 -5q41 0 98 9q11 8 18.5 7t20 -5.5t19.5 -3.5q8 -2 14.5 -7.5t9.5 -9t8.5 -13t6.5 -11.5q17 -14 27.5 -35t18.5 -48.5t15 -41.5q1 -4 1 -5t-2 -3.5t-3 -3.5q-2 -7 -4 -21.5t-4 -21.5q-12 -6 -15 -21q-9 -3 -25 -13.5t-29.5 -15.5t-27.5 -1q-9 0 -51.5 -5t-50.5 1 q-11 -2 -26 -2q-19 0 -46 3t-46 3q-16 0 -27 -2q-15 10 -18 6t-6 -11.5t-9 -5.5q-28 13 -60 9q-11 5 -32.5 6t-28.5 2q-9 2 -30.5 -0.5t-30.5 0.5q-18 -1 -24 -1t-23 2t-23 3q-18 14 -35 20q-13 9 -22.5 35.5t-20.5 34.5h-20q-30 12 -33 12q-3 4 3 3q8 0 8.5 0.5t-1.5 2.5 q-33 5 -53 50q-4 8 -9 38.5t-18 40.5q-9 102 -9 188q0 33 1 64q-4 13 -4 52q0 35 3 93z" />
<glyph unicode="M" horiz-adv-x="1488" d="M41 131q-2 7 2 12q2 13 0.5 44t1.5 44q2 24 13 173.5t26 226.5q-4 22 2 61.5t6 46.5q1 20 9 93q5 45 5 78q0 21 -2 36q6 9 9 21t4.5 26.5t3.5 22.5q3 8 0.5 27.5t1.5 27.5q3 22 9.5 90.5t12.5 106.5q4 123 33 192q1 3 6.5 3.5t11.5 -1t11 -0.5t4 6q19 3 31 9q41 0 61 2 q15 7 48 6.5t46 7.5q70 0 117 -23q-1 -5 -0.5 -6.5t7.5 -3t9 -2.5q36 -36 50 -100q27 -45 32 -90q9 -9 11 -13q0 -19 18 -84q10 -7 6 -26q0 -16 4.5 -33.5t11 -38.5t9.5 -33q0 -2 -4.5 -7.5t-1.5 -8.5q8 -9 7.5 -29t2.5 -30q27 -116 29 -187q1 -8 3.5 -45t10.5 -55 q1 -3 1.5 -13.5t2 -18.5t6.5 -9q3 11 19 48t18 58q5 8 16 31.5t19 34.5q33 122 76 190q2 3 5.5 8.5t5.5 9t3.5 9t-0.5 8.5q25 25 42 84.5t32 81.5q13 22 24.5 68.5t16.5 60.5q5 12 14 35t15 37t16 33.5t20 35.5q46 0 70 3q18 -7 39.5 8.5t33.5 15.5q29 3 55 3q68 0 107 -23 q9 -11 37 -11q-1 -15 16 -41t13 -45q-1 -8 3.5 -47t-3.5 -47q-4 -8 -1.5 -25.5t-0.5 -25.5q-3 -4 -0.5 -20.5t2.5 -20.5q2 -17 -4 -59q-4 -24 -4 -42q0 -14 2 -24q0 -28 -3 -83t-3 -81q-5 -9 -5 -45q-3 -12 0 -35t0 -34q-6 -12 -12 -27q7 -26 7.5 -61.5t-1.5 -53.5t-9 -63 q0 -36 -2 -74.5t-6.5 -93t-6.5 -74.5q1 -18 -7 -51t-8 -49q-3 -99 -22 -211q-1 -12 -11 -20.5t-24 -10.5q-24 -6 -48.5 -6t-49.5 6q-7 9 -26 19.5t-23 13.5q-14 14 -24 50t-24 50q14 240 23 305q-3 20 1 61.5t1 63.5q6 9 3.5 30t2.5 32q1 34 4 100t4 100q-4 16 -0.5 49.5 t-1.5 47.5q-1 5 2 15.5t2 16.5q-7 1 -8.5 -1.5t-3.5 -12.5q-24 -32 -22 -57q-28 -18 -39 -72q-18 -13 -23 -29q-3 -19 -16.5 -52.5t-16.5 -41.5q-2 -7 -11 -19.5t-9 -19.5q-1 -3 -7 -15.5t-3 -19.5q-3 -14 -17 -44.5t-16 -49.5q-6 -20 -23.5 -59.5t-23.5 -61.5 q-7 -9 -14 -20t-11 -19.5t-9.5 -22.5t-7.5 -21t-7 -24t-7 -22q-2 -6 -6.5 -17t-7 -17.5t-4.5 -17t-2 -19.5q-7 -13 -20 -62q-19 -35 -70 -65q-8 0 -21 -12t-26 -5q-17 10 -27.5 -6.5t-25.5 -7.5q-17 3 -43 25.5t-37 27.5q-1 3 -4 11t-5 12t-5.5 9.5t-8 8.5t-10.5 4l-7 10.5 t-6.5 10.5t-4 11.5t1.5 12.5q-33 240 -60 394q-5 32 -22 117.5t-21 133.5q-27 151 -33 205q-3 2 -7 -1t-3 -7q3 -19 -1.5 -54t-4.5 -46q-1 -13 -6.5 -43t-5.5 -47q-2 -13 -4.5 -60t-12.5 -71q2 -16 2 -31q0 -46 -16 -84q-2 -76 -19 -217.5t-20 -202.5q2 -31 2 -42t-4.5 -43 t-5.5 -42q-26 -33 -103 -41q-16 -5 -28.5 0t-28.5 21t-22 20q-16 -4 -19 -2t0 8t-2 10q-14 14 -20 29q-2 2 -7.5 7t-7.5 7.5t-6.5 8t-5 8.5t-2.5 10z" />
<glyph unicode="N" horiz-adv-x="1138" d="M43 152q4 68 4 307q-2 18 4 58.5t2 62.5q4 42 10.5 125.5t10.5 125.5q8 24 8 67v5q0 4 -1 8q0 41 5 62q-7 9 -1 37t5 37q-1 15 7.5 49t4.5 53q-1 14 -1 31q0 45 7.5 116.5t7.5 116.5q0 17 -1 31q-1 3 -6 13t-3 16q18 18 29 16q6 0 7.5 4.5t-1.5 9.5h86q3 -1 9.5 -2 t9.5 -2q-2 0 -2 -2t2 -2q9 0 26 -1t25 -1q0 -2 4 -2h-2q1 0 2 -1t2 -1t4.5 -1t5.5 -1q7 -3 19.5 -12.5t19.5 -12.5q10 -5 16.5 -13t12.5 -22t8 -18q0 -25 8 -51t23 -58t20 -47q4 -10 8 -40t13 -44q36 -32 41 -67q3 -7 7 -29.5t11 -32.5q1 -17 11 -48.5t10 -49.5 q3 -18 20 -39q4 -22 8 -31q7 -9 14 -35t15 -36q9 -10 19 -33t14 -29q6 -10 16 -42.5t25 -45.5q2 -10 9 -29.5t9 -29.5q7 -6 15 -22.5t14 -22.5q6 -11 14 -36.5t17.5 -43t25.5 -29.5q-1 14 2.5 53.5t-0.5 53.5q6 37 5.5 57t-4 57.5t-3.5 57.5v11q0 27 4 71q4 53 4 65 q-1 8 -1 19q0 52 12 172q5 6 5 14.5t-2 18.5t-1 16q-2 17 3.5 46t6.5 36q6 50 10 145q4 13 14 60t19 71q34 11 69 11q28 0 58 -7q67 -15 108 -61q1 -7 6 -23t5.5 -22.5t-2.5 -22.5q-6 -16 -8 -50t-9 -50q-5 -21 -9 -97t-24 -114q5 -42 5 -154q-6 -18 -7 -41t0.5 -41 t-0.5 -42q-2 -31 -5 -92.5t-5 -92.5q-8 -16 0 -43q-1 -11 -1 -57.5t-7 -71.5q4 -13 2.5 -37t1.5 -37q-10 -12 -6 -46.5t0 -47.5q0 -2 -1 -12t0.5 -16t6.5 -11q1 -12 1 -24q0 -35 -7 -70q-4 -2 -20.5 -23t-34.5 -16q-14 1 -27 -3.5t-28.5 -13t-24.5 -11.5q-9 -2 -29 -5.5 t-29 -5.5q-14 1 -36.5 19.5t-38.5 19.5q-3 11 -16.5 27t-16.5 22q-2 5 -10.5 8t-10.5 7q-8 24 -33.5 60.5t-31.5 47.5q-12 29 -35 56q-8 19 -35.5 60.5t-36.5 66.5q-20 29 -47.5 88.5t-36.5 76.5q-3 22 -21.5 57.5t-23.5 49.5q-5 13 -20.5 43t-20.5 47q-9 2 -12.5 -2.5 t-3.5 -18v-14.5q0 -47 -16 -141q3 -8 0.5 -45t-2.5 -45q1 -5 -4 -11.5t-5 -7.5q5 -20 -1.5 -58t-4.5 -54q-4 -28 -4 -80v-21.5v-22.5q0 -52 -4 -81q0 -13 -2.5 -43t-1.5 -47q7 -18 -3.5 -36.5t-29.5 -21.5q-15 -14 -45.5 -12t-48.5 -2q-10 -3 -14.5 -2t-14.5 6t-14 6 q-4 11 -21 25.5t-22 21.5q-2 4 -5 14.5t-5 14.5q-3 7 -13.5 17.5t-16 21t-1.5 23.5z" />
<glyph unicode="O" horiz-adv-x="995" d="M45 815v10q1 29 5 77q6 56 5 81q1 14 9 50t8 57q18 83 18 112q11 28 28 81.5t23 70.5q13 16 21 43q19 19 37 55q8 6 31 19t34 22q4 0 11.5 -1t11.5 -1q23 9 45 9q26 0 49 -13l30 6l-2 -1q-14 -7 -10 -11q3 -2 8.5 -7t9.5 -7.5t9.5 -5t11 -2t11.5 4.5q49 10 86 10 q33 0 57 -8q85 -10 135 -63q17 -6 40 -29.5t36 -30.5q4 -7 10 -20t12 -23.5t15 -17.5q28 -46 45 -65q47 -100 47 -168q0 -9 10 -51q5 -24 5 -42q0 -13 -3 -22q1 -3 4.5 -10.5t3.5 -12.5q-8 -8 -5 -55t3 -55q4 -17 -1 -46.5t-3 -43.5q4 -14 -4 -39t-6 -39v-78q-13 -16 -6 -41 q-5 -9 -4 -27t-4 -26q-9 -70 -21 -90q4 -15 -5.5 -42.5t-4.5 -41.5q-2 -3 -6.5 -9t-7 -11.5t-3.5 -10.5q-3 -20 -11 -39.5t-21.5 -44t-18.5 -35.5q-4 -3 -18 -24.5t-31 -20.5q-6 -1 -10.5 -5t-8.5 -13.5t-5 -10.5q-8 -5 -29.5 -12.5t-30.5 -15.5q-7 -2 -55.5 -17t-73.5 -20 q-7 1 -36 1q-14 -1 -34 -1h-7q-53 0 -60 8q-10 4 -21.5 7t-25 5.5t-21.5 4.5q-4 14 -27.5 23t-29.5 20q-13 15 -46.5 36.5t-47.5 38.5q-4 4 -17.5 19t-19 22t-15 20t-15.5 24.5t-9 23.5q-3 7 -14 33t-16 43t-7 36q-3 23 -21.5 102t-17.5 124q-11 51 -11 135q0 42 3 92z M311.5 673.5q1.5 -20.5 7.5 -60t7 -60.5q1 -35 17 -103t17 -104q9 -16 24 -49t17 -37q2 -3 6.5 -18.5t12.5 -18.5q17 -5 35 -30.5t30 -32.5q7 -5 11.5 -4.5t12.5 3.5t11 3q18 -2 47 6q68 84 82 174q7 21 14 60.5t13 56.5q0 11 4 39t2 43q12 66 12 100q13 150 13 197v6 q6 11 0.5 63t-5.5 64q-3 13 -5 40t-5 40q-5 5 -3 13.5t1 17t-10 8.5q0 4 -0.5 14t-1 16t-3.5 13.5t-9 11.5q1 21 -22 49.5t-26 34.5q-30 49 -40 61q-9 4 -21.5 17t-20 17t-26.5 -1q-6 -4 -11 -5.5t-8 -1t-6 4t-4 5.5t-3.5 8t-2.5 7q-8 -5 -17.5 -7t-22 -3t-19.5 -2 q-14 -27 -24.5 -55t-24.5 -76t-17 -57q0 -38 4 -56q-6 -6 -8.5 -14t-3 -21t-0.5 -16q-6 -9 -8 -20t-2.5 -26t-1.5 -23q14 -23 -4 -31q-1 -21 -6 -67.5t-6 -66.5v-9q0 -20 3 -58q-7 -39 -5.5 -59.5z" />
<glyph unicode="P" horiz-adv-x="1165" d="M41 1333q3 8 3 34.5t11 37.5q20 2 43 18q6 1 8.5 10t5 11.5t19.5 -4.5q4 2 20.5 7.5t24.5 10.5q40 12 83 19t103 13t84 9q16 2 39 2q29 0 67 -3q50 -4 80 -4q12 0 21 1q8 -3 27 -10t33 -11.5t28 -7.5q12 0 23.5 -4t28 -13.5t22.5 -12.5h25q3 -6 6 -9q-2 -2 -2 -6 q-1 -4 3 -5t9 -1.5t6 -3.5q41 -57 94 -98q1 -3 5.5 -13t7.5 -16q17 -13 37.5 -46.5t31.5 -45.5q10 -9 21 -34t20 -34q7 -36 23 -57q6 -9 9 -32t9 -31v-3q2 0 2 -4h-4q-1 -22 0.5 -62.5t1.5 -53.5q3 -23 2 -32.5t-7.5 -32t-8.5 -32.5q-6 -9 -10 -33t-11 -34q6 -14 -8 -21 q-1 -10 -14 -25.5t-14 -25.5q-1 -6 -5.5 -11.5t-12.5 -11t-11 -8.5q-7 -10 -23 -26.5t-22 -24.5q-7 1 -13 -7t-10 -9q-14 -11 -31 -20t-39 -18t-34 -15q-20 -2 -67.5 -9t-73.5 -8q-9 2 -31 -1.5t-29 1.5q-18 8 -48 7t-48 1q-13 13 -45 17q-12 0 -31 16t-35 12 q-4 -15 -4.5 -20t2.5 -19.5t4 -19.5q-2 -11 -2 -31q0 -18 2 -40q1 -14 0 -25q0 -30 -6 -45q3 -20 5.5 -72t9.5 -80q-1 -20 12 -72q8 -31 8 -53q0 -16 -4 -28q-21 -7 -33 -19q-34 -6 -61 -6q-22 0 -39 4q-14 0 -25 19h-35q5 14 -2 18q-5 4 -8.5 15.5t-7.5 15.5 q-5 15 -16.5 45t-16.5 45q-10 101 -14 121q-13 35 -17 83q-2 30 -2 57q0 15 1 29q1 15 1 32q0 25 -2 53q-2 9 -1.5 25.5t-0.5 25.5q2 13 -0.5 46t2.5 46q-4 6 -0.5 41t3.5 43q4 12 -1.5 34.5t-3.5 32.5q-3 14 1.5 46t-1.5 45q-1 4 8 16.5t-1 19.5q1 22 6 69t6 71q9 23 9 60 q0 12 -1 26q-29 -5 -39 -15q-24 0 -53 11q-10 7 -26.5 23.5t-26.5 23.5q-6 25 -23 53q1 10 -2.5 27.5t-3.5 25.5zM436 793q1 -4 2 -14t4 -16.5t9 -10.5q39 0 108 -15q18 1 57.5 3.5t62.5 4t56 7t60 14.5q100 29 141 94q2 9 8.5 31t8 30.5t4 31.5t-2.5 32q-5 13 -9 39t-9 39 q-19 21 -43 61q-14 11 -27 31q-5 7 -13 14t-18.5 14.5t-15.5 12.5q-7 10 -27 11t-26 7q-2 1 -11 0t-10 5q-41 16 -59 20q-12 -2 -30 -2q-22 0 -52 3t-52 3q-18 0 -30 -2q-32 -5 -39 -12q-4 -21 -6 -62.5t-6 -62.5q-1 -5 -3 -48.5t-13 -64.5q-4 -25 -6.5 -53.5t-4 -64.5 t-2.5 -54q-9 -18 -6 -26z" />
<glyph unicode="Q" horiz-adv-x="929" d="M42 679q1 39 1 44q2 88 37 313q6 11 8.5 35t7.5 33q4 8 4 30t11 29q2 13 10 36t10 36q19 30 16 55q17 16 38.5 56.5t37.5 56.5q5 11 14.5 21.5t22.5 21.5t19 18q1 2 18 13q42 9 137 22l8 -4q39 -11 80 -37q4 -8 19 -53q13 -8 52 -15t54 -24q14 -1 24 -9t20.5 -22.5 t15.5 -19.5q19 -8 32 -24.5t24.5 -42.5t18.5 -36q10 -13 21 -40.5t18 -38.5q8 -11 13.5 -36.5t13.5 -35.5q3 -24 10.5 -61t12 -60.5t7.5 -60.5t-4 -62q2 -20 6.5 -76t8.5 -86q-3 -16 -3 -55t-5 -59q-13 -39 -9 -56q1 -19 -11 -56.5t-9 -59.5q-18 -37 -21 -88 q-9 -17 -38.5 -76t-49.5 -88q-6 -4 -2 -8q0 -5 -2 -7q-2 0 -6.5 -1t-7.5 -1q-12 -7 -33.5 -23.5t-32.5 -23.5q-5 -8 -14 -12.5t-23 -7.5t-18 -4q-16 -11 6 -33q11 -11 19.5 -47t29.5 -45q2 -9 5.5 -19t7 -16.5t10.5 -17.5t10 -15l12 -16t11 -15q2 -5 7 -16.5t6.5 -17 t3.5 -17.5t-1 -18q-1 -7 -6 -13.5t-9.5 -10.5t-12.5 -10t-11 -9q-10 -2 -31.5 -3t-31.5 -3q-4 1 -20 6.5t-22 7.5t-19 8t-19.5 11t-14.5 13t-14 17q-2 7 -13 14t-13 13q-5 12 -20 33t-19 34q-8 7 -16 28t-17 28q-3 15 -18.5 47t-16.5 53q-20 10 -65 14q-14 3 -36 18.5 t-34 18.5q-12 12 -27 15q-10 14 -34.5 40.5t-34.5 40.5q-2 14 -18 32.5t-19 31.5q-14 16 -24.5 51t-18.5 49q-32 137 -32 255q0 36 3 71q-6 3 -5 42zM299 569q9 -27 9 -57q0 -17 -3 -35q4 -7 2.5 -22.5t1.5 -24.5q3 -25 10.5 -75t10.5 -76q23 -72 49 -109q18 -10 57 -10 q66 32 105 86q2 6 11 15t11 15q1 1 15 30t16 46q-1 9 7.5 23.5t8.5 23.5q10 21 19.5 62.5t15.5 56.5q-1 10 8 43q2 7 1.5 25.5t2.5 27.5q5 20 5 57.5t2 59.5q0 15 -2.5 45.5t-2.5 46.5q-1 7 -2 50.5t-12 64.5q-9 11 -11 35t-7 33q-5 7 -3 32.5t1 32.5q-4 9 -10.5 36.5 t-14.5 41.5q-10 10 -20 38t-13 34q-52 63 -98 79q0 3 7 8.5t5 10.5q-12 0 -18 -2q-4 -9 -13.5 -31t-18 -37.5t-19.5 -29.5q-6 -11 -13.5 -36.5t-13.5 -37.5q-2 -5 -16 -22.5t-9 -32.5q-4 -8 -4 -15q-12 -15 -12 -37q2 -2 2 -8q0 -5 1 -15t1 -14q-2 -6 -6.5 -16.5t-7 -18.5 t-2.5 -16q-3 -27 -10 -73.5t-12 -85.5q-3 -32 -3 -61v-13q-4 -20 -4 -63q0 -6 1 -12v-9q0 -44 -5 -64z" />
<glyph unicode="R" horiz-adv-x="1124" d="M42 1338q2 38 24 61q9 -2 13 -0.5t11.5 6.5t11.5 6q2 1 19 7.5t26 6.5q12 12 29 19q1 4 -0.5 6t-4.5 4l-3 2q8 -2 18 -2q30 0 76 14q52 15 81 15h9q13 5 28 7t34.5 3t29.5 2q27 4 71 4q30 0 67 -2q62 -4 86 -20q11 -5 37.5 -9t39.5 -10q4 -2 21 -4t20 -12q5 -10 16 -16.5 t26 -11.5t22 -9q5 -5 20.5 -19t26.5 -23t23 -15q60 -65 104 -162q1 -10 5 -19.5t10.5 -20t9.5 -16.5q-3 -4 -1.5 -12t3 -11.5t5.5 -11t5 -10.5q1 -4 5 -24.5t11 -28.5q0 -8 -1 -18q0 -39 7 -105q-2 -53 -43 -149q-5 -8 -15 -31t-20 -37t-26 -22q-9 -15 -37.5 -32.5 t-36.5 -33.5q-15 -3 -24 -12q-11 -7 -66 -21q-21 -17 -39 -12q-6 3 -11 -6t-11 -8q-2 -1 -8.5 -2.5t-10 -3t-7 -5t-3.5 -8.5q6 -7 18 -24t19.5 -27t19 -23t23.5 -22q10 -19 40 -44t40 -38q14 -8 40 -29.5t42 -29.5q11 -12 23 -39.5t20 -38.5q23 -35 23 -90q0 -8 -1 -17 q0 -1 -3.5 -17t-2.5 -24q-3 -3 -9 -11l-9 -12t-10 -11.5t-11 -9.5t-12.5 -7t-14.5 -3.5t-16 1.5q-13 12 -41 26.5t-41 26.5q-3 3 -11 3.5t-11 3.5q-6 10 -15 20.5t-14 15t-20.5 17.5t-16.5 14q-10 15 -36.5 40.5t-35.5 41.5q-10 14 -29.5 39t-29.5 39q0 19 -22 37 q-6 20 -30.5 50.5t-31.5 45.5q-3 9 -18.5 21t-16.5 24q-13 4 -22 13.5t-17 23.5t-14 20q-1 10 -4.5 38t-4.5 42.5t4 36t17 37.5q4 4 6.5 8.5t4 11t2.5 9.5q8 9 22.5 28.5t22.5 28.5q16 -2 43.5 7.5t42.5 8.5q5 2 25 8t28 13q20 0 51.5 14.5t48.5 16.5q29 22 78 37 q10 7 30 25.5t32 25.5q4 7 4.5 21t5.5 20q-1 4 -2.5 26t-7.5 31q0 57 -54 111q-18 9 -39 34q-15 4 -41.5 22t-44.5 19q-11 2 -35 12.5t-40 10.5q-31 13 -92 13q-15 0 -33 -1q-38 -5 -47 -10q-9 -15 -13 -45t-8 -41q-2 -15 -8.5 -51.5t-10 -63.5t-3.5 -53q-4 -24 -15.5 -82 t-17.5 -101q-5 -36 -4 -71v-12q-1 -8 -3.5 -63.5t-7.5 -84.5q-4 -23 -4 -67.5t-4 -67.5q-3 -13 -3 -40v-30q1 -28 2 -47q0 -15 -1 -24q-2 -16 -2 -40q0 -35 5 -84.5t5 -83.5q0 -23 -2 -40q-30 -35 -49 -27q-2 -8 -8 -9.5t-12.5 0t-14.5 -0.5q-19 -1 -45 19t-41 22 q3 14 -8 21t-24 2q6 20 -3 56t-4 54q-18 164 -18 254v17q0 6 1 55.5t-5 54.5q8 16 8.5 48t1.5 36q9 104 12 201v5q0 31 10 85q11 58 11 86q8 27 13 81.5t7 68.5q-6 1 -18 -7t-20 -6q-18 -21 -54 -21q-6 0 -12 1q-3 2 -12.5 6t-14.5 6.5t-10 8t-6 12.5q-1 4 -10 9.5t-8 12.5 q2 6 -13 16q0 3 -6.5 25.5t-1.5 34.5q-3 19 -3 42q-1 12 0 24z" />
<glyph unicode="S" horiz-adv-x="913" d="M41 295q2 8 1.5 41.5t8.5 38.5q-5 32 8 39q6 50 41 80q5 0 16 1t18 1.5t15.5 -2.5t14.5 -9q7 -7 25.5 -15.5t25.5 -16.5q31 -15 49 -49q17 -30 17 -61v-7q-1 -10 -14.5 -19t-16.5 -16q-6 2 -23 2q-11 6 -21.5 -2.5t-11 -19.5t10.5 -17q56 -21 80 -26q29 -2 62 -2 q25 0 52 1q64 3 111 21q115 39 154 104q1 4 1 8q0 22 -28 54q-2 6 -5.5 11t-6.5 9t-8.5 9t-8.5 8t-9.5 8.5t-8.5 7.5q-8 15 -33 33t-33 27q-26 9 -51 34q-9 0 -17 5t-17.5 14.5t-14.5 13.5q-7 3 -24.5 16t-28.5 15q-4 1 -8 4t-6.5 5.5l-6.5 6.5l-6 6q-25 21 -41 21 q-17 25 -49 41q-8 8 -43 39t-51 51q-7 10 -22.5 29.5t-22.5 29.5q-8 24 -19 35q-1 4 -5 13.5t-5.5 14.5t-3.5 15t0 15q-4 9 -7.5 30.5t-8.5 32.5v19v47q1 20 1 35q0 20 -1 30q5 14 18.5 59.5t27 74t33.5 52.5q3 3 10.5 11.5t14 12.5t14.5 3q11 21 30.5 35.5t50.5 30t42 22.5 q19 0 51.5 14.5t49.5 14.5q11 -1 29.5 6t25.5 8q22 2 53.5 2t73.5 -2q16 -2 40.5 -13t31.5 -13q6 -1 14 -10t14 -11q22 -22 70 -49q27 -7 45 -51q2 -4 9 -7.5t9 -5.5q48 -91 48 -162q0 -37 -13 -69q-2 -7 -11.5 -22t-10.5 -25q-19 -12 -17 -25q-3 -3 -13 -7.5t-13 -10.5 q-10 -15 -40.5 -34.5t-41.5 -33.5q-8 -3 -22.5 -10t-22.5 -10q-15 -27 -47 -37.5t-60 2.5q-5 6 -19.5 12t-17.5 15q-46 53 -46 90q0 4 1 8q-13 32 -13 55q0 11 3 19q3 6 14.5 7t14.5 3q90 50 118 67q8 3 18 16.5t19 16.5q12 6 37 47q1 6 1.5 9.5t-4.5 7t-8.5 5t-9.5 4 t-8 3.5q-45 -2 -131 -14q-8 -2 -27.5 -6t-33.5 -8.5t-25 -12.5q-18 4 -45 -12.5t-43 -14.5q-7 0 -13 -9.5t-9 -10.5q-37 -19 -49 -57q-9 -3 -16.5 -10.5t-10.5 -14.5t-7.5 -19.5t-6.5 -17.5q0 -11 -13 -18q-1 -7 -2.5 -20t-3.5 -24t-6 -20q1 -2 3 -8.5t3 -9t3 -8t3.5 -8 t4.5 -7t5.5 -7.5t6.5 -6t8 -5q9 -6 26.5 -24.5t28.5 -24.5q11 -14 43.5 -27.5t42.5 -28.5q17 -4 44 -25.5t42 -27.5q7 -8 25.5 -16.5t25.5 -16.5q3 -5 14.5 -10.5t14.5 -11.5q3 -4 17.5 -8.5t17.5 -12.5q8 -13 38.5 -35.5t37.5 -41.5q9 -5 17 -11t15.5 -15.5t12 -15.5 t13 -19t11.5 -17q14 -16 34 -48t24 -38q-3 -2 -11 -5q-9 -3 -9 -5l10 -1h12q2 -6 7.5 -21t8.5 -23t5.5 -20.5t2.5 -23.5q6 -21 6 -44q0 -14 -2 -29q5 -10 2.5 -29t-5 -28t-9 -27.5t-8.5 -26.5q-15 -8 -31 -31.5t-26 -31.5q-5 -9 -23 -18.5t-24 -18.5q-7 -4 -25 -17 q-15 1 -41.5 -14t-44.5 -10q-4 1 -6 -0.5t-4.5 -5t-3.5 -4.5q-17 -3 -50.5 -9t-46.5 -8q-19 -4 -41.5 -5.5t-38.5 -1t-44 2.5t-40 2q-19 7 -57 24.5t-57 24.5q-9 10 -33.5 24.5t-34.5 24.5q-3 3 -11 8t-13 10.5t-7 12.5q-1 4 -4 7t-7.5 6.5t-6.5 5.5q-1 1 -12 19.5t-13 29.5 q-1 1 -4 3t-5 3.5t-4 3.5t-2.5 4.5t0.5 5.5t3 6q0 14 -4.5 36.5t-5.5 31.5z" />
<glyph unicode="T" horiz-adv-x="1263" d="M41 1372q8 14 10.5 45t9.5 45q21 10 65 12t64 11q-7 11 7 11q4 0 13 -2l15 -1l-10 -10q19 0 19 3q1 3 -3 7h291q15 0 47 8q15 0 53.5 1.5t59.5 1.5t52.5 -0.5t58.5 -3.5t53 -9q27 -3 72 -2q7 -1 15 -1q11 0 21 1q41 0 66 -2q-1 -11 6.5 -16.5t22 -9t18.5 -5.5 q48 0 63 -29q72 -66 91 -163q3 -12 -11 -50q-2 -3 -5 -12t-6.5 -14.5t-8.5 -9.5q-9 0 -24.5 -5t-22.5 -6q-7 5 -26 10.5t-27 10.5q-3 3 -12 1.5t-13 2.5q-8 6 -24.5 10t-20.5 6q-27 0 -93 6q-48 4 -81 4q-12 0 -21 -1q-9 7 -22 4.5t-21 -13.5q-2 -12 -2.5 -46.5t-7.5 -53.5 q0 -5 2 -23.5t0 -30.5t-10 -22q0 -7 3 -56t-1 -56q-7 -8 -5 -37.5t1 -38.5q-5 -33 -5 -91q1 -14 1 -30v-35q0 -55 -4 -88q-2 -14 -2.5 -58.5t-8.5 -68.5q2 -20 2 -34q0 -21 -4 -31q-3 -12 2.5 -40t-0.5 -40q0 -29 0.5 -33t-4 -32.5t-4.5 -31.5q7 -17 7 -47q0 -12 -2 -28 q-2 -20 -1 -36q0 -25 4 -42q-12 -32 -8 -51q-16 4 -35 -14t-34 -15q-10 -2 -20.5 -2t-18.5 1t-20 6t-17 7t-18.5 9t-16.5 8q0 1 -1 5t-2 4.5t-3.5 3t-5.5 -0.5l-2 2q-5 5 -11 8q0 7 -6 10q-10 11 -16 26.5t-7.5 26t-2.5 31t-2 27.5q4 40 4 112.5v88.5q-1 18 -0.5 51 t-0.5 59.5t-5 50.5q5 37 9 110.5t9 109.5q-3 47 -3 87q0 51 5 89q4 26 4 72v12q0 8 -1 15q0 44 3 71q1 14 -0.5 35.5t-1 41t7.5 35.5l-4 4q-7 0 -30.5 0.5t-34.5 0t-28.5 -2.5t-31.5 -6q-17 2 -40 2q-26 0 -59 -2q-64 -6 -81 -6q-11 -10 -25 -13t-35 -2t-28 1 q-3 4 -21.5 21.5t-23.5 31.5q-1 5 -16 25q-7 15 -11.5 31.5t-9 42t-6.5 34.5z" />
<glyph unicode="U" d="M42 615v47q0 50 2 111q3 91 3 130q4 21 6 63.5t6 63.5q-3 33 -3.5 44.5t4.5 44t6 44.5q8 35 11.5 100.5t6.5 86.5q4 16 6 34.5t3.5 40t2.5 33.5q-3 9 1.5 18.5t13.5 12.5q11 7 33.5 7.5t29.5 2.5q10 3 21 0q4 -2 13.5 0.5t14.5 -0.5q5 -1 20 -4.5t25 -7.5t17 -10 q10 -7 28 -11q4 -9 18.5 -31.5t20 -40.5t0.5 -38q-15 -60 -15 -102q0 -11 1 -21q1 -6 -4 -16t-6 -13q-5 -9 -1.5 -34.5t1.5 -36.5q2 -15 -4 -43.5t-5 -42.5q2 -2 7.5 -5.5t7.5 -5.5h-10.5t-10 -1t-4.5 -6.5t6 -16.5q1 -11 1 -25q0 -34 -4 -85q-5 -71 -5 -99q1 -7 1 -17 q0 -21 -4 -52q-4 -37 -3 -58v-8q2 -19 2.5 -92.5t9.5 -114.5q-1 -7 -1 -16q0 -19 5 -50q0 -17 9 -69q8 -7 12 -25.5t8 -24.5q6 -15 6 -30q6 -17 27.5 -38t26.5 -28q7 0 26.5 -4.5t32.5 -2.5t20 15q7 6 15 21t12 20q43 102 45 172q41 257 47 299q4 25 10.5 84t12.5 90 q3 14 2.5 50.5t7.5 48.5q1 31 7 91q4 62 6 92q0 10 1 23q0 27 -2 68q2 14 2 33.5t-2 46.5q3 12 3.5 25.5t0 22.5t-2 26t-1.5 24q1 6 5 11.5t7 9t9.5 9.5t7.5 7q9 2 31.5 1.5t31.5 2.5q5 6 18 5t21 2q14 -7 51 -11q-2 -14 15.5 -27t21.5 -20q13 -10 11.5 -35.5t3.5 -40.5 q8 -12 1.5 -38t0.5 -39q6 -10 2 -37t-2 -37q4 -20 5.5 -42.5t1.5 -52.5t1 -44q4 -16 -2.5 -44.5t-5.5 -41.5q7 -10 -2 -25t-4 -25q-2 -20 -4.5 -53t-5.5 -60.5t-7 -51.5q-7 -20 -9.5 -60.5t-8.5 -58.5q-1 -46 -13 -128t-14 -114q-2 -9 -8.5 -52t-17.5 -63q1 -16 -3 -33.5 t-10.5 -38.5t-9.5 -32q-30 -74 -76 -102q0 -1 -1 -2.5t-1 -2.5l-2 -2q-1 -1 -3 -2t-3 -2l-12 -6q-2 0 -12 -5t-17 -5q-5 -7 -22 -10t-23 -9q-46 -16 -101.5 -16t-119.5 16q-15 -1 -28.5 3.5t-31 14.5t-24.5 13q-9 2 -21.5 11t-19.5 12q-87 87 -125 155q-1 1 -8.5 20.5 t-14.5 26.5q-9 20 -17 58.5t-13 52.5q-4 14 -7.5 48.5t-11.5 51.5q-9 61 -11 128z" />
<glyph unicode="V" horiz-adv-x="1040" d="M45 1456q9 -1 26.5 -3t26.5 -3q46 -4 83 -4q27 0 50 2q11 -7 19 -10q14 -6 34 -24t29 -23q9 -8 11.5 -27t7.5 -25q4 -7 0 -22.5t0 -22.5t4 -23t4 -24q25 -184 27 -223v-2q0 -1 1 -3t1 -3q-2 0 -4 -2q-2 -20 7.5 -56t10.5 -45q-5 -16 -1.5 -44.5t-0.5 -43.5 q20 -90 31 -163q5 -17 4 -63t10 -62q2 -5 -2.5 -13.5t-3.5 -13.5q16 -56 26 -125q3 -5 8 -5t8.5 4.5t2.5 10.5q6 17 17 62.5t22 68.5q9 26 33 125q0 21 14 57t16 52q21 46 31 108q5 7 6.5 25.5t7.5 24.5q25 61 27 88q6 6 6 16h4q15 63 19 72q0 29 10 59q-2 21 14 45 q3 28 19 78.5t20 69.5q3 12 8.5 48.5t14.5 55.5q2 2 2 12q0 1 1 2t1 2v2q2 2 2 5l2 24q15 0 31 4q12 1 34.5 -3.5t32.5 -4.5q34 -5 41 -12q11 -36 47 -39q31 -31 37 -45q14 -24 14 -51q0 -30 -16 -64q-20 -92 -25 -111q3 -24 -12 -53q-10 -44 -20 -76q-5 -7 -8 -20l-3 -4h3 q-3 -3 -3 -6q0 -2 -4 -2q-7 -23 0 -49q-11 -16 -16.5 -50t-11.5 -47q-3 -38 -32 -108.5t-32 -108.5q-3 -12 -17 -39.5t-16 -44.5q-6 -44 -32 -123t-33 -116q-8 -33 -33 -103q-1 -22 -15.5 -59.5t-15.5 -59.5q-6 -48 -49 -88q-6 -1 -22 -5.5t-21.5 -4t-23.5 3.5q-7 -5 -15 -2 t-10.5 4.5t-9 8l-8.5 8.5q-8 4 -21.5 -5t-15.5 -10q-11 -7 -23.5 -9.5t-31.5 -2.5h-25q-8 6 -26 13.5t-25 13.5q-18 10 -31.5 27.5t-27.5 44t-21 36.5q-2 10 -9.5 52t-13.5 65q-11 25 -16 75.5t-12 71.5q-2 7 -4 22t-2 17q-9 25 -14.5 73.5t-10.5 68.5q-28 227 -64 432 q2 11 -2 32q-5 30 -9.5 96t-10.5 101q-7 24 -13.5 74t-13.5 74q4 22 -6 34q-11 13 -4 33z" />
<glyph unicode="W" horiz-adv-x="1724" d="M41 1475q16 9 34.5 12.5t45.5 4t37 1.5q7 5 19 3.5t18 -3.5t18 -7t18 -7q6 -1 21 -2t22 -2q-3 0 -10 -7q5 -8 23 -18t24 -18q0 -9 9.5 -29.5t5.5 -34.5q-2 -9 -2 -27q0 -16 2 -38q3 -37 2 -57v-9q4 -24 7 -95t13 -108q10 -5 4 -7t-13.5 -5t7.5 -18q-3 -14 2.5 -39.5 t3.5 -38.5q10 -107 17 -135q3 -23 11 -95.5t16.5 -121t21.5 -93.5q-6 -17 6 -45q-3 -5 -1 -20t3 -21t5 -21t5 -20q12 17 24 54.5t21 52.5q6 13 21 49.5t24 56.5q19 47 47.5 140t44.5 135q6 11 11.5 35t11.5 34q3 11 8.5 31t9 35.5t5.5 30.5q97 20 118 24q8 -3 17 2 q38 7 73 7q61 0 115 -21v-2q2 -7 19 -19.5t18 -25.5q1 -7 7.5 -61t15.5 -81q2 -28 8 -58.5t15 -68t13 -57.5q7 -12 14 -39.5t15 -40.5q4 -6 4.5 -23t5.5 -24q6 -8 8 -29.5t7 -29.5q5 -10 10 -35.5t14 -36.5q3 -1 4.5 -1t2.5 2t1.5 3.5t1 4.5t0.5 5q5 12 16.5 33.5t14.5 26.5 q2 21 17 47q3 15 34 127q8 10 13.5 33.5t9.5 31.5q1 5 6 18.5t7.5 23.5t2.5 20q14 24 25.5 57.5t16.5 51t15.5 66.5t12.5 56q2 21 12 60.5t12 60.5q26 148 37 277q2 10 -1 36.5t3 34.5q1 3 3 5t5.5 2h5t6 -1.5t5.5 -1.5h96q8 -8 19 -12q2 -2 2 -4q5 -2 16.5 -6.5t17.5 -7.5 t14 -8.5t13 -12.5q41 -22 53 -88q3 -9 -5 -27.5t-3 -29.5q6 -18 -1 -49t-7 -41q-1 -7 -2.5 -21.5t-3.5 -25t-6 -19.5q-3 -41 -10 -83.5t-21 -105.5t-18 -83q-3 -19 -18 -63.5t-17 -69.5q-1 -4 -2.5 -14t-3 -16t-4.5 -13.5t-7 -12.5q-1 -3 -3 -13t-4 -15.5t-7 -10.5 q-4 -3 -6.5 -13t-5.5 -13q-8 -8 -8.5 -29t-1.5 -24q-6 -3 -9.5 -10t-5 -12.5t-3.5 -15t-3 -12.5q0 -3 -1 -9.5t-1 -10.5q-17 -10 -23 -33q-3 -12 -16 -36.5t-16 -39.5q-2 -12 -2 -32q-3 -7 -16.5 -36t-16.5 -46q-9 -14 -19 -42.5t-16 -39.5q-2 -21 -9.5 -42.5t-20 -47 t-17.5 -39.5q-4 -4 -13.5 -11.5t-13.5 -11.5q-13 -2 -54 -2t-62 -8q-7 -5 -17 -6t-22 0t-17 0q-7 0 -22.5 10t-26.5 4q-10 -7 -16.5 -4t-9 7t-5.5 12t-6 12q-15 11 -34 37.5t-23 31.5q-6 19 -23 64t-24 70q-3 7 -11 34.5t-16 40.5q-15 48 -38 137.5t-29 112.5q-2 5 -7 5 t-6 -5q-3 -7 -8 -20.5t-8.5 -24t-5.5 -20.5q-8 -7 -13.5 -25.5t-7.5 -21.5q-2 -12 -15 -36t-13 -40q-16 -36 -31 -51q2 -21 -18 -45q-4 -19 -17.5 -55t-17.5 -54q-18 -33 -43 -88q-7 -8 -18 -34t-25 -34q-33 -2 -97 -2q-2 4 -10 8v7q-31 4 -39 24q-15 -2 -43 -6t-43 -6 q-12 18 -53 18q-2 2 -5.5 11t-8.5 10q-20 8 -37.5 39t-26.5 39q-5 9 -8.5 21.5t-5.5 21.5t-4.5 24t-3.5 23q-5 33 -20.5 97t-20.5 97q-6 19 -8 63t-9 64q-8 16 -12 46t-8 42q-5 44 -21.5 172t-23.5 199q-7 1 -6.5 8.5t3.5 15t-1 11.5q3 18 -1.5 59.5t1.5 57.5 q-8 20 -11 43.5t-4.5 53t-3.5 44.5q-5 24 -5 76.5t-7 79.5z" />
<glyph unicode="X" horiz-adv-x="974" d="M43 158q9 20 22.5 43t21.5 36t28.5 42t25.5 36q43 75 64 103q13 29 45.5 82t44.5 78q3 8 12.5 22t14 26t0.5 25q-24 59 -62.5 178.5t-62.5 178.5q-6 25 -16 53.5t-23.5 63t-20.5 53.5q-6 20 -19 58t-22.5 69t-13.5 59q-1 6 -8.5 22t-7.5 25q9 12 12 27q28 26 96 49 q5 5 12 7t18 4t15 3q71 -3 113 -69q9 -39 33.5 -112.5t33.5 -109.5q4 -6 6 -21.5t7 -21.5q5 -19 19.5 -53t17.5 -43q1 -3 5.5 -21.5t10.5 -25.5q2 -11 6 -22.5t9.5 -26t8.5 -21.5q22 22 25 56h2q4 8 4 10q4 4 4 6q3 7 27 52t33 69q39 58 63 119q2 2 6 7t6 7q4 12 17 34.5 t16 35.5q22 27 35 69l6.5 13t9 15t11.5 9q20 0 41 -6.5t45.5 -16.5t38.5 -14q3 -8 25.5 -33.5t19.5 -46.5q7 -8 8.5 -18t-0.5 -16t-7.5 -18.5t-6.5 -16.5q-9 -8 -17 -28.5t-12 -27.5q-5 -6 -12.5 -26.5t-16.5 -28.5q-4 -14 -10.5 -27.5t-16.5 -31.5t-14 -25q-12 -12 -12 -33 q-23 -12 -23 -28q-10 -25 -32 -69l-29 -58q-20 -61 -47 -103q0 -7 -8.5 -17.5t-8.5 -18.5q-4 -9 -27 -53.5t-30 -69.5q4 -25 10 -35q11 -22 30.5 -74.5t33.5 -77.5q3 -4 8 -19.5t12 -21.5q5 -32 33 -67q4 -30 16 -47q-1 -14 15 -34t14 -36q2 -3 7 -15.5t10 -20.5t12 -13 q3 -32 -6 -60q-30 -25 -37 -32q-4 -1 -13.5 -2.5t-15.5 -2.5t-13 -4.5t-11 -9.5q-19 -6 -49 6t-37 13q-4 1 -23 12t-31 10q-48 86 -82 172q-12 13 -30 70q-3 3 -8 0.5t-6.5 -3.5t-5.5 -5.5t-5 -5.5q-1 -5 -8.5 -19t-7.5 -22q-1 -4 -3.5 -6.5t-7 -5.5t-6.5 -5 q-9 -33 -63 -100q-8 -15 -25.5 -41.5t-23.5 -36.5q-4 -11 -20 -28t-19 -29q-10 -25 -39 -33.5t-53 2.5q-7 4 -25.5 11.5t-31 15t-21.5 18.5q-25 45 -25 84v8q2 4 -3.5 11t-4.5 12z" />
<glyph unicode="Y" horiz-adv-x="1095" d="M41 1458q5 9 21 15.5t18 7.5q8 7 26.5 7.5t24.5 2.5q19 3 42 3q11 0 23 -1q37 -2 60 -18q4 -2 15 -8l16.5 -9t13.5 -9t13 -13t8 -15q29 -34 45 -106q13 -27 28 -78q12 -10 20 -38.5t17 -37.5q5 -18 22 -50.5t21 -51.5q6 -17 22 -49t21 -49q1 -1 6.5 -7t10.5 -6 q9 8 21.5 31.5t21.5 32.5q2 3 4 10t5 12t9 8q14 29 46.5 82t41.5 68q12 26 45 68.5t45 64.5q3 8 13.5 23.5t11.5 25.5q4 6 25 30.5t26 41.5q1 2 2.5 8t3 9.5t4.5 7.5t6 6q9 -2 23 1t25 2.5t18 -10.5q17 6 33 -14q42 -18 71 -70q18 -27 16.5 -59t-20.5 -59q-8 -10 -17.5 -34 t-17.5 -34q-3 -10 -16.5 -24.5t-15.5 -24.5q-17 -37 -80 -117q-5 -8 -15 -26.5t-19.5 -31.5t-21.5 -22q-20 -59 -47 -80q-6 -20 -18 -40.5t-20.5 -32t-37 -44t-42.5 -48.5q8 -20 8 -53v-17q-2 -20 -2 -37q0 -20 2 -35q-9 -15 -6 -55.5t0 -56.5q-13 -30 -7 -62q2 -14 2 -36 q0 -39 -6 -107q4 -13 4 -35q0 -15 -1 -33q-3 -26 -3 -43q0 -16 2 -26q5 -15 5 -30q0 -27 -17 -56q-5 -2 -18.5 -8.5t-19 -9t-19 -7t-20 -3t-21.5 2.5h-3q-19 0 -57 21q-7 -1 -32 4q-3 25 -31 39q3 16 -15.5 39.5t-13.5 41.5v11q0 21 -2 65q-1 18 -1 32q0 32 5 44q0 3 -1 8.5 t-1 7.5q4 28 4 71q0 5 -1 11v32q0 29 1 50q5 30 5 83t2 83q3 6 0 12q-8 21 -20 56t-19.5 56t-22 48.5t-33.5 50.5l-4 4v2q-5 22 -26.5 59.5t-26.5 57.5q-5 25 -26 66t-27 59q-13 19 -29 57.5t-25 53.5q-21 32 -43 100.5t-38 97.5q-2 5 -13.5 15t-11.5 18z" />
<glyph unicode="Z" horiz-adv-x="1048" d="M42 228q3 24 1 30q-1 18 -0.5 23.5t7 20.5t7.5 20q2 3 12 14.5t14.5 19.5t6.5 17l49.5 82.5t65.5 111.5q3 7 -0.5 9t-11.5 2q-2 18 -22.5 41.5t-23.5 29.5q-5 14 -6.5 44.5t-7.5 45.5q13 21 10 37q0 2 -0.5 8.5t0 10t1.5 9t4 8t8 3.5q23 4 100.5 12.5t118.5 18.5 q4 6 42.5 59.5t53.5 83.5q9 14 34.5 39t35.5 43q18 18 43.5 58.5t38.5 56.5q5 9 26 32.5t27 38.5q-11 3 -37 0.5t-39 -0.5q-45 -4 -140 -4q-12 1 -24 1h-20q-98 0 -144 -5q-11 3 -30.5 1.5t-30.5 0.5q-12 0 -33.5 20t-36.5 17q-4 12 -21 34t-20 38q0 34 -20 100q13 16 33 23 q23 -1 76 -4.5t76.5 -3.5t76.5 4q54 -2 86 -1h14q34 0 101 3t100 4q-3 11 4 12.5t15 -2.5q26 3 74 3t59 1q15 1 22 0.5t21 -3t20 -3.5q4 -20 34.5 -37t37.5 -29q-2 -11 11 -18.5t15 -15.5q-1 -7 -1 -10.5t4 -8t6.5 -7t8 -6t7.5 -5.5q11 -42 23 -66q1 -21 1 -26t-8.5 -24 t-9.5 -23q-6 -16 -29 -37.5t-30 -36.5q-11 -7 -24 -25.5t-19 -23.5q-6 -16 8 -23q-8 0 -14.5 -1.5t-13.5 -6.5t-11 -8t-10 -12t-8 -11.5t-8 -13.5l-7 -12q-22 -19 -40.5 -45.5t-38.5 -60t-33 -50.5q6 -1 20 0t23.5 -1t15.5 -9q4 -6 26 -23t25 -33q43 -26 49 -53 q1 -3 7 -25.5t7 -30.5t-2 -23.5t-12 -26.5q-1 -8 -5.5 -12t-10 -4t-11 -2.5t-7.5 -8.5q-21 -4 -28.5 -4.5t-28.5 2.5t-29 4q-10 -2 -16 -1t-16.5 4.5t-15.5 4.5q-16 -3 -28 0q-125 -5 -150 -8q-8 -12 -28 -40t-29 -44q-18 -44 -37 -72q-8 -21 -31.5 -55t-31.5 -51 q-3 -9 -19.5 -34t-17.5 -42h24q42 0 104 4q80 6 126 8h6q45 0 119 -14q7 -4 16 -6t20 -3.5t17 -2.5q6 -8 16.5 -24.5t16.5 -24.5q7 -46 22 -74q1 -12 -1 -24t-7 -30t-6 -24q-11 -5 -23 -24q-8 -4 -18 -5.5t-25.5 -2.5t-19.5 -1q-35 3 -95 3q-78 0 -198 -5q-25 -3 -105 -5 t-122 -11q-1 1 -3.5 4.5t-4.5 5.5t-5 2q-9 0 -16.5 4t-17.5 12.5t-13 10.5q-3 5 -11.5 14t-13 16.5t-4.5 16.5q-7 3 -13 14.5t-13 12.5q-8 0 -8.5 5t2.5 11q-2 1 -8.5 4.5t-8.5 5.5q6 13 -3 33t-5 31q-10 5 -7 29z" />
<glyph unicode="[" horiz-adv-x="542" d="M42.5 361.5q0.5 96.5 0.5 111.5q-2 54 4 154.5t6 142.5q10 143 13 250q-2 10 -1.5 13.5t4.5 12.5t5 13q1 10 7 74t15 98q1 35 15 108t14 111q-9 0 -2 6l2 2l2 2q19 40 10 82q5 2 37 19.5t53 13.5q16 -3 51.5 0.5t51.5 -2.5q9 -1 14 -0.5t14.5 3t14.5 3.5q6 -1 13.5 -1 t16 0.5t13.5 0.5q4 -3 24 -8q29 -33 33 -55q7 -9 11 -30.5t10 -29.5h6q0 -4 2 -6h-4v-59q-3 -5 -8 -15t-10.5 -17t-12.5 -11q-8 -7 -29 -11.5t-24 -5.5q-4 -1 -14.5 1.5t-14.5 -1.5q-8 -3 -10.5 -19.5t-3.5 -19.5q-1 -18 -9.5 -51t-9.5 -49q-1 -11 -10.5 -52t-3.5 -65 q-23 -88 -19 -139q-3 -26 -5 -56.5t-4 -67t-3 -56.5q-3 -24 -4 -83.5t-8 -90.5q1 -13 -3 -52.5t1 -52.5q1 -4 -3.5 -10t-4.5 -8q7 -52 0 -84q5 -54 2 -70q5 -68 -2 -162q-1 -13 5.5 -44t2.5 -48q10 -7 18 -6.5t21.5 4t19.5 2.5q4 1 12 2.5t13 3.5t8 6q-8 2 -8 4q1 4 12 2 q9 -3 8 -10q1 0 6.5 5t7 4.5t7.5 -0.5q1 -1 10.5 -14t15.5 -19q6 -16 12 -35.5t12.5 -42.5t10.5 -37q-13 -62 -28 -86q-18 -11 -55.5 -17t-51.5 -12q-14 3 -20 2t-20.5 -7.5t-20.5 -8.5q-25 4 -41 2q-16 0 -35 19q-6 12 -19 22q3 22 -13 35.5t-38 15.5q-9 6 -17 26t-14 26 q-8 5 -11.5 22t-6.5 21q-7 13 -12.5 44.5t-16.5 45.5q-1 23 -7 85t-5 95q-5 15 -4.5 111.5z" />
<glyph unicode="\" horiz-adv-x="733" d="M42 1519q1 6 3.5 8.5t8 7t7.5 7.5q9 13 37.5 20.5t38.5 18.5q27 4 80 -4q13 -3 24 -10.5t23.5 -19.5t20.5 -17q3 -17 14 -48.5t14 -47.5q19 -6 21 -9q-2 0 -7.5 -1t-7.5 -1q1 -22 13.5 -62t15.5 -58q1 -4 7 -24.5t6 -25t-1 -26.5q19 -65 33 -125q1 -3 2 -20.5t5.5 -28 t15.5 -15.5q-6 0 -8 -2q2 -28 18 -82q6 -8 5 -28.5t5 -28.5q10 -18 16 -54.5t9 -45.5q9 -23 16 -67.5t12 -61.5q6 -12 10.5 -26.5t8 -33.5t6.5 -28q2 -15 11 -48t10 -51q-5 -13 7 -26.5t7 -24.5q5 -11 7.5 -35t8.5 -35q8 -20 17.5 -64.5t17.5 -64.5q8 -10 12.5 -38t16.5 -39 q3 -2 1.5 -8.5t0.5 -10.5q7 -14 14.5 -40t11.5 -36q1 -5 11.5 -13t5.5 -19q2 -3 9 -7.5t8 -7.5t-3 -16q-5 -25 -12 -31q-3 -2 -7.5 -12t-11.5 -10q-12 2 -25 -9.5t-18 -13.5q-6 1 -17.5 -0.5t-21 -1t-16.5 5.5q-11 1 -31 10.5t-32 10.5q-7 0 -10.5 5t-5 14t-3.5 13 q-8 5 -15.5 21t-8.5 18q-2 18 -17 50t-18 49q-2 4 -4 13t-5.5 15t-9.5 9q1 14 1 17.5t-6 17.5t-7 18q-2 16 -13 42.5t-12 31.5q-17 83 -45 167q-30 128 -38 152q-9 32 -21.5 97t-21.5 96q-7 32 -28 114t-30 127q-6 6 -14 10q-1 29 -14 81t-15 73q-8 29 -23 100.5t-28 108.5 q-1 6 -8.5 16t-5.5 17q0 9 -2.5 19t-5 16t-8 18t-7.5 16q-6 6 -5 12z" />
<glyph unicode="]" horiz-adv-x="573" d="M41 -94q2 6 5.5 18.5t5.5 20t7 16t11 14.5q-3 14 16 48q11 11 6 22q1 0 20.5 2.5t22.5 2t23 -2.5q12 1 36.5 2t36.5 2q10 183 23 324q9 59 2 80q12 94 14 141q-6 45 2 126.5t7 113.5q1 43 7.5 122.5t8.5 112.5q3 24 2.5 78t3.5 78q4 17 -4 51q-34 5 -94 -13.5t-66 -19.5 q-65 42 -67 88q-18 22 -9 47q-2 11 -2.5 34t-3.5 36q1 1 5 1.5t6.5 2t3.5 4.5q5 27 22 60q15 -6 40 2.5t32 9.5q57 12 112 18q27 2 38 2t37.5 -2.5t37.5 -3.5q25 -15 29 -18q1 -2 6.5 -15t11.5 -18q3 -3 11.5 -13t13.5 -15t14.5 -9.5t18.5 -3.5q-6 -14 7.5 -32t14.5 -21 q5 -27 9.5 -78.5t6.5 -67.5q0 -6 -1.5 -21t-2 -23.5t0 -21t3.5 -22.5q0 -1 -4.5 -7t-3.5 -11q6 -16 2 -61.5t-2 -61.5q2 -44 -5.5 -125t-8.5 -111q4 -21 -1.5 -57t-4.5 -51q1 -30 -8 -135q2 -46 -7.5 -131.5t-9.5 -122.5q-3 -21 -8 -119q-7 -15 -10 -44t-6 -40 q3 -6 0.5 -21.5t-0.5 -21.5q-2 -13 -1 -24.5t-1 -24.5t-9 -21q16 -99 -12 -149q-3 -1 -10.5 -5.5t-11.5 -6t-12 -3t-13 2.5q-4 2 -8.5 -4t-7.5 -7q-6 -2 -8.5 -2t-9 2.5t-9.5 3.5q-57 6 -172 -2q-8 -4 -17.5 -6.5t-23 -4.5t-18.5 -3q-6 2 -13 6.5t-10.5 8t-10.5 11t-9 9.5 q-11 11 -15.5 40.5t-11.5 39.5z" />
<glyph unicode="^" horiz-adv-x="546" d="M42.5 1197.5q-0.5 4.5 1 11t1.5 8.5q2 1 7 2t7 2q9 20 32 55.5t32 54.5q4 7 27 45t34 60q1 3 5 9.5t6 12t0 10.5q0 10 14.5 18.5t17.5 12.5q12 -2 39 12q50 4 70 -16q9 -5 16.5 -13.5t11 -15t9.5 -19.5t8 -17q4 -6 6 -22t6 -22q5 -5 10 -20q11 -4 16 -24.5t11 -26.5 q1 -7 7.5 -20.5t6.5 -22.5q0 -1 4.5 -10t8.5 -11q1 -7 5 -21.5t5 -21.5q6 -7 11 -26t11 -27q23 -47 13 -80q-2 -1 -19 -15.5t-28 -15.5q-2 0 -13 -1t-18 0t-12 6q-12 2 -22.5 9t-23.5 19.5t-18 16.5q-25 33 -29 55q-2 6 -8 19.5t-8 19.5h-2q0 2 -1 5t-1 5h-2q0 13 -6.5 37.5 t-7.5 30.5h-7q-5 -11 -19.5 -34t-18.5 -36v-2q-4 -4 -5 -4q0 -1 -1 -3t-1 -3q-7 -14 -8 -15t-2.5 -9t-7.5 -9q-32 -36 -45 -68q-2 -5 -11.5 -5.5t-11.5 -4.5q-19 -14 -51 4q-29 7 -37 49q-7 10 -6.5 32t-3.5 32q-4 3 -4.5 7.5z" />
<glyph unicode="_" horiz-adv-x="1189" d="M45 164q4 1 23 3.5t25.5 3.5t23 3t25.5 1.5t22.5 -1t25.5 -2.5t23 -6q32 5 97 8t98 8q109 7 319.5 -2t310.5 -4q7 -5 20 -13.5t22 -14t20.5 -14.5t19 -16.5t15 -18.5t10.5 -21.5t3 -24t-5 -28.5q-24 -28 -61 -31.5t-86.5 5t-73.5 5.5q-150 -3 -224.5 -2.5t-224 4 t-225.5 4.5q-12 4 -36 10.5t-38.5 12t-33 14t-32 22t-22.5 31.5q-53 18 -41 64z" />
<glyph unicode="`" horiz-adv-x="444" d="M43 1993q3 2 17.5 14.5t25.5 13.5q10 1 22 -0.5t20 -3.5l22 -5.5t20 -4.5q20 -3 48 -22.5t40 -24.5q1 -1 10 -7t13 -11t6 -11q19 -36 24 -71q6 -9 15.5 -29t15.5 -29q0 -17 14 -44t17 -40q38 -41 28 -102q-25 -22 -55 -37q-6 0 -18 1t-21.5 1t-17.5 -2q-22 13 -29 16 q-7 1 -17 11.5t-18 9.5q-3 9 -15.5 22.5t-14.5 16.5q-6 6 -12.5 21t-12.5 20q-5 6 -12 19t-11 18q-10 11 -20.5 36t-15.5 33q-8 16 -16 34.5t-17.5 41.5t-14.5 35q-1 4 -11.5 33.5t-8.5 46.5z" />
<glyph unicode="a" horiz-adv-x="796" d="M41 371q4 18 13.5 53.5t13.5 54.5q9 8 19 30.5t19 31.5q4 21 13 30q12 7 28 29.5t27 30.5q4 3 13.5 8.5t15 9t12.5 10t10 13.5q28 34 113 43q6 0 38.5 0.5t45.5 0.5t36 -5t40 -15q12 2 12 26t2 28q-1 16 -5 48t-5 48q-16 40 -43 40q-5 0 -10 -1q-9 0 -24.5 -13t-27.5 -10 q-19 -3 -35 -22q-17 -17 -71 -25h-3q-35 0 -98 41q-53 59 -57 64q-4 10 0.5 18.5t14 18t12.5 14.5q10 27 30 41q30 8 41 16q16 8 34 13t41.5 10t35.5 8q2 5 16 10q2 0 7.5 -1t8 -1.5t5.5 -3t4 -6.5q6 -2 8.5 6t5.5 12t19 -8q11 -3 23 0t24 0.5t16 -14.5q20 -1 72 -33 q34 -9 43 -21q5 -5 27.5 -19t27.5 -30q75 -75 84 -170q21 -66 21 -155q0 -58 -9 -127q-3 -12 -5 -49t-11 -56q-2 -10 -3 -28t-4 -33t-11 -27q-5 -13 -5 -42t-6 -44q-7 -10 -6.5 -36t-7.5 -36q-6 -5 -2.5 -23t-7.5 -20q-11 -5 -11.5 -18t11.5 -16q-2 -1 -7 -2t-7 -2 q-15 -23 -39 -29q-34 -5 -60 -5q-19 0 -33 3q-31 -23 -53 -33q-27 -2 -52 -2q-98 0 -175 31q-10 9 -32 19t-30 16q-1 1 -3 2t-3 2l-2 2q-8 4 -10 6q1 8 -11 15.5t-14 10.5q-58 53 -92 179q-5 13 -5 42.5t-7 45.5zM253.5 312.5q-1.5 -16.5 2.5 -42t4 -32.5q-1 -30 25.5 -48 t62.5 -26q42 19 55 20q4 1 12 1.5t13.5 2.5t9.5 7q17 91 17 98q10 36 18 102.5t14 93.5q-3 11 4.5 30.5t2.5 29.5q1 8 -6.5 9t-12.5 -3q-30 -6 -82 -43q-2 -15 -25 -28.5t-26 -16.5q-62 -84 -78 -123q-9 -15 -10.5 -31.5z" />
<glyph unicode="b" horiz-adv-x="903" d="M41 214.5q0 20.5 4 66.5q1 8 1 23q0 22 -2 60q-1 20 -1 36q0 32 4 46q-3 48 -3.5 61.5t4 62t5.5 61.5q0 97 21 196q0 39 16 109q4 53 25 170q7 34 17.5 101.5t17.5 101.5q11 29 18 82q2 13 10.5 40.5t9.5 43.5q-12 4 -16 4q4 6 11 10.5t13 6l16 4t15 3.5q1 0 13 3t15 2.5 t15 -3.5q12 -4 25.5 -4t30.5 2t26 2q4 -13 27 -24.5t29 -22.5q38 -23 38 -87v-13q3 -18 -7 -48t-11 -38q-2 -7 -4 -28.5t-8 -31.5q-7 -13 -7 -40t-6 -39q-1 -8 -5 -24t-4.5 -24t3.5 -24q3 -10 20 -0.5t21 8.5q4 1 22 3.5t24.5 3t22 2t24.5 1t21.5 -2.5t22.5 -5q8 -3 18.5 -1 t20 -0.5t11.5 -12.5q21 -4 53.5 -26t38.5 -25q15 -8 33 -36t34 -34q3 -11 21.5 -41.5t14.5 -50.5q33 -76 32 -170q6 -18 7.5 -40t1 -38t-2.5 -43t-2 -39q-4 -13 -3.5 -38t-2.5 -38q-5 -12 -4.5 -39t-5.5 -39q-19 -122 -60 -186q-2 -6 -12.5 -20.5t-11.5 -24.5 q-46 -66 -101 -109q-6 -8 -23 -11.5t-22 -6.5q-6 -3 -18 -1.5t-17 -0.5q-12 -4 -20 -4q-9 0 -29 1t-30 1q-5 3 -36.5 6t-37.5 21q-20 6 -56.5 27t-56.5 26q-9 -9 -3 -40.5t5 -41.5q-6 -20 2 -25q-2 -2 -2 -6h-2q-4 -10 -11.5 -18.5t-19 -18t-16.5 -14.5q-23 0 -29 -8 q-9 -1 -27.5 4.5t-27.5 5.5q-10 1 -37.5 12.5t-44.5 10.5v34q-3 2 -10 5.5t-10 5.5q-4 15 -13 47t-14 49q-1 21 -4.5 67.5t-3.5 67zM338 600q0 -11 10 -31t12 -26q2 -11 -0.5 -32t-1.5 -30q4 -13 4 -37q0 -18 -2 -42q-3 -32 -4 -54q0 -16 2 -26q4 -16 6.5 -75t18.5 -87 q21 -32 51 -29q29 22 43 55q10 8 21.5 32t15.5 30q6 12 16 36t15 35q5 9 7 30.5t7 31.5q-3 10 3.5 26.5t6.5 22.5q-3 15 3.5 40.5t5.5 37.5q1 4 0 12.5t0.5 14t7.5 8.5q0 27 -1 83t-1 85q-4 6 -5.5 14.5t-1.5 14t0.5 16t0.5 14.5q-2 19 -10.5 55.5t-10.5 53.5 q-3 3 -8.5 10.5t-8.5 11t-9.5 9t-11 5l-13.5 -1.5q-4 1 -22 7.5t-27 3.5q-6 -6 -25.5 -26t-27.5 -29t-22 -26.5t-21.5 -33.5t-12.5 -33q1 -13 -3.5 -38t-4.5 -36q-8 -17 -1.5 -51t-0.5 -51z" />
<glyph unicode="c" horiz-adv-x="741" d="M45 348q-5 9 1.5 22.5t4.5 20.5q-2 9 -2 24q0 27 8 70q-2 9 -2 22q1 18 5 42q8 42 8 55q10 22 16 66.5t12 62.5q4 9 4 32t9 32q13 16 21.5 50.5t19.5 49.5q20 48 83 111q18 9 41 36q6 3 21 13q43 14 133 18q27 10 45 -2q47 -7 109 -41q14 4 25 -9t20 -13 q9 -10 22.5 -33.5t18.5 -30.5q6 -8 10.5 -29.5t11.5 -29.5q10 -24 9.5 -37t-6 -38t-5.5 -38q-6 -7 -31 -47.5t-49 -52.5q-15 -5 -32 -5q-32 0 -70 19q-3 5 -9.5 15.5t-9.5 15.5q16 88 19 98q2 13 2 27q0 47 -25 90q-24 -4 -34 -10q-16 -20 -25 -29q-14 -13 -25 -30 t-23 -39.5t-20 -34.5q3 -19 -10.5 -52t-13.5 -49q0 -15 -7 -40t-8 -36q5 -16 -6 -43.5t-8 -42.5q1 -4 1 -8q0 -19 -11 -55q-3 -6 -1.5 -23.5t-6.5 -21.5q-1 -11 -1 -38v-32q0 -4 1 -9q0 -48 -6 -62q13 -19 4 -39q12 -12 6 -27q11 -2 18.5 -12.5t11.5 -21.5t13 -19.5t22 -7.5 q18 7 32.5 17t28.5 29.5t19.5 28.5t20 37.5t16.5 32.5q9 2 24.5 6.5t25.5 7t23.5 1.5t24.5 -7q5 -1 11.5 -9t13.5 -5q11 -1 22 -16.5t19 -18.5q5 -2 5.5 -6t-1 -7t-4.5 -7.5t-4 -6.5q4 -19 -10.5 -50.5t-12.5 -47.5q-3 -6 -14.5 -20t-13.5 -23q-3 -4 -14.5 -14t-17.5 -19 t-7 -20q-25 6 -39 -12q-56 -19 -109 -25q-42 2 -119 18q-3 2 -11.5 8.5t-12.5 8t-13 5t-14 -0.5q-6 6 -20 22t-25 25.5t-24 15.5q-65 81 -74 140q-18 16 -24 56.5t-11 51.5z" />
<glyph unicode="d" horiz-adv-x="1071" d="M47 385q-6 48 -6 95q0 55 8 108q1 30 17.5 84.5t19.5 77.5q7 20 24.5 59.5t24.5 60.5q1 1 12 26t25 32q4 14 18.5 33.5t18.5 29.5q2 6 17.5 18.5t13.5 26.5q40 10 65 23q20 1 58 7t49 7q6 7 15 7.5t20 -2t16 -1.5q18 1 36 -4t40.5 -15t33.5 -14q0 -8 5 -10q10 -10 30 -14 q2 -5 12.5 -11.5t12.5 -11.5q4 -8 13.5 -21t15.5 -24.5t8 -23.5q6 0 8 -2v11q0 36 10 99q8 16 12 36t7 44.5t6 36.5q8 13 9.5 40.5t4.5 37.5q6 21 15 69.5t18 73.5q-1 10 2.5 20t10.5 21.5t9 16.5q2 8 4.5 24t4.5 23q3 1 6 8h110q2 -3 11 -8q5 -8 14 -13t21 -9t18 -7 q45 -45 59 -100q-2 -34 -23.5 -103t-21.5 -108q-10 -16 -10 -53t-12 -54h4v-2q-4 -3 -5 -17.5t-6 -19.5q-8 -48 -55 -340q-8 -66 -8 -96q-10 -23 -14 -70q1 -14 1 -32q0 -39 -4 -92q-4 -77 -5 -123v-10q0 -44 8 -113q2 -13 6.5 -52.5t9.5 -60.5v-2v-14q-4 -3 -6 -7.5 t-4.5 -12t-3.5 -9.5q-4 -8 -17.5 -16t-17.5 -15q-38 -8 -58 4q-39 -13 -53 13q-14 0 -23.5 8t-19 23t-14.5 20q-18 29 -23.5 90.5t-15.5 85.5q-5 11 -5.5 34.5t-6.5 35.5q-10 -4 -15 -29q-1 -5 -13.5 -22t-6.5 -29q0 -16 -19 -38.5t-22 -33.5q4 -17 -14.5 -31t-20.5 -24 q-10 -9 -24 -14.5t-24 -7t-28 -4t-26 -3.5q0 -2 2 -2q-26 0 -84 4v2q-6 2 -27 9.5t-34 14.5t-23 17q-15 10 -31.5 25.5t-26 25t-28.5 32t-25 28.5q-9 17 -25.5 53t-25.5 53q-6 15 -17 56t-22 61zM307 432q-3 -21 1.5 -59.5t4.5 -50.5q-2 -24 4.5 -48.5t20 -56.5t18.5 -47 q2 -2 5 -8t7 -8.5t9 0.5q23 14 29 20q1 10 13 22t15 19q4 11 22 46.5t21 57.5q0 5 15 25q11 30 28 87.5t23 76.5q-2 16 6.5 42t9.5 32q-1 15 7 44.5t7 45.5q-1 12 6.5 35.5t6.5 35.5q-2 22 -1 31t5.5 31t5.5 31q-1 2 -23 18q-3 9 -6 40.5t-14 45.5q-3 9 -10.5 11t-18.5 0 t-14 -1q-39 -10 -61 -35q-13 -18 -41 -81q-13 -21 -23 -62t-16 -55q-2 -7 -10.5 -21.5t-10.5 -23.5q-3 -19 -16 -68t-15 -76q-13 -20 -13 -57q0 -18 3 -39z" />
<glyph unicode="e" horiz-adv-x="636" d="M42 506q1 34 7 63q9 23 14 93q10 4 11.5 25t5.5 26q16 24 14 41q8 15 15 41q1 3 13.5 28t12.5 41q11 15 42 70t56 80q3 5 20 17.5t17 25.5q25 9 107 18q24 10 39 -2q25 -13 65 -16q-1 -6 2 -10.5t6 -7t10 -6t9 -5.5q13 -5 39 -31q3 -19 27 -61q21 -38 20 -64v-6 q2 -8 -7.5 -22.5t-4.5 -22.5q2 -4 -0.5 -8t-7 -8t-5.5 -6q-1 -8 0.5 -12.5t-2 -11.5t-4.5 -10t-7 -9.5t-8 -8.5l-8 -8l-8 -8q-7 -4 -29 -16.5t-31 -17.5t-28.5 -14t-32 -13t-30.5 -7.5t-35 -3.5q-8 0 -13 -5t-9.5 -15.5t-6.5 -13.5q-11 -11 -16 -27t-8 -37t-6 -31 q-7 -20 -14.5 -58.5t-12.5 -55.5q1 -25 0 -45t0.5 -44.5t5.5 -43.5q0 -52 29 -99q9 -13 31.5 -25t29.5 -20q5 -1 14.5 -4.5t16 -5.5t14 -0.5t11.5 8.5q43 32 76 32q10 0 18 -3q36 -38 36 -78q0 -6 -1 -12q-21 -21 -45 -39l-11 -8q-6 -3 -12 -9q-34 -4 -51 5q-2 -3 -5 -13 t-7 -11t-19 3q-6 0 -13.5 -5.5t-10.5 -6.5q-84 15 -95 16q-12 16 -44.5 33t-43.5 31q-6 21 -28 28q-6 11 -27 23q-41 80 -57 121q-4 11 -7.5 37.5t-11.5 40.5q-1 22 -4.5 60.5t-5.5 64t-1 59.5zM385 780q12 -1 22 5t20.5 17t16.5 15q3 5 9.5 16.5t10 18.5t7 17.5t4.5 19.5 q0 2 1.5 8.5t1.5 9.5t-0.5 8t-2.5 7.5t-6 3.5q-7 -18 -25 -46.5t-24 -41.5q-27 -27 -35 -58z" />
<glyph unicode="f" horiz-adv-x="894" d="M42 879q0 16 3 30q-9 16 8 37q84 14 103 23q12 23 4 39q12 13 12 50.5t12 51.5q6 35 9.5 52t13.5 44t24 45q5 20 15.5 39t28.5 45t24 37q6 6 20.5 23t26.5 27.5t27 15.5v4q16 3 28 12q9 2 57.5 20.5t76.5 20.5q38 4 57 2t56.5 -10t56.5 -10q-3 -7 1 -11t14 -8t13 -6 q9 -4 23 -21.5t26 -21.5q15 -8 26 -36t17 -36q10 -20 16.5 -59t10.5 -53q-1 -7 -1 -17q0 -19 3 -47q-5 -13 -10.5 -44.5t-14.5 -47.5q-31 -31 -87 -31h-13q-13 -5 -29 6.5t-30 6.5q-5 13 -24.5 28.5t-24.5 26.5q-15 26 -27 43q14 43 14 87q0 51 -20 103q-5 12 -16 11t-21 -9 q-17 -9 -30 -24t-28.5 -37.5t-23.5 -32.5q-10 -27 -29 -43q3 -19 -14 -51t-12 -51q-12 -10 -11 -34t0 -40q-4 -5 -5.5 -13t-1.5 -20.5t-1 -17.5q8 -7 26 -7t25 -3q57 -57 74 -90q1 -5 13 -16.5t6 -24.5q4 -16 4 -31q0 -25 -11 -47q-41 -22 -57 -17q-9 5 -57.5 1.5 t-55.5 -3.5q-4 0 -2 -9l2 -9q-1 -3 -6 -11.5t-6 -13t2 -14.5q0 -7 -2 -19t-2 -21.5t4 -18.5q-1 -7 -5 -43t-3.5 -43t0.5 -43q-7 -20 -7 -56q0 -7 1 -14v-20q0 -32 -4 -50q-1 -16 -8.5 -48t-8.5 -50q-3 -22 -5 -68t-7.5 -81.5t-21.5 -65.5q-22 -30 -59 -42q-18 -6 -35 -6 q-18 0 -35 7q-13 2 -35 11.5t-29 11.5q-8 47 -8 92q0 31 4 61q2 12 3 55t9 64q2 14 2 42v33q-1 10 -1 20q0 37 5 54q4 9 1.5 34t-1.5 34q7 27 8 77.5t3 67.5q0 7 4 29t2 33q-45 28 -66 74q-2 10 -5.5 28.5t-5.5 30t-2 27.5z" />
<glyph unicode="g" horiz-adv-x="929" d="M45 350q-3 21 -3 49q0 56 11 140q30 152 39 182q58 194 168 299q1 1 3 2t3 2q9 6 26.5 19.5t26.5 19.5q15 -2 39.5 5.5t34.5 8.5q14 5 40 -2.5t40 -1.5q14 2 33.5 -11t25.5 -15q9 -18 27 -27q14 -10 24 -24.5t21 -35.5t17 -30q3 -1 6 -18q1 -9 6 -3q6 15 12 45t12 45 q4 10 6.5 32.5t6.5 33.5q10 4 31.5 0.5t30.5 -5t30 -8t29 -8.5q4 -4 16 -8q1 -2 8 -7.5t8 -6.5q14 -7 27.5 -29.5t21.5 -29.5q2 -12 8.5 -33.5t8.5 -32.5q-3 -26 -21 -51q-5 -14 -14 -63.5t-25 -73.5q0 -2 3 -7t4 -8q8 -12 -3.5 -28t-5.5 -27q-1 -13 -10 -43t-8 -47 q0 -16 -2 -32t-5.5 -35.5t-4.5 -30.5q0 -98 -11 -132q0 -40 -4 -122q4 -63 4 -115q0 -38 -2 -70q5 -48 5 -102.5t-5 -116.5q-1 -16 -12.5 -43t-13.5 -37q-4 -3 -7.5 -8t-6.5 -12t-5 -10q-4 -4 -12 -12.5t-12 -12.5q-1 -9 -6.5 -16.5t-14.5 -15.5t-12 -13q-14 -3 -14 -14 q-5 -4 -15.5 -9.5t-17 -11.5t-8.5 -14q-6 -10 -28 -13.5t-28 -9.5q-18 -18 -22 -26q-55 0 -82 2v2q-6 2 -19.5 8.5t-21.5 7.5q-23 8 -37 10h-6h-2h-16q-71 23 -109 82q-1 3 -16 42t-21 59l-12 69q2 13 13 33.5t13 28.5q2 12 19 12q3 -9 22 -2.5t25 4.5q8 -2 25.5 -3t30 -4.5 t20.5 -12.5q3 -5 12.5 -8t13.5 -7q7 -19 -4 -51.5t-10 -46.5q-7 -18 10 -43q12 -2 23 3.5t24 17t19 14.5q59 42 82 98q16 28 23 65q6 32 6 62v8q-1 33 -1 70l-6 6q0 8 -2 10h2q1 33 1 45t-2 44.5t-3 43.5q-8 -4 -12 -20.5t-12 -22.5q-1 -3 -7.5 -14.5t-7.5 -15.5t0 -17 q-2 -6 -16 -16q-4 -4 -4 -6q-15 -11 -15 -23q0 -1 -1 -3t-1 -3q-25 -25 -45 -25q-12 -4 -35 -10t-34 -10q-5 0 -24.5 5.5t-29.5 0.5q-8 -3 -20.5 4t-15.5 8q-10 4 -31 10t-36 13t-26 20q-6 9 -24.5 28.5t-24.5 33.5q-4 6 -16 16t-19 19.5t-8 21.5q-25 11 -30 60zM262 223 q0 -27 16 -50.5t41 -27.5q14 2 25.5 7.5t23 19t16.5 20t16.5 26t13.5 22.5q6 19 21.5 56t21.5 58q1 11 13 44t9 53q8 17 14.5 39t9.5 35t8 42t7 37q15 18 16.5 60.5t4.5 52.5q8 9 8.5 33.5t1.5 27.5q3 5 3.5 9t-1.5 7.5t-3.5 6t-5.5 6.5t-5 6q-9 27 -9 59q-2 2 -6 10.5 t-6.5 11.5t-9 7t-12.5 -2q-2 -6 -15 -10t-16 -10q-4 -6 -30 -35t-30 -51q-2 -3 -16 -20.5t-18 -29.5q-3 -8 -15.5 -29.5t-13.5 -35.5q0 -13 -11.5 -32t-11.5 -30q-10 -13 -12.5 -40t-7.5 -37q-6 -5 -8.5 -13.5t-3.5 -20t-2 -16.5q-24 -130 -24 -212q0 -30 3 -54z" />
<glyph unicode="h" horiz-adv-x="909" d="M43 417q0 15 8 62q-3 30 -3 67q0 62 9 144q0 14 0.5 46.5t1.5 51.5t3.5 46t7.5 49q1 4 2 29t8 36v18q0 82 16 201q-3 17 1.5 46.5t4.5 39.5q1 38 21 207q4 10 4 26.5t-4 39.5q4 2 15.5 7t15.5 7q25 -2 90 -10q41 -4 76.5 -30.5t52.5 -65.5q1 -35 2 -45t-4 -45t-6 -44 q-10 -29 -10 -48q0 -11 3 -19q2 -5 -3 -12t-3 -11q2 -10 2 -23q0 -17 -4 -41q-6 -42 -6 -48v-2q0 -4 2 -6q-1 0 -3 -1.5t-3 -1.5q-1 -25 -9 -97q-6 -53 -6 -89q0 -13 1 -24q8 -1 12 12t8 16q7 9 22.5 26t26 31t17.5 29q29 6 51 39q3 1 26 13t37 14q10 1 28.5 12t31.5 8 q13 -7 26 0q2 0 18.5 -2.5t19 -2t18.5 2.5q10 -1 20.5 -4.5t23.5 -9t21 -8.5q16 -4 30 -14.5t31 -26t27 -23.5q6 -20 23 -41q9 -21 15 -62.5t9 -54.5q-14 -53 -16 -90q-10 -14 -9 -42.5t-3 -45.5q-17 -42 -17 -80q0 -6 -6.5 -22.5t-3.5 -26.5q-1 -5 -7 -20.5t-3 -24.5 q0 -7 -6.5 -24t-3.5 -27q0 -17 -8.5 -47.5t-10.5 -42.5q0 -18 -13.5 -50t-12.5 -50q-7 -29 -24.5 -81t-23.5 -73q4 -8 1 -17t-4.5 -14t-8.5 -12.5t-11 -11t-12 -10t-12 -9.5q-5 -5 -18 -5t-17 -5q-4 -4 -9.5 -4t-9 1t-10.5 3.5t-9 3.5q-27 5 -80 39q-11 -3 -16.5 -3.5 t-6.5 2t0 5t2.5 7t1.5 7.5q-1 4 -41 86q2 38 22.5 104.5t24.5 90.5q54 207 66 293q2 9 15.5 98t25.5 135q-1 9 2.5 28.5t2.5 35t-13 24.5q-19 1 -38.5 -8.5t-29.5 -18.5t-29 -28q-87 -99 -98 -176q1 -14 -2.5 -29.5t-6.5 -24.5t-11.5 -28t-10.5 -25q-26 -81 -39 -128.5 t-25 -119.5q-10 -58 -10 -109q0 -13 1 -25v-18q0 -24 -1 -75q-1 -22 -1 -39q0 -42 4 -53q1 -4 -2.5 -5t-8 -1.5t-6.5 -3.5q-5 -10 -15 -15.5t-24 -9t-20 -6.5q-8 -1 -23 5.5t-20 7.5q-9 7 -32.5 15t-33.5 15q-2 8 -16.5 26.5t-15.5 31.5q-6 23 -23 47q-6 65 -6 259z" />
<glyph unicode="i" horiz-adv-x="440" d="M43 641q-1 10 1.5 39.5t-1.5 38.5q6 61 6 182q1 20 5.5 56t6.5 66t0 56q-5 16 21 21q29 5 56 5q76 0 134 -38q1 -1 2.5 -4.5t3 -5t3.5 -4.5t3.5 -4t4 -1.5t5 0.5t5.5 3q1 -9 14 -23t11 -27q7 -12 7 -34q0 -15 -3 -35q3 -7 -1 -21t-1 -22q8 -10 2.5 -49t-4.5 -49v-10 q0 -24 -7 -69q-6 -35 -6 -60q0 -14 2 -25q-4 -13 -1.5 -38t0.5 -40q-1 -55 -2 -106q0 -85 3 -158q-7 -9 -3 -34t2 -36q4 -21 18 -147q-8 -27 -23 -37q-6 -3 -11.5 -12.5t-12.5 -15t-19 -1.5q-14 -2 -41.5 1t-36.5 3q-31 31 -49 33q-21 17 -40.5 60t-28.5 55q0 18 -8 57 t-7 59q-7 54 -9 124q-1 35 -1 66q1 30 1 58q1 23 0 49q0 35 -1 74zM78 1475q5 5 26 10q22 -1 40 -1q46 0 73 7q13 7 32.5 -2.5t31.5 -5.5q64 -29 88 -53q20 -18 26 -46.5t-2 -54.5q-2 -1 -33 -39q-7 -6 -17.5 -8t-23 -2.5t-18.5 -1.5q-13 -1 -35 6t-33 6q-55 25 -92 62 q-59 75 -63 123z" />
<glyph unicode="j" horiz-adv-x="839" d="M55 -135q18 12 56 16.5t47 7.5q21 -10 45 0q25 -17 67 -32q-5 -13 9.5 -28.5t7.5 -29.5q-1 -8 -7.5 -22t-7.5 -17q4 -44 11 -57q5 -2 10 0t11.5 7t10.5 7q52 35 88 89t50 116q18 77 18 133q4 14 0 25q0 1 1 3t1 3q0 10 2 14v2q0 15 -2 23q0 3 1 18t0 24.5t-5 18.5 q-1 17 -2.5 50.5t-2.5 54t-4 48.5t-7 52l6 123q1 17 5 64.5t5 65.5q1 10 1 26.5t-1 40.5q4 31 9 95t9 95q5 36 9 41q5 13 8 29t4.5 27t3 30t2.5 27q24 15 55 18q20 2 62 2q10 -8 37 -12q0 -2 2 -2q2 -2 7 -6t7 -6q13 -8 33 -11q23 -18 26 -30q23 -13 29.5 -41.5t-6.5 -51.5 q-9 -18 -12 -54.5t-4 -41.5q-16 -37 -16 -76q0 -11 1 -22q-2 -20 -2.5 -55.5t-1.5 -47.5q0 -4 -5.5 -9t-6.5 -7q0 -15 0.5 -44t0.5 -47.5t-1 -44t-4 -46.5q3 -14 0.5 -45t1.5 -45q-8 -20 -0.5 -60.5t2.5 -58.5q3 -23 3 -64t1 -51q2 0 2 -2q-2 -2 -2 -10v-8q0 -3 1 -8.5 t1 -8.5q0 -4 -4 -8q-7 -15 -5.5 -45t-2.5 -47q5 -11 -0.5 -33t-5.5 -30q-1 -4 -5 -37t-12 -49q-4 -6 -8 -22.5t-8 -23.5q-5 -16 -37 -53q4 -17 -25 -41q-4 -23 -37.5 -46.5t-42.5 -37.5q-10 2 -13.5 0t-10.5 -9t-12 -9q-3 -1 -7.5 -14t-21.5 -5q-66 -23 -123 -23 q-43 0 -80 13q-8 5 -37 11.5t-39 19.5q-14 10 -36.5 38t-38.5 38q-1 6 -5.5 13t-9 12t-11 11.5t-9.5 10.5q-2 4 -9.5 15t-11 20t-0.5 18q-17 29 -17 60q0 29 15 59zM532 1360q-10 15 7 29q2 37 20 96q18 4 29 8q17 1 50.5 -2t51.5 -2q7 -3 27 -9.5t33 -14t22 -19.5 q2 -12 14.5 -40.5t10.5 -45.5q-8 -15 -13 -47.5t-14 -48.5q-2 -9 -9.5 -12t-19 -3.5t-14.5 -1.5q-5 -1 -18.5 -3t-18 -2t-16.5 1q-6 2 -22.5 10t-26.5 9q-9 13 -30.5 32.5t-27.5 26.5q-7 4 -16 21t-19 18z" />
<glyph unicode="k" horiz-adv-x="946" d="M43 780q2 36 9.5 124t8.5 136q2 6 2 19v2q13 9 3 24v15q0 36 4 78q4 52 7.5 77.5t15 97t13.5 81.5q2 5 6.5 28t12.5 34.5t25 14.5h9q25 -1 67 -9q46 -10 71 -9h4q3 -2 3 -8t3 -8q4 -3 14.5 -11.5t16 -13.5t11.5 -14.5t7 -18.5q14 -18 14 -40q0 -19 -10 -40 q-4 -8 -4.5 -29t-9.5 -30q0 -5 1 -11q0 -21 -5.5 -54.5t-5.5 -54.5v-11q-1 -4 -4 -15.5t-4.5 -16.5t-3 -15t-1.5 -16.5t1 -15t4 -15.5q-1 -3 -6.5 -14t-4.5 -17q2 -14 2 -32q0 -36 -8 -89q4 -18 0 -22q-3 -3 -2 -11.5t-2 -11.5q-7 -5 -3 -30t3 -31q7 4 15 17t12 17 q15 12 40 41.5t42 42.5q81 95 176 111q20 3 40 3q51 0 103 -17q6 4 12.5 1.5t9 -5t7 -8.5t6.5 -9q11 0 21 -7t14 -12t14 -18q49 -35 58 -71q5 -8 10 -27t10 -27q7 -29 6 -54q0 -33 -12 -56q-1 -16 -13.5 -40.5t-15.5 -35.5q-2 -12 -19.5 -29.5t-21.5 -27.5q-5 -9 -20.5 -21 t-20.5 -20q-43 -50 -67 -62q-5 -14 -25 -14q-3 -3 -7 -9.5t-8 -10t-9 -3.5q-23 -9 -21 -24q11 -19 45 -45q22 -16 42.5 -38.5t43 -51.5t35.5 -43q1 -10 5.5 -19.5t12.5 -20.5t11 -16q3 -10 9.5 -26t10 -26t8 -26.5t3.5 -27t-3 -27.5q-18 -40 -76 -40q-15 0 -32 3 q-9 2 -18.5 7.5t-22.5 15t-17 12.5q-7 19 -45 84q-30 63 -129 158q-17 3 -28 14q-33 10 -43 0q-14 2 -40 1t-40 1q-11 -4 -28 2t-25 4q-4 7 -13.5 11.5t-14 0.5t2.5 -22q2 -16 4 -60.5t8 -68.5q6 -14 6.5 -43t1.5 -37q8 -25 0 -41h19q-9 -4 -16 -21t-15 -22 q-2 -1 -16.5 -9.5t-20.5 -14.5q-47 0 -67 -8q-3 2 -15 7.5t-18 10.5q-49 21 -57 49q0 1 -2 2q-1 1 -1.5 1t-1.5 1q-2 2 -2 4q-2 11 -15 30t-15 30q-1 15 -15 119q-12 91 -12 143v14q-3 20 -3.5 41t0.5 50t1 40q-2 22 -2 57q-1 31 1 71q1 36 2 64q0 40 -3 64zM297 551 q30 10 70 27q11 0 29 9.5t20 10.5q31 12 82 51t57 43q9 12 35.5 40t41.5 50.5t19 48.5q7 9 7.5 25t-7 26.5t-20.5 4.5q-12 -4 -53 -4q-6 -5 -31 -8.5t-31 -18.5q-6 -5 -23.5 -17.5t-28.5 -22.5t-20 -21q-5 -6 -36.5 -41t-42.5 -58q-7 -15 -31.5 -38.5t-30.5 -39.5 q-1 -12 -3 -34z" />
<glyph unicode="l" horiz-adv-x="417" d="M41 366v21q0 87 7 213q8 142 9 182q4 21 9 84.5t14 96.5q-3 10 2 43q4 29 10 86t10 86q11 60 11 102q9 40 12 84q0 5 7.5 30t2.5 38q-1 7 2.5 20.5t4 20t-6.5 16.5q15 4 21 10q15 2 26 2q26 0 37 -8q20 2 38.5 -7t39.5 -24.5t33 -21.5q3 -3 10.5 -12t11 -13.5t9 -13.5 t8.5 -15t4.5 -15t1.5 -17q-4 -24 -2.5 -43.5t0 -43.5t-10.5 -42q1 -6 1 -15q1 -19 -3 -50q-3 -26 -3 -46q0 -13 1 -22q-10 -23 -24 -101q0 -31 -15 -168q-6 -16 -7.5 -47.5t-6.5 -46.5t-4 -53t-8 -51q-4 -6 2.5 -16t1.5 -15q-6 -18 -6 -55v-19.5v-20.5q0 -37 -6 -57 q2 -31 2 -62q0 -62 -8 -126q12 -168 12 -170q-3 -9 -2.5 -30t-3.5 -29q-6 1 -13 -2t-11.5 -6t-12 -9t-10.5 -8q-2 1 -39.5 4.5t-51.5 18.5q-4 0 -15 1t-15 1q-5 13 -19.5 38.5t-19.5 38.5q-2 4 -5 21.5t-10 23.5q-5 4 -7 10.5t-1 13t0 13.5q-13 90 -14 182z" />
<glyph unicode="m" horiz-adv-x="1288" d="M45 453q4 113 8 331q0 5 4 38.5t-2 37.5q4 33 9.5 107.5t11.5 113.5q2 2 5 6.5t5 6.5q38 4 57 2q4 -7 23.5 -19.5t21.5 -25.5q23 -2 56 -25.5t45 -28.5q8 -12 13.5 -26.5t11 -34t8.5 -27.5q-9 -22 -7 -32q24 21 52 61t56 73t62 50q33 16 88 16q20 0 43 -2q58 -2 134 -59 q19 -22 30 -58q4 -19 17 -22q10 11 32 39.5t37 42.5q26 18 35 37q6 6 23.5 14.5t23.5 17.5q5 5 8 5q63 10 100 10h11q2 0 2 -2q18 -3 50 -14.5t50 -14.5q8 -9 24 -28.5t24 -28.5q11 -28 22 -64q-3 -34 2 -61q5 -6 5.5 -11.5t-1.5 -9t-6.5 -9t-5.5 -7.5q-3 -14 -4.5 -39 t-3.5 -35q-1 -10 -5 -28.5t-6 -33t0 -28.5q-1 -10 -5.5 -29t-6.5 -34t0 -29q-7 -20 -13.5 -61t-8.5 -50q-1 -29 -11 -90.5t-10 -93.5q0 -12 -4.5 -46.5t-1.5 -53.5q-3 -18 -4 -52t-5.5 -61.5t-19.5 -48.5q-11 -3 -18 -16q-3 -1 -14 -5t-13.5 -3.5t-13.5 1.5q-14 5 -42.5 6 t-41.5 5q-14 11 -29 30q-3 8 -10 19q-3 11 -24 37q-2 6 -10.5 30.5t-16.5 36.5q-3 48 -3 68.5t3 69t4 69.5q-1 10 -1 20q0 27 4 57q6 41 15.5 90t12.5 77q2 21 11.5 69t10.5 74q5 1 6.5 4t0.5 9.5t-1 7.5q1 13 6.5 41t6.5 41q-3 5 -10.5 5.5t-10.5 -5.5q-4 -5 -14 -17 t-15 -19t-12.5 -17t-12 -20t-7.5 -20q-16 -14 -48 -48.5t-51 -49.5q-8 -12 -8 -43q-10 -21 -2 -37q-5 -13 -7.5 -43.5t-8.5 -44.5q3 -10 -4.5 -28t-3.5 -27q1 -8 -2.5 -26t-1.5 -29q6 -12 -4.5 -31t-4.5 -31q2 -13 -3.5 -37.5t-4.5 -36.5q-1 -21 -6 -75.5t-4 -83.5 q-6 -10 -8 -39t-17 -39q-6 -11 -17.5 -18t-19.5 -9t-26 -4.5t-23 -3.5q-9 5 -39 11.5t-43 19.5q0 3 -1 6t-4 6l-4.5 4.5t-5.5 4t-5 3.5q1 8 -10.5 17.5t-12.5 11.5q0 17 -16.5 47.5t-13.5 50.5q4 86 10 129v9q0 30 5 78q6 56 7 77q0 36 13 105t14 102q0 15 3.5 41t4 41 t-3.5 41q5 17 5 46q0 15 -1 32q-20 -6 -38.5 -41t-33.5 -43q-18 -22 -47 -63.5t-39 -55.5q-3 -4 -13.5 -14.5t-15 -16t-10 -15.5t-6.5 -20q-2 -30 -2.5 -86.5t-0.5 -74.5q6 -9 4 -37t-1 -37q2 -11 2.5 -13.5t-5 -12.5t-5.5 -11q4 -16 2.5 -47t2.5 -49q0 -3 -1 -7 q-1 -20 3 -77q2 -25 2 -43q0 -32 -4 -41q-14 -12 -27 -39q-38 -4 -70.5 -3.5t-58.5 3.5q-4 11 -20 24.5t-19 16.5q-4 4 -13.5 11.5t-14.5 14.5t-3 17q-26 47 -26 78q0 6 1 12q-8 14 -5.5 38.5t-0.5 39.5q-7 37 -7 88q0 34 3 74z" />
<glyph unicode="n" horiz-adv-x="831" d="M43 212q3 47 3 73q0 13 -1 20q-3 11 -3 28t2 39q3 32 4 51q0 9 -1 15q-2 15 3 54.5t-1 54.5q9 158 21 209q7 33 14 97.5t14 96.5q2 16 4 50t4 51q1 0 13.5 6t17.5 12l23 2q14 7 29 -7.5t28 -8.5h4q13 -13 23 -13q6 -1 19.5 -3t19.5 -3h4q14 0 16 -6q9 -2 20.5 -16 t16.5 -17q27 -35 27 -53q0 -9 -7 -20q-3 -3 0.5 -9t6.5 -4l47 47q6 12 26.5 26.5t26.5 25.5q38 20 78 20q14 0 28 -2q6 -1 20 -2.5t22.5 -2.5t19.5 -5t20 -10q7 -5 23.5 -9t17.5 -4q12 -7 24 -17.5t25 -23.5t21 -20q4 -17 12.5 -48t12.5 -48q-19 -316 -29 -398 q-4 -10 -14 -80q1 -20 -5.5 -61t-5.5 -63v-13q0 -17 -1 -53q-1 -15 -1 -27q0 -30 4 -39q5 -10 5 -32t4 -31q-2 -6 -11 -16t-12 -15q-3 -9 -25 -14q-18 -6 -51 -6t-47 -2q-14 6 -35 30t-37 29q-1 16 -17 46t-15 48q-18 104 -18 183q0 56 9 100q3 39 12.5 113t12.5 110 q2 39 8 114t8 111q-1 4 2 22t-4 21q-4 1 -6 -0.5t-4.5 -5t-3.5 -4.5q-3 -7 -15 -11t-16 -7q-9 -7 -18.5 -29.5t-18.5 -30.5q-8 -10 -36.5 -48.5t-47.5 -57.5q-3 -6 -15 -29t-16.5 -33.5t-11.5 -29.5t-9 -35t-1 -33q-7 -43 -8.5 -123.5t-3.5 -105.5q2 -16 2 -43q0 -18 -1 -40 t-1 -40q0 -27 2 -43q-5 -14 0 -51q-2 -8 -2 -18q0 -19 6 -50q-7 0 -12.5 -5.5t-5.5 -12.5q-28 -8 -35 -25q-23 -6 -94 -6q-8 1 -16 12t-13 13q-6 2 -14 11.5t-13.5 12.5t-21.5 -2q2 7 2 14q0 29 -31 60q-7 16 -7 56q0 17 1 37z" />
<glyph unicode="o" horiz-adv-x="880" d="M61 735q4 8 9.5 31t13.5 33q0 22 6 30q10 16 31.5 59t41 71t46.5 47q9 2 14 20.5t27 11.5q11 9 39 16.5t39 14.5q119 14 155 14q15 2 35 -14q47 12 49 12q-1 -1 -4 -3t-4 -3.5t-2 -4.5t2 -5q1 -1 18 -13.5t25 -17.5t10.5 -22.5t3.5 -20.5q7 -5 27.5 -5t28.5 -7 q6 -2 26 -6.5t29 -9.5q6 -6 32 -22.5t34 -31.5q8 -7 13 -31.5t17 -33.5q8 -19 8.5 -60.5t8.5 -60.5v-94q-5 -13 -4 -41t-5 -41q-4 -9 -3.5 -33t-4.5 -33q-1 -28 -5.5 -56t-14 -70t-12.5 -54q-8 -17 -15 -37t-15 -44.5t-13 -37.5q-4 -6 -13.5 -18t-15 -19.5t-11.5 -18.5 t-8 -22q-7 -4 -20 -23.5t-29 -19.5q-3 -8 -17.5 -13.5t-12.5 -18.5q-11 1 -23.5 -2t-20.5 -7t-22 -10.5t-20 -9.5q-31 -6 -92 -6t-91 -6q2 2 3.5 4t3.5 4.5t1 4.5t-4 3q-18 1 -50.5 17t-51.5 16q-14 11 -47.5 36t-50.5 40q-7 16 -29 36.5t-29 30.5q-8 9 -13 20t-9 28.5 t-6 23.5q-27 107 -27 242q0 111 18 241zM313 498q0 -37 6 -109.5t7 -81.5q3 -19 13 -54t13 -54q13 -23 43 -27q46 -10 58 8q35 34 57.5 78.5t44.5 108.5q-1 10 4.5 25t5.5 22q1 16 10 46t9 46v6q0 24 7 66.5t7 66.5v6v9q0 18 2 56q2 23 2 39q0 18 -2 27q0 91 -29 131 q-2 1 -11 7t-12.5 7.5t-11.5 5.5t-12.5 4.5t-11.5 0t-14 -3.5q-4 -2 -26.5 -11t-31.5 -18q-7 -12 -26 -37t-30 -45.5t-15 -42.5q-3 -5 -11 -14.5t-12.5 -17.5t-5.5 -17q-4 -13 -6 -44t-10 -46q-3 -19 -3 -68t-8 -75z" />
<glyph unicode="p" horiz-adv-x="860" d="M41 381q3 23 3 69t3 68v19q0 27 -1 73q-2 36 -2 63q0 21 1 36q4 12 5.5 26t1.5 23.5t-0.5 27t-0.5 25.5q-3 16 -3 37q0 36 8 86q12 79 12 108q-1 6 8 13.5t6 13.5q9 1 27.5 3t27.5 3q11 3 25 3q20 0 46 -6q45 -10 62 -9q0 -5 3 -8.5t9.5 -7.5t8.5 -5q21 -18 24 -41 q7 -5 10 -14t4.5 -23t2.5 -18q35 35 55 47q22 7 29 21q12 0 24 6q10 7 31 15.5t29 13.5q19 -1 55 -2.5t55 -2.5q30 0 60 -6q2 0 6 -4q42 -6 72 -47q2 -5 11 -11t11 -11q1 -4 12 -18.5t9 -26.5q11 -14 17.5 -48.5t10.5 -44.5q-6 -6 -6.5 -15t2 -20.5t2.5 -17.5q0 -1 -3.5 -12 t-2.5 -17q5 -12 1.5 -34.5t0.5 -34.5q6 -18 5.5 -27.5t-4 -27.5t-3.5 -27q1 -13 -4 -43t-2 -47q-4 -11 -7 -43t-12 -47q-12 -56 -26 -80q-8 -9 -20 -39.5t-27 -40.5q-15 -39 -58 -82q-13 -2 -30 -15t-23 -16q-16 -11 -45 -11q-9 0 -18 1q-4 6 -19 10q-4 2 -14 2 q-13 0 -19 -2q-3 2 -13.5 2.5t-14.5 3.5q-2 0 -10 2t-10.5 3t-9.5 3.5t-10 4.5l-7.5 5t-7.5 7.5t-5 9.5q-13 0 -23.5 17t-17.5 20q-3 3 -8 15.5t-12 15.5q-6 2 -6 14q7 7 16.5 9t23 1t19.5 0h7q40 0 73 33q4 7 12.5 21t13 22t9.5 20.5t6 24.5q12 16 19 36t13 48.5t9 40.5 q3 6 0.5 22t3.5 21q0 24 7 90q4 45 4 76q0 14 -1 25q1 20 2 62t2 63q-1 6 -2.5 17.5t-3.5 20.5t-6 15q-11 1 -57 -4q-17 -9 -33.5 -26t-24.5 -28t-24 -36q-39 -33 -62 -88q-5 -10 -22 -14.5t-27 -11.5t-4 -26q-2 -7 -0.5 -35.5t-7.5 -33.5v-209q-7 -8 -4.5 -32t0.5 -32 q-2 -5 0 -14t0 -14q-4 -12 -0.5 -37t0.5 -37q-4 -10 -0.5 -37.5t2.5 -38.5q-4 -11 2.5 -33t1.5 -34q-3 -5 -4.5 -10t-2.5 -9.5t-0.5 -11.5t0.5 -10t2 -11.5t2.5 -10.5t3.5 -11t3 -10q2 -66 14 -191q7 -23 12.5 -72.5t12.5 -72.5q3 -10 5.5 -33.5t6.5 -34.5h2q0 -1 1 -3t1 -3 v-4q-4 -5 -6.5 -23.5t-11.5 -25.5q-47 -26 -94 -29q-11 9 -35.5 13t-32.5 8q-29 49 -43 61q-1 2 -3 7t-3 7q3 12 0 21q-3 20 -14 31q-6 23 -9 49q-8 37 -16 123q-9 28 -14 83t-13 80q2 19 -5 52.5t-7 48.5q-8 0 -2 9q1 2 2 3q3 21 3 48q0 37 -5 87q-8 87 -8 115z" />
<glyph unicode="q" horiz-adv-x="884" d="M41 545q5 15 5 49t7 51q4 45 10 68q2 6 25 80.5t43 109.5q15 26 49 70q24 14 33 37q6 3 18 8.5t15 7.5q-1 0 -2 1t-2 1q4 2 8 6l2 2h4q3 1 31.5 17t46.5 14q12 -1 39 -2t48 -3.5t38 -8.5q14 -14 33 -17q10 -10 16 -14q6 -6 6 -8q10 -6 22 -22.5t17 -20.5q10 -35 10 -74 q0 -17 -2 -35q3 -5 6.5 -5.5t11 2.5t9.5 3q1 11 4 32.5t3.5 32t-1.5 31.5q1 11 5 49t4.5 49.5t-1.5 49.5q2 6 16 16q8 3 26.5 -3t29.5 -1q6 -2 23 -5.5t25.5 -6t20.5 -8.5t21 -15q13 -6 29.5 -27.5t27.5 -27.5q4 -22 8 -31q1 -1 5 -3.5t6.5 -4.5t1.5 -6v-15q-1 -15 -6 -22 q-2 -12 -3 -12.5t4 -13.5l5 -13q-1 -3 -6.5 -10.5t-4.5 -13.5q4 -17 -2.5 -48t-3.5 -47q2 -17 2 -32q0 -36 -12 -62q-2 -40 -10.5 -131t-9.5 -139q-1 -2 -5 -8t-4.5 -8t0.5 -9q3 -29 3 -41t-5 -41t-6 -41q0 -60 -4 -182q1 -12 -2 -52t2 -52q-3 -28 -3 -60t1.5 -71t1.5 -60 q-1 -8 -1 -19q0 -22 3 -54q4 -48 4 -66q-1 -12 2.5 -35t2.5 -41t-11 -33q-5 -5 8 -12q-16 0 -46 -2t-54 -2t-45 4q4 3 2.5 7.5t-3.5 6.5t-6.5 5.5t-6.5 5.5q-6 10 -33 33q-2 4 -5 21.5t-10 25.5q0 9 2.5 40t0.5 48q-8 61 -15 179t-8 134q-7 13 -6.5 36t-1.5 36q3 12 3 28 q0 22 -5 52q-5 11 -1.5 34t1.5 31q-8 2 -10 -5.5t-2.5 -17.5t-4.5 -12q-2 -4 2.5 -10.5t4.5 -9.5q-9 -9 -8 -36t-9 -36q-3 -3 -8 -14.5t-10 -14.5q-5 -7 -22 -10.5t-23 -9.5q-3 -3 -12.5 -7t-10.5 -9q-9 -1 -20 -1q-31 0 -79 5q-65 5 -83 6q-85 59 -88 61q-8 15 -34 43 t-34 47q-3 14 -28 82q-5 18 -8.5 39t-6 36.5t-4 40.5t-2.5 37t-2.5 41t-1.5 38zM260 440q-3 -5 2 -15t4 -15q-4 -10 1.5 -32.5t2.5 -33.5q-1 -5 -1 -13q0 -21 10 -63q6 -37 40 -49q3 -1 10 -7t13 -5q8 5 25.5 14.5t25.5 14.5q6 9 22 27.5t25 34.5t9 34q40 135 43 188 q23 122 32 191q-1 5 -1 12q0 20 7 51q9 42 7 62q-8 0 -12.5 -1t-10 3.5t-8 6.5t-7 8.5t-6 10t-5 11t-5.5 10.5q-6 -2 -26 -2q-7 -7 -23.5 -24t-29 -29.5t-25.5 -22.5q-1 -8 -12.5 -20t-14.5 -17l-7 -14t-9.5 -17t-9.5 -12q-6 -20 -9 -43q-16 -26 -16 -53q5 -14 -12 -35 q-7 -24 -14 -76.5t-15 -79.5z" />
<glyph unicode="r" horiz-adv-x="806" d="M41 709q0 7 4 19.5t4 14.5q-2 20 -2 40q0 54 12 110q0 3 -1.5 10t-0.5 12q5 16 8.5 49.5t8.5 49.5q6 11 1 25.5t-3.5 26t16.5 9.5q38 4 70.5 3.5t58.5 -3.5q24 0 24 -6q0 -2 -1 -4q10 -7 30.5 -16t26.5 -13q0 -3 1 -6t4 -6l4.5 -4.5t5.5 -4t5 -3.5q1 -2 37 -56 q0 -56 -4 -71q69 78 117 98q4 -1 6.5 1t5 6t4.5 5q52 4 86 21q6 0 22 1.5t25 1.5t22 -0.5t24 -3.5t20 -9q9 -16 39.5 -46.5t38.5 -52.5q16 -27 -7.5 -51.5t-52.5 -21.5q-15 -11 -46.5 -31.5t-55.5 -38t-43 -35.5q-4 0 -6 -2q-58 -10 -125 -63q-70 -54 -90 -97h-15 q2 -13 -2.5 -34.5t-6 -34t6.5 -33.5q-4 -14 -1.5 -40t-0.5 -40q-1 -4 -1 -10q0 -27 12 -90q2 -13 5 -65.5t13 -78.5q2 -10 7 -34.5t7.5 -43.5t1.5 -36q-21 3 -32 -19q-33 7 -45 -12q-12 -2 -40 7.5t-44 2.5q-9 23 -39 27q-4 17 -23.5 43t-23.5 41q-3 9 -8.5 32t-10.5 38.5 t-12 29.5q-27 137 -27 182q2 7 -3.5 19t-2.5 18q2 7 -1 22.5t-1 22.5q-1 17 -1 62v52q0 7 1 13q0 78 -6 101z" />
<glyph unicode="s" horiz-adv-x="770" d="M43.5 246.5q2.5 21.5 9.5 58.5q0 6 4 11t8 7.5t11 6.5t10 6q6 -4 15.5 -16.5t13.5 -16.5q36 -49 132 -49h15q48 3 74 5.5t65.5 14.5t65.5 33q41 23 43 47q-20 28 -33 39q-2 1 -24.5 8t-30.5 15q-12 2 -50.5 18t-60.5 15q-26 1 -66.5 20.5t-58.5 22.5q-5 7 -26 15.5 t-23 22.5q-8 3 -15.5 16.5t-10.5 16.5q-4 12 -19 38t-18 42q-13 39 -13 91q0 63 19 145q20 52 86 122q10 4 86 46q-7 10 5 10q25 -1 26 0q13 8 42.5 15t41.5 13q22 2 61.5 -1.5t58.5 -2.5q35 -15 45 -22q8 -4 15 -4q10 -10 12 -11q4 -4 6 -4v-2q13 -7 35 -31.5t39 -29.5 q54 -57 72 -111q16 -85 16 -120v-7q-9 -37 -33 -67q-13 -9 -37 -33.5t-41 -34.5q-15 -21 -53 6q-12 2 -22 10t-14 12.5t-14 21.5t-11 18q2 8 -2.5 27.5t0.5 27.5q2 11 -4 39t2 39q2 5 11.5 11t10.5 11q-13 -1 -35 7t-34 8q-25 -4 -39 -11q-10 -8 -32.5 -13t-29.5 -9 q-6 -7 -18.5 -12.5t-16.5 -8.5q-3 -1 -20.5 -10t-28.5 -10q-4 -6 -14.5 -15.5t-17 -18.5t-5.5 -21q99 -24 170 -54q12 -9 38 -21.5t38 -21.5q5 -3 22 -17t29 -19q1 -11 16.5 -20.5t16.5 -10.5q12 -12 23 -25t22.5 -30.5t17.5 -28t18.5 -33t16.5 -29.5q4 -14 10.5 -39.5 t10.5 -39.5q5 -9 1 -38t-3 -38q1 -12 -2.5 -26.5t-6.5 -22t-11.5 -25.5t-10.5 -22q-12 -20 -20 -25q-5 -19 -13 -21q-7 -1 -14 -13t-14 -15q-10 -7 -31 -19.5t-31 -19.5q-5 -1 -61 -18t-86 -19q-2 1 -7.5 3.5t-9 3.5t-7.5 1t-7 -4q-10 -3 -22.5 -4t-28 -1t-23.5 -1 q-21 2 -58 15.5t-44 15.5q-8 6 -20 18.5t-17 16.5q-7 6 -24.5 19.5t-28.5 25t-17 26.5q-13 24 -16.5 56t-1 53.5z" />
<glyph unicode="t" horiz-adv-x="796" d="M43 1014q1 34 4 55t14.5 47.5t32.5 42.5q8 1 32.5 9.5t39.5 7.5t42.5 2t41.5 2q26 0 33 20q9 160 18 213q-5 2 -1.5 23.5t3.5 23.5q4 4 4 8q6 3 8 5q9 4 11 4q44 11 53 12q1 0 4.5 1t5.5 1h2h15q2 -1 4 -2.5t3.5 -2.5t2.5 -1q6 2 35 2l30 -6q-4 -8 2.5 -14t17 -12 t13.5 -11q4 -7 13.5 -21.5t13.5 -21.5q3 -10 5 -20.5t1.5 -23t-1 -20t-2.5 -23t-3 -20.5q5 -12 0 -44.5t-4 -43.5q-4 -9 1 -16.5t15 -9.5q13 -2 51 -6t58 -9q10 -5 22 -22t16 -21q1 -2 12 -17t14 -19t11 -17.5t10 -21t4.5 -19t2.5 -22.5q4 -4 1.5 -14.5t-1.5 -14t-3.5 -13 t-5.5 -12.5t-7 -12.5t-7.5 -12t-8 -11.5t-7.5 -11q-15 -6 -37 3.5t-31 9.5q-25 0 -70.5 5.5t-64.5 6.5q-11 -15 -11 -48.5t-5 -45.5q-2 -8 -7 -53.5t-14 -67.5q-4 -98 -14 -144q-8 -41 -8.5 -116t-3.5 -105q-5 -8 0 -29t4 -28v-6q0 -24 14 -56q0 -10 2.5 -19.5t7.5 -23 t6 -16.5q25 0 35 -2q7 -14 33.5 -16.5t30.5 -3.5q4 -3 24 -16.5t27 -24.5q-1 -7 0.5 -15t5 -18.5t4.5 -14.5q-5 -12 -25.5 -27t-23.5 -18q-52 -13 -96 -16q-10 -1 -29 8t-29 8q-26 2 -57 33q-3 7 -18 10t-17 11q-4 6 -10 10.5t-10 7t-13.5 7t-11.5 5.5q-30 36 -33 39 q-18 57 -26 72q-5 10 -10.5 34.5t-14.5 37.5q-1 19 -11 87q-6 42 -5 73q0 19 2 34q3 20 3 59t1 48q6 39 11.5 111t8.5 100q3 20 8.5 59.5t8.5 58.5q-14 6 -37 6q-15 0 -35 -3q-21 -3 -38 -3q-21 0 -34 5q-4 1 -7.5 2.5t-6 3t-6 5t-5.5 5t-5.5 6t-5 6t-5 6.5t-4.5 6 q0 8 -9 25.5t-5 30.5z" />
<glyph unicode="u" horiz-adv-x="903" d="M43 471v16q0 39 7 100q9 75 9 109q15 128 17 211q-3 8 6 31q-5 17 0.5 51t1.5 51q3 18 10 39q8 -1 23 -2t27.5 -3t23.5 -7q13 3 34.5 -2.5t30.5 -5.5q4 0 6 -2t4 -5.5t3 -4.5q6 -1 57 -7q-10 -9 -5.5 -21.5t15.5 -19.5q12 -8 21 -33.5t12 -29.5q6 -22 4 -25 q-7 -21 -11.5 -61.5t-10.5 -58.5q5 -5 4.5 -35t-0.5 -35q-10 -34 -4 -45q-9 -13 -13 -42t-6 -36q-7 -16 -3.5 -51.5t-4.5 -52.5q2 -18 -4.5 -57t-3.5 -60q-4 -15 -5.5 -33.5t-1 -31t2.5 -34.5t3 -32q5 -12 10 -48.5t15 -52.5q10 -3 17.5 -17.5t13.5 -18.5q6 -1 12 -1 q34 0 66 29q9 5 20 25.5t23 25.5q3 5 13.5 18.5t15.5 24.5t4 23q3 8 14.5 11.5t15.5 7t-2 22.5q-1 9 -1 20q1 31 5 80q6 66 5 80q21 106 26 184q-5 10 5 23t8 20q-5 14 1.5 36t4.5 32q20 200 26 240q2 10 0.5 18.5t0 18.5t7.5 16q10 -2 28 1.5t28.5 4.5t25.5 -8 q3 1 10.5 4.5t11 4t11.5 -2.5q6 -2 22.5 -12.5t26.5 -12.5l6 -12q11 -19 35 -26l25 -25q1 -11 6 -34.5t6 -34.5t-2 -36q-12 -3 -12 -25t-2 -26q0 -65 -15 -176q-3 -13 -3.5 -47.5t-8.5 -52.5q-7 -9 -4.5 -36.5t0.5 -37.5q-5 -1 -6.5 -4t-2.5 -10t-1 -8q3 -31 -10 -60 q1 -9 -4 -39.5t2 -38.5q0 -3 -5.5 -20t-3.5 -25q11 -10 0 -30.5t-10 -30.5q-1 -13 -4 -47t-4 -52.5t0.5 -46t7.5 -49.5q-1 -10 -6.5 -20t-11 -15.5t-15.5 -15t-14 -14.5q-30 -3 -57 -6q-12 0 -31 14t-33 12q-2 2 -6.5 5.5t-7 6t-5 6.5t-3.5 9q-2 9 -17 16l-4 8q4 6 -8 25 q-10 8 -14.5 35t-14.5 35q-28 -55 -55 -74q-2 0 -6 -1t-6 -1q-28 -3 -39 -17q-8 -8 -10 -14q-6 -1 -17.5 -3t-17.5 -3q-22 -8 -63 3t-54 11q-4 9 -11.5 14.5t-19 10.5t-16.5 8q-11 6 -20 13.5t-18.5 19t-15 18.5t-16 22t-14.5 21q-12 12 -21 25.5t-16 33t-10 30.5t-9 37 t-8 32q-7 19 -11 43t-5 39.5t-1.5 47.5t-0.5 42z" />
<glyph unicode="v" horiz-adv-x="927" d="M41 1059q2 2 10 6l8 4q12 6 43 10v-4q10 -2 39.5 -2.5t44.5 -7.5q15 -1 39.5 -13.5t32.5 -15.5q5 -9 20.5 -22.5t20.5 -22.5q4 -4 14 -13.5t15 -14.5q4 -28 7 -85t7 -85q1 -7 -4.5 -34t2.5 -32q6 -13 8.5 -40t7.5 -40q4 -15 8.5 -46.5t8.5 -47.5q2 -13 2.5 -50.5 t7.5 -56.5q18 27 37.5 86.5t32.5 83.5q7 34 53 127q7 35 29.5 95.5t29.5 85.5q3 6 16.5 44t24.5 56q1 8 8.5 21.5t8.5 17.5q5 1 43.5 6t58.5 6q12 1 25.5 -1t19.5 -3t25.5 -6.5t21.5 -5.5l12 -6q35 -35 54 -84q0 -19 4 -51q-5 -14 -28 -50.5t-25 -60.5q-8 -9 -13.5 -36.5 t-17.5 -37.5q-5 -6 -7 -13.5t-2.5 -18.5t-0.5 -15q-33 -5 -23 -33q-1 -5 -5 -31.5t-11 -39.5q-8 -6 -15 -23t-10 -22q-5 -8 -9.5 -29t-10.5 -31q-7 -14 -17 -48t-20 -50q-4 -22 -22.5 -63t-22.5 -64q-11 -18 -24 -66t-30 -69q-1 -15 -8.5 -40.5t-9.5 -35.5q-10 -18 -33 -29 q-12 -1 -35 -3t-36 -3q-12 4 -17 4l-18 -6q-20 -2 -60 -10q-33 8 -47 10q-7 7 -30 16q-7 8 -29.5 23.5t-30.5 28.5q-14 6 -16.5 27.5t-7.5 27.5q-9 9 -9.5 30t-5.5 29q-7 14 -12 42.5t-8 37.5q-18 63 -23 109q-9 10 -6.5 35.5t-3.5 38.5q-15 59 -33 233q-1 11 -7.5 30 t-8.5 27q-4 13 -2 25t-0.5 25t-12.5 20q-3 6 -2.5 8.5t3.5 8.5l4 8q-17 126 -27 225z" />
<glyph unicode="w" horiz-adv-x="1718" d="M43 1047q-1 9 4.5 13t15 6.5t13.5 6.5q10 5 30.5 6t26.5 2h12q39 0 119 -14q3 -4 22.5 -14t20.5 -23q24 -6 33 -26q12 -9 15 -34.5t10 -33.5q2 -7 1.5 -38t8.5 -36q6 -55 30 -153t29 -123q18 -25 8 -51q12 -17 15 -41q8 -16 16 -35.5t17 -43t14 -36.5h6q17 31 30 96 t27 92q4 24 24 78.5t23 85.5q20 63 39 176q8 3 11 19t6 20q12 32 12 61q0 18 -4 35q40 16 65 16q7 0 13 -1q16 7 43 -5.5t43 -7.5q16 8 55 21q13 7 27.5 7.5t40 -4t30.5 -5.5q6 -2 22 -14t27 -11q-3 -19 15 -26q4 -15 16 -15q1 -4 4 -12t4 -12q6 -101 39 -185 q7 -22 16 -64.5t19.5 -76.5t26.5 -61q1 -7 4 -21.5t4.5 -24t5.5 -22t10 -22.5q4 -11 10.5 -53t22.5 -60q7 11 11 24t8 31l6 27q11 20 28 88q9 15 19.5 44t13.5 36q7 20 20.5 59.5t21.5 64t18 59t16 63.5q-1 12 2 23.5t9.5 25.5t8.5 22q2 13 5.5 41t5.5 41q-8 4 -3 6 q9 3 11 6q3 10 14 11.5t21.5 -1.5t19.5 1q16 -6 49 -11.5t49 -11.5q2 -7 14 -16.5t15 -16.5q3 -6 19.5 -24t19.5 -31q4 -33 12 -47q0 -6 -1.5 -19.5t-1 -24t4.5 -19.5h-20q3 -10 2 -14t-6 -13t-6 -12q-15 -54 -17 -84q-7 -4 -9.5 -12t-3 -19.5t-1.5 -15.5q-9 -22 -20.5 -64 t-14.5 -51q-12 -29 -33.5 -88.5t-34.5 -87.5q2 -8 -0.5 -15t-8 -16t-7.5 -14q-10 -31 -26.5 -95.5t-26.5 -95.5q1 -11 -1.5 -21.5t-9 -25t-8.5 -20.5q-14 -15 -45.5 -18t-42.5 -9q-10 -13 -25 -22t-26.5 -14t-33 -8t-30 -3.5t-35 -1t-30.5 -0.5q-1 3 2 4.5t6.5 1.5t5.5 1.5 t0 6.5q-38 13 -65 55q-6 13 -26.5 36t-26.5 38q-10 19 -27.5 60t-26.5 59q-9 40 -63 178q-19 95 -55 178q-1 0 -4.5 1t-4.5 1q-4 -49 -18 -67q-17 -63 -31 -86q-21 -119 -67 -232q-9 -20 -27 -79q-7 -9 -14.5 -41.5t-26.5 -40.5q-15 -33 -70 -66q-2 0 -9 -1.5t-9.5 -2.5 t-8 -2.5t-8.5 -3.5t-7 -5t-7 -7q-15 -1 -44 0.5t-38 1.5q-6 2 -20.5 10t-24.5 8q-4 5 -15.5 21t-20.5 26t-19 19q-1 15 -17 39t-16 40q-16 20 -33 64t-28 61q-2 6 -10 20t-9 23q-10 15 -20.5 46t-17.5 44q-6 11 -11.5 24.5t-8.5 23.5t-8 27t-7 24q-10 15 -16.5 31.5t-13 45 t-7.5 33.5q-9 4 -7.5 23.5t-6.5 28.5q-7 7 -8.5 26t-8.5 27q-2 13 -25 100t-22 137q-1 5 -7 13.5t-8 14t1 17.5q-9 39 -29 48z" />
<glyph unicode="x" horiz-adv-x="813" d="M41 1020q3 5 12 12t14.5 13.5t2.5 13.5q58 4 88 12q22 7 62 -2.5t54 -9.5q4 -7 22 -23t19 -30q7 -11 12.5 -41t16.5 -41q-2 -19 14 -43q14 -41 15 -54q3 -10 13 -32.5t13 -36.5q14 15 35 45.5t29 40.5q9 20 49.5 67t46.5 80q2 4 10.5 6.5t10.5 6.5q4 4 9.5 17t12.5 17 q24 11 57 0q8 -6 24.5 -15t28 -18t19.5 -20q3 -3 17 -8q16 -46 24 -66q-1 -6 -2.5 -21t-2.5 -23t-5.5 -19t-11.5 -19t-16 -35t-23 -36q-9 -6 -18 -27t-19 -26q-13 -11 -30.5 -41t-31.5 -41q-38 -62 -57 -82q-14 -28 -29 -43q-3 -6 -12 -24.5t-12 -27.5q-2 -4 -3.5 -8.5 t-1.5 -10v-9t1.5 -10t2 -9t3 -10t2.5 -8.5q11 -13 18.5 -41.5t14.5 -40.5q19 -53 57 -111q4 -7 5 -14.5t-1.5 -15t-5 -13t-7.5 -14t-7 -12.5q-44 -31 -117 -35q-8 4 -26.5 12.5t-29.5 14t-24.5 15.5t-22.5 21q-13 3 -24 17q-18 -8 -35.5 -39t-24.5 -39q0 -6 -2.5 -10.5 t-8 -10.5t-7.5 -8q-8 -29 -55 -61q-21 7 -37 2q-7 2 -28 13t-34 12q-6 6 -16.5 23.5t-19.5 25.5q-7 16 -11 49.5t-10 48.5q5 25 17 49.5t31.5 56t27.5 46.5q10 10 19.5 23t19.5 29.5t16 24.5q4 6 19 25.5t20 32.5q1 9 -8 27t-6 30q-6 18 -23.5 62.5t-27 77.5t-13.5 65 q-5 13 -13 39t-15 47t-15 39q-2 6 -7 29.5t-13 33.5q-4 7 -5 15.5t-1.5 20t-1.5 15.5q-11 22 -27 62z" />
<glyph unicode="y" d="M44 437q4 27 1 38q-1 11 -1 22q0 25 4 51q4 39 11.5 85t10.5 72q5 26 15 109.5t21 127.5q-1 14 3 37t4 33q1 4 3 23.5t7 27.5q3 2 12.5 5.5t11.5 8.5q15 2 42 1t42 1q12 -7 37.5 -9.5t32.5 -4.5q0 -13 18 -23t21 -14q3 -5 11 -11t11 -9q7 -11 17 -52q-1 -11 -9 -57.5 t-10 -71.5q0 -33 -12 -63v-12q0 -35 -14 -94q-17 -69 -17 -101q1 -17 -7 -46t-9 -36q1 -11 1 -34q0 -30 -2 -79v-31q0 -63 9 -81q6 -27 29.5 -46.5t52.5 -25.5q5 -5 12 -6t11 6q36 4 62.5 30t41.5 62q10 23 45 31q-2 10 -2 23q0 18 3 42q6 42 5 58q-1 10 2 43t-2 43 q4 57 20.5 170.5t20.5 171.5q5 14 8 42.5t7 39.5q4 3 4.5 7t-1.5 10t-1 10q13 48 14 65q18 16 44.5 16t48 -6.5t48.5 0.5q4 -15 27.5 -23.5t28.5 -15.5q4 -4 34 -24q14 -28 23 -37q4 -17 -4.5 -47t-7.5 -43q5 -12 -3.5 -33t-2.5 -33q-27 -105 -33 -213q-15 -50 -15 -143 q-7 -62 -7 -92q0 -10 1 -17q1 -12 -7 -34.5t-7 -36.5q3 -20 2.5 -55.5t1.5 -55.5l3.5 -10.5t4 -13t2.5 -12t-1.5 -11t-8.5 -6.5q0 -10 2 -29t2 -33.5t-4 -27.5q-1 -5 0.5 -14t1 -16.5t-5.5 -12.5q-1 -9 0.5 -36t-2.5 -34q0 -7 -7.5 -25t-2.5 -28q3 -20 -11 -53t-14 -50 q-7 -2 -12.5 -12.5t-7.5 -13.5q-6 -7 -14 -23l-9 -18q-8 -8 -27.5 -28.5t-35 -33.5t-33.5 -22q0 -10 -8.5 -11.5t-18.5 0t-18 -4.5q-5 -1 -16.5 -11.5t-20.5 -5.5q-5 2 -17 -0.5t-16 -1.5h-3q-22 0 -60 11q-41 12 -62 12h-20q-4 8 -8 10q-18 13 -48 24q-19 27 -36 39 q-11 7 -23 29t-20 29q-7 5 -14.5 21t-14.5 22q-1 6 -11.5 31.5t-9.5 41.5q-2 19 21 56q9 7 20.5 11t29.5 7l24 4q28 11 51.5 11t42.5 -11q15 3 27.5 -5.5t18 -17.5t13.5 -26q1 -10 2 -13.5t-3 -12t-6 -11.5t-7.5 -11t-7.5 -11q-2 -12 -2 -22q0 -34 20 -52q11 -1 21.5 3.5 t16 10t14.5 16t12 13.5q5 8 21.5 31t21.5 37q34 92 34 234v30q-1 5 0 25t-6 22q-33 -22 -39 -29q-5 -11 -25 -15t-24 -7q-5 -1 -14 -12.5t-23 -4.5q-8 0 -30.5 -1.5t-37 0t-28.5 7.5q-20 2 -57 11.5t-56 11.5q-1 3 -12 8h6q-8 14 -28 14q-22 16 -43 40.5t-31 41t-30.5 53 t-26.5 46.5q-1 7 -8 21.5t-7 23.5q-3 11 -2.5 35t-3.5 32q-7 11 -3 38z" />
<glyph unicode="z" horiz-adv-x="976" d="M41 113q4 2 10 2q0 5 -1.5 15t-1.5 15.5v13.5t2 15t5 14q1 4 4 34t17 44q16 9 40.5 35.5t39.5 36.5q19 12 47 43.5t43 42.5q1 2 8 9t10 12.5t4 11.5q-6 8 -12 28t-12 29q-1 10 1 27t1 31t-10 24q0 13 9 23.5t21 5.5q16 0 52.5 7t56.5 5q6 0 24 0.5t31 2.5t23 7 q86 86 153 164q17 13 15 25q-21 -4 -62 0q-31 -4 -47 -3.5t-47 3t-47 2.5q-13 -5 -39 -6.5t-33 -2.5q-14 -3 -26 -3q-28 0 -44 18q-1 1 -20.5 16t-24.5 27q-17 23 -24 53q-7 4 -7.5 11t2 17t1.5 15q-2 11 -0.5 39t-3.5 39q8 -1 21 10t26 4q10 -3 22 -3q19 0 45 7 q22 -3 66 -3h37q13 0 24 1q54 0 78 -6q6 5 21.5 2.5t21.5 -0.5q17 4 48 1t48 1q11 -1 39 1t47.5 -1t36.5 -14q2 -2 6.5 -2h8.5t8 -0.5t5 -2.5t-1 -7q8 -13 37 -28.5t37 -31.5q12 -7 25.5 -27.5t17.5 -25.5q1 -9 6 -37t4 -45q-1 -3 -3.5 -8t-4 -8.5t-2.5 -8.5t0 -10 q-8 -6 -19.5 -22.5t-19.5 -22.5q-5 -18 -26.5 -44.5t-27.5 -41.5q-35 -23 -63 -74q20 0 25 -12q18 -4 18 -18q25 -15 29 -19l12 -24q14 4 20 -1.5t9.5 -19t7.5 -18.5q14 -21 14 -48q1 -9 -1 -20q-6 -40 -40 -53q-13 -2 -30 -2q-38 1 -94 9q-69 10 -105 9h-12q-5 0 -18.5 2.5 t-24 2t-17.5 -6.5q-8 -9 -24.5 -24t-20.5 -19q-6 -7 -26.5 -25t-28.5 -32q-3 -3 -12.5 -11t-15 -15t-9.5 -15q20 0 60 -0.5t64.5 -1t58.5 -3t63 -7.5q4 -2 11 -7.5t11 -7.5q1 -9 9.5 -16.5t17.5 -9.5q9 -18 39 -29q6 -15 18 -27q1 -5 5 -18.5t5 -19t3 -19.5t-1 -20 q1 -4 4 -12.5t3 -11.5t-4 -11q-4 -2 -15.5 -14.5t-21.5 -12.5q-15 -10 -54 -6q-35 0 -55 10h-12q-19 0 -55 -2q-19 -1 -34 0q-23 0 -34 2q-14 1 -56 8q-32 5 -54 5h-11q-13 3 -36 -4.5t-34 -6.5h-4q-22 0 -60 -10q-35 -9 -57 -8h-8q-12 1 -15.5 -0.5t-15 3.5t-14.5 6 t-14 7.5t-14 7.5q-2 3 -22.5 27.5t-26.5 40.5q-1 6 -5 10.5t-12 9.5t-10 7z" />
<glyph unicode="{" horiz-adv-x="665" d="M41 762q11 22 14 26q3 1 34 8.5t46 14.5q8 12 31.5 33.5t32.5 36.5q17 28 25.5 64.5t8.5 70.5v71q6 30 12.5 87t10.5 81q2 21 13.5 60.5t13.5 58.5q6 4 8.5 16t3.5 13q39 75 45 88q-4 8 -2 11.5t10 2.5q10 7 33.5 34.5t42.5 35.5q28 5 35 8q23 0 69 -12q7 -8 24.5 -16 t22.5 -11q4 -5 11 -13.5t13 -15.5t11 -12q1 -7 4.5 -19.5t4 -19t-2.5 -18.5q-3 -16 -13 -29t-25.5 -27.5t-22.5 -23.5q-6 -17 -23 -31q-2 -5 -12.5 -25t-13.5 -30q-8 -8 -14.5 -29t-8.5 -24q0 -24 -12 -45q-8 -20 -9 -61t-5 -58q1 -20 -8 -88q-1 -23 0 -42t-2 -41.5 t-11 -39.5q1 -13 0.5 -19.5t-3 -19.5t-3.5 -20q-6 -13 -29 -43.5t-30 -51.5q-1 -1 -6 -3.5t-6 -3.5t1 -5q38 -40 76 -102q45 -107 37 -316q2 -8 5 -45t18 -55q27 2 75 -23q11 -13 29 -53q20 -16 23.5 -45t-7.5 -51q-6 -37 -36 -53q-10 1 -42 -5.5t-42 1.5q-6 6 -23.5 7.5 t-23.5 8.5q-2 1 -41 18q-7 6 -14 13.5t-11.5 13.5t-10 17.5t-8 16t-8 18t-6.5 16.5q-2 6 -9.5 33.5t-16.5 39.5q3 7 0.5 38.5t-2.5 37.5q0 7 -4.5 25t-2.5 28q6 51 0 103q6 53 -12 106q-36 36 -67 56q-7 0 -40 8t-51 2q-61 23 -84 51q-21 69 -2 102q-9 14 -6 19t3.5 10 t-1 10t-3.5 8.5t-5.5 8.5t-5.5 8z" />
<glyph unicode="|" horiz-adv-x="358" d="M41 102q8 328 10 492q6 28 7 81t3 73q3 26 2 92t5 90q-3 28 -0.5 93t0.5 93q-2 38 5 121.5t3 128.5q-1 19 0.5 54t0.5 63.5t-7 52.5q8 13 43 35q1 0 28.5 2t38.5 10q5 0 22.5 -0.5t25.5 -1.5t20.5 -5.5t21.5 -12.5q4 -7 20 -20t19 -23q4 -43 -2 -62q7 -15 7 -43t1 -35 q3 -9 -2 -47q-2 -7 4 -57q0 -27 -9 -94.5t-5 -104.5q4 -17 1.5 -48.5t0.5 -47.5q-1 -19 -6 -178.5t-16 -241.5q-2 -7 0.5 -24t-0.5 -23q-7 -13 -5 -39t-2 -39q8 -17 1 -95t-7 -97q1 -21 -4 -65.5t-4 -67.5q3 -17 2 -53.5t2 -55.5q-5 -16 -3.5 -43.5t-0.5 -44.5l-9.5 -19 t-14.5 -24q-6 -2 -18 -2.5t-21 -3t-13 -10.5q-21 3 -41 0q-8 7 -34 18t-35 25q-14 4 -29 20q-1 20 -0.5 92t-5.5 92z" />
<glyph unicode="}" horiz-adv-x="573" d="M42 1486q0 26 1 54q0 3 1.5 5t4.5 4t4 3q8 -2 44.5 -11t54.5 -17q12 -4 35.5 -15.5t35.5 -15.5q13 -7 66 -55q11 -4 19.5 -13.5t17.5 -23t14 -19.5q29 -32 35 -75q9 -6 12.5 -23t7.5 -22q4 -6 8.5 -22t8.5 -23q0 -8 3 -62.5t-1 -62.5q1 -5 4.5 -7t11 -3t8.5 -1 q-2 -3 -9 -4t-9 -4q1 -21 -2 -60.5t-2 -58.5q0 -2 -4.5 -16.5t-4 -16.5t0.5 -16q4 -24 2 -44t-0.5 -44t10.5 -41q5 -17 35 -32t34 -33q3 -13 22.5 -38.5t18.5 -43.5q6 -40 -34 -76q-16 4 -23 4q-9 -4 -16 -11t-15 -20t-12 -18q-1 -2 -10.5 -16.5t-12.5 -20t-9 -17t-8 -21.5 t-3 -21q0 -4 -4.5 -20t-1.5 -25q-3 -22 -8 -136q1 -12 -2.5 -45t0.5 -45q2 -3 0 -4.5t-6 -3t-5 -2.5q4 -36 -28 -98q-3 -5 -10 -17t-11.5 -19t-11.5 -16t-14.5 -16t-16.5 -12q-14 -1 -32 -15.5t-27 -17.5q-11 5 -35 -10q-4 0 -20.5 4t-20.5 0q-4 -1 -6 1t-4.5 6t-3.5 5 q-12 1 -22.5 19.5t-14.5 21.5q-14 12 -17.5 45t-15.5 43q-1 4 0 19t-6 16q6 4 16.5 12.5t19 14t17.5 8.5q5 1 10.5 15t22.5 5q48 31 61 62q1 7 5.5 30.5t4 30.5t-2.5 31q0 3 3.5 39.5t2.5 54.5q0 9 5 28t5 28q1 20 4.5 44t7 40.5t10 44t9.5 40.5q7 9 17.5 31t17.5 31 q-16 52 -23 63q-38 150 -33 277q0 6 3 25.5t1 29.5q-2 14 2.5 42.5t1.5 43.5v20.5v22t-1 20t-3.5 21.5t-6.5 18.5t-11 18.5q-14 23 -29 25q-9 9 -33 15.5t-32 16.5q-7 2 -12.5 5t-11 8.5t-8 8.5t-8.5 11.5t-7 9.5q-13 22 -19.5 50t-6.5 54z" />
<glyph unicode="~" horiz-adv-x="1157" d="M47 811q20 40 56.5 72t85 65.5t73.5 57.5q36 2 88 24q18 0 39 -2t36 -4.5t39 -7t36 -6.5q6 -6 20 -6q7 -5 24.5 -11t24.5 -14q22 1 52.5 -19t35.5 -22q4 -9 25 -19t23 -24q16 -20 18 -35q13 8 26 -6.5t19 -15.5q7 0 14 3t11.5 5t12 8t9.5 8t11 10l8 9q5 7 29.5 29.5 t31.5 39.5q2 2 8 8.5t8 8.5q10 13 16 9.5t17 -10t19 -1.5q6 -7 24 -13.5t25 -13.5q15 1 34 -14t29 -17q2 -3 8 -11t9.5 -12.5t7 -12.5t4.5 -15q-1 -6 1 -13.5t6 -16t5 -13.5q-29 -50 -100 -125q-14 -44 -80 -76q-8 -8 -20.5 -10t-30.5 -0.5t-25 0.5q-41 4 -61 14 q-6 -5 -16.5 -3t-16 4.5t-15 8t-14.5 7.5q-65 42 -145 115q-4 8 -10 13.5t-15 10t-14.5 6.5t-17.5 5.5t-15 4.5q-3 5 -8.5 7.5t-9.5 2.5t-11.5 -0.5t-9.5 -0.5q-11 -6 -33 -15t-24 -10q-10 -4 -27.5 -20t-31.5 -19q-3 -2 -6.5 -10.5t-10.5 -9.5q-15 -10 -76 -66 q-12 -22 -31.5 -33t-39.5 0q-20 -3 -38 7t-36.5 25t-32.5 20q-32 67 -37 75q-28 28 -10 70z" />
<glyph unicode="&#xa1;" horiz-adv-x="516" d="M40.5 171q-0.5 14 3 36t11.5 39q-3 12 -0.5 36.5t0.5 36.5q-3 17 2.5 55.5t-0.5 55.5q0 4 -10 4q0 1 1 3t1 3h5h5t4 0.5t3 2t0.5 4t-1 6.5t-4.5 10q-2 17 6 47.5t7 46.5q1 8 0 28.5t1 35.5t9 26q0 28 -0.5 32.5t4 32t4.5 31.5t1 12t1.5 12.5t2 10.5t5.5 10q10 20 13 61 t8 56q0 25 2 53t5.5 62t4.5 53q0 4 6 10t6 11q5 20 13 26q14 17 32.5 22.5t51.5 5.5t39 1q14 -4 25.5 -12.5t25 -21.5t20.5 -19q4 -6 14 -19.5t15 -21t9 -20.5t3 -25q1 -19 -8 -82q3 -17 -1.5 -46.5t-4.5 -39.5q0 -34 -9.5 -94.5t-11.5 -85.5q-12 -80 -19.5 -163t-14.5 -214 t-9 -166q-4 -23 -4 -105h-6q-16 0 -28 -6q-43 -18 -107 -8v2q-9 1 -33 10t-39 6q-17 15 -55 74q0 9 -2 37t-2.5 42zM135 1317q0 13 1 41t1 41q14 7 21 25t4 36q19 22 46.5 31.5t55.5 3.5q18 2 36 -4.5t39 -18.5t32 -16q4 -2 10 -9.5t12 -11t13 0.5q6 3 7.5 0.5t0 -10 t-1.5 -9.5q47 -32 49 -71q1 -4 6.5 -19.5t5.5 -21t-4 -19.5q-4 -12 -12 -21.5t-20.5 -19t-18.5 -16.5q-9 -1 -25 -4t-22 -4q-22 -4 -62.5 4.5t-60.5 5.5q-24 14 -45 8q-7 4 -23.5 22.5t-29.5 20.5q0 10 -15 35z" />
<glyph unicode="&#xa2;" horiz-adv-x="643" d="M59 829q3 13 12.5 54t14.5 59.5t16 54.5t23 56.5t28.5 47t39 45t49.5 32.5q15 14 34 19t47 5t39 2q3 15 6 43.5t5.5 46.5t10.5 41t22 39q17 -2 30 -10t21 -21.5t13 -25.5t8 -32.5t4 -32t2 -33.5t1 -29q11 -16 48 -55t54 -71.5t13 -70.5q-1 -1 -7.5 -8.5t-8.5 -9.5 t-7.5 -8t-9 -8t-9.5 -5.5t-10.5 -4.5t-11 -1t-12.5 2q-4 2 -12.5 7.5t-15 9.5t-14 6.5t-12 -2.5t-5.5 -17q-10 -78 -23.5 -234.5t-23.5 -234.5q10 0 38.5 0.5t44 -0.5t37.5 -8.5t37 -21.5q28 -72 -33.5 -118.5t-135.5 -39.5q2 -51 -19 -154q-11 -20 -33.5 -21.5t-43.5 9 t-36 25.5q2 19 -7.5 76.5t3.5 76.5q-137 68 -196 219.5t-15 300.5zM260 553q2 -2 23 -16q41 244 41 415l-11 -6q-68 -197 -53 -393z" />
<glyph unicode="&#xa3;" horiz-adv-x="1052" d="M41 139.5q1 32.5 18 59.5q82 110 215 172q47 106 58 280q-12 3 -41 7.5t-46 9t-36 18.5t-27 37q-4 11 -18 28.5t-20.5 33.5t-0.5 32q41 48 148 60q1 36 -11.5 117t-7.5 124q-18 151 119 318q35 45 111 49q17 0 53.5 3.5t58.5 4t52 -5.5t53 -21q70 -24 133 -100 q16 -44 19.5 -89t-11.5 -90t-49 -75q-23 -25 -59.5 -30t-66.5 13.5t-36 53.5q-17 33 -7.5 54t24 53.5t8.5 56.5q-7 9 -15.5 16.5t-18.5 11.5t-20 -1.5t-16 -20.5q-89 -72 -123 -190t6 -224q50 -7 91 -2.5t92 2.5t88 -18q100 -33 135 -113q7 -10 9.5 -20t2.5 -16.5 t-5.5 -15.5t-9 -12.5t-13 -12.5t-11.5 -11q-31 1 -106 7.5t-128.5 5t-101.5 -18.5q5 -20 7.5 -42t4 -38.5t0 -42.5t-2.5 -38.5t-5.5 -43t-6 -39t-8 -43t-7.5 -39.5q113 -30 197 -123q33 -13 81 12t64 27q18 -19 62.5 -39t60.5 -32q18 -21 28 -48.5t3.5 -55t-33.5 -40.5 q-15 -5 -52.5 -21t-65.5 -22t-56 -2q-112 37 -176 84l-18.5 18.5l-19.5 19.5t-20 17.5t-22 17t-22 13t-24.5 9t-26 2t-28.5 -4.5q-27 -9 -53 -23t-53 -35t-43 -34.5t-47.5 -42.5t-42.5 -39q-34 -12 -64.5 -7.5t-53 26.5t-35 49t-11.5 59.5z" />
<glyph unicode="&#xa4;" horiz-adv-x="782" d="M41.5 715.5q0.5 81.5 28 154.5t75.5 138q-6 9 -25 36t-28 40.5t-21 36.5t-18 42q70 42 99 64q60 26 106.5 -11t63.5 -100q30 -10 95 -27.5t97 -27.5q12 17 36.5 50.5t37.5 51.5q20 4 39 -5t40 -24.5t35 -21.5q46 -43 36 -103t-58 -100q-1 -38 5.5 -109.5t8.5 -118 t-13.5 -104.5t-53.5 -100q76 -69 102 -123q7 -38 -41 -90q-16 -5 -33 -5t-30 1.5t-29.5 10t-26 13.5t-26 19t-23 20t-24 22t-21.5 20q-19 2 -52 -2t-53 -5t-53 11q-24 5 -47.5 -10t-39.5 -33t-41 -27t-52 6q-55 19 -70.5 82.5t21.5 106.5q5 8 5 18.5t-2 16.5t-8 18.5 t-7 15.5q-35 71 -34.5 152.5zM229 639q12 -42 60.5 -55.5t83.5 10.5q73 33 112.5 102.5t10.5 141.5q-2 33 -32.5 56.5t-62.5 14.5q-82 -48 -133 -118t-39 -152z" />
<glyph unicode="&#xa5;" horiz-adv-x="1148" d="M45 1454q17 4 60.5 20t68.5 19q96 5 174 -94q35 -59 122.5 -160t121.5 -158q28 18 54 48.5t54.5 71t44.5 59.5q13 17 38.5 49t40.5 52t34 50t31 57q16 8 44.5 5t44 -7t43 -13t42.5 -13q1 -4 25 -48.5t16 -70.5q-47 -70 -98.5 -140.5t-131 -173.5t-104.5 -137q18 -1 70 -2 t69 -2q8 -13 23 -30t27.5 -30t25 -30t19.5 -33t7 -35.5t-10 -39.5q-14 -29 -40.5 -39t-57 -6.5t-61.5 9t-61.5 3t-49.5 -20.5q-9 -18 -11 -32t3 -22.5t12.5 -14t20.5 -7t25 -2t27.5 1t25.5 3.5t22 4q53 -5 100.5 -43.5t61.5 -89t-25 -103.5q-46 0 -138 -1t-138 -1 q-9 -61 10 -125q-14 -22 -15 -59.5t-7 -69.5t-33 -51q-41 -1 -81.5 18.5t-66.5 53.5q-12 55 -35 248q-20 -1 -82 3t-81 -1q-75 18 -118.5 82.5t-23.5 138.5q37 28 84 32.5t115 -5.5t92 -11q19 11 4.5 48t-2.5 48q-25 1 -102.5 3.5t-102.5 3.5q-48 18 -73.5 62t-21 95 t37.5 88q25 -1 70 -5.5t81.5 -6.5t69.5 0q-41 85 -153.5 218t-145.5 183q-9 14 -30 35t-35 36t-23.5 38t-3.5 47z" />
<glyph unicode="&#xa6;" horiz-adv-x="380" d="M42.5 552.5q3.5 71.5 27.5 133.5l69 2q75 20 134.5 -40.5t39.5 -135.5q-31 -219 0 -391q11 -24 11 -43t-7 -30.5t-23 -21t-30 -13.5t-35 -10.5t-32 -10.5q-72 26 -109 101t-35 159q1 43 -6.5 136t-4 164.5zM51 1483q54 -3 107 12q49 10 95.5 -16.5t70.5 -75t12 -96.5 q-5 -77 -4.5 -243t-5.5 -243q-26 -33 -70 -46t-85.5 2t-59.5 54q-41 49 -55 113.5t3 124.5q-1 47 4 131t4 153.5t-16 129.5z" />
<glyph unicode="&#xa7;" horiz-adv-x="991" d="M41 282q0 12 2.5 21t8.5 20t11 18t13 18t12 18q15 -5 49 -12t55 -12.5t41.5 -23t26.5 -44.5q9 -15 -2.5 -41.5t-11.5 -36.5q44 -11 68.5 -10.5t70.5 6t72 4.5q179 37 278 106q8 26 -4 45.5t-39 42.5q-27 1 -59 -1t-52.5 -4t-59.5 -6.5t-54 -6.5q-17 -1 -33 0t-33.5 5.5 t-30.5 7t-32.5 11.5t-28.5 13t-30.5 16t-27.5 15.5t-29.5 17.5t-26.5 16q-63 66 -97 157t-24 188t73 163q2 16 -9 51.5t-7 55.5q28 221 127 313q102 76 256 86q30 8 56.5 1.5t64.5 -29t49 -27.5q69 -20 111 -81.5t55 -139.5t-42 -143t-134 -70q-57 0 -94 52t-23 109 q-11 15 -4 25t15.5 13.5t24.5 9t23 10.5q0 5 0.5 16t0.5 18t-1 16t-5 12.5t-11 5.5t-19.5 -2.5t-29.5 -14.5q-34 -12 -49 -17.5t-45 -19.5t-46 -27t-33.5 -34.5t-25.5 -46.5q-3 -10 -10.5 -31.5t-12 -36t-3.5 -33.5t12 -33q23 -41 62.5 -64.5t82.5 -14.5q29 -3 57 -9.5 t61 -17.5t52.5 -18t59.5 -22.5t53 -20.5q98 -51 136 -158.5t-19 -204.5q42 -52 58.5 -118t-1.5 -132t-74 -106q-229 -142 -567 -121q-65 8 -124.5 43.5t-97.5 95t-32 125.5q-4 12 -4 24zM265.5 716.5q6.5 -37.5 35.5 -70t64 -42.5q58 9 86.5 12t78 5.5t89 -5t75.5 -24.5 q18 45 15 63q-41 37 -146 33q-134 14 -276 100q-28 -34 -21.5 -71.5z" />
<glyph unicode="&#xa8;" horiz-adv-x="724" d="M43 1710q-4 29 4 80q32 58 72 65q9 3 27.5 5.5t25.5 3.5q10 5 26.5 -5.5t26.5 -5.5q14 1 30 -4.5t24 -11t25.5 -18t21.5 -15.5q16 -46 16 -71q5 -8 7 -18.5t3 -25t2 -22.5q-10 -20 -28 -35q-2 -1 -7 -2.5t-8 -2.5t-6 -4t-4 -7q0 -7 -10 -9t-12 -8q-15 2 -35 -14 q-19 -1 -29 -1.5t-29 4t-28.5 8t-28 9.5t-27.5 9q-6 10 -22 28t-25.5 34t-11.5 34zM399 1638q-41 98 13 183q13 18 26 18q6 -1 11 6t8 8q6 0 11.5 2.5t11.5 7.5t9 7h21q9 -13 35.5 -11t36.5 -6q9 -7 33.5 -15t33.5 -17q16 -14 25 -56q8 -17 8.5 -36t-3.5 -45.5t-5 -38.5 q-4 -4 -14 -20t-19 -21q-5 -2 -23 -11.5t-28 -9.5q-23 -3 -53 -2.5t-50 10.5q-67 24 -88 47z" />
<glyph unicode="&#xa9;" horiz-adv-x="1380" d="M53 928q4 12 16 51t18 55.5t18 50.5t22 53.5t24.5 46t31 47.5t36.5 40q26 9 44 32t34.5 51t34.5 42q121 93 282.5 110t300.5 -43q124 -67 208.5 -136.5t127.5 -166.5q100 -184 86 -469q-7 -85 -13 -136t-26 -123.5t-53 -127.5q-20 -21 -54.5 -68.5t-66.5 -80t-71 -50.5 q-113 -75 -245.5 -107t-260.5 -9q-60 12 -116 41.5t-99.5 64t-88.5 85.5t-76 93.5t-69 100.5q-83 250 -45 553zM268 649q-6 -129 48 -248.5t155 -195.5q67 -44 148 -40.5t153.5 33t134.5 78.5q84 86 134 163t57 165q15 83 20.5 153.5t1.5 150.5t-28 154t-68 136 q-18 6 -40.5 29.5t-31.5 29.5q-96 77 -224 75t-224 -81q-1 -4 -5.5 -19.5t-6.5 -21t-7.5 -16.5t-13 -17t-18.5 -10q-102 -95 -149 -233t-36 -285zM426 918q80 146 162 208q4 2 110 68q34 -6 103.5 -14.5t103.5 -14.5q33 -25 53.5 -44.5t38.5 -51.5t15 -65q1 -32 -36 -42 t-71 -1q-51 28 -76 45q-36 -15 -66 -41t-54.5 -65.5t-38 -65t-35.5 -74.5q-1 -16 -6 -52.5t-6 -62t1.5 -56.5t18 -53t43.5 -34q28 5 49.5 24.5t43 48t36.5 41.5q14 -2 40 -2.5t45.5 -2t41 -6.5t37.5 -18t25 -34q10 -39 0 -74t-43.5 -68.5t-54 -50t-66.5 -47.5 q-11 -8 -17 -12q-109 -22 -214.5 28t-157.5 148q-91 241 -25 441z" />
<glyph unicode="&#xaa;" horiz-adv-x="456" d="M43.5 1200q-2.5 26 3 49.5t-1.5 46.5q35 70 156 86v21q-19 -3 -34 -4t-35 0.5t-30 11.5t-8 29q22 67 135 67q91 3 160 -69q33 -107 23 -181q-2 -10 -6.5 -54.5t-12.5 -72t-26 -49.5q-201 -15 -301 80q-20 13 -22.5 39zM154 1247q-6 -21 3 -29.5t34 -11t32 -4.5 q-1 8 2.5 21t7 22.5t1.5 20t-11 16.5q-9 -4 -34.5 -17.5t-34.5 -17.5z" />
<glyph unicode="&#xab;" horiz-adv-x="878" d="M44 823.5q-4 23.5 1.5 41t17.5 34.5q191 179 289 338q60 19 109.5 -30t44.5 -111q-28 -46 -70.5 -101.5t-66 -84t-80.5 -93.5q15 -17 66 -42.5t69 -49.5q18 -21 53 -48t61.5 -53.5t39.5 -58.5q28 -43 8 -93t-68 -62q-62 40 -153 135q-38 31 -142.5 77.5t-146.5 90.5 q-1 4 -12.5 34.5t-13.5 41.5t-6 34.5zM434 889q12 45 42.5 88.5t62.5 73.5t69.5 71.5t57.5 77.5q55 -2 96.5 -49.5t32.5 -103.5q-10 -22 -22.5 -42.5t-32 -44.5t-29 -35t-37.5 -40.5t-33 -34.5q0 -2 -1 -9.5t-1 -9.5q18 -16 61.5 -48.5t68 -54t45 -59t17.5 -79.5 q12 -30 -5 -59t-45.5 -35.5t-55.5 12.5q-25 37 -57.5 68t-87.5 72.5t-70 53.5q-4 7 -26.5 41t-30 48.5t-15.5 43t-4 54.5z" />
<glyph unicode="&#xac;" horiz-adv-x="1087" d="M59 1071q48 16 142.5 18.5t113.5 4.5q63 -1 153 -6.5t157.5 -10.5t152 -4.5t154.5 10.5q85 -34 108 -94q4 -47 4 -103t-2 -93.5t-7 -106t-7 -96.5q-38 -35 -85 -26t-81 46q-46 39 -59.5 102t8.5 119q-1 27 -31.5 29.5t-62.5 -5t-51 4.5q-26 1 -139.5 11.5t-172.5 2.5 q-68 17 -190 -2q-65 21 -103.5 81.5t-1.5 117.5z" />
<glyph unicode="&#xad;" horiz-adv-x="749" d="M41 784q2 2 8.5 9t10 10.5t10 7t12.5 4.5q40 10 89 16.5t84.5 9t93.5 5t87 4.5q97 21 189 -23q22 -20 40.5 -43.5t32 -52t9.5 -57.5t-29 -51q-48 -2 -163.5 -4t-200.5 -7.5t-162 -19.5q-107 41 -111 192z" />
<glyph unicode="&#xae;" horiz-adv-x="899" d="M41 1106q54 198 188 291q21 18 48.5 34t48.5 25t56 23.5t52 21.5q149 -25 270 -120t150 -234q-3 -27 1 -75t1 -87t-22 -70q-10 -17 -37 -78.5t-52 -88.5q-14 -21 -38 -39t-42.5 -27t-51.5 -23t-46 -20q-116 -43 -236 2.5t-229 142.5q-14 20 -24 40.5t-16.5 46t-10.5 43 t-6 50t-2.5 45.5t-1 50.5t-0.5 46.5zM190.5 986.5q0.5 -21.5 6.5 -42.5q-1 -28 11 -51t35 -40.5t42.5 -28t48.5 -23.5q25 -9 55 -8.5t50 5t56 16t50 15.5q1 11 -6.5 18t-20.5 12.5t-18 10.5q-13 6 -38.5 36t-47.5 32q0 -58 -35 -68q-45 20 -66 71t-6 99q2 24 25 94.5 t14 110.5q73 45 162.5 33.5t150.5 -72.5q17 -31 20.5 -68t-6 -71t-34 -62t-59.5 -38q2 -6 6.5 -29t12 -34.5t22.5 -10.5q56 68 74.5 151.5t-7.5 167.5q-38 59 -92 96.5t-115 34.5q-42 -13 -85 -42t-69 -53.5t-67 -67.5q-7 -14 -18.5 -37.5t-19.5 -39t-16.5 -37.5t-12 -40 t-3 -39.5zM455.5 1110q1.5 -14 1.5 -18q67 14 67 55q-21 0 -53 -4q-11 -3 -14 -11t-1.5 -22z" />
<glyph unicode="&#xaf;" horiz-adv-x="741" d="M41 1735v8h4q2 6 5 18.5t5 18.5q15 -1 35.5 10.5t30.5 13.5q55 13 123 0q14 0 39 3t39 3q87 -13 165 5q4 -1 34 -7.5t46 -5.5t37 -18.5t23 -20.5q37 -37 49 -71q22 -20 24.5 -48.5t-22.5 -44.5q-77 4 -229 -8q-31 4 -68 5.5t-62.5 1.5t-70.5 -0.5t-64 -0.5 q-7 -1 -28.5 -7t-34.5 -5q-27 27 -47 72q-1 11 -17.5 34.5t-9.5 43.5h-6z" />
<glyph unicode="&#xb0;" horiz-adv-x="382" d="M45.5 1287.5q-8.5 45.5 4.5 87t45 76t73 46.5q12 4 26.5 4t23.5 -1.5t26 -5.5t24 -5q56 -38 70 -111t-16 -131q-5 -15 -18.5 -25t-33 -20t-28.5 -16q-77 -9 -154 24q-34 32 -42.5 77.5zM104 1298q2 -1 17.5 -5.5t20 -5.5t18.5 -4t21 -2.5t18 1t20 5t17 11.5q16 5 23.5 19 t12 37t7.5 32q-1 15 -12.5 24.5t-21 11.5t-28.5 5q-53 4 -85.5 -36.5t-27.5 -92.5z" />
<glyph unicode="&#xb1;" d="M41 207q43 3 150.5 8.5t166.5 11.5q14 1 57.5 3t63.5 2.5t59 1t63.5 -3t57.5 -9t61 -16t54 -25.5q19 -16 35 -37t27 -45.5t5.5 -48.5t-30.5 -41q-50 -5 -153 5.5t-156 4.5q-55 6 -165 -8t-163 -8q-112 31 -133 205zM109 899q125 3 268 19q15 19 20.5 55.5t6 68t15 60.5 t46.5 39q47 7 91 -11.5t60 -60.5q13 -32 11 -51t-10 -51.5t-7 -51.5q83 12 161 -14.5t112 -93.5q16 -23 13.5 -48.5t-22 -44.5t-45.5 -16q-48 10 -76.5 8.5t-76.5 -6.5t-76 -4q-20 -30 -20 -110t-19 -109q-34 -27 -78.5 -27t-74.5 29q-76 73 -41 219q-8 -1 -44.5 -4.5 t-52 -3.5t-41 7t-43.5 24q-35 34 -56 82.5t-21 95.5z" />
<glyph unicode="&#xb2;" horiz-adv-x="434" d="M45 1260q3 2 26.5 16t29.5 18.5t25.5 17t28.5 20t23.5 19.5t25 23.5t19.5 24.5q-17 -4 -47.5 -14t-34.5 -11q-5 -3 -12.5 -11t-15 -12.5t-15.5 -2.5q-30 48 10 91t97 50q52 21 95.5 -7.5t57.5 -82.5q16 -22 9.5 -48.5t-19.5 -43.5t-30.5 -42t-22.5 -42q116 -33 94 -107 q-8 -33 -72 -37q-118 26 -219 29q-37 20 -49 63t-4 89z" />
<glyph unicode="&#xb3;" horiz-adv-x="401" d="M42 1207q-2 28 12.5 42t49.5 -2q48 -23 97 -14q8 5 9.5 9.5t-3 9.5t-9.5 9t-13 9t-11 8q-33 64 -16 102q-10 -3 -28.5 -15t-23.5 -15q-12 2 -21 4.5t-19 7.5t-14.5 12t-4 18t9.5 25q1 1 8 8.5t8.5 9t8 8.5t9 8.5t9 7t10 7t9.5 5t11 4t11.5 1.5t12.5 1q4 1 23 3.5t26 3.5 t23 1t25 -3t20 -9.5t18 -16.5q42 -7 54.5 -53.5t-11.5 -79.5q-2 -15 15.5 -49.5t6.5 -56.5q-7 -65 -65 -99t-126.5 -22t-103.5 65q-15 18 -17 46z" />
<glyph unicode="&#xb4;" horiz-adv-x="399" d="M43 1731q6 11 25.5 40t27.5 46q3 9 17.5 26.5t17.5 30.5q0 1 8.5 19.5t16.5 25.5q5 8 11 25.5t11 25.5q7 9 10 25h50q-10 -10 -9 -15q14 -4 28 -11l33 -16.5l27 -13.5q24 -17 41 -69q-4 -33 -30 -86.5t-31 -79.5q-27 -29 -55 -80q-29 -34 -29 -51h-72q0 8 -4.5 13 t-14.5 9.5t-13 6.5q-5 9 -19.5 22.5t-19.5 20.5q-13 5 -21 17.5t-4 23.5q2 8 -0.5 23.5t-1.5 21.5z" />
<glyph unicode="&#xb5;" horiz-adv-x="911" d="M45 -371q-7 101 8.5 246.5t28.5 245.5t0 246q-12 61 -12 136t4.5 120.5t15.5 134.5q6 49 10.5 157.5t14.5 165.5q17 -3 52.5 0.5t63 0t45.5 -22.5q7 -8 14.5 -4.5t11 8.5t9 14.5t8.5 12.5l7 10q1 -36 5 -90t7 -92.5t1 -88t-11 -90.5q6 -58 0.5 -147.5t-8 -146 t15.5 -144.5q-1 -3 -5 -10.5t-5.5 -11t-4 -10t-2 -10t1.5 -8.5t5.5 -8.5t11.5 -6.5q81 -45 166 83q4 13 14.5 17t27 4t23.5 2q-4 130 27.5 372t32.5 353q72 16 140.5 -11.5t96.5 -92.5q9 -91 -17.5 -257t-29.5 -219q-8 -45 -5.5 -144t-8.5 -144q28 -20 48 -53.5t16 -69 t-42 -51.5q-69 -34 -124 -8.5t-89 85.5t-32 123q-29 -23 -78 -73t-66 -66q-70 -4 -137 -4q-10 -61 -25 -238.5t-38 -271.5q-31 -29 -68.5 -24t-70.5 27.5t-54 53.5z" />
<glyph unicode="&#xb6;" horiz-adv-x="1454" d="M47 878q-20 111 25 207q19 66 65.5 133.5t82.5 104t108 104.5q96 56 202 74q31 -9 89.5 -3.5t89.5 -0.5q99 -6 283 -24.5t265 -24.5q23 0 46.5 -11.5t36 -22.5t36.5 -36t31 -32q14 -54 -16 -134q-33 -18 -74 -18t-92 8.5t-78 7.5q-11 -145 -43 -367t-53.5 -420 t-18.5 -368q-13 -56 -72 -55t-90 43q-34 51 -48 119.5t-11.5 120.5t9.5 134.5t7 123.5q6 108 41 340.5t39 355.5q-82 3 -164 0q-30 -133 -47 -296t-22 -269.5t-9.5 -310t-7.5 -279.5q-4 -25 -23.5 -40t-45.5 -15q-38 4 -70 28t-49 60q-15 66 -8.5 262t2.5 262 q-43 -31 -84 -39q-10 3 -47.5 13t-53.5 15t-44.5 15.5t-50 22.5t-40.5 28q-76 73 -96 184z" />
<glyph unicode="&#xb7;" horiz-adv-x="223" d="M43 809q-6 32 9.5 65.5t45.5 40.5q8 1 15.5 -1t13.5 -4.5t12 -9t10 -10t9.5 -13t7.5 -13.5l7.5 -15l6.5 -13q6 -42 -22 -82q-52 -36 -115 55z" />
<glyph unicode="&#xb8;" horiz-adv-x="471" d="M51 -287q12 0 59 -5.5t77 -0.5t51 27q-22 4 -93 22q-19 20 -22.5 54.5t0.5 60.5q6 30 24 58t44 59t38 49q14 -2 42 0.5t53.5 5t49.5 2t36.5 -8.5t7.5 -26q-2 -6 -65 -60q-74 -63 -46 -63q38 -13 72 -46.5t41 -71.5q15 -49 3 -97.5t-50 -83.5q-66 -35 -178 -53 q-11 3 -33.5 8t-36.5 8.5t-32 11t-32 17.5q-32 61 -10 133z" />
<glyph unicode="&#xb9;" horiz-adv-x="432" d="M41 1178q5 16 17.5 24t24 9.5t32 1.5t28.5 1q15 18 19.5 41.5t-9.5 38.5t-49 4q-25 6 -43 27t-18 47q79 58 152 125q38 10 79.5 -6t51.5 -51q4 -39 -3 -114t-4 -112q7 -5 21 -14t21.5 -15t18 -17t10.5 -20t-3 -26q-18 -19 -46 -20t-51 4.5t-50 -6.5q-8 1 -36.5 2.5 t-40.5 3t-36 6.5t-37 12.5t-27 21t-22 32.5z" />
<glyph unicode="&#xba;" horiz-adv-x="397" d="M43 1356q31 82 109 125q27 7 72.5 -7.5t58.5 -15.5q14 -10 33.5 -38t27.5 -36q1 -13 5.5 -51.5t5 -59t-8 -48.5t-29.5 -47q-27 -40 -68.5 -62t-80.5 -2q-36 11 -62 37.5t-39 61.5t-19 70.5t-5 72.5zM150 1287.5q-3 -32.5 20 -56.5q28 11 51 33.5t29 48.5q-1 4 -5.5 30.5 t-14 42t-27.5 11.5q-22 -23 -36 -50t-17 -59.5z" />
<glyph unicode="&#xbb;" horiz-adv-x="753" d="M53 662q21 44 84 116t84 113q-5 20 -22 36t-36 24.5t-37.5 23.5t-25.5 35q-19 26 -31.5 52.5t-12.5 59t22 54.5q73 -22 134 -70.5t134 -124.5q47 -33 73 -79t19 -97l22.5 22.5t25.5 27t15 25t7 31.5q-149 98 -236 187q-6 14 -11 31.5t-6.5 29t-4.5 35.5t-4 31q4 2 14 12 q56 -11 110.5 -44t118 -83.5t97.5 -71.5q11 -10 46 -41.5t54 -50.5q7 -14 12 -31.5t7 -30t4.5 -34.5t3.5 -31q-8 -27 -43.5 -64t-40.5 -44q-38 -51 -113 -160.5t-117 -163.5q-39 -8 -72.5 14.5t-48 60.5t-4.5 75q4 44 32.5 85t66 84t53.5 76q-24 -4 -42.5 -19.5t-41 -48 t-27.5 -38.5q-22 -24 -49.5 -69.5t-55.5 -80.5t-65 -53q-62 7 -90 69t-2 120z" />
<glyph unicode="&#xbc;" horiz-adv-x="1482" d="M43 977q26 12 79.5 15t63.5 5q8 4 12.5 10t6 14.5t1.5 14.5t-0.5 16.5t-0.5 14.5q-83 -11 -146 66q-6 27 -5 43.5t14 36t25.5 32l30 30t26.5 30.5q20 25 56 89t62 93q90 26 187 -49q18 -51 19 -112.5t-8.5 -111t-20 -115.5t-11.5 -112q69 -37 88 -110q38 40 72 98 t68 125.5t61 107.5l59 118t72 157q15 10 27 14q27 4 53.5 -5.5t40.5 -19t42 -34.5t36 -31q-1 -15 2.5 -45.5t2 -55t-15.5 -42.5q-30 -50 -163.5 -295.5t-221.5 -366.5q-59 -88 -167 -272.5t-168 -272.5q-27 -39 -71.5 -52t-86.5 9q-1 1 -7.5 9.5t-8 10.5t-7 10t-7.5 11 t-6.5 10.5t-6.5 11.5l-5.5 11t-4.5 12.5t-2.5 12t-2.5 12.5q24 74 68.5 154t98.5 166.5t83 146.5q12 24 64 105.5t69 131.5q-28 -3 -84.5 -10.5t-85 -10.5t-85 -6t-84.5 3q-25 20 -41 34.5t-35.5 38t-27 48.5t-3.5 51zM781.5 543q-8.5 52 17.5 98q19 29 76 110t92.5 139 t62.5 118q65 12 114.5 -46.5t22.5 -119.5q-7 -38 -47.5 -96.5t-48.5 -90.5q47 -8 72 -14q15 28 35 81t41.5 95t50.5 72q66 -5 117 -38.5t55 -94.5q-15 -56 -60.5 -167t-60.5 -173q-11 -51 -38.5 -146t-37.5 -137q-27 -42 -79.5 -36.5t-82.5 42.5q-11 15 -19 30.5t-11.5 34 t-6 32t0 36.5t3 33.5t7 37t8 33t9.5 36t9 32.5q-31 4 -82.5 -5t-95 -8.5t-76.5 24.5q-39 36 -47.5 88z" />
<glyph unicode="&#xbd;" horiz-adv-x="1437" d="M41 1257q25 40 84.5 117.5t85.5 120.5q95 -3 130 -16q51 -18 69 -66q11 -64 8.5 -174.5t1.5 -175.5q31 -3 58.5 -13t50.5 -29t29.5 -46t-5.5 -64q-25 -19 -60.5 -30t-60 -13t-70.5 -3.5t-63 -2.5q-33 -17 -66.5 -25t-70.5 -3.5t-64 26.5q-16 12 -27 32.5t-14.5 36.5 t-7.5 44.5t-6 38.5q20 17 46 23.5t65 8t53 3.5q-9 21 -10 47.5t1.5 40t10.5 47.5q-14 1 -38.5 -6t-38 -9t-36.5 9q-15 5 -24 17.5t-18 34.5t-13 29zM133 156q1 21 10 44.5t18 38.5t26 41t24 37q89 158 233 379t272.5 427.5t217.5 387.5q19 -3 61.5 -16t67.5 -16 q6 -9 21.5 -30t23 -33t14 -31t4.5 -37q-10 -29 -21.5 -57.5t-29 -62t-27 -52.5t-34.5 -59.5t-31 -50.5t-37 -58t-33 -52q-80 -138 -279.5 -431t-289.5 -459q-42 -57 -102 -74q0 14 -7 18t-16 2t-18.5 2t-12.5 17q-12 8 -20.5 19t-14 26t-8.5 24.5t-7 29.5t-5 26zM838 311 q27 39 89 116t104 141t67 130q-5 -2 -33.5 -22t-46.5 -14q-40 4 -66 39.5t-24.5 79.5t33.5 69q6 12 16 23t18.5 17t24.5 16t22 14q184 27 277 -74q47 -104 47 -162q-24 -71 -39.5 -113.5t-44 -100t-61.5 -101.5q9 -8 21.5 -12.5t29 -7.5t26.5 -7q40 -4 69.5 -40t27 -79 t-44.5 -63q-133 10 -324 -39q-4 -4 -13 -18q-15 -23 -20 -17q-4 6 -6 20q-56 -14 -95 20t-51.5 85.5t-2.5 99.5z" />
<glyph unicode="&#xbe;" horiz-adv-x="1331" d="M41.5 948q0.5 23 24.5 39q17 16 49.5 -3t46.5 -17q71 11 104 49q3 12 3 19.5t-5.5 16.5t-10.5 14.5t-13.5 14t-12.5 13.5q-1 11 -12 57.5t-6 71.5q8 7 31.5 20.5t35 27t9.5 32.5q-17 -6 -57 -33t-66 -29q-99 58 -92 121q21 62 74.5 98t121.5 39q41 -6 68 -12t63 -18.5 t61.5 -35t39.5 -53.5q61 -63 12 -198q-12 -28 -7.5 -65t14.5 -66.5t11.5 -65.5t-16.5 -63q-9 -13 -24 -42.5t-30.5 -50t-37.5 -30.5q-59 -33 -124.5 -45.5t-129.5 9t-94 83.5q-2 12 -16.5 45.5t-14 56.5zM166 201q63 96 189.5 315t201.5 330q64 94 118.5 192.5t134 260.5 t99.5 202q54 3 105.5 -23.5t89.5 -70.5q16 -54 -3 -106.5t-57 -111t-49 -95.5q-49 -104 -118 -224.5t-116.5 -195t-143 -220.5t-128.5 -198q-28 -38 -78 -128.5t-85 -133.5q-52 -9 -93 24.5t-57.5 84.5t-9.5 98zM715 393q3 47 21.5 88t47.5 76q40 47 77 99t88 129.5 t69 103.5q31 -9 50 -17t41 -26.5t28 -44.5q15 -27 16.5 -53.5t-11.5 -55t-24.5 -47t-36 -50.5t-32.5 -44q-25 -25 -32 -52q-6 -24 17 -22q4 1 10 2q8 11 17 29t15 33.5t15.5 32.5t20.5 25t29 11.5t41 -8.5q17 -10 30 -18.5t29 -20.5t25.5 -25t17 -28.5t7 -33.5t-8.5 -38 q-73 -235 -90 -305q-28 -42 -71 -56t-87 11q-37 70 -51 176q-28 5 -64.5 3.5t-68.5 -5.5t-63.5 6.5t-49.5 38.5q-25 39 -22 86z" />
<glyph unicode="&#xbf;" horiz-adv-x="751" d="M42.5 287q-0.5 30 0 48t4 55.5t4.5 49.5q0 8 5.5 19t6.5 16q4 13 9.5 26t13.5 29t12 25q9 4 20 17.5t17 17.5q3 1 4.5 8t5.5 8q29 10 29 25q98 73 133 155q2 3 7 11t6.5 11t3.5 11.5t-2 11.5q1 5 6.5 13.5t7 13.5t-1.5 16q9 39 12 72q-19 69 12 113q6 3 16 12t15 11.5 t19 -1.5q5 -3 18.5 0.5t17.5 -2.5q6 -6 21.5 -4t21.5 -4q4 -4 17.5 -10t17.5 -12q3 -11 21 -35t16 -43q21 -13 25 -51q10 -150 -37 -261q-2 -13 -17 -28q0 -17 -14 -25q-14 -26 -37 -50.5t-54.5 -52t-45.5 -42.5q-2 -2 -2 -6q-8 -4 -10 -6q0 -3 -2 -3h-7q-2 -11 -15.5 -23 t-16.5 -20q-2 -7 -11 -28.5t-12 -36t0 -29.5q-1 -8 -7 -37.5t-5 -49t12 -36.5q20 -23 55 0q10 2 24 18.5t24 18.5q8 3 16 17t14 18q25 61 27 90q-10 17 -10 37q0 1 1 3t1 3q4 6 4 21v2q4 8 14 18h2h14q20 2 64 2q8 -2 20 -14q26 -3 41 -21q3 -4 18 -13t17 -19 q4 -13 33.5 -49.5t26.5 -65.5q0 -3 -1 -15t-1.5 -17.5t-4.5 -13t-10 -11.5q-9 -35 -18 -43q-16 -46 -80 -95q-43 -27 -53 -30q0 -15 -29 -15q-9 1 -12 0.5t-11 -5t-10 -5.5q-49 -3 -98 0q-2 0 -13 1t-18 0t-12 -5q-6 -4 -21 6q-47 12 -94 12q12 4 10 13q-21 15 -69 30 q-7 17 -35.5 40t-34.5 42q-12 9 -26 45q-12 22 -18.5 46.5t-7 54.5zM319 1382q1 4 6.5 15.5t8 20t2.5 16.5q10 3 19 10t18 18t14 15q12 0 33.5 11t36.5 7q9 -1 25 0.5t27.5 0t20.5 -10.5q44 -9 76 -45q11 -15 23 -17q0 -3 2.5 -9t3.5 -7q22 -11 30 -35.5t7 -40.5t-6 -47 q-5 -5 -11.5 -9t-11.5 -7t-13.5 -6t-12.5 -4.5t-14.5 -3.5t-13 -2.5t-15 -2.5t-13.5 -2q-8 -4 -16 -0.5t-18 11.5t-15 10q-14 1 -41 1t-41 1q-9 4 -33 11.5t-37 14.5q-2 3 -11 14.5t-12.5 17t-9 15.5t-7.5 19.5t-1 19.5z" />
<glyph unicode="&#xc0;" horiz-adv-x="962" d="M41 37q6 8 7 19t-0.5 25t-0.5 21q5 13 5.5 47.5t10.5 51.5q16 122 17 139q1 30 15.5 82.5t17.5 75.5q4 18 10.5 61t13.5 66q6 17 15.5 52.5t15.5 53.5q6 51 35.5 142.5t36.5 121.5q25 36 28 76q8 21 30.5 73t31.5 81q4 16 20.5 46.5t18.5 49.5q28 62 41 109q10 7 10 20 q16 17 38.5 26t52 15t44.5 12q7 -3 66 -24q4 -4 16.5 -12.5t19.5 -17t7 -19.5q28 -46 32 -125q6 -18 11.5 -57t11.5 -58q2 -12 8.5 -64t13.5 -79v-7q1 -4 2 -10.5t2 -9.5q10 -117 31 -287q8 -16 13.5 -48t9.5 -44q-5 -28 7 -78t13 -63q4 -14 8.5 -40.5t6.5 -35.5 q18 -26 22 -98q9 -12 12.5 -40.5t5.5 -35.5q21 -71 25 -100q0 -5 7.5 -16.5t2.5 -20.5q1 -5 7.5 -23.5t3.5 -28.5q-1 -8 -5 -15.5t-10.5 -16.5t-9.5 -13q-87 -34 -133 -6q-17 1 -35.5 26.5t-30.5 29.5l-8 8q3 4 -2.5 8t-13.5 4q-20 39 -31 102q-22 94 -49 187 q-8 1 -25.5 3.5t-27.5 4t-25 1t-27 -4.5q-65 13 -120 16q-9 2 -33 11q-9 -2 -14.5 -10t-2.5 -17q4 -5 4 -12.5t-2 -16t-2 -12.5q-1 -7 -2 -31t-4.5 -39t-11.5 -28q0 -40 -6 -50q2 -13 -4 -44.5t0 -43.5t4 -18.5t-7.5 -17.5t-6.5 -17q-22 -7 -27 -24q-10 -3 -29 -13t-28 -14 q-10 -5 -28 1.5t-28 2.5q-17 -3 -45 8.5t-41 12.5q-2 2 -6 7t-6 7zM301 1993q3 2 17.5 14.5t25.5 13.5q10 1 22 -0.5t20 -3.5l22 -5.5t20 -4.5q20 -3 48 -22.5t40 -24.5q1 -1 10 -7t13 -11t6 -11q19 -36 24 -71q6 -9 15.5 -29t15.5 -29q0 -17 14 -44t17 -40q38 -41 28 -102 q-25 -22 -55 -37q-6 0 -18 1t-21.5 1t-17.5 -2q-22 13 -29 16q-7 1 -17 11.5t-18 9.5q-3 9 -15.5 22.5t-14.5 16.5q-6 6 -12.5 21t-12.5 20q-5 6 -11.5 19t-10.5 18q-10 11 -21 36t-16 33q-11 21 -27.5 62t-19.5 49q-1 5 -12 34t-9 46zM365 575q7 -2 30 -13.5t39 -8.5 q72 -14 123 -14q-1 20 -12 62.5t-10 66.5q-36 185 -43 315q-4 7 -13 4q-4 -6 -8 -18q-1 -7 -11 -32t-5 -42q-11 -16 -33 -66q-3 -3 0 -10.5t0 -11.5q-7 -16 -11 -48.5t-10 -47.5q-16 -52 -18 -66q-2 -5 -6.5 -16.5t-6.5 -18t-4 -16.5t-1 -19z" />
<glyph unicode="&#xc1;" horiz-adv-x="962" d="M41 37q6 8 7 19t-0.5 25t-0.5 21q5 13 5.5 47.5t10.5 51.5q16 122 17 139q1 30 15.5 82.5t17.5 75.5q4 18 10.5 61t13.5 66q6 17 15.5 52.5t15.5 53.5q6 51 35.5 142.5t36.5 121.5q25 36 28 76q8 21 30.5 73t31.5 81q4 16 20.5 46.5t18.5 49.5q28 62 41 109q10 7 10 20 q16 17 38.5 26t52 15t44.5 12q7 -3 66 -24q4 -4 16.5 -12.5t19.5 -17t7 -19.5q28 -46 32 -125q6 -18 11.5 -57t11.5 -58q2 -12 8.5 -64t13.5 -79v-7q1 -4 2 -10.5t2 -9.5q10 -117 31 -287q8 -16 13.5 -48t9.5 -44q-5 -28 7 -78t13 -63q4 -14 8.5 -40.5t6.5 -35.5 q18 -26 22 -98q9 -12 12.5 -40.5t5.5 -35.5q21 -71 25 -100q0 -5 7.5 -16.5t2.5 -20.5q1 -5 7.5 -23.5t3.5 -28.5q-1 -8 -5 -15.5t-10.5 -16.5t-9.5 -13q-87 -34 -133 -6q-17 1 -35.5 26.5t-30.5 29.5l-8 8q3 4 -2.5 8t-13.5 4q-20 39 -31 102q-22 94 -49 187 q-8 1 -25.5 3.5t-27.5 4t-25 1t-27 -4.5q-65 13 -120 16q-9 2 -33 11q-9 -2 -14.5 -10t-2.5 -17q4 -5 4 -12.5t-2 -16t-2 -12.5q-1 -7 -2 -31t-4.5 -39t-11.5 -28q0 -40 -6 -50q2 -13 -4 -44.5t0 -43.5t4 -18.5t-7.5 -17.5t-6.5 -17q-22 -7 -27 -24q-10 -3 -29 -13t-28 -14 q-10 -5 -28 1.5t-28 2.5q-17 -3 -45 8.5t-41 12.5q-2 2 -6 7t-6 7zM365 575q7 -2 30 -13.5t39 -8.5q72 -14 123 -14q-1 20 -12 62.5t-10 66.5q-36 185 -43 315q-4 7 -13 4q-4 -6 -8 -18q-1 -7 -11 -32t-5 -42q-11 -16 -33 -66q-3 -3 0 -10.5t0 -11.5q-7 -16 -11 -48.5 t-10 -47.5q-16 -52 -18 -66q-2 -5 -6.5 -16.5t-6.5 -18t-4 -16.5t-1 -19zM428 1731q6 11 25.5 40t27.5 46q3 9 17.5 26.5t17.5 30.5q0 1 8.5 19.5t16.5 25.5q5 8 11 25.5t11 25.5q7 9 10 25h50q-10 -10 -9 -15q14 -4 28 -11l33 -16.5l27 -13.5q24 -17 41 -69 q-4 -33 -30 -86.5t-31 -79.5q-27 -29 -55 -80q-29 -34 -29 -51h-72q0 8 -4.5 13t-14.5 9.5t-13 6.5q-5 9 -19.5 22.5t-19.5 20.5q-13 5 -21 17.5t-4 23.5q2 8 -0.5 23.5t-1.5 21.5z" />
<glyph unicode="&#xc2;" horiz-adv-x="962" d="M41 37q6 8 7 19t-0.5 25t-0.5 21q5 13 5.5 47.5t10.5 51.5q16 122 17 139q1 30 15.5 82.5t17.5 75.5q4 18 10.5 61t13.5 66q6 17 15.5 52.5t15.5 53.5q6 51 35.5 142.5t36.5 121.5q25 36 28 76q8 21 30.5 73t31.5 81q4 16 20.5 46.5t18.5 49.5q28 62 41 109q10 7 10 20 q16 17 38.5 26t52 15t44.5 12q7 -3 66 -24q4 -4 16.5 -12.5t19.5 -17t7 -19.5q28 -46 32 -125q6 -18 11.5 -57t11.5 -58q2 -12 8.5 -64t13.5 -79v-7q1 -4 2 -10.5t2 -9.5q10 -117 31 -287q8 -16 13.5 -48t9.5 -44q-5 -28 7 -78t13 -63q4 -14 8.5 -40.5t6.5 -35.5 q18 -26 22 -98q9 -12 12.5 -40.5t5.5 -35.5q21 -71 25 -100q0 -5 7.5 -16.5t2.5 -20.5q1 -5 7.5 -23.5t3.5 -28.5q-1 -8 -5 -15.5t-10.5 -16.5t-9.5 -13q-87 -34 -133 -6q-17 1 -35.5 26.5t-30.5 29.5l-8 8q3 4 -2.5 8t-13.5 4q-20 39 -31 102q-22 94 -49 187 q-8 1 -25.5 3.5t-27.5 4t-25 1t-27 -4.5q-65 13 -120 16q-9 2 -33 11q-9 -2 -14.5 -10t-2.5 -17q4 -5 4 -12.5t-2 -16t-2 -12.5q-1 -7 -2 -31t-4.5 -39t-11.5 -28q0 -40 -6 -50q2 -13 -4 -44.5t0 -43.5t4 -18.5t-7.5 -17.5t-6.5 -17q-22 -7 -27 -24q-10 -3 -29 -13t-28 -14 q-10 -5 -28 1.5t-28 2.5q-17 -3 -45 8.5t-41 12.5q-2 2 -6 7t-6 7zM261.5 1643.5q-3.5 7.5 2.5 15.5q2 3 7 18.5t14 20.5q4 10 10 20.5t14.5 22t12.5 18.5q10 8 18 19.5t16 28t13 24.5t19 31.5t21 34t20.5 27t27.5 28.5q8 8 29.5 12.5t29.5 11.5q11 0 23 4q25 3 69.5 -7 t61.5 -11q14 -19 51 -47q18 -43 33 -90q10 -14 18 -41.5t14 -38.5q4 -9 11 -31t14 -33q8 -11 12.5 -25.5t5.5 -24t1.5 -29t0.5 -25.5q-30 -21 -100 -21q-50 4 -104 70q-4 5 -10.5 15t-12.5 17t-14 11q-3 8 -9 30.5t-12 33.5q-7 2 -12 -2.5t-10 -12t-8 -10.5q-5 -27 -37 -51 q-2 -8 -14 -19.5t-15 -17.5q-2 -8 -19 -18t-16 -23q-3 13 -14 2q-9 0 -25 -1.5t-29.5 -1.5t-25.5 3q-8 7 -27.5 18.5t-27.5 18.5q-3 2 -11 7t-10.5 8t-6 10.5zM365 575q7 -2 30 -13.5t39 -8.5q72 -14 123 -14q-1 20 -12 62.5t-10 66.5q-36 185 -43 315q-4 7 -13 4 q-4 -6 -8 -18q-1 -7 -11 -32t-5 -42q-11 -16 -33 -66q-3 -3 0 -10.5t0 -11.5q-7 -16 -11 -48.5t-10 -47.5q-16 -52 -18 -66q-2 -5 -6.5 -16.5t-6.5 -18t-4 -16.5t-1 -19z" />
<glyph unicode="&#xc3;" horiz-adv-x="962" d="M41 37q6 8 7 19t-0.5 25t-0.5 21q5 13 5.5 47.5t10.5 51.5q16 122 17 139q1 30 15.5 82.5t17.5 75.5q4 18 10.5 61t13.5 66q6 17 15.5 52.5t15.5 53.5q6 51 35.5 142.5t36.5 121.5q25 36 28 76q8 21 30.5 73t31.5 81q4 16 20.5 46.5t18.5 49.5q28 62 41 109q10 7 10 20 q16 17 38.5 26t52 15t44.5 12q7 -3 66 -24q4 -4 16.5 -12.5t19.5 -17t7 -19.5q28 -46 32 -125q6 -18 11.5 -57t11.5 -58q2 -12 8.5 -64t13.5 -79v-7q1 -4 2 -10.5t2 -9.5q10 -117 31 -287q8 -16 13.5 -48t9.5 -44q-5 -28 7 -78t13 -63q4 -14 8.5 -40.5t6.5 -35.5 q18 -26 22 -98q9 -12 12.5 -40.5t5.5 -35.5q21 -71 25 -100q0 -5 7.5 -16.5t2.5 -20.5q1 -5 7.5 -23.5t3.5 -28.5q-1 -8 -5 -15.5t-10.5 -16.5t-9.5 -13q-87 -34 -133 -6q-17 1 -35.5 26.5t-30.5 29.5l-8 8q3 4 -2.5 8t-13.5 4q-20 39 -31 102q-22 94 -49 187 q-8 1 -25.5 3.5t-27.5 4t-25 1t-27 -4.5q-65 13 -120 16q-9 2 -33 11q-9 -2 -14.5 -10t-2.5 -17q4 -5 4 -12.5t-2 -16t-2 -12.5q-1 -7 -2 -31t-4.5 -39t-11.5 -28q0 -40 -6 -50q2 -13 -4 -44.5t0 -43.5t4 -18.5t-7.5 -17.5t-6.5 -17q-22 -7 -27 -24q-10 -3 -29 -13t-28 -14 q-10 -5 -28 1.5t-28 2.5q-17 -3 -45 8.5t-41 12.5q-2 2 -6 7t-6 7zM188 1663q-17 145 62 192q7 10 17.5 17t27.5 14.5t24 11.5q5 3 25 4t27 11q18 -2 51.5 -2.5t44.5 -1.5q68 -16 78 -17q4 -3 18 -17t23 -17q7 -2 13.5 -12.5t8.5 -12.5q1 -1 2 -3.5t1.5 -4.5t1.5 -4.5 t2.5 -3.5l3 -2t4 -1t4.5 1q1 6 7.5 20t6.5 23q5 23 23.5 40t42.5 17q57 -4 86 -33q22 0 34 -12q10 -14 23 -19q8 -20 14 -28q-10 -29 -10 -86q-30 -67 -94 -119q-21 -4 -70.5 -10.5t-75.5 -12.5q-1 13 -14 21.5t-25 3.5q-51 30 -77 49q-9 15 -33.5 36.5t-32.5 31.5 q-12 0 -33 -17q-1 -9 -0.5 -17t-1.5 -17t-8 -15q6 -23 -5.5 -46.5t-33.5 -29.5q-11 -5 -22.5 -5.5t-23 3t-20.5 7.5t-21.5 10.5t-20.5 9.5q-34 17 -54 43zM365 575q7 -2 30 -13.5t39 -8.5q72 -14 123 -14q-1 20 -12 62.5t-10 66.5q-36 185 -43 315q-4 7 -13 4q-4 -6 -8 -18 q-1 -7 -11 -32t-5 -42q-11 -16 -33 -66q-3 -3 0 -10.5t0 -11.5q-7 -16 -11 -48.5t-10 -47.5q-16 -52 -18 -66q-2 -5 -6.5 -16.5t-6.5 -18t-4 -16.5t-1 -19z" />
<glyph unicode="&#xc4;" horiz-adv-x="962" d="M41 37q6 8 7 19t-0.5 25t-0.5 21q5 13 5.5 47.5t10.5 51.5q16 122 17 139q1 30 15.5 82.5t17.5 75.5q4 18 10.5 61t13.5 66q6 17 15.5 52.5t15.5 53.5q6 51 35.5 142.5t36.5 121.5q25 36 28 76q8 21 30.5 73t31.5 81q4 16 20.5 46.5t18.5 49.5q28 62 41 109q10 7 10 20 q16 17 38.5 26t52 15t44.5 12q7 -3 66 -24q4 -4 16.5 -12.5t19.5 -17t7 -19.5q28 -46 32 -125q6 -18 11.5 -57t11.5 -58q2 -12 8.5 -64t13.5 -79v-7q1 -4 2 -10.5t2 -9.5q10 -117 31 -287q8 -16 13.5 -48t9.5 -44q-5 -28 7 -78t13 -63q4 -14 8.5 -40.5t6.5 -35.5 q18 -26 22 -98q9 -12 12.5 -40.5t5.5 -35.5q21 -71 25 -100q0 -5 7.5 -16.5t2.5 -20.5q1 -5 7.5 -23.5t3.5 -28.5q-1 -8 -5 -15.5t-10.5 -16.5t-9.5 -13q-87 -34 -133 -6q-17 1 -35.5 26.5t-30.5 29.5l-8 8q3 4 -2.5 8t-13.5 4q-20 39 -31 102q-22 94 -49 187 q-8 1 -25.5 3.5t-27.5 4t-25 1t-27 -4.5q-65 13 -120 16q-9 2 -33 11q-9 -2 -14.5 -10t-2.5 -17q4 -5 4 -12.5t-2 -16t-2 -12.5q-1 -7 -2 -31t-4.5 -39t-11.5 -28q0 -40 -6 -50q2 -13 -4 -44.5t0 -43.5t4 -18.5t-7.5 -17.5t-6.5 -17q-22 -7 -27 -24q-10 -3 -29 -13t-28 -14 q-10 -5 -28 1.5t-28 2.5q-17 -3 -45 8.5t-41 12.5q-2 2 -6 7t-6 7zM219 1710q-4 29 4 80q32 58 72 65q9 3 27.5 5.5t25.5 3.5q10 5 26.5 -5.5t26.5 -5.5q14 1 30 -4.5t24 -11t25.5 -18t21.5 -15.5q16 -46 16 -71q5 -8 7 -18.5t3 -25t2 -22.5q-10 -20 -28 -35q-2 -1 -7 -2.5 t-8 -2.5t-6 -4t-4 -7q0 -7 -10 -9t-12 -8q-15 2 -35 -14q-19 -1 -29 -1.5t-28.5 4t-28.5 8t-28 9.5l-27 9q-6 10 -22 28t-26 34t-12 34zM365 575q7 -2 30 -13.5t39 -8.5q72 -14 123 -14q-1 20 -12 62.5t-10 66.5q-36 185 -43 315q-4 7 -13 4q-4 -6 -8 -18q-1 -7 -11 -32 t-5 -42q-11 -16 -33 -66q-3 -3 0 -10.5t0 -11.5q-7 -16 -11 -48.5t-10 -47.5q-16 -52 -18 -66q-2 -5 -6.5 -16.5t-6.5 -18t-4 -16.5t-1 -19zM575 1638q-41 98 13 183q14 18 26 18q6 -1 11 6t8 8q6 0 11.5 2.5t12 7.5t9.5 7h20q9 -13 35.5 -11t36.5 -6q9 -7 33.5 -15 t33.5 -17q16 -14 25 -56q8 -17 8.5 -36t-3.5 -45.5t-5 -38.5q-4 -4 -14 -20t-19 -21q-5 -2 -23 -11.5t-28 -9.5q-23 -3 -52.5 -2.5t-49.5 10.5q-69 25 -89 47z" />
<glyph unicode="&#xc5;" horiz-adv-x="962" d="M41 37q6 8 7 19t-0.5 25t-0.5 21q5 13 5.5 47.5t10.5 51.5q16 122 17 139q1 30 15.5 82.5t17.5 75.5q4 18 10.5 61t13.5 66q6 17 15.5 52.5t15.5 53.5q6 51 35.5 142.5t36.5 121.5q25 36 28 76q8 21 30.5 73t31.5 81q4 16 20.5 46.5t18.5 49.5q28 62 41 109q10 7 10 20 q16 17 38.5 26t52 15t44.5 12q7 -3 66 -24q4 -4 16.5 -12.5t19.5 -17t7 -19.5q28 -46 32 -125q6 -18 11.5 -57t11.5 -58q2 -12 8.5 -64t13.5 -79v-7q1 -4 2 -10.5t2 -9.5q10 -117 31 -287q8 -16 13.5 -48t9.5 -44q-5 -28 7 -78t13 -63q4 -14 8.5 -40.5t6.5 -35.5 q18 -26 22 -98q9 -12 12.5 -40.5t5.5 -35.5q21 -71 25 -100q0 -5 7.5 -16.5t2.5 -20.5q1 -5 7.5 -23.5t3.5 -28.5q-1 -8 -5 -15.5t-10.5 -16.5t-9.5 -13q-87 -34 -133 -6q-17 1 -35.5 26.5t-30.5 29.5l-8 8q3 4 -2.5 8t-13.5 4q-20 39 -31 102q-22 94 -49 187 q-8 1 -25.5 3.5t-27.5 4t-25 1t-27 -4.5q-65 13 -120 16q-9 2 -33 11q-9 -2 -14.5 -10t-2.5 -17q4 -5 4 -12.5t-2 -16t-2 -12.5q-1 -7 -2 -31t-4.5 -39t-11.5 -28q0 -40 -6 -50q2 -13 -4 -44.5t0 -43.5t4 -18.5t-7.5 -17.5t-6.5 -17q-22 -7 -27 -24q-10 -3 -29 -13t-28 -14 q-10 -5 -28 1.5t-28 2.5q-17 -3 -45 8.5t-41 12.5q-2 2 -6 7t-6 7zM324 1848.5q3 10.5 4 15t8.5 13.5t10.5 12.5t12 12t12 11.5q35 38 87.5 59.5t104.5 18.5q21 -11 84 -37q12 -8 28 -33.5t27 -34.5q14 -2 24 -10.5t9 -24.5q1 -9 14.5 -34.5t8.5 -42.5q6 -21 -8 -55.5 t-15 -45.5q-9 -9 -6 -22q-8 -14 -28 -33t-27 -29q-66 -12 -99 -14q-53 13 -92 39q-10 2 -16 -10.5t-10.5 -17.5t-26.5 9q-2 0 -11 1t-13 2t-10 4t-9 8q-4 9 -18 21.5t-17 21.5q0 6 -8 10q-2 2 -2 4q1 4 -1 10.5t-6 16t-5 14.5q1 19 -2.5 60t-1.5 63q-5 7 -2 17.5zM365 575 q7 -2 30 -13.5t39 -8.5q72 -14 123 -14q-1 20 -12 62.5t-10 66.5q-36 185 -43 315q-4 7 -13 4q-4 -6 -8 -18q-1 -7 -11 -32t-5 -42q-11 -16 -33 -66q-3 -3 0 -10.5t0 -11.5q-7 -16 -11 -48.5t-10 -47.5q-16 -52 -18 -66q-2 -5 -6.5 -16.5t-6.5 -18t-4 -16.5t-1 -19z M432 1802q-12 -32 8 -55.5t50.5 -33t60.5 -9.5q31 4 53 16q10 0 14 2q12 3 18.5 12.5t4.5 20.5q7 14 4 25q3 16 -10 26q-18 27 -54.5 39.5t-72.5 9.5q-43 -3 -62 -34q-11 -7 -14 -19z" />
<glyph unicode="&#xc6;" horiz-adv-x="1409" d="M45 45q-7 53 1 107.5t29 128t27 104.5q24 72 62.5 204.5t74 239t78.5 197.5q4 10 29 67t31 87q22 42 33 80h2q51 120 120 223q8 4 25.5 7.5t20.5 4.5q61 0 319.5 4.5t319.5 -0.5q13 -8 41 -16t46.5 -19.5t26.5 -33.5q35 -32 35.5 -86.5t-39.5 -81.5q-33 1 -110 6t-121 7 t-107 -2.5t-115 -17.5v-141q41 -5 104.5 1t111 11.5t103 -6.5t95.5 -49q38 -18 54.5 -60.5t2 -83.5t-56.5 -55q-61 13 -128 13.5t-157.5 -7t-128.5 -8.5q3 -28 -6.5 -106.5t4.5 -106.5q-19 -164 -12 -415q31 0 68 -0.5t72.5 -1t72.5 -6.5t68.5 -17t60 -33t47.5 -53 q16 -21 16.5 -50t-13.5 -51t-38 -33.5t-55 1.5q-84 10 -128.5 13.5t-115.5 2.5t-127 -14q-134 45 -167 131q-2 34 -8 90t-9.5 94.5t-2 89t12.5 91.5q-24 16 -57 14t-59.5 -11.5t-61 -16.5t-61.5 -1q-20 -26 -31.5 -87.5t-24.5 -84.5q-22 -44 -38.5 -132t-26.5 -118 q-2 -2 -14 -15.5t-16 -17.5t-16 -12.5t-20 -9.5t-20 0t-25 8q-21 -3 -51.5 14.5t-46.5 18.5zM428 672q13 1 82 8t106 6q1 18 -6 49t-8 37q15 53 16.5 116.5t-2.5 139t-2 119.5l-10 -8q-24 -72 -87 -227.5t-89 -239.5z" />
<glyph unicode="&#xc7;" horiz-adv-x="972" d="M41 551q1 4 4 12.5t3.5 13t-1.5 13.5q14 75 12 102q4 14 5 28.5t0 38t-1 29.5q4 12 7 37t4 29q7 14 9.5 43t4.5 37q2 4 -1.5 15.5t1.5 15.5q8 11 11 38t12 39q2 3 2 21v6h4q6 3 1.5 15.5t0.5 17.5q-1 5 5.5 12t6.5 12q2 10 11 26t12 24q5 19 11.5 37t20.5 41t19 31 t26.5 38t22.5 31q17 11 45 32.5t52 38t48 27.5q8 3 25 10.5t30.5 12t26.5 6.5q3 1 24 4t27 12q9 -1 30.5 2.5t36.5 1.5t24 -14q81 -12 147 -66q5 -7 35.5 -32t36.5 -48q33 -28 51 -88q9 -22 15.5 -45.5t13.5 -58.5t10 -47q-1 -5 -6.5 -16t-5.5 -17q4 -4 6 -4q-2 -4 -3 -8 t-1.5 -9t-1.5 -8q-7 -21 -7 -39q-1 -2 -5 -15.5t-5.5 -17t-5.5 -15t-7 -16.5t-8 -13.5t-10.5 -14.5t-11.5 -12q-37 -9 -76 -12q-7 -1 -20 7t-23 5q-6 9 -31 30.5t-32 39.5q-3 5 -11.5 16.5t-12.5 21t-3 19.5q1 2 3.5 9t4 12.5t0.5 9.5q5 10 5 16q4 4 4 8q0 5 6.5 50t1.5 69 q-2 8 -6.5 30t-8 33.5t-10 29t-16.5 29.5t-23 21q-19 2 -37.5 -5.5t-40.5 -23t-32 -20.5q-29 -27 -82 -96q-15 -44 -45 -78q0 -8 -15 -43v-5t0.5 -5.5t-1 -4.5t-5.5 -3q-2 -8 -7.5 -22.5t-8.5 -24t-6 -22.5t-4 -25q1 -8 -8 -25.5t-5 -28.5q-4 -77 -16 -104q-3 -4 -3 -8 t1.5 -9t1.5 -8q-7 -19 -9 -56t-5 -52q-7 -26 -8.5 -76t-4.5 -70q1 -10 3 -44.5t3 -51t4.5 -43t8.5 -47.5q0 -2 -1.5 -7.5t-2.5 -9t-0.5 -7.5t2.5 -7q9 -11 11.5 -43t16.5 -43q9 -38 37 -63q14 -3 37 -20t35 -21q39 5 49 12q9 6 39 18.5t41 26.5q3 3 12 10.5t14 14t7 14.5 q12 16 20 35t16 45t13 39q16 57 8 160q0 25 43 30q16 -6 59.5 -12.5t65.5 -17.5q42 -36 52 -99t-11 -114q-3 -9 -1.5 -19t-1 -19t-11.5 -12l-29 -67q-2 -7 -12.5 -18.5t-12.5 -18.5q-5 -11 -26.5 -27.5t-24.5 -31.5q-40 -8 -55 -31q-3 -1 -8 -3t-8 -3q5 -8 2 -21 q-2 -6 -65 -60q-74 -63 -46 -63q38 -13 72 -46.5t41 -71.5q15 -49 3 -97.5t-50 -83.5q-65 -34 -179 -53q-11 3 -33.5 8t-36 8.5t-31.5 11t-32 17.5q-32 61 -10 133q12 0 59 -5.5t76.5 -0.5t50.5 27q-20 3 -92 22q-19 20 -22.5 54.5t0.5 60.5q2 12 7 24.5t9 20.5t14 22 t13.5 18.5t16.5 21t15 18.5q-17 0 -45 4q-23 2 -49 12.5t-38 18t-42 26.5q-25 14 -47 17q-14 21 -47 43q-24 35 -59 43q1 13 -14.5 34t-10.5 39q-29 64 -35 140q-16 118 -18 178z" />
<glyph unicode="&#xc8;" horiz-adv-x="956" d="M41 306.5q1 31.5 0 70.5q3 21 5 89.5t11 104.5q10 29 13 58q0 5 5.5 19t2.5 22q0 2 -0.5 10.5t0 13t2.5 10t6 9.5q0 26 2.5 54t5.5 50t9.5 54t10 49.5t12 53.5t11.5 50q14 10 4 20q13 30 11 43q-1 26 8 71t10 59q3 31 17.5 103t15.5 112l18 6q2 -2 8 -2q51 4 74 16 q13 0 19 4q32 8 196 33q23 8 69.5 8t61.5 2q9 -1 28.5 1t29.5 1q17 -5 52.5 -5.5t51.5 -4.5q9 -5 24 -24t31 -21q-4 -18 2 -21q6 -5 9.5 -15t5.5 -13q24 -28 26 -51q11 -14 -4 -29q3 -28 -2 -47q-12 -6 -31 -25q-21 -18 -53 2q-6 0 -23 0.5t-25.5 1.5t-22 4t-23.5 9 q-9 -1 -30.5 -6t-30.5 -6t-31 3q-7 -1 -27 -5t-28 -5t-29 0q-45 5 -64 -14q-26 -5 -59 -29q-9 -14 -9.5 -44.5t-8.5 -43.5q26 2 65 18q16 -4 24.5 -3t24.5 5t25 5q6 5 43 4.5t43 -0.5q59 -5 74 -13q44 -44 67 -81q0 -9 4 -11q-6 -8 2 -16q0 -4 4 -4v-4q16 -16 7 -62 q5 -36 -39 -59q-4 0 -15.5 -0.5t-18 -0.5t-15.5 1.5t-15 5.5q-11 -1 -31.5 1.5t-31.5 0.5q-141 -24 -176 -35q-65 -17 -91 -10q-5 -27 -15 -82.5t-15 -83.5q2 -9 -7 -23.5t-4 -25.5q0 -19 -2.5 -41t-5.5 -36.5t-8.5 -41.5t-7.5 -37q-5 -9 -3 -29t-3 -28q-2 -27 -3 -82 t-3 -82q-4 -11 -5 -16.5t4.5 -6.5t10.5 -0.5t12.5 2t11.5 1.5q32 -10 111 -6q5 6 31.5 0.5t31.5 -5.5q7 6 59 2t58 -4q7 -3 35.5 -8t40.5 -20q4 -8 27.5 -39t29.5 -51q-2 -9 7.5 -23t5.5 -22q-4 0 -2 -14l2 -15q-9 -38 -33 -68q-15 -3 -43 0t-43 0q-103 7 -187 15 q-7 0 -18.5 5t-17.5 5q-12 -7 -45.5 -4.5t-45.5 0.5q-46 -4 -126 -8q-19 13 -47.5 44.5t-41.5 41.5q3 7 0 10q-12 12 -18 16q-1 0 -2 1t-2 1q-13 8 -10 21q-6 5 -10.5 25t-14.5 26q-4 30 -5.5 68.5t-0.5 70zM297 1993q3 2 17.5 14.5t25.5 13.5q10 1 22 -0.5t20 -3.5l22 -5.5 t20 -4.5q20 -3 48 -22.5t40 -24.5q1 -1 10 -7t13 -11t6 -11q19 -36 24 -71q6 -9 15.5 -29t15.5 -29q0 -17 14 -44t17 -40q38 -41 28 -102q-25 -22 -55 -37q-6 0 -18 1t-21.5 1t-17.5 -2q-22 13 -29 16q-7 1 -17 11.5t-18 9.5q-3 9 -15.5 22.5t-14.5 16.5q-6 6 -12.5 21 t-12.5 20q-5 6 -12 19t-11 18q-10 11 -20.5 36t-15.5 33q-8 16 -16 34.5t-17.5 41.5t-14.5 35q-1 4 -11.5 33.5t-8.5 46.5z" />
<glyph unicode="&#xc9;" horiz-adv-x="956" d="M41 306.5q1 31.5 0 70.5q3 21 5 89.5t11 104.5q10 29 13 58q0 5 5.5 19t2.5 22q0 2 -0.5 10.5t0 13t2.5 10t6 9.5q0 26 2.5 54t5.5 50t9.5 54t10 49.5t12 53.5t11.5 50q14 10 4 20q13 30 11 43q-1 26 8 71t10 59q3 31 17.5 103t15.5 112l18 6q2 -2 8 -2q51 4 74 16 q13 0 19 4q32 8 196 33q23 8 69.5 8t61.5 2q9 -1 28.5 1t29.5 1q17 -5 52.5 -5.5t51.5 -4.5q9 -5 24 -24t31 -21q-4 -18 2 -21q6 -5 9.5 -15t5.5 -13q24 -28 26 -51q11 -14 -4 -29q3 -28 -2 -47q-12 -6 -31 -25q-21 -18 -53 2q-6 0 -23 0.5t-25.5 1.5t-22 4t-23.5 9 q-9 -1 -30.5 -6t-30.5 -6t-31 3q-7 -1 -27 -5t-28 -5t-29 0q-45 5 -64 -14q-26 -5 -59 -29q-9 -14 -9.5 -44.5t-8.5 -43.5q26 2 65 18q16 -4 24.5 -3t24.5 5t25 5q6 5 43 4.5t43 -0.5q59 -5 74 -13q44 -44 67 -81q0 -9 4 -11q-6 -8 2 -16q0 -4 4 -4v-4q16 -16 7 -62 q5 -36 -39 -59q-4 0 -15.5 -0.5t-18 -0.5t-15.5 1.5t-15 5.5q-11 -1 -31.5 1.5t-31.5 0.5q-141 -24 -176 -35q-65 -17 -91 -10q-5 -27 -15 -82.5t-15 -83.5q2 -9 -7 -23.5t-4 -25.5q0 -19 -2.5 -41t-5.5 -36.5t-8.5 -41.5t-7.5 -37q-5 -9 -3 -29t-3 -28q-2 -27 -3 -82 t-3 -82q-4 -11 -5 -16.5t4.5 -6.5t10.5 -0.5t12.5 2t11.5 1.5q32 -10 111 -6q5 6 31.5 0.5t31.5 -5.5q7 6 59 2t58 -4q7 -3 35.5 -8t40.5 -20q4 -8 27.5 -39t29.5 -51q-2 -9 7.5 -23t5.5 -22q-4 0 -2 -14l2 -15q-9 -38 -33 -68q-15 -3 -43 0t-43 0q-103 7 -187 15 q-7 0 -18.5 5t-17.5 5q-12 -7 -45.5 -4.5t-45.5 0.5q-46 -4 -126 -8q-19 13 -47.5 44.5t-41.5 41.5q3 7 0 10q-12 12 -18 16q-1 0 -2 1t-2 1q-13 8 -10 21q-6 5 -10.5 25t-14.5 26q-4 30 -5.5 68.5t-0.5 70zM403 1731q6 12 26 40.5t28 45.5q3 9 17.5 26.5t17.5 30.5 q1 2 8.5 20t15.5 25q5 8 11.5 25.5t11.5 25.5q7 9 10 25h49q-9 -9 -8 -15q14 -4 28 -11l33 -16.5l27 -13.5q24 -17 41 -69q-4 -33 -30.5 -86.5t-31.5 -79.5q-27 -29 -55 -80q-29 -34 -29 -51h-71q0 8 -5 13t-15 9.5t-13 6.5q-5 9 -19.5 22.5t-19.5 20.5q-13 5 -20.5 17 t-3.5 24q2 8 -1 23.5t-2 21.5z" />
<glyph unicode="&#xca;" horiz-adv-x="956" d="M41 306.5q1 31.5 0 70.5q3 21 5 89.5t11 104.5q10 29 13 58q0 5 5.5 19t2.5 22q0 2 -0.5 10.5t0 13t2.5 10t6 9.5q0 26 2.5 54t5.5 50t9.5 54t10 49.5t12 53.5t11.5 50q14 10 4 20q13 30 11 43q-1 26 8 71t10 59q3 31 17.5 103t15.5 112l18 6q2 -2 8 -2q51 4 74 16 q13 0 19 4q32 8 196 33q23 8 69.5 8t61.5 2q9 -1 28.5 1t29.5 1q17 -5 52.5 -5.5t51.5 -4.5q9 -5 24 -24t31 -21q-4 -18 2 -21q6 -5 9.5 -15t5.5 -13q24 -28 26 -51q11 -14 -4 -29q3 -28 -2 -47q-12 -6 -31 -25q-21 -18 -53 2q-6 0 -23 0.5t-25.5 1.5t-22 4t-23.5 9 q-9 -1 -30.5 -6t-30.5 -6t-31 3q-7 -1 -27 -5t-28 -5t-29 0q-45 5 -64 -14q-26 -5 -59 -29q-9 -14 -9.5 -44.5t-8.5 -43.5q26 2 65 18q16 -4 24.5 -3t24.5 5t25 5q6 5 43 4.5t43 -0.5q59 -5 74 -13q44 -44 67 -81q0 -9 4 -11q-6 -8 2 -16q0 -4 4 -4v-4q16 -16 7 -62 q5 -36 -39 -59q-4 0 -15.5 -0.5t-18 -0.5t-15.5 1.5t-15 5.5q-11 -1 -31.5 1.5t-31.5 0.5q-141 -24 -176 -35q-65 -17 -91 -10q-5 -27 -15 -82.5t-15 -83.5q2 -9 -7 -23.5t-4 -25.5q0 -19 -2.5 -41t-5.5 -36.5t-8.5 -41.5t-7.5 -37q-5 -9 -3 -29t-3 -28q-2 -27 -3 -82 t-3 -82q-4 -11 -5 -16.5t4.5 -6.5t10.5 -0.5t12.5 2t11.5 1.5q32 -10 111 -6q5 6 31.5 0.5t31.5 -5.5q7 6 59 2t58 -4q7 -3 35.5 -8t40.5 -20q4 -8 27.5 -39t29.5 -51q-2 -9 7.5 -23t5.5 -22q-4 0 -2 -14l2 -15q-9 -38 -33 -68q-15 -3 -43 0t-43 0q-103 7 -187 15 q-7 0 -18.5 5t-17.5 5q-12 -7 -45.5 -4.5t-45.5 0.5q-46 -4 -126 -8q-19 13 -47.5 44.5t-41.5 41.5q3 7 0 10q-12 12 -18 16q-1 0 -2 1t-2 1q-13 8 -10 21q-6 5 -10.5 25t-14.5 26q-4 30 -5.5 68.5t-0.5 70zM237 1643.5q-4 7.5 3 15.5q2 3 6.5 18.5t13.5 20.5q4 10 10 20.5 t14.5 22t12.5 18.5q10 8 18 19.5t16 28t13 24.5t19 31.5t21 34t20.5 27t27.5 28.5q8 8 30 12.5t30 11.5q10 0 22 4q25 3 69.5 -7t61.5 -11q14 -19 51 -47q18 -43 33 -90q10 -14 18.5 -41.5t14.5 -38.5q4 -9 11 -31t13 -33q8 -11 12.5 -26t5.5 -23t2 -29.5t1 -25.5 q-30 -21 -100 -21q-51 5 -105 70q-4 5 -10.5 15t-12.5 17t-14 11q-3 8 -9 30.5t-11 33.5q-7 2 -12.5 -2.5t-10.5 -12t-8 -10.5q-5 -27 -37 -51q-2 -8 -13.5 -19.5t-14.5 -17.5q-2 -8 -19 -18t-16 -23q-3 14 -15 2q-9 0 -25 -1.5t-29.5 -1.5t-25.5 3q-8 7 -27.5 18.5 t-27.5 18.5q-2 2 -10.5 7t-10.5 8t-6 10.5z" />
<glyph unicode="&#xcb;" horiz-adv-x="956" d="M41 306.5q1 31.5 0 70.5q3 21 5 89.5t11 104.5q10 29 13 58q0 5 5.5 19t2.5 22q0 2 -0.5 10.5t0 13t2.5 10t6 9.5q0 26 2.5 54t5.5 50t9.5 54t10 49.5t12 53.5t11.5 50q14 10 4 20q13 30 11 43q-1 26 8 71t10 59q3 31 17.5 103t15.5 112l18 6q2 -2 8 -2q51 4 74 16 q13 0 19 4q32 8 196 33q23 8 69.5 8t61.5 2q9 -1 28.5 1t29.5 1q17 -5 52.5 -5.5t51.5 -4.5q9 -5 24 -24t31 -21q-4 -18 2 -21q6 -5 9.5 -15t5.5 -13q24 -28 26 -51q11 -14 -4 -29q3 -28 -2 -47q-12 -6 -31 -25q-21 -18 -53 2q-6 0 -23 0.5t-25.5 1.5t-22 4t-23.5 9 q-9 -1 -30.5 -6t-30.5 -6t-31 3q-7 -1 -27 -5t-28 -5t-29 0q-45 5 -64 -14q-26 -5 -59 -29q-9 -14 -9.5 -44.5t-8.5 -43.5q26 2 65 18q16 -4 24.5 -3t24.5 5t25 5q6 5 43 4.5t43 -0.5q59 -5 74 -13q44 -44 67 -81q0 -9 4 -11q-6 -8 2 -16q0 -4 4 -4v-4q16 -16 7 -62 q5 -36 -39 -59q-4 0 -15.5 -0.5t-18 -0.5t-15.5 1.5t-15 5.5q-11 -1 -31.5 1.5t-31.5 0.5q-141 -24 -176 -35q-65 -17 -91 -10q-5 -27 -15 -82.5t-15 -83.5q2 -9 -7 -23.5t-4 -25.5q0 -19 -2.5 -41t-5.5 -36.5t-8.5 -41.5t-7.5 -37q-5 -9 -3 -29t-3 -28q-2 -27 -3 -82 t-3 -82q-4 -11 -5 -16.5t4.5 -6.5t10.5 -0.5t12.5 2t11.5 1.5q32 -10 111 -6q5 6 31.5 0.5t31.5 -5.5q7 6 59 2t58 -4q7 -3 35.5 -8t40.5 -20q4 -8 27.5 -39t29.5 -51q-2 -9 7.5 -23t5.5 -22q-4 0 -2 -14l2 -15q-9 -38 -33 -68q-15 -3 -43 0t-43 0q-103 7 -187 15 q-7 0 -18.5 5t-17.5 5q-12 -7 -45.5 -4.5t-45.5 0.5q-46 -4 -126 -8q-19 13 -47.5 44.5t-41.5 41.5q3 7 0 10q-12 12 -18 16q-1 0 -2 1t-2 1q-13 8 -10 21q-6 5 -10.5 25t-14.5 26q-4 30 -5.5 68.5t-0.5 70zM217 1710q-4 29 4 80q32 58 72 65q9 3 28 5.5t25 3.5 q10 5 26.5 -5.5t26.5 -5.5q14 1 30 -4.5t24 -11t25.5 -18t21.5 -15.5q16 -46 16 -71q5 -8 7 -18.5t3 -25t2 -22.5q-10 -20 -28 -35q-2 -1 -7 -2.5t-8 -2.5t-6 -4t-4 -7q0 -7 -10 -9t-12 -8q-15 2 -35 -14q-19 -1 -29 -1.5t-29 4t-28.5 8t-28 9.5t-27.5 9q-6 10 -22 28 t-25.5 34t-11.5 34zM573 1638q-41 98 13 183q14 18 26 18q6 -1 11 6t8 8q6 0 11.5 2.5t12 7.5t9.5 7h20q9 -13 35.5 -11t36.5 -6q9 -7 33.5 -15t33.5 -17q16 -14 25 -56q8 -17 8.5 -36t-3.5 -45.5t-5 -38.5q-4 -4 -14 -20t-19 -21q-5 -2 -23 -11.5t-28 -9.5 q-23 -3 -52.5 -2.5t-49.5 10.5q-69 25 -89 47z" />
<glyph unicode="&#xcc;" horiz-adv-x="667" d="M42.5 155q1.5 37 14.5 62q6 7 11 27.5t12 27.5q14 -1 29 -4t33.5 -7.5t27.5 -6.5q0 211 14 315q-3 11 -1.5 39t2.5 39.5t5 39.5t5 40q1 46 9.5 132t10.5 124q4 12 4 44.5t10 47.5q3 27 7.5 84t7.5 84q-11 5 -24 5t-29 -2.5t-25 -2.5q-30 12 -64 70q-11 75 -8 162 q6 1 17 0.5t20 0.5t16 5q9 4 30.5 8t31.5 8q5 3 14 -3t15 -3q14 4 43.5 4.5t44.5 5.5q16 1 44.5 -3.5t41.5 -4.5q20 1 54.5 -4t45.5 -6q13 -7 51 -15q2 -12 20 -32.5t15 -38.5q9 1 15.5 -7t4.5 -16q-5 -14 2 -39t5 -37q-8 -6 -16.5 -23t-18.5 -26.5t-27 -5.5q-7 -2 -19 6.5 t-22 3.5q-11 0 -16.5 -10.5t-5.5 -21.5q-2 -19 -11.5 -57.5t-11.5 -57.5q-8 -13 -9 -40.5t-5 -39.5q3 -34 -7.5 -96.5t-11.5 -79.5q0 -88 -18 -174q0 -94 -10 -139q3 -18 3 -40.5t-0.5 -35.5t-3 -43t-3.5 -37q-14 -28 -6 -53q-4 -14 0 -47q-18 -18 2 -54q33 7 55 0 q24 -9 41 -47t26 -47q1 -3 1.5 -21.5t7.5 -25.5q3 -19 2 -27.5t-8 -26.5t-9 -26q-5 -1 -14.5 -8.5t-15.5 -9.5q-20 -2 -40.5 -2.5t-44.5 1t-39 3t-44.5 5.5t-40.5 5q-9 4 -29.5 2t-30.5 2q-15 -4 -40.5 1t-37.5 3q-31 -13 -71 27q-9 7 -16 27.5t-15 27.5q-4 28 -2.5 65z M154 1993q3 2 17.5 14.5t25.5 13.5q10 1 22 -0.5t20 -3.5l22 -5.5t20 -4.5q20 -3 48 -22.5t40 -24.5q2 -2 8 -6t9 -6.5t6.5 -7t4.5 -9.5q20 -39 25 -71q6 -9 15.5 -29t15.5 -29q0 -17 13.5 -44t16.5 -40q39 -42 29 -102q-25 -22 -55 -37q-6 0 -18 1t-22 1t-18 -2 q-24 14 -28 16q-7 1 -17 11.5t-18 9.5q-3 9 -16 22t-15 17q-6 6 -12 21t-12 20q-5 6 -12 19t-11 18q-10 11 -21 36t-16 33q-11 21 -27.5 62t-19.5 49q-1 4 -11.5 33.5t-8.5 46.5z" />
<glyph unicode="&#xcd;" horiz-adv-x="667" d="M42.5 155q1.5 37 14.5 62q6 7 11 27.5t12 27.5q14 -1 29 -4t33.5 -7.5t27.5 -6.5q0 211 14 315q-3 11 -1.5 39t2.5 39.5t5 39.5t5 40q1 46 9.5 132t10.5 124q4 12 4 44.5t10 47.5q3 27 7.5 84t7.5 84q-11 5 -24 5t-29 -2.5t-25 -2.5q-30 12 -64 70q-11 75 -8 162 q6 1 17 0.5t20 0.5t16 5q9 4 30.5 8t31.5 8q5 3 14 -3t15 -3q14 4 43.5 4.5t44.5 5.5q16 1 44.5 -3.5t41.5 -4.5q20 1 54.5 -4t45.5 -6q13 -7 51 -15q2 -12 20 -32.5t15 -38.5q9 1 15.5 -7t4.5 -16q-5 -14 2 -39t5 -37q-8 -6 -16.5 -23t-18.5 -26.5t-27 -5.5q-7 -2 -19 6.5 t-22 3.5q-11 0 -16.5 -10.5t-5.5 -21.5q-2 -19 -11.5 -57.5t-11.5 -57.5q-8 -13 -9 -40.5t-5 -39.5q3 -34 -7.5 -96.5t-11.5 -79.5q0 -88 -18 -174q0 -94 -10 -139q3 -18 3 -40.5t-0.5 -35.5t-3 -43t-3.5 -37q-14 -28 -6 -53q-4 -14 0 -47q-18 -18 2 -54q33 7 55 0 q24 -9 41 -47t26 -47q1 -3 1.5 -21.5t7.5 -25.5q3 -19 2 -27.5t-8 -26.5t-9 -26q-5 -1 -14.5 -8.5t-15.5 -9.5q-20 -2 -40.5 -2.5t-44.5 1t-39 3t-44.5 5.5t-40.5 5q-9 4 -29.5 2t-30.5 2q-15 -4 -40.5 1t-37.5 3q-31 -13 -71 27q-9 7 -16 27.5t-15 27.5q-4 28 -2.5 65z M178 1731q6 11 25.5 40t27.5 46q3 9 17.5 26.5t17.5 30.5q0 1 8.5 19.5t16.5 25.5q5 8 11 25.5t11 25.5q8 11 11 25h49q-9 -9 -8 -15q14 -4 28 -11l33 -16.5l27 -13.5q24 -17 41 -69q-4 -33 -30.5 -86.5t-31.5 -79.5q-27 -29 -55 -80q-29 -34 -29 -51h-72q0 8 -4.5 13 t-14.5 9.5t-13 6.5q-5 9 -19.5 22.5t-19.5 20.5q-13 5 -21 17.5t-4 23.5q2 8 -0.5 23.5t-1.5 21.5z" />
<glyph unicode="&#xce;" horiz-adv-x="684" d="M42.5 155q1.5 37 14.5 62q6 7 11 27.5t12 27.5q14 -1 29 -4t33.5 -7.5t27.5 -6.5q0 211 14 315q-3 11 -1.5 39t2.5 39.5t5 39.5t5 40q1 46 9.5 132t10.5 124q4 12 4 44.5t10 47.5q3 27 7.5 84t7.5 84q-11 5 -24 5t-29 -2.5t-25 -2.5q-30 12 -64 70q-11 75 -8 162 q6 1 17 0.5t20 0.5t16 5q9 4 30.5 8t31.5 8q5 3 14 -3t15 -3q14 4 43.5 4.5t44.5 5.5q16 1 44.5 -3.5t41.5 -4.5q20 1 54.5 -4t45.5 -6q13 -7 51 -15q2 -12 20 -32.5t15 -38.5q9 1 15.5 -7t4.5 -16q-5 -14 2 -39t5 -37q-8 -6 -16.5 -23t-18.5 -26.5t-27 -5.5q-7 -2 -19 6.5 t-22 3.5q-11 0 -16.5 -10.5t-5.5 -21.5q-2 -19 -11.5 -57.5t-11.5 -57.5q-8 -13 -9 -40.5t-5 -39.5q3 -34 -7.5 -96.5t-11.5 -79.5q0 -88 -18 -174q0 -94 -10 -139q3 -18 3 -40.5t-0.5 -35.5t-3 -43t-3.5 -37q-14 -28 -6 -53q-4 -14 0 -47q-18 -18 2 -54q33 7 55 0 q24 -9 41 -47t26 -47q1 -3 1.5 -21.5t7.5 -25.5q3 -19 2 -27.5t-8 -26.5t-9 -26q-5 -1 -14.5 -8.5t-15.5 -9.5q-20 -2 -40.5 -2.5t-44.5 1t-39 3t-44.5 5.5t-40.5 5q-9 4 -29.5 2t-30.5 2q-15 -4 -40.5 1t-37.5 3q-31 -13 -71 27q-9 7 -16 27.5t-15 27.5q-4 28 -2.5 65z M73 1643.5q-4 7.5 3 15.5q2 3 6.5 18.5t13.5 20.5q4 10 10 20.5t14.5 22t12.5 18.5q10 8 18 19.5t16 28t13 24.5t19 31.5t21 34t20.5 27t27.5 28.5q8 8 30 12.5t30 11.5q10 0 22 4q25 3 69.5 -7t61.5 -11q14 -19 51 -47q18 -43 33 -90q10 -14 18.5 -41.5t14.5 -38.5 q4 -9 11 -31t14 -33q8 -11 12.5 -25.5t5.5 -24t1.5 -29t0.5 -25.5q-30 -21 -100 -21q-51 5 -105 70q-4 5 -10.5 15t-12.5 17t-14 11q-3 8 -9 30.5t-11 33.5q-7 2 -12.5 -2.5t-10.5 -12t-8 -10.5q-5 -27 -37 -51q-2 -8 -13.5 -19.5t-14.5 -17.5q-2 -8 -19 -18t-16 -23 q-3 13 -14 2q-9 0 -25 -1.5t-29.5 -1.5t-25.5 3q-8 7 -28 18.5t-28 18.5q-2 2 -10.5 7t-10.5 8t-6 10.5z" />
<glyph unicode="&#xcf;" horiz-adv-x="724" d="M43 1710q-4 29 4 80q32 58 72 65q9 3 27.5 5.5t25.5 3.5q10 5 26.5 -5.5t26.5 -5.5q14 1 30 -4.5t24 -11t25.5 -18t21.5 -15.5q16 -46 16 -71q5 -8 7 -18.5t3 -25t2 -22.5q-10 -20 -28 -35q-2 -1 -7 -2.5t-8 -2.5t-6 -4t-4 -7q0 -7 -10 -9t-12 -8q-15 2 -35 -14 q-19 -1 -29 -1.5t-29 4t-28.5 8t-28 9.5t-27.5 9q-6 10 -22 28t-25.5 34t-11.5 34zM53.5 155q1.5 37 14.5 62q6 7 10.5 27.5t11.5 27.5q14 -1 29 -4t33.5 -7.5t27.5 -6.5q0 204 15 315q-4 8 -2 39t2.5 39.5t4.5 39.5t5 40q1 46 9.5 132t10.5 124q4 11 4.5 44t10.5 48 q3 27 7 84t7 84q-11 5 -24 5t-29 -2.5t-25 -2.5q-29 12 -63 70q-12 80 -9 162q6 1 17.5 0.5t20.5 0.5t16 5q9 4 30 8t31 8q5 3 14 -3t15 -3q14 4 43.5 4.5t44.5 5.5q16 1 44.5 -3.5t41.5 -4.5q20 1 54.5 -4t45.5 -6q13 -7 51 -15q2 -12 20 -32.5t15 -38.5q9 1 16 -7t5 -16 q-5 -14 1.5 -39t4.5 -37q-8 -6 -16.5 -23t-18.5 -26.5t-27 -5.5q-7 -2 -19 6.5t-22 3.5q-11 0 -16.5 -10.5t-5.5 -21.5q-2 -19 -11.5 -57.5t-11.5 -57.5q-8 -13 -9 -40.5t-5 -39.5q3 -34 -7 -97t-11 -79q0 -84 -19 -174q0 -94 -10 -139q3 -18 3 -40.5t-0.5 -35.5t-3 -43 t-3.5 -37q-14 -28 -6 -53q-4 -14 0 -47q-18 -18 2 -54q33 7 55 0q24 -9 42 -47t26 -47q1 -3 1 -21.5t7 -25.5q3 -20 2 -27.5t-7.5 -26t-8.5 -26.5q-5 -1 -15 -8.5t-16 -9.5q-20 -2 -40.5 -2.5t-44.5 1t-39 3t-44.5 5.5t-40.5 5q-9 4 -29 2t-30 2q-15 -4 -40.5 1t-37.5 3 q-32 -13 -72 27q-9 7 -16 27.5t-15 27.5q-3 28 -1.5 65zM399 1638q-41 98 13 183q13 18 26 18q6 -1 11 6t8 8q6 0 11.5 2.5t11.5 7.5t9 7h21q9 -13 35.5 -11t36.5 -6q9 -7 33.5 -15t33.5 -17q16 -14 25 -56q8 -17 8.5 -36t-3.5 -45.5t-5 -38.5q-4 -4 -14 -20t-19 -21 q-5 -2 -23 -11.5t-28 -9.5q-23 -3 -53 -2.5t-50 10.5q-67 24 -88 47z" />
<glyph unicode="&#xd0;" horiz-adv-x="1351" d="M42.5 733q0.5 33 3 51t9.5 54q33 16 121 13t111 23q5 102 24 294t25 282q1 12 7.5 19.5t18 11t20.5 5t24.5 2t21.5 1.5q199 36 395 -33t334 -221q46 -54 76.5 -121.5t45.5 -148.5t20.5 -141t9.5 -150q2 -66 -18.5 -142.5t-39.5 -120t-61 -130.5q-20 -34 -45.5 -63 t-60 -53.5t-61.5 -41t-73.5 -36t-70 -28.5t-74.5 -28q-38 -4 -95 -16.5t-94.5 -20t-95.5 -11.5t-96 9q-19 -6 -57 -34t-64 -32q-32 20 -47 29.5t-38 34.5t-30 51q16 109 35 316.5t23 244.5h-40t-47 1.5t-37 9.5t-36 24q-22 16 -33 39.5t-10.5 56.5zM466.5 344.5 q-6.5 -42.5 4.5 -111.5q79 14 134 26.5t129 37t127.5 54t107 77t88.5 107.5q44 126 39.5 264t-54.5 262q-21 15 -58.5 50.5t-71 58t-72.5 28.5q-27 16 -62.5 23.5t-58 8t-68 -1t-61.5 -1.5q-25 -39 -31 -90t-5.5 -110.5t-8.5 -96.5q-14 -30 -10.5 -48.5t13.5 -26t30 -12.5 t39 -6.5t40.5 -7t34.5 -16.5q68 -11 101.5 -77t-2.5 -128q-29 -19 -70.5 -22t-77 3t-75.5 3t-66 -21q-1 -43 -15 -113.5t-20.5 -113z" />
<glyph unicode="&#xd1;" horiz-adv-x="1138" d="M43 152q4 68 4 307q-2 18 4 58.5t2 62.5q4 42 10.5 125.5t10.5 125.5q8 25 7.5 72t4.5 70q-7 9 -1 37t5 37q-1 15 7.5 49t4.5 53q-4 49 6.5 147.5t6.5 147.5q-1 3 -6 13t-3 16q18 18 29 16q6 0 7.5 4.5t-1.5 9.5h86q3 -1 9.5 -2t9.5 -2q-2 0 -2 -2t2 -2q9 0 26 -1t25 -1 q0 -2 4 -2h-2q1 0 2 -1t2 -1t4.5 -1t5.5 -1q7 -3 19.5 -12.5t19.5 -12.5q10 -5 16.5 -13t12.5 -22t8 -18q0 -25 8 -51t23 -58t20 -47q4 -10 8 -40t13 -44q36 -32 41 -67q3 -7 7 -29.5t11 -32.5q1 -17 11 -48.5t10 -49.5q3 -18 20 -39q4 -22 8 -31q7 -9 14 -35t15 -36 q9 -10 19 -33t14 -29q6 -10 16 -42.5t25 -45.5q2 -10 9 -29.5t9 -29.5q7 -6 15 -22.5t14 -22.5q6 -11 14 -36.5t17.5 -43t25.5 -29.5q-1 14 2.5 53.5t-0.5 53.5q6 37 5.5 57t-4 57.5t-3.5 57.5q-1 29 3.5 82t4.5 65q-3 45 11 191q5 6 5 14.5t-2 18.5t-1 16q-2 17 3.5 46 t6.5 36q6 50 10 145q4 13 14 60t19 71q60 19 127 4t108 -61q1 -7 6 -23t5.5 -22.5t-2.5 -22.5q-6 -16 -8 -50t-9 -50q-5 -21 -9 -97t-24 -114q5 -42 5 -154q-6 -18 -7 -41t0.5 -41t-0.5 -42q-2 -31 -5 -92.5t-5 -92.5q-8 -16 0 -43q-1 -11 -1 -57.5t-7 -71.5q4 -13 2.5 -37 t1.5 -37q-10 -12 -6 -46.5t0 -47.5q0 -2 -1 -12t0.5 -16t6.5 -11q3 -47 -6 -94q-4 -2 -20.5 -23t-34.5 -16q-14 1 -27 -3.5t-28.5 -13t-24.5 -11.5q-9 -2 -29 -5.5t-29 -5.5q-14 1 -36.5 19.5t-38.5 19.5q-3 11 -16.5 27t-16.5 22q-2 5 -10.5 8t-10.5 7q-8 24 -33.5 60.5 t-31.5 47.5q-12 29 -35 56q-8 19 -35.5 60.5t-36.5 66.5q-20 29 -47.5 88.5t-36.5 76.5q-3 22 -21.5 57.5t-23.5 49.5q-5 13 -20.5 43t-20.5 47q-9 2 -12.5 -2.5t-3.5 -18v-14.5q0 -47 -16 -141q3 -8 0.5 -45t-2.5 -45q1 -5 -4 -11.5t-5 -7.5q5 -20 -1.5 -58t-4.5 -54 q-5 -34 -4 -102t-4 -103q0 -13 -2.5 -43t-1.5 -47q7 -18 -3.5 -36.5t-29.5 -21.5q-15 -14 -45.5 -12t-48.5 -2q-10 -3 -14.5 -2t-14.5 6t-14 6q-4 11 -21 25.5t-22 21.5q-2 4 -5 14.5t-5 14.5q-3 7 -13.5 17.5t-16 21t-1.5 23.5zM256 1663q-17 146 61 192q7 10 18 17 t28 14.5t24 11.5q5 3 24.5 4t26.5 11q18 -2 52 -2.5t45 -1.5q68 -16 77 -17q4 -3 18 -17t23 -17q7 -2 14.5 -13t8.5 -12q1 -2 3 -7t3 -7t4.5 -5t7.5 1q1 6 8 20t7 23q5 23 23 40t42 17q57 -4 86 -33q23 0 35 -12q10 -14 23 -19q8 -20 14 -28q-10 -29 -10 -86 q-29 -66 -95 -119q-21 -4 -70 -10.5t-75 -12.5q-1 13 -14 21.5t-25 3.5q-56 33 -78 49q-9 15 -33 36.5t-32 31.5q-12 0 -33 -17q-1 -9 -0.5 -17t-1.5 -17t-8 -15q6 -23 -5.5 -46.5t-33.5 -29.5q-11 -5 -22.5 -5.5t-23 3t-21 7.5t-22 10.5t-20.5 9.5q-32 16 -53 43z" />
<glyph unicode="&#xd2;" horiz-adv-x="995" d="M45 815q-1 31 4.5 87t5.5 81q1 14 9 50t8 57q18 83 18 112q11 28 28 81.5t23 70.5q13 16 21 43q19 19 37 55q8 6 31 19t34 22q4 0 11.5 -1t11.5 -1q51 20 94 -4l30 6l-2 -1q-14 -7 -10 -11q3 -2 8.5 -7t9.5 -7.5t9.5 -5t11 -2t11.5 4.5q92 19 143 2q85 -10 135 -63 q17 -6 40 -29.5t36 -30.5q4 -7 10 -20t12 -23.5t15 -17.5q28 -46 45 -65q47 -100 47 -168q0 -8 9.5 -50.5t2.5 -64.5q1 -3 4.5 -10.5t3.5 -12.5q-8 -8 -5 -55t3 -55q4 -17 -1 -46.5t-3 -43.5q4 -14 -4 -39t-6 -39v-78q-13 -16 -6 -41q-5 -9 -4 -27t-4 -26q-9 -70 -21 -90 q4 -15 -5.5 -42.5t-4.5 -41.5q-2 -3 -6.5 -9t-7 -11.5t-3.5 -10.5q-3 -20 -11 -39.5t-21.5 -44t-18.5 -35.5q-4 -3 -18 -24.5t-31 -20.5q-6 -1 -10.5 -5t-8.5 -13.5t-5 -10.5q-8 -5 -29.5 -12.5t-30.5 -15.5q-7 -2 -55.5 -17t-73.5 -20q-11 1 -70 0.5t-67 7.5q-10 4 -21.5 7 t-25 5.5t-21.5 4.5q-4 14 -27.5 23t-29.5 20q-13 15 -46.5 36.5t-47.5 38.5q-4 4 -17.5 19t-19 22t-15 20t-15.5 24.5t-9 23.5q-3 7 -14 33t-16 43t-7 36q-3 23 -21.5 102t-17.5 124q-16 76 -8 227zM297 1993q3 2 17.5 14.5t25.5 13.5q10 1 22 -0.5t20 -3.5l22 -5.5t20 -4.5 q20 -3 48 -22.5t40 -24.5q1 -1 10 -7t13 -11t6 -11q19 -36 24 -71q6 -9 15.5 -29t15.5 -29q0 -17 14 -44t17 -40q38 -41 28 -102q-25 -22 -55 -37q-6 0 -18 1t-21.5 1t-17.5 -2q-22 13 -29 16q-7 1 -17 11.5t-18 9.5q-3 9 -15.5 22.5t-14.5 16.5q-6 6 -12.5 21t-12.5 20 q-5 6 -12 19t-11 18q-10 11 -20.5 36t-15.5 33q-8 16 -16 34.5t-17.5 41.5t-14.5 35q-1 4 -11.5 33.5t-8.5 46.5zM311.5 673.5q1.5 -20.5 7.5 -60t7 -60.5q1 -35 17 -103t17 -104q9 -16 24 -49t17 -37q2 -3 6.5 -18.5t12.5 -18.5q17 -5 35 -30.5t30 -32.5q7 -5 11.5 -4.5 t12.5 3.5t11 3q18 -2 47 6q68 84 82 174q7 21 14 60.5t13 56.5q0 11 4 39t2 43q12 66 12 100q14 161 13 203q6 11 0.5 63t-5.5 64q-3 13 -5 40t-5 40q-5 5 -3 13.5t1 17t-10 8.5q0 4 -0.5 14t-1 16t-3.5 13.5t-9 11.5q1 21 -22 49.5t-26 34.5q-30 49 -40 61q-9 4 -21.5 17 t-20 17t-26.5 -1q-6 -4 -11 -5.5t-8 -1t-6 4t-4 5.5t-3.5 8t-2.5 7q-8 -5 -17.5 -7t-22 -3t-19.5 -2q-14 -27 -24.5 -55t-24.5 -76t-17 -57q0 -38 4 -56q-6 -6 -8.5 -14t-3 -21t-0.5 -16q-6 -9 -8 -20t-2.5 -26t-1.5 -23q14 -23 -4 -31q-1 -21 -6 -67.5t-6 -66.5t3 -67 q-7 -39 -5.5 -59.5z" />
<glyph unicode="&#xd3;" horiz-adv-x="995" d="M45 815q-1 31 4.5 87t5.5 81q1 14 9 50t8 57q18 83 18 112q11 28 28 81.5t23 70.5q13 16 21 43q19 19 37 55q8 6 31 19t34 22q4 0 11.5 -1t11.5 -1q51 20 94 -4l30 6l-2 -1q-14 -7 -10 -11q3 -2 8.5 -7t9.5 -7.5t9.5 -5t11 -2t11.5 4.5q92 19 143 2q85 -10 135 -63 q17 -6 40 -29.5t36 -30.5q4 -7 10 -20t12 -23.5t15 -17.5q28 -46 45 -65q47 -100 47 -168q0 -8 9.5 -50.5t2.5 -64.5q1 -3 4.5 -10.5t3.5 -12.5q-8 -8 -5 -55t3 -55q4 -17 -1 -46.5t-3 -43.5q4 -14 -4 -39t-6 -39v-78q-13 -16 -6 -41q-5 -9 -4 -27t-4 -26q-9 -70 -21 -90 q4 -15 -5.5 -42.5t-4.5 -41.5q-2 -3 -6.5 -9t-7 -11.5t-3.5 -10.5q-3 -20 -11 -39.5t-21.5 -44t-18.5 -35.5q-4 -3 -18 -24.5t-31 -20.5q-6 -1 -10.5 -5t-8.5 -13.5t-5 -10.5q-8 -5 -29.5 -12.5t-30.5 -15.5q-7 -2 -55.5 -17t-73.5 -20q-11 1 -70 0.5t-67 7.5q-10 4 -21.5 7 t-25 5.5t-21.5 4.5q-4 14 -27.5 23t-29.5 20q-13 15 -46.5 36.5t-47.5 38.5q-4 4 -17.5 19t-19 22t-15 20t-15.5 24.5t-9 23.5q-3 7 -14 33t-16 43t-7 36q-3 23 -21.5 102t-17.5 124q-16 76 -8 227zM311.5 673.5q1.5 -20.5 7.5 -60t7 -60.5q1 -35 17 -103t17 -104 q9 -16 24 -49t17 -37q2 -3 6.5 -18.5t12.5 -18.5q17 -5 35 -30.5t30 -32.5q7 -5 11.5 -4.5t12.5 3.5t11 3q18 -2 47 6q68 84 82 174q7 21 14 60.5t13 56.5q0 11 4 39t2 43q12 66 12 100q14 161 13 203q6 11 0.5 63t-5.5 64q-3 13 -5 40t-5 40q-5 5 -3 13.5t1 17t-10 8.5 q0 4 -0.5 14t-1 16t-3.5 13.5t-9 11.5q1 21 -22 49.5t-26 34.5q-30 49 -40 61q-9 4 -21.5 17t-20 17t-26.5 -1q-6 -4 -11 -5.5t-8 -1t-6 4t-4 5.5t-3.5 8t-2.5 7q-8 -5 -17.5 -7t-22 -3t-19.5 -2q-14 -27 -24.5 -55t-24.5 -76t-17 -57q0 -38 4 -56q-6 -6 -8.5 -14t-3 -21 t-0.5 -16q-6 -9 -8 -20t-2.5 -26t-1.5 -23q14 -23 -4 -31q-1 -21 -6 -67.5t-6 -66.5t3 -67q-7 -39 -5.5 -59.5zM362 1731q6 12 26 40.5t28 45.5q3 9 17.5 26.5t17.5 30.5q1 2 8.5 20t15.5 25q5 8 11.5 25.5t11.5 25.5q7 9 10 25h49q-9 -9 -8 -15q14 -4 28 -11l33 -16.5 l27 -13.5q24 -17 41 -69q-4 -33 -30.5 -86.5t-31.5 -79.5q-27 -29 -55 -80q-29 -34 -29 -51h-71q0 8 -5 13t-15 9.5t-13 6.5q-5 9 -19.5 22.5t-19.5 20.5q-13 5 -20.5 17t-3.5 24q2 8 -1 23.5t-2 21.5z" />
<glyph unicode="&#xd4;" horiz-adv-x="995" d="M45 815q-1 31 4.5 87t5.5 81q1 14 9 50t8 57q18 83 18 112q11 28 28 81.5t23 70.5q13 16 21 43q19 19 37 55q8 6 31 19t34 22q4 0 11.5 -1t11.5 -1q51 20 94 -4l30 6l-2 -1q-14 -7 -10 -11q3 -2 8.5 -7t9.5 -7.5t9.5 -5t11 -2t11.5 4.5q92 19 143 2q85 -10 135 -63 q17 -6 40 -29.5t36 -30.5q4 -7 10 -20t12 -23.5t15 -17.5q28 -46 45 -65q47 -100 47 -168q0 -8 9.5 -50.5t2.5 -64.5q1 -3 4.5 -10.5t3.5 -12.5q-8 -8 -5 -55t3 -55q4 -17 -1 -46.5t-3 -43.5q4 -14 -4 -39t-6 -39v-78q-13 -16 -6 -41q-5 -9 -4 -27t-4 -26q-9 -70 -21 -90 q4 -15 -5.5 -42.5t-4.5 -41.5q-2 -3 -6.5 -9t-7 -11.5t-3.5 -10.5q-3 -20 -11 -39.5t-21.5 -44t-18.5 -35.5q-4 -3 -18 -24.5t-31 -20.5q-6 -1 -10.5 -5t-8.5 -13.5t-5 -10.5q-8 -5 -29.5 -12.5t-30.5 -15.5q-7 -2 -55.5 -17t-73.5 -20q-11 1 -70 0.5t-67 7.5q-10 4 -21.5 7 t-25 5.5t-21.5 4.5q-4 14 -27.5 23t-29.5 20q-13 15 -46.5 36.5t-47.5 38.5q-4 4 -17.5 19t-19 22t-15 20t-15.5 24.5t-9 23.5q-3 7 -14 33t-16 43t-7 36q-3 23 -21.5 102t-17.5 124q-16 76 -8 227zM216.5 1643.5q-3.5 7.5 2.5 15.5q2 3 7 18.5t14 20.5q4 10 9.5 20.5 t14 22.5t12.5 18q10 8 18 19.5t16.5 28t13.5 24.5t19 31.5t21 34t20.5 27t27.5 28.5q8 8 29.5 12.5t29.5 11.5q11 0 23 4q25 3 69.5 -7t61.5 -11q14 -19 51 -47q18 -43 33 -90q10 -14 18 -41.5t14 -38.5q4 -9 11 -31t14 -33q8 -11 12.5 -25.5t5.5 -24t1.5 -29t0.5 -25.5 q-30 -21 -100 -21q-50 4 -104 70q-4 5 -10.5 15t-12.5 17t-14 11q-3 8 -9 30.5t-12 33.5q-7 2 -12 -2.5t-10 -12t-8 -10.5q-5 -27 -37 -51q-2 -8 -14 -19.5t-15 -17.5q-2 -8 -19 -18t-16 -23q-3 13 -14 2q-9 0 -25 -1.5t-29.5 -1.5t-25.5 3q-8 7 -27.5 18.5t-27.5 18.5 q-3 2 -11 7t-10.5 8t-6 10.5zM311.5 673.5q1.5 -20.5 7.5 -60t7 -60.5q1 -35 17 -103t17 -104q9 -16 24 -49t17 -37q2 -3 6.5 -18.5t12.5 -18.5q17 -5 35 -30.5t30 -32.5q7 -5 11.5 -4.5t12.5 3.5t11 3q18 -2 47 6q68 84 82 174q7 21 14 60.5t13 56.5q0 11 4 39t2 43 q12 66 12 100q14 161 13 203q6 11 0.5 63t-5.5 64q-3 13 -5 40t-5 40q-5 5 -3 13.5t1 17t-10 8.5q0 4 -0.5 14t-1 16t-3.5 13.5t-9 11.5q1 21 -22 49.5t-26 34.5q-30 49 -40 61q-9 4 -21.5 17t-20 17t-26.5 -1q-6 -4 -11 -5.5t-8 -1t-6 4t-4 5.5t-3.5 8t-2.5 7 q-8 -5 -17.5 -7t-22 -3t-19.5 -2q-14 -27 -24.5 -55t-24.5 -76t-17 -57q0 -38 4 -56q-6 -6 -8.5 -14t-3 -21t-0.5 -16q-6 -9 -8 -20t-2.5 -26t-1.5 -23q14 -23 -4 -31q-1 -21 -6 -67.5t-6 -66.5t3 -67q-7 -39 -5.5 -59.5z" />
<glyph unicode="&#xd5;" horiz-adv-x="995" d="M45 815q-1 31 4.5 87t5.5 81q1 14 9 50t8 57q18 83 18 112q11 28 28 81.5t23 70.5q13 16 21 43q19 19 37 55q8 6 31 19t34 22q4 0 11.5 -1t11.5 -1q51 20 94 -4l30 6l-2 -1q-14 -7 -10 -11q3 -2 8.5 -7t9.5 -7.5t9.5 -5t11 -2t11.5 4.5q92 19 143 2q85 -10 135 -63 q17 -6 40 -29.5t36 -30.5q4 -7 10 -20t12 -23.5t15 -17.5q28 -46 45 -65q47 -100 47 -168q0 -8 9.5 -50.5t2.5 -64.5q1 -3 4.5 -10.5t3.5 -12.5q-8 -8 -5 -55t3 -55q4 -17 -1 -46.5t-3 -43.5q4 -14 -4 -39t-6 -39v-78q-13 -16 -6 -41q-5 -9 -4 -27t-4 -26q-9 -70 -21 -90 q4 -15 -5.5 -42.5t-4.5 -41.5q-2 -3 -6.5 -9t-7 -11.5t-3.5 -10.5q-3 -20 -11 -39.5t-21.5 -44t-18.5 -35.5q-4 -3 -18 -24.5t-31 -20.5q-6 -1 -10.5 -5t-8.5 -13.5t-5 -10.5q-8 -5 -29.5 -12.5t-30.5 -15.5q-7 -2 -55.5 -17t-73.5 -20q-11 1 -70 0.5t-67 7.5q-10 4 -21.5 7 t-25 5.5t-21.5 4.5q-4 14 -27.5 23t-29.5 20q-13 15 -46.5 36.5t-47.5 38.5q-4 4 -17.5 19t-19 22t-15 20t-15.5 24.5t-9 23.5q-3 7 -14 33t-16 43t-7 36q-3 23 -21.5 102t-17.5 124q-16 76 -8 227zM164 1663q-17 146 61 192q7 10 18 17t28 14.5t24 11.5q5 3 24.5 4t26.5 11 q18 -2 51.5 -2.5t44.5 -1.5q68 -16 78 -17q4 -3 18 -17t23 -17q7 -2 14.5 -13t8.5 -12q1 -2 3 -7t3 -7t4.5 -5t7.5 1q1 6 7.5 20t6.5 23q5 23 23.5 40t42.5 17q57 -4 86 -33q23 0 35 -12q11 -15 22 -19q7 -17 15 -28q-11 -32 -11 -86q-30 -67 -94 -119q-21 -4 -70 -10.5 t-75 -12.5q-1 13 -14 21.5t-25 3.5q-56 33 -78 49q-9 15 -33 36.5t-32 31.5q-12 0 -33 -17q-1 -9 -0.5 -17t-1.5 -17t-8 -15q6 -23 -5.5 -46.5t-33.5 -29.5q-11 -5 -22.5 -5.5t-23 3t-21 7.5t-22 10.5t-20.5 9.5q-32 16 -53 43zM311.5 673.5q1.5 -20.5 7.5 -60t7 -60.5 q1 -35 17 -103t17 -104q9 -16 24 -49t17 -37q2 -3 6.5 -18.5t12.5 -18.5q17 -5 35 -30.5t30 -32.5q7 -5 11.5 -4.5t12.5 3.5t11 3q18 -2 47 6q68 84 82 174q7 21 14 60.5t13 56.5q0 11 4 39t2 43q12 66 12 100q14 161 13 203q6 11 0.5 63t-5.5 64q-3 13 -5 40t-5 40 q-5 5 -3 13.5t1 17t-10 8.5q0 4 -0.5 14t-1 16t-3.5 13.5t-9 11.5q1 21 -22 49.5t-26 34.5q-30 49 -40 61q-9 4 -21.5 17t-20 17t-26.5 -1q-6 -4 -11 -5.5t-8 -1t-6 4t-4 5.5t-3.5 8t-2.5 7q-8 -5 -17.5 -7t-22 -3t-19.5 -2q-14 -27 -24.5 -55t-24.5 -76t-17 -57 q0 -38 4 -56q-6 -6 -8.5 -14t-3 -21t-0.5 -16q-6 -9 -8 -20t-2.5 -26t-1.5 -23q14 -23 -4 -31q-1 -21 -6 -67.5t-6 -66.5t3 -67q-7 -39 -5.5 -59.5z" />
<glyph unicode="&#xd6;" horiz-adv-x="995" d="M45 815q-1 31 4.5 87t5.5 81q1 14 9 50t8 57q18 83 18 112q11 28 28 81.5t23 70.5q13 16 21 43q19 19 37 55q8 6 31 19t34 22q4 0 11.5 -1t11.5 -1q51 20 94 -4l30 6l-2 -1q-14 -7 -10 -11q3 -2 8.5 -7t9.5 -7.5t9.5 -5t11 -2t11.5 4.5q92 19 143 2q85 -10 135 -63 q17 -6 40 -29.5t36 -30.5q4 -7 10 -20t12 -23.5t15 -17.5q28 -46 45 -65q47 -100 47 -168q0 -8 9.5 -50.5t2.5 -64.5q1 -3 4.5 -10.5t3.5 -12.5q-8 -8 -5 -55t3 -55q4 -17 -1 -46.5t-3 -43.5q4 -14 -4 -39t-6 -39v-78q-13 -16 -6 -41q-5 -9 -4 -27t-4 -26q-9 -70 -21 -90 q4 -15 -5.5 -42.5t-4.5 -41.5q-2 -3 -6.5 -9t-7 -11.5t-3.5 -10.5q-3 -20 -11 -39.5t-21.5 -44t-18.5 -35.5q-4 -3 -18 -24.5t-31 -20.5q-6 -1 -10.5 -5t-8.5 -13.5t-5 -10.5q-8 -5 -29.5 -12.5t-30.5 -15.5q-7 -2 -55.5 -17t-73.5 -20q-11 1 -70 0.5t-67 7.5q-10 4 -21.5 7 t-25 5.5t-21.5 4.5q-4 14 -27.5 23t-29.5 20q-13 15 -46.5 36.5t-47.5 38.5q-4 4 -17.5 19t-19 22t-15 20t-15.5 24.5t-9 23.5q-3 7 -14 33t-16 43t-7 36q-3 23 -21.5 102t-17.5 124q-16 76 -8 227zM174 1710q-4 29 4 80q32 58 72 65q9 3 27.5 5.5t25.5 3.5q10 5 26.5 -5.5 t26.5 -5.5q14 1 30 -4.5t24 -11t25.5 -18t21.5 -15.5q16 -46 16 -71q5 -8 7 -18.5t3 -25t2 -22.5q-10 -20 -28 -35q-2 -1 -7 -2.5t-8 -2.5t-6 -4t-4 -7q0 -7 -10 -9t-12 -8q-15 2 -35 -14q-19 -1 -29 -1.5t-29 4t-28.5 8t-28 9.5t-27.5 9q-6 10 -22 28t-25.5 34t-11.5 34z M311.5 673.5q1.5 -20.5 7.5 -60t7 -60.5q1 -35 17 -103t17 -104q9 -16 24 -49t17 -37q2 -3 6.5 -18.5t12.5 -18.5q17 -5 35 -30.5t30 -32.5q7 -5 11.5 -4.5t12.5 3.5t11 3q18 -2 47 6q68 84 82 174q7 21 14 60.5t13 56.5q0 11 4 39t2 43q12 66 12 100q14 161 13 203 q6 11 0.5 63t-5.5 64q-3 13 -5 40t-5 40q-5 5 -3 13.5t1 17t-10 8.5q0 4 -0.5 14t-1 16t-3.5 13.5t-9 11.5q1 21 -22 49.5t-26 34.5q-30 49 -40 61q-9 4 -21.5 17t-20 17t-26.5 -1q-6 -4 -11 -5.5t-8 -1t-6 4t-4 5.5t-3.5 8t-2.5 7q-8 -5 -17.5 -7t-22 -3t-19.5 -2 q-14 -27 -24.5 -55t-24.5 -76t-17 -57q0 -38 4 -56q-6 -6 -8.5 -14t-3 -21t-0.5 -16q-6 -9 -8 -20t-2.5 -26t-1.5 -23q14 -23 -4 -31q-1 -21 -6 -67.5t-6 -66.5t3 -67q-7 -39 -5.5 -59.5zM530 1638q-41 98 13 183q13 18 26 18q6 -1 11 6t8 8q6 0 11.5 2.5t12 7.5t9.5 7h20 q9 -13 35.5 -11t36.5 -6q9 -7 33.5 -15t33.5 -17q16 -14 25 -56q8 -17 8.5 -36t-3.5 -45.5t-5 -38.5q-4 -4 -14 -20t-19 -21q-5 -2 -23 -11.5t-28 -9.5q-23 -3 -53 -2.5t-50 10.5q-67 24 -88 47z" />
<glyph unicode="&#xd7;" horiz-adv-x="854" d="M41 760q30 25 84.5 68t99 80t80.5 73q-35 55 -112.5 146.5t-98.5 119.5q-21 34 35 53q61 14 150 -12q32 -28 81 -90t70 -84q51 29 131 117q35 41 96.5 44t109 -32t44.5 -92q-11 -10 -33.5 -28.5t-36 -30.5t-31.5 -29t-32 -33q-12 -13 -38.5 -31.5t-44.5 -36.5t-24 -42 q38 -90 144 -185q25 -48 -16 -82.5t-87 -19.5q-36 11 -65.5 38.5t-59.5 68.5t-49 59q-29 -21 -101 -86.5t-118 -91.5q-64 -23 -115 24t-63 115z" />
<glyph unicode="&#xd8;" horiz-adv-x="1382" d="M43 246q-1 49 29 87t79.5 76t69.5 64q23 360 215 713q16 21 48 66t52.5 72t51 61.5t63.5 60.5t70 45q20 9 38 11t35 -6.5t27.5 -14.5t26 -25.5t20.5 -26.5t21 -30q59 -25 99 -79t56 -120q26 -3 48 13t36 37.5t35.5 41t44.5 21.5q70 -36 125 -88q14 -47 -3 -89t-46 -67.5 t-72.5 -60.5t-62.5 -58q-25 -15 -33.5 -41.5t-6 -51.5t0.5 -56t-14 -51q-12 -38 -52 -196t-75 -239q-11 -24 -35 -86.5t-47.5 -104.5t-59.5 -73q-18 -6 -49 -18t-56.5 -21t-49.5 -14q-124 -3 -233.5 49t-159.5 154q-20 -1 -66.5 -29t-75.5 -18q-17 2 -32 12.5t-23 21.5 t-20 30t-19 28zM412 340q1 -51 36.5 -89t83.5 -48.5t99 2.5q25 21 47 53.5t33 55.5t30 69t27 63q8 23 28.5 75.5t32 93t15.5 79.5l-10 -6q-37 -30 -132 -106t-162 -132t-128 -110zM451 680l36 18q60 60 196 172.5t200 178.5q4 35 -11.5 99t-17.5 77q-5 4 -14.5 15.5t-19 19 t-19.5 10.5q-66 -35 -105 -92q-176 -221 -245 -498z" />
<glyph unicode="&#xd9;" d="M42.5 615q-1.5 67 1.5 158t3 130q4 21 6 63.5t6 63.5q-3 33 -3.5 44.5t4.5 44t6 44.5q8 35 11.5 100.5t6.5 86.5q4 16 6 34.5t3.5 40t2.5 33.5q-3 9 1.5 18.5t13.5 12.5q11 7 33.5 7.5t29.5 2.5q10 3 21 0q4 -2 13.5 0.5t14.5 -0.5q5 -1 20 -4.5t25 -7.5t17 -10 q10 -7 28 -11q4 -9 18.5 -31.5t20 -40.5t0.5 -38q-19 -76 -14 -123q1 -6 -4 -16t-6 -13q-5 -9 -1.5 -34.5t1.5 -36.5q2 -15 -4 -43.5t-5 -42.5q2 -2 7.5 -5.5t7.5 -5.5h-10.5t-10 -1t-4.5 -6.5t6 -16.5q2 -39 -3 -110t-5 -99q2 -24 -2.5 -69t-3.5 -66q2 -19 2.5 -92.5 t9.5 -114.5q-4 -20 4 -66q0 -17 9 -69q8 -7 12 -25.5t8 -24.5q6 -15 6 -30q6 -17 27.5 -38t26.5 -28q7 0 26.5 -4.5t32.5 -2.5t20 15q7 6 15 21t12 20q43 102 45 172q41 257 47 299q4 25 10.5 84t12.5 90q3 14 2.5 50.5t7.5 48.5q1 31 6.5 91.5t7 91t-1.5 91.5q4 27 0 80 q3 12 3.5 25.5t0 22.5t-2 26t-1.5 24q1 6 5 11.5t7 9t9.5 9.5t7.5 7q9 2 31.5 1.5t31.5 2.5q5 6 18 5t21 2q14 -7 51 -11q-2 -14 15.5 -27t21.5 -20q13 -10 11.5 -35.5t3.5 -40.5q8 -12 1.5 -38t0.5 -39q6 -10 2 -37t-2 -37q4 -20 5.5 -42.5t1.5 -52.5t1 -44 q4 -16 -2.5 -44.5t-5.5 -41.5q7 -10 -2 -25t-4 -25q-2 -20 -4.5 -53t-5.5 -60.5t-7 -51.5q-7 -20 -9.5 -60.5t-8.5 -58.5q-1 -46 -13 -128t-14 -114q-2 -9 -8.5 -52t-17.5 -63q1 -16 -3 -33.5t-10.5 -38.5t-9.5 -32q-30 -74 -76 -102q0 -1 -1 -2.5t-1 -2.5l-2 -2 q-1 -1 -3 -2t-3 -2l-12 -6q-2 0 -12 -5t-17 -5q-5 -7 -22 -10t-23 -9q-93 -32 -221 0q-15 -1 -28.5 3.5t-31 14.5t-24.5 13q-9 2 -21.5 11t-19.5 12q-87 87 -125 155q-1 1 -8.5 20.5t-14.5 26.5q-9 20 -17 58.5t-13 52.5q-4 14 -7.5 48.5t-11.5 51.5q-9 61 -10.5 128z M289 1993q3 2 17.5 14.5t25.5 13.5q10 1 22 -0.5t20 -3.5l22 -5.5t20 -4.5q20 -3 48 -22.5t40 -24.5q2 -2 8 -6t9 -6.5t6.5 -7t4.5 -9.5q20 -39 25 -71q6 -9 15.5 -29t15.5 -29q0 -17 13.5 -44t16.5 -40q39 -42 29 -102q-25 -22 -55 -37q-6 0 -18 1t-21.5 1t-17.5 -2 q-22 13 -29 16q-7 1 -17 11.5t-18 9.5q-3 9 -16 22t-15 17q-6 6 -12 21t-12 20q-5 6 -12 19t-11 18q-10 11 -21 36t-16 33q-11 21 -27.5 62t-19.5 49q-1 4 -11.5 33.5t-8.5 46.5z" />
</font>
</defs>
</svg>
