<?xml version="1.0" standalone="no"?>
<!DOCTYPE svg PUBLIC "-//W3C//DTD SVG 1.1//EN" "http://www.w3.org/Graphics/SVG/1.1/DTD/svg11.dtd" >
<svg xmlns="http://www.w3.org/2000/svg" xmlns:xlink="http://www.w3.org/1999/xlink" version="1.1">
<metadata></metadata>
<defs>
<font id="roboto_condenseditalic" horiz-adv-x="1007" >
<font-face units-per-em="2048" ascent="1536" descent="-512" />
<missing-glyph horiz-adv-x="465" />
<glyph unicode="&#xfb01;" horiz-adv-x="983" d="M71 0l163 939h-137l25 143h136l13 93q26 187 129.5 287.5t259.5 96.5q63 -2 121 -21.5t115 -42.5l-46 -155q-93 53 -186 53q-180 3 -216 -205l-16 -106h170l-25 -143h-169l-163 -939h-174zM549 0l188 1082h174l-188 -1082h-174z" />
<glyph unicode="&#xfb02;" horiz-adv-x="1011" d="M99 0l163 939h-137l25 143h137l17 120q24 172 120 267t244 91q76 -2 177 -25l160 -39l-255 -1496h-171l235 1385q-95 19 -142 19q-166 0 -199 -226l-14 -96h180l-25 -143h-179l-163 -939h-173z" />
<glyph unicode="&#xfb03;" horiz-adv-x="1489" d="M99 0l163 939h-137l25 143h137l14 107q24 180 118 277.5t238 93.5q52 -2 112 -19l-25 -150q-40 10 -79 12q-155 0 -190 -219l-16 -102h306l10 80q24 189 126 294t265 103q63 -2 121 -21t115 -43l-46 -155q-93 52 -188 52q-178 3 -215 -203l-16 -107h172l-25 -143h-171 l-163 -939h-173l163 939h-305l-163 -939h-173zM1056 0l188 1082h172l-188 -1082h-172z" />
<glyph unicode="&#xfb04;" horiz-adv-x="1489" d="M99 0l163 939h-137l25 143h137l16 113q25 180 118.5 274t235.5 91q52 -2 112 -19l-25 -150q-48 12 -79 12q-71 2 -120.5 -50t-66.5 -151l-19 -120h306l17 120q24 172 120 267t244 91q63 -1 158 -22l178 -42l-254 -1496h-172l242 1382q-103 20 -146 20q-78 0 -129.5 -52 t-68.5 -153l-17 -115h181l-25 -143h-180l-163 -939h-173l163 939h-305l-163 -939h-173z" />
<glyph horiz-adv-x="0" />
<glyph horiz-adv-x="0" />
<glyph unicode="&#xd;" horiz-adv-x="465" />
<glyph horiz-adv-x="0" />
<glyph unicode=" "  horiz-adv-x="465" />
<glyph unicode="&#x09;" horiz-adv-x="465" />
<glyph unicode="&#xa0;" horiz-adv-x="465" />
<glyph unicode="!" horiz-adv-x="498" d="M64 91q2 44 28.5 76t72.5 33q42 2 70 -29t26 -77q-2 -43 -28.5 -73.5t-71.5 -32.5q-42 -2 -70.5 27.5t-26.5 75.5zM136 411l169 1045h181l-195 -1045h-155z" />
<glyph unicode="&#x22;" horiz-adv-x="645" d="M200 1041l80 503l136 -9l-23 -145l-83 -348zM462 1042l80 502l136 -9l-23 -145l-83 -348h-110z" />
<glyph unicode="#" horiz-adv-x="1098" d="M94 410l24 137h209l119 354h-205l24 139h227l140 416h135l-140 -416h194l140 416h136l-139 -416h155l-24 -139h-177l-119 -354h174l-24 -137h-196l-138 -410h-136l138 410h-195l-137 -410h-135l137 410h-187zM462 547h195l119 354h-195z" />
<glyph unicode="$" horiz-adv-x="991" d="M88 429h173q-9 -145 34.5 -216.5t129.5 -72.5q102 -2 170 65t81 178q18 172 -169 263q-149 72 -214.5 175t-54.5 250q13 163 102.5 269.5t240.5 131.5l39 220h138l-40 -223q107 -29 163 -123t58 -245l-3 -93h-171l2 92q-2 97 -39 155t-105 60q-90 2 -146.5 -64.5 t-68.5 -175.5q-9 -88 32 -153t136 -112q154 -76 218 -177.5t53 -248.5q-12 -166 -110 -272t-261 -128l-35 -192h-136l35 194q-131 26 -198 140t-54 303z" />
<glyph unicode="%" horiz-adv-x="1267" d="M197 1099l6 64q13 144 89.5 230.5t189.5 84.5q108 -4 166 -88.5t51 -213.5l-6 -65q-13 -142 -89.5 -228t-187.5 -84q-105 2 -165.5 87t-53.5 213zM223 184l770 1128l92 -72l-772 -1128zM324 1041q4 -55 29 -88t68 -34q54 -2 93 45.5t51 133.5l8 79v57q-4 55 -28.5 88.5 t-67.5 34.5q-58 2 -97.5 -50t-48.5 -140l-7 -70v-56zM626 279l6 78q15 136 91 219.5t187 81.5q106 -3 165.5 -87t52.5 -214l-6 -65q-13 -146 -91 -231.5t-187 -82.5q-104 2 -164.5 85.5t-53.5 215.5zM753 220q4 -55 28.5 -88.5t67.5 -34.5q58 -2 97 51t48 139l7 71v57 q-4 55 -28.5 88.5t-67.5 34.5q-57 2 -98 -51.5t-48.5 -143t-5.5 -123.5z" />
<glyph unicode="&#x26;" horiz-adv-x="1090" d="M74 383q9 106 73.5 199.5t220.5 205.5l-39 86q-57 130 -49 240q14 168 109 267.5t235 95.5q121 -4 195 -90.5t66 -210.5q-10 -182 -200 -327l-110 -84l186 -362q66 122 89 269h152q-26 -253 -159 -418l128 -254h-194l-52 105q-146 -128 -311 -124q-161 2 -257 114.5 t-83 287.5zM250 383q-14 -108 32 -179t139 -73q90 -3 186 74l43 36l-209 421l-34 -26q-143 -122 -157 -253zM448 1121q-5 -44 6.5 -92.5t48.5 -132.5l85 66q55 42 91.5 92.5t43.5 122.5q5 64 -27 106.5t-85 42.5q-63 0 -107.5 -56.5t-55.5 -148.5z" />
<glyph unicode="'" horiz-adv-x="356" d="M170 1057l77 479h146l-19 -118l-76 -361h-128z" />
<glyph unicode="(" horiz-adv-x="634" d="M110 400q4 92 16 176l12 73q63 353 208.5 613t350.5 382l23 -124q-185 -169 -296 -451t-146 -678l-7 -127q-7 -208 31.5 -366t123.5 -256l-45 -111q-96 86 -161 219t-92 305t-18 345z" />
<glyph unicode=")" horiz-adv-x="642" d="M-98 -356q272 252 379 727q64 283 70 537q10 425 -154 623l45 111q146 -128 215 -355t56 -515q-5 -93 -16 -176l-2 -11q-36 -242 -116 -453t-195.5 -364.5t-257.5 -238.5z" />
<glyph unicode="*" horiz-adv-x="866" d="M107 1077l68 144l278 -113l51 348h150l-70 -344l303 108l19 -159l-315 -91l147 -275l-128 -88l-131 290l-222 -280l-114 98l241 272z" />
<glyph unicode="+" horiz-adv-x="996" d="M84 606l31 175h321l74 425h174l-74 -425h320l-31 -175h-319l-80 -460h-174l80 460h-322z" />
<glyph unicode="," horiz-adv-x="400" d="M-113 -216q116 143 144 284l26 151h177l-21 -135q-36 -228 -222 -375z" />
<glyph unicode="-" horiz-adv-x="503" d="M35 543l27 151h402l-27 -151h-402z" />
<glyph unicode="." horiz-adv-x="533" d="M53 94q0 49 31 81.5t80 34.5q49 1 81 -30t31 -80t-33 -79.5t-80 -32.5t-79 27.5t-31 78.5z" />
<glyph unicode="/" horiz-adv-x="746" d="M-100 -125l771 1581h152l-769 -1581h-154z" />
<glyph unicode="0" horiz-adv-x="991" d="M107 351q-7 128 18 298l38 252q53 310 168 444.5t296 130.5q276 -7 297 -363q6 -106 -13 -270l-46 -302q-53 -299 -169 -433.5t-292 -128.5q-276 7 -297 372zM271 422q-11 -286 144 -292q210 -11 272 372l51 338q19 128 22 204q6 144 -31 210t-114 71q-213 12 -274 -376 l-55 -372q-13 -95 -15 -155z" />
<glyph unicode="1" horiz-adv-x="991" d="M239 1091l32 178l468 194h31l-249 -1463h-174l214 1227z" />
<glyph unicode="2" horiz-adv-x="991" d="M19 0l22 141l522 590q101 116 147 215t38 209q-7 77 -46 122.5t-103 48.5q-109 3 -178.5 -77t-87.5 -221l-170 -1q20 202 141.5 327.5t303.5 121.5q157 -4 244.5 -111t72.5 -272q-18 -192 -200 -414l-71 -84l-399 -444h579l-24 -151h-791z" />
<glyph unicode="3" horiz-adv-x="991" d="M65 384h173q-8 -119 36.5 -185t129.5 -68q103 -3 170 73t79 206q12 118 -36.5 185t-146.5 71l-123 1l25 151l105 -2q129 2 202.5 97.5t59.5 249.5q-7 77 -47 119.5t-107 43.5q-88 2 -149 -62.5t-80 -188.5l-170 -1q17 177 130.5 291t279.5 112q106 -2 181 -54.5 t110 -144.5t25 -206q-10 -108 -72.5 -193.5t-161.5 -136.5q82 -42 119 -127.5t27 -201.5q-18 -195 -136.5 -316t-293.5 -117q-159 4 -248.5 116t-80.5 288z" />
<glyph unicode="4" horiz-adv-x="991" d="M12 338l21 119l693 999h187l-168 -967h157l-26 -151h-157l-59 -338h-173l59 338h-534zM235 489h337l126 694z" />
<glyph unicode="5" horiz-adv-x="991" d="M106 384h161q11 -250 177 -253q129 -3 200.5 129t60.5 311q-7 96 -51 153t-120 60q-48 2 -90.5 -17t-99.5 -73l-142 39l175 723h616l-27 -171h-468l-103 -398q96 65 190 63q136 -2 212 -103.5t82 -269.5q6 -170 -50 -311t-159 -216.5t-236 -71.5q-148 3 -237 112.5 t-91 293.5z" />
<glyph unicode="6" horiz-adv-x="991" d="M114 420q-1 63 17 205q62 425 230 625.5t441 207.5h39l-15 -157h-33q-161 -4 -273.5 -111t-188.5 -357q112 126 252 122q129 -4 203 -101.5t80 -268.5q6 -158 -48.5 -303.5t-154 -225.5t-233.5 -76q-174 5 -256 167q-57 114 -60 273zM286 465q-7 -144 32.5 -236.5 t121.5 -96.5q118 -5 188.5 119.5t66.5 319.5q-2 100 -41.5 164.5t-111.5 66.5q-73 2 -138 -50.5t-108 -148.5l-7 -72z" />
<glyph unicode="7" horiz-adv-x="991" d="M129 0l689 1304h-626l24 152h811l-18 -114l-692 -1342h-188z" />
<glyph unicode="8" horiz-adv-x="991" d="M85 385q22 249 259 370q-64 54 -92.5 136.5t-20.5 175.5q13 181 123.5 297.5t276.5 112.5q148 -4 231 -113t69 -279q-21 -221 -231 -341q74 -54 111 -144.5t28 -197.5q-15 -185 -133.5 -306t-296.5 -117q-160 4 -249.5 119t-74.5 287zM258 299q9 -79 51 -123.5t111 -45.5 q99 -3 166.5 71.5t80.5 203.5q11 122 -33 194.5t-127 74.5h-2q-79 1 -139.5 -50.5t-89 -144t-18.5 -180.5zM402 1065q-9 -111 29 -175t111 -66q103 -4 166 99t50 238q-7 74 -44 118.5t-95 45.5q-89 2 -148 -73t-69 -187z" />
<glyph unicode="9" horiz-adv-x="991" d="M160 862q-6 158 50 309t156 230t229 75q153 -4 234 -127.5t78 -338.5q-2 -131 -38 -318q-66 -344 -222.5 -512t-401.5 -181l-62 -1l15 156h43q167 5 277 112.5t176 355.5q-124 -138 -253 -135q-86 1 -149 48t-96.5 136t-35.5 191zM330 913q-3 -126 35.5 -199t114.5 -75 q131 -6 240 194q19 148 15 232q-6 124 -44 189.5t-106 68.5q-127 6 -199 -148q-42 -91 -52 -200z" />
<glyph unicode=":" horiz-adv-x="474" d="M47 94q0 49 31 81.5t80 34.5q49 1 81 -30t31 -80t-33 -79.5t-80 -32.5t-79 27.5t-31 78.5zM200 977q0 49 31 81.5t80 34.5q49 1 81 -30t31 -80t-33 -79.5t-80 -32.5t-79 27.5t-31 78.5z" />
<glyph unicode=";" horiz-adv-x="413" d="M-99 -216q116 143 144 284l26 151h177l-21 -135q-36 -228 -222 -375zM176 977q0 49 31 81.5t80 34.5q49 1 81 -30t31 -80t-33 -79.5t-80 -32.5t-79 27.5t-31 78.5z" />
<glyph unicode="&#x3c;" horiz-adv-x="896" d="M72 580l26 146l731 378l-37 -207l-539 -258l451 -253l-32 -186z" />
<glyph unicode="=" horiz-adv-x="962" d="M108 399l28 160h682l-29 -160h-681zM180 814l28 161h682l-29 -161h-681z" />
<glyph unicode="&#x3e;" horiz-adv-x="924" d="M60 190l36 203l571 263l-481 258l31 180l635 -379l-26 -145z" />
<glyph unicode="?" horiz-adv-x="848" d="M170 1115q19 164 124.5 265t258.5 97q147 -4 224.5 -108.5t62.5 -264.5q-14 -166 -172 -334l-125 -127q-73 -84 -96 -233l-168 -1q13 114 55.5 200.5t140 187t132 154.5t47.5 105.5t10 115.5q-4 67 -36 105.5t-88 39.5q-76 2 -129 -54.5t-70 -146.5zM213 91 q2 44 27.5 75.5t71.5 33.5q40 2 69 -27.5t27 -78.5q-2 -43 -28.5 -74t-71.5 -32q-42 -2 -69.5 27t-25.5 76z" />
<glyph unicode="@" horiz-adv-x="1538" d="M62 178l1 94q8 211 77 427.5t188 387.5t273 259t328 85q235 -4 365 -166.5t139 -462.5v-95q-11 -224 -68.5 -391.5t-152 -254t-215.5 -82.5q-75 2 -120.5 44t-55.5 115l-40 -52q-87 -108 -185 -108q-85 2 -131.5 66.5t-49.5 192.5q-4 170 62.5 363t165.5 292.5t219 97.5 q74 -2 128.5 -30.5t107.5 -77.5l-128 -555q-16 -81 -14 -135q4 -93 70 -96q105 -5 176.5 118.5t102.5 367.5q20 154 13 271q-13 218 -112.5 330.5t-280.5 115.5q-157 3 -292 -81.5t-236.5 -254t-157 -399.5t-44.5 -430q10 -225 107.5 -342t270.5 -119q145 -2 288 78l22 -117 q-120 -87 -312 -87q-238 4 -369 167t-140 464zM567 240q4 -118 86 -121q50 -2 99.5 55t74.5 135l4 19l122 513q-40 21 -78 23q-114 4 -190 -122t-113 -390q-8 -57 -5 -112z" />
<glyph unicode="A" horiz-adv-x="1155" d="M-66 0l707 1456h154l203 -1456h-177l-45 380h-476l-176 -380h-190zM374 538h383l-77 660z" />
<glyph unicode="B" horiz-adv-x="1093" d="M48 0l252 1456l391 -1q177 -5 263 -104q74 -85 74 -227q0 -23 -2 -48q-18 -204 -238 -314q80 -35 120 -125q32 -72 31 -162q0 -23 -2 -47q-15 -197 -139 -313q-122 -115 -313 -115h-3h-434zM254 157l232 -2q136 1 212 105q66 89 66 217q0 20 -2 41q-14 154 -158 162 l-259 1zM371 835l219 -2q82 2 144.5 46.5t91.5 122.5q22 58 22 120q0 21 -3 42q-16 127 -158 133l-235 1z" />
<glyph unicode="C" horiz-adv-x="1136" d="M113 454v14q0 64 8 125l40 257q47 299 198 465q147 161 363 161h13q185 -4 283 -132q89 -118 90 -319q0 -19 -1 -38l-180 1q1 21 1 41q0 95 -16 148q-20 65 -65 102.5t-123 39.5h-12q-142 1 -236 -113q-98 -118 -134 -355l-40 -259q-11 -79 -11 -147q0 -23 1 -44 q8 -131 62.5 -197t147.5 -69h16q120 0 194 69q80 74 119 257l176 2q-33 -229 -169 -359q-130 -125 -328 -124h-18q-116 3 -201 61t-130.5 168t-47.5 245z" />
<glyph unicode="D" horiz-adv-x="1144" d="M48 0l252 1456l326 -1q231 -5 345 -171q88 -127 87 -316q0 -56 -7 -118l-35 -234q-45 -299 -211 -458q-165 -158 -419 -158h-3h-335zM254 157l131 -1h6q182 0 296 112q116 114 151 342l37 244q8 66 8 131v26q-5 133 -71.5 207.5t-190.5 78.5l-169 1z" />
<glyph unicode="E" horiz-adv-x="996" d="M48 0l252 1456h752l-28 -158h-572l-82 -468h500l-27 -157h-499l-90 -516h582l-28 -157h-760z" />
<glyph unicode="F" horiz-adv-x="964" d="M48 0l252 1456h737l-28 -158h-557l-87 -498h478l-28 -157h-477l-111 -643h-179z" />
<glyph unicode="G" horiz-adv-x="1184" d="M114 445v27q0 59 7 119l45 287q46 288 183 442q140 156 367 156h14q188 -6 288 -124q95 -113 95 -308v-16l-178 1q0 148 -55.5 217t-158.5 72h-18q-137 0 -226 -99q-95 -106 -132 -338l-46 -305l-6 -82v-69q16 -284 235 -288h11q73 0 130 23q62 26 123 73l61 336h-259 l28 156h435l-84 -543q-42 -57 -97 -97q-144 -105 -344 -105h-11q-187 2 -294 127t-113 338z" />
<glyph unicode="H" horiz-adv-x="1242" d="M48 0l252 1456h179l-109 -626h568l108 626h180l-253 -1456h-179l117 673h-567l-117 -673h-179z" />
<glyph unicode="I" horiz-adv-x="507" d="M55 0l253 1456h179l-253 -1456h-179z" />
<glyph unicode="J" horiz-adv-x="970" d="M30 402h179q-2 -23 -2 -44q0 -97 35 -152q41 -67 126 -70h8q90 0 153 70q66 72 91 218l175 1032h180l-175 -1031q-31 -212 -151 -331q-115 -115 -279 -115h-14q-169 6 -254 119q-74 98 -74 252q0 25 2 52z" />
<glyph unicode="K" horiz-adv-x="1093" d="M48 0l252 1456h179l-121 -692l144 157l466 535h228l-579 -651l350 -805h-202l-277 669l-177 -180l-84 -489h-179z" />
<glyph unicode="L" horiz-adv-x="954" d="M48 0l252 1456h180l-225 -1299h554l-28 -157h-733z" />
<glyph unicode="M" horiz-adv-x="1511" d="M48 0l252 1456h227l162 -1186l574 1186h234l-253 -1456h-179l100 576l111 541l-559 -1117h-137l-172 1140l-85 -582l-96 -558h-179z" />
<glyph unicode="N" horiz-adv-x="1240" d="M48 0l252 1456h175l374 -1135l197 1135h178l-252 -1456h-175l-373 1130l-196 -1130h-180z" />
<glyph unicode="O" horiz-adv-x="1203" d="M116 455v15q0 66 8 130l42 272q50 290 196 450q142 155 357 154h13q171 -4 271 -113t116 -310l3 -54q0 -74 -9 -146l-43 -277q-51 -291 -196 -446q-140 -150 -354 -150h-14q-182 4 -284.5 130t-105.5 345zM293 504q-1 -25 -1 -49q0 -135 48 -215q58 -94 177 -98h12 q282 0 359 409l47 306l9 97q1 26 1 50q0 138 -48 214q-57 90 -176 94h-13q-140 0 -232 -106q-96 -112 -133 -332l-43 -289z" />
<glyph unicode="P" horiz-adv-x="1111" d="M48 0l252 1456l439 -1q179 -7 276 -127q83 -103 82 -254q0 -27 -2 -55q-18 -208 -149 -329t-337 -121l-283 1l-99 -570h-179zM353 727l263 -2q99 0 172 51.5t107 147.5q25 71 25 142q0 25 -3 51q-10 81 -57 128.5t-125 51.5l-283 1z" />
<glyph unicode="Q" horiz-adv-x="1203" d="M107 458v15q0 65 8 128l38 247q46 299 194 466q144 162 363 162h13q184 -4 286.5 -130t104.5 -347q0 -74 -9 -146l-42 -270q-32 -194 -102 -317.5t-182 -198.5l177 -200l-132 -113l-211 238q-66 -11 -119 -11q-180 2 -282 129t-105 348zM285 505q-2 -26 -2 -50 q0 -137 49 -216q56 -93 175 -97h17q136 0 228 102q97 110 134 344l41 268q11 88 11 155q0 23 -1 43q-20 251 -224 258h-12q-142 0 -235 -110q-97 -114 -133 -340l-41 -276z" />
<glyph unicode="R" horiz-adv-x="1064" d="M48 0l252 1456l385 -1q188 -6 282 -121q78 -96 79 -245q0 -30 -4 -63q-13 -139 -87 -240t-201 -158l169 -615l-1 -13h-192l-149 589h-251l-103 -589h-179zM357 746l207 -2q95 2 167.5 51t107.5 139q27 68 27 145q0 24 -3 49q-8 76 -54.5 120.5t-128.5 48.5l-227 1z" />
<glyph unicode="S" horiz-adv-x="1039" d="M55 423l180 -1q-2 -20 -2 -39q0 -102 50 -167q59 -77 175 -79h13q101 0 173 61q76 65 90 178q2 19 2 37q0 67 -32 115q-41 62 -170 118t-197 115q-130 112 -130 277q0 16 1 33q14 177 144 293q125 113 300 112h12q176 -4 278 -128q90 -110 91 -271q0 -20 -2 -42h-180 q2 23 2 43q0 106 -43 166q-51 72 -156 74h-6q-104 0 -175 -66q-73 -68 -85 -178q-2 -14 -1 -28q0 -64 39 -116q48 -62 167.5 -113t187.5 -107q135 -110 134 -290q0 -20 -1 -42q-16 -178 -144 -290q-124 -108 -309 -108h-13q-183 4 -293 128q-101 114 -101 284q0 15 1 31z " />
<glyph unicode="T" horiz-adv-x="1044" d="M178 1298l28 158h921l-28 -158h-371l-225 -1298h-179l225 1298h-371z" />
<glyph unicode="U" horiz-adv-x="1126" d="M112 430l174 1026h178l-174 -1027q-4 -32 -3 -62q0 -26 2 -50q17 -175 202 -181h16q116 0 190 66q79 72 103 215l176 1039h180l-175 -1025q-29 -213 -163 -335q-130 -118 -324 -118h-13q-193 4 -293 124q-81 98 -80 253q0 36 4 75z" />
<glyph unicode="V" horiz-adv-x="1123" d="M177 1456h189l137 -1173l507 1173h202l-668 -1456h-156z" />
<glyph unicode="W" horiz-adv-x="1523" d="M204 1456h175l20 -1008l-7 -145l51 143l383 1010h149l61 -1024l4 -138l50 175l325 987h183l-510 -1456h-161l-70 1069v74l-29 -87l-408 -1056h-163z" />
<glyph unicode="X" horiz-adv-x="1104" d="M-33 0l499 743l-254 713h199l180 -557l353 557h219l-487 -731l257 -725h-202l-182 567l-361 -567h-221z" />
<glyph unicode="Y" horiz-adv-x="1052" d="M182 1456h194l161 -729l416 729h211l-567 -924l-92 -532h-179l97 554z" />
<glyph unicode="Z" horiz-adv-x="1048" d="M-16 0l27 154l836 1144h-632l28 158h836l-27 -151l-837 -1148h665l-28 -157h-868z" />
<glyph unicode="[" horiz-adv-x="508" d="M-10 -312l309 1976h323l-24 -152h-150l-261 -1672h150l-24 -152h-323z" />
<glyph unicode="\" horiz-adv-x="743" d="M201 1456h156l221 -1581h-155z" />
<glyph unicode="]" horiz-adv-x="508" d="M-114 -312l24 152h152l261 1672h-152l24 152h324l-309 -1976h-324z" />
<glyph unicode="^" horiz-adv-x="747" d="M85 729l371 727h116l116 -727h-150l-61 480l-226 -480h-166z" />
<glyph unicode="_" horiz-adv-x="814" d="M-108 -151l27 151h759l-27 -151h-759z" />
<glyph unicode="`" horiz-adv-x="624" d="M208 1536h205l142 -294h-142z" />
<glyph unicode="a" horiz-adv-x="962" d="M62 287q11 168 138.5 269t334.5 101h120l17 115q2 19 2 36q0 143 -137 143q-79 0 -131.5 -46.5t-66.5 -121.5l-171 -1q12 137 124 230q109 91 257 91h6q147 -1 225 -89q66 -73 66 -196q0 -23 -3 -49l-88 -533q-7 -47 -7 -90v-19l6 -110l-2 -17h-174q-6 30 -5 59l4 59 q-115 -139 -248 -139q-131 1 -203 85q-65 76 -65 196q0 13 1 27zM240 240q13 -101 125 -101q130 0 224 127l45 259l-79 1q-102 0 -181 -38q-80 -38 -112 -104q-25 -51 -25 -108q1 -18 3 -36z" />
<glyph unicode="b" horiz-adv-x="990" d="M24 0l267 1536h172l-109 -573q104 139 250 139h8q140 -2 212 -104q68 -96 68 -275v-20q-4 -107 -24 -239t-59 -226q-106 -258 -341 -258h-13q-166 6 -235 149l-37 -129h-159zM246 281q47 -141 174 -146h13q108 1 175 83q72 88 94 276q21 174 20 239v11q-5 105 -46 153 t-119 50h-5q-124 0 -218 -149z" />
<glyph unicode="c" horiz-adv-x="928" d="M74 298q-5 43 -5 86q0 47 6 95l14 109q33 253 155 386q117 128 302 128h14q150 -4 232 -110q76 -98 76 -256v-27l-163 1v17q0 219 -155 224h-12q-224 0 -272 -335q-26 -178 -26 -261q0 -16 1 -29q10 -194 173 -197h9q79 0 134 53q58 56 81 158l163 1q-23 -160 -135 -263 q-108 -99 -251 -99h-11q-143 3 -228 86t-102 233z" />
<glyph unicode="d" horiz-adv-x="996" d="M70 380q0 89 23 236t71 249q111 236 337 236h13q149 -4 222 -126l104 561h173l-266 -1536h-157l19 116q-104 -136 -249 -136h-8q-135 2 -208.5 105t-73.5 295zM242 337q5 -199 165 -202h7q53 1 102 29q52 30 105 104l94 548q-50 125 -167 130h-15q-223 0 -271 -348 q-21 -151 -21 -235q0 -14 1 -26z" />
<glyph unicode="e" horiz-adv-x="940" d="M89 463l13 107q32 252 154 394q118 138 298 138h13q153 -4 231 -106q74 -97 74 -267v-18l-9 -120l-15 -103l-580 1q-12 -84 -12 -134v-7q2 -101 50 -158.5t137 -58.5h9q60 -1 118 25q62 28 131 97l81 -113q-64 -84 -158 -123q-89 -37 -187 -37h-10q-182 2 -272 131 q-71 102 -71 262q0 43 5 90zM281 640l415 -1l5 26q6 46 6 96q-4 182 -151 190h-12q-167 0 -236 -214z" />
<glyph unicode="f" horiz-adv-x="639" d="M99 0l163 939h-137l25 143h137l14 107q24 180 117 276q92 94 233 94h6q52 -2 112 -19l-25 -149q-40 10 -80 12q-154 0 -189 -219l-16 -102h180l-25 -143h-179l-163 -939h-173z" />
<glyph unicode="g" horiz-adv-x="989" d="M2 -285l82 119q97 -106 221 -110h13q100 0 166 61q71 65 94 196l26 126q-104 -127 -242 -127h-8q-139 2 -212 108q-70 103 -70 281v10q0 79 19 216q35 251 141 381q103 126 269 126h13q159 -4 229 -142l36 122h157l-185 -1091q-17 -128 -75.5 -225t-151.5 -147 q-86 -46 -195 -46h-17q-85 2 -171 41.5t-139 100.5zM244 337q5 -199 164 -202h5q117 0 210 135l93 543q-52 128 -166 133h-11q-230 0 -276 -354q-20 -149 -20 -229q0 -14 1 -26z" />
<glyph unicode="h" horiz-adv-x="969" d="M23 0l267 1536h173l-107 -566q118 131 255 131h8q104 -1 163.5 -68.5t67.5 -188.5q1 -25 1 -50q0 -43 -4 -85l-118 -709h-172l119 712l4 79q0 153 -126 156h-5q-100 0 -187 -117l-30 -43l-136 -787h-173z" />
<glyph unicode="i" horiz-adv-x="465" d="M37 0l188 1082h173l-188 -1082h-173zM265 1368q2 43 28 75t71 34h5q40 0 66 -29t26 -71v-6q-2 -44 -28.5 -75.5t-71.5 -32.5h-5q-40 0 -66 29q-25 29 -25 70v6z" />
<glyph unicode="j" horiz-adv-x="454" d="M-194 -420l15 148q47 -11 69 -11q89 0 115 130l210 1235h173l-205 -1210q-22 -162 -91 -238q-67 -74 -175 -74h-8q-43 2 -103 20zM250 1367q2 43 27.5 75.5t71.5 34.5h5q39 0 65 -28t26 -73v-6q-2 -43 -28 -74.5t-72 -32.5h-5q-42 0 -66 29q-24 30 -24 69v6z" />
<glyph unicode="k" horiz-adv-x="905" d="M24 0l267 1536h173l-158 -907l398 453h221l-422 -462l265 -620h-189l-199 492l-117 -113l-66 -379h-173z" />
<glyph unicode="l" horiz-adv-x="465" d="M37 0l267 1536h173l-267 -1536h-173z" />
<glyph unicode="m" horiz-adv-x="1505" d="M24 0l188 1082l161 1l-21 -101q111 120 257 120h9q79 -2 138.5 -41t84.5 -115q127 157 291 157h4q109 -3 172 -69t73 -184q3 -32 3 -64q0 -37 -4 -75l-119 -711h-171l118 713l3 84q-2 71 -37.5 110.5t-101.5 39.5h-5q-76 0 -137 -64q-63 -66 -77 -157v-5l-123 -721h-174 l119 712q3 27 3 54q0 14 -1 28q-7 147 -136 152h-4q-121 0 -201 -134l-140 -812h-172z" />
<glyph unicode="n" horiz-adv-x="971" d="M23 0l188 1082l162 1l-23 -118q116 137 264 137h4q103 -1 163.5 -70t68.5 -188q1 -25 1 -50q0 -43 -4 -85l-118 -709h-172l119 712l4 79q0 153 -126 156h-5q-100 0 -187 -117l-30 -43l-136 -787h-173z" />
<glyph unicode="o" d="M82 489l12 100q34 233 160 375q122 138 306 138h13q120 -3 200 -70q81 -66 115 -183q24 -80 23 -171q0 -42 -5 -87l-12 -102q-33 -232 -160 -373q-123 -136 -306 -136h-13q-120 3 -200 69q-81 66 -115 183q-24 80 -23 171q0 42 5 86zM249 416v-17q-1 -122 41 -191 q44 -74 135 -78h12q108 0 180 82q76 88 102 263l15 117l5 72v16q-1 123 -43 193q-46 74 -134 78h-11q-111 1 -185 -97q-78 -102 -102 -285l-12 -99z" />
<glyph unicode="p" horiz-adv-x="990" d="M-48 -416l260 1498l155 1l-20 -121q108 141 259 141h4q144 -2 215 -107q65 -98 65 -264v-29q-3 -87 -23 -227t-59 -235q-107 -262 -343 -262h-12q-154 4 -232 125l-97 -520h-172zM241 254q48 -118 166 -124h12q109 0 180 83q75 88 99 274q21 159 21 235q0 13 -1 23 q-15 198 -170 201h-5q-115 0 -205 -127z" />
<glyph unicode="q" horiz-adv-x="1004" d="M71 377q1 84 22.5 230t67.5 250q110 245 345 245h13q152 -4 224 -127l33 107h159l-260 -1498h-173l98 511q-101 -115 -233 -115h-9q-143 2 -216 108q-71 102 -71 275v14zM243 336q10 -203 168 -206h5q110 0 202 119l100 583q-53 114 -162 119h-12q-110 0 -181 -84 q-75 -89 -99 -271q-22 -157 -22 -236q0 -13 1 -24z" />
<glyph unicode="r" horiz-adv-x="614" d="M23 0l188 1082l167 1l-24 -111q93 132 209 132h5q24 -1 74 -15l-19 -172q-43 9 -77 9q-131 0 -216 -151l-134 -775h-173z" />
<glyph unicode="s" horiz-adv-x="915" d="M49 324l174 -1v-8q0 -89 41 -135q43 -48 122 -48q83 0 137.5 42t63.5 111q1 9 1 18q0 83 -107 140l-134 70q-103 58 -145 123q-37 58 -38 133q0 9 1 18q8 137 112 227q101 88 247 88h7q145 -4 227 -96q76 -85 76 -214v-19h-171v8q0 75 -36 119q-38 46 -106 49 q-77 0 -127 -43.5t-60 -112.5l-2 -18q0 -69 81 -115l169 -86q178 -99 177 -259v-17q-10 -146 -118 -234q-103 -84 -250 -84h-13q-149 2 -242 98q-87 90 -87 228v18z" />
<glyph unicode="t" horiz-adv-x="597" d="M80 939l26 143h159l46 262h172l-46 -262h159l-25 -143h-158l-114 -673l-2 -40v-10q0 -75 61 -75h4q24 0 68 10l-15 -151q-51 -18 -103 -18h-10q-91 0 -137 75q-36 59 -36 158q0 26 2 54l110 670h-161z" />
<glyph unicode="u" horiz-adv-x="970" d="M87 292l5 91l117 699h171l-116 -702l-4 -73q-1 -9 -1 -18q1 -61 25 -103q28 -48 82 -49h13q136 0 225 143l138 802h173l-187 -1082h-163l19 95q-102 -116 -249 -116h-10q-115 2 -176.5 84t-61.5 229z" />
<glyph unicode="v" horiz-adv-x="860" d="M123 1082h170l79 -811l325 811h182l-481 -1082h-129z" />
<glyph unicode="w" horiz-adv-x="1301" d="M134 1082h165l32 -748l325 748h137l65 -769l293 769h176l-445 -1082h-138l-69 772l-334 -772h-139z" />
<glyph unicode="x" horiz-adv-x="882" d="M-49 0l385 556l-198 526h189l114 -393l241 393h209l-376 -544l204 -538h-189l-121 404l-249 -404h-209z" />
<glyph unicode="y" horiz-adv-x="837" d="M-88 -422l17 150l37 -6h11q123 0 193 134l73 164l-122 1062h182l56 -785l328 785h189l-560 -1250q-57 -136 -136 -206q-75 -66 -162 -66h-8q-31 1 -98 18z" />
<glyph unicode="z" horiz-adv-x="882" d="M-13 0l25 146l611 783h-472l28 153h680l-25 -141l-618 -790h501l-27 -151h-703z" />
<glyph unicode="{" horiz-adv-x="618" d="M64 541l16 145q177 10 210 238l30 223q51 348 362 452l24 -117q-178 -76 -215 -350l-32 -233q-35 -194 -191 -288q89 -79 95 -222l-3 -84q-33 -252 -36 -305q-11 -190 111 -251l-41 -114q-208 85 -235 318q-8 75 1 146l28 207l4 82q-4 140 -128 153z" />
<glyph unicode="|" horiz-adv-x="494" d="M33 -270l270 1726h146l-270 -1726h-146z" />
<glyph unicode="}" horiz-adv-x="618" d="M-96 -251q179 75 217 350l31 227q34 203 203 294q-99 72 -106 220q-2 43 2 85q34 251 37 306q7 191 -113 251l44 113q102 -41 161 -122t72 -195q7 -71 -1 -146l-30 -224l-2 -65q0 -142 128 -153l-16 -145q-179 -10 -210.5 -244t-37.5 -261q-65 -312 -354 -408z" />
<glyph unicode="~" horiz-adv-x="1181" d="M99 436q10 102 51.5 188t107 133.5t150.5 45.5q121 -3 232 -140q47 -61 75 -80t58 -19q61 -1 103.5 53.5t58.5 158.5l140 1q-10 -104 -55 -195.5t-110.5 -137t-143.5 -43.5q-64 2 -122 37t-137 135q-53 67 -107 67q-120 3 -153 -201z" />
<glyph unicode="&#xa1;" horiz-adv-x="470" d="M-23 -360l193 1044h157l-169 -1044h-181zM200 995q2 43 28.5 74.5t71.5 32.5q43 2 71 -28.5t26 -75.5q-2 -44 -28.5 -76t-71.5 -34q-43 -2 -71 29t-26 78z" />
<glyph unicode="&#xa2;" horiz-adv-x="963" d="M88 365q-7 175 38.5 335.5t138 259.5t222.5 131l45 227h172l-45 -226q109 -33 167 -135.5t53 -247.5h-162q3 110 -39.5 174.5t-117.5 67.5q-137 5 -215 -134t-89 -387v-70q3 -112 47 -170.5t121 -60.5q79 -2 139.5 57.5t84.5 153.5l163 1q-21 -131 -108.5 -225.5 t-224.5 -127.5l-46 -233h-172l47 239q-101 34 -158 131.5t-61 239.5z" />
<glyph unicode="&#xa3;" horiz-adv-x="1025" d="M-9 0l23 156l56 -2q47 21 77 78.5t46 169.5l31 220h-128l28 157h123l33 253q27 207 147 328t289 116q145 -3 224.5 -107.5t70.5 -282.5l-179 1q8 106 -29.5 168t-115.5 65q-87 3 -149 -76.5t-80 -218.5l-32 -246h253l-28 -157h-248l-29 -218q-24 -149 -101 -250l600 3 l-29 -157h-853z" />
<glyph unicode="&#xa4;" horiz-adv-x="1426" d="M18 118l159 134q-30 85 -40 172q-19 150 25.5 294.5t148.5 261.5l-117 157l141 127l114 -148q179 122 361 118q188 -2 325 -121l175 152l111 -146l-173 -147q32 -87 44 -176q18 -144 -22.5 -285t-139.5 -261l115 -150l-143 -127l-106 137q-187 -134 -377 -130 q-199 4 -335 130l-157 -136zM304 599q-15 -114 22 -218t116.5 -165.5t187.5 -65.5q117 -4 224.5 59t180 174t88.5 234q14 115 -22.5 218t-115.5 163.5t-187 64.5q-118 4 -226 -59t-180 -173t-88 -232z" />
<glyph unicode="&#xa5;" horiz-adv-x="931" d="M70 322l23 124h247l29 165h-248l22 125h210l-171 720h192l124 -622l342 622h206l-421 -720h199l-22 -125h-253l-29 -165h254l-22 -124h-253l-56 -322h-180l56 322h-249z" />
<glyph unicode="&#xa6;" horiz-adv-x="486" d="M-9 -270l138 791h182l-138 -791h-182zM159 698l132 758h182l-132 -758h-182z" />
<glyph unicode="&#xa7;" horiz-adv-x="1077" d="M-19 -64l172 2q-9 -126 46 -202.5t164 -78.5q105 -2 180 59t89 162q18 136 -142 211l-83 37q-185 75 -256 173t-58 244q17 185 197 285q-82 107 -66 274q15 170 142 274t310 100q177 -4 270.5 -117t80.5 -314h-171q10 124 -40.5 200.5t-149.5 79.5q-105 2 -179 -58 t-88 -162q-20 -142 126 -211l92 -39q185 -71 259 -170.5t62 -245.5q-17 -190 -201 -286q83 -105 69 -273q-15 -174 -141.5 -277t-310.5 -99q-185 4 -285.5 119.5t-87.5 312.5zM268 545q-21 -148 126 -218l212 -89q136 56 158 198q18 136 -130 214l-58 28l-158 64 q-129 -50 -150 -197z" />
<glyph unicode="&#xa8;" horiz-adv-x="840" d="M218 1369q1 46 30 76.5t77 32.5q46 1 76.5 -28.5t29.5 -76.5q0 -46 -30 -76t-77 -32q-47 -1 -76.5 28t-29.5 76zM635 1367q1 46 30 77t76 33q48 1 78 -28.5t29 -77.5q0 -47 -30 -76.5t-77 -31.5q-46 -1 -76.5 28t-29.5 76z" />
<glyph unicode="&#xa9;" horiz-adv-x="1571" d="M119 722q22 199 136 377t289 279.5t369 97.5q178 -2 320 -100t213 -271.5t50 -369.5q-23 -203 -137 -380t-286 -277t-360 -99h-10q-183 4 -323 102t-211 271.5t-50 369.5zM230 570q22 -207 152 -338.5t320 -133.5q187 -4 353.5 107.5t258 302t71.5 380.5 q-22 205 -150 334t-321 134q-189 4 -355.5 -108t-257.5 -300t-71 -378zM453 670l10 98q20 189 123.5 298.5t260.5 107.5q142 -4 219.5 -85.5t71.5 -229.5l-143 1q6 85 -28.5 134t-124.5 51q-95 2 -158.5 -70.5t-78 -200t-13.5 -157.5l2 -35q7 -77 46.5 -122t107.5 -48 q170 -7 205 184l140 1q-14 -151 -107 -234.5t-242 -79.5q-145 4 -225 112t-66 275z" />
<glyph unicode="&#xaa;" horiz-adv-x="797" d="M193 910q5 116 87.5 178t220.5 62l82 -1l10 54l4 43q0 89 -64 91q-94 2 -120 -105l-148 11q10 107 85 171.5t186 62.5q103 -3 159 -73.5t50 -187.5l-1 -16l-48 -314q-8 -46 -9 -91q-2 -45 3 -91l-147 -1v69q-77 -82 -167 -82q-88 0 -137.5 62.5t-45.5 157.5zM346 915 q-5 -38 12 -63.5t58 -25.5q57 0 127 62l29 149h-67q-65 -2 -108.5 -34.5t-50.5 -87.5z" />
<glyph unicode="&#xab;" horiz-adv-x="840" d="M86 538l2 20l303 389h137l-281 -410l132 -386h-114zM361 538l2 20l303 389h137l-281 -410l132 -386h-114z" />
<glyph unicode="&#xac;" horiz-adv-x="978" d="M129 639l29 161h685l-74 -425h-174l46 264h-512z" />
<glyph unicode="&#xad;" horiz-adv-x="503" d="M35 543l27 151h402l-27 -151h-402z" />
<glyph unicode="&#xae;" horiz-adv-x="1572" d="M118 722q22 199 136 377t289 279.5t369 97.5q175 -2 316.5 -97.5t215 -269t51.5 -374.5q-23 -204 -138 -381.5t-288.5 -278.5t-365.5 -97q-179 4 -319 99.5t-213.5 270.5t-52.5 374zM229 569q12 -131 76.5 -241t167 -169t228.5 -62q187 -4 352 106t258 300t74 385 q-14 133 -78.5 241t-166 166t-227.5 61q-185 4 -350 -103t-259.5 -297.5t-74.5 -386.5zM463 316l133 849l257 -1q139 -5 213.5 -69.5t67.5 -178.5q-3 -58 -37 -106t-115 -94q77 -44 86 -141l-1 -61q-11 -87 -9 -118l3 -64l-2 -17h-138q-6 37 -4 73l7 72l6 54q7 66 -17 100.5 t-92 38.5l-167 1l-53 -338h-138zM673 782l143 -1q72 2 122.5 36.5t59.5 92.5q10 63 -22.5 94t-121.5 34h-140z" />
<glyph unicode="&#xaf;" horiz-adv-x="833" d="M246 1302l23 143h564l-22 -143h-565z" />
<glyph unicode="&#xb0;" horiz-adv-x="752" d="M236 1207q4 111 84.5 191.5t183.5 78.5q97 -2 160.5 -76.5t61.5 -175.5q-4 -112 -83.5 -190t-181.5 -76q-98 2 -163.5 74.5t-61.5 173.5zM357 1209q-6 -49 24.5 -85.5t79.5 -36.5q54 0 96.5 40t48.5 96q6 48 -22 87.5t-80 39.5q-54 0 -97.5 -42.5t-49.5 -98.5z" />
<glyph unicode="&#xb1;" horiz-adv-x="943" d="M37 0l24 152h682l-24 -152h-682zM117 703l24 151h305l65 413h155l-65 -413h289l-25 -151h-287l-65 -414h-155l65 414h-306z" />
<glyph unicode="&#xb2;" horiz-adv-x="665" d="M95 667l20 117l271 264l38 40q77 81 87 150l1 37q-7 67 -66 67q-97 0 -125 -135l-146 -1q13 118 87 191.5t183 71.5q100 0 161 -62.5t55 -167.5q-4 -64 -38.5 -124t-115.5 -138l-197 -182h306l-23 -128h-498z" />
<glyph unicode="&#xb3;" horiz-adv-x="665" d="M119 890h143q-2 -103 89 -105q52 0 86.5 33t41.5 84q12 103 -93 107h-75l10 116h69q53 3 88 33.5t42 84.5q5 41 -13 68.5t-63 28.5q-78 0 -109 -92l-147 -1q10 100 80 162t174 60q103 -2 166 -61t57 -158q-7 -115 -138 -184q97 -43 92 -171q-4 -107 -82 -174t-194 -65 q-106 2 -166 66.5t-58 167.5z" />
<glyph unicode="&#xb4;" horiz-adv-x="633" d="M213 1242l234 294h231l-306 -294h-159z" />
<glyph unicode="&#xb5;" horiz-adv-x="1000" d="M-34 -416l260 1498h172l-102 -624q-11 -87 -12 -126q-5 -200 115 -203q136 -5 218 134l142 819h174l-188 -1082h-154l17 102q-92 -124 -214 -124q-108 2 -169 70l-87 -464h-172z" />
<glyph unicode="&#xb6;" horiz-adv-x="873" d="M141 980q20 213 149 345t320 132l251 -1l-253 -1456h-174l96 521h-59q-113 2 -192 61.5t-114.5 164t-23.5 233.5z" />
<glyph unicode="&#xb7;" horiz-adv-x="493" d="M156 726q1 47 28 80.5t76 35.5q44 2 73.5 -29t29.5 -81q0 -47 -28 -79.5t-76 -34.5q-43 -2 -73 28t-30 80z" />
<glyph unicode="&#xb8;" horiz-adv-x="465" d="M-50 -437l5 108q132 11 145 107q10 67 -67 81l-42 7l42 134h123l-19 -55q47 -13 72.5 -55.5t23.5 -107.5q-3 -99 -76.5 -156.5t-206.5 -62.5z" />
<glyph unicode="&#xb9;" horiz-adv-x="665" d="M221 1208l24 135l310 113h21l-132 -789h-146l104 597z" />
<glyph unicode="&#xba;" horiz-adv-x="810" d="M201 1043l7 68q17 168 107 269t221 97q122 -3 189 -101.5t55 -252.5l-8 -80q-20 -163 -108 -260t-218 -94q-123 3 -190 103t-55 251zM352 976q0 -66 27.5 -107t76.5 -42q66 -2 110 58t54.5 165.5t10.5 139.5q-2 66 -28.5 106t-75.5 42q-69 2 -113 -61t-55 -173l-6 -63z " />
<glyph unicode="&#xbb;" horiz-adv-x="840" d="M15 152l281 408l-132 389h116l179 -388l-2 -20l-303 -389h-139zM309 152l281 408l-132 389h116l179 -388l-2 -20l-303 -389h-139z" />
<glyph unicode="&#xbc;" horiz-adv-x="1276" d="M182 1205l24 135l310 113h21l-132 -789h-146l104 597zM223 192l770 1128l91 -72l-772 -1128zM590 169l14 112l384 507l148 1l-85 -491l88 1l-24 -130h-81l-30 -169h-145l30 169h-299zM756 299h155l55 281l-14 -20z" />
<glyph unicode="&#xbd;" horiz-adv-x="1356" d="M181 1205l24 135l310 113h21l-132 -789h-146l104 597zM187 192l770 1128l91 -72l-772 -1128zM639 0l20 117l271 264l38 40q77 81 87 150l1 37q-7 67 -66 67q-97 0 -125 -135l-146 -1q13 118 87 191.5t183 71.5q100 0 161 -62.5t55 -167.5q-4 -64 -38.5 -124t-115.5 -138 l-197 -182h306l-23 -128h-498z" />
<glyph unicode="&#xbe;" horiz-adv-x="1348" d="M160 890h143q-2 -103 89 -105q52 0 86.5 33t41.5 84q12 103 -93 107h-75l10 116h69q53 3 88 33.5t42 84.5q5 41 -13 68.5t-63 28.5q-78 0 -109 -92l-147 -1q10 100 80 162t174 60q103 -2 166 -61t57 -158q-7 -115 -138 -184q97 -43 92 -171q-4 -107 -82 -174t-194 -65 q-106 2 -166 66.5t-58 167.5zM321 192l770 1128l91 -72l-772 -1128zM657 169l14 112l384 507l148 1l-85 -491l88 1l-24 -130h-81l-30 -169h-145l30 169h-299zM823 299h155l55 281l-14 -20z" />
<glyph unicode="&#xbf;" horiz-adv-x="847" d="M-26 -14q15 173 176 350l107 113q77 88 99 231l169 1q-12 -104 -53.5 -188t-140 -192t-131.5 -166q-60 -104 -51 -220q11 -139 132 -142q75 -2 129 55t71 151l170 1q-20 -167 -124.5 -268.5t-257.5 -97.5q-152 4 -231 106t-64 266zM396 995q2 44 28.5 74.5t71.5 32.5 q42 2 69.5 -28.5t25.5 -75.5q-2 -43 -27.5 -75.5t-71.5 -33.5q-42 -2 -70 28t-26 78z" />
<glyph unicode="&#xc0;" horiz-adv-x="1155" d="M-66 0l707 1456h154l203 -1456h-177l-45 380h-476l-176 -380h-190zM374 538h383l-77 660zM493 1846h205l142 -294h-142z" />
<glyph unicode="&#xc1;" horiz-adv-x="1155" d="M-66 0l707 1456h154l203 -1456h-177l-45 380h-476l-176 -380h-190zM374 538h383l-77 660zM636 1552l234 294h231l-306 -294h-159z" />
<glyph unicode="&#xc2;" horiz-adv-x="1155" d="M-66 0l707 1456h154l203 -1456h-177l-45 380h-476l-176 -380h-190zM374 538h383l-77 660zM492 1561v14l242 271h99l169 -272v-14l-138 2l-84 169l-148 -168z" />
<glyph unicode="&#xc3;" horiz-adv-x="1155" d="M-66 0l707 1456h154l203 -1456h-177l-45 380h-476l-176 -380h-190zM374 538h383l-77 660zM451 1563q11 110 65 180t136 68q46 -2 107 -51.5t107 -47.5q67 3 98 113l107 -10q-11 -111 -63.5 -179t-134.5 -66q-33 0 -58.5 16t-49.5 35t-49 33.5t-56 13.5q-67 -3 -97 -112z " />
<glyph unicode="&#xc4;" horiz-adv-x="1155" d="M-66 0l707 1456h154l203 -1456h-177l-45 380h-476l-176 -380h-190zM374 538h383l-77 660zM449 1679q1 46 30 76.5t77 32.5q46 1 76.5 -28.5t29.5 -76.5q0 -46 -30 -76t-77 -32q-47 -1 -76.5 28t-29.5 76zM866 1677q1 46 30 77t76 33q48 1 78 -28.5t29 -77.5 q0 -47 -30 -76.5t-77 -31.5q-46 -1 -76.5 28t-29.5 76z" />
<glyph unicode="&#xc5;" horiz-adv-x="1155" d="M-66 0l707 1456h154l203 -1456h-177l-45 380h-476l-176 -380h-190zM374 538h383l-77 660zM565 1721q2 91 66.5 154t153.5 63q82 0 139.5 -58t57.5 -143q-2 -89 -66.5 -151t-153.5 -62q-84 0 -141.5 57t-55.5 140zM661 1723q-4 -46 23 -77.5t70 -31.5q46 0 85.5 35.5 t45.5 85.5q6 46 -22 79t-70 33q-46 0 -86 -36.5t-46 -87.5z" />
<glyph unicode="&#xc6;" horiz-adv-x="1623" d="M-112 0l970 1456h809l-27 -152h-563l-65 -471h481l-27 -151h-475l-74 -531h574l-27 -151h-741l49 353h-438l-225 -353h-221zM444 527h352l100 711z" />
<glyph unicode="&#xc7;" horiz-adv-x="1136" d="M113 454q-1 71 8 139l40 257q47 299 198 465t376 161q186 -3 283.5 -131.5t88.5 -357.5l-180 1q4 124 -15.5 189t-64.5 102.5t-123 39.5q-150 5 -248 -113.5t-134 -354.5l-40 -259q-15 -105 -10 -191q8 -131 62.5 -197t147.5 -69q131 -5 210.5 69t118.5 257l176 2 q-33 -228 -169.5 -358.5t-345.5 -124.5q-116 3 -201 61t-130.5 168t-47.5 245zM324 -446l5 108q132 11 145 107q10 67 -67 81l-42 7l42 134h123l-19 -55q47 -13 72.5 -55.5t23.5 -107.5q-3 -99 -76.5 -156.5t-206.5 -62.5z" />
<glyph unicode="&#xc8;" horiz-adv-x="996" d="M48 0l252 1456h752l-28 -158h-572l-82 -468h500l-27 -157h-499l-90 -516h582l-28 -157h-760zM443 1858h205l142 -294h-142z" />
<glyph unicode="&#xc9;" horiz-adv-x="996" d="M48 0l252 1456h752l-28 -158h-572l-82 -468h500l-27 -157h-499l-90 -516h582l-28 -157h-760zM586 1564l234 294h231l-306 -294h-159z" />
<glyph unicode="&#xca;" horiz-adv-x="996" d="M48 0l252 1456h752l-28 -158h-572l-82 -468h500l-27 -157h-499l-90 -516h582l-28 -157h-760zM442 1573v14l242 271h99l169 -272v-14l-138 2l-84 169l-148 -168z" />
<glyph unicode="&#xcb;" horiz-adv-x="996" d="M48 0l252 1456h752l-28 -158h-572l-82 -468h500l-27 -157h-499l-90 -516h582l-28 -157h-760zM399 1691q1 46 30 76.5t77 32.5q46 1 76.5 -28.5t29.5 -76.5q0 -46 -30 -76t-77 -32q-47 -1 -76.5 28t-29.5 76zM816 1689q1 46 30 77t76 33q48 1 78 -28.5t29 -77.5 q0 -47 -30 -76.5t-77 -31.5q-46 -1 -76.5 28t-29.5 76z" />
<glyph unicode="&#xcc;" horiz-adv-x="507" d="M55 0l253 1456h179l-253 -1456h-179zM167 1858h205l142 -294h-142z" />
<glyph unicode="&#xcd;" horiz-adv-x="507" d="M55 0l253 1456h179l-253 -1456h-179zM309 1564l234 294h231l-306 -294h-159z" />
<glyph unicode="&#xce;" horiz-adv-x="507" d="M55 0l253 1456h179l-253 -1456h-179zM166 1573v14l242 271h99l169 -272v-14l-138 2l-84 169l-148 -168z" />
<glyph unicode="&#xcf;" horiz-adv-x="507" d="M55 0l253 1456h179l-253 -1456h-179zM123 1691q1 46 30 76.5t77 32.5q46 1 76.5 -28.5t29.5 -76.5q0 -46 -30 -76t-77 -32q-47 -1 -76.5 28t-29.5 76zM540 1689q1 46 30 77t76 33q48 1 78 -28.5t29 -77.5q0 -47 -30 -76.5t-77 -31.5q-46 -1 -76.5 28t-29.5 76z" />
<glyph unicode="&#xd0;" horiz-adv-x="1174" d="M28 666l27 151h164l111 639l326 -1q231 -5 345 -170.5t80 -434.5l-35 -234q-45 -299 -211 -458t-422 -158h-335l115 666h-165zM284 157l131 -1q186 -2 302 111.5t151 342.5l37 244q10 79 8 157q-5 133 -71.5 207.5t-190.5 78.5l-169 1l-84 -481h184l-27 -151h-183z" />
<glyph unicode="&#xd1;" horiz-adv-x="1240" d="M48 0l252 1456h175l374 -1135l197 1135h178l-252 -1456h-175l-373 1130l-196 -1130h-180zM486 1563q11 110 65 180t136 68q46 -2 107 -51.5t107 -47.5q67 3 98 113l107 -10q-11 -111 -63.5 -179t-134.5 -66q-33 0 -58.5 16t-49.5 35t-49 33.5t-56 13.5q-67 -3 -97 -112z " />
<glyph unicode="&#xd2;" horiz-adv-x="1203" d="M116 455q-1 73 8 145l42 272q50 290 196.5 449.5t369.5 154.5q171 -4 271 -113t116 -310l3 -54q0 -74 -9 -146l-43 -277q-51 -291 -196 -446t-368 -150q-182 4 -284.5 130t-105.5 345zM293 504q-10 -171 47.5 -264.5t176.5 -97.5q293 -9 371 409l47 306l9 97 q10 175 -47 264.5t-176 93.5q-149 5 -245 -106.5t-133 -331.5l-43 -289zM517 1848h205l142 -294h-142z" />
<glyph unicode="&#xd3;" horiz-adv-x="1203" d="M116 455q-1 73 8 145l42 272q50 290 196.5 449.5t369.5 154.5q171 -4 271 -113t116 -310l3 -54q0 -74 -9 -146l-43 -277q-51 -291 -196 -446t-368 -150q-182 4 -284.5 130t-105.5 345zM293 504q-10 -171 47.5 -264.5t176.5 -97.5q293 -9 371 409l47 306l9 97 q10 175 -47 264.5t-176 93.5q-149 5 -245 -106.5t-133 -331.5l-43 -289zM660 1554l234 294h231l-306 -294h-159z" />
<glyph unicode="&#xd4;" horiz-adv-x="1203" d="M116 455q-1 73 8 145l42 272q50 290 196.5 449.5t369.5 154.5q171 -4 271 -113t116 -310l3 -54q0 -74 -9 -146l-43 -277q-51 -291 -196 -446t-368 -150q-182 4 -284.5 130t-105.5 345zM293 504q-10 -171 47.5 -264.5t176.5 -97.5q293 -9 371 409l47 306l9 97 q10 175 -47 264.5t-176 93.5q-149 5 -245 -106.5t-133 -331.5l-43 -289zM516 1563v14l242 271h99l169 -272v-14l-138 2l-84 169l-148 -168z" />
<glyph unicode="&#xd5;" horiz-adv-x="1203" d="M116 455q-1 73 8 145l42 272q50 290 196.5 449.5t369.5 154.5q171 -4 271 -113t116 -310l3 -54q0 -74 -9 -146l-43 -277q-51 -291 -196 -446t-368 -150q-182 4 -284.5 130t-105.5 345zM293 504q-10 -171 47.5 -264.5t176.5 -97.5q293 -9 371 409l47 306l9 97 q10 175 -47 264.5t-176 93.5q-149 5 -245 -106.5t-133 -331.5l-43 -289zM475 1565q11 110 65 180t136 68q46 -2 107 -51.5t107 -47.5q67 3 98 113l107 -10q-11 -111 -63.5 -179t-134.5 -66q-33 0 -58.5 16t-49.5 35t-49 33.5t-56 13.5q-67 -3 -97 -112z" />
<glyph unicode="&#xd6;" horiz-adv-x="1203" d="M116 455q-1 73 8 145l42 272q50 290 196.5 449.5t369.5 154.5q171 -4 271 -113t116 -310l3 -54q0 -74 -9 -146l-43 -277q-51 -291 -196 -446t-368 -150q-182 4 -284.5 130t-105.5 345zM293 504q-10 -171 47.5 -264.5t176.5 -97.5q293 -9 371 409l47 306l9 97 q10 175 -47 264.5t-176 93.5q-149 5 -245 -106.5t-133 -331.5l-43 -289zM473 1681q1 46 30 76.5t77 32.5q46 1 76.5 -28.5t29.5 -76.5q0 -46 -30 -76t-77 -32q-47 -1 -76.5 28t-29.5 76zM890 1679q1 46 30 77t76 33q48 1 78 -28.5t29 -77.5q0 -47 -30 -76.5t-77 -31.5 q-46 -1 -76.5 28t-29.5 76z" />
<glyph unicode="&#xd7;" horiz-adv-x="945" d="M44 338l326 334l-212 337l124 115l206 -330l321 329l94 -132l-329 -337l211 -334l-123 -115l-205 327l-318 -326z" />
<glyph unicode="&#xd8;" horiz-adv-x="1203" d="M25 -92l168 234q-86 172 -76 402q4 97 27.5 246t78.5 283q83 200 213.5 303.5t296.5 99.5q173 -4 277 -120l114 160l139 -1l-185 -258q38 -118 43 -240q6 -171 -34.5 -383.5t-124.5 -362t-200 -222.5t-257 -70q-134 4 -233 80l-108 -152zM289 496q-5 -93 13 -184l606 887 q-61 108 -185 114q-97 4 -178.5 -54t-138.5 -180.5t-84.5 -292.5t-32.5 -290zM365 206q57 -61 149 -65q155 -5 257.5 129.5t143.5 396.5t37 397z" />
<glyph unicode="&#xd9;" horiz-adv-x="1126" d="M112 430l174 1026h178l-174 -1027q-7 -60 -1 -112q17 -175 202 -181q127 -5 206 66.5t103 214.5l176 1039h180l-175 -1025q-29 -214 -163 -335.5t-337 -117.5q-193 4 -292.5 124.5t-76.5 327.5zM475 1846h205l142 -294h-142z" />
<glyph unicode="&#xda;" horiz-adv-x="1126" d="M112 430l174 1026h178l-174 -1027q-7 -60 -1 -112q17 -175 202 -181q127 -5 206 66.5t103 214.5l176 1039h180l-175 -1025q-29 -214 -163 -335.5t-337 -117.5q-193 4 -292.5 124.5t-76.5 327.5zM618 1552l234 294h231l-306 -294h-159z" />
<glyph unicode="&#xdb;" horiz-adv-x="1126" d="M112 430l174 1026h178l-174 -1027q-7 -60 -1 -112q17 -175 202 -181q127 -5 206 66.5t103 214.5l176 1039h180l-175 -1025q-29 -214 -163 -335.5t-337 -117.5q-193 4 -292.5 124.5t-76.5 327.5zM474 1561v14l242 271h99l169 -272v-14l-138 2l-84 169l-148 -168z" />
<glyph unicode="&#xdc;" horiz-adv-x="1126" d="M112 430l174 1026h178l-174 -1027q-7 -60 -1 -112q17 -175 202 -181q127 -5 206 66.5t103 214.5l176 1039h180l-175 -1025q-29 -214 -163 -335.5t-337 -117.5q-193 4 -292.5 124.5t-76.5 327.5zM431 1679q1 46 30 76.5t77 32.5q46 1 76.5 -28.5t29.5 -76.5q0 -46 -30 -76 t-77 -32q-47 -1 -76.5 28t-29.5 76zM848 1677q1 46 30 77t76 33q48 1 78 -28.5t29 -77.5q0 -47 -30 -76.5t-77 -31.5q-46 -1 -76.5 28t-29.5 76z" />
<glyph unicode="&#xdd;" horiz-adv-x="1052" d="M182 1456h194l161 -729l416 729h211l-567 -924l-92 -532h-179l97 554zM584 1552l234 294h231l-306 -294h-159z" />
<glyph unicode="&#xde;" horiz-adv-x="1033" d="M45 0l253 1456h173l-52 -293l199 -1q171 -6 264 -121t78 -295q-16 -192 -143 -313t-322 -121l-222 1l-55 -313h-173zM298 465l201 -2q91 1 161 51t104.5 139t23.5 187q-10 76 -54.5 121t-118.5 49l-213 2l-2 1z" />
<glyph unicode="&#xdf;" horiz-adv-x="1047" d="M24 0l190 1111q29 211 130.5 329t259.5 115q141 -4 213.5 -94t60.5 -236q-4 -48 -19 -90t-66 -132.5t-63 -123t-18 -69.5l-3 -23q-6 -86 90.5 -213.5t102.5 -214.5v-33q-10 -161 -107.5 -256t-250.5 -91q-147 2 -245 75l56 154q88 -78 177 -78q84 0 136.5 51t62.5 134 q7 54 -14 108t-78.5 131.5t-81 137.5t-17.5 119q4 42 18 79t73.5 134t72 146t9.5 106q-3 58 -32.5 92.5t-80.5 37.5q-175 6 -215 -294l-189 -1112h-172z" />
<glyph unicode="&#xe0;" horiz-adv-x="962" d="M62 287q11 168 138.5 269t334.5 101h120l17 115q18 179 -135 179q-79 0 -131.5 -46.5t-66.5 -121.5l-171 -1q13 137 124.5 230t262.5 91q146 -2 224.5 -89.5t63.5 -244.5l-88 -533q-9 -57 -7 -109l6 -110l-2 -17h-174q-6 30 -5 59l4 59q-115 -139 -248 -139 q-130 0 -202.5 84.5t-64.5 223.5zM240 240q13 -101 125 -101q130 0 224 127l45 259l-79 1q-102 0 -181 -37.5t-111.5 -104t-22.5 -144.5zM357 1536h205l142 -294h-142z" />
<glyph unicode="&#xe1;" horiz-adv-x="962" d="M62 287q11 168 138.5 269t334.5 101h120l17 115q18 179 -135 179q-79 0 -131.5 -46.5t-66.5 -121.5l-171 -1q13 137 124.5 230t262.5 91q146 -2 224.5 -89.5t63.5 -244.5l-88 -533q-9 -57 -7 -109l6 -110l-2 -17h-174q-6 30 -5 59l4 59q-115 -139 -248 -139 q-130 0 -202.5 84.5t-64.5 223.5zM240 240q13 -101 125 -101q130 0 224 127l45 259l-79 1q-102 0 -181 -37.5t-111.5 -104t-22.5 -144.5zM500 1242l234 294h231l-306 -294h-159z" />
<glyph unicode="&#xe2;" horiz-adv-x="962" d="M62 287q11 168 138.5 269t334.5 101h120l17 115q18 179 -135 179q-79 0 -131.5 -46.5t-66.5 -121.5l-171 -1q13 137 124.5 230t262.5 91q146 -2 224.5 -89.5t63.5 -244.5l-88 -533q-9 -57 -7 -109l6 -110l-2 -17h-174q-6 30 -5 59l4 59q-115 -139 -248 -139 q-130 0 -202.5 84.5t-64.5 223.5zM240 240q13 -101 125 -101q130 0 224 127l45 259l-79 1q-102 0 -181 -37.5t-111.5 -104t-22.5 -144.5zM356 1251v14l242 271h99l169 -272v-14l-138 2l-84 169l-148 -168z" />
<glyph unicode="&#xe3;" horiz-adv-x="962" d="M62 287q11 168 138.5 269t334.5 101h120l17 115q18 179 -135 179q-79 0 -131.5 -46.5t-66.5 -121.5l-171 -1q13 137 124.5 230t262.5 91q146 -2 224.5 -89.5t63.5 -244.5l-88 -533q-9 -57 -7 -109l6 -110l-2 -17h-174q-6 30 -5 59l4 59q-115 -139 -248 -139 q-130 0 -202.5 84.5t-64.5 223.5zM240 240q13 -101 125 -101q130 0 224 127l45 259l-79 1q-102 0 -181 -37.5t-111.5 -104t-22.5 -144.5zM315 1253q11 110 65 180t136 68q46 -2 107 -51.5t107 -47.5q67 3 98 113l107 -10q-11 -111 -63.5 -179t-134.5 -66q-33 0 -58.5 16 t-49.5 35t-49 33.5t-56 13.5q-67 -3 -97 -112z" />
<glyph unicode="&#xe4;" horiz-adv-x="962" d="M62 287q11 168 138.5 269t334.5 101h120l17 115q18 179 -135 179q-79 0 -131.5 -46.5t-66.5 -121.5l-171 -1q13 137 124.5 230t262.5 91q146 -2 224.5 -89.5t63.5 -244.5l-88 -533q-9 -57 -7 -109l6 -110l-2 -17h-174q-6 30 -5 59l4 59q-115 -139 -248 -139 q-130 0 -202.5 84.5t-64.5 223.5zM240 240q13 -101 125 -101q130 0 224 127l45 259l-79 1q-102 0 -181 -37.5t-111.5 -104t-22.5 -144.5zM313 1369q1 46 30 76.5t77 32.5q46 1 76.5 -28.5t29.5 -76.5q0 -46 -30 -76t-77 -32q-47 -1 -76.5 28t-29.5 76zM730 1367q1 46 30 77 t76 33q48 1 78 -28.5t29 -77.5q0 -47 -30 -76.5t-77 -31.5q-46 -1 -76.5 28t-29.5 76z" />
<glyph unicode="&#xe5;" horiz-adv-x="962" d="M62 287q11 168 138.5 269t334.5 101h120l17 115q18 179 -135 179q-79 0 -131.5 -46.5t-66.5 -121.5l-171 -1q13 137 124.5 230t262.5 91q146 -2 224.5 -89.5t63.5 -244.5l-88 -533q-9 -57 -7 -109l6 -110l-2 -17h-174q-6 30 -5 59l4 59q-115 -139 -248 -139 q-130 0 -202.5 84.5t-64.5 223.5zM240 240q13 -101 125 -101q130 0 224 127l45 259l-79 1q-102 0 -181 -37.5t-111.5 -104t-22.5 -144.5zM429 1411q2 91 66.5 154t153.5 63q82 0 139.5 -58t57.5 -143q-2 -89 -66.5 -151t-153.5 -62q-84 0 -141.5 57t-55.5 140zM525 1413 q-4 -46 23 -77.5t70 -31.5q46 0 85.5 35.5t45.5 85.5q6 46 -22 79t-70 33q-46 0 -86 -36.5t-46 -87.5z" />
<glyph unicode="&#xe6;" horiz-adv-x="1456" d="M34 296q11 160 122 250t292 90l181 -1l12 86q4 34 3 74q-4 72 -35.5 113.5t-88.5 42.5q-80 2 -137 -53.5t-70 -138.5l-171 19q15 146 124.5 236.5t266.5 88.5q88 -2 155.5 -41t99.5 -112q137 156 294 153q94 -3 162 -48.5t103 -133t37 -194.5q1 -57 -6 -112l-18 -118 h-579q-7 -54 -5 -117q2 -112 51 -179t139 -70q128 -3 269 105l48 -136q-51 -58 -137.5 -89t-186.5 -31q-100 2 -178.5 47t-120.5 125q-149 -176 -375 -172q-124 2 -192 88.5t-59 227.5zM209 292q-9 -75 23 -118t95 -45q102 -3 235 118l45 248l-159 1q-96 -2 -162.5 -59 t-76.5 -145zM797 640h411q12 77 11 125l-3 36q-20 146 -147 151q-86 3 -154 -70.5t-118 -241.5z" />
<glyph unicode="&#xe7;" horiz-adv-x="928" d="M74 298q-10 90 1 181l14 109q33 253 154.5 386t316.5 128q150 -4 232.5 -110t75.5 -283l-163 1q6 235 -155 241q-235 9 -284 -335q-31 -213 -25 -290q10 -194 173 -197q85 -3 143 53t81 158l163 1q-23 -160 -135 -263t-262 -99q-143 3 -228 86t-102 233zM211 -446l5 108 q132 11 145 107q10 67 -67 81l-42 7l42 134h123l-19 -55q47 -13 72.5 -55.5t23.5 -107.5q-3 -99 -76.5 -156.5t-206.5 -62.5z" />
<glyph unicode="&#xe8;" horiz-adv-x="940" d="M89 463l13 107q31 252 153.5 394.5t311.5 137.5q154 -4 231.5 -105.5t73.5 -285.5l-9 -120l-15 -103l-580 1q-13 -90 -12 -141q2 -101 50 -158.5t137 -58.5q64 -2 126.5 25.5t131.5 96.5l81 -113q-64 -84 -158 -123t-197 -37q-182 2 -272 131t-66 352zM281 640l415 -1 l5 26q6 46 6 96q-4 182 -151 190q-177 8 -248 -214zM331 1536h205l142 -294h-142z" />
<glyph unicode="&#xe9;" horiz-adv-x="940" d="M89 463l13 107q31 252 153.5 394.5t311.5 137.5q154 -4 231.5 -105.5t73.5 -285.5l-9 -120l-15 -103l-580 1q-13 -90 -12 -141q2 -101 50 -158.5t137 -58.5q64 -2 126.5 25.5t131.5 96.5l81 -113q-64 -84 -158 -123t-197 -37q-182 2 -272 131t-66 352zM281 640l415 -1 l5 26q6 46 6 96q-4 182 -151 190q-177 8 -248 -214zM474 1242l234 294h231l-306 -294h-159z" />
<glyph unicode="&#xea;" horiz-adv-x="940" d="M89 463l13 107q31 252 153.5 394.5t311.5 137.5q154 -4 231.5 -105.5t73.5 -285.5l-9 -120l-15 -103l-580 1q-13 -90 -12 -141q2 -101 50 -158.5t137 -58.5q64 -2 126.5 25.5t131.5 96.5l81 -113q-64 -84 -158 -123t-197 -37q-182 2 -272 131t-66 352zM281 640l415 -1 l5 26q6 46 6 96q-4 182 -151 190q-177 8 -248 -214zM330 1251v14l242 271h99l169 -272v-14l-138 2l-84 169l-148 -168z" />
<glyph unicode="&#xeb;" horiz-adv-x="940" d="M89 463l13 107q31 252 153.5 394.5t311.5 137.5q154 -4 231.5 -105.5t73.5 -285.5l-9 -120l-15 -103l-580 1q-13 -90 -12 -141q2 -101 50 -158.5t137 -58.5q64 -2 126.5 25.5t131.5 96.5l81 -113q-64 -84 -158 -123t-197 -37q-182 2 -272 131t-66 352zM281 640l415 -1 l5 26q6 46 6 96q-4 182 -151 190q-177 8 -248 -214zM287 1369q1 46 30 76.5t77 32.5q46 1 76.5 -28.5t29.5 -76.5q0 -46 -30 -76t-77 -32q-47 -1 -76.5 28t-29.5 76zM704 1367q1 46 30 77t76 33q48 1 78 -28.5t29 -77.5q0 -47 -30 -76.5t-77 -31.5q-46 -1 -76.5 28t-29.5 76 z" />
<glyph unicode="&#xec;" horiz-adv-x="477" d="M37 0l188 1082h173l-188 -1082h-173zM96 1535h205l142 -294h-142z" />
<glyph unicode="&#xed;" horiz-adv-x="477" d="M37 0l188 1082h173l-188 -1082h-173zM238 1241l234 294h231l-306 -294h-159z" />
<glyph unicode="&#xee;" horiz-adv-x="477" d="M37 0l188 1082h173l-188 -1082h-173zM95 1250v14l242 271h99l169 -272v-14l-138 2l-84 169l-148 -168z" />
<glyph unicode="&#xef;" horiz-adv-x="477" d="M37 0l188 1082h173l-188 -1082h-173zM52 1368q1 46 30 76.5t77 32.5q46 1 76.5 -28.5t29.5 -76.5q0 -46 -30 -76t-77 -32q-47 -1 -76.5 28t-29.5 76zM469 1366q1 46 30 77t76 33q48 1 78 -28.5t29 -77.5q0 -47 -30 -76.5t-77 -31.5q-46 -1 -76.5 28t-29.5 76z" />
<glyph unicode="&#xf0;" horiz-adv-x="1029" d="M104 459q16 151 79.5 275t156 185.5t203.5 58.5q118 -4 209 -101q2 168 -77 316l-203 -144l-53 110l179 125q-83 86 -229 138l68 157q180 -55 304 -189l180 127l53 -110l-158 -107q77 -160 98 -326q27 -210 -24 -479q-45 -240 -168.5 -380.5t-293.5 -135.5 q-165 5 -254 143t-70 337zM274 394q0 -118 43.5 -189.5t125.5 -75.5q108 -5 182.5 107.5t102.5 327.5l15 135q-42 121 -168 127q-86 4 -154 -50.5t-107.5 -160.5t-39.5 -221z" />
<glyph unicode="&#xf1;" horiz-adv-x="971" d="M23 0l188 1082l162 1l-23 -118q118 139 268 137q103 -1 163.5 -70t68.5 -188q4 -69 -3 -135l-118 -709h-172l119 712l4 79q0 153 -126 156q-103 3 -192 -117l-30 -43l-136 -787h-173zM306 1253q11 110 65 180t136 68q46 -2 107 -51.5t107 -47.5q67 3 98 113l107 -10 q-11 -111 -63.5 -179t-134.5 -66q-33 0 -58.5 16t-49.5 35t-49 33.5t-56 13.5q-67 -3 -97 -112z" />
<glyph unicode="&#xf2;" d="M82 489l12 100q33 233 159.5 375.5t319.5 137.5q120 -3 200 -69.5t114.5 -183.5t18.5 -258l-12 -102q-33 -232 -160 -373t-319 -136q-120 3 -200 69t-114.5 183t-18.5 257zM249 416q-3 -134 41.5 -208t134.5 -78q116 -5 192 82.5t102 262.5l15 117l5 72q3 135 -42.5 209 t-134.5 78q-118 5 -196.5 -97.5t-101.5 -284.5l-12 -99zM340 1536h205l142 -294h-142z" />
<glyph unicode="&#xf3;" d="M82 489l12 100q33 233 159.5 375.5t319.5 137.5q120 -3 200 -69.5t114.5 -183.5t18.5 -258l-12 -102q-33 -232 -160 -373t-319 -136q-120 3 -200 69t-114.5 183t-18.5 257zM249 416q-3 -134 41.5 -208t134.5 -78q116 -5 192 82.5t102 262.5l15 117l5 72q3 135 -42.5 209 t-134.5 78q-118 5 -196.5 -97.5t-101.5 -284.5l-12 -99zM483 1242l234 294h231l-306 -294h-159z" />
<glyph unicode="&#xf4;" d="M82 489l12 100q33 233 159.5 375.5t319.5 137.5q120 -3 200 -69.5t114.5 -183.5t18.5 -258l-12 -102q-33 -232 -160 -373t-319 -136q-120 3 -200 69t-114.5 183t-18.5 257zM249 416q-3 -134 41.5 -208t134.5 -78q116 -5 192 82.5t102 262.5l15 117l5 72q3 135 -42.5 209 t-134.5 78q-118 5 -196.5 -97.5t-101.5 -284.5l-12 -99zM339 1251v14l242 271h99l169 -272v-14l-138 2l-84 169l-148 -168z" />
<glyph unicode="&#xf5;" d="M82 489l12 100q33 233 159.5 375.5t319.5 137.5q120 -3 200 -69.5t114.5 -183.5t18.5 -258l-12 -102q-33 -232 -160 -373t-319 -136q-120 3 -200 69t-114.5 183t-18.5 257zM249 416q-3 -134 41.5 -208t134.5 -78q116 -5 192 82.5t102 262.5l15 117l5 72q3 135 -42.5 209 t-134.5 78q-118 5 -196.5 -97.5t-101.5 -284.5l-12 -99zM298 1253q11 110 65 180t136 68q46 -2 107 -51.5t107 -47.5q67 3 98 113l107 -10q-11 -111 -63.5 -179t-134.5 -66q-33 0 -58.5 16t-49.5 35t-49 33.5t-56 13.5q-67 -3 -97 -112z" />
<glyph unicode="&#xf6;" d="M82 489l12 100q33 233 159.5 375.5t319.5 137.5q120 -3 200 -69.5t114.5 -183.5t18.5 -258l-12 -102q-33 -232 -160 -373t-319 -136q-120 3 -200 69t-114.5 183t-18.5 257zM249 416q-3 -134 41.5 -208t134.5 -78q116 -5 192 82.5t102 262.5l15 117l5 72q3 135 -42.5 209 t-134.5 78q-118 5 -196.5 -97.5t-101.5 -284.5l-12 -99zM296 1369q1 46 30 76.5t77 32.5q46 1 76.5 -28.5t29.5 -76.5q0 -46 -30 -76t-77 -32q-47 -1 -76.5 28t-29.5 76zM713 1367q1 46 30 77t76 33q48 1 78 -28.5t29 -77.5q0 -47 -30 -76.5t-77 -31.5q-46 -1 -76.5 28 t-29.5 76z" />
<glyph unicode="&#xf7;" horiz-adv-x="1003" d="M76 600l32 184h816l-33 -184h-815zM329 278q1 47 28 80.5t76 35.5q44 2 73.5 -29t29.5 -81q-1 -47 -28.5 -79t-75.5 -34q-45 -2 -74 28t-29 79zM470 1095q1 47 28 80.5t76 35.5q44 2 74 -28.5t30 -81.5q-1 -47 -29 -79t-76 -34q-45 -2 -74 28t-29 79z" />
<glyph unicode="&#xf8;" horiz-adv-x="1000" d="M45 -133l127 206q-97 130 -95 333q0 59 6 116l3 21q35 256 164 410t319 151q85 -2 161 -42l89 146l121 -1l-128 -207q91 -135 90 -331l-7 -116q-35 -271 -167.5 -424.5t-321.5 -150.5q-76 2 -153 35l-87 -147zM241 380q-2 -72 18 -142l396 683q-43 31 -94 32 q-95 4 -165 -67.5t-110 -204.5t-45 -301zM330 151q40 -22 85 -24q143 -6 227.5 156.5t91.5 406.5q2 69 -13 138z" />
<glyph unicode="&#xf9;" horiz-adv-x="970" d="M87 292l5 91l117 699h171l-116 -702l-4 -73q-4 -73 23.5 -120.5t82.5 -49.5q145 -7 238 143l138 802h173l-187 -1082h-163l19 95q-105 -120 -259 -116q-115 2 -176.5 84t-61.5 229zM342 1536h205l142 -294h-142z" />
<glyph unicode="&#xfa;" horiz-adv-x="970" d="M87 292l5 91l117 699h171l-116 -702l-4 -73q-4 -73 23.5 -120.5t82.5 -49.5q145 -7 238 143l138 802h173l-187 -1082h-163l19 95q-105 -120 -259 -116q-115 2 -176.5 84t-61.5 229zM485 1242l234 294h231l-306 -294h-159z" />
<glyph unicode="&#xfb;" horiz-adv-x="970" d="M87 292l5 91l117 699h171l-116 -702l-4 -73q-4 -73 23.5 -120.5t82.5 -49.5q145 -7 238 143l138 802h173l-187 -1082h-163l19 95q-105 -120 -259 -116q-115 2 -176.5 84t-61.5 229zM341 1251v14l242 271h99l169 -272v-14l-138 2l-84 169l-148 -168z" />
<glyph unicode="&#xfc;" horiz-adv-x="970" d="M87 292l5 91l117 699h171l-116 -702l-4 -73q-4 -73 23.5 -120.5t82.5 -49.5q145 -7 238 143l138 802h173l-187 -1082h-163l19 95q-105 -120 -259 -116q-115 2 -176.5 84t-61.5 229zM298 1369q1 46 30 76.5t77 32.5q46 1 76.5 -28.5t29.5 -76.5q0 -46 -30 -76t-77 -32 q-47 -1 -76.5 28t-29.5 76zM715 1367q1 46 30 77t76 33q48 1 78 -28.5t29 -77.5q0 -47 -30 -76.5t-77 -31.5q-46 -1 -76.5 28t-29.5 76z" />
<glyph unicode="&#xfd;" horiz-adv-x="837" d="M-88 -422l17 150l37 -6q131 -6 204 134l73 164l-122 1062h182l56 -785l328 785h189l-560 -1250q-57 -136 -135.5 -205.5t-170.5 -66.5q-31 1 -98 18zM438 1242l234 294h231l-306 -294h-159z" />
<glyph unicode="&#xfe;" horiz-adv-x="1020" d="M-39 -416l339 1952h172l-104 -547q110 117 251 113q137 -2 208.5 -117.5t66.5 -317.5l-7 -110l-2 -16q-38 -275 -148.5 -421.5t-275.5 -141.5q-147 4 -234 111l-94 -505h-172zM252 263q47 -129 165 -133q104 -4 178.5 85t108.5 270l8 51q11 115 8 177q-11 230 -164 233 q-100 3 -181 -98l-30 -40z" />
<glyph unicode="&#xff;" horiz-adv-x="837" d="M-88 -422l17 150l37 -6q131 -6 204 134l73 164l-122 1062h182l56 -785l328 785h189l-560 -1250q-57 -136 -135.5 -205.5t-170.5 -66.5q-31 1 -98 18zM251 1369q1 46 30 76.5t77 32.5q46 1 76.5 -28.5t29.5 -76.5q0 -46 -30 -76t-77 -32q-47 -1 -76.5 28t-29.5 76z M668 1367q1 46 30 77t76 33q48 1 78 -28.5t29 -77.5q0 -47 -30 -76.5t-77 -31.5q-46 -1 -76.5 28t-29.5 76z" />
<glyph unicode="&#x100;" horiz-adv-x="1155" d="M-66 0l707 1456h154l203 -1456h-177l-45 380h-476l-176 -380h-190zM374 538h383l-77 660zM475 1620l23 143h564l-22 -143h-565z" />
<glyph unicode="&#x101;" horiz-adv-x="962" d="M62 287q11 168 138.5 269t334.5 101h120l17 115q18 179 -135 179q-79 0 -131.5 -46.5t-66.5 -121.5l-171 -1q13 137 124.5 230t262.5 91q146 -2 224.5 -89.5t63.5 -244.5l-88 -533q-9 -57 -7 -109l6 -110l-2 -17h-174q-6 30 -5 59l4 59q-115 -139 -248 -139 q-130 0 -202.5 84.5t-64.5 223.5zM240 240q13 -101 125 -101q130 0 224 127l45 259l-79 1q-102 0 -181 -37.5t-111.5 -104t-22.5 -144.5zM339 1310l23 143h564l-22 -143h-565z" />
<glyph unicode="&#x102;" horiz-adv-x="1155" d="M-66 0l707 1456h154l203 -1456h-177l-45 380h-476l-176 -380h-190zM374 538h383l-77 660zM491 1807l147 -1q-7 -146 122 -150q71 -1 112 41.5t53 107.5l145 1q-12 -125 -97.5 -198.5t-213.5 -69.5q-123 2 -196.5 75t-71.5 194z" />
<glyph unicode="&#x103;" horiz-adv-x="962" d="M62 287q11 168 138.5 269t334.5 101h120l17 115q18 179 -135 179q-79 0 -131.5 -46.5t-66.5 -121.5l-171 -1q13 137 124.5 230t262.5 91q146 -2 224.5 -89.5t63.5 -244.5l-88 -533q-9 -57 -7 -109l6 -110l-2 -17h-174q-6 30 -5 59l4 59q-115 -139 -248 -139 q-130 0 -202.5 84.5t-64.5 223.5zM240 240q13 -101 125 -101q130 0 224 127l45 259l-79 1q-102 0 -181 -37.5t-111.5 -104t-22.5 -144.5zM355 1497l147 -1q-7 -146 122 -150q71 -1 112 41.5t53 107.5l145 1q-12 -125 -97.5 -198.5t-213.5 -69.5q-123 2 -196.5 75t-71.5 194z " />
<glyph unicode="&#x104;" horiz-adv-x="1155" d="M-66 0l707 1456h154l203 -1456h-38l4 -3l-52 -45q-108 -96 -115 -181q-5 -61 44 -64q21 -2 42 7l40 17v-122q-61 -42 -131 -42q-69 0 -109 50t-38 133q3 152 174 264l-43 366h-476l-176 -380h-190zM374 538h383l-77 660z" />
<glyph unicode="&#x105;" horiz-adv-x="962" d="M62 287q11 168 138.5 269t334.5 101h120l17 115q18 179 -135 179q-79 0 -131.5 -46.5t-66.5 -121.5l-171 -1q13 137 124.5 230t262.5 91q146 -2 224.5 -89.5t63.5 -244.5l-88 -533q-9 -57 -7 -109l6 -110l-2 -17h-41l4 -3l-52 -45q-108 -96 -115 -181q-5 -61 44 -64 q21 -2 42 7l40 17v-122q-61 -42 -131 -42q-69 0 -109 50t-38 133q3 155 179 267q-4 26 -2 51l4 50q-115 -139 -248 -139q-130 0 -202.5 84.5t-64.5 223.5zM240 240q13 -101 125 -101q130 0 224 127l45 259l-79 1q-102 0 -181 -37.5t-111.5 -104t-22.5 -144.5z" />
<glyph unicode="&#x106;" horiz-adv-x="1136" d="M113 454q-1 71 8 139l40 257q47 299 198 465t376 161q186 -3 283.5 -131.5t88.5 -357.5l-180 1q4 124 -15.5 189t-64.5 102.5t-123 39.5q-150 5 -248 -113.5t-134 -354.5l-40 -259q-15 -105 -10 -191q8 -131 62.5 -197t147.5 -69q131 -5 210.5 69t118.5 257l176 2 q-33 -228 -169.5 -358.5t-345.5 -124.5q-116 3 -201 61t-130.5 168t-47.5 245zM639 1585l234 294h231l-306 -294h-159z" />
<glyph unicode="&#x107;" horiz-adv-x="928" d="M74 298q-10 90 1 181l14 109q33 253 154.5 386t316.5 128q150 -4 232.5 -110t75.5 -283l-163 1q6 235 -155 241q-235 9 -284 -335q-31 -213 -25 -290q10 -194 173 -197q85 -3 143 53t81 158l163 1q-23 -160 -135 -263t-262 -99q-143 3 -228 86t-102 233zM445 1242 l234 294h231l-306 -294h-159z" />
<glyph unicode="&#x108;" horiz-adv-x="1136" d="M113 454q-1 71 8 139l40 257q47 299 198 465t376 161q186 -3 283.5 -131.5t88.5 -357.5l-180 1q4 124 -15.5 189t-64.5 102.5t-123 39.5q-150 5 -248 -113.5t-134 -354.5l-40 -259q-15 -105 -10 -191q8 -131 62.5 -197t147.5 -69q131 -5 210.5 69t118.5 257l176 2 q-33 -228 -169.5 -358.5t-345.5 -124.5q-116 3 -201 61t-130.5 168t-47.5 245zM495 1594v14l242 271h99l169 -272v-14l-138 2l-84 169l-148 -168z" />
<glyph unicode="&#x109;" horiz-adv-x="928" d="M74 298q-10 90 1 181l14 109q33 253 154.5 386t316.5 128q150 -4 232.5 -110t75.5 -283l-163 1q6 235 -155 241q-235 9 -284 -335q-31 -213 -25 -290q10 -194 173 -197q85 -3 143 53t81 158l163 1q-23 -160 -135 -263t-262 -99q-143 3 -228 86t-102 233zM301 1251v14 l242 271h99l169 -272v-14l-138 2l-84 169l-148 -168z" />
<glyph unicode="&#x10a;" horiz-adv-x="1136" d="M113 454q-1 71 8 139l40 257q47 299 198 465t376 161q186 -3 283.5 -131.5t88.5 -357.5l-180 1q4 124 -15.5 189t-64.5 102.5t-123 39.5q-150 5 -248 -113.5t-134 -354.5l-40 -259q-15 -105 -10 -191q8 -131 62.5 -197t147.5 -69q131 -5 210.5 69t118.5 257l176 2 q-33 -228 -169.5 -358.5t-345.5 -124.5q-116 3 -201 61t-130.5 168t-47.5 245zM660 1707q0 47 29 78t77 33q46 2 76.5 -27.5t30.5 -77.5q-1 -47 -30.5 -77t-76.5 -32q-44 -2 -75 26.5t-31 76.5z" />
<glyph unicode="&#x10b;" horiz-adv-x="928" d="M74 298q-10 90 1 181l14 109q33 253 154.5 386t316.5 128q150 -4 232.5 -110t75.5 -283l-163 1q6 235 -155 241q-235 9 -284 -335q-31 -213 -25 -290q10 -194 173 -197q85 -3 143 53t81 158l163 1q-23 -160 -135 -263t-262 -99q-143 3 -228 86t-102 233zM466 1364 q0 47 29 78t77 33q46 2 76.5 -27.5t30.5 -77.5q-1 -47 -30.5 -77t-76.5 -32q-44 -2 -75 26.5t-31 76.5z" />
<glyph unicode="&#x10c;" horiz-adv-x="1136" d="M113 454q-1 71 8 139l40 257q47 299 198 465t376 161q186 -3 283.5 -131.5t88.5 -357.5l-180 1q4 124 -15.5 189t-64.5 102.5t-123 39.5q-150 5 -248 -113.5t-134 -354.5l-40 -259q-15 -105 -10 -191q8 -131 62.5 -197t147.5 -69q131 -5 210.5 69t118.5 257l176 2 q-33 -228 -169.5 -358.5t-345.5 -124.5q-116 3 -201 61t-130.5 168t-47.5 245zM531 1867v14l143 -2l84 -169l147 168l150 3v-13l-252 -273h-101z" />
<glyph unicode="&#x10d;" horiz-adv-x="928" d="M74 298q-10 90 1 181l14 109q33 253 154.5 386t316.5 128q150 -4 232.5 -110t75.5 -283l-163 1q6 235 -155 241q-235 9 -284 -335q-31 -213 -25 -290q10 -194 173 -197q85 -3 143 53t81 158l163 1q-23 -160 -135 -263t-262 -99q-143 3 -228 86t-102 233zM337 1524v14 l143 -2l84 -169l147 168l150 3v-13l-252 -273h-101z" />
<glyph unicode="&#x10e;" horiz-adv-x="1144" d="M48 0l252 1456l326 -1q231 -5 345 -170.5t80 -434.5l-35 -234q-45 -299 -211 -458t-422 -158h-335zM254 157l131 -1q186 -2 302 111.5t151 342.5l37 244q10 79 8 157q-5 133 -71.5 207.5t-190.5 78.5l-169 1zM472 1846v14l143 -2l84 -169l147 168l150 3v-13l-252 -273 h-101z" />
<glyph unicode="&#x10f;" horiz-adv-x="1146" d="M70 380q0 89 23 236t71 249q114 243 350 236q149 -4 222 -126l104 561h173l-266 -1536h-157l19 116q-107 -140 -257 -136q-135 2 -208.5 105t-73.5 295zM242 337q5 -199 165 -202q57 -2 109 28.5t105 104.5l94 548q-50 125 -167 130q-237 12 -286 -348q-24 -176 -20 -261 zM999 1212q76 117 99 228l18 98h164l-10 -66q-32 -208 -178 -334z" />
<glyph unicode="&#x110;" horiz-adv-x="1174" d="M28 666l27 151h164l111 639l326 -1q231 -5 345 -170.5t80 -434.5l-35 -234q-45 -299 -211 -458t-422 -158h-335l115 666h-165zM284 157l131 -1q186 -2 302 111.5t151 342.5l37 244q10 79 8 157q-5 133 -71.5 207.5t-190.5 78.5l-169 1l-84 -481h184l-27 -151h-183z" />
<glyph unicode="&#x111;" horiz-adv-x="1061" d="M77 419l5 108l2 16q36 263 150 414t282 146q142 -4 224 -112l49 242h-199l27 151h197l27 152h173l-27 -152h158l-27 -151h-157l-213 -1233h-156l16 99q-110 -123 -254 -119q-135 4 -207 123t-70 316zM247 368q11 -230 161 -233q120 -3 216 144l89 526q-49 135 -165 140 q-99 4 -168.5 -73t-104 -226.5t-28.5 -277.5z" />
<glyph unicode="&#x112;" horiz-adv-x="996" d="M48 0l252 1456h752l-28 -158h-572l-82 -468h500l-27 -157h-499l-90 -516h582l-28 -157h-760zM425 1632l23 143h564l-22 -143h-565z" />
<glyph unicode="&#x113;" horiz-adv-x="940" d="M89 463l13 107q31 252 153.5 394.5t311.5 137.5q154 -4 231.5 -105.5t73.5 -285.5l-9 -120l-15 -103l-580 1q-13 -90 -12 -141q2 -101 50 -158.5t137 -58.5q64 -2 126.5 25.5t131.5 96.5l81 -113q-64 -84 -158 -123t-197 -37q-182 2 -272 131t-66 352zM281 640l415 -1 l5 26q6 46 6 96q-4 182 -151 190q-177 8 -248 -214zM313 1310l23 143h564l-22 -143h-565z" />
<glyph unicode="&#x114;" horiz-adv-x="996" d="M48 0l252 1456h752l-28 -158h-572l-82 -468h500l-27 -157h-499l-90 -516h582l-28 -157h-760zM441 1819l147 -1q-7 -146 122 -150q71 -1 112 41.5t53 107.5l145 1q-12 -125 -97.5 -198.5t-213.5 -69.5q-123 2 -196.5 75t-71.5 194z" />
<glyph unicode="&#x115;" horiz-adv-x="940" d="M89 463l13 107q31 252 153.5 394.5t311.5 137.5q154 -4 231.5 -105.5t73.5 -285.5l-9 -120l-15 -103l-580 1q-13 -90 -12 -141q2 -101 50 -158.5t137 -58.5q64 -2 126.5 25.5t131.5 96.5l81 -113q-64 -84 -158 -123t-197 -37q-182 2 -272 131t-66 352zM281 640l415 -1 l5 26q6 46 6 96q-4 182 -151 190q-177 8 -248 -214zM329 1497l147 -1q-7 -146 122 -150q71 -1 112 41.5t53 107.5l145 1q-12 -125 -97.5 -198.5t-213.5 -69.5q-123 2 -196.5 75t-71.5 194z" />
<glyph unicode="&#x116;" horiz-adv-x="996" d="M48 0l252 1456h752l-28 -158h-572l-82 -468h500l-27 -157h-499l-90 -516h582l-28 -157h-760zM607 1686q0 47 29 78t77 33q46 2 76.5 -27.5t30.5 -77.5q-1 -47 -30.5 -77t-76.5 -32q-44 -2 -75 26.5t-31 76.5z" />
<glyph unicode="&#x117;" horiz-adv-x="940" d="M89 463l13 107q31 252 153.5 394.5t311.5 137.5q154 -4 231.5 -105.5t73.5 -285.5l-9 -120l-15 -103l-580 1q-13 -90 -12 -141q2 -101 50 -158.5t137 -58.5q64 -2 126.5 25.5t131.5 96.5l81 -113q-64 -84 -158 -123t-197 -37q-182 2 -272 131t-66 352zM281 640l415 -1 l5 26q6 46 6 96q-4 182 -151 190q-177 8 -248 -214zM495 1364q0 47 29 78t77 33q46 2 76.5 -27.5t30.5 -77.5q-1 -47 -30.5 -77t-76.5 -32q-44 -2 -75 26.5t-31 76.5z" />
<glyph unicode="&#x118;" horiz-adv-x="996" d="M48 0l252 1456h752l-28 -158h-572l-82 -468h500l-27 -157h-499l-90 -516h582l-28 -157h-65l4 -3l-52 -45q-108 -96 -115 -181q-5 -61 44 -64q21 -2 42 7l40 17v-122q-61 -42 -131 -42q-69 0 -109 50t-38 133q4 147 154 250h-534z" />
<glyph unicode="&#x119;" horiz-adv-x="940" d="M88 463l13 107q31 252 153.5 394.5t311.5 137.5q154 -4 231.5 -105.5t73.5 -285.5l-9 -120l-15 -103l-580 1q-13 -90 -12 -141q2 -101 50 -158.5t137 -58.5q64 -2 126.5 25.5t131.5 96.5l81 -113q-79 -104 -207 -140l-40 -36q-92 -87 -100 -168q-5 -61 44 -64q21 -2 42 7 l40 17v-122q-61 -42 -131 -42q-69 0 -109 50t-38 133q4 115 101 208q-159 15 -238 142t-57 338zM280 640l415 -1l5 26q6 46 6 96q-4 182 -151 190q-177 8 -248 -214z" />
<glyph unicode="&#x11a;" horiz-adv-x="996" d="M48 0l252 1456h752l-28 -158h-572l-82 -468h500l-27 -157h-499l-90 -516h582l-28 -157h-760zM478 1846v14l143 -2l84 -169l147 168l150 3v-13l-252 -273h-101z" />
<glyph unicode="&#x11b;" horiz-adv-x="940" d="M89 463l13 107q31 252 153.5 394.5t311.5 137.5q154 -4 231.5 -105.5t73.5 -285.5l-9 -120l-15 -103l-580 1q-13 -90 -12 -141q2 -101 50 -158.5t137 -58.5q64 -2 126.5 25.5t131.5 96.5l81 -113q-64 -84 -158 -123t-197 -37q-182 2 -272 131t-66 352zM281 640l415 -1 l5 26q6 46 6 96q-4 182 -151 190q-177 8 -248 -214zM366 1524v14l143 -2l84 -169l147 168l150 3v-13l-252 -273h-101z" />
<glyph unicode="&#x11c;" horiz-adv-x="1184" d="M114 445q-2 73 7 146l45 287q46 288 183 442q144 161 381 156q188 -6 287.5 -124t95.5 -324l-178 1q0 148 -55.5 217t-158.5 72q-149 7 -244 -99t-132 -338l-46 -305l-6 -82v-69q16 -284 235 -288q79 -2 141 23.5t123 72.5l61 336h-259l28 156h435l-84 -543 q-42 -57 -97 -97q-148 -108 -355 -105q-187 2 -294 127t-113 338zM483 1594v14l242 271h99l169 -272v-14l-138 2l-84 169l-148 -168z" />
<glyph unicode="&#x11d;" horiz-adv-x="989" d="M2 -285l82 119q97 -106 221 -110q109 -4 179.5 61t93.5 196l26 126q-107 -131 -250 -127q-139 2 -211.5 108t-70.5 291q0 79 19 216q35 251 141.5 381.5t281.5 125.5q159 -4 229 -142l36 122h157l-185 -1091q-17 -128 -75.5 -225t-151.5 -147t-212 -46q-85 2 -171 41.5 t-139 100.5zM244 337q5 -199 164 -202q120 -3 215 135l93 543q-52 128 -166 133q-240 9 -287 -354q-23 -175 -19 -255zM333 1251v14l242 271h99l169 -272v-14l-138 2l-84 169l-148 -168z" />
<glyph unicode="&#x11e;" horiz-adv-x="1184" d="M114 445q-2 73 7 146l45 287q46 288 183 442q144 161 381 156q188 -6 287.5 -124t95.5 -324l-178 1q0 148 -55.5 217t-158.5 72q-149 7 -244 -99t-132 -338l-46 -305l-6 -82v-69q16 -284 235 -288q79 -2 141 23.5t123 72.5l61 336h-259l28 156h435l-84 -543 q-42 -57 -97 -97q-148 -108 -355 -105q-187 2 -294 127t-113 338zM482 1840l147 -1q-7 -146 122 -150q71 -1 112 41.5t53 107.5l145 1q-12 -125 -97.5 -198.5t-213.5 -69.5q-123 2 -196.5 75t-71.5 194z" />
<glyph unicode="&#x11f;" horiz-adv-x="989" d="M2 -285l82 119q97 -106 221 -110q109 -4 179.5 61t93.5 196l26 126q-107 -131 -250 -127q-139 2 -211.5 108t-70.5 291q0 79 19 216q35 251 141.5 381.5t281.5 125.5q159 -4 229 -142l36 122h157l-185 -1091q-17 -128 -75.5 -225t-151.5 -147t-212 -46q-85 2 -171 41.5 t-139 100.5zM244 337q5 -199 164 -202q120 -3 215 135l93 543q-52 128 -166 133q-240 9 -287 -354q-23 -175 -19 -255zM332 1497l147 -1q-7 -146 122 -150q71 -1 112 41.5t53 107.5l145 1q-12 -125 -97.5 -198.5t-213.5 -69.5q-123 2 -196.5 75t-71.5 194z" />
<glyph unicode="&#x120;" horiz-adv-x="1184" d="M114 445q-2 73 7 146l45 287q46 288 183 442q144 161 381 156q188 -6 287.5 -124t95.5 -324l-178 1q0 148 -55.5 217t-158.5 72q-149 7 -244 -99t-132 -338l-46 -305l-6 -82v-69q16 -284 235 -288q79 -2 141 23.5t123 72.5l61 336h-259l28 156h435l-84 -543 q-42 -57 -97 -97q-148 -108 -355 -105q-187 2 -294 127t-113 338zM648 1707q0 47 29 78t77 33q46 2 76.5 -27.5t30.5 -77.5q-1 -47 -30.5 -77t-76.5 -32q-44 -2 -75 26.5t-31 76.5z" />
<glyph unicode="&#x121;" horiz-adv-x="989" d="M2 -285l82 119q97 -106 221 -110q109 -4 179.5 61t93.5 196l26 126q-107 -131 -250 -127q-139 2 -211.5 108t-70.5 291q0 79 19 216q35 251 141.5 381.5t281.5 125.5q159 -4 229 -142l36 122h157l-185 -1091q-17 -128 -75.5 -225t-151.5 -147t-212 -46q-85 2 -171 41.5 t-139 100.5zM244 337q5 -199 164 -202q120 -3 215 135l93 543q-52 128 -166 133q-240 9 -287 -354q-23 -175 -19 -255zM498 1364q0 47 29 78t77 33q46 2 76.5 -27.5t30.5 -77.5q-1 -47 -30.5 -77t-76.5 -32q-44 -2 -75 26.5t-31 76.5z" />
<glyph unicode="&#x122;" horiz-adv-x="1184" d="M114 445q-2 73 7 146l45 287q46 288 183 442q144 161 381 156q188 -6 287.5 -124t95.5 -324l-178 1q0 148 -55.5 217t-158.5 72q-149 7 -244 -99t-132 -338l-46 -305l-6 -82v-69q16 -284 235 -288q79 -2 141 23.5t123 72.5l61 336h-259l28 156h435l-84 -543 q-42 -57 -97 -97q-148 -108 -355 -105q-187 2 -294 127t-113 338zM289 -448q76 117 99 228l18 98h164l-10 -66q-32 -208 -178 -334z" />
<glyph unicode="&#x123;" horiz-adv-x="989" d="M2 -285l82 119q97 -106 221 -110q109 -4 179.5 61t93.5 196l26 126q-107 -131 -250 -127q-139 2 -211.5 108t-70.5 291q0 79 19 216q35 251 141.5 381.5t281.5 125.5q159 -4 229 -142l36 122h157l-185 -1091q-17 -128 -75.5 -225t-151.5 -147t-212 -46q-85 2 -171 41.5 t-139 100.5zM244 337q5 -199 164 -202q120 -3 215 135l93 543q-52 128 -166 133q-240 9 -287 -354q-23 -175 -19 -255zM492 1254l18 121q27 181 169 310l97 -87q-68 -106 -89 -212l-23 -132h-172z" />
<glyph unicode="&#x124;" horiz-adv-x="1242" d="M48 0l252 1456h179l-109 -626h568l108 626h180l-253 -1456h-179l117 673h-567l-117 -673h-179zM516 1573v14l242 271h99l169 -272v-14l-138 2l-84 169l-148 -168z" />
<glyph unicode="&#x125;" horiz-adv-x="969" d="M23 0l267 1536h173l-107 -566q121 135 263 131q104 -1 163.5 -68.5t67.5 -188.5q4 -69 -3 -135l-118 -709h-172l119 712l4 79q0 153 -126 156q-103 3 -192 -117l-30 -43l-136 -787h-173zM348 1572v14l242 271h99l169 -272v-14l-138 2l-84 169l-148 -168z" />
<glyph unicode="&#x126;" horiz-adv-x="1224" d="M49 0l177 1024h-108l24 142h109l51 290h179l-51 -290h566l51 290h179l-50 -290h107l-25 -142h-107l-178 -1024h-179l117 673h-565l-118 -673h-179zM372 830h565l35 194h-566z" />
<glyph unicode="&#x127;" horiz-adv-x="999" d="M53 0l214 1234h-173l27 151h172l27 151h173l-29 -151h184l-27 -151h-185l-50 -264q121 135 263 131q104 -1 163.5 -68.5t67.5 -188.5q4 -69 -3 -135l-118 -709h-172l119 712l4 79q0 153 -126 156q-103 3 -192 -117l-30 -43l-136 -787h-173z" />
<glyph unicode="&#x128;" horiz-adv-x="507" d="M55 0l253 1456h179l-253 -1456h-179zM125 1575q11 110 65 180t136 68q46 -2 107 -51.5t107 -47.5q67 3 98 113l107 -10q-11 -111 -63.5 -179t-134.5 -66q-33 0 -58.5 16t-49.5 35t-49 33.5t-56 13.5q-67 -3 -97 -112z" />
<glyph unicode="&#x129;" horiz-adv-x="477" d="M37 0l188 1082h173l-188 -1082h-173zM54 1251q11 110 65 180t136 68q46 -2 107 -51.5t107 -47.5q67 3 98 113l107 -10q-11 -111 -63.5 -179t-134.5 -66q-33 0 -58.5 16t-49.5 35t-49 33.5t-56 13.5q-67 -3 -97 -112z" />
<glyph unicode="&#x12a;" horiz-adv-x="507" d="M55 0l253 1456h179l-253 -1456h-179zM149 1632l23 143h564l-22 -143h-565z" />
<glyph unicode="&#x12b;" horiz-adv-x="477" d="M37 0l188 1082h173l-188 -1082h-173zM78 1308l23 143h564l-22 -143h-565z" />
<glyph unicode="&#x12c;" horiz-adv-x="507" d="M55 0l253 1456h179l-253 -1456h-179zM165 1819l147 -1q-7 -146 122 -150q71 -1 112 41.5t53 107.5l145 1q-12 -125 -97.5 -198.5t-213.5 -69.5q-123 2 -196.5 75t-71.5 194z" />
<glyph unicode="&#x12d;" horiz-adv-x="477" d="M37 0l188 1082h173l-188 -1082h-173zM94 1496l147 -1q-7 -146 122 -150q71 -1 112 41.5t53 107.5l145 1q-12 -125 -97.5 -198.5t-213.5 -69.5q-123 2 -196.5 75t-71.5 194z" />
<glyph unicode="&#x12e;" horiz-adv-x="507" d="M-101 -241q7 185 250 307l69 -60l-52 -45q-108 -96 -115 -181q-5 -61 44 -64q21 -2 42 7l40 17v-122q-61 -42 -131 -42q-69 0 -109 50t-38 133zM55 0l253 1456h179l-253 -1456h-179z" />
<glyph unicode="&#x12f;" horiz-adv-x="465" d="M-122 -250q7 185 250 307l69 -60l-52 -45q-108 -96 -115 -181q-5 -61 44 -64q21 -2 42 7l40 17v-122q-61 -42 -131 -42q-69 0 -109 50t-38 133zM37 0l188 1082h173l-188 -1082h-173zM265 1368q2 43 28 75t71 34q43 2 71 -29t26 -77q-2 -44 -28.5 -75.5t-71.5 -32.5 q-44 -2 -71 29t-25 76z" />
<glyph unicode="&#x130;" horiz-adv-x="507" d="M55 0l253 1456h179l-253 -1456h-179zM330 1686q0 47 29 78t77 33q46 2 76.5 -27.5t30.5 -77.5q-1 -47 -30.5 -77t-76.5 -32q-44 -2 -75 26.5t-31 76.5z" />
<glyph unicode="&#x131;" horiz-adv-x="477" d="M37 0l188 1082h173l-188 -1082h-173z" />
<glyph unicode="&#x132;" horiz-adv-x="1477" d="M55 0l253 1456h179l-253 -1456h-179zM537 402h179q-9 -129 32.5 -196t126.5 -70q95 -3 161 69.5t91 218.5l175 1032h180l-175 -1031q-31 -212 -151 -331.5t-293 -114.5q-169 6 -254.5 119.5t-71.5 303.5z" />
<glyph unicode="&#x133;" horiz-adv-x="919" d="M37 0l188 1082h173l-188 -1082h-173zM265 1368q2 43 28 75t71 34q43 2 71 -29t26 -77q-2 -44 -28.5 -75.5t-71.5 -32.5q-44 -2 -71 29t-25 76zM271 -420l15 148q47 -11 69 -11q89 0 115 130l210 1235h173l-205 -1210q-22 -162 -91.5 -238.5t-182.5 -73.5q-43 2 -103 20z M715 1367q2 43 27.5 75.5t71.5 34.5q42 2 70 -28t26 -79q-2 -43 -28 -74.5t-72 -32.5q-45 -2 -71 29.5t-24 74.5z" />
<glyph unicode="&#x134;" horiz-adv-x="970" d="M30 402h179q-9 -129 32.5 -196t126.5 -70q95 -3 161 69.5t91 218.5l175 1032h180l-175 -1031q-31 -212 -151 -331.5t-293 -114.5q-169 6 -254.5 119.5t-71.5 303.5zM621 1560v14l242 271h99l169 -272v-14l-138 2l-84 169l-148 -168z" />
<glyph unicode="&#x135;" horiz-adv-x="482" d="M-203 -419l27 146q50 -18 82 -16q106 0 135 200l200 1171h173l-199 -1170q-23 -170 -105 -262t-215 -90q-44 2 -98 21zM101 1211v14l242 271h99l169 -272v-14l-138 2l-84 169l-148 -168z" />
<glyph unicode="&#x136;" horiz-adv-x="1093" d="M48 0l252 1456h179l-121 -692l144 157l466 535h228l-579 -651l350 -805h-202l-277 669l-177 -180l-84 -489h-179zM254 -350q76 117 99 228l18 98h164l-10 -66q-32 -208 -178 -334z" />
<glyph unicode="&#x137;" horiz-adv-x="905" d="M24 0l267 1536h173l-158 -907l398 453h221l-422 -462l265 -620h-189l-199 492l-117 -113l-66 -379h-173zM140 -369q76 117 99 228l18 98h164l-10 -66q-32 -208 -178 -334z" />
<glyph unicode="&#x138;" horiz-adv-x="986" d="M38 0l188 1082h173l-85 -459h57l390 459h220l-467 -532l291 -550h-200l-232 460l-82 1l-80 -461h-173z" />
<glyph unicode="&#x139;" horiz-adv-x="954" d="M48 0l252 1456h180l-225 -1299h554l-28 -157h-733zM298 1547l234 294h231l-306 -294h-159z" />
<glyph unicode="&#x13a;" horiz-adv-x="465" d="M37 0l267 1536h173l-267 -1536h-173zM304 1648l234 294h231l-306 -294h-159z" />
<glyph unicode="&#x13b;" horiz-adv-x="954" d="M48 0l252 1456h180l-225 -1299h554l-28 -157h-733zM202 -429q76 117 99 228l18 98h164l-10 -66q-32 -208 -178 -334z" />
<glyph unicode="&#x13c;" horiz-adv-x="465" d="M-92 -429q76 117 99 228l18 98h164l-10 -66q-32 -208 -178 -334zM37 0l267 1536h173l-267 -1536h-173z" />
<glyph unicode="&#x13d;" horiz-adv-x="954" d="M48 0l252 1456h180l-225 -1299h554l-28 -157h-733zM572 1131q76 117 99 228l18 98h164l-10 -66q-32 -208 -178 -334z" />
<glyph unicode="&#x13e;" horiz-adv-x="615" d="M37 0l267 1536h173l-267 -1536h-173zM486 1212q76 117 99 228l18 98h164l-10 -66q-32 -208 -178 -334z" />
<glyph unicode="&#x13f;" horiz-adv-x="954" d="M48 0l252 1456h180l-225 -1299h554l-28 -157h-733zM528 793q0 47 29 78t77 33q46 2 76.5 -27.5t30.5 -77.5q-1 -47 -30.5 -77t-76.5 -32q-44 -2 -75 26.5t-31 76.5z" />
<glyph unicode="&#x140;" horiz-adv-x="685" d="M37 0l267 1536h173l-267 -1536h-173zM429 778q0 47 29 78t77 33q46 2 76.5 -27.5t30.5 -77.5q-1 -47 -30.5 -77t-76.5 -32q-44 -2 -75 26.5t-31 76.5z" />
<glyph unicode="&#x141;" horiz-adv-x="954" d="M48 0l113 649l-108 -38l23 133l108 39l116 673h180l-105 -602l215 77l-23 -133l-214 -78l-98 -563h554l-28 -157h-733z" />
<glyph unicode="&#x142;" horiz-adv-x="507" d="M51 615l24 133l115 50l128 738h173l-114 -657l133 56l-24 -133l-132 -57l-129 -745h-173l115 664z" />
<glyph unicode="&#x143;" horiz-adv-x="1240" d="M48 0l252 1456h175l374 -1135l197 1135h178l-252 -1456h-175l-373 1130l-196 -1130h-180zM671 1552l234 294h231l-306 -294h-159z" />
<glyph unicode="&#x144;" horiz-adv-x="971" d="M23 0l188 1082l162 1l-23 -118q118 139 268 137q103 -1 163.5 -70t68.5 -188q4 -69 -3 -135l-118 -709h-172l119 712l4 79q0 153 -126 156q-103 3 -192 -117l-30 -43l-136 -787h-173zM491 1242l234 294h231l-306 -294h-159z" />
<glyph unicode="&#x145;" horiz-adv-x="1240" d="M48 0l252 1456h175l374 -1135l197 1135h178l-252 -1456h-175l-373 1130l-196 -1130h-180zM283 -429q76 117 99 228l18 98h164l-10 -66q-32 -208 -178 -334z" />
<glyph unicode="&#x146;" horiz-adv-x="971" d="M23 0l188 1082l162 1l-23 -118q118 139 268 137q103 -1 163.5 -70t68.5 -188q4 -69 -3 -135l-118 -709h-172l119 712l4 79q0 153 -126 156q-103 3 -192 -117l-30 -43l-136 -787h-173zM154 -429q76 117 99 228l18 98h164l-10 -66q-32 -208 -178 -334z" />
<glyph unicode="&#x147;" horiz-adv-x="1240" d="M48 0l252 1456h175l374 -1135l197 1135h178l-252 -1456h-175l-373 1130l-196 -1130h-180zM563 1834v14l143 -2l84 -169l147 168l150 3v-13l-252 -273h-101z" />
<glyph unicode="&#x148;" horiz-adv-x="971" d="M23 0l188 1082l162 1l-23 -118q118 139 268 137q103 -1 163.5 -70t68.5 -188q4 -69 -3 -135l-118 -709h-172l119 712l4 79q0 153 -126 156q-103 3 -192 -117l-30 -43l-136 -787h-173zM383 1524v14l143 -2l84 -169l147 168l150 3v-13l-252 -273h-101z" />
<glyph unicode="&#x149;" horiz-adv-x="971" d="M23 0l188 1082l162 1l-23 -118q118 139 268 137q103 -1 163.5 -70t68.5 -188q4 -69 -3 -135l-118 -709h-172l119 712l4 79q0 153 -126 156q-103 3 -192 -117l-30 -43l-136 -787h-173zM63 1214q76 117 99 228l18 98h164l-10 -66q-32 -208 -178 -334z" />
<glyph unicode="&#x14a;" horiz-adv-x="1200" d="M41 0l253 1456h173l363 -1102l191 1102h181l-263 -1540q-23 -173 -108.5 -265.5t-215.5 -89.5q-44 0 -102 20l27 153q49 -17 84 -17q106 0 134 199l14 84l-360 1103l-192 -1103h-179z" />
<glyph unicode="&#x14b;" horiz-adv-x="1000" d="M29 0l188 1082l154 1l-22 -146q120 169 269 166q118 -2 182 -87t64 -239l-5 -95l-124 -771q-23 -171 -107 -262t-212 -88q-36 0 -99 20l29 156q53 -16 82 -16q100 0 131 171l128 787l6 90q2 82 -32.5 129t-104.5 48q-118 2 -210 -118l-144 -828h-173z" />
<glyph unicode="&#x14c;" horiz-adv-x="1203" d="M116 455q-1 73 8 145l42 272q50 290 196.5 449.5t369.5 154.5q171 -4 271 -113t116 -310l3 -54q0 -74 -9 -146l-43 -277q-51 -291 -196 -446t-368 -150q-182 4 -284.5 130t-105.5 345zM293 504q-10 -171 47.5 -264.5t176.5 -97.5q293 -9 371 409l47 306l9 97 q10 175 -47 264.5t-176 93.5q-149 5 -245 -106.5t-133 -331.5l-43 -289zM499 1622l23 143h564l-22 -143h-565z" />
<glyph unicode="&#x14d;" d="M82 489l12 100q33 233 159.5 375.5t319.5 137.5q120 -3 200 -69.5t114.5 -183.5t18.5 -258l-12 -102q-33 -232 -160 -373t-319 -136q-120 3 -200 69t-114.5 183t-18.5 257zM249 416q-3 -134 41.5 -208t134.5 -78q116 -5 192 82.5t102 262.5l15 117l5 72q3 135 -42.5 209 t-134.5 78q-118 5 -196.5 -97.5t-101.5 -284.5l-12 -99zM322 1310l23 143h564l-22 -143h-565z" />
<glyph unicode="&#x14e;" horiz-adv-x="1203" d="M116 455q-1 73 8 145l42 272q50 290 196.5 449.5t369.5 154.5q171 -4 271 -113t116 -310l3 -54q0 -74 -9 -146l-43 -277q-51 -291 -196 -446t-368 -150q-182 4 -284.5 130t-105.5 345zM293 504q-10 -171 47.5 -264.5t176.5 -97.5q293 -9 371 409l47 306l9 97 q10 175 -47 264.5t-176 93.5q-149 5 -245 -106.5t-133 -331.5l-43 -289zM515 1809l147 -1q-7 -146 122 -150q71 -1 112 41.5t53 107.5l145 1q-12 -125 -97.5 -198.5t-213.5 -69.5q-123 2 -196.5 75t-71.5 194z" />
<glyph unicode="&#x14f;" d="M82 489l12 100q33 233 159.5 375.5t319.5 137.5q120 -3 200 -69.5t114.5 -183.5t18.5 -258l-12 -102q-33 -232 -160 -373t-319 -136q-120 3 -200 69t-114.5 183t-18.5 257zM249 416q-3 -134 41.5 -208t134.5 -78q116 -5 192 82.5t102 262.5l15 117l5 72q3 135 -42.5 209 t-134.5 78q-118 5 -196.5 -97.5t-101.5 -284.5l-12 -99zM338 1497l147 -1q-7 -146 122 -150q71 -1 112 41.5t53 107.5l145 1q-12 -125 -97.5 -198.5t-213.5 -69.5q-123 2 -196.5 75t-71.5 194z" />
<glyph unicode="&#x150;" horiz-adv-x="1203" d="M116 455q-1 73 8 145l42 272q50 290 196.5 449.5t369.5 154.5q171 -4 271 -113t116 -310l3 -54q0 -74 -9 -146l-43 -277q-51 -291 -196 -446t-368 -150q-182 4 -284.5 130t-105.5 345zM293 504q-10 -171 47.5 -264.5t176.5 -97.5q293 -9 371 409l47 306l9 97 q10 175 -47 264.5t-176 93.5q-149 5 -245 -106.5t-133 -331.5l-43 -289zM546 1544l181 303h192l-227 -303h-146zM779 1544l233 303h203l-270 -303h-166z" />
<glyph unicode="&#x151;" d="M82 489l12 100q33 233 159.5 375.5t319.5 137.5q120 -3 200 -69.5t114.5 -183.5t18.5 -258l-12 -102q-33 -232 -160 -373t-319 -136q-120 3 -200 69t-114.5 183t-18.5 257zM249 416q-3 -134 41.5 -208t134.5 -78q116 -5 192 82.5t102 262.5l15 117l5 72q3 135 -42.5 209 t-134.5 78q-118 5 -196.5 -97.5t-101.5 -284.5l-12 -99zM369 1232l181 303h192l-227 -303h-146zM602 1232l233 303h203l-270 -303h-166z" />
<glyph unicode="&#x152;" horiz-adv-x="1652" d="M95 442q-3 75 7 140l45 287q44 279 189.5 444t360.5 165l52 -2l183 -20h695l-28 -158h-572l-81 -468h499l-28 -157h-498l-90 -516h583l-28 -157h-682l-180 -18h-54q-168 4 -267 128t-106 332zM267 486q-10 -167 44.5 -258t163.5 -95q66 -3 168 9l210 1171q-80 14 -161 16 q-145 2 -241 -116t-130 -336l-47 -302z" />
<glyph unicode="&#x153;" horiz-adv-x="1554" d="M83 403q-2 62 5 119l2 23q21 165 88.5 297t166.5 197.5t219 62.5q99 -2 176 -55.5t112 -142.5l40 49q134 153 284 150q143 -2 221.5 -102t80.5 -270l-4 -87l-21 -147h-567l-6 -71q-7 -135 36.5 -213t131.5 -82q139 -4 260 106l58 -127q-55 -64 -140.5 -97.5t-184.5 -31.5 q-101 2 -179 53t-115 138q-78 -102 -162 -148.5t-180 -44.5q-149 4 -233.5 116t-88.5 308zM254 366q11 -231 162 -238q113 -5 188.5 102.5t100.5 300.5l2 22q10 81 8 158q-11 233 -164 240q-107 4 -180 -92t-104 -287l-4 -27l-2 -23q-10 -81 -7 -156zM906 649l394 -1l5 28 q6 42 5 90l-3 35q-21 146 -145 151q-145 3 -234 -238z" />
<glyph unicode="&#x154;" horiz-adv-x="1064" d="M48 0l252 1456l385 -1q188 -6 282 -121t75 -308q-13 -139 -87 -240t-201 -158l169 -615l-1 -13h-192l-149 589h-251l-103 -589h-179zM357 746l207 -2q95 2 167.5 51t107.5 138.5t24 194.5q-8 76 -54.5 120.5t-128.5 48.5l-227 1zM576 1552l234 294h231l-306 -294h-159z " />
<glyph unicode="&#x155;" horiz-adv-x="614" d="M23 0l188 1082l167 1l-24 -111q95 135 214 132q24 -1 74 -15l-19 -172q-43 9 -77 9q-131 0 -216 -151l-134 -775h-173zM356 1242l234 294h231l-306 -294h-159z" />
<glyph unicode="&#x156;" horiz-adv-x="1064" d="M48 0l252 1456l385 -1q188 -6 282 -121t75 -308q-13 -139 -87 -240t-201 -158l169 -615l-1 -13h-192l-149 589h-251l-103 -589h-179zM196 -429q76 117 99 228l18 98h164l-10 -66q-32 -208 -178 -334zM357 746l207 -2q95 2 167.5 51t107.5 138.5t24 194.5 q-8 76 -54.5 120.5t-128.5 48.5l-227 1z" />
<glyph unicode="&#x157;" horiz-adv-x="614" d="M-94 -429q76 117 99 228l18 98h164l-10 -66q-32 -208 -178 -334zM23 0l188 1082l167 1l-24 -111q95 135 214 132q24 -1 74 -15l-19 -172q-43 9 -77 9q-131 0 -216 -151l-134 -775h-173z" />
<glyph unicode="&#x158;" horiz-adv-x="1064" d="M48 0l252 1456l385 -1q188 -6 282 -121t75 -308q-13 -139 -87 -240t-201 -158l169 -615l-1 -13h-192l-149 589h-251l-103 -589h-179zM357 746l207 -2q95 2 167.5 51t107.5 138.5t24 194.5q-8 76 -54.5 120.5t-128.5 48.5l-227 1zM468 1834v14l143 -2l84 -169l147 168 l150 3v-13l-252 -273h-101z" />
<glyph unicode="&#x159;" horiz-adv-x="614" d="M23 0l188 1082l167 1l-24 -111q95 135 214 132q24 -1 74 -15l-19 -172q-43 9 -77 9q-131 0 -216 -151l-134 -775h-173zM249 1524v14l143 -2l84 -169l147 168l150 3v-13l-252 -273h-101z" />
<glyph unicode="&#x15a;" horiz-adv-x="1039" d="M55 423l180 -1q-11 -129 48 -206t175 -79q109 -4 185.5 61t90.5 178q11 91 -30 152.5t-170 117.5t-197 115q-143 123 -129 310q14 176 143.5 292.5t312.5 112.5q176 -4 278 -128.5t89 -312.5h-180q10 138 -41 209.5t-156 73.5q-108 2 -181 -65.5t-85 -178.5 q-10 -82 38 -144.5t167.5 -113t187.5 -106.5q150 -123 133 -332q-15 -178 -143.5 -290t-322.5 -108q-183 4 -293 128t-100 315zM585 1554l234 294h231l-306 -294h-159z" />
<glyph unicode="&#x15b;" horiz-adv-x="915" d="M49 324l174 -1q-2 -94 41 -142.5t122 -48.5q83 0 137.5 42t63.5 111q13 95 -106 158l-134 70q-104 58 -145.5 123t-36.5 151q8 137 112 227t254 88q145 -4 227 -95.5t76 -233.5h-171q2 81 -36 127.5t-106 48.5q-77 0 -127 -43.5t-60 -112.5q-12 -81 79 -133l169 -86 q187 -104 177 -276q-10 -147 -118 -234.5t-263 -83.5q-149 2 -242 97.5t-87 246.5zM480 1242l234 294h231l-306 -294h-159z" />
<glyph unicode="&#x15c;" horiz-adv-x="1039" d="M55 423l180 -1q-11 -129 48 -206t175 -79q109 -4 185.5 61t90.5 178q11 91 -30 152.5t-170 117.5t-197 115q-143 123 -129 310q14 176 143.5 292.5t312.5 112.5q176 -4 278 -128.5t89 -312.5h-180q10 138 -41 209.5t-156 73.5q-108 2 -181 -65.5t-85 -178.5 q-10 -82 38 -144.5t167.5 -113t187.5 -106.5q150 -123 133 -332q-15 -178 -143.5 -290t-322.5 -108q-183 4 -293 128t-100 315zM441 1563v14l242 271h99l169 -272v-14l-138 2l-84 169l-148 -168z" />
<glyph unicode="&#x15d;" horiz-adv-x="915" d="M49 324l174 -1q-2 -94 41 -142.5t122 -48.5q83 0 137.5 42t63.5 111q13 95 -106 158l-134 70q-104 58 -145.5 123t-36.5 151q8 137 112 227t254 88q145 -4 227 -95.5t76 -233.5h-171q2 81 -36 127.5t-106 48.5q-77 0 -127 -43.5t-60 -112.5q-12 -81 79 -133l169 -86 q187 -104 177 -276q-10 -147 -118 -234.5t-263 -83.5q-149 2 -242 97.5t-87 246.5zM336 1251v14l242 271h99l169 -272v-14l-138 2l-84 169l-148 -168z" />
<glyph unicode="&#x15e;" horiz-adv-x="1039" d="M55 423l180 -1q-11 -129 48 -206t175 -79q109 -4 185.5 61t90.5 178q11 91 -30 152.5t-170 117.5t-197 115q-143 123 -129 310q14 176 143.5 292.5t312.5 112.5q176 -4 278 -128.5t89 -312.5h-180q10 138 -41 209.5t-156 73.5q-108 2 -181 -65.5t-85 -178.5 q-10 -82 38 -144.5t167.5 -113t187.5 -106.5q150 -123 133 -332q-15 -178 -143.5 -290t-322.5 -108q-183 4 -293 128t-100 315zM283 -437l5 108q132 11 145 107q10 67 -67 81l-42 7l42 134h123l-19 -55q47 -13 72.5 -55.5t23.5 -107.5q-3 -99 -76.5 -156.5t-206.5 -62.5z " />
<glyph unicode="&#x15f;" horiz-adv-x="915" d="M49 324l174 -1q-2 -94 41 -142.5t122 -48.5q83 0 137.5 42t63.5 111q13 95 -106 158l-134 70q-104 58 -145.5 123t-36.5 151q8 137 112 227t254 88q145 -4 227 -95.5t76 -233.5h-171q2 81 -36 127.5t-106 48.5q-77 0 -127 -43.5t-60 -112.5q-12 -81 79 -133l169 -86 q187 -104 177 -276q-10 -147 -118 -234.5t-263 -83.5q-149 2 -242 97.5t-87 246.5zM246 -445l5 108q132 11 145 107q10 67 -67 81l-42 7l42 134h123l-19 -55q47 -13 72.5 -55.5t23.5 -107.5q-3 -99 -76.5 -156.5t-206.5 -62.5z" />
<glyph unicode="&#x160;" horiz-adv-x="1039" d="M55 423l180 -1q-11 -129 48 -206t175 -79q109 -4 185.5 61t90.5 178q11 91 -30 152.5t-170 117.5t-197 115q-143 123 -129 310q14 176 143.5 292.5t312.5 112.5q176 -4 278 -128.5t89 -312.5h-180q10 138 -41 209.5t-156 73.5q-108 2 -181 -65.5t-85 -178.5 q-10 -82 38 -144.5t167.5 -113t187.5 -106.5q150 -123 133 -332q-15 -178 -143.5 -290t-322.5 -108q-183 4 -293 128t-100 315zM477 1836v14l143 -2l84 -169l147 168l150 3v-13l-252 -273h-101z" />
<glyph unicode="&#x161;" horiz-adv-x="915" d="M49 324l174 -1q-2 -94 41 -142.5t122 -48.5q83 0 137.5 42t63.5 111q13 95 -106 158l-134 70q-104 58 -145.5 123t-36.5 151q8 137 112 227t254 88q145 -4 227 -95.5t76 -233.5h-171q2 81 -36 127.5t-106 48.5q-77 0 -127 -43.5t-60 -112.5q-12 -81 79 -133l169 -86 q187 -104 177 -276q-10 -147 -118 -234.5t-263 -83.5q-149 2 -242 97.5t-87 246.5zM372 1524v14l143 -2l84 -169l147 168l150 3v-13l-252 -273h-101z" />
<glyph unicode="&#x162;" horiz-adv-x="1044" d="M178 1298l28 158h921l-28 -158h-371l-225 -1298h-179l225 1298h-371zM271 -437l5 108q132 11 145 107q10 67 -67 81l-42 7l42 134h123l-19 -55q47 -13 72.5 -55.5t23.5 -107.5q-3 -99 -76.5 -156.5t-206.5 -62.5z" />
<glyph unicode="&#x163;" horiz-adv-x="597" d="M80 939l26 143h159l46 262h172l-46 -262h159l-25 -143h-158l-114 -673l-2 -40q-4 -85 61 -85q24 -1 72 10l-15 -151q-56 -20 -113 -18q-91 0 -137 75t-34 212l110 670h-161zM146 -437l5 108q132 11 145 107q10 67 -67 81l-42 7l42 134h123l-19 -55q47 -13 72.5 -55.5 t23.5 -107.5q-3 -99 -76.5 -156.5t-206.5 -62.5z" />
<glyph unicode="&#x164;" horiz-adv-x="1044" d="M178 1298l28 158h921l-28 -158h-371l-225 -1298h-179l225 1298h-371zM470 1834v14l143 -2l84 -169l147 168l150 3v-13l-252 -273h-101z" />
<glyph unicode="&#x165;" horiz-adv-x="637" d="M80 939l26 143h159l46 262h172l-46 -262h159l-25 -143h-158l-114 -673l-2 -40q-4 -85 61 -85q24 -1 72 10l-15 -151q-56 -20 -113 -18q-91 0 -137 75t-34 212l110 670h-161zM558 1331q76 117 99 228l18 98h164l-10 -66q-32 -208 -178 -334z" />
<glyph unicode="&#x166;" horiz-adv-x="1044" d="M178 1298l28 158h921l-28 -158h-371l-57 -324h187l-27 -151h-186l-142 -823h-179l142 823h-162l27 151h161l57 324h-371z" />
<glyph unicode="&#x167;" horiz-adv-x="597" d="M2 602l27 151h181l31 186h-161l26 143h159l46 262h172l-46 -262h159l-25 -143h-158l-32 -186h175l-27 -151h-173l-57 -336l-2 -40q-4 -85 61 -85q24 -1 72 10l-15 -151q-56 -20 -113 -18q-91 0 -137 75t-34 212l54 333h-183z" />
<glyph unicode="&#x168;" horiz-adv-x="1126" d="M112 430l174 1026h178l-174 -1027q-7 -60 -1 -112q17 -175 202 -181q127 -5 206 66.5t103 214.5l176 1039h180l-175 -1025q-29 -214 -163 -335.5t-337 -117.5q-193 4 -292.5 124.5t-76.5 327.5zM433 1563q11 110 65 180t136 68q46 -2 107 -51.5t107 -47.5q67 3 98 113 l107 -10q-11 -111 -63.5 -179t-134.5 -66q-33 0 -58.5 16t-49.5 35t-49 33.5t-56 13.5q-67 -3 -97 -112z" />
<glyph unicode="&#x169;" horiz-adv-x="970" d="M87 292l5 91l117 699h171l-116 -702l-4 -73q-4 -73 23.5 -120.5t82.5 -49.5q145 -7 238 143l138 802h173l-187 -1082h-163l19 95q-105 -120 -259 -116q-115 2 -176.5 84t-61.5 229zM300 1253q11 110 65 180t136 68q46 -2 107 -51.5t107 -47.5q67 3 98 113l107 -10 q-11 -111 -63.5 -179t-134.5 -66q-33 0 -58.5 16t-49.5 35t-49 33.5t-56 13.5q-67 -3 -97 -112z" />
<glyph unicode="&#x16a;" horiz-adv-x="1126" d="M112 430l174 1026h178l-174 -1027q-7 -60 -1 -112q17 -175 202 -181q127 -5 206 66.5t103 214.5l176 1039h180l-175 -1025q-29 -214 -163 -335.5t-337 -117.5q-193 4 -292.5 124.5t-76.5 327.5zM457 1620l23 143h564l-22 -143h-565z" />
<glyph unicode="&#x16b;" horiz-adv-x="970" d="M87 292l5 91l117 699h171l-116 -702l-4 -73q-4 -73 23.5 -120.5t82.5 -49.5q145 -7 238 143l138 802h173l-187 -1082h-163l19 95q-105 -120 -259 -116q-115 2 -176.5 84t-61.5 229zM324 1310l23 143h564l-22 -143h-565z" />
<glyph unicode="&#x16c;" horiz-adv-x="1126" d="M112 430l174 1026h178l-174 -1027q-7 -60 -1 -112q17 -175 202 -181q127 -5 206 66.5t103 214.5l176 1039h180l-175 -1025q-29 -214 -163 -335.5t-337 -117.5q-193 4 -292.5 124.5t-76.5 327.5zM473 1807l147 -1q-7 -146 122 -150q71 -1 112 41.5t53 107.5l145 1 q-12 -125 -97.5 -198.5t-213.5 -69.5q-123 2 -196.5 75t-71.5 194z" />
<glyph unicode="&#x16d;" horiz-adv-x="970" d="M87 292l5 91l117 699h171l-116 -702l-4 -73q-4 -73 23.5 -120.5t82.5 -49.5q145 -7 238 143l138 802h173l-187 -1082h-163l19 95q-105 -120 -259 -116q-115 2 -176.5 84t-61.5 229zM340 1497l147 -1q-7 -146 122 -150q71 -1 112 41.5t53 107.5l145 1 q-12 -125 -97.5 -198.5t-213.5 -69.5q-123 2 -196.5 75t-71.5 194z" />
<glyph unicode="&#x16e;" horiz-adv-x="1126" d="M112 430l174 1026h178l-174 -1027q-7 -60 -1 -112q17 -175 202 -181q127 -5 206 66.5t103 214.5l176 1039h180l-175 -1025q-29 -214 -163 -335.5t-337 -117.5q-193 4 -292.5 124.5t-76.5 327.5zM547 1721q2 91 66.5 154t153.5 63q82 0 139.5 -58t57.5 -143 q-2 -89 -66.5 -151t-153.5 -62q-84 0 -141.5 57t-55.5 140zM643 1723q-4 -46 23 -77.5t70 -31.5q46 0 85.5 35.5t45.5 85.5q6 46 -22 79t-70 33q-46 0 -86 -36.5t-46 -87.5z" />
<glyph unicode="&#x16f;" horiz-adv-x="970" d="M87 292l5 91l117 699h171l-116 -702l-4 -73q-4 -73 23.5 -120.5t82.5 -49.5q145 -7 238 143l138 802h173l-187 -1082h-163l19 95q-105 -120 -259 -116q-115 2 -176.5 84t-61.5 229zM414 1411q2 91 66.5 154t153.5 63q82 0 139.5 -58t57.5 -143q-2 -89 -66.5 -151 t-153.5 -62q-84 0 -141.5 57t-55.5 140zM510 1413q-4 -46 23 -77.5t70 -31.5q46 0 85.5 35.5t45.5 85.5q6 46 -22 79t-70 33q-46 0 -86 -36.5t-46 -87.5z" />
<glyph unicode="&#x170;" horiz-adv-x="1126" d="M112 430l174 1026h178l-174 -1027q-7 -60 -1 -112q17 -175 202 -181q127 -5 206 66.5t103 214.5l176 1039h180l-175 -1025q-29 -214 -163 -335.5t-337 -117.5q-193 4 -292.5 124.5t-76.5 327.5zM504 1542l181 303h192l-227 -303h-146zM737 1542l233 303h203l-270 -303 h-166z" />
<glyph unicode="&#x171;" horiz-adv-x="970" d="M87 292l5 91l117 699h171l-116 -702l-4 -73q-4 -73 23.5 -120.5t82.5 -49.5q145 -7 238 143l138 802h173l-187 -1082h-163l19 95q-105 -120 -259 -116q-115 2 -176.5 84t-61.5 229zM371 1232l181 303h192l-227 -303h-146zM604 1232l233 303h203l-270 -303h-166z" />
<glyph unicode="&#x172;" horiz-adv-x="1126" d="M112 430l174 1026h178l-174 -1027q-7 -60 -1 -112q17 -175 202 -181q127 -5 206 66.5t103 214.5l176 1039h180l-175 -1025q-23 -163 -107 -274.5t-218 -154.5l-30 -28q-86 -83 -91 -159q-5 -61 44 -64q21 -2 42 7l40 17v-122q-61 -42 -131 -42q-69 0 -109 50t-38 133 q4 101 79 185q-182 9 -277.5 129t-72.5 322z" />
<glyph unicode="&#x173;" horiz-adv-x="970" d="M87 292l5 91l117 699h171l-116 -702l-4 -73q-4 -73 23.5 -120.5t82.5 -49.5q145 -7 238 143l138 802h173l-187 -1082h-15l4 -3l-52 -45q-108 -96 -115 -181q-5 -61 44 -64q21 -2 42 7l40 17v-122q-61 -42 -131 -42q-69 0 -109 50t-38 133q3 148 169 260l17 85 q-105 -120 -259 -116q-115 2 -176.5 84t-61.5 229z" />
<glyph unicode="&#x174;" horiz-adv-x="1523" d="M204 1456h175l20 -1008l-7 -145l51 143l383 1010h149l61 -1024l4 -138l50 175l325 987h183l-510 -1456h-161l-70 1069v74l-29 -87l-408 -1056h-163zM671 1561v14l242 271h99l169 -272v-14l-138 2l-84 169l-148 -168z" />
<glyph unicode="&#x175;" horiz-adv-x="1301" d="M134 1082h165l32 -748l325 748h137l65 -769l293 769h176l-445 -1082h-138l-69 772l-334 -772h-139zM502 1251v14l242 271h99l169 -272v-14l-138 2l-84 169l-148 -168z" />
<glyph unicode="&#x176;" horiz-adv-x="1052" d="M182 1456h194l161 -729l416 729h211l-567 -924l-92 -532h-179l97 554zM440 1561v14l242 271h99l169 -272v-14l-138 2l-84 169l-148 -168z" />
<glyph unicode="&#x177;" horiz-adv-x="837" d="M-88 -422l17 150l37 -6q131 -6 204 134l73 164l-122 1062h182l56 -785l328 785h189l-560 -1250q-57 -136 -135.5 -205.5t-170.5 -66.5q-31 1 -98 18zM294 1251v14l242 271h99l169 -272v-14l-138 2l-84 169l-148 -168z" />
<glyph unicode="&#x178;" horiz-adv-x="1052" d="M182 1456h194l161 -729l416 729h211l-567 -924l-92 -532h-179l97 554zM397 1679q1 46 30 76.5t77 32.5q46 1 76.5 -28.5t29.5 -76.5q0 -46 -30 -76t-77 -32q-47 -1 -76.5 28t-29.5 76zM814 1677q1 46 30 77t76 33q48 1 78 -28.5t29 -77.5q0 -47 -30 -76.5t-77 -31.5 q-46 -1 -76.5 28t-29.5 76z" />
<glyph unicode="&#x179;" horiz-adv-x="1048" d="M-16 0l27 154l836 1144h-632l28 158h836l-27 -151l-837 -1148h665l-28 -157h-868zM583 1552l234 294h231l-306 -294h-159z" />
<glyph unicode="&#x17a;" horiz-adv-x="882" d="M-13 0l25 146l611 783h-472l28 153h680l-25 -141l-618 -790h501l-27 -151h-703zM445 1242l234 294h231l-306 -294h-159z" />
<glyph unicode="&#x17b;" horiz-adv-x="1048" d="M-16 0l27 154l836 1144h-632l28 158h836l-27 -151l-837 -1148h665l-28 -157h-868zM604 1674q0 47 29 78t77 33q46 2 76.5 -27.5t30.5 -77.5q-1 -47 -30.5 -77t-76.5 -32q-44 -2 -75 26.5t-31 76.5z" />
<glyph unicode="&#x17c;" horiz-adv-x="882" d="M-13 0l25 146l611 783h-472l28 153h680l-25 -141l-618 -790h501l-27 -151h-703zM466 1364q0 47 29 78t77 33q46 2 76.5 -27.5t30.5 -77.5q-1 -47 -30.5 -77t-76.5 -32q-44 -2 -75 26.5t-31 76.5z" />
<glyph unicode="&#x17d;" horiz-adv-x="1048" d="M-16 0l27 154l836 1144h-632l28 158h836l-27 -151l-837 -1148h665l-28 -157h-868zM475 1834v14l143 -2l84 -169l147 168l150 3v-13l-252 -273h-101z" />
<glyph unicode="&#x17e;" horiz-adv-x="882" d="M-13 0l25 146l611 783h-472l28 153h680l-25 -141l-618 -790h501l-27 -151h-703zM337 1524v14l143 -2l84 -169l147 168l150 3v-13l-252 -273h-101z" />
<glyph unicode="&#x17f;" horiz-adv-x="476" d="M43 0l203 1194q23 176 110 273t222 95q50 -2 125 -21l-29 -145q-39 11 -70 13q-147 3 -186 -224l-202 -1185h-173z" />
<glyph unicode="&#x18f;" horiz-adv-x="1196" d="M84 491q0 81 12 159l18 117l802 -3l3 12q11 52 16 112q8 118 -20.5 218t-94.5 153.5t-160 54.5q-138 3 -298 -82l-30 144q99 99 334 99q136 -1 235 -65.5t153 -190.5t57 -283q1 -122 -26.5 -283.5t-98.5 -306.5t-170 -236q-146 -134 -329 -130q-129 3 -220.5 64 t-137 178.5t-45.5 268.5zM256 484q-10 -165 53 -254t187 -93q134 -4 235 110t169 372l-628 -1q-14 -81 -16 -134z" />
<glyph unicode="&#x192;" horiz-adv-x="625" d="M-151 -420l26 147q46 -16 82 -16q94 0 125 163l164 1065h-137l22 143h137l13 107q22 181 108 277t223 93q52 -2 128 -23l-35 -146q-52 13 -79 13q-136 0 -168 -192l-18 -129h153l-22 -143h-152l-157 -1028q-20 -171 -101.5 -262.5t-212.5 -88.5q-41 2 -99 20z" />
<glyph unicode="&#x1a0;" horiz-adv-x="1188" d="M99 533q1 106 26 259.5t81 287.5q83 196 212 298t294 98q193 -4 306 -155q74 16 119 75.5t66 193.5l154 1q-19 -165 -87 -260.5t-189 -131.5q20 -106 21 -212q2 -160 -39 -369.5t-131 -363t-217 -221.5q-105 -57 -229 -53q-124 3 -212.5 71.5t-132.5 198t-42 283.5z M276 467q11 -315 220 -325q157 -7 262 135.5t144 432.5l9 67q15 129 13 215q-11 310 -223 320q-148 7 -251.5 -127t-144.5 -378q-35 -210 -29 -340z" />
<glyph unicode="&#x1a1;" horiz-adv-x="1009" d="M79 402q-2 56 6 142q21 165 91 298t170.5 198.5t221.5 62.5q168 -4 267 -140q107 30 131 161l13 76h136q-18 -152 -72.5 -232t-153.5 -111q14 -76 15 -151q3 -206 -63 -379t-178 -262.5t-253 -85.5q-151 4 -238 117.5t-93 305.5zM250 449q-7 -153 36.5 -234.5 t133.5 -85.5q133 -5 214.5 137t91.5 361q7 153 -36 236.5t-135 87.5q-121 5 -199.5 -113t-101.5 -326z" />
<glyph unicode="&#x1af;" horiz-adv-x="1219" d="M112 470l167 986h178l-167 -987q-7 -57 -3 -115q7 -99 57.5 -156.5t140.5 -61.5q124 -5 206 81t110 253l168 986h180l-43 -216q94 16 147.5 81.5t75.5 216.5h143q-23 -211 -116.5 -315t-262.5 -116l-112 -637q-20 -144 -90 -258.5t-178.5 -175.5t-240.5 -57 q-125 4 -211.5 66t-125.5 174.5t-23 250.5z" />
<glyph unicode="&#x1b0;" horiz-adv-x="1102" d="M90 245q-5 71 2 138l117 699h171l-116 -702l-4 -73q-4 -73 23.5 -120.5t82.5 -49.5q145 -7 238 143l138 802h173l-26 -133q130 7 156 134l15 85h125q-18 -175 -91 -250.5t-217 -80.5l-149 -837h-163l20 95q-105 -119 -260 -116q-107 3 -167.5 73t-67.5 193z" />
<glyph unicode="&#x1f0;" horiz-adv-x="482" d="M-203 -419l27 146q50 -18 82 -16q106 0 135 200l200 1171h173l-199 -1170q-23 -170 -105 -262t-215 -90q-44 2 -98 21zM137 1484v14l143 -2l84 -169l147 168l150 3v-13l-252 -273h-101z" />
<glyph unicode="&#x1fa;" horiz-adv-x="1155" d="M-66 0l707 1456h154l203 -1456h-177l-45 380h-476l-176 -380h-190zM374 538h383l-77 660zM598 1535q0 69 43.5 121.5t105.5 52.5q59 2 98 -46.5t39 -115.5q0 -69 -42 -119.5t-103 -50.5q-58 -2 -99.5 43.5t-41.5 114.5zM672 1537q0 -81 55 -81q29 0 53.5 27.5t29.5 61.5 l1 28q-8 56 -51 56q-57 0 -88 -92zM736 1757l148 183l186 -1l-218 -182h-116z" />
<glyph unicode="&#x1fb;" horiz-adv-x="962" d="M62 287q11 168 138.5 269t334.5 101h120l17 115q18 179 -135 179q-79 0 -131.5 -46.5t-66.5 -121.5l-171 -1q13 137 124.5 230t262.5 91q146 -2 224.5 -89.5t63.5 -244.5l-88 -533q-9 -57 -7 -109l6 -110l-2 -17h-174q-6 30 -5 59l4 59q-115 -139 -248 -139 q-130 0 -202.5 84.5t-64.5 223.5zM240 240q13 -101 125 -101q130 0 224 127l45 259l-79 1q-102 0 -181 -37.5t-111.5 -104t-22.5 -144.5zM462 1226q0 69 43.5 121.5t105.5 52.5q59 2 98 -46.5t39 -115.5q0 -69 -42 -119.5t-103 -50.5q-58 -2 -99.5 43.5t-41.5 114.5z M536 1228q0 -81 55 -81q29 0 53.5 27.5t29.5 61.5l1 28q-8 56 -51 56q-57 0 -88 -92zM600 1448l148 183l186 -1l-218 -182h-116z" />
<glyph unicode="&#x1fc;" horiz-adv-x="1623" d="M-112 0l970 1456h809l-27 -152h-563l-65 -471h481l-27 -151h-475l-74 -531h574l-27 -151h-741l49 353h-438l-225 -353h-221zM444 527h352l100 711zM841 1564l234 294h231l-306 -294h-159z" />
<glyph unicode="&#x1fd;" horiz-adv-x="1456" d="M34 296q11 160 122 250t292 90l181 -1l12 86q4 34 3 74q-4 72 -35.5 113.5t-88.5 42.5q-80 2 -137 -53.5t-70 -138.5l-171 19q15 146 124.5 236.5t266.5 88.5q88 -2 155.5 -41t99.5 -112q137 156 294 153q94 -3 162 -48.5t103 -133t37 -194.5q1 -57 -6 -112l-18 -118 h-579q-7 -54 -5 -117q2 -112 51 -179t139 -70q128 -3 269 105l48 -136q-51 -58 -137.5 -89t-186.5 -31q-100 2 -178.5 47t-120.5 125q-149 -176 -375 -172q-124 2 -192 88.5t-59 227.5zM209 292q-9 -75 23 -118t95 -45q102 -3 235 118l45 248l-159 1q-96 -2 -162.5 -59 t-76.5 -145zM726 1243l234 294h231l-306 -294h-159zM797 640h411q12 77 11 125l-3 36q-20 146 -147 151q-86 3 -154 -70.5t-118 -241.5z" />
<glyph unicode="&#x1fe;" horiz-adv-x="1203" d="M25 -92l168 234q-86 172 -76 402q4 97 27.5 246t78.5 283q83 200 213.5 303.5t296.5 99.5q173 -4 277 -120l114 160l139 -1l-185 -258q38 -118 43 -240q6 -171 -34.5 -383.5t-124.5 -362t-200 -222.5t-257 -70q-134 4 -233 80l-108 -152zM289 496q-5 -93 13 -184l606 887 q-61 108 -185 114q-97 4 -178.5 -54t-138.5 -180.5t-84.5 -292.5t-32.5 -290zM365 206q57 -61 149 -65q155 -5 257.5 129.5t143.5 396.5t37 397zM674 1626l234 294h231l-306 -294h-159z" />
<glyph unicode="&#x1ff;" horiz-adv-x="1000" d="M45 -133l127 206q-97 130 -95 333q0 59 6 116l3 21q35 256 164 410t319 151q85 -2 161 -42l89 146l121 -1l-128 -207q91 -135 90 -331l-7 -116q-35 -271 -167.5 -424.5t-321.5 -150.5q-76 2 -153 35l-87 -147zM241 380q-2 -72 18 -142l396 683q-43 31 -94 32 q-95 4 -165 -67.5t-110 -204.5t-45 -301zM330 151q40 -22 85 -24q143 -6 227.5 156.5t91.5 406.5q2 69 -13 138zM466 1242l234 294h231l-306 -294h-159z" />
<glyph unicode="&#x218;" horiz-adv-x="1039" d="M55 423l180 -1q-11 -129 48 -206t175 -79q109 -4 185.5 61t90.5 178q11 91 -30 152.5t-170 117.5t-197 115q-143 123 -129 310q14 176 143.5 292.5t312.5 112.5q176 -4 278 -128.5t89 -312.5h-180q10 138 -41 209.5t-156 73.5q-108 2 -181 -65.5t-85 -178.5 q-10 -82 38 -144.5t167.5 -113t187.5 -106.5q150 -123 133 -332q-15 -178 -143.5 -290t-322.5 -108q-183 4 -293 128t-100 315zM208 -439q76 117 99 228l18 98h164l-10 -66q-32 -208 -178 -334z" />
<glyph unicode="&#x219;" horiz-adv-x="915" d="M49 324l174 -1q-2 -94 41 -142.5t122 -48.5q83 0 137.5 42t63.5 111q13 95 -106 158l-134 70q-104 58 -145.5 123t-36.5 151q8 137 112 227t254 88q145 -4 227 -95.5t76 -233.5h-171q2 81 -36 127.5t-106 48.5q-77 0 -127 -43.5t-60 -112.5q-12 -81 79 -133l169 -86 q187 -104 177 -276q-10 -147 -118 -234.5t-263 -83.5q-149 2 -242 97.5t-87 246.5zM171 -448q76 117 99 228l18 98h164l-10 -66q-32 -208 -178 -334z" />
<glyph unicode="&#x21a;" horiz-adv-x="1044" d="M178 1298l28 158h921l-28 -158h-371l-225 -1298h-179l225 1298h-371zM196 -439q76 117 99 228l18 98h164l-10 -66q-32 -208 -178 -334z" />
<glyph unicode="&#x21b;" horiz-adv-x="597" d="M71 -439q76 117 99 228l18 98h164l-10 -66q-32 -208 -178 -334zM80 939l26 143h159l46 262h172l-46 -262h159l-25 -143h-158l-114 -673l-2 -40q-4 -85 61 -85q24 -1 72 10l-15 -151q-56 -20 -113 -18q-91 0 -137 75t-34 212l110 670h-161z" />
<glyph unicode="&#x237;" horiz-adv-x="482" d="M-203 -419l27 146q50 -18 82 -16q106 0 135 200l200 1171h173l-199 -1170q-23 -170 -105 -262t-215 -90q-44 2 -98 21z" />
<glyph unicode="&#x259;" horiz-adv-x="935" d="M77 295q-8 85 3 167l18 122h565l6 71q7 140 -36.5 216t-130.5 80q-136 4 -261 -106l-55 126q60 70 146 102t177 30q149 -2 236 -113t93 -305q6 -190 -56.5 -357.5t-168.5 -259.5t-237 -88q-130 4 -207.5 86.5t-91.5 228.5zM241 317l3 -36q21 -146 145 -151q77 -2 139 66 t116 237l-394 1l-5 -28q-6 -42 -4 -89z" />
<glyph unicode="&#x2bc;" horiz-adv-x="396" d="M145 1120q100 143 125 273l25 143h171l-18 -115q-37 -233 -210 -375z" />
<glyph unicode="&#x2c6;" horiz-adv-x="861" d="M276 1251v14l242 271h99l169 -272v-14l-138 2l-84 169l-148 -168z" />
<glyph unicode="&#x2c7;" horiz-adv-x="812" d="M292 1523v14l143 -2l84 -169l147 168l150 3v-13l-252 -273h-101z" />
<glyph unicode="&#x2c9;" horiz-adv-x="834" d="M246 1302l23 143h564l-22 -143h-565z" />
<glyph unicode="&#x2d8;" horiz-adv-x="858" d="M265 1496l147 -1q-7 -146 122 -150q71 -1 112 41.5t53 107.5l145 1q-12 -125 -97.5 -198.5t-213.5 -69.5q-123 2 -196.5 75t-71.5 194z" />
<glyph unicode="&#x2d9;" horiz-adv-x="492" d="M270 1364q0 47 29 78t77 33q46 2 76.5 -27.5t30.5 -77.5q-1 -47 -30.5 -77t-76.5 -32q-44 -2 -75 26.5t-31 76.5z" />
<glyph unicode="&#x2da;" horiz-adv-x="674" d="M259 1400q2 91 66.5 154t153.5 63q82 0 139.5 -58t57.5 -143q-2 -89 -66.5 -151t-153.5 -62q-84 0 -141.5 57t-55.5 140zM355 1402q-4 -46 23 -77.5t70 -31.5q46 0 85.5 35.5t45.5 85.5q6 46 -22 79t-70 33q-46 0 -86 -36.5t-46 -87.5z" />
<glyph unicode="&#x2db;" horiz-adv-x="513" d="M-70 -250q7 185 250 307l69 -60l-52 -45q-108 -96 -115 -181q-5 -61 44 -64q21 -2 42 7l40 17v-122q-61 -42 -131 -42q-69 0 -109 50t-38 133z" />
<glyph unicode="&#x2dc;" horiz-adv-x="859" d="M227 1249q11 110 65 180t136 68q46 -2 107 -51.5t107 -47.5q67 3 98 113l107 -10q-11 -111 -63.5 -179t-134.5 -66q-33 0 -58.5 16t-49.5 35t-49 33.5t-56 13.5q-67 -3 -97 -112z" />
<glyph unicode="&#x2dd;" horiz-adv-x="669" d="M193 1232l181 303h192l-227 -303h-146zM426 1232l233 303h203l-270 -303h-166z" />
<glyph unicode="&#x2f3;" horiz-adv-x="533" d="M-32 -248q0 70 43.5 122t107.5 52q61 0 100 -46.5t39 -115.5q0 -68 -42.5 -119t-104.5 -51q-61 -2 -102 43.5t-41 114.5zM42 -247q-5 -30 12 -54t44 -24q31 0 56 27.5t29 59.5q2 13 0 27q-3 24 -17.5 39.5t-34.5 15.5q-31 0 -57.5 -27t-31.5 -64z" />
<glyph unicode="&#x300;" horiz-adv-x="0" d="M-528 1536h196l107 -294h-133z" />
<glyph unicode="&#x301;" horiz-adv-x="0" d="M-424 1242l210 294h220l-281 -294h-149z" />
<glyph unicode="&#x303;" horiz-adv-x="0" d="M-609 1249q11 110 65 180t136 68q46 -2 107 -51.5t107 -47.5q67 3 98 113l107 -10q-11 -111 -63.5 -179t-134.5 -66q-33 0 -58.5 16t-49.5 35t-49 33.5t-56 13.5q-67 -3 -97 -112z" />
<glyph unicode="&#x309;" horiz-adv-x="0" d="M-411 1241l23 153q67 7 96 26.5t33 53.5q8 61 -80 69l-29 2l15 107q111 -5 168.5 -53.5t52.5 -127.5q-8 -127 -138 -159l-11 -72z" />
<glyph unicode="&#x30f;" horiz-adv-x="0" d="M-634 1518h220l152 -266h-168zM-346 1518h200l100 -266h-146z" />
<glyph unicode="&#x323;" horiz-adv-x="0" d="M-837 -248q1 47 30 78t76 33q46 2 76.5 -27.5t30.5 -77.5q-1 -47 -30.5 -77t-76.5 -32q-44 -2 -75 26.5t-31 76.5z" />
<glyph unicode="&#x384;" horiz-adv-x="519" d="M289 1262l112 337h176l-172 -337h-116z" />
<glyph unicode="&#x385;" horiz-adv-x="909" d="M233 1369q2 44 28.5 75.5t71.5 33.5q42 2 70 -29t26 -77q-2 -43 -28.5 -74.5t-71.5 -32.5q-44 -2 -71 29t-25 75zM509 1408l89 264h178l-138 -264h-129zM714 1367q2 44 28 76t72 34q42 2 70 -29t26 -78q-2 -43 -28.5 -74t-71.5 -33q-44 -2 -71 29t-25 75z" />
<glyph unicode="&#x386;" horiz-adv-x="1155" d="M-66 0l707 1456h154l203 -1456h-177l-45 380h-476l-176 -380h-190zM269 1262l112 337h176l-172 -337h-116zM374 538h383l-77 660z" />
<glyph unicode="&#x387;" horiz-adv-x="494" d="M156 726q1 47 28 80.5t76 35.5q44 2 73.5 -29t29.5 -81q0 -47 -28 -79.5t-76 -34.5q-43 -2 -73 28t-30 80z" />
<glyph unicode="&#x388;" horiz-adv-x="996" d="M-67 1262l112 337h176l-172 -337h-116zM48 0l252 1456h752l-28 -158h-572l-82 -468h500l-27 -157h-499l-90 -516h582l-28 -157h-760z" />
<glyph unicode="&#x389;" horiz-adv-x="1242" d="M-56 1264l112 337h176l-172 -337h-116zM48 0l252 1456h179l-109 -626h568l108 626h180l-253 -1456h-179l117 673h-567l-117 -673h-179z" />
<glyph unicode="&#x38a;" horiz-adv-x="507" d="M-54 1263l112 337h176l-172 -337h-116zM55 0l253 1456h179l-253 -1456h-179z" />
<glyph unicode="&#x38c;" horiz-adv-x="1223" d="M85 1262l112 337h176l-172 -337h-116zM136 455q-1 73 8 145l42 272q50 290 196.5 449.5t369.5 154.5q171 -4 271 -113t116 -310l3 -54q0 -74 -9 -146l-43 -277q-51 -291 -196 -446t-368 -150q-182 4 -284.5 130t-105.5 345zM313 504q-10 -171 47.5 -264.5t176.5 -97.5 q293 -9 371 409l47 306l9 97q10 175 -47 264.5t-176 93.5q-149 5 -245 -106.5t-133 -331.5l-43 -289z" />
<glyph unicode="&#x38e;" horiz-adv-x="1152" d="M-87 1262l112 337h176l-172 -337h-116zM282 1456h194l161 -729l416 729h211l-567 -924l-92 -532h-179l97 554z" />
<glyph unicode="&#x38f;" horiz-adv-x="1185" d="M29 0l30 157l178 1q-129 261 -87 568l14 94q46 303 193 482t365 174q157 -4 253.5 -116.5t115.5 -315.5l4 -66q0 -73 -8 -139l-11 -78q-56 -396 -294 -607l181 3l-28 -157h-404l25 161q245 61 319 480l31 201q13 106 10 193q-11 274 -203 284q-143 5 -238 -123.5 t-127 -361t-35 -310.5q-16 -310 153 -362l-25 -162h-412zM85 1262l112 337h176l-172 -337h-116z" />
<glyph unicode="&#x390;" horiz-adv-x="605" d="M65 1349q2 44 28.5 75.5t71.5 33.5q42 2 70 -29t26 -77q-2 -43 -28.5 -74.5t-71.5 -32.5q-44 -2 -71 29t-25 75zM140 276l134 806h172l-137 -809l-2 -40q-4 -84 61 -84q25 0 68 10l-13 -153q-56 -18 -114 -16q-91 2 -136 76.5t-33 209.5zM341 1388l89 264h178l-138 -264 h-129zM546 1347q2 44 28 76t72 34q42 2 70 -29t26 -78q-2 -43 -28.5 -74t-71.5 -33q-44 -2 -71 29t-25 75z" />
<glyph unicode="&#x391;" horiz-adv-x="1155" d="M-66 0l707 1456h154l203 -1456h-177l-45 380h-476l-176 -380h-190zM374 538h383l-77 660z" />
<glyph unicode="&#x392;" horiz-adv-x="1093" d="M48 0l252 1456l391 -1q176 -5 262.5 -104t72.5 -275q-18 -204 -238 -314q80 -35 119.5 -125t29.5 -209q-16 -197 -139.5 -313t-315.5 -115h-434zM254 157l232 -2q136 2 212 105.5t64 257.5q-14 154 -158 162l-259 1zM371 835l219 -2q82 2 144.5 46.5t91.5 123t19 161.5 q-16 127 -158 133l-235 1z" />
<glyph unicode="&#x393;" horiz-adv-x="979" d="M56 0l253 1456h736l-28 -158h-555l-226 -1298h-180z" />
<glyph unicode="&#x394;" horiz-adv-x="1230" d="M-68 0l754 1456h156l213 -1456h-1123zM202 157h656l-137 1025z" />
<glyph unicode="&#x2206;" horiz-adv-x="1230" d="M-68 0l754 1456h156l213 -1456h-1123zM202 157h656l-137 1025z" />
<glyph unicode="&#x395;" horiz-adv-x="996" d="M48 0l252 1456h752l-28 -158h-572l-82 -468h500l-27 -157h-499l-90 -516h582l-28 -157h-760z" />
<glyph unicode="&#x396;" horiz-adv-x="1048" d="M-16 0l27 154l836 1144h-632l28 158h836l-27 -151l-837 -1148h665l-28 -157h-868z" />
<glyph unicode="&#x397;" horiz-adv-x="1242" d="M48 0l252 1456h179l-109 -626h568l108 626h180l-253 -1456h-179l117 673h-567l-117 -673h-179z" />
<glyph unicode="&#x398;" horiz-adv-x="1189" d="M106 533l4 87q20 266 103 462t212.5 297t292.5 97q125 -3 213 -70.5t131.5 -197t41.5 -285.5q-2 -136 -33.5 -302.5t-95.5 -298.5t-148 -212q-143 -136 -334 -130q-125 3 -213.5 71.5t-132 198.5t-41.5 283zM283 467q11 -315 220 -325q151 -7 253.5 125.5t144.5 399.5 q32 204 28 325q-11 310 -221 320q-156 7 -261.5 -139.5t-142.5 -417.5l-10 -75q-15 -130 -11 -213zM400 659l27 152h412l-27 -152h-412z" />
<glyph unicode="&#x399;" horiz-adv-x="507" d="M55 0l253 1456h179l-253 -1456h-179z" />
<glyph unicode="&#x39a;" horiz-adv-x="1093" d="M48 0l252 1456h179l-121 -692l144 157l466 535h228l-579 -651l350 -805h-202l-277 669l-177 -180l-84 -489h-179z" />
<glyph unicode="&#x39b;" horiz-adv-x="1147" d="M-54 0l685 1456h157l180 -1456h-186l-122 1133l-515 -1133h-199z" />
<glyph unicode="&#x39c;" horiz-adv-x="1511" d="M48 0l252 1456h227l162 -1186l574 1186h234l-253 -1456h-179l100 576l111 541l-559 -1117h-137l-172 1140l-85 -582l-96 -558h-179z" />
<glyph unicode="&#x39d;" horiz-adv-x="1240" d="M48 0l252 1456h175l374 -1135l197 1135h178l-252 -1456h-175l-373 1130l-196 -1130h-180z" />
<glyph unicode="&#x39e;" horiz-adv-x="1009" d="M14 0l28 157h769l-28 -157h-769zM198 674l28 157h627l-28 -157h-627zM240 1298l28 158h758l-28 -158h-758z" />
<glyph unicode="&#x39f;" horiz-adv-x="1203" d="M116 455q-1 73 8 145l42 272q50 290 196.5 449.5t369.5 154.5q171 -4 271 -113t116 -310l3 -54q0 -74 -9 -146l-43 -277q-51 -291 -196 -446t-368 -150q-182 4 -284.5 130t-105.5 345zM293 504q-10 -171 47.5 -264.5t176.5 -97.5q293 -9 371 409l47 306l9 97 q10 175 -47 264.5t-176 93.5q-149 5 -245 -106.5t-133 -331.5l-43 -289z" />
<glyph unicode="&#x3a0;" horiz-adv-x="1243" d="M56 0l253 1456h910l-252 -1456h-180l225 1298h-551l-226 -1298h-179z" />
<glyph unicode="&#x3a1;" horiz-adv-x="1111" d="M48 0l252 1456l439 -1q179 -6 276 -126.5t80 -309.5q-18 -208 -149 -329t-337 -121l-283 1l-99 -570h-179zM353 727l263 -2q99 0 172 51.5t107 147t22 193.5q-10 81 -57 128.5t-125 51.5l-283 1z" />
<glyph unicode="&#x3a3;" horiz-adv-x="1009" d="M-27 0l27 153l483 586l-281 583l24 134h801l-28 -158h-596l270 -555l-2 -25l-456 -561h625l-28 -157h-839z" />
<glyph unicode="&#x3a4;" horiz-adv-x="1044" d="M178 1298l28 158h921l-28 -158h-371l-225 -1298h-179l225 1298h-371z" />
<glyph unicode="&#x3a5;" horiz-adv-x="1052" d="M182 1456h194l161 -729l416 729h211l-567 -924l-92 -532h-179l97 554z" />
<glyph unicode="&#x3a6;" horiz-adv-x="1245" d="M105 714q17 157 90 283.5t190 198t262 75.5l38 185h181l-38 -187q123 -8 209 -79.5t126 -194t25 -263.5q-17 -156 -89.5 -282t-189.5 -198t-260 -77l-36 -175h-181l36 177q-125 8 -212 80t-126.5 194t-24.5 263zM278 587q3 -110 56.5 -176.5t150.5 -76.5l142 781 q-113 -5 -195 -75t-121 -194.5t-33 -258.5zM668 332q114 7 195.5 76.5t119 189.5t33.5 261q-3 109 -56 175.5t-150 76.5z" />
<glyph unicode="&#x3a7;" horiz-adv-x="1104" d="M-33 0l499 743l-254 713h199l180 -557l353 557h219l-487 -731l257 -725h-202l-182 567l-361 -567h-221z" />
<glyph unicode="&#x3a8;" horiz-adv-x="1202" d="M141 746q-10 92 1 184l89 526h178l-88 -527q-8 -56 -8 -117q0 -109 41 -183t120 -102l166 929h180l-167 -933q126 31 208.5 132.5t110.5 257.5l93 543h180l-94 -549q-42 -235 -176 -376t-340 -168l-68 -363h-180l69 365q-135 28 -217.5 128.5t-97.5 252.5z" />
<glyph unicode="&#x3a9;" horiz-adv-x="1165" d="M9 0l30 157l178 1q-129 261 -87 568l14 94q46 303 193 482t365 174q157 -4 253.5 -116.5t115.5 -315.5l4 -66q0 -73 -8 -139l-11 -78q-56 -396 -294 -607l181 3l-28 -157h-404l25 161q245 61 319 480l31 201q13 106 10 193q-11 274 -203 284q-143 5 -238 -123.5 t-127 -361t-35 -310.5q-16 -310 153 -362l-25 -162h-412z" />
<glyph unicode="&#x2126;" horiz-adv-x="1165" d="M9 0l30 157l178 1q-129 261 -87 568l14 94q46 303 193 482t365 174q157 -4 253.5 -116.5t115.5 -315.5l4 -66q0 -73 -8 -139l-11 -78q-56 -396 -294 -607l181 3l-28 -157h-404l25 161q245 61 319 480l31 201q13 106 10 193q-11 274 -203 284q-143 5 -238 -123.5 t-127 -361t-35 -310.5q-16 -310 153 -362l-25 -162h-412z" />
<glyph unicode="&#x3aa;" horiz-adv-x="507" d="M55 0l253 1456h179l-253 -1456h-179zM123 1691q1 46 30 76.5t77 32.5q46 1 76.5 -28.5t29.5 -76.5q0 -46 -30 -76t-77 -32q-47 -1 -76.5 28t-29.5 76zM540 1689q1 46 30 77t76 33q48 1 78 -28.5t29 -77.5q0 -47 -30 -76.5t-77 -31.5q-46 -1 -76.5 28t-29.5 76z" />
<glyph unicode="&#x3ab;" horiz-adv-x="1052" d="M182 1456h194l161 -729l416 729h211l-567 -924l-92 -532h-179l97 554zM397 1679q1 46 30 76.5t77 32.5q46 1 76.5 -28.5t29.5 -76.5q0 -46 -30 -76t-77 -32q-47 -1 -76.5 28t-29.5 76zM814 1677q1 46 30 77t76 33q48 1 78 -28.5t29 -77.5q0 -47 -30 -76.5t-77 -31.5 q-46 -1 -76.5 28t-29.5 76z" />
<glyph unicode="&#x3ac;" horiz-adv-x="993" d="M75 390q0 176 59 358t155.5 270t223.5 85q160 -4 231 -145l41 124h147l-132 -789l-8 -81q0 -62 32 -64l21 3l8 -139q-48 -32 -101 -32q-114 0 -129 148q-65 -82 -130 -117t-139 -33q-132 2 -205.5 109.5t-73.5 302.5zM248 345q11 -213 158 -216q103 -3 182 107l37 55 l-1 3l83 490q-26 88 -65.5 125.5t-94.5 40.5q-102 4 -171 -82t-101.5 -249t-26.5 -274zM572 1257l112 337h176l-172 -337h-116z" />
<glyph unicode="&#x3ad;" horiz-adv-x="945" d="M51 295q11 186 211 266q-118 78 -112 218q7 146 115.5 236t275.5 86q144 -4 233.5 -92.5t85.5 -229.5l-170 1q2 76 -40.5 122t-116.5 48q-83 2 -143.5 -46.5t-70.5 -125.5q-9 -73 27.5 -110.5t108.5 -40.5l184 -1l-26 -148l-165 2q-99 -2 -156.5 -50.5t-64.5 -133.5 q-8 -73 39.5 -121t125.5 -48q82 -2 146 51t81 141l172 1q-18 -158 -130.5 -251.5t-277.5 -89.5q-153 4 -247 90t-85 226zM512 1256l112 337h176l-172 -337h-116z" />
<glyph unicode="&#x3ae;" horiz-adv-x="1000" d="M28 0l188 1082l155 1l-21 -127q119 146 269 146q113 -1 175.5 -70.5t69.5 -193.5q4 -72 -3 -144l-187 -1109h-172l186 1106l6 89q0 169 -140 172q-63 0 -114.5 -35.5t-99.5 -115.5l-138 -801h-174zM534 1257l112 337h176l-172 -337h-116z" />
<glyph unicode="&#x3af;" horiz-adv-x="605" d="M140 276l134 806h172l-137 -809l-2 -40q-4 -84 61 -84q25 0 68 10l-13 -153q-56 -18 -114 -16q-91 2 -136 76.5t-33 209.5zM314 1236l112 337h176l-172 -337h-116z" />
<glyph unicode="&#x3b0;" horiz-adv-x="965" d="M101 323q-1 53 5 105l109 654h173l-109 -659q-7 -73 -7 -112q0 -91 29 -136t80 -47q145 -6 234 202t82 497q-4 130 -31 257l172 -2q30 -120 32 -256q0 -392 -134 -623t-360 -225q-132 4 -203 93.5t-72 251.5zM254 1349q2 44 28.5 75.5t71.5 33.5q42 2 70 -29t26 -77 q-2 -43 -28.5 -74.5t-71.5 -32.5q-44 -2 -71 29t-25 75zM530 1388l89 264h178l-138 -264h-129zM735 1347q2 44 28 76t72 34q42 2 70 -29t26 -78q-2 -43 -28.5 -74t-71.5 -33q-44 -2 -71 29t-25 75z" />
<glyph unicode="&#x3b1;" horiz-adv-x="993" d="M75 390q0 176 59 358t155.5 270t223.5 85q160 -4 231 -145l41 124h147l-132 -789l-8 -81q0 -62 32 -64l21 3l8 -139q-48 -32 -101 -32q-114 0 -129 148q-65 -82 -130 -117t-139 -33q-132 2 -205.5 109.5t-73.5 302.5zM248 345q11 -213 158 -216q103 -3 182 107l37 55 l-1 3l83 490q-26 88 -65.5 125.5t-94.5 40.5q-102 4 -171 -82t-101.5 -249t-26.5 -274z" />
<glyph unicode="&#x3b2;" horiz-adv-x="1037" d="M-27 -384l250 1457q15 108 76 203.5t153.5 149t196.5 51.5q147 -4 232.5 -112t72.5 -274q-17 -189 -206 -303q76 -47 112.5 -139t26.5 -217q-12 -131 -69.5 -237t-150.5 -162t-209 -54q-135 4 -227 85l-85 -448h-173zM253 232q65 -100 195 -102q122 -2 199.5 106 t73.5 275q-2 82 -35.5 135.5t-92.5 57.5l-128 2l21 151l65 -1q97 2 158 66.5t72 173.5q10 92 -28.5 160t-115.5 71q-90 2 -156 -69.5t-85 -183.5z" />
<glyph unicode="&#x3b3;" horiz-adv-x="893" d="M144 1082h169l84 -769l345 769h181l-484 -1028l-82 -470h-173l88 505z" />
<glyph unicode="&#x3b4;" horiz-adv-x="1000" d="M80 388q-3 53 5 141q21 180 115 305.5t232 156.5l2 13q-65 43 -94 112t-24 145q10 139 105.5 223t241.5 82q102 -2 221 -57l-17 -161q-108 63 -215 61q-65 -2 -109 -40.5t-54 -102.5q-15 -105 132.5 -181.5t213.5 -218.5q35 -76 45 -164q7 -74 -4 -191 q-20 -156 -87 -282.5t-164.5 -189.5t-217.5 -60q-148 4 -234 113t-93 296zM253 431q-7 -141 34.5 -220t130.5 -83q111 -5 185.5 98t98.5 285q8 80 5 132q-5 99 -47.5 170t-115.5 97q-114 -3 -188 -105.5t-95 -281.5l-3 -21z" />
<glyph unicode="&#x3b5;" horiz-adv-x="945" d="M51 295q11 186 211 266q-118 78 -112 218q7 146 115.5 236t275.5 86q144 -4 233.5 -92.5t85.5 -229.5l-170 1q2 76 -40.5 122t-116.5 48q-83 2 -143.5 -46.5t-70.5 -125.5q-9 -73 27.5 -110.5t108.5 -40.5l184 -1l-26 -148l-165 2q-99 -2 -156.5 -50.5t-64.5 -133.5 q-8 -73 39.5 -121t125.5 -48q82 -2 146 51t81 141l172 1q-18 -158 -130.5 -251.5t-277.5 -89.5q-153 4 -247 90t-85 226z" />
<glyph unicode="&#x3b6;" horiz-adv-x="930" d="M147 256q-17 158 68.5 344t273.5 398l271 306h-508l27 152h697l-22 -130l-431 -533q-166 -210 -196 -398l-9 -71q-12 -117 57 -151l179 -70q119 -53 111 -182q-5 -78 -57.5 -160t-127.5 -144l-85 88q33 40 63 87t38 101t-61 86l-28 12l-70 25q-171 65 -190 240z" />
<glyph unicode="&#x3b7;" horiz-adv-x="1000" d="M28 0l188 1082l155 1l-21 -127q119 146 269 146q113 -1 175.5 -70.5t69.5 -193.5q4 -72 -3 -144l-187 -1109h-172l186 1106l6 89q0 169 -140 172q-63 0 -114.5 -35.5t-99.5 -115.5l-138 -801h-174z" />
<glyph unicode="&#x3b8;" horiz-adv-x="996" d="M113 370q-7 131 14 277l25 171q50 340 170.5 502.5t306.5 155.5q271 -10 295 -381q6 -111 -13 -270l-36 -234q-56 -322 -174.5 -470t-294.5 -142q-134 5 -208.5 103.5t-84.5 287.5zM277 438q-6 -152 31 -228.5t110 -79.5q191 -11 268 356l30 163h-416q-20 -134 -23 -211z M318 800h411l11 57q16 109 19 170q11 288 -141 298q-99 6 -168.5 -89.5t-109.5 -310.5z" />
<glyph unicode="&#x3b9;" horiz-adv-x="605" d="M140 276l134 806h172l-137 -809l-2 -40q-4 -84 61 -84q25 0 68 10l-13 -153q-56 -18 -114 -16q-91 2 -136 76.5t-33 209.5z" />
<glyph unicode="&#x3ba;" horiz-adv-x="986" d="M38 0l188 1082h173l-85 -459h57l390 459h220l-467 -532l291 -550h-200l-232 460l-82 1l-80 -461h-173z" />
<glyph unicode="&#x3bb;" horiz-adv-x="975" d="M-62 0l497 1032l-50 267q-15 68 -77 65l-19 -2l13 144q38 10 77 10q152 -2 184 -174l173 -1134q10 -56 47 -61l16 -1l16 3l-11 -154q-37 -10 -61 -10q-115 -5 -159 134l-19 68l-89 568l-340 -755h-198z" />
<glyph unicode="&#x3bc;" horiz-adv-x="1000" d="M-34 -416l260 1498h172l-102 -624q-11 -87 -12 -126q-5 -200 115 -203q136 -5 218 134l142 819h174l-188 -1082h-154l17 102q-92 -124 -214 -124q-108 2 -169 70l-87 -464h-172z" />
<glyph unicode="&#x3bd;" horiz-adv-x="860" d="M123 1082h170l79 -811l325 811h182l-481 -1082h-129z" />
<glyph unicode="&#x3be;" horiz-adv-x="867" d="M69 440q14 154 100.5 254.5t227.5 152.5q-77 43 -119.5 115t-37.5 161q9 163 134 260t313 95q112 -2 212 -42l-41 -148q-100 38 -174 38q-112 0 -187 -55t-85 -142q-13 -101 43 -155.5t166 -55.5l124 -1l-27 -152l-108 1q-124 0 -211 -54t-127.5 -158t-28.5 -207 q17 -154 142 -204q124 -39 161 -56q122 -54 114 -179q-5 -73 -52 -152.5t-129 -148.5l-96 87l39 46q62 75 72 146q8 56 -60 82l-73 25q-164 54 -235.5 163t-56.5 284z" />
<glyph unicode="&#x3bf;" d="M82 489l12 100q33 233 159.5 375.5t319.5 137.5q120 -3 200 -69.5t114.5 -183.5t18.5 -258l-12 -102q-33 -232 -160 -373t-319 -136q-120 3 -200 69t-114.5 183t-18.5 257zM249 416q-3 -134 41.5 -208t134.5 -78q116 -5 192 82.5t102 262.5l15 117l5 72q3 135 -42.5 209 t-134.5 78q-118 5 -196.5 -97.5t-101.5 -284.5l-12 -99z" />
<glyph unicode="&#x3c0;" horiz-adv-x="1043" d="M79 0l161 929h-134l27 153h898l-27 -153h-117l-110 -656l-3 -40q-4 -84 62 -84q21 -1 69 10l-14 -153q-53 -18 -114 -16q-92 2 -137 76t-33 210l107 653h-302l-161 -929h-172z" />
<glyph unicode="&#x3c1;" horiz-adv-x="1000" d="M-44 -416l170 993q20 148 83.5 276.5t155.5 190.5t205 59q153 -4 234 -123.5t78 -333.5l-7 -123q-26 -193 -85.5 -313t-143.5 -177t-188 -54q-148 4 -234 109l-94 -504h-174zM250 263q49 -129 164 -133q113 -5 188 94.5t98 277.5l2 21q12 92 12 165q-3 140 -43.5 201 t-113.5 63q-92 2 -156.5 -89t-95.5 -262z" />
<glyph unicode="&#x3c2;" horiz-adv-x="948" d="M114 517l3 27q29 250 155 407t309 152q143 -3 222.5 -103t76.5 -265l-1 -27l-161 1q8 116 -30 178t-118 65q-109 2 -181 -101.5t-99 -291.5l-6 -41q-29 -267 192 -362l99 -43q120 -60 110 -186q-5 -74 -54 -153.5t-130 -147.5l-86 89q36 42 65 87t36 102q8 58 -57 85 l-56 20q-325 124 -289 508z" />
<glyph unicode="&#x3c3;" horiz-adv-x="1000" d="M82 407q-1 62 5 119q24 187 92.5 310.5t167 185t218.5 61.5l478 -1l-28 -153l-224 -2q110 -173 84 -411q-32 -249 -161 -395.5t-308 -141.5q-100 3 -173 56t-111 154t-40 218zM253 366q11 -230 164 -237q113 -5 188.5 102t100.5 300l2 22l6 72q7 146 -36 223.5t-132 81.5 q-96 4 -166 -74t-101.5 -223t-25.5 -267z" />
<glyph unicode="&#x3c4;" horiz-adv-x="926" d="M143 932l27 150h741l-26 -150h-292l-111 -664l-4 -36q-8 -93 47 -93q30 0 73 23l29 -133q-73 -50 -154 -48q-76 1 -117.5 54t-45.5 145q-2 52 3 99l107 653h-277z" />
<glyph unicode="&#x3c5;" horiz-adv-x="965" d="M101 323q-1 53 5 105l109 654h173l-109 -659q-7 -73 -7 -112q0 -91 29 -136t80 -47q145 -6 234 202t82 497q-4 130 -31 257l172 -2q30 -120 32 -256q0 -392 -134 -623t-360 -225q-132 4 -203 93.5t-72 251.5z" />
<glyph unicode="&#x3c6;" horiz-adv-x="1237" d="M80 364q-15 132 14 275.5t99.5 256t173.5 187.5l82 -136q-102 -101 -155 -242t-47 -275q3 -111 53 -187t139 -104l122 716q13 106 79 168.5t162 60.5q94 -1 169 -55t119 -152.5t51 -209.5q11 -169 -53.5 -323.5t-193 -247.5t-300.5 -112l-86 -462h-172l86 464 q-146 24 -235 123.5t-107 254.5zM610 136q160 36 257 165t102 317q2 81 -16.5 161.5t-59 119t-97.5 31.5q-45 -5 -58 -69z" />
<glyph unicode="&#x3c7;" horiz-adv-x="882" d="M-49 -415l456 801l-75 413q-26 132 -100 137l-60 -3l15 148q56 14 83 14q139 0 194 -189l20 -78l43 -229l274 483h182l-412 -732l94 -504q21 -104 74 -111l41 -1l41 3l-63 -158q-23 -11 -42 -13q-75 -4 -126 56.5t-84 212.5l-56 299l-308 -549h-191z" />
<glyph unicode="&#x3c8;" horiz-adv-x="1227" d="M81 463q0 67 9 133l82 486h174l-82 -489q-14 -93 -10 -176q10 -227 172 -278l169 943h172l-170 -946q186 45 286.5 217.5t91.5 475.5q-4 130 -31 255l171 -2q30 -125 32 -254q2 -272 -61.5 -447.5t-194 -277.5t-310.5 -119l-84 -456h-172l85 460q-162 30 -245.5 152 t-83.5 323z" />
<glyph unicode="&#x3c9;" horiz-adv-x="1423" d="M101 444l6 76q29 297 195 561h185l-64 -130q-77 -157 -113 -280t-42 -265q-11 -269 111 -278q177 -13 224 342l48 300h174l-47 -300q-10 -77 -10 -128q0 -211 119 -214q156 -7 215 317q37 205 29 382q-6 130 -41 257l173 -2q38 -126 41 -256q5 -221 -43.5 -429.5 t-143.5 -315t-232 -102.5q-93 2 -155.5 65t-75.5 169q-64 -131 -135.5 -184.5t-160.5 -50.5q-95 3 -156.5 62t-85 171t-15.5 233z" />
<glyph unicode="&#x3ca;" horiz-adv-x="605" d="M91 1349q1 46 30 76.5t77 32.5q46 1 76.5 -28.5t29.5 -76.5q0 -46 -30 -76t-77 -32q-47 -1 -76.5 28t-29.5 76zM140 276l134 806h172l-137 -809l-2 -40q-4 -84 61 -84q25 0 68 10l-13 -153q-56 -18 -114 -16q-91 2 -136 76.5t-33 209.5zM508 1347q1 46 30 77t76 33 q48 1 78 -28.5t29 -77.5q0 -47 -30 -76.5t-77 -31.5q-46 -1 -76.5 28t-29.5 76z" />
<glyph unicode="&#x3cb;" horiz-adv-x="965" d="M101 323q-1 53 5 105l109 654h173l-109 -659q-7 -73 -7 -112q0 -91 29 -136t80 -47q145 -6 234 202t82 497q-4 130 -31 257l172 -2q30 -120 32 -256q0 -392 -134 -623t-360 -225q-132 4 -203 93.5t-72 251.5zM280 1349q1 46 30 76.5t77 32.5q46 1 76.5 -28.5t29.5 -76.5 q0 -46 -30 -76t-77 -32q-47 -1 -76.5 28t-29.5 76zM697 1347q1 46 30 77t76 33q48 1 78 -28.5t29 -77.5q0 -47 -30 -76.5t-77 -31.5q-46 -1 -76.5 28t-29.5 76z" />
<glyph unicode="&#x3cc;" d="M82 489l12 100q33 233 159.5 375.5t319.5 137.5q120 -3 200 -69.5t114.5 -183.5t18.5 -258l-12 -102q-33 -232 -160 -373t-319 -136q-120 3 -200 69t-114.5 183t-18.5 257zM249 416q-3 -134 41.5 -208t134.5 -78q116 -5 192 82.5t102 262.5l15 117l5 72q3 135 -42.5 209 t-134.5 78q-118 5 -196.5 -97.5t-101.5 -284.5l-12 -99zM520 1257l112 337h176l-172 -337h-116z" />
<glyph unicode="&#x3cd;" horiz-adv-x="965" d="M101 323q-1 53 5 105l109 654h173l-109 -659q-7 -73 -7 -112q0 -91 29 -136t80 -47q145 -6 234 202t82 497q-4 130 -31 257l172 -2q30 -120 32 -256q0 -392 -134 -623t-360 -225q-132 4 -203 93.5t-72 251.5zM504 1236l112 337h176l-172 -337h-116z" />
<glyph unicode="&#x3ce;" horiz-adv-x="1423" d="M101 444l6 76q29 297 195 561h185l-64 -130q-77 -157 -113 -280t-42 -265q-11 -269 111 -278q177 -13 224 342l48 300h174l-47 -300q-10 -77 -10 -128q0 -211 119 -214q156 -7 215 317q37 205 29 382q-6 130 -41 257l173 -2q38 -126 41 -256q5 -221 -43.5 -429.5 t-143.5 -315t-232 -102.5q-93 2 -155.5 65t-75.5 169q-64 -131 -135.5 -184.5t-160.5 -50.5q-95 3 -156.5 62t-85 171t-15.5 233zM745 1233l112 337h176l-172 -337h-116z" />
<glyph unicode="&#x3d1;" horiz-adv-x="1018" d="M88 394l3 41l54 334l174 2l-55 -337q-5 -44 -3 -95q2 -91 41 -145t112 -58q185 -9 236 292l31 177q-160 46 -241 183.5t-68 325.5l2 16q14 155 102.5 254t220.5 95q124 -5 186.5 -105.5t46.5 -268.5l-59 -353l105 24l-9 -150q-50 -19 -119 -30l-26 -161 q-30 -215 -141.5 -338t-279.5 -118q-151 5 -236 117.5t-77 297.5zM543 1112q-8 -135 31 -219t125 -125l57 338l5 61q8 152 -80 154q-57 2 -92 -48.5t-45 -143.5z" />
<glyph unicode="&#x3d2;" horiz-adv-x="934" d="M131 1441q50 25 98 25q62 -2 102.5 -44t66.5 -142l96 -480l256 484q48 105 98 147t116 41q55 0 113 -29l-45 -152q-18 9 -36 9q-40 0 -67 -46l-383 -690l-97 -564h-179l102 588l-133 631l-6 28q-10 46 -45 48q-11 1 -41 -7z" />
<glyph unicode="&#x3d6;" horiz-adv-x="1358" d="M101 330v68q8 304 133 533l-96 -1l29 152h1206l-29 -153l-105 1q9 -427 -91 -692t-297 -259q-94 2 -155.5 66.5t-74.5 167.5q-60 -128 -131.5 -183t-161.5 -52q-107 3 -165 91.5t-62 260.5zM268 320q-2 -83 19 -135.5t62 -56.5q165 -12 216 296l46 298h175l-40 -252 q-9 -69 -9 -129q0 -210 121 -213q68 -2 114 84.5t68.5 259.5t23.5 275q0 90 -6 182l-639 1q-88 -172 -119 -316t-32 -294z" />
<glyph unicode="&#x400;" horiz-adv-x="996" d="M48 0l252 1456h752l-28 -158h-572l-82 -468h500l-27 -157h-499l-90 -516h582l-28 -157h-760zM443 1858h205l142 -294h-142z" />
<glyph unicode="&#x401;" horiz-adv-x="996" d="M48 0l252 1456h752l-28 -158h-572l-82 -468h500l-27 -157h-499l-90 -516h582l-28 -157h-760zM399 1691q1 46 30 76.5t77 32.5q46 1 76.5 -28.5t29.5 -76.5q0 -46 -30 -76t-77 -32q-47 -1 -76.5 28t-29.5 76zM816 1689q1 46 30 77t76 33q48 1 78 -28.5t29 -77.5 q0 -47 -30 -76.5t-77 -31.5q-46 -1 -76.5 28t-29.5 76z" />
<glyph unicode="&#x402;" horiz-adv-x="1303" d="M170 1298l28 158h924l-28 -158h-410l-85 -453q127 46 221 44q187 -2 284 -123.5t80 -324.5q-18 -211 -143.5 -330.5t-335.5 -125.5l10 153q225 7 278 242q19 87 10 167q-10 82 -58.5 127t-134.5 48q-90 3 -229 -39l-123 -683h-180l225 1298h-333z" />
<glyph unicode="&#x403;" horiz-adv-x="979" d="M56 0l253 1456h736l-28 -158h-555l-226 -1298h-180zM592 1564l234 294h231l-306 -294h-159z" />
<glyph unicode="&#x404;" horiz-adv-x="1182" d="M119 510q0 123 35.5 320.5t117.5 345.5q170 306 467 300q176 -5 273 -131t100 -358h-179l-6 104q-21 220 -198 228q-147 4 -246.5 -115.5t-156.5 -390.5h460l-28 -157l-446 5l-3 -10q-22 -101 -18 -205q5 -151 62 -229t153 -81q120 -5 200.5 68.5t127.5 256.5l177 2 q-43 -230 -181.5 -359.5t-333.5 -124.5q-121 3 -207 69.5t-128.5 189.5t-41.5 272z" />
<glyph unicode="&#x405;" horiz-adv-x="1039" d="M55 423l180 -1q-11 -129 48 -206t175 -79q109 -4 185.5 61t90.5 178q11 91 -30 152.5t-170 117.5t-197 115q-143 123 -129 310q14 176 143.5 292.5t312.5 112.5q176 -4 278 -128.5t89 -312.5h-180q10 138 -41 209.5t-156 73.5q-108 2 -181 -65.5t-85 -178.5 q-10 -82 38 -144.5t167.5 -113t187.5 -106.5q150 -123 133 -332q-15 -178 -143.5 -290t-322.5 -108q-183 4 -293 128t-100 315z" />
<glyph unicode="&#x406;" horiz-adv-x="507" d="M55 0l253 1456h179l-253 -1456h-179z" />
<glyph unicode="&#x407;" horiz-adv-x="507" d="M55 0l253 1456h179l-253 -1456h-179zM123 1691q1 46 30 76.5t77 32.5q46 1 76.5 -28.5t29.5 -76.5q0 -46 -30 -76t-77 -32q-47 -1 -76.5 28t-29.5 76zM540 1689q1 46 30 77t76 33q48 1 78 -28.5t29 -77.5q0 -47 -30 -76.5t-77 -31.5q-46 -1 -76.5 28t-29.5 76z" />
<glyph unicode="&#x408;" horiz-adv-x="970" d="M30 402h179q-9 -129 32.5 -196t126.5 -70q95 -3 161 69.5t91 218.5l175 1032h180l-175 -1031q-31 -212 -151 -331.5t-293 -114.5q-169 6 -254.5 119.5t-71.5 303.5z" />
<glyph unicode="&#x409;" horiz-adv-x="1845" d="M-41 0l18 156l31 1q115 7 188 119.5t110 377.5l18 120l139 682h751l-98 -565l269 -2q116 -4 197 -60t118.5 -154.5t26.5 -221.5q-18 -198 -142.5 -324t-310.5 -129h-492l225 1298h-399l-113 -551l-31 -168q-57 -307 -164 -441t-273 -138h-68zM989 157l272 -2 q91 1 161 54.5t104 150.5t24 192q-9 83 -52.5 129.5t-115.5 50.5l-293 1z" />
<glyph unicode="&#x40a;" horiz-adv-x="1852" d="M56 0l253 1456h180l-110 -631h551l110 631h179l-106 -610l271 -1q174 -6 266.5 -119t78.5 -290q-11 -128 -73.5 -229t-166 -155.5t-228.5 -51.5h-474l116 668h-551l-116 -668h-180zM996 166l272 -2q115 2 191.5 77t91.5 198q13 107 -31.5 175.5t-139.5 73.5l-294 1z" />
<glyph unicode="&#x40b;" horiz-adv-x="1412" d="M193 1298l28 158h922l-28 -158h-420l-80 -429q125 37 259 34q188 -4 274 -119t64 -329l-75 -455h-180l74 456q6 55 6 107q-3 178 -172 183q-110 3 -267 -35l-128 -711h-180l225 1298h-322z" />
<glyph unicode="&#x40c;" horiz-adv-x="1093" d="M48 0l252 1456h179l-121 -692l144 157l466 535h228l-579 -651l350 -805h-202l-277 669l-177 -180l-84 -489h-179zM571 1546l234 294h231l-306 -294h-159z" />
<glyph unicode="&#x40d;" horiz-adv-x="1240" d="M55 0l253 1456h180l-193 -1109l736 1109h185l-253 -1456h-179l193 1109l-737 -1109h-185zM535 1858h205l142 -294h-142z" />
<glyph unicode="&#x40e;" horiz-adv-x="1098" d="M141 -16l16 155l79 -7q85 2 133 100l72 156l-200 1068h192l131 -814l394 814h214l-643 -1271l-27 -47q-98 -163 -269 -163q-40 0 -92 9zM463 1819l147 -1q-7 -146 122 -150q71 -1 112 41.5t53 107.5l145 1q-12 -125 -97.5 -198.5t-213.5 -69.5q-123 2 -196.5 75 t-71.5 194z" />
<glyph unicode="&#x40f;" horiz-adv-x="1244" d="M56 0l252 1456h180l-225 -1299h550l226 1299h179l-252 -1456h-359l-62 -359h-181l62 359h-370z" />
<glyph unicode="&#x410;" horiz-adv-x="1155" d="M-66 0l707 1456h154l203 -1456h-177l-45 380h-476l-176 -380h-190zM374 538h383l-77 660z" />
<glyph unicode="&#x411;" horiz-adv-x="1102" d="M41 0l253 1456h736l-28 -158h-555l-76 -436l270 -2q175 -6 268 -118t78 -299q-16 -197 -145 -321.5t-324 -121.5h-477zM249 157l272 -2q92 1 160.5 52t103 144.5t23.5 188.5q-21 155 -171 163l-293 1z" />
<glyph unicode="&#x412;" horiz-adv-x="1093" d="M48 0l252 1456l391 -1q176 -5 262.5 -104t72.5 -275q-18 -204 -238 -314q80 -35 119.5 -125t29.5 -209q-16 -197 -139.5 -313t-315.5 -115h-434zM254 157l232 -2q136 2 212 105.5t64 257.5q-14 154 -158 162l-259 1zM371 835l219 -2q82 2 144.5 46.5t91.5 123t19 161.5 q-16 127 -158 133l-235 1z" />
<glyph unicode="&#x413;" horiz-adv-x="979" d="M56 0l253 1456h736l-28 -158h-555l-226 -1298h-180z" />
<glyph unicode="&#x414;" horiz-adv-x="1321" d="M-112 -358l89 515l96 -2q178 165 262 536l163 765h732l-225 -1299h166l-91 -514h-180l63 357h-833l-63 -358h-179zM267 154l558 3l198 1141h-377l-128 -588q-85 -365 -251 -556z" />
<glyph unicode="&#x415;" horiz-adv-x="996" d="M48 0l252 1456h752l-28 -158h-572l-82 -468h500l-27 -157h-499l-90 -516h582l-28 -157h-760z" />
<glyph unicode="&#x416;" horiz-adv-x="1581" d="M-67 0l532 783l-238 673h200l184 -632h134l110 632h180l-110 -632h118l403 632h220l-485 -692l253 -764h-211l-198 664h-127l-116 -664h-179l115 664h-125l-427 -664h-233z" />
<glyph unicode="&#x417;" horiz-adv-x="1038" d="M51 404h178q-7 -118 47 -191.5t151 -76.5q121 -4 207.5 74.5t100.5 199.5q13 121 -36.5 184.5t-156.5 67.5l-144 1l28 158l123 -2q120 2 193.5 69t87.5 185q13 109 -41.5 177t-156.5 70q-99 2 -172 -66.5t-93 -179.5l-176 -1q18 180 145.5 294t306.5 110 q182 -4 282.5 -114t84.5 -293q-9 -104 -73 -187.5t-175 -140.5q81 -44 120 -128t30 -200q-10 -129 -77 -230t-177.5 -154.5t-240.5 -49.5q-177 4 -276.5 121.5t-89.5 302.5z" />
<glyph unicode="&#x418;" horiz-adv-x="1240" d="M55 0l253 1456h180l-193 -1109l736 1109h185l-253 -1456h-179l193 1109l-737 -1109h-185z" />
<glyph unicode="&#x419;" horiz-adv-x="1240" d="M55 0l253 1456h180l-193 -1109l736 1109h185l-253 -1456h-179l193 1109l-737 -1109h-185zM533 1819l147 -1q-7 -146 122 -150q71 -1 112 41.5t53 107.5l145 1q-12 -125 -97.5 -198.5t-213.5 -69.5q-123 2 -196.5 75t-71.5 194z" />
<glyph unicode="&#x41a;" horiz-adv-x="1124" d="M56 0l253 1456h179l-112 -642h102l508 642h236l-579 -714l347 -742h-206l-296 654h-139l-114 -654h-179z" />
<glyph unicode="&#x41b;" horiz-adv-x="1233" d="M-39 0l18 156l30 1q106 6 177 102.5t109 311.5l31 203l138 682h746l-253 -1456h-180l225 1298h-393l-114 -556l-34 -184q-59 -297 -167 -429.5t-282 -128.5h-51z" />
<glyph unicode="&#x41c;" horiz-adv-x="1511" d="M48 0l252 1456h227l162 -1186l574 1186h234l-253 -1456h-179l100 576l111 541l-559 -1117h-137l-172 1140l-85 -582l-96 -558h-179z" />
<glyph unicode="&#x41d;" horiz-adv-x="1242" d="M48 0l252 1456h179l-109 -626h568l108 626h180l-253 -1456h-179l117 673h-567l-117 -673h-179z" />
<glyph unicode="&#x41e;" horiz-adv-x="1203" d="M116 455q-1 73 8 145l42 272q50 290 196.5 449.5t369.5 154.5q171 -4 271 -113t116 -310l3 -54q0 -74 -9 -146l-43 -277q-51 -291 -196 -446t-368 -150q-182 4 -284.5 130t-105.5 345zM293 504q-10 -171 47.5 -264.5t176.5 -97.5q293 -9 371 409l47 306l9 97 q10 175 -47 264.5t-176 93.5q-149 5 -245 -106.5t-133 -331.5l-43 -289z" />
<glyph unicode="&#x41f;" horiz-adv-x="1243" d="M56 0l253 1456h910l-252 -1456h-180l225 1298h-551l-226 -1298h-179z" />
<glyph unicode="&#x420;" horiz-adv-x="1111" d="M48 0l252 1456l439 -1q179 -6 276 -126.5t80 -309.5q-18 -208 -149 -329t-337 -121l-283 1l-99 -570h-179zM353 727l263 -2q99 0 172 51.5t107 147t22 193.5q-10 81 -57 128.5t-125 51.5l-283 1z" />
<glyph unicode="&#x421;" horiz-adv-x="1136" d="M113 454q-1 71 8 139l40 257q47 299 198 465t376 161q186 -3 283.5 -131.5t88.5 -357.5l-180 1q4 124 -15.5 189t-64.5 102.5t-123 39.5q-150 5 -248 -113.5t-134 -354.5l-40 -259q-15 -105 -10 -191q8 -131 62.5 -197t147.5 -69q131 -5 210.5 69t118.5 257l176 2 q-33 -228 -169.5 -358.5t-345.5 -124.5q-116 3 -201 61t-130.5 168t-47.5 245z" />
<glyph unicode="&#x422;" horiz-adv-x="1044" d="M178 1298l28 158h921l-28 -158h-371l-225 -1298h-179l225 1298h-371z" />
<glyph unicode="&#x423;" horiz-adv-x="1098" d="M141 -16l16 155l79 -7q85 2 133 100l72 156l-200 1068h192l131 -814l394 814h214l-643 -1271l-27 -47q-98 -163 -269 -163q-40 0 -92 9z" />
<glyph unicode="&#x424;" horiz-adv-x="1354" d="M117 582q-13 181 59.5 353.5t204.5 272t292 102.5h44l42 206h167l-36 -208h15q167 -4 272 -126t119 -316q13 -180 -58.5 -352t-205 -274t-297.5 -104h-38l-39 -196h-173l40 197h-19q-165 4 -269.5 124.5t-119.5 320.5zM283 623q-3 -154 56 -240.5t173 -93.5l29 -1 l159 873h-27q-114 -2 -202.5 -72.5t-136.5 -195.5t-51 -270zM716 286q103 0 168 34q123 64 187.5 216t56.5 337q-5 129 -64 204t-165 81l-25 1z" />
<glyph unicode="&#x425;" horiz-adv-x="1104" d="M-33 0l499 743l-254 713h199l180 -557l353 557h219l-487 -731l257 -725h-202l-182 567l-361 -567h-221z" />
<glyph unicode="&#x426;" horiz-adv-x="1280" d="M57 0l252 1456h180l-225 -1299h550l226 1299h178l-224 -1295h128l-106 -512h-161l61 351h-859z" />
<glyph unicode="&#x427;" horiz-adv-x="1203" d="M221 1001l75 455h180l-75 -456q-6 -55 -5 -106q3 -178 172 -183q133 -3 321 49l125 696h180l-253 -1456h-180l111 603q-151 -55 -315 -51q-185 2 -272 118.5t-64 330.5z" />
<glyph unicode="&#x428;" horiz-adv-x="1628" d="M57 0l252 1456h180l-225 -1299h381l226 1299h178l-226 -1299h379l226 1299h179l-252 -1456h-1298z" />
<glyph unicode="&#x429;" horiz-adv-x="1682" d="M56 0l253 1456h180l-225 -1299h381l226 1299h178l-226 -1299h379l226 1299h179l-226 -1305h123l-105 -502h-153l61 351h-1251z" />
<glyph unicode="&#x42a;" horiz-adv-x="1305" d="M162 1304l27 152h490l-103 -594l270 -1q172 -6 265.5 -118.5t78.5 -299.5q-16 -198 -145.5 -322.5t-323.5 -120.5h-475l226 1304h-310zM454 157l272 -2q127 2 206 97t81 241l-2 46q-8 73 -52 116.5t-117 47.5l-293 1z" />
<glyph unicode="&#x42b;" horiz-adv-x="1511" d="M58 0l253 1456h178l-103 -594l270 -2q175 -6 268 -118t78 -299q-16 -197 -145 -321.5t-324 -121.5h-475zM264 157l272 -2q92 1 160.5 52t103 144.5t23.5 188.5q-21 155 -171 163l-293 1zM1049 0l253 1456h179l-253 -1456h-179z" />
<glyph unicode="&#x42c;" horiz-adv-x="1105" d="M43 0l253 1456h178l-103 -594l270 -2q175 -6 268 -118t78 -299q-16 -197 -145 -321.5t-324 -121.5h-475zM249 157l272 -2q92 1 160.5 52t103 144.5t23.5 188.5q-21 155 -171 163l-293 1z" />
<glyph unicode="&#x42d;" horiz-adv-x="1182" d="M115 463h180q3 -179 57 -251.5t163 -75.5q253 -8 358 390l29 121h-464l28 158h453q18 114 13 211q-16 297 -227 304q-112 5 -190.5 -73.5t-122.5 -257.5l-179 -1q42 228 175.5 361t326.5 128q123 -3 212.5 -68t135 -188.5t45.5 -272.5q0 -122 -35 -323.5t-120 -353.5 q-166 -297 -448 -291q-184 5 -286 131.5t-104 351.5z" />
<glyph unicode="&#x42e;" horiz-adv-x="1531" d="M56 0l253 1456h179l-116 -668h157l9 60q46 299 194 466t376 162q171 -4 271 -113t116 -310l3 -54q0 -74 -9 -146l-43 -277q-51 -291 -196 -446t-368 -150q-182 4 -284.5 130t-105.5 345q-1 78 13 182h-160l-110 -637h-179zM669 504q-10 -171 47.5 -264.5t176.5 -97.5 q293 -9 371 409l47 306l9 97q10 175 -47 264.5t-176 93.5q-149 5 -245 -106.5t-133 -331.5l-43 -289z" />
<glyph unicode="&#x42f;" horiz-adv-x="1127" d="M-18 0l392 627q-89 55 -132 155t-32 227q18 205 150 326.5t338 121.5l398 -1l-253 -1456h-179l98 567h-238l-342 -567h-200zM389 908q10 -83 58.5 -131t127.5 -52l214 -1l100 574l-197 2q-98 0 -172 -51t-109 -144t-22 -197z" />
<glyph unicode="&#x430;" horiz-adv-x="962" d="M62 287q11 168 138.5 269t334.5 101h120l17 115q18 179 -135 179q-79 0 -131.5 -46.5t-66.5 -121.5l-171 -1q13 137 124.5 230t262.5 91q146 -2 224.5 -89.5t63.5 -244.5l-88 -533q-9 -57 -7 -109l6 -110l-2 -17h-174q-6 30 -5 59l4 59q-115 -139 -248 -139 q-130 0 -202.5 84.5t-64.5 223.5zM240 240q13 -101 125 -101q130 0 224 127l45 259l-79 1q-102 0 -181 -37.5t-111.5 -104t-22.5 -144.5z" />
<glyph unicode="&#x431;" horiz-adv-x="972" d="M82 388q-3 61 3 119l4 30l4 36q40 346 166 553.5t336 260.5l89 23q129 37 154 142l142 1q-10 -95 -45.5 -155.5t-99 -98t-193 -67t-217 -116t-150.5 -252.5q145 159 303 156q137 -4 216 -106t87 -273q2 -51 -5 -133q-17 -153 -83 -280t-164 -189.5t-215 -59.5 q-149 4 -237 114.5t-95 294.5zM254 377q11 -245 170 -248q108 -5 181.5 93t98.5 287l5 93q0 129 -46 197t-131 70q-115 3 -189 -100t-87 -285l-2 -51v-56z" />
<glyph unicode="&#x432;" horiz-adv-x="1010" d="M39 0l188 1082l340 -1q167 -5 253.5 -80t76.5 -207q-10 -157 -187 -241q69 -26 104.5 -89t30.5 -149q-9 -149 -112 -232.5t-273 -82.5h-421zM237 149l226 -1q93 2 146.5 47.5t64.5 124.5q10 74 -25.5 112.5t-107.5 41.5l-247 1zM319 623l170 -1q102 0 164 41.5t72 118.5 q10 68 -29.5 107t-130.5 42l-192 1z" />
<glyph unicode="&#x433;" horiz-adv-x="747" d="M37 0l188 1082h565l-27 -153h-391l-161 -929h-174z" />
<glyph unicode="&#x434;" horiz-adv-x="1075" d="M-104 -318l76 468l73 -1q87 92 143.5 202t89.5 264l93 467h588l-162 -931h122l-81 -469h-173l55 318h-595l-56 -318h-173zM237 148l388 3l132 760h-247l-58 -290l-19 -83q-59 -243 -196 -390z" />
<glyph unicode="&#x435;" horiz-adv-x="940" d="M89 463l13 107q31 252 153.5 394.5t311.5 137.5q154 -4 231.5 -105.5t73.5 -285.5l-9 -120l-15 -103l-580 1q-13 -90 -12 -141q2 -101 50 -158.5t137 -58.5q64 -2 126.5 25.5t131.5 96.5l81 -113q-64 -84 -158 -123t-197 -37q-182 2 -272 131t-66 352zM281 640l415 -1 l5 26q6 46 6 96q-4 182 -151 190q-177 8 -248 -214z" />
<glyph unicode="&#x436;" horiz-adv-x="1325" d="M-74 0l407 574l-182 508h197l126 -448h102l78 448h172l-79 -448h90l285 448h219l-375 -529l201 -553h-207l-137 470h-103l-82 -470h-172l82 470h-94l-301 -470h-227z" />
<glyph unicode="&#x437;" horiz-adv-x="897" d="M43 321l169 -1q-4 -83 37 -136q42 -53 116 -55q80 -2 138 50t68 133q19 155 -124 161l-170 1l28 156l147 -1q78 2 125 44t56 121q8 69 -26.5 114.5t-102.5 45.5q-73 0 -126 -49t-68 -124l-171 -1q14 144 119 234t255 88q146 -4 225 -88t68 -218q-13 -154 -177 -245 q66 -37 91.5 -101.5t20.5 -137.5q-10 -152 -118.5 -243.5t-266.5 -87.5q-149 4 -234 97.5t-79 242.5z" />
<glyph unicode="&#x438;" horiz-adv-x="1022" d="M39 0l188 1082h173l-136 -776l510 776h177l-188 -1082h-172l135 775l-509 -775h-178z" />
<glyph unicode="&#x439;" horiz-adv-x="1022" d="M39 0l188 1082h173l-136 -776l510 776h177l-188 -1082h-172l135 775l-509 -775h-178zM363 1477l147 -1q-7 -146 122 -150q71 -1 112 41.5t53 107.5l145 1q-12 -125 -97.5 -198.5t-213.5 -69.5q-123 2 -196.5 75t-71.5 194z" />
<glyph unicode="&#x43a;" horiz-adv-x="964" d="M40 0l188 1082h173l-80 -458h78l366 458h219l-449 -525l273 -557h-204l-209 461h-102l-80 -461h-173z" />
<glyph unicode="&#x43b;" horiz-adv-x="1023" d="M-44 0l19 162l32 2q89 6 144 92t83 295l8 53l97 478h614l-188 -1082h-173l161 929h-274l-79 -370l-28 -145q-46 -220 -135 -319t-224 -95h-57z" />
<glyph unicode="&#x43c;" horiz-adv-x="1293" d="M39 0l188 1082h218l133 -835l426 835h219l-188 -1082h-173l128 731l-387 -731h-119l-138 772l-135 -772h-172z" />
<glyph unicode="&#x43d;" horiz-adv-x="1021" d="M39 0l188 1082h174l-82 -469h377l82 469h172l-188 -1082h-172l80 462h-377l-80 -462h-174z" />
<glyph unicode="&#x43e;" d="M82 489l12 100q33 233 159.5 375.5t319.5 137.5q120 -3 200 -69.5t114.5 -183.5t18.5 -258l-12 -102q-33 -232 -160 -373t-319 -136q-120 3 -200 69t-114.5 183t-18.5 257zM249 416q-3 -134 41.5 -208t134.5 -78q116 -5 192 82.5t102 262.5l15 117l5 72q3 135 -42.5 209 t-134.5 78q-118 5 -196.5 -97.5t-101.5 -284.5l-12 -99z" />
<glyph unicode="&#x43f;" horiz-adv-x="1022" d="M39 0l188 1082h724l-188 -1082h-172l161 929h-378l-161 -929h-174z" />
<glyph unicode="&#x440;" horiz-adv-x="990" d="M-48 -416l260 1498l155 1l-20 -121q110 143 263 141q144 -2 215 -107.5t65 -292.5q-3 -87 -23 -227t-59 -235q-110 -269 -355 -262q-154 4 -232 125l-97 -520h-172zM241 254q48 -118 166 -124q117 -5 192 83t99 274t20 258q-15 198 -170 201q-118 3 -210 -127z" />
<glyph unicode="&#x441;" horiz-adv-x="928" d="M74 298q-10 90 1 181l14 109q33 253 154.5 386t316.5 128q150 -4 232.5 -110t75.5 -283l-163 1q6 235 -155 241q-235 9 -284 -335q-31 -213 -25 -290q10 -194 173 -197q85 -3 143 53t81 158l163 1q-23 -160 -135 -263t-262 -99q-143 3 -228 86t-102 233z" />
<glyph unicode="&#x442;" horiz-adv-x="854" d="M109 932l27 150h740l-26 -150h-286l-162 -932h-172l162 932h-283z" />
<glyph unicode="&#x443;" horiz-adv-x="837" d="M-88 -422l17 150l37 -6q131 -6 204 134l73 164l-122 1062h182l56 -785l328 785h189l-560 -1250q-57 -136 -135.5 -205.5t-170.5 -66.5q-31 1 -98 18z" />
<glyph unicode="&#x444;" horiz-adv-x="1259" d="M80 393l6 100l8 58q42 281 144 419t257 134q55 -2 116 -25l86 457h173l-88 -463q62 29 124 27q132 -2 195 -124t51 -346l-9 -107q-26 -194 -78 -307q-112 -245 -322 -239q-67 0 -133 29l-79 -422h-173l79 416q-64 -19 -110 -19q-124 0 -188.5 107.5t-58.5 304.5zM249 355 q-3 -109 31.5 -165t99.5 -58q24 -1 71 9l144 799q-37 11 -63 13q-109 4 -177.5 -106t-92.5 -332l-3 -21q-10 -89 -10 -139zM626 140q34 -11 73 -13q106 -2 175 93.5t94 285.5l12 114l3 63q6 259 -136 265q-30 1 -78 -13z" />
<glyph unicode="&#x445;" horiz-adv-x="882" d="M-49 0l385 556l-198 526h189l114 -393l241 393h209l-376 -544l204 -538h-189l-121 404l-249 -404h-209z" />
<glyph unicode="&#x446;" horiz-adv-x="1052" d="M39 0l188 1082h174l-162 -931h378l162 931h172l-162 -931h111l-99 -472h-154l56 321h-664z" />
<glyph unicode="&#x447;" horiz-adv-x="963" d="M145 767l50 316h173l-50 -317l-5 -81q-2 -76 29.5 -121.5t94.5 -48.5q79 -3 196 26l98 541h174l-188 -1082h-174l74 389q-97 -29 -190 -27q-152 3 -226.5 113t-55.5 292z" />
<glyph unicode="&#x448;" horiz-adv-x="1408" d="M39 0l188 1082h174l-162 -931h295l161 931h173l-162 -931h295l162 931h173l-188 -1082h-1109z" />
<glyph unicode="&#x449;" horiz-adv-x="1445" d="M28 0l188 1082h174l-161 -931h294l162 931h172l-162 -931h296l161 931h173l-161 -931h131l-99 -472h-155l57 321h-1070z" />
<glyph unicode="&#x44a;" horiz-adv-x="1079" d="M99 930l27 152h426l-65 -373l201 -2q139 -4 216 -97.5t66 -243.5q-12 -163 -115 -264.5t-266 -101.5h-397l162 930h-255zM390 151l204 -2q98 2 155 80.5t50 196.5q-3 56 -32.5 91.5t-81.5 39.5l-224 1z" />
<glyph unicode="&#x44b;" horiz-adv-x="1360" d="M39 0l188 1082h172l-65 -373l199 -2q95 -4 161.5 -47.5t98 -120t24.5 -173.5q-12 -165 -117.5 -266t-261.5 -100h-399zM237 151l203 -2q99 2 156 80.5t50 196.5q-3 56 -32.5 91.5t-81.5 39.5l-224 1zM903 0l188 1082h173l-188 -1082h-173z" />
<glyph unicode="&#x44c;" horiz-adv-x="960" d="M39 0l188 1082h172l-65 -373l199 -2q95 -4 161.5 -47.5t98 -120t24.5 -173.5q-12 -165 -117.5 -266t-261.5 -100h-399zM237 151l203 -2q99 2 156 80.5t50 196.5q-3 56 -32.5 91.5t-81.5 39.5l-224 1z" />
<glyph unicode="&#x44d;" horiz-adv-x="948" d="M62 372l164 -1q-8 -104 31.5 -171.5t114.5 -70.5q177 -8 264 295l14 51h-312l27 152h298l3 63l-2 45q-18 212 -155 216q-79 2 -137.5 -57.5t-78.5 -154.5l-163 -1q17 149 130 259t258 106q210 -6 284 -231q29 -89 32 -191q3 -194 -60 -362t-170 -256t-243 -84 q-146 5 -228 118.5t-71 274.5z" />
<glyph unicode="&#x44e;" horiz-adv-x="1413" d="M39 0l188 1082h172l-80 -459h188q61 231 183.5 358t289.5 122q151 -4 239 -119t94 -309q2 -63 -4 -121q-35 -271 -166.5 -425t-318.5 -149q-113 3 -191 69t-115 178.5t-24 244.5l-201 -1l-82 -471h-172zM664 449q-7 -149 36 -232.5t135 -87.5q116 -5 194.5 106.5 t102.5 295.5l2 22l6 74q7 150 -36.5 235t-134.5 89q-119 5 -198 -111.5t-103 -324.5z" />
<glyph unicode="&#x44f;" horiz-adv-x="968" d="M-66 0l314 456q-68 41 -100.5 116t-25.5 172q12 155 120.5 247t266.5 92l389 -1l-187 -1082h-174l74 421h-196l-285 -421h-196zM294 681q7 -48 36.5 -76t76.5 -31l230 -1l63 359l-194 1q-67 -2 -120 -38t-76.5 -96.5t-15.5 -117.5z" />
<glyph unicode="&#x450;" horiz-adv-x="940" d="M89 463l13 107q31 252 153.5 394.5t311.5 137.5q154 -4 231.5 -105.5t73.5 -285.5l-9 -120l-15 -103l-580 1q-13 -90 -12 -141q2 -101 50 -158.5t137 -58.5q64 -2 126.5 25.5t131.5 96.5l81 -113q-64 -84 -158 -123t-197 -37q-182 2 -272 131t-66 352zM281 640l415 -1 l5 26q6 46 6 96q-4 182 -151 190q-177 8 -248 -214zM331 1536h205l142 -294h-142z" />
<glyph unicode="&#x451;" horiz-adv-x="940" d="M89 463l13 107q31 252 153.5 394.5t311.5 137.5q154 -4 231.5 -105.5t73.5 -285.5l-9 -120l-15 -103l-580 1q-13 -90 -12 -141q2 -101 50 -158.5t137 -58.5q64 -2 126.5 25.5t131.5 96.5l81 -113q-64 -84 -158 -123t-197 -37q-182 2 -272 131t-66 352zM281 640l415 -1 l5 26q6 46 6 96q-4 182 -151 190q-177 8 -248 -214zM287 1369q1 46 30 76.5t77 32.5q46 1 76.5 -28.5t29.5 -76.5q0 -46 -30 -76t-77 -32q-47 -1 -76.5 28t-29.5 76zM704 1367q1 46 30 77t76 33q48 1 78 -28.5t29 -77.5q0 -47 -30 -76.5t-77 -31.5q-46 -1 -76.5 28t-29.5 76 z" />
<glyph unicode="&#x452;" horiz-adv-x="969" d="M23 0l210 1209h-128l27 152h127l31 175h173l-31 -175h227l-27 -152h-225l-51 -238q119 133 263 131q111 -2 171.5 -80t60.5 -223l-4 -90l-129 -798q-22 -169 -105.5 -261.5t-212.5 -89.5q-39 2 -100 21l29 146q46 -16 81 -16q106 0 135 200l131 801l4 79q0 153 -125 156 q-105 3 -196 -121l-27 -39l-136 -787h-173z" />
<glyph unicode="&#x453;" horiz-adv-x="747" d="M37 0l188 1082h565l-27 -153h-391l-161 -929h-174zM373 1222l234 294h231l-306 -294h-159z" />
<glyph unicode="&#x454;" horiz-adv-x="948" d="M87 396q-3 200 59 366.5t171.5 255t253.5 84.5q146 -4 229 -113.5t78 -279.5l-162 1q0 116 -40.5 177t-114.5 64q-99 4 -169.5 -72t-118.5 -263h309l-27 -152h-297l-5 -69q-3 -124 39.5 -194t129.5 -72q80 -2 140 55.5t85 155.5l163 1q-23 -153 -137 -259.5t-260 -102.5 q-99 1 -173.5 53t-112.5 148t-40 216z" />
<glyph unicode="&#x455;" horiz-adv-x="915" d="M49 324l174 -1q-2 -94 41 -142.5t122 -48.5q83 0 137.5 42t63.5 111q13 95 -106 158l-134 70q-104 58 -145.5 123t-36.5 151q8 137 112 227t254 88q145 -4 227 -95.5t76 -233.5h-171q2 81 -36 127.5t-106 48.5q-77 0 -127 -43.5t-60 -112.5q-12 -81 79 -133l169 -86 q187 -104 177 -276q-10 -147 -118 -234.5t-263 -83.5q-149 2 -242 97.5t-87 246.5z" />
<glyph unicode="&#x456;" horiz-adv-x="465" d="M37 0l188 1082h173l-188 -1082h-173zM265 1368q2 43 28 75t71 34q43 2 71 -29t26 -77q-2 -44 -28.5 -75.5t-71.5 -32.5q-44 -2 -71 29t-25 76z" />
<glyph unicode="&#x457;" horiz-adv-x="477" d="M37 0l188 1082h173l-188 -1082h-173zM52 1368q1 46 30 76.5t77 32.5q46 1 76.5 -28.5t29.5 -76.5q0 -46 -30 -76t-77 -32q-47 -1 -76.5 28t-29.5 76zM469 1366q1 46 30 77t76 33q48 1 78 -28.5t29 -77.5q0 -47 -30 -76.5t-77 -31.5q-46 -1 -76.5 28t-29.5 76z" />
<glyph unicode="&#x458;" horiz-adv-x="454" d="M-194 -420l15 148q47 -11 69 -11q89 0 115 130l210 1235h173l-205 -1210q-22 -162 -91.5 -238.5t-182.5 -73.5q-43 2 -103 20zM250 1367q2 43 27.5 75.5t71.5 34.5q42 2 70 -28t26 -79q-2 -43 -28 -74.5t-72 -32.5q-45 -2 -71 29.5t-24 74.5z" />
<glyph unicode="&#x459;" horiz-adv-x="1460" d="M-47 0l19 162l32 2q89 6 144 92t82 283l12 80l94 463h582l-72 -412l200 -2q136 -4 215.5 -90t71.5 -232q-12 -154 -113.5 -249t-253.5 -97h-409l161 929h-243l-78 -370l-20 -109q-46 -238 -132 -342.5t-221 -107.5h-71zM756 149l203 -1q79 2 134 56t68 144q4 33 0 63 q-6 47 -36.5 75t-80.5 31l-224 1z" />
<glyph unicode="&#x45a;" horiz-adv-x="1486" d="M39 0l188 1082h174l-71 -409h377l71 409h172l-72 -413l201 -1q141 -6 217.5 -93t68.5 -229q-10 -153 -112.5 -248.5t-254.5 -97.5h-408l91 522h-377l-91 -522h-174zM788 149l203 -1q99 2 157 82.5t45 180.5q-6 47 -36.5 75t-80.5 31l-224 1z" />
<glyph unicode="&#x45b;" horiz-adv-x="1001" d="M23 0l211 1214h-107l27 151h106l30 171h173l-33 -171h251l-27 -151h-252l-46 -244q121 135 263 131q104 -1 163.5 -68.5t67.5 -188.5q4 -69 -3 -135l-118 -709h-172l119 712l4 79q0 153 -126 156q-103 3 -192 -117l-30 -43l-136 -787h-173z" />
<glyph unicode="&#x45c;" horiz-adv-x="964" d="M40 0l188 1082h173l-80 -458h78l366 458h219l-449 -525l273 -557h-204l-209 461h-102l-80 -461h-173zM462 1221l234 294h231l-306 -294h-159z" />
<glyph unicode="&#x45d;" horiz-adv-x="1022" d="M39 0l188 1082h173l-136 -776l510 776h177l-188 -1082h-172l135 775l-509 -775h-178zM365 1516h205l142 -294h-142z" />
<glyph unicode="&#x45e;" horiz-adv-x="837" d="M-88 -422l17 150l37 -6q131 -6 204 134l73 164l-122 1062h182l56 -785l328 785h189l-560 -1250q-57 -136 -135.5 -205.5t-170.5 -66.5q-31 1 -98 18zM293 1497l147 -1q-7 -146 122 -150q71 -1 112 41.5t53 107.5l145 1q-12 -125 -97.5 -198.5t-213.5 -69.5 q-123 2 -196.5 75t-71.5 194z" />
<glyph unicode="&#x45f;" horiz-adv-x="1022" d="M39 0l188 1082h174l-162 -931h378l162 931h172l-188 -1082h-273l-62 -356h-172l62 356h-279z" />
<glyph unicode="&#x460;" horiz-adv-x="1510" d="M123 397l179 1059h180l-178 -1060l-4 -77q-2 -81 28 -131.5t87 -52.5q91 -5 151.5 67.5t76.5 193.5l180 1060h186l-179 -1060l-3 -82q2 -80 36 -128.5t96 -50.5q82 -3 138 65t74 196l179 1060h180l-182 -1058q-29 -202 -137 -313t-268 -106q-84 3 -149.5 44.5 t-94.5 121.5q-121 -170 -301 -166q-146 3 -220.5 120t-54.5 298z" />
<glyph unicode="&#x461;" horiz-adv-x="1302" d="M88 353l122 729h173l-122 -730l-4 -63q-4 -155 90 -160q74 -5 125 57t65 166l123 730h173l-122 -730l-2 -68q0 -71 27.5 -112.5t78.5 -42.5q66 -3 111.5 54.5t61.5 168.5l122 730h172l-122 -728q-24 -180 -120 -280.5t-241 -95.5q-72 2 -127 36.5t-82 101.5 q-108 -142 -258 -138q-128 2 -195 106t-49 269z" />
<glyph unicode="&#x462;" horiz-adv-x="1105" d="M43 0l192 1104h-178l27 151h177l35 201h178l-35 -201h172l-27 -151h-171l-42 -242l270 -2q175 -6 268 -118t78 -299q-16 -197 -145 -321.5t-324 -121.5h-475zM249 157l272 -2q92 1 160.5 52t103 144.5t23.5 188.5q-21 155 -171 163l-293 1z" />
<glyph unicode="&#x463;" horiz-adv-x="958" d="M37 0l188 1082h-154l27 151h153l57 325h173l-57 -325h261l-27 -151h-260l-59 -336l200 -2q140 -6 216 -103t65 -256q-13 -172 -121 -280.5t-265 -104.5h-397zM236 151l202 -2q97 2 155.5 84.5t54.5 214.5q-2 62 -30.5 101.5t-81.5 43.5l-223 1z" />
<glyph unicode="&#x464;" horiz-adv-x="1546" d="M55 0l253 1456h180l-108 -624h135q73 320 222.5 485t366.5 160q179 -5 276 -133t97 -356h-177q-3 180 -54 254t-151 78q-146 5 -245.5 -116t-153.5 -372h451l-27 -151l-439 1q-24 -135 -21 -234q3 -145 57.5 -226.5t154.5 -84.5q119 -5 199 67t131 258l178 1 q-46 -231 -183.5 -359.5t-334.5 -123.5q-121 3 -208 70.5t-130 191t-40 269.5q1 76 18 171l-149 -1l-118 -681h-180z" />
<glyph unicode="&#x465;" horiz-adv-x="1295" d="M35 0l188 1082h174l-81 -467h129q63 247 181 369.5t289 117.5q143 -3 227 -110.5t82 -282.5l-163 1q3 108 -38 173t-118 68q-179 8 -261 -247l-26 -89h353l-27 -151h-341q-5 -48 -4 -105q2 -104 45 -166t124 -64t141 57t84 154l162 1q-23 -153 -137 -259.5t-260 -102.5 q-156 3 -245.5 126t-82.5 317l3 43l-143 -1l-81 -464h-174z" />
<glyph unicode="&#x466;" horiz-adv-x="1056" d="M-55 0l678 1456h157l163 -1456h-176l-46 438h-113l-77 -438h-175l77 438h-100l-198 -438h-190zM407 602h298l-53 540z" />
<glyph unicode="&#x467;" horiz-adv-x="944" d="M-80 0l545 1082h147l172 -1082h-164l-44 297h-82l-51 -297h-172l52 297h-75l-145 -297h-183zM321 449h229l-45 315l-2 68l-28 -69z" />
<glyph unicode="&#x468;" horiz-adv-x="1519" d="M70 0l253 1456h181l-149 -855h301l398 855h156l164 -1456h-176l-45 438h-115l-76 -438h-175l76 438h-99l-199 -438h-189l205 440h-253l-77 -440h-181zM837 602h300l-53 542z" />
<glyph unicode="&#x469;" horiz-adv-x="1311" d="M64 0l188 1082h173l-110 -633h195l319 633h148l172 -1082h-169l-44 297h-76l-53 -297h-173l53 297h-75l-145 -297h-183l150 296h-145l-52 -296h-173zM686 449h228l-45 315l-1 67l-28 -67z" />
<glyph unicode="&#x46a;" horiz-adv-x="1494" d="M31 0l61 369q32 223 151 332.5t326 109.5h34l-200 645l993 -2l-432 -647h21q162 -1 248.5 -106t75.5 -296l-3 -36l-60 -369h-180l60 370q7 55 6 105q-3 167 -166 176l-98 3l-27 -38l-109 -616h-180l115 635l-3 17l-103 2q-122 2 -192.5 -61t-95.5 -206l-63 -387h-179z M643 1298l141 -472l305 472h-446z" />
<glyph unicode="&#x46b;" horiz-adv-x="1293" d="M34 0l28 184q32 207 135.5 309t283.5 111l-141 478h793l-324 -482q115 -10 182 -85.5t77 -199.5q6 -75 -3 -151l-25 -164h-173l25 165l8 98q7 181 -144 189l-39 1l-13 -19l-78 -434h-172l85 447l-2 8h-47q-108 0 -170.5 -64.5t-86.5 -220.5l-26 -170h-173zM564 930 l82 -304l190 304h-272z" />
<glyph unicode="&#x46c;" horiz-adv-x="1959" d="M54 0l253 1456h181l-112 -644h698l-208 644h1003l-440 -649l4 1q182 4 271.5 -113.5t66.5 -325.5l-60 -369h-180l60 370q6 55 5 105q-3 167 -167 176l-96 3l-28 -40l-109 -614h-179l114 633l-4 19l-102 2q-122 0 -192 -62.5t-95 -203.5l-63 -388h-180l64 381 q30 177 121 282l-330 -3l-115 -660h-181zM1108 1298l140 -472l305 472h-445z" />
<glyph unicode="&#x46d;" horiz-adv-x="1711" d="M37 0l188 1082h173l-83 -478h591l-148 478h793l-324 -482q117 -11 183.5 -85.5t76.5 -199.5q6 -75 -3 -151l-25 -164h-174l25 165l8 98q7 181 -144 189l-38 1l-14 -21l-78 -432h-172l85 447l-2 8h-57q-105 -2 -164.5 -68.5t-81.5 -215.5l-26 -171h-174l26 158 q31 189 116 297l-305 -3l-79 -452h-173zM982 930l82 -304l190 304h-272z" />
<glyph unicode="&#x46e;" horiz-adv-x="913" d="M-49 -131q5 123 90 193t227 70l32 -1q106 0 180 78t88 202q14 125 -37.5 190t-154.5 69l-131 1l27 152l111 -2q120 2 194.5 68.5t88.5 185.5q12 110 -39 171q-45 54 -126 57l-256 1l27 152l232 -1q161 -6 254 -113t79 -271q-9 -104 -74 -188t-180 -138q83 -42 124 -127.5 t32 -203.5q-15 -196 -137 -314.5t-309 -118.5h-37q-57 -2 -97 -31t-48 -89q-16 -109 98 -180l-79 -121q-86 49 -135.5 132t-43.5 177zM422 1914v14l143 -2l83 -169l148 168l150 3l1 -13l-252 -273h-102z" />
<glyph unicode="&#x46f;" horiz-adv-x="852" d="M-49 -130q5 122 90.5 192t232.5 70h25q92 0 152 48t71 128q21 154 -195 156l-114 1l27 152l110 -1q102 0 165 44.5t73 124.5q7 66 -33.5 103.5t-114.5 39.5l-260 1l27 153l236 -1q146 -4 235.5 -86.5t80.5 -212.5q-10 -150 -200 -242q69 -33 104 -92t30 -136 q-9 -152 -118.5 -242t-274.5 -90l-42 1q-57 -2 -97 -31t-48 -89q-16 -109 98 -180l-80 -121q-85 49 -134.5 130.5t-45.5 179.5zM308 1572v14l144 -2l83 -169l147 168l150 3v-13l-251 -273h-102z" />
<glyph unicode="&#x470;" horiz-adv-x="1202" d="M141 746q-10 92 1 184l89 526h178l-88 -527q-8 -56 -8 -117q0 -109 41 -183t120 -102l166 929h180l-167 -933q126 31 208.5 132.5t110.5 257.5l93 543h180l-94 -549q-42 -235 -176 -376t-340 -168l-68 -363h-180l69 365q-135 28 -217.5 128.5t-97.5 252.5z" />
<glyph unicode="&#x471;" horiz-adv-x="1227" d="M81 463q0 67 9 133l82 486h174l-82 -489q-14 -93 -10 -176q10 -227 172 -278l169 943h172l-170 -946q186 45 286.5 217.5t91.5 475.5q-4 130 -31 255l171 -2q30 -125 32 -254q2 -272 -61.5 -447.5t-194 -277.5t-310.5 -119l-84 -456h-172l85 460q-162 30 -245.5 152 t-83.5 323z" />
<glyph unicode="&#x472;" horiz-adv-x="1189" d="M106 533l4 87q20 266 103 462t212.5 297t292.5 97q126 -3 214.5 -71.5t131 -195.5t40.5 -286q-2 -136 -33.5 -302.5t-95.5 -298.5t-148 -212q-143 -136 -334 -130q-125 3 -213.5 71.5t-132 198.5t-41.5 283zM280 548q-10 -183 47 -291.5t176 -114.5q142 -6 241 112.5 t157 388.5h-613zM304 794h614q17 118 13 210q-16 298 -223 308q-141 6 -242 -115t-162 -403z" />
<glyph unicode="&#x473;" horiz-adv-x="998" d="M78 402q-2 62 5 120l2 22q20 160 89 294t169.5 201t222.5 64q151 -4 239 -119t94 -309q2 -63 -4 -121l-3 -21q-33 -249 -163 -404q-131 -155 -319 -150q-100 3 -174 55t-114 149t-44 219zM247 402q0 -130 46 -200t127 -72q185 -8 275 283l17 57h-462zM266 622h460 q10 153 -35 239.5t-135 89.5q-182 8 -276 -283z" />
<glyph unicode="&#x474;" horiz-adv-x="1109" d="M186 1456h188l87 -1087l6 -115l380 929l38 95q88 200 250 200l50 -2l-20 -171h-13q-69 -2 -110 -100l-536 -1205h-155z" />
<glyph unicode="&#x475;" horiz-adv-x="891" d="M144 1082l165 1l59 -767l1 -74l244 650q89 213 232 213q45 0 97 -25l-30 -150q-16 10 -30 10q-54 0 -94 -81l-391 -859h-131z" />
<glyph unicode="&#x476;" horiz-adv-x="1109" d="M186 1456h188l87 -1087l6 -115l380 929l38 95q88 200 250 200l50 -2l-20 -171h-13q-69 -2 -110 -100l-536 -1205h-155zM289 1768h220l152 -266h-168zM577 1768h200l100 -266h-146z" />
<glyph unicode="&#x477;" horiz-adv-x="891" d="M144 1082l165 1l59 -767l1 -74l244 650q89 213 232 213q45 0 97 -25l-30 -150q-16 10 -30 10q-54 0 -94 -81l-391 -859h-131zM154 1473h220l152 -266h-168zM442 1473h200l100 -266h-146z" />
<glyph unicode="&#x478;" horiz-adv-x="2040" d="M116 455q-1 73 8 145l42 272q50 290 196.5 449.5t369.5 154.5q171 -4 271 -113t116 -310l3 -54q0 -74 -9 -146l-43 -277q-51 -291 -196 -446t-368 -150q-182 4 -284.5 130t-105.5 345zM293 504q-10 -171 47.5 -264.5t176.5 -97.5q293 -9 371 409l47 306l9 97 q10 175 -47 264.5t-176 93.5q-149 5 -245 -106.5t-133 -331.5l-43 -289zM1115 -422l17 150l37 -6q131 -6 204 134l73 164l-122 1062h182l56 -785l328 785h189l-560 -1250q-57 -136 -135.5 -205.5t-170.5 -66.5q-31 1 -98 18z" />
<glyph unicode="&#x479;" horiz-adv-x="1844" d="M82 489l12 100q33 233 159.5 375.5t319.5 137.5q120 -3 200 -69.5t114.5 -183.5t18.5 -258l-12 -102q-33 -232 -160 -373t-319 -136q-120 3 -200 69t-114.5 183t-18.5 257zM249 416q-3 -134 41.5 -208t134.5 -78q116 -5 192 82.5t102 262.5l15 117l5 72q3 135 -42.5 209 t-134.5 78q-118 5 -196.5 -97.5t-101.5 -284.5l-12 -99zM919 -422l17 150l37 -6q131 -6 204 134l73 164l-122 1062h182l56 -785l328 785h189l-560 -1250q-57 -136 -135.5 -205.5t-170.5 -66.5q-31 1 -98 18z" />
<glyph unicode="&#x47a;" horiz-adv-x="1189" d="M111 548q3 98 23.5 233.5t63.5 251.5q140 379 457 436l25 120l173 -2l-26 -123q267 -83 283 -476v-84l-6 -85q-36 -372 -169 -579t-354 -250l-27 -131h-173l27 131q-150 39 -228 185.5t-69 372.5zM283 493q-5 -271 144 -337l21 99l173 -1l-21 -98q118 46 196 171.5 t111 345.5q29 190 32 286q5 263 -132 335l-19 -93l-173 2l20 98q-251 -87 -319 -499q-32 -196 -33 -309z" />
<glyph unicode="&#x47b;" horiz-adv-x="1000" d="M78 367q-4 81 5 155l2 22q29 222 134.5 365.5t270.5 181.5l24 115l172 -2l-24 -114q117 -38 178.5 -153t60.5 -279l-6 -104q-32 -245 -140 -387t-274 -178l-23 -109l-172 2l24 110q-105 35 -165 134.5t-67 240.5zM245 432q-15 -202 83 -278l20 95l172 -1l-21 -100 q101 53 158 172.5t73 329.5q15 204 -87 279l-19 -92l-172 1l20 92q-99 -56 -155 -174t-72 -324z" />
<glyph unicode="&#x47c;" horiz-adv-x="1505" d="M112 329q-2 52 4 102l91 571q29 217 136.5 334.5t276.5 120.5l-18 -158q-166 -6 -213 -290l-91 -579q-7 -78 -6 -113q0 -176 111 -183q89 -5 150.5 67.5t77.5 194.5l70 429h181l-69 -429q-5 -41 -2 -86q3 -79 40.5 -126t104.5 -50q80 -3 132 73.5t70 222.5l91 573l8 83 q7 89 -18.5 145.5t-85.5 63.5l15 160q127 -9 195.5 -103t70.5 -249l-5 -101l-95 -590q-35 -210 -137 -324.5t-257 -109.5q-91 2 -159 46t-97 117q-120 -167 -297 -163q-129 4 -200 96t-75 255zM665 1620l3 35q9 105 65 164t148 57q40 0 80.5 -13.5t110.5 -50t111.5 -50 t82.5 -14.5h41l-11 -129q-77 2 -111 13t-112.5 52.5t-114 53.5t-71.5 11q-42 0 -69.5 -31t-34.5 -80l-2 -19zM789 1382q67 85 80 146l18 96l145 -1l-14 -96q-18 -121 -159 -205z" />
<glyph unicode="&#x47d;" horiz-adv-x="1310" d="M81 299q-1 47 4 91l44 304q30 195 123.5 296t239.5 104l-17 -151q-140 -9 -176 -264l-41 -290q-6 -51 -6 -96q0 -162 87 -165q71 -5 121.5 54t67.5 170l36 236h173l-36 -236l-1 -72q4 -69 35 -110t86 -42q119 -4 158 221l48 332q12 111 8 151q-12 96 -80 106l11 154 q102 -6 163.5 -80t71.5 -195q5 -71 -2 -137l-46 -316q-33 -193 -123 -291t-224 -95q-167 5 -225 139q-109 -143 -258 -139q-113 4 -176 88t-66 233zM531 1268l3 36q9 101 64.5 161.5t150.5 58.5q71 0 189 -63t193 -65h42l-10 -129l-43 1q-70 3 -181.5 64.5t-177.5 63.5h-8 q-83 0 -104 -111l-2 -18zM657 1021q65 82 79 147l17 94l146 -1l-13 -101q-18 -118 -151 -202z" />
<glyph unicode="&#x47e;" horiz-adv-x="1510" d="M123 397l179 1059h180l-178 -1060l-4 -77l1 -33q11 -145 114 -152q89 -5 150.5 67.5t77.5 194.5l180 1060h186l-179 -1060l-3 -82q2 -80 36 -128.5t96 -50.5q82 -3 138 65t74 196l179 1060h180l-182 -1058q-29 -202 -137.5 -313.5t-267.5 -106.5q-85 3 -149.5 44.5 t-93.5 122.5q-122 -171 -302 -166q-146 3 -220.5 120t-54.5 298zM620 1688l19 107h680l-19 -107h-268l-22 -125h-157l23 125h-256z" />
<glyph unicode="&#x47f;" horiz-adv-x="1302" d="M88 353l122 729h173l-122 -730l-4 -63q-4 -155 90 -160q74 -5 125 57t65 166l123 730h173l-121 -730l-3 -68q0 -71 27.5 -112.5t78.5 -42.5q66 -3 111.5 54.5t61.5 168.5l122 730h172l-122 -728q-24 -180 -120 -280.5t-241 -95.5q-72 2 -127 36.5t-82 101.5 q-108 -142 -258 -138q-128 2 -195 106t-49 269zM457 1349l19 107h680l-16 -107h-270l-23 -128h-157l23 128h-256z" />
<glyph unicode="&#x480;" horiz-adv-x="1143" d="M106 482q0 69 9 127l36 232q30 193 111 342.5t194 223t247 70.5q191 -4 293.5 -136.5t86.5 -351.5h-180q16 153 -39 241t-171 91q-134 5 -230 -122t-132 -358l-34 -219q-16 -106 -11 -203q5 -127 54 -201.5t138 -79.5l116 -2l-90 -516h-178l69 368q-139 36 -215 169 t-74 325z" />
<glyph unicode="&#x481;" horiz-adv-x="948" d="M82 417q1 45 10 143q18 153 85.5 284.5t164.5 196.5t214 62q144 -5 225.5 -115.5t72.5 -279.5l-162 1q8 100 -31.5 169.5t-115.5 72.5q-128 5 -205.5 -139t-88.5 -381v-62q5 -227 145 -237l103 -2l-89 -512h-173l70 373q-112 38 -170 149.5t-55 276.5z" />
<glyph unicode="&#x482;" horiz-adv-x="1098" d="M50 0l258 406l-207 171l76 113l209 -171l232 375l-207 171l77 115l208 -171l208 333h155l-262 -416l210 -171l-78 -112l-205 170l-235 -375l207 -172l-76 -112l-208 169l-203 -323h-159z" />
<glyph unicode="&#x483;" horiz-adv-x="0" d="M-648 1191l42 233h447l19 108l153 -1l-38 -216h-447l-23 -125z" />
<glyph unicode="&#x484;" horiz-adv-x="0" d="M-601 1303l12 126q72 0 109.5 10.5t122.5 51t124.5 52.5t81.5 12q87 0 133 -58t39 -156l-3 -39l-115 1l2 20v36q0 65 -59 68q-39 2 -78.5 -10t-125.5 -52t-123.5 -51t-73.5 -11h-46z" />
<glyph unicode="&#x485;" horiz-adv-x="0" d="M-371 1510l21 113h160l-27 -151l27 -114l-72 -57z" />
<glyph unicode="&#x486;" horiz-adv-x="0" d="M-341 1377l69 117l22 129h162l-19 -123l-166 -198z" />
<glyph unicode="&#x488;" horiz-adv-x="0" d="M-1480 487q9 88 65 138.5t147 49.5q88 -1 140 -51.5t52 -138.5l-107 1q5 102 -77 102q-84 0 -111 -100zM-1409 -32q8 87 65.5 138.5t146.5 49.5q88 -1 140.5 -51.5t52.5 -138.5l-108 1q5 102 -77 102q-83 0 -110 -100zM-1225 990q10 89 67.5 139.5t147.5 49.5 q88 -2 140.5 -52.5t52.5 -138.5l-108 1q5 102 -76 102q-84 2 -111 -100zM-890 -316q10 89 66.5 139.5t147.5 49.5q88 -2 140 -52.5t52 -138.5l-107 1q5 102 -76 102q-82 2 -112 -100zM-621 1267q10 89 66.5 139.5t147.5 49.5q88 -1 140.5 -52t52.5 -139l-108 1 q5 102 -76 102q-83 2 -112 -100zM-280 -32q8 87 65.5 138.5t145.5 49.5q88 -1 140 -51.5t52 -138.5l-107 1q5 102 -76 102q-85 0 -111 -100zM-95 990q9 88 65.5 139t146.5 50q88 0 141 -52.5t53 -138.5l-108 1q5 102 -77 102q-82 2 -109 -100zM0 487q8 85 64.5 136.5 t147.5 51.5q88 -1 140 -51.5t52 -138.5l-107 1q5 102 -76 102q-83 0 -112 -100z" />
<glyph unicode="&#x489;" horiz-adv-x="0" d="M-1457 549l17 91l320 -68l-16 -140l-10 -10zM-1374 -72l308 191l88 -98l-3 -18l-331 -153zM-1071 1197l67 62l148 -304l-105 -95l-17 2zM-831 -413l127 352l133 3l13 -18l-172 -337h-101zM-556 1141l171 337h100l-126 -351l-132 -2zM-270 65l105 96l16 -2l94 -334 l-69 -63zM-147 1002l3 17l332 153l61 -77l-307 -191zM2 492l15 140l11 10l311 -127l-17 -92z" />
<glyph unicode="&#x48a;" horiz-adv-x="1334" d="M55 0l253 1456h180l-193 -1109l736 1109h185l-253 -1456h-179l193 1109l-737 -1109h-185zM569 1818l147 -1q-7 -146 122 -150q71 -1 112 41.5t53 107.5l145 1q-12 -125 -97.5 -198.5t-213.5 -69.5q-123 2 -196.5 75t-71.5 194zM826 -283q116 143 144 284l26 151h177 l-21 -135q-36 -228 -222 -375z" />
<glyph unicode="&#x48b;" horiz-adv-x="1104" d="M39 0l188 1082h173l-136 -776l510 776h177l-188 -1082h-172l135 775l-509 -775h-178zM398 1476l147 -1q-7 -146 122 -150q71 -1 112 41.5t53 107.5l145 1q-12 -125 -97.5 -198.5t-213.5 -69.5q-123 2 -196.5 75t-71.5 194zM626 -283q116 143 144 284l26 151h177l-21 -135 q-36 -228 -222 -375z" />
<glyph unicode="&#x48c;" horiz-adv-x="1105" d="M43 0l192 1104h-178l27 151h177l35 201h178l-35 -201h172l-27 -151h-171l-42 -242l270 -2q175 -6 268 -118t78 -299q-16 -197 -145 -321.5t-324 -121.5h-475zM249 157l272 -2q92 1 160.5 52t103 144.5t23.5 188.5q-21 155 -171 163l-293 1z" />
<glyph unicode="&#x48d;" horiz-adv-x="958" d="M37 0l226 1304h-153l26 152h153l34 193h173l-34 -193h262l-27 -152h-261l-97 -558l200 -2q140 -6 216 -103t65 -256q-13 -172 -121 -280.5t-265 -104.5h-397zM236 151l202 -2q97 2 155.5 84.5t54.5 214.5q-2 62 -30.5 101.5t-81.5 43.5l-223 1z" />
<glyph unicode="&#x48e;" horiz-adv-x="1118" d="M48 0l252 1456l439 -1q177 -6 276 -125t80 -311q-19 -182 -132 -305l85 -148l-109 -95l-88 152q-109 -53 -241 -53h-283l-100 -570h-179zM354 727h260q74 2 148 34l-70 125l111 93l62 -108q39 79 47 145q8 51 3 101q-8 81 -55 128.5t-125 51.5l-282 1z" />
<glyph unicode="&#x48f;" horiz-adv-x="996" d="M-48 -416l260 1498l155 1l-17 -104q112 127 260 123q137 -4 209 -117.5t67 -317.5l-8 -111l-2 -21q-33 -238 -154 -397l74 -132l-110 -94l-68 120q-86 -53 -169 -51q-146 2 -230 108l-95 -505h-172zM243 263q45 -127 161 -129q55 0 125 41l-67 118l111 95l51 -90 q52 96 72 207.5t16 206.5q-5 112 -47 172t-118 62q-115 3 -211 -138z" />
<glyph unicode="&#x490;" horiz-adv-x="964" d="M42 0l253 1456h565l59 336h166l-74 -488h-3v-6h-562l-225 -1298h-179z" />
<glyph unicode="&#x491;" horiz-adv-x="797" d="M28 0l188 1082h396l56 316h172l-82 -469h-394l-162 -929h-174z" />
<glyph unicode="&#x492;" horiz-adv-x="979" d="M24 684l27 151h150l108 621h736l-28 -158h-555l-81 -463h197l-27 -151h-196l-119 -684h-180l119 684h-151z" />
<glyph unicode="&#x493;" horiz-adv-x="747" d="M-6 479l27 151h125l79 452h565l-27 -153h-391l-52 -299h228l-27 -151h-227l-83 -479h-174l83 479h-126z" />
<glyph unicode="&#x494;" horiz-adv-x="1081" d="M56 0l253 1456h736l-28 -158h-555l-81 -465l123 -1q143 -1 242.5 -74t140.5 -200.5t23 -294.5q-30 -266 -154.5 -408.5t-324.5 -145.5l15 147q207 4 271 285q30 135 25 266q-5 121 -66 190t-174 73l-149 1l-117 -671h-180z" />
<glyph unicode="&#x495;" horiz-adv-x="891" d="M28 0l188 1082h565l-27 -153h-390l-50 -284l75 -1q115 -4 198.5 -66t121.5 -168.5t24 -232.5q-16 -165 -123 -295t-261 -169l-33 150q130 44 193.5 157.5t51.5 262.5q-9 92 -55.5 143.5t-124.5 55.5l-95 1l-84 -483h-174z" />
<glyph unicode="&#x496;" horiz-adv-x="1666" d="M-67 0l532 783l-238 673h200l184 -632h134l110 632h180l-110 -632h118l403 632h220l-485 -692l253 -764h-211l-198 664h-127l-116 -664h-179l115 664h-125l-427 -664h-233zM1276 -359l90 512h173l-90 -512h-173z" />
<glyph unicode="&#x497;" horiz-adv-x="1393" d="M-74 0l407 574l-182 508h197l126 -448h102l78 448h172l-79 -448h90l285 448h219l-375 -529l201 -553h-207l-137 470h-103l-82 -470h-172l82 470h-94l-301 -470h-227zM992 -359l90 512h173l-90 -512h-173z" />
<glyph unicode="&#x498;" horiz-adv-x="1038" d="M51 404h178q-7 -118 47 -191.5t151 -76.5q121 -4 207.5 74.5t100.5 199.5q13 121 -36.5 184.5t-156.5 67.5l-144 1l28 158l123 -2q120 2 193.5 69t87.5 185q13 109 -41.5 177t-156.5 70q-99 2 -172 -66.5t-93 -179.5l-176 -1q18 180 145.5 294t306.5 110 q182 -4 282.5 -114t84.5 -293q-9 -104 -73 -187.5t-175 -140.5q81 -44 120 -128t30 -200q-10 -129 -77 -230t-177.5 -154.5t-240.5 -49.5q-177 4 -276.5 121.5t-89.5 302.5zM246 -431l90 512h173l-90 -512h-173z" />
<glyph unicode="&#x499;" horiz-adv-x="897" d="M43 321l169 -1q-4 -83 37 -136q42 -53 116 -55q80 -2 138 50t68 133q19 155 -124 161l-170 1l28 156l147 -1q78 2 125 44t56 121q8 69 -26.5 114.5t-102.5 45.5q-73 0 -126 -49t-68 -124l-171 -1q14 144 119 234t255 88q146 -4 225 -88t68 -218q-13 -154 -177 -245 q66 -37 91.5 -101.5t20.5 -137.5q-10 -152 -118.5 -243.5t-266.5 -87.5q-149 4 -234 97.5t-79 242.5zM178 -430l90 512h173l-90 -512h-173z" />
<glyph unicode="&#x49a;" horiz-adv-x="1237" d="M56 0l253 1456h179l-112 -642h102l508 642h236l-579 -714l347 -742h-206l-296 654h-139l-114 -654h-179zM796 -361l90 512h173l-90 -512h-173z" />
<glyph unicode="&#x49b;" horiz-adv-x="1053" d="M40 0l188 1082h173l-80 -458h78l366 458h219l-449 -525l273 -557h-204l-209 461h-102l-80 -461h-173zM644 -359l90 512h173l-90 -512h-173z" />
<glyph unicode="&#x49c;" horiz-adv-x="1109" d="M43 0l253 1456h179l-115 -642h71l48 257h138l-51 -257h55l358 642h218l-448 -696l218 -760h-215l-144 654l-60 1l-47 -245h-137l47 245h-71l-117 -655h-180z" />
<glyph unicode="&#x49d;" horiz-adv-x="999" d="M38 0l188 1082h173l-84 -459h70l41 214h137l-42 -214h21l283 459h216l-374 -519l201 -563h-206l-130 461l-30 1l-38 -195h-137l38 195h-70l-84 -462h-173z" />
<glyph unicode="&#x49e;" horiz-adv-x="1144" d="M76 0l187 1079h-167l27 151h166l40 226h179l-40 -226h182l-27 -151h-181l-46 -265h102l508 642h236l-579 -714l347 -742h-206l-296 654h-139l-114 -654h-179z" />
<glyph unicode="&#x49f;" horiz-adv-x="930" d="M49 0l211 1217h-204l27 151h204l29 168h174l-29 -168h149l-27 -151h-149l-98 -563h96l304 428h214l-389 -503l235 -579h-192l-186 501h-107l-88 -501h-174z" />
<glyph unicode="&#x4a0;" horiz-adv-x="1421" d="M192 1304l27 152h563l-112 -642h101l509 642h235l-579 -714l347 -742h-206l-296 654h-138l-114 -654h-180l227 1304h-384z" />
<glyph unicode="&#x4a1;" horiz-adv-x="1217" d="M130 929l27 153h512l-80 -458h77l367 458h219l-449 -526l274 -556h-204l-210 461h-102l-80 -461h-174l161 929h-338z" />
<glyph unicode="&#x4a2;" horiz-adv-x="1326" d="M48 0l252 1456h179l-109 -626h568l108 626h180l-253 -1456h-179l117 673h-567l-117 -673h-179zM885 -359l90 512h173l-90 -512h-173z" />
<glyph unicode="&#x4a3;" horiz-adv-x="1085" d="M39 0l188 1082h174l-82 -469h377l82 469h172l-188 -1082h-172l80 462h-377l-80 -462h-174zM675 -359l90 512h173l-90 -512h-173z" />
<glyph unicode="&#x4a4;" horiz-adv-x="1658" d="M48 0l252 1456h180l-109 -626h567l108 626h672l-27 -152h-491l-227 -1304h-179l117 673h-566l-118 -673h-179z" />
<glyph unicode="&#x4a5;" horiz-adv-x="1231" d="M28 0l188 1082h174l-81 -469h377l81 469h458l-28 -153h-284l-162 -929h-172l81 462h-377l-81 -462h-174z" />
<glyph unicode="&#x4a6;" horiz-adv-x="1760" d="M57 0l253 1456h910l-108 -624h72q214 -5 322.5 -158t80.5 -411q-30 -266 -154.5 -408.5t-324.5 -145.5l15 147q207 4 271 285q30 135 25 266q-5 121 -66 190t-174 73h-95l-116 -670h-180l225 1298h-551l-226 -1298h-179z" />
<glyph unicode="&#x4a7;" horiz-adv-x="1511" d="M28 0l188 1082h724l-76 -437l125 -1q185 -6 285.5 -137.5t79.5 -329.5q-18 -165 -124 -295t-261 -169l-32 150q133 46 195 163t46 260q-10 88 -60 140t-134 56l-148 1l-84 -483h-172l162 929h-378l-162 -929h-174z" />
<glyph unicode="&#x4a8;" horiz-adv-x="1285" d="M116 526q-2 82 9 156l27 177q32 197 101.5 338t164.5 210t212 72l-19 -165q-104 -4 -175 -117.5t-106 -348.5l-28 -188l-7 -85q-6 -119 16.5 -220t77 -154.5t139.5 -56.5q44 -2 113 15q-156 233 -114 540l32 208q42 271 152 421.5t269 145.5q123 -4 192 -106t76 -287 l1 -51l-8 -108l-39 -249q-51 -317 -264 -516q72 -22 175 -24l-11 -163q-178 6 -313 74q-134 -66 -267 -64q-174 4 -278.5 132t-124.5 350zM697 575q-3 -206 117 -332q167 153 212 447l42 284l6 89q6 243 -110 249q-163 8 -220 -363l-39 -253q-8 -60 -8 -121z" />
<glyph unicode="&#x4a9;" horiz-adv-x="1061" d="M98 445q-2 120 22.5 247.5t74.5 219t122.5 140.5t161.5 52l-18 -158q-66 -6 -109 -73.5t-65.5 -222t-20.5 -244.5q3 -131 43 -198t114 -69q29 -1 82 12q-116 182 -86 421l13 96q29 212 111.5 326.5t205.5 109.5q99 -4 153.5 -89.5t58.5 -243.5v-30l-5 -86l-14 -105 q-35 -224 -173 -387q48 -15 139 -18l-14 -158q-144 4 -253 57q-118 -66 -223 -64q-141 2 -224 114t-95 307zM584 488q-7 -141 55 -235q106 127 131 312l13 94l9 92l1 69q-4 126 -61 129q-88 4 -119 -207l-25 -198z" />
<glyph unicode="&#x4aa;" horiz-adv-x="1136" d="M113 454q-1 71 8 139l40 257q47 299 198 465t376 161q186 -3 283.5 -131.5t88.5 -357.5l-180 1q4 124 -15.5 189t-64.5 102.5t-123 39.5q-150 5 -248 -113.5t-134 -354.5l-40 -259q-15 -105 -10 -191q8 -131 62.5 -197t147.5 -69q131 -5 210.5 69t118.5 257l176 2 q-33 -228 -169.5 -358.5t-345.5 -124.5q-116 3 -201 61t-130.5 168t-47.5 245zM309 -431l90 512h173l-90 -512h-173z" />
<glyph unicode="&#x4ab;" horiz-adv-x="928" d="M74 298q-10 90 1 181l14 109q33 253 154.5 386t316.5 128q150 -4 232.5 -110t75.5 -283l-163 1q6 235 -155 241q-235 9 -284 -335q-31 -213 -25 -290q10 -194 173 -197q85 -3 143 53t81 158l163 1q-23 -160 -135 -263t-262 -99q-143 3 -228 86t-102 233zM196 -431l90 512 h173l-90 -512h-173z" />
<glyph unicode="&#x4ac;" horiz-adv-x="1044" d="M178 1298l28 158h921l-28 -158h-371l-225 -1298h-179l225 1298h-371zM411 -359l90 512h173l-90 -512h-173z" />
<glyph unicode="&#x4ad;" horiz-adv-x="854" d="M109 932l27 150h740l-26 -150h-286l-162 -932h-172l162 932h-283zM315 -359l90 512h173l-90 -512h-173z" />
<glyph unicode="&#x4ae;" horiz-adv-x="1052" d="M182 1456h194l161 -729l416 729h211l-567 -924l-92 -532h-179l97 554z" />
<glyph unicode="&#x4af;" horiz-adv-x="893" d="M144 1082h169l84 -769l345 769h181l-484 -1028l-82 -470h-173l88 505z" />
<glyph unicode="&#x4b0;" horiz-adv-x="1052" d="M182 1456h194l161 -729l416 729h211l-481 -784h118l-27 -151h-179l-90 -521h-179l91 521h-170l27 151h117z" />
<glyph unicode="&#x4b1;" horiz-adv-x="893" d="M84 -11l27 151h154l-121 942h169l84 -769l345 769h181l-444 -942h159l-27 -151h-184l-70 -405h-173l70 405h-170z" />
<glyph unicode="&#x4b2;" horiz-adv-x="1122" d="M-33 0l499 743l-254 713h199l180 -557l353 557h219l-487 -731l257 -725h-202l-182 567l-361 -567h-221zM732 -359l90 512h173l-90 -512h-173z" />
<glyph unicode="&#x4b3;" horiz-adv-x="934" d="M-49 0l385 556l-198 526h189l114 -393l241 393h209l-376 -544l204 -538h-189l-121 404l-249 -404h-209zM533 -359l90 512h173l-90 -512h-173z" />
<glyph unicode="&#x4b4;" horiz-adv-x="1563" d="M188 1304l27 151h290l1 1h179v-1h309l-27 -151h-300l-199 -1147h551l225 1299h181l-225 -1295h127l-106 -512h-160l61 351h-861l226 1304h-299z" />
<glyph unicode="&#x4b5;" horiz-adv-x="1177" d="M102 931l27 151h578l-26 -151h-191l-135 -780h378l161 931h173l-161 -931h110l-100 -472h-153l56 321h-663l162 931h-216z" />
<glyph unicode="&#x4b6;" horiz-adv-x="1279" d="M221 1001l75 455h180l-75 -456q-6 -55 -5 -106q3 -178 172 -183q133 -3 321 49l125 696h180l-253 -1456h-180l111 603q-151 -55 -315 -51q-185 2 -272 118.5t-64 330.5zM838 -359l90 512h173l-90 -512h-173z" />
<glyph unicode="&#x4b7;" horiz-adv-x="1029" d="M145 767l50 316h173l-50 -317l-5 -81q-2 -76 29.5 -121.5t94.5 -48.5q79 -3 196 26l98 541h174l-188 -1082h-174l74 389q-97 -29 -190 -27q-152 3 -226.5 113t-55.5 292zM619 -359l90 512h173l-90 -512h-173z" />
<glyph unicode="&#x4b8;" horiz-adv-x="1192" d="M221 1001l75 455h180l-75 -457q-7 -57 -6 -108q0 -172 171 -183l59 310h137l-56 -301q83 14 183 43l125 696h180l-253 -1456h-180l111 603q-85 -31 -186 -44l-46 -241h-137l46 234q-182 5 -267 122.5t-61 326.5z" />
<glyph unicode="&#x4b9;" horiz-adv-x="970" d="M151 635q-6 66 1 132l51 316h173l-52 -317l-7 -68q-12 -142 74 -179l52 276h138l-52 -278q69 12 113 24l97 541h173l-188 -1082h-173l73 389q-53 -15 -114 -23l-27 -137h-138l28 136q-97 18 -154.5 89t-67.5 181z" />
<glyph unicode="&#x4ba;" horiz-adv-x="1192" d="M18 0l252 1456h179l-111 -604q146 53 316 51q184 -4 271 -119.5t64 -329.5l-75 -454h-179l75 455q6 55 6 107q-3 178 -171 183q-137 3 -324 -51l-125 -694h-178z" />
<glyph unicode="&#x4bb;" horiz-adv-x="969" d="M23 0l267 1536h173l-107 -566q121 135 263 131q104 -1 163.5 -68.5t67.5 -188.5q4 -69 -3 -135l-118 -709h-172l119 712l4 79q0 153 -126 156q-103 3 -192 -117l-30 -43l-136 -787h-173z" />
<glyph unicode="&#x4bc;" horiz-adv-x="1351" d="M169 1082l140 -2l-4 -68q-4 -121 81 -167l3 11q75 313 212.5 469t329.5 151q120 -3 202 -67t119.5 -185t32.5 -273q-3 -75 -12 -142l-18 -113h-708l-15 -94l-8 -100q-6 -170 58 -266t192 -98q130 -3 281 81l29 -144q-96 -96 -316 -96q-124 1 -218 59t-147 168t-57 248 q-3 75 8 149l19 103q-110 27 -163.5 124t-40.5 252zM565 834l533 2l6 34q16 108 13 185q-10 254 -198 261q-229 8 -329 -382l-20 -82z" />
<glyph unicode="&#x4bd;" horiz-adv-x="1039" d="M34 856h134q-9 -69 -5 -99q4 -56 37 -90q67 210 181.5 324t264.5 112q232 -7 287 -262q15 -71 14 -152q-1 -61 -8 -118l-13 -83h-580l-5 -72q-3 -130 44.5 -206.5t137.5 -78.5q118 -3 214 105l32 39l98 -88q-59 -98 -151.5 -153.5t-208.5 -53.5q-97 1 -173 51.5 t-118.5 145t-44.5 207.5q-2 61 8 119l3 20q-79 31 -118 111t-30 222zM364 640l411 -2l4 18l6 61q3 106 -35.5 168t-114.5 66q-158 8 -246 -235z" />
<glyph unicode="&#x4be;" horiz-adv-x="1351" d="M169 1082l140 -2l-4 -68q-4 -121 81 -167l3 11q75 313 212.5 469t329.5 151q120 -3 202 -67t119.5 -185t32.5 -273q-3 -75 -12 -142l-18 -113h-708l-15 -94l-8 -100q-6 -170 58 -266t192 -98q130 -3 281 81l29 -144q-96 -96 -316 -96q-124 1 -218 59t-147 168t-57 248 q-3 75 8 149l19 103q-110 27 -163.5 124t-40.5 252zM557 -427l90 512h173l-90 -512h-173zM565 834l533 2l6 34q16 108 13 185q-10 254 -198 261q-229 8 -329 -382l-20 -82z" />
<glyph unicode="&#x4bf;" horiz-adv-x="1039" d="M34 856h134q-9 -69 -5 -99q4 -56 37 -90q67 210 181.5 324t264.5 112q232 -7 287 -262q15 -71 14 -152q-1 -61 -8 -118l-13 -83h-580l-5 -72q-3 -130 44.5 -206.5t137.5 -78.5q118 -3 214 105l32 39l98 -88q-59 -98 -151.5 -153.5t-208.5 -53.5q-97 1 -173 51.5 t-118.5 145t-44.5 207.5q-2 61 8 119l3 20q-79 31 -118 111t-30 222zM335 -423l90 512h173l-90 -512h-173zM364 640l411 -2l4 18l6 61q3 106 -35.5 168t-114.5 66q-158 8 -246 -235z" />
<glyph unicode="&#x4c0;" horiz-adv-x="507" d="M55 0l253 1456h179l-253 -1456h-179z" />
<glyph unicode="&#x4c1;" horiz-adv-x="1581" d="M-67 0l532 783l-238 673h200l184 -632h134l110 632h180l-110 -632h118l403 632h220l-485 -692l253 -764h-211l-198 664h-127l-116 -664h-179l115 664h-125l-427 -664h-233zM705 1819l147 -1q-7 -146 122 -150q71 -1 112 41.5t53 107.5l145 1q-12 -125 -97.5 -198.5 t-213.5 -69.5q-123 2 -196.5 75t-71.5 194z" />
<glyph unicode="&#x4c2;" horiz-adv-x="1325" d="M-74 0l407 574l-182 508h197l126 -448h102l78 448h172l-79 -448h90l285 448h219l-375 -529l201 -553h-207l-137 470h-103l-82 -470h-172l82 470h-94l-301 -470h-227zM512 1477l147 -1q-7 -146 122 -150q71 -1 112 41.5t53 107.5l145 1q-12 -125 -97.5 -198.5 t-213.5 -69.5q-123 2 -196.5 75t-71.5 194z" />
<glyph unicode="&#x4c3;" horiz-adv-x="1109" d="M43 0l253 1456h179l-109 -625h88l517 625h222l-548 -637q155 -24 238 -138.5t88 -298.5q3 -183 -52.5 -343.5t-167.5 -248.5t-267 -92l11 155q143 4 217 137t79 360q3 147 -56 226.5t-179 83.5l-218 1l-115 -661h-180z" />
<glyph unicode="&#x4c4;" horiz-adv-x="967" d="M38 0l188 1082h173l-85 -459h57l391 459h220l-429 -474q136 -33 203.5 -148.5t51.5 -277.5q-16 -161 -123 -284.5t-257 -160.5l-33 151q105 34 166 110.5t73 186.5q14 129 -38.5 200t-160.5 75l-144 1l-80 -461h-173z" />
<glyph unicode="&#x4c5;" horiz-adv-x="1326" d="M-39 0l18 156l30 1q106 6 177 102.5t109 311.5l31 203l138 682h746l-253 -1456h-180l225 1298h-393l-114 -556l-34 -184q-59 -297 -167 -429.5t-282 -128.5h-51zM818 -283q116 143 144 284l26 151h177l-21 -135q-36 -228 -222 -375z" />
<glyph unicode="&#x4c6;" horiz-adv-x="1106" d="M-44 0l19 162l32 2q89 6 144 92t83 295l8 53l97 478h614l-188 -1082h-173l161 929h-274l-79 -370l-28 -145q-46 -220 -135 -319t-224 -95h-57zM628 -283q116 143 144 284l26 151h177l-21 -135q-36 -228 -222 -375z" />
<glyph unicode="&#x4c7;" horiz-adv-x="1242" d="M56 0l253 1456h180l-114 -658h548l115 658h180l-264 -1540q-22 -171 -107 -264.5t-217 -90.5q-42 2 -102 20l29 153q51 -18 82 -18q106 0 135 200l122 725h-548l-112 -641h-180z" />
<glyph unicode="&#x4c8;" horiz-adv-x="1000" d="M28 0l188 1082h174l-81 -469h377l81 469h172l-198 -1171q-23 -172 -106.5 -262.5t-213.5 -87.5q-40 2 -100 20l29 146q49 -17 82 -17q107 0 136 201l92 551h-377l-81 -462h-174z" />
<glyph unicode="&#x4c9;" horiz-adv-x="1345" d="M48 0l252 1456h179l-109 -626h568l108 626h180l-253 -1456h-179l117 673h-567l-117 -673h-179zM836 -283q116 143 144 284l26 151h177l-21 -135q-36 -228 -222 -375z" />
<glyph unicode="&#x4ca;" horiz-adv-x="1103" d="M39 0l188 1082h174l-82 -469h377l82 469h172l-188 -1082h-172l80 462h-377l-80 -462h-174zM625 -283q116 143 144 284l26 151h177l-21 -135q-36 -228 -222 -375z" />
<glyph unicode="&#x4cb;" horiz-adv-x="1203" d="M221 1001l75 455h180l-75 -456q-6 -55 -5 -106q3 -178 172 -183q133 -3 321 49l125 696h180l-253 -1456h-180l111 603q-151 -55 -315 -51q-185 2 -272 118.5t-64 330.5zM537 -359l90 512h173l-90 -512h-173z" />
<glyph unicode="&#x4cc;" horiz-adv-x="963" d="M145 767l50 316h173l-50 -317l-5 -81q-2 -76 29.5 -121.5t94.5 -48.5q79 -3 196 26l98 541h174l-188 -1082h-174l74 389q-97 -29 -190 -27q-152 3 -226.5 113t-55.5 292zM316 -359l90 512h173l-90 -512h-173z" />
<glyph unicode="&#x4cd;" horiz-adv-x="1603" d="M48 0l252 1456h227l162 -1186l574 1186h234l-253 -1456h-179l100 576l111 541l-559 -1117h-137l-172 1140l-85 -582l-96 -558h-179zM1095 -283q116 143 144 284l26 151h177l-21 -135q-36 -228 -222 -375z" />
<glyph unicode="&#x4ce;" horiz-adv-x="1376" d="M39 0l188 1082h218l133 -835l426 835h219l-188 -1082h-173l128 731l-387 -731h-119l-138 772l-135 -772h-172zM899 -283q116 143 144 284l26 151h177l-21 -135q-36 -228 -222 -375z" />
<glyph unicode="&#x4cf;" horiz-adv-x="507" d="M55 0l253 1456h179l-253 -1456h-179z" />
<glyph unicode="&#x4d0;" horiz-adv-x="1155" d="M-66 0l707 1456h154l203 -1456h-177l-45 380h-476l-176 -380h-190zM374 538h383l-77 660zM491 1807l147 -1q-7 -146 122 -150q71 -1 112 41.5t53 107.5l145 1q-12 -125 -97.5 -198.5t-213.5 -69.5q-123 2 -196.5 75t-71.5 194z" />
<glyph unicode="&#x4d1;" horiz-adv-x="962" d="M62 287q11 168 138.5 269t334.5 101h120l17 115q18 179 -135 179q-79 0 -131.5 -46.5t-66.5 -121.5l-171 -1q13 137 124.5 230t262.5 91q146 -2 224.5 -89.5t63.5 -244.5l-88 -533q-9 -57 -7 -109l6 -110l-2 -17h-174q-6 30 -5 59l4 59q-115 -139 -248 -139 q-130 0 -202.5 84.5t-64.5 223.5zM240 240q13 -101 125 -101q130 0 224 127l45 259l-79 1q-102 0 -181 -37.5t-111.5 -104t-22.5 -144.5zM355 1497l147 -1q-7 -146 122 -150q71 -1 112 41.5t53 107.5l145 1q-12 -125 -97.5 -198.5t-213.5 -69.5q-123 2 -196.5 75t-71.5 194z " />
<glyph unicode="&#x4d2;" horiz-adv-x="1155" d="M-66 0l707 1456h154l203 -1456h-177l-45 380h-476l-176 -380h-190zM374 538h383l-77 660zM449 1679q1 46 30 76.5t77 32.5q46 1 76.5 -28.5t29.5 -76.5q0 -46 -30 -76t-77 -32q-47 -1 -76.5 28t-29.5 76zM866 1677q1 46 30 77t76 33q48 1 78 -28.5t29 -77.5 q0 -47 -30 -76.5t-77 -31.5q-46 -1 -76.5 28t-29.5 76z" />
<glyph unicode="&#x4d3;" horiz-adv-x="962" d="M62 287q11 168 138.5 269t334.5 101h120l17 115q18 179 -135 179q-79 0 -131.5 -46.5t-66.5 -121.5l-171 -1q13 137 124.5 230t262.5 91q146 -2 224.5 -89.5t63.5 -244.5l-88 -533q-9 -57 -7 -109l6 -110l-2 -17h-174q-6 30 -5 59l4 59q-115 -139 -248 -139 q-130 0 -202.5 84.5t-64.5 223.5zM240 240q13 -101 125 -101q130 0 224 127l45 259l-79 1q-102 0 -181 -37.5t-111.5 -104t-22.5 -144.5zM313 1369q1 46 30 76.5t77 32.5q46 1 76.5 -28.5t29.5 -76.5q0 -46 -30 -76t-77 -32q-47 -1 -76.5 28t-29.5 76zM730 1367q1 46 30 77 t76 33q48 1 78 -28.5t29 -77.5q0 -47 -30 -76.5t-77 -31.5q-46 -1 -76.5 28t-29.5 76z" />
<glyph unicode="&#x4d4;" horiz-adv-x="1623" d="M-112 0l970 1456h809l-27 -152h-563l-65 -471h481l-27 -151h-475l-74 -531h574l-27 -151h-741l49 353h-438l-225 -353h-221zM444 527h352l100 711z" />
<glyph unicode="&#x4d5;" horiz-adv-x="1456" d="M34 296q11 160 122 250t292 90l181 -1l12 86q4 34 3 74q-4 72 -35.5 113.5t-88.5 42.5q-80 2 -137 -53.5t-70 -138.5l-171 19q15 146 124.5 236.5t266.5 88.5q88 -2 155.5 -41t99.5 -112q137 156 294 153q94 -3 162 -48.5t103 -133t37 -194.5q1 -57 -6 -112l-18 -118 h-579q-7 -54 -5 -117q2 -112 51 -179t139 -70q128 -3 269 105l48 -136q-51 -58 -137.5 -89t-186.5 -31q-100 2 -178.5 47t-120.5 125q-149 -176 -375 -172q-124 2 -192 88.5t-59 227.5zM209 292q-9 -75 23 -118t95 -45q102 -3 235 118l45 248l-159 1q-96 -2 -162.5 -59 t-76.5 -145zM797 640h411q12 77 11 125l-3 36q-20 146 -147 151q-86 3 -154 -70.5t-118 -241.5z" />
<glyph unicode="&#x4d6;" horiz-adv-x="996" d="M48 0l252 1456h752l-28 -158h-572l-82 -468h500l-27 -157h-499l-90 -516h582l-28 -157h-760zM441 1819l147 -1q-7 -146 122 -150q71 -1 112 41.5t53 107.5l145 1q-12 -125 -97.5 -198.5t-213.5 -69.5q-123 2 -196.5 75t-71.5 194z" />
<glyph unicode="&#x4d7;" horiz-adv-x="940" d="M89 463l13 107q31 252 153.5 394.5t311.5 137.5q154 -4 231.5 -105.5t73.5 -285.5l-9 -120l-15 -103l-580 1q-13 -90 -12 -141q2 -101 50 -158.5t137 -58.5q64 -2 126.5 25.5t131.5 96.5l81 -113q-64 -84 -158 -123t-197 -37q-182 2 -272 131t-66 352zM281 640l415 -1 l5 26q6 46 6 96q-4 182 -151 190q-177 8 -248 -214zM329 1497l147 -1q-7 -146 122 -150q71 -1 112 41.5t53 107.5l145 1q-12 -125 -97.5 -198.5t-213.5 -69.5q-123 2 -196.5 75t-71.5 194z" />
<glyph unicode="&#x4d8;" horiz-adv-x="1196" d="M84 490q0 82 12 160l18 117l802 -3l3 12q11 52 16 112q8 118 -20.5 218t-94.5 153.5t-160 54.5q-138 3 -298 -82l-30 144q99 99 334 99q136 -1 235 -65.5t153 -190.5t57 -283q1 -124 -27 -286q-34 -193 -124 -353.5t-210.5 -240t-262.5 -76.5q-129 3 -220.5 64t-137 178 t-45.5 268zM256 484q-10 -165 53 -254t187 -93q134 -4 235 110t169 372l-628 -1q-14 -81 -16 -134z" />
<glyph unicode="&#x4d9;" horiz-adv-x="935" d="M77 295q-8 85 3 167l18 122h565l6 71q7 140 -36.5 216t-130.5 80q-136 4 -261 -106l-55 126q60 70 146 102t177 30q149 -2 236 -113t93 -305q6 -190 -56.5 -357.5t-168.5 -259.5t-237 -88q-130 4 -207.5 86.5t-91.5 228.5zM241 317l3 -36q21 -146 145 -151q77 -2 139 66 t116 237l-394 1l-5 -28q-6 -42 -4 -89z" />
<glyph unicode="&#x4da;" horiz-adv-x="1196" d="M84 490q0 82 12 160l18 117l802 -3l3 12q11 52 16 112q8 118 -20.5 218t-94.5 153.5t-160 54.5q-138 3 -298 -82l-30 144q99 99 334 99q136 -1 235 -65.5t153 -190.5t57 -283q1 -124 -27 -286q-34 -193 -124 -353.5t-210.5 -240t-262.5 -76.5q-129 3 -220.5 64t-137 178 t-45.5 268zM256 484q-10 -165 53 -254t187 -93q134 -4 235 110t169 372l-628 -1q-14 -81 -16 -134zM394 1645q1 46 30 76.5t77 32.5q46 1 76.5 -28.5t29.5 -76.5q0 -46 -30 -76t-77 -32q-47 -1 -76.5 28t-29.5 76zM811 1643q1 46 30 77t76 33q48 1 78 -28.5t29 -77.5 q0 -47 -30 -76.5t-77 -31.5q-46 -1 -76.5 28t-29.5 76z" />
<glyph unicode="&#x4db;" horiz-adv-x="935" d="M77 295q-8 85 3 167l18 122h565l6 71q7 140 -36.5 216t-130.5 80q-136 4 -261 -106l-55 126q60 70 146 102t177 30q149 -2 236 -113t93 -305q6 -190 -56.5 -357.5t-168.5 -259.5t-237 -88q-130 4 -207.5 86.5t-91.5 228.5zM241 317l3 -36q21 -146 145 -151q77 -2 139 66 t116 237l-394 1l-5 -28q-6 -42 -4 -89zM292 1370q1 46 30 76.5t77 32.5q46 1 76.5 -28.5t29.5 -76.5q0 -46 -30 -76t-77 -32q-47 -1 -76.5 28t-29.5 76zM709 1368q1 46 30 77t76 33q48 1 78 -28.5t29 -77.5q0 -47 -30 -76.5t-77 -31.5q-46 -1 -76.5 28t-29.5 76z" />
<glyph unicode="&#x4dc;" horiz-adv-x="1581" d="M-67 0l532 783l-238 673h200l184 -632h134l110 632h180l-110 -632h118l403 632h220l-485 -692l253 -764h-211l-198 664h-127l-116 -664h-179l115 664h-125l-427 -664h-233zM663 1691q1 46 30 76.5t77 32.5q46 1 76.5 -28.5t29.5 -76.5q0 -46 -30 -76t-77 -32 q-47 -1 -76.5 28t-29.5 76zM1080 1689q1 46 30 77t76 33q48 1 78 -28.5t29 -77.5q0 -47 -30 -76.5t-77 -31.5q-46 -1 -76.5 28t-29.5 76z" />
<glyph unicode="&#x4dd;" horiz-adv-x="1325" d="M-74 0l407 574l-182 508h197l126 -448h102l78 448h172l-79 -448h90l285 448h219l-375 -529l201 -553h-207l-137 470h-103l-82 -470h-172l82 470h-94l-301 -470h-227zM470 1349q1 46 30 76.5t77 32.5q46 1 76.5 -28.5t29.5 -76.5q0 -46 -30 -76t-77 -32q-47 -1 -76.5 28 t-29.5 76zM887 1347q1 46 30 77t76 33q48 1 78 -28.5t29 -77.5q0 -47 -30 -76.5t-77 -31.5q-46 -1 -76.5 28t-29.5 76z" />
<glyph unicode="&#x4de;" horiz-adv-x="1038" d="M51 404h178q-7 -118 47 -191.5t151 -76.5q121 -4 207.5 74.5t100.5 199.5q13 121 -36.5 184.5t-156.5 67.5l-144 1l28 158l123 -2q120 2 193.5 69t87.5 185q13 109 -41.5 177t-156.5 70q-99 2 -172 -66.5t-93 -179.5l-176 -1q18 180 145.5 294t306.5 110 q182 -4 282.5 -114t84.5 -293q-9 -104 -73 -187.5t-175 -140.5q81 -44 120 -128t30 -200q-10 -129 -77 -230t-177.5 -154.5t-240.5 -49.5q-177 4 -276.5 121.5t-89.5 302.5zM389 1712q1 46 30 76.5t77 32.5q46 1 76.5 -28.5t29.5 -76.5q0 -46 -30 -76t-77 -32 q-47 -1 -76.5 28t-29.5 76zM806 1710q1 46 30 77t76 33q48 1 78 -28.5t29 -77.5q0 -47 -30 -76.5t-77 -31.5q-46 -1 -76.5 28t-29.5 76z" />
<glyph unicode="&#x4df;" horiz-adv-x="897" d="M43 321l169 -1q-4 -83 37 -136q42 -53 116 -55q80 -2 138 50t68 133q19 155 -124 161l-170 1l28 156l147 -1q78 2 125 44t56 121q8 69 -26.5 114.5t-102.5 45.5q-73 0 -126 -49t-68 -124l-171 -1q14 144 119 234t255 88q146 -4 225 -88t68 -218q-13 -154 -177 -245 q66 -37 91.5 -101.5t20.5 -137.5q-10 -152 -118.5 -243.5t-266.5 -87.5q-149 4 -234 97.5t-79 242.5zM261 1369q1 46 30 76.5t77 32.5q46 1 76.5 -28.5t29.5 -76.5q0 -46 -30 -76t-77 -32q-47 -1 -76.5 28t-29.5 76zM678 1367q1 46 30 77t76 33q48 1 78 -28.5t29 -77.5 q0 -47 -30 -76.5t-77 -31.5q-46 -1 -76.5 28t-29.5 76z" />
<glyph unicode="&#x4e0;" horiz-adv-x="1024" d="M73 404h179q-8 -117 36.5 -190.5t129.5 -76.5q133 -4 214 107t64 275q-20 173 -195 181l-133 1l28 161l369 436h-498l28 158h715l-22 -134l-417 -477q154 -16 236 -133t66 -298q-17 -196 -148.5 -319.5t-320.5 -117.5q-165 5 -254.5 125.5t-76.5 301.5z" />
<glyph unicode="&#x4e1;" horiz-adv-x="1024" d="M8 29h173q-8 -121 38.5 -195t131.5 -77q130 -4 212 101.5t72 266.5l-1 20q-10 85 -60 130.5t-136 48.5l-138 1l28 161l356 443h-481l27 153h709l-21 -128l-411 -488q154 -18 233 -133t63 -293q-17 -194 -147.5 -318t-317.5 -118q-164 6 -252.5 124t-77.5 301z" />
<glyph unicode="&#x4e2;" horiz-adv-x="1240" d="M55 0l253 1456h180l-193 -1109l736 1109h185l-253 -1456h-179l193 1109l-737 -1109h-185zM517 1632l23 143h564l-22 -143h-565z" />
<glyph unicode="&#x4e3;" horiz-adv-x="1022" d="M39 0l188 1082h173l-136 -776l510 776h177l-188 -1082h-172l135 775l-509 -775h-178zM347 1290l23 143h564l-22 -143h-565z" />
<glyph unicode="&#x4e4;" horiz-adv-x="1240" d="M55 0l253 1456h180l-193 -1109l736 1109h185l-253 -1456h-179l193 1109l-737 -1109h-185zM491 1691q1 46 30 76.5t77 32.5q46 1 76.5 -28.5t29.5 -76.5q0 -46 -30 -76t-77 -32q-47 -1 -76.5 28t-29.5 76zM908 1689q1 46 30 77t76 33q48 1 78 -28.5t29 -77.5 q0 -47 -30 -76.5t-77 -31.5q-46 -1 -76.5 28t-29.5 76z" />
<glyph unicode="&#x4e5;" horiz-adv-x="1022" d="M39 0l188 1082h173l-136 -776l510 776h177l-188 -1082h-172l135 775l-509 -775h-178zM321 1349q1 46 30 76.5t77 32.5q46 1 76.5 -28.5t29.5 -76.5q0 -46 -30 -76t-77 -32q-47 -1 -76.5 28t-29.5 76zM738 1347q1 46 30 77t76 33q48 1 78 -28.5t29 -77.5q0 -47 -30 -76.5 t-77 -31.5q-46 -1 -76.5 28t-29.5 76z" />
<glyph unicode="&#x4e6;" horiz-adv-x="1203" d="M116 455q-1 73 8 145l42 272q50 290 196.5 449.5t369.5 154.5q171 -4 271 -113t116 -310l3 -54q0 -74 -9 -146l-43 -277q-51 -291 -196 -446t-368 -150q-182 4 -284.5 130t-105.5 345zM293 504q-10 -171 47.5 -264.5t176.5 -97.5q293 -9 371 409l47 306l9 97 q10 175 -47 264.5t-176 93.5q-149 5 -245 -106.5t-133 -331.5l-43 -289zM473 1681q1 46 30 76.5t77 32.5q46 1 76.5 -28.5t29.5 -76.5q0 -46 -30 -76t-77 -32q-47 -1 -76.5 28t-29.5 76zM890 1679q1 46 30 77t76 33q48 1 78 -28.5t29 -77.5q0 -47 -30 -76.5t-77 -31.5 q-46 -1 -76.5 28t-29.5 76z" />
<glyph unicode="&#x4e7;" d="M82 489l12 100q33 233 159.5 375.5t319.5 137.5q120 -3 200 -69.5t114.5 -183.5t18.5 -258l-12 -102q-33 -232 -160 -373t-319 -136q-120 3 -200 69t-114.5 183t-18.5 257zM249 416q-3 -134 41.5 -208t134.5 -78q116 -5 192 82.5t102 262.5l15 117l5 72q3 135 -42.5 209 t-134.5 78q-118 5 -196.5 -97.5t-101.5 -284.5l-12 -99zM296 1369q1 46 30 76.5t77 32.5q46 1 76.5 -28.5t29.5 -76.5q0 -46 -30 -76t-77 -32q-47 -1 -76.5 28t-29.5 76zM713 1367q1 46 30 77t76 33q48 1 78 -28.5t29 -77.5q0 -47 -30 -76.5t-77 -31.5q-46 -1 -76.5 28 t-29.5 76z" />
<glyph unicode="&#x4e8;" horiz-adv-x="1189" d="M106 533l4 87q20 266 103 462t212.5 297t292.5 97q126 -3 214.5 -71.5t131 -195.5t40.5 -286q-2 -136 -33.5 -302.5t-95.5 -298.5t-148 -212q-143 -136 -334 -130q-125 3 -213.5 71.5t-132 198.5t-41.5 283zM280 548q-10 -183 47 -291.5t176 -114.5q142 -6 241 112.5 t157 388.5h-613zM304 794h614q17 118 13 210q-16 298 -223 308q-141 6 -242 -115t-162 -403z" />
<glyph unicode="&#x4e9;" horiz-adv-x="998" d="M78 402q-2 62 5 120l2 22q20 160 89 294t169.5 201t222.5 64q151 -4 239 -119t94 -309q2 -63 -4 -121l-3 -21q-33 -249 -163 -404q-131 -155 -319 -150q-100 3 -174 55t-114 149t-44 219zM247 402q0 -130 46 -200t127 -72q185 -8 275 283l17 57h-462zM266 622h460 q10 153 -35 239.5t-135 89.5q-182 8 -276 -283z" />
<glyph unicode="&#x4ea;" horiz-adv-x="1189" d="M106 533l4 87q20 266 103 462t212.5 297t292.5 97q126 -3 214.5 -71.5t131 -195.5t40.5 -286q-2 -136 -33.5 -302.5t-95.5 -298.5t-148 -212q-143 -136 -334 -130q-125 3 -213.5 71.5t-132 198.5t-41.5 283zM280 548q-10 -183 47 -291.5t176 -114.5q142 -6 241 112.5 t157 388.5h-613zM304 794h614q17 118 13 210q-16 298 -223 308q-141 6 -242 -115t-162 -403zM479 1686q1 46 30 76.5t77 32.5q46 1 76.5 -28.5t29.5 -76.5q0 -46 -30 -76t-77 -32q-47 -1 -76.5 28t-29.5 76zM896 1684q1 46 30 77t76 33q48 1 78 -28.5t29 -77.5 q0 -47 -30 -76.5t-77 -31.5q-46 -1 -76.5 28t-29.5 76z" />
<glyph unicode="&#x4eb;" horiz-adv-x="998" d="M78 402q-2 62 5 120l2 22q20 160 89 294t169.5 201t222.5 64q151 -4 239 -119t94 -309q2 -63 -4 -121l-3 -21q-33 -249 -163 -404q-131 -155 -319 -150q-100 3 -174 55t-114 149t-44 219zM247 402q0 -130 46 -200t127 -72q185 -8 275 283l17 57h-462zM266 622h460 q10 153 -35 239.5t-135 89.5q-182 8 -276 -283zM295 1371q1 46 30 76.5t77 32.5q46 1 76.5 -28.5t29.5 -76.5q0 -46 -30 -76t-77 -32q-47 -1 -76.5 28t-29.5 76zM712 1369q1 46 30 77t76 33q48 1 78 -28.5t29 -77.5q0 -47 -30 -76.5t-77 -31.5q-46 -1 -76.5 28t-29.5 76z " />
<glyph unicode="&#x4ec;" horiz-adv-x="1182" d="M115 463h180q3 -179 57 -251.5t163 -75.5q253 -8 358 390l29 121h-464l28 158h453q18 114 13 211q-16 297 -227 304q-112 5 -190.5 -73.5t-122.5 -257.5l-179 -1q42 228 175.5 361t326.5 128q123 -3 212.5 -68t135 -188.5t45.5 -272.5q0 -122 -35 -323.5t-120 -353.5 q-166 -297 -448 -291q-184 5 -286 131.5t-104 351.5zM462 1713q1 46 30 76.5t77 32.5q46 1 76.5 -28.5t29.5 -76.5q0 -46 -30 -76t-77 -32q-47 -1 -76.5 28t-29.5 76zM879 1711q1 46 30 77t76 33q48 1 78 -28.5t29 -77.5q0 -47 -30 -76.5t-77 -31.5q-46 -1 -76.5 28 t-29.5 76z" />
<glyph unicode="&#x4ed;" horiz-adv-x="948" d="M62 372l164 -1q-8 -104 31.5 -171.5t114.5 -70.5q177 -8 264 295l14 51h-312l27 152h298l3 63l-2 45q-18 212 -155 216q-79 2 -137.5 -57.5t-78.5 -154.5l-163 -1q17 149 130 259t258 106q210 -6 284 -231q29 -89 32 -191q3 -194 -60 -362t-170 -256t-243 -84 q-146 5 -228 118.5t-71 274.5zM284 1369q1 46 30 76.5t77 32.5q46 1 76.5 -28.5t29.5 -76.5q0 -46 -30 -76t-77 -32q-47 -1 -76.5 28t-29.5 76zM701 1367q1 46 30 77t76 33q48 1 78 -28.5t29 -77.5q0 -47 -30 -76.5t-77 -31.5q-46 -1 -76.5 28t-29.5 76z" />
<glyph unicode="&#x4ee;" horiz-adv-x="1098" d="M141 -16l16 155l79 -7q85 2 133 100l72 156l-200 1068h192l131 -814l394 814h214l-643 -1271l-27 -47q-98 -163 -269 -163q-40 0 -92 9zM447 1632l23 143h564l-22 -143h-565z" />
<glyph unicode="&#x4ef;" horiz-adv-x="837" d="M-88 -422l17 150l37 -6q131 -6 204 134l73 164l-122 1062h182l56 -785l328 785h189l-560 -1250q-57 -136 -135.5 -205.5t-170.5 -66.5q-31 1 -98 18zM277 1310l23 143h564l-22 -143h-565z" />
<glyph unicode="&#x4f0;" horiz-adv-x="1098" d="M141 -16l16 155l79 -7q85 2 133 100l72 156l-200 1068h192l131 -814l394 814h214l-643 -1271l-27 -47q-98 -163 -269 -163q-40 0 -92 9zM421 1691q1 46 30 76.5t77 32.5q46 1 76.5 -28.5t29.5 -76.5q0 -46 -30 -76t-77 -32q-47 -1 -76.5 28t-29.5 76zM838 1689 q1 46 30 77t76 33q48 1 78 -28.5t29 -77.5q0 -47 -30 -76.5t-77 -31.5q-46 -1 -76.5 28t-29.5 76z" />
<glyph unicode="&#x4f1;" horiz-adv-x="837" d="M-88 -422l17 150l37 -6q131 -6 204 134l73 164l-122 1062h182l56 -785l328 785h189l-560 -1250q-57 -136 -135.5 -205.5t-170.5 -66.5q-31 1 -98 18zM251 1369q1 46 30 76.5t77 32.5q46 1 76.5 -28.5t29.5 -76.5q0 -46 -30 -76t-77 -32q-47 -1 -76.5 28t-29.5 76z M668 1367q1 46 30 77t76 33q48 1 78 -28.5t29 -77.5q0 -47 -30 -76.5t-77 -31.5q-46 -1 -76.5 28t-29.5 76z" />
<glyph unicode="&#x4f2;" horiz-adv-x="1098" d="M141 -16l16 155l79 -7q85 2 133 100l72 156l-200 1068h192l131 -814l394 814h214l-643 -1271l-27 -47q-98 -163 -269 -163q-40 0 -92 9zM494 1554l181 303h192l-227 -303h-146zM727 1554l233 303h203l-270 -303h-166z" />
<glyph unicode="&#x4f3;" horiz-adv-x="837" d="M-88 -422l17 150l37 -6q131 -6 204 134l73 164l-122 1062h182l56 -785l328 785h189l-560 -1250q-57 -136 -135.5 -205.5t-170.5 -66.5q-31 1 -98 18zM324 1232l181 303h192l-227 -303h-146zM557 1232l233 303h203l-270 -303h-166z" />
<glyph unicode="&#x4f4;" horiz-adv-x="1203" d="M221 1001l75 455h180l-75 -456q-6 -55 -5 -106q3 -178 172 -183q133 -3 321 49l125 696h180l-253 -1456h-180l111 603q-151 -55 -315 -51q-185 2 -272 118.5t-64 330.5zM455 1691q1 46 30 76.5t77 32.5q46 1 76.5 -28.5t29.5 -76.5q0 -46 -30 -76t-77 -32 q-47 -1 -76.5 28t-29.5 76zM872 1689q1 46 30 77t76 33q48 1 78 -28.5t29 -77.5q0 -47 -30 -76.5t-77 -31.5q-46 -1 -76.5 28t-29.5 76z" />
<glyph unicode="&#x4f5;" horiz-adv-x="963" d="M145 767l50 316h173l-50 -317l-5 -81q-2 -76 29.5 -121.5t94.5 -48.5q79 -3 196 26l98 541h174l-188 -1082h-174l74 389q-97 -29 -190 -27q-152 3 -226.5 113t-55.5 292zM265 1349q1 46 30 76.5t77 32.5q46 1 76.5 -28.5t29.5 -76.5q0 -46 -30 -76t-77 -32 q-47 -1 -76.5 28t-29.5 76zM682 1347q1 46 30 77t76 33q48 1 78 -28.5t29 -77.5q0 -47 -30 -76.5t-77 -31.5q-46 -1 -76.5 28t-29.5 76z" />
<glyph unicode="&#x4f6;" horiz-adv-x="979" d="M56 0l253 1456h736l-28 -158h-555l-226 -1298h-180zM145 -359l90 512h173l-90 -512h-173z" />
<glyph unicode="&#x4f7;" horiz-adv-x="747" d="M37 0l188 1082h565l-27 -153h-391l-161 -929h-174zM124 -359l90 512h173l-90 -512h-173z" />
<glyph unicode="&#x4f8;" horiz-adv-x="1511" d="M58 0l253 1456h178l-103 -594l270 -2q175 -6 268 -118t78 -299q-16 -197 -145 -321.5t-324 -121.5h-475zM264 157l272 -2q92 1 160.5 52t103 144.5t23.5 188.5q-21 155 -171 163l-293 1zM622 1691q1 46 30 76.5t77 32.5q46 1 76.5 -28.5t29.5 -76.5q0 -46 -30 -76 t-77 -32q-47 -1 -76.5 28t-29.5 76zM1039 1689q1 46 30 77t76 33q48 1 78 -28.5t29 -77.5q0 -47 -30 -76.5t-77 -31.5q-46 -1 -76.5 28t-29.5 76zM1049 0l253 1456h179l-253 -1456h-179z" />
<glyph unicode="&#x4f9;" horiz-adv-x="1360" d="M39 0l188 1082h172l-65 -373l199 -2q95 -4 161.5 -47.5t98 -120t24.5 -173.5q-12 -165 -117.5 -266t-261.5 -100h-399zM237 151l203 -2q99 2 156 80.5t50 196.5q-3 56 -32.5 91.5t-81.5 39.5l-224 1zM474 1349q1 46 30 76.5t77 32.5q46 1 76.5 -28.5t29.5 -76.5 q0 -46 -30 -76t-77 -32q-47 -1 -76.5 28t-29.5 76zM891 1347q1 46 30 77t76 33q48 1 78 -28.5t29 -77.5q0 -47 -30 -76.5t-77 -31.5q-46 -1 -76.5 28t-29.5 76zM903 0l188 1082h173l-188 -1082h-173z" />
<glyph unicode="&#x4fa;" horiz-adv-x="1045" d="M24 -419l29 156q43 -16 81 -16q105 0 133 184l39 247h173l-37 -240q-23 -170 -105 -262t-214 -90q-46 2 -99 21zM97 715l27 151h527l-27 -151h-527zM122 0l253 1456h736l-28 -158h-555l-226 -1298h-180z" />
<glyph unicode="&#x4fb;" horiz-adv-x="825" d="M11 -419l29 156q43 -16 81 -16q105 0 133 184l39 247h173l-37 -240q-23 -170 -105 -262t-214 -90q-46 2 -99 21zM65 537l27 151h527l-27 -151h-527zM114 0l188 1082h565l-27 -153h-391l-161 -929h-174z" />
<glyph unicode="&#x4fc;" horiz-adv-x="1143" d="M-33 0l499 743l-254 713h199l180 -557l353 557h219l-487 -731l257 -725h-202l-182 567l-361 -567h-221zM561 -419l29 156q43 -16 81 -16q105 0 133 184l39 247h173l-37 -240q-23 -170 -105 -262t-214 -90q-46 2 -99 21z" />
<glyph unicode="&#x4fd;" horiz-adv-x="956" d="M-49 0l385 556l-198 526h189l114 -393l241 393h209l-376 -544l204 -538h-189l-121 404l-249 -404h-209zM362 -419l29 156q43 -16 81 -16q105 0 133 184l39 247h173l-37 -240q-23 -170 -105 -262t-214 -90q-46 2 -99 21z" />
<glyph unicode="&#x4fe;" horiz-adv-x="1104" d="M-33 0l450 670h-119l27 151h113l-226 635h199l180 -557l353 557h219l-423 -635h112l-27 -151h-130l238 -670h-202l-182 567l-361 -567h-221z" />
<glyph unicode="&#x4ff;" horiz-adv-x="882" d="M-49 0l333 481h-130l27 151h126l-169 450h189l114 -393l241 393h209l-311 -450h128l-27 -151h-145l183 -481h-189l-121 404l-249 -404h-209z" />
<glyph unicode="&#x500;" horiz-adv-x="1114" d="M77 437q16 199 144.5 323t324.5 124l293 -1l100 573h182l-253 -1456l-451 1q-174 7 -265.5 126.5t-74.5 309.5zM254 344q7 -83 50.5 -132t116.5 -53l293 -2l98 568l-272 2q-141 -2 -220 -113t-66 -270z" />
<glyph unicode="&#x501;" horiz-adv-x="996" d="M70 380q0 89 23 236t71 249q114 243 350 236q149 -4 222 -126l104 561h173l-266 -1536h-157l19 116q-107 -140 -257 -136q-135 2 -208.5 105t-73.5 295zM242 337q5 -199 165 -202q57 -2 109 28.5t105 104.5l94 548q-50 125 -167 130q-237 12 -286 -348q-24 -176 -20 -261 z" />
<glyph unicode="&#x502;" horiz-adv-x="1448" d="M78 437q18 200 146.5 323.5t324.5 123.5l294 -1l100 573h181l-229 -1303h55q116 4 182 117.5t68 324.5q0 82 -14 163l167 -1q11 -81 16 -162q8 -170 -43 -308.5t-152.5 -214t-231.5 -72.5l-522 1q-172 7 -265.5 125.5t-76.5 310.5zM257 344q7 -83 50 -132.5t117 -53.5 l293 -1l99 568l-273 2q-141 -2 -220 -113t-66 -270z" />
<glyph unicode="&#x503;" horiz-adv-x="1487" d="M77 386q0 107 28.5 246t85 249.5t140 167.5t184.5 54q137 -4 214 -113l106 570h171l-205 -1216l-3 -64q-2 -63 24 -105.5t73 -44.5q138 -8 217.5 149t97.5 454q6 99 -6 199l160 1q9 -101 8 -199q-3 -339 -136 -548.5t-357 -206.5q-200 5 -241 168q-122 -173 -284 -170 q-135 2 -207 111.5t-70 297.5zM249 350q11 -212 159 -215q57 -2 107 28.5t103 105.5l6 76l81 481q-53 116 -156 120q-117 4 -190.5 -105.5t-100.5 -321.5l-2 -21q-10 -81 -7 -148z" />
<glyph unicode="&#x504;" horiz-adv-x="1372" d="M184 1298l28 158l281 -1q180 -6 271 -113t75 -289q-21 -228 -250 -342q128 -64 135 -240q2 -55 -4.5 -121.5t-5.5 -97.5q4 -112 83 -117q104 -7 170.5 117t94.5 395l7 86q6 99 -5 200h167q8 -100 8 -199q0 -220 -59.5 -397.5t-160.5 -269t-238 -89.5q-125 2 -189 85.5 t-55 239.5q9 107 7 154q-5 77 -42 123.5t-99 50.5l-172 2l28 158l100 -1q268 0 299 264q6 51 1 94q-20 143 -171 149z" />
<glyph unicode="&#x505;" horiz-adv-x="1128" d="M103 442l25 150l136 -1q96 2 153.5 46t68.5 124q11 78 -25 122t-114 48l-225 1l22 150l206 -1q152 -4 236.5 -87.5t75.5 -225.5q-5 -77 -51.5 -136.5t-144.5 -107.5q127 -57 113 -234l-7 -79l-1 -30q0 -55 48 -58q110 -9 174.5 120t66.5 339q0 79 -14 157h159 q11 -78 17 -156q10 -158 -39 -304t-148 -227.5t-226 -78.5q-107 2 -160.5 63.5t-47.5 177.5l7 77q13 141 -122 149z" />
<glyph unicode="&#x506;" horiz-adv-x="944" d="M159 633l27 151l122 -1q110 0 182.5 47.5t102.5 136t19 180.5q-21 151 -174 156l-235 1l27 151l211 -1q117 -4 197.5 -53t117.5 -140t26 -212q-20 -224 -245 -340q123 -67 127 -241q1 -50 -5 -97l-24 -136l-5 -24l158 1l-22 -136q-37 -226 -209 -373l-95 74 q81 115 120 223h-96q-29 45 -30 115l1 45l31 228l1 67q-4 79 -39.5 125.5t-99.5 50.5z" />
<glyph unicode="&#x507;" horiz-adv-x="891" d="M147 440l27 151l159 -1q96 2 152 46.5t67 125.5q11 78 -25 121.5t-114 47.5l-236 1l27 150l212 -1q151 -4 235.5 -86.5t75.5 -224.5q-7 -80 -54 -141t-144 -107q103 -47 110 -176q2 -38 -3 -76l-13 -75l148 1l-22 -137q-37 -226 -210 -372l-93 74q84 123 123 239h-87 q-38 45 -32 128l19 167l-2 38q-13 99 -116 105z" />
<glyph unicode="&#x508;" horiz-adv-x="1668" d="M-23 0l17 156l31 1q105 6 175.5 102t108.5 307l30 193l140 697h722l-187 -1111l-2 -63q0 -65 24 -104.5t71 -41.5q136 -8 212 149t94 448q6 99 -6 199l166 1q8 -100 8 -199q-3 -337 -136 -550t-355 -207q-136 5 -203.5 95.5t-56.5 249.5l2 24l161 952h-368l-115 -556 l-31 -168q-57 -303 -163 -436.5t-272 -137.5h-67z" />
</font>
</defs>
</svg>
